<svg width="1204" height="678" viewBox="0 0 1204 678" fill="none" xmlns="http://www.w3.org/2000/svg">
<rect width="1204" height="677.25" fill="white"/>
<path d="M302.733 259.405H290.193V294H284.363V259.405H271.768V254.51H302.733V259.405Z" fill="#41A5DD"/>
<path d="M313.66 265.62C315.713 265.62 317.565 265.959 319.215 266.638C320.883 267.298 322.295 268.26 323.45 269.525C324.623 270.772 325.522 272.284 326.145 274.063C326.768 275.823 327.08 277.803 327.08 280.003C327.08 282.203 326.768 284.192 326.145 285.97C325.522 287.748 324.623 289.261 323.45 290.508C322.295 291.754 320.883 292.717 319.215 293.395C317.565 294.055 315.713 294.385 313.66 294.385C311.588 294.385 309.718 294.055 308.05 293.395C306.4 292.717 304.988 291.754 303.815 290.508C302.642 289.261 301.734 287.748 301.092 285.97C300.469 284.192 300.157 282.203 300.157 280.003C300.157 277.803 300.469 275.823 301.092 274.063C301.734 272.284 302.642 270.772 303.815 269.525C304.988 268.26 306.4 267.298 308.05 266.638C309.718 265.959 311.588 265.62 313.66 265.62ZM313.66 290.205C316.3 290.205 318.271 289.316 319.572 287.538C320.874 285.759 321.525 283.257 321.525 280.03C321.525 276.803 320.874 274.301 319.572 272.523C318.271 270.726 316.3 269.828 313.66 269.828C310.983 269.828 308.985 270.726 307.665 272.523C306.363 274.301 305.712 276.803 305.712 280.03C305.712 283.257 306.363 285.759 307.665 287.538C308.985 289.316 310.983 290.205 313.66 290.205Z" fill="#41A5DD"/>
<path d="M368.757 271.285C368.592 271.487 368.427 271.652 368.262 271.78C368.115 271.89 367.895 271.945 367.602 271.945C367.309 271.945 366.997 271.835 366.667 271.615C366.355 271.377 365.952 271.129 365.457 270.873C364.98 270.598 364.394 270.35 363.697 270.13C363.019 269.892 362.175 269.773 361.167 269.773C359.847 269.773 358.683 270.011 357.675 270.488C356.666 270.964 355.823 271.643 355.145 272.523C354.485 273.403 353.98 274.475 353.632 275.74C353.284 277.005 353.11 278.426 353.11 280.003C353.11 281.634 353.293 283.092 353.66 284.375C354.026 285.64 354.549 286.713 355.227 287.593C355.905 288.454 356.73 289.114 357.702 289.573C358.674 290.013 359.755 290.233 360.947 290.233C362.102 290.233 363.055 290.095 363.807 289.82C364.559 289.527 365.182 289.215 365.677 288.885C366.172 288.555 366.585 288.253 366.915 287.978C367.245 287.684 367.584 287.538 367.932 287.538C368.372 287.538 368.711 287.703 368.95 288.033L370.49 290.013C369.848 290.801 369.124 291.47 368.317 292.02C367.529 292.57 366.685 293.019 365.787 293.368C364.889 293.716 363.945 293.973 362.955 294.138C361.983 294.303 360.993 294.385 359.985 294.385C358.243 294.385 356.611 294.064 355.09 293.423C353.586 292.781 352.275 291.846 351.157 290.618C350.057 289.389 349.186 287.886 348.545 286.108C347.903 284.311 347.582 282.276 347.582 280.003C347.582 277.931 347.866 276.015 348.435 274.255C349.021 272.495 349.874 270.983 350.992 269.718C352.129 268.434 353.522 267.435 355.172 266.72C356.822 265.987 358.71 265.62 360.837 265.62C362.835 265.62 364.595 265.941 366.117 266.583C367.639 267.224 368.995 268.132 370.187 269.305L368.757 271.285Z" fill="#41A5DD"/>
<path d="M381.655 271.423C382.554 269.589 383.635 268.15 384.9 267.105C386.165 266.06 387.687 265.538 389.465 265.538C390.07 265.538 390.639 265.611 391.17 265.758C391.72 265.886 392.197 266.088 392.6 266.363L392.243 270.405C392.115 270.9 391.812 271.148 391.335 271.148C391.079 271.148 390.694 271.102 390.18 271.01C389.667 270.9 389.117 270.845 388.53 270.845C387.669 270.845 386.908 270.973 386.248 271.23C385.588 271.468 384.992 271.835 384.46 272.33C383.947 272.807 383.489 273.403 383.085 274.118C382.682 274.814 382.306 275.612 381.958 276.51V294H376.595V266.06H379.675C380.262 266.06 380.656 266.17 380.858 266.39C381.078 266.592 381.234 266.958 381.325 267.49L381.655 271.423Z" fill="#41A5DD"/>
<path d="M415.324 276.923C415.324 275.859 415.168 274.878 414.857 273.98C414.563 273.082 414.123 272.303 413.537 271.643C412.95 270.983 412.235 270.469 411.392 270.103C410.548 269.736 409.577 269.553 408.477 269.553C406.222 269.553 404.443 270.203 403.142 271.505C401.858 272.807 401.042 274.613 400.694 276.923H415.324ZM419.752 290.013C419.092 290.783 418.331 291.452 417.469 292.02C416.607 292.57 415.691 293.019 414.719 293.368C413.747 293.716 412.739 293.973 411.694 294.138C410.667 294.303 409.65 294.385 408.642 294.385C406.717 294.385 404.929 294.064 403.279 293.423C401.647 292.763 400.227 291.809 399.017 290.563C397.825 289.298 396.89 287.739 396.212 285.888C395.552 284.018 395.222 281.873 395.222 279.453C395.222 277.509 395.524 275.703 396.129 274.035C396.734 272.348 397.596 270.882 398.714 269.635C399.851 268.388 401.235 267.408 402.867 266.693C404.498 265.978 406.332 265.62 408.367 265.62C410.072 265.62 411.639 265.904 413.069 266.473C414.517 267.023 415.764 267.829 416.809 268.893C417.854 269.956 418.67 271.267 419.257 272.825C419.862 274.383 420.164 276.162 420.164 278.16C420.164 278.985 420.072 279.544 419.889 279.838C419.706 280.113 419.367 280.25 418.872 280.25H400.557C400.612 281.918 400.85 283.376 401.272 284.623C401.693 285.851 402.271 286.878 403.004 287.703C403.756 288.528 404.645 289.142 405.672 289.545C406.698 289.948 407.844 290.15 409.109 290.15C410.301 290.15 411.327 290.013 412.189 289.738C413.069 289.463 413.821 289.169 414.444 288.858C415.086 288.528 415.617 288.225 416.039 287.95C416.479 287.675 416.864 287.538 417.194 287.538C417.634 287.538 417.973 287.703 418.212 288.033L419.752 290.013Z" fill="#41A5DD"/>
<path d="M442.043 281.598C439.861 281.671 438.01 281.845 436.488 282.12C434.966 282.377 433.729 282.725 432.775 283.165C431.822 283.605 431.135 284.128 430.713 284.733C430.291 285.319 430.08 285.979 430.08 286.713C430.08 287.409 430.19 288.014 430.41 288.528C430.649 289.023 430.96 289.435 431.345 289.765C431.749 290.077 432.216 290.306 432.748 290.453C433.28 290.599 433.857 290.673 434.48 290.673C435.305 290.673 436.057 290.59 436.735 290.425C437.432 290.26 438.083 290.031 438.688 289.738C439.293 289.426 439.87 289.05 440.42 288.61C440.97 288.17 441.511 287.666 442.043 287.098V281.598ZM426.313 269.965C427.871 268.48 429.558 267.371 431.373 266.638C433.206 265.904 435.214 265.538 437.395 265.538C438.99 265.538 440.402 265.803 441.63 266.335C442.859 266.848 443.895 267.573 444.738 268.508C445.581 269.443 446.214 270.561 446.635 271.863C447.075 273.164 447.295 274.603 447.295 276.18V294H444.903C444.371 294 443.968 293.918 443.693 293.753C443.418 293.569 443.198 293.239 443.033 292.763L442.455 290.315C441.74 290.975 441.035 291.562 440.338 292.075C439.641 292.57 438.908 293.001 438.138 293.368C437.386 293.716 436.58 293.982 435.718 294.165C434.856 294.348 433.903 294.44 432.858 294.44C431.758 294.44 430.722 294.293 429.75 294C428.797 293.688 427.963 293.221 427.248 292.598C426.533 291.974 425.965 291.195 425.543 290.26C425.14 289.325 424.938 288.234 424.938 286.988C424.938 285.888 425.231 284.833 425.818 283.825C426.423 282.798 427.395 281.882 428.733 281.075C430.09 280.268 431.85 279.608 434.013 279.095C436.195 278.582 438.871 278.288 442.043 278.215V276.18C442.043 274.072 441.594 272.495 440.695 271.45C439.797 270.405 438.477 269.883 436.735 269.883C435.562 269.883 434.572 270.029 433.765 270.323C432.977 270.616 432.29 270.946 431.703 271.313C431.135 271.661 430.63 271.982 430.19 272.275C429.769 272.568 429.329 272.715 428.87 272.715C428.504 272.715 428.183 272.614 427.908 272.413C427.651 272.211 427.44 271.973 427.275 271.698L426.313 269.965Z" fill="#41A5DD"/>
<path d="M463.943 294.44C461.688 294.44 459.946 293.808 458.718 292.543C457.508 291.278 456.903 289.472 456.903 287.125V270.405H453.658C453.346 270.405 453.081 270.313 452.861 270.13C452.659 269.928 452.558 269.635 452.558 269.25V267.078L457.096 266.445L458.306 258.113C458.379 257.801 458.516 257.563 458.718 257.398C458.938 257.214 459.213 257.123 459.543 257.123H462.266V266.5H470.186V270.405H462.266V286.768C462.266 287.868 462.531 288.693 463.063 289.243C463.613 289.774 464.31 290.04 465.153 290.04C465.648 290.04 466.07 289.976 466.418 289.848C466.785 289.719 467.096 289.582 467.353 289.435C467.61 289.27 467.83 289.123 468.013 288.995C468.197 288.867 468.361 288.803 468.508 288.803C468.691 288.803 468.829 288.848 468.921 288.94C469.031 289.013 469.141 289.142 469.251 289.325L470.846 291.91C469.966 292.717 468.921 293.34 467.711 293.78C466.501 294.22 465.245 294.44 463.943 294.44Z" fill="#41A5DD"/>
<path d="M494.571 276.923C494.571 275.859 494.415 274.878 494.104 273.98C493.81 273.082 493.37 272.303 492.784 271.643C492.197 270.983 491.482 270.469 490.639 270.103C489.795 269.736 488.824 269.553 487.724 269.553C485.469 269.553 483.69 270.203 482.389 271.505C481.105 272.807 480.29 274.613 479.941 276.923H494.571ZM498.999 290.013C498.339 290.783 497.578 291.452 496.716 292.02C495.855 292.57 494.938 293.019 493.966 293.368C492.995 293.716 491.986 293.973 490.941 294.138C489.915 294.303 488.897 294.385 487.889 294.385C485.964 294.385 484.176 294.064 482.526 293.423C480.895 292.763 479.474 291.809 478.264 290.563C477.072 289.298 476.137 287.739 475.459 285.888C474.799 284.018 474.469 281.873 474.469 279.453C474.469 277.509 474.771 275.703 475.376 274.035C475.981 272.348 476.843 270.882 477.961 269.635C479.098 268.388 480.482 267.408 482.114 266.693C483.745 265.978 485.579 265.62 487.614 265.62C489.319 265.62 490.886 265.904 492.316 266.473C493.765 267.023 495.011 267.829 496.056 268.893C497.101 269.956 497.917 271.267 498.504 272.825C499.109 274.383 499.411 276.162 499.411 278.16C499.411 278.985 499.32 279.544 499.136 279.838C498.953 280.113 498.614 280.25 498.119 280.25H479.804C479.859 281.918 480.097 283.376 480.519 284.623C480.94 285.851 481.518 286.878 482.251 287.703C483.003 288.528 483.892 289.142 484.919 289.545C485.945 289.948 487.091 290.15 488.356 290.15C489.548 290.15 490.575 290.013 491.436 289.738C492.316 289.463 493.068 289.169 493.691 288.858C494.333 288.528 494.865 288.225 495.286 287.95C495.726 287.675 496.111 287.538 496.441 287.538C496.881 287.538 497.22 287.703 497.459 288.033L498.999 290.013Z" fill="#41A5DD"/>
<path d="M530.031 294.44C527.776 294.44 526.035 293.808 524.806 292.543C523.596 291.278 522.991 289.472 522.991 287.125V270.405H519.746C519.435 270.405 519.169 270.313 518.949 270.13C518.747 269.928 518.646 269.635 518.646 269.25V267.078L523.184 266.445L524.394 258.113C524.467 257.801 524.605 257.563 524.806 257.398C525.026 257.214 525.301 257.123 525.631 257.123H528.354V266.5H536.274V270.405H528.354V286.768C528.354 287.868 528.62 288.693 529.151 289.243C529.701 289.774 530.398 290.04 531.241 290.04C531.736 290.04 532.158 289.976 532.506 289.848C532.873 289.719 533.185 289.582 533.441 289.435C533.698 289.27 533.918 289.123 534.101 288.995C534.285 288.867 534.45 288.803 534.596 288.803C534.78 288.803 534.917 288.848 535.009 288.94C535.119 289.013 535.229 289.142 535.339 289.325L536.934 291.91C536.054 292.717 535.009 293.34 533.799 293.78C532.589 294.22 531.333 294.44 530.031 294.44Z" fill="#41A5DD"/>
<path d="M547.676 269.608C548.849 268.416 550.141 267.453 551.553 266.72C552.983 265.987 554.624 265.62 556.476 265.62C558.016 265.62 559.363 265.877 560.518 266.39C561.691 266.903 562.672 267.628 563.461 268.563C564.249 269.479 564.845 270.588 565.248 271.89C565.651 273.192 565.853 274.631 565.853 276.208V294H560.463V276.208C560.463 274.209 560.005 272.66 559.088 271.56C558.171 270.442 556.769 269.883 554.881 269.883C553.506 269.883 552.213 270.213 551.003 270.873C549.811 271.514 548.702 272.394 547.676 273.513V294H542.313V253.41H547.676V269.608Z" fill="#41A5DD"/>
<path d="M592.697 276.923C592.697 275.859 592.541 274.878 592.229 273.98C591.936 273.082 591.496 272.303 590.909 271.643C590.323 270.983 589.608 270.469 588.764 270.103C587.921 269.736 586.949 269.553 585.849 269.553C583.594 269.553 581.816 270.203 580.514 271.505C579.231 272.807 578.415 274.613 578.067 276.923H592.697ZM597.124 290.013C596.464 290.783 595.704 291.452 594.842 292.02C593.98 292.57 593.064 293.019 592.092 293.368C591.12 293.716 590.112 293.973 589.067 294.138C588.04 294.303 587.023 294.385 586.014 294.385C584.089 294.385 582.302 294.064 580.652 293.423C579.02 292.763 577.599 291.809 576.389 290.563C575.198 289.298 574.263 287.739 573.584 285.888C572.924 284.018 572.594 281.873 572.594 279.453C572.594 277.509 572.897 275.703 573.502 274.035C574.107 272.348 574.969 270.882 576.087 269.635C577.224 268.388 578.608 267.408 580.239 266.693C581.871 265.978 583.704 265.62 585.739 265.62C587.444 265.62 589.012 265.904 590.442 266.473C591.89 267.023 593.137 267.829 594.182 268.893C595.227 269.956 596.043 271.267 596.629 272.825C597.234 274.383 597.537 276.162 597.537 278.16C597.537 278.985 597.445 279.544 597.262 279.838C597.079 280.113 596.739 280.25 596.244 280.25H577.929C577.984 281.918 578.223 283.376 578.644 284.623C579.066 285.851 579.644 286.878 580.377 287.703C581.129 288.528 582.018 289.142 583.044 289.545C584.071 289.948 585.217 290.15 586.482 290.15C587.674 290.15 588.7 290.013 589.562 289.738C590.442 289.463 591.194 289.169 591.817 288.858C592.459 288.528 592.99 288.225 593.412 287.95C593.852 287.675 594.237 287.538 594.567 287.538C595.007 287.538 595.346 287.703 595.584 288.033L597.124 290.013Z" fill="#41A5DD"/>
<path d="M657.141 266.06L648.149 294H643.859C643.346 294 642.997 293.661 642.814 292.983L636.929 274.778C636.782 274.319 636.654 273.87 636.544 273.43C636.434 272.972 636.333 272.513 636.241 272.055C636.076 273.008 635.847 273.934 635.554 274.833L629.586 292.983C629.403 293.661 629.009 294 628.404 294H624.334L615.314 266.06H619.549C619.971 266.06 620.319 266.161 620.594 266.363C620.887 266.564 621.08 266.821 621.171 267.133L626.204 284.293C626.369 284.989 626.516 285.668 626.644 286.328C626.772 286.988 626.891 287.648 627.001 288.308C627.166 287.648 627.341 286.988 627.524 286.328C627.726 285.668 627.927 284.989 628.129 284.293L633.711 267.023C633.803 266.711 633.977 266.463 634.234 266.28C634.491 266.078 634.802 265.978 635.169 265.978H637.506C637.91 265.978 638.24 266.078 638.496 266.28C638.771 266.463 638.955 266.711 639.046 267.023L644.491 284.293C644.693 284.989 644.886 285.677 645.069 286.355C645.252 287.015 645.417 287.684 645.564 288.363C645.674 287.703 645.802 287.043 645.949 286.383C646.096 285.704 646.261 285.008 646.444 284.293L651.559 267.133C651.651 266.821 651.834 266.564 652.109 266.363C652.402 266.161 652.732 266.06 653.099 266.06H657.141Z" fill="#41A5DD"/>
<path d="M674.26 265.62C676.313 265.62 678.165 265.959 679.815 266.638C681.483 267.298 682.895 268.26 684.05 269.525C685.224 270.772 686.122 272.284 686.745 274.063C687.368 275.823 687.68 277.803 687.68 280.003C687.68 282.203 687.368 284.192 686.745 285.97C686.122 287.748 685.224 289.261 684.05 290.508C682.895 291.754 681.483 292.717 679.815 293.395C678.165 294.055 676.313 294.385 674.26 294.385C672.188 294.385 670.318 294.055 668.65 293.395C667 292.717 665.588 291.754 664.415 290.508C663.242 289.261 662.334 287.748 661.693 285.97C661.069 284.192 660.758 282.203 660.758 280.003C660.758 277.803 661.069 275.823 661.693 274.063C662.334 272.284 663.242 270.772 664.415 269.525C665.588 268.26 667 267.298 668.65 266.638C670.318 265.959 672.188 265.62 674.26 265.62ZM674.26 290.205C676.9 290.205 678.871 289.316 680.173 287.538C681.474 285.759 682.125 283.257 682.125 280.03C682.125 276.803 681.474 274.301 680.173 272.523C678.871 270.726 676.9 269.828 674.26 269.828C671.583 269.828 669.585 270.726 668.265 272.523C666.964 274.301 666.313 276.803 666.313 280.03C666.313 283.257 666.964 285.759 668.265 287.538C669.585 289.316 671.583 290.205 674.26 290.205Z" fill="#41A5DD"/>
<path d="M699.826 271.423C700.724 269.589 701.806 268.15 703.071 267.105C704.336 266.06 705.858 265.538 707.636 265.538C708.241 265.538 708.809 265.611 709.341 265.758C709.891 265.886 710.368 266.088 710.771 266.363L710.414 270.405C710.285 270.9 709.983 271.148 709.506 271.148C709.249 271.148 708.864 271.102 708.351 271.01C707.838 270.9 707.288 270.845 706.701 270.845C705.839 270.845 705.079 270.973 704.419 271.23C703.759 271.468 703.163 271.835 702.631 272.33C702.118 272.807 701.659 273.403 701.256 274.118C700.853 274.814 700.477 275.612 700.129 276.51V294H694.766V266.06H697.846C698.433 266.06 698.827 266.17 699.029 266.39C699.249 266.592 699.404 266.958 699.496 267.49L699.826 271.423Z" fill="#41A5DD"/>
<path d="M721.508 253.41V294H716.118V253.41H721.508Z" fill="#41A5DD"/>
<path d="M748.279 272.825C747.399 271.67 746.446 270.863 745.419 270.405C744.411 269.947 743.274 269.718 742.009 269.718C739.553 269.718 737.646 270.607 736.289 272.385C734.951 274.145 734.282 276.721 734.282 280.113C734.282 281.891 734.429 283.413 734.722 284.678C735.034 285.924 735.474 286.951 736.042 287.758C736.629 288.546 737.344 289.133 738.187 289.518C739.03 289.884 739.984 290.068 741.047 290.068C742.605 290.068 743.953 289.719 745.089 289.023C746.226 288.326 747.289 287.345 748.279 286.08V272.825ZM753.669 253.41V294H750.424C749.673 294 749.205 293.643 749.022 292.928L748.554 289.71C747.363 291.122 746.006 292.258 744.484 293.12C742.981 293.963 741.239 294.385 739.259 294.385C737.664 294.385 736.216 294.073 734.914 293.45C733.631 292.827 732.531 291.919 731.614 290.728C730.698 289.518 729.992 288.023 729.497 286.245C729.002 284.467 728.754 282.423 728.754 280.113C728.754 278.041 729.029 276.116 729.579 274.338C730.129 272.559 730.927 271.019 731.972 269.718C733.017 268.416 734.282 267.398 735.767 266.665C737.252 265.913 738.929 265.538 740.799 265.538C742.486 265.538 743.916 265.813 745.089 266.363C746.281 266.913 747.344 267.692 748.279 268.7V253.41H753.669Z" fill="#41A5DD"/>
<path d="M765.908 251.87C766.715 253.208 767.256 254.62 767.531 256.105C767.824 257.572 767.861 259.029 767.641 260.478C767.421 261.908 766.944 263.292 766.211 264.63C765.477 265.95 764.506 267.133 763.296 268.178L761.646 267.133C761.334 266.931 761.197 266.693 761.233 266.418C761.27 266.124 761.371 265.895 761.536 265.73C761.994 265.18 762.388 264.502 762.718 263.695C763.067 262.87 763.296 261.981 763.406 261.028C763.516 260.056 763.479 259.057 763.296 258.03C763.112 257.003 762.727 255.995 762.141 255.005C761.884 254.583 761.811 254.208 761.921 253.878C762.031 253.548 762.269 253.309 762.636 253.163L765.908 251.87Z" fill="#41A5DD"/>
<path d="M790.404 270.873C790.258 271.111 790.102 271.285 789.937 271.395C789.772 271.487 789.561 271.533 789.304 271.533C789.011 271.533 788.681 271.432 788.314 271.23C787.966 271.028 787.535 270.808 787.022 270.57C786.527 270.332 785.94 270.112 785.262 269.91C784.583 269.708 783.777 269.608 782.842 269.608C782.072 269.608 781.366 269.708 780.724 269.91C780.101 270.093 779.569 270.359 779.129 270.708C778.689 271.038 778.35 271.441 778.112 271.918C777.873 272.376 777.754 272.871 777.754 273.403C777.754 274.099 777.956 274.677 778.359 275.135C778.781 275.593 779.322 275.988 779.982 276.318C780.66 276.648 781.421 276.95 782.264 277.225C783.126 277.482 783.997 277.757 784.877 278.05C785.775 278.343 786.646 278.683 787.489 279.068C788.351 279.434 789.112 279.902 789.772 280.47C790.45 281.02 790.991 281.689 791.394 282.478C791.816 283.266 792.027 284.228 792.027 285.365C792.027 286.667 791.788 287.877 791.312 288.995C790.853 290.095 790.166 291.048 789.249 291.855C788.351 292.662 787.233 293.294 785.894 293.753C784.556 294.211 783.025 294.44 781.302 294.44C779.377 294.44 777.598 294.119 775.967 293.478C774.335 292.836 772.969 292.02 771.869 291.03L773.134 288.968C773.281 288.711 773.464 288.518 773.684 288.39C773.904 288.243 774.198 288.17 774.564 288.17C774.913 288.17 775.27 288.298 775.637 288.555C776.003 288.812 776.443 289.096 776.957 289.408C777.47 289.701 778.093 289.976 778.827 290.233C779.56 290.471 780.477 290.59 781.577 290.59C782.493 290.59 783.291 290.48 783.969 290.26C784.648 290.022 785.207 289.71 785.647 289.325C786.105 288.922 786.444 288.463 786.664 287.95C786.884 287.437 786.994 286.896 786.994 286.328C786.994 285.594 786.783 284.989 786.362 284.513C785.958 284.018 785.418 283.596 784.739 283.248C784.079 282.899 783.318 282.597 782.457 282.34C781.595 282.083 780.715 281.808 779.817 281.515C778.918 281.222 778.038 280.883 777.177 280.498C776.315 280.113 775.545 279.627 774.867 279.04C774.207 278.453 773.666 277.738 773.244 276.895C772.841 276.052 772.639 275.025 772.639 273.815C772.639 272.733 772.859 271.698 773.299 270.708C773.758 269.718 774.408 268.847 775.252 268.095C776.113 267.343 777.168 266.748 778.414 266.308C779.679 265.849 781.118 265.62 782.732 265.62C784.583 265.62 786.252 265.913 787.737 266.5C789.24 267.087 790.523 267.893 791.587 268.92L790.404 270.873Z" fill="#41A5DD"/>
<path d="M813.944 294V266.06H817.162C817.913 266.06 818.381 266.418 818.564 267.133L818.949 269.8C819.976 268.572 821.113 267.573 822.359 266.803C823.624 266.014 825.1 265.62 826.787 265.62C828.638 265.62 830.142 266.133 831.297 267.16C832.452 268.168 833.295 269.543 833.827 271.285C834.23 270.295 834.753 269.443 835.394 268.728C836.036 268.013 836.751 267.426 837.539 266.968C838.328 266.509 839.162 266.17 840.042 265.95C840.94 265.73 841.848 265.62 842.764 265.62C844.249 265.62 845.569 265.858 846.724 266.335C847.898 266.793 848.888 267.472 849.694 268.37C850.501 269.268 851.115 270.378 851.537 271.698C851.958 273.018 852.169 274.521 852.169 276.208V294H846.779V276.208C846.779 274.118 846.321 272.541 845.404 271.478C844.506 270.414 843.186 269.883 841.444 269.883C840.674 269.883 839.941 270.02 839.244 270.295C838.548 270.552 837.933 270.946 837.402 271.478C836.888 272.009 836.476 272.669 836.164 273.458C835.871 274.246 835.724 275.163 835.724 276.208V294H830.334V276.208C830.334 274.044 829.903 272.449 829.042 271.423C828.18 270.396 826.915 269.883 825.247 269.883C824.092 269.883 823.019 270.185 822.029 270.79C821.039 271.395 820.132 272.22 819.307 273.265V294H813.944Z" fill="#41A5DD"/>
<path d="M872.391 265.62C874.445 265.62 876.296 265.959 877.946 266.638C879.615 267.298 881.026 268.26 882.181 269.525C883.355 270.772 884.253 272.284 884.876 274.063C885.5 275.823 885.811 277.803 885.811 280.003C885.811 282.203 885.5 284.192 884.876 285.97C884.253 287.748 883.355 289.261 882.181 290.508C881.026 291.754 879.615 292.717 877.946 293.395C876.296 294.055 874.445 294.385 872.391 294.385C870.32 294.385 868.45 294.055 866.781 293.395C865.131 292.717 863.72 291.754 862.546 290.508C861.373 289.261 860.465 287.748 859.824 285.97C859.2 284.192 858.889 282.203 858.889 280.003C858.889 277.803 859.2 275.823 859.824 274.063C860.465 272.284 861.373 270.772 862.546 269.525C863.72 268.26 865.131 267.298 866.781 266.638C868.45 265.959 870.32 265.62 872.391 265.62ZM872.391 290.205C875.031 290.205 877.002 289.316 878.304 287.538C879.605 285.759 880.256 283.257 880.256 280.03C880.256 276.803 879.605 274.301 878.304 272.523C877.002 270.726 875.031 269.828 872.391 269.828C869.715 269.828 867.716 270.726 866.396 272.523C865.095 274.301 864.444 276.803 864.444 280.03C864.444 283.257 865.095 285.759 866.396 287.538C867.716 289.316 869.715 290.205 872.391 290.205Z" fill="#41A5DD"/>
<path d="M909.37 270.873C909.223 271.111 909.067 271.285 908.902 271.395C908.737 271.487 908.526 271.533 908.27 271.533C907.976 271.533 907.646 271.432 907.28 271.23C906.931 271.028 906.501 270.808 905.987 270.57C905.492 270.332 904.906 270.112 904.227 269.91C903.549 269.708 902.742 269.608 901.807 269.608C901.037 269.608 900.331 269.708 899.69 269.91C899.066 270.093 898.535 270.359 898.095 270.708C897.655 271.038 897.316 271.441 897.077 271.918C896.839 272.376 896.72 272.871 896.72 273.403C896.72 274.099 896.921 274.677 897.325 275.135C897.746 275.593 898.287 275.988 898.947 276.318C899.626 276.648 900.386 276.95 901.23 277.225C902.091 277.482 902.962 277.757 903.842 278.05C904.741 278.343 905.611 278.683 906.455 279.068C907.316 279.434 908.077 279.902 908.737 280.47C909.416 281.02 909.956 281.689 910.36 282.478C910.781 283.266 910.992 284.228 910.992 285.365C910.992 286.667 910.754 287.877 910.277 288.995C909.819 290.095 909.131 291.048 908.215 291.855C907.316 292.662 906.198 293.294 904.86 293.753C903.521 294.211 901.991 294.44 900.267 294.44C898.342 294.44 896.564 294.119 894.932 293.478C893.301 292.836 891.935 292.02 890.835 291.03L892.1 288.968C892.246 288.711 892.43 288.518 892.65 288.39C892.87 288.243 893.163 288.17 893.53 288.17C893.878 288.17 894.236 288.298 894.602 288.555C894.969 288.812 895.409 289.096 895.922 289.408C896.436 289.701 897.059 289.976 897.792 290.233C898.526 290.471 899.442 290.59 900.542 290.59C901.459 290.59 902.256 290.48 902.935 290.26C903.613 290.022 904.172 289.71 904.612 289.325C905.071 288.922 905.41 288.463 905.63 287.95C905.85 287.437 905.96 286.896 905.96 286.328C905.96 285.594 905.749 284.989 905.327 284.513C904.924 284.018 904.383 283.596 903.705 283.248C903.045 282.899 902.284 282.597 901.422 282.34C900.561 282.083 899.681 281.808 898.782 281.515C897.884 281.222 897.004 280.883 896.142 280.498C895.281 280.113 894.511 279.627 893.832 279.04C893.172 278.453 892.631 277.738 892.21 276.895C891.806 276.052 891.605 275.025 891.605 273.815C891.605 272.733 891.825 271.698 892.265 270.708C892.723 269.718 893.374 268.847 894.217 268.095C895.079 267.343 896.133 266.748 897.38 266.308C898.645 265.849 900.084 265.62 901.697 265.62C903.549 265.62 905.217 265.913 906.702 266.5C908.206 267.087 909.489 267.893 910.552 268.92L909.37 270.873Z" fill="#41A5DD"/>
<path d="M926.644 294.44C924.389 294.44 922.647 293.808 921.419 292.543C920.209 291.278 919.604 289.472 919.604 287.125V270.405H916.359C916.047 270.405 915.781 270.313 915.561 270.13C915.359 269.928 915.259 269.635 915.259 269.25V267.078L919.796 266.445L921.006 258.113C921.079 257.801 921.217 257.563 921.419 257.398C921.639 257.214 921.914 257.123 922.244 257.123H924.966V266.5H932.886V270.405H924.966V286.768C924.966 287.868 925.232 288.693 925.764 289.243C926.314 289.774 927.01 290.04 927.854 290.04C928.349 290.04 928.77 289.976 929.119 289.848C929.485 289.719 929.797 289.582 930.054 289.435C930.31 289.27 930.53 289.123 930.714 288.995C930.897 288.867 931.062 288.803 931.209 288.803C931.392 288.803 931.529 288.848 931.621 288.94C931.731 289.013 931.841 289.142 931.951 289.325L933.546 291.91C932.666 292.717 931.621 293.34 930.411 293.78C929.201 294.22 927.945 294.44 926.644 294.44Z" fill="#41A5DD"/>
<path d="M319.723 342.923C319.723 341.859 319.567 340.878 319.255 339.98C318.962 339.082 318.522 338.303 317.935 337.643C317.349 336.983 316.634 336.469 315.79 336.103C314.947 335.736 313.975 335.553 312.875 335.553C310.62 335.553 308.842 336.203 307.54 337.505C306.257 338.807 305.441 340.613 305.093 342.923H319.723ZM324.15 356.013C323.49 356.783 322.73 357.452 321.868 358.02C321.006 358.57 320.09 359.019 319.118 359.368C318.146 359.716 317.138 359.973 316.093 360.138C315.066 360.303 314.049 360.385 313.04 360.385C311.115 360.385 309.328 360.064 307.678 359.423C306.046 358.763 304.625 357.809 303.415 356.563C302.224 355.298 301.289 353.739 300.61 351.888C299.95 350.018 299.62 347.873 299.62 345.453C299.62 343.509 299.923 341.703 300.528 340.035C301.133 338.348 301.995 336.882 303.113 335.635C304.25 334.388 305.634 333.408 307.265 332.693C308.897 331.978 310.73 331.62 312.765 331.62C314.47 331.62 316.038 331.904 317.468 332.473C318.916 333.023 320.163 333.829 321.208 334.893C322.253 335.956 323.069 337.267 323.655 338.825C324.26 340.383 324.563 342.162 324.563 344.16C324.563 344.985 324.471 345.544 324.288 345.838C324.105 346.113 323.765 346.25 323.27 346.25H304.955C305.01 347.918 305.249 349.376 305.67 350.623C306.092 351.851 306.67 352.878 307.403 353.703C308.155 354.528 309.044 355.142 310.07 355.545C311.097 355.948 312.243 356.15 313.508 356.15C314.7 356.15 315.726 356.013 316.588 355.738C317.468 355.463 318.22 355.169 318.843 354.858C319.485 354.528 320.016 354.225 320.438 353.95C320.878 353.675 321.263 353.538 321.593 353.538C322.033 353.538 322.372 353.703 322.61 354.033L324.15 356.013Z" fill="#41A5DD"/>
<path d="M332.974 360V336.46L330.059 336.103C329.638 336.011 329.289 335.864 329.014 335.663C328.758 335.443 328.629 335.131 328.629 334.728V332.5H332.974V330.41C332.974 328.815 333.204 327.394 333.662 326.148C334.12 324.901 334.771 323.847 335.614 322.985C336.476 322.105 337.512 321.445 338.722 321.005C339.932 320.547 341.289 320.318 342.792 320.318C344.02 320.318 345.184 320.501 346.284 320.868L346.147 323.59C346.129 323.81 346.055 323.984 345.927 324.113C345.799 324.223 345.624 324.305 345.404 324.36C345.203 324.415 344.946 324.452 344.634 324.47C344.341 324.47 344.02 324.47 343.672 324.47C342.847 324.47 342.095 324.571 341.417 324.773C340.739 324.974 340.161 325.313 339.684 325.79C339.208 326.267 338.841 326.899 338.584 327.688C338.328 328.458 338.199 329.42 338.199 330.575V332.5H350.437V331.153C350.437 329.448 350.703 327.88 351.234 326.45C351.784 325.002 352.6 323.755 353.682 322.71C354.764 321.665 356.12 320.858 357.752 320.29C359.384 319.703 361.29 319.41 363.472 319.41C364.169 319.41 364.893 319.456 365.644 319.548C366.414 319.639 367.065 319.777 367.597 319.96L367.404 322.765C367.368 323.132 367.139 323.324 366.717 323.343C366.295 323.361 365.718 323.37 364.984 323.37C363.316 323.37 361.886 323.535 360.694 323.865C359.521 324.195 358.559 324.69 357.807 325.35C357.055 326.01 356.505 326.844 356.157 327.853C355.809 328.843 355.634 329.998 355.634 331.318V332.5H372.629V360H367.267V336.405H355.799V360H350.437V336.405H338.364V360H332.974Z" fill="#41A5DD"/>
<path d="M401.091 337.285C400.926 337.487 400.761 337.652 400.596 337.78C400.449 337.89 400.229 337.945 399.936 337.945C399.643 337.945 399.331 337.835 399.001 337.615C398.689 337.377 398.286 337.129 397.791 336.873C397.314 336.598 396.728 336.35 396.031 336.13C395.353 335.892 394.509 335.773 393.501 335.773C392.181 335.773 391.017 336.011 390.009 336.488C389 336.964 388.157 337.643 387.479 338.523C386.819 339.403 386.314 340.475 385.966 341.74C385.618 343.005 385.444 344.426 385.444 346.003C385.444 347.634 385.627 349.092 385.994 350.375C386.36 351.64 386.883 352.713 387.561 353.593C388.239 354.454 389.064 355.114 390.036 355.573C391.008 356.013 392.089 356.233 393.281 356.233C394.436 356.233 395.389 356.095 396.141 355.82C396.893 355.527 397.516 355.215 398.011 354.885C398.506 354.555 398.919 354.253 399.249 353.978C399.579 353.684 399.918 353.538 400.266 353.538C400.706 353.538 401.045 353.703 401.284 354.033L402.824 356.013C402.182 356.801 401.458 357.47 400.651 358.02C399.863 358.57 399.019 359.019 398.121 359.368C397.223 359.716 396.279 359.973 395.289 360.138C394.317 360.303 393.327 360.385 392.319 360.385C390.577 360.385 388.945 360.064 387.424 359.423C385.92 358.781 384.609 357.846 383.491 356.618C382.391 355.389 381.52 353.886 380.879 352.108C380.237 350.311 379.916 348.276 379.916 346.003C379.916 343.931 380.2 342.015 380.769 340.255C381.355 338.495 382.208 336.983 383.326 335.718C384.463 334.434 385.856 333.435 387.506 332.72C389.156 331.987 391.044 331.62 393.171 331.62C395.169 331.62 396.929 331.941 398.451 332.583C399.973 333.224 401.329 334.132 402.521 335.305L401.091 337.285Z" fill="#41A5DD"/>
<path d="M414.539 332.06V360H409.177V332.06H414.539ZM415.557 323.425C415.557 323.92 415.456 324.397 415.254 324.855C415.053 325.295 414.778 325.689 414.429 326.038C414.099 326.368 413.705 326.633 413.247 326.835C412.789 327.018 412.312 327.11 411.817 327.11C411.322 327.11 410.854 327.018 410.414 326.835C409.974 326.633 409.58 326.368 409.232 326.038C408.902 325.689 408.636 325.295 408.434 324.855C408.251 324.397 408.159 323.92 408.159 323.425C408.159 322.912 408.251 322.435 408.434 321.995C408.636 321.537 408.902 321.143 409.232 320.813C409.58 320.464 409.974 320.198 410.414 320.015C410.854 319.813 411.322 319.713 411.817 319.713C412.312 319.713 412.789 319.813 413.247 320.015C413.705 320.198 414.099 320.464 414.429 320.813C414.778 321.143 415.053 321.537 415.254 321.995C415.456 322.435 415.557 322.912 415.557 323.425Z" fill="#41A5DD"/>
<path d="M441.911 342.923C441.911 341.859 441.755 340.878 441.443 339.98C441.15 339.082 440.71 338.303 440.123 337.643C439.537 336.983 438.822 336.469 437.978 336.103C437.135 335.736 436.163 335.553 435.063 335.553C432.808 335.553 431.03 336.203 429.728 337.505C428.445 338.807 427.629 340.613 427.281 342.923H441.911ZM446.338 356.013C445.678 356.783 444.918 357.452 444.056 358.02C443.194 358.57 442.278 359.019 441.306 359.368C440.334 359.716 439.326 359.973 438.281 360.138C437.254 360.303 436.237 360.385 435.228 360.385C433.303 360.385 431.516 360.064 429.866 359.423C428.234 358.763 426.813 357.809 425.603 356.563C424.412 355.298 423.477 353.739 422.798 351.888C422.138 350.018 421.808 347.873 421.808 345.453C421.808 343.509 422.111 341.703 422.716 340.035C423.321 338.348 424.183 336.882 425.301 335.635C426.438 334.388 427.822 333.408 429.453 332.693C431.085 331.978 432.918 331.62 434.953 331.62C436.658 331.62 438.226 331.904 439.656 332.473C441.104 333.023 442.351 333.829 443.396 334.893C444.441 335.956 445.257 337.267 445.843 338.825C446.448 340.383 446.751 342.162 446.751 344.16C446.751 344.985 446.659 345.544 446.476 345.838C446.293 346.113 445.953 346.25 445.458 346.25H427.143C427.198 347.918 427.437 349.376 427.858 350.623C428.28 351.851 428.858 352.878 429.591 353.703C430.343 354.528 431.232 355.142 432.258 355.545C433.285 355.948 434.431 356.15 435.696 356.15C436.888 356.15 437.914 356.013 438.776 355.738C439.656 355.463 440.408 355.169 441.031 354.858C441.673 354.528 442.204 354.225 442.626 353.95C443.066 353.675 443.451 353.538 443.781 353.538C444.221 353.538 444.56 353.703 444.798 354.033L446.338 356.013Z" fill="#41A5DD"/>
<path d="M458.647 335.938C459.252 335.296 459.885 334.709 460.545 334.178C461.205 333.646 461.901 333.197 462.635 332.83C463.386 332.445 464.184 332.152 465.027 331.95C465.889 331.73 466.806 331.62 467.777 331.62C469.317 331.62 470.665 331.877 471.82 332.39C472.993 332.903 473.974 333.628 474.762 334.563C475.551 335.479 476.146 336.588 476.55 337.89C476.953 339.192 477.155 340.631 477.155 342.208V360H471.765V342.208C471.765 340.209 471.306 338.66 470.39 337.56C469.473 336.442 468.071 335.883 466.182 335.883C464.807 335.883 463.515 336.213 462.305 336.873C461.113 337.514 460.004 338.394 458.977 339.513V360H453.615V332.06H456.832C457.584 332.06 458.051 332.418 458.235 333.133L458.647 335.938Z" fill="#41A5DD"/>
<path d="M493.86 360.44C491.605 360.44 489.863 359.808 488.635 358.543C487.425 357.278 486.82 355.472 486.82 353.125V336.405H483.575C483.263 336.405 482.998 336.313 482.778 336.13C482.576 335.928 482.475 335.635 482.475 335.25V333.078L487.013 332.445L488.223 324.113C488.296 323.801 488.433 323.563 488.635 323.398C488.855 323.214 489.13 323.123 489.46 323.123H492.183V332.5H500.103V336.405H492.183V352.768C492.183 353.868 492.448 354.693 492.98 355.243C493.53 355.774 494.227 356.04 495.07 356.04C495.565 356.04 495.987 355.976 496.335 355.848C496.702 355.719 497.014 355.582 497.27 355.435C497.527 355.27 497.747 355.123 497.93 354.995C498.114 354.867 498.279 354.803 498.425 354.803C498.609 354.803 498.746 354.848 498.838 354.94C498.948 355.013 499.058 355.142 499.168 355.325L500.763 357.91C499.883 358.717 498.838 359.34 497.628 359.78C496.418 360.22 495.162 360.44 493.86 360.44Z" fill="#41A5DD"/>
<path d="M536.168 347.598C533.986 347.671 532.135 347.845 530.613 348.12C529.091 348.377 527.854 348.725 526.901 349.165C525.947 349.605 525.26 350.128 524.838 350.733C524.416 351.319 524.206 351.979 524.206 352.713C524.206 353.409 524.316 354.014 524.536 354.528C524.774 355.023 525.086 355.435 525.471 355.765C525.874 356.077 526.341 356.306 526.873 356.453C527.405 356.599 527.982 356.673 528.606 356.673C529.431 356.673 530.182 356.59 530.861 356.425C531.557 356.26 532.208 356.031 532.813 355.738C533.418 355.426 533.996 355.05 534.546 354.61C535.096 354.17 535.636 353.666 536.168 353.098V347.598ZM520.438 335.965C521.996 334.48 523.683 333.371 525.498 332.638C527.331 331.904 529.339 331.538 531.521 331.538C533.116 331.538 534.527 331.803 535.756 332.335C536.984 332.848 538.02 333.573 538.863 334.508C539.706 335.443 540.339 336.561 540.761 337.863C541.201 339.164 541.421 340.603 541.421 342.18V360H539.028C538.496 360 538.093 359.918 537.818 359.753C537.543 359.569 537.323 359.239 537.158 358.763L536.581 356.315C535.866 356.975 535.16 357.562 534.463 358.075C533.766 358.57 533.033 359.001 532.263 359.368C531.511 359.716 530.705 359.982 529.843 360.165C528.981 360.348 528.028 360.44 526.983 360.44C525.883 360.44 524.847 360.293 523.876 360C522.922 359.688 522.088 359.221 521.373 358.598C520.658 357.974 520.09 357.195 519.668 356.26C519.265 355.325 519.063 354.234 519.063 352.988C519.063 351.888 519.356 350.833 519.943 349.825C520.548 348.798 521.52 347.882 522.858 347.075C524.215 346.268 525.975 345.608 528.138 345.095C530.32 344.582 532.996 344.288 536.168 344.215V342.18C536.168 340.072 535.719 338.495 534.821 337.45C533.922 336.405 532.602 335.883 530.861 335.883C529.687 335.883 528.697 336.029 527.891 336.323C527.102 336.616 526.415 336.946 525.828 337.313C525.26 337.661 524.756 337.982 524.316 338.275C523.894 338.568 523.454 338.715 522.996 338.715C522.629 338.715 522.308 338.614 522.033 338.413C521.776 338.211 521.566 337.973 521.401 337.698L520.438 335.965Z" fill="#41A5DD"/>
<path d="M554.732 335.938C555.337 335.296 555.969 334.709 556.629 334.178C557.289 333.646 557.986 333.197 558.719 332.83C559.471 332.445 560.269 332.152 561.112 331.95C561.974 331.73 562.89 331.62 563.862 331.62C565.402 331.62 566.749 331.877 567.904 332.39C569.078 332.903 570.058 333.628 570.847 334.563C571.635 335.479 572.231 336.588 572.634 337.89C573.038 339.192 573.239 340.631 573.239 342.208V360H567.849V342.208C567.849 340.209 567.391 338.66 566.474 337.56C565.558 336.442 564.155 335.883 562.267 335.883C560.892 335.883 559.599 336.213 558.389 336.873C557.198 337.514 556.088 338.394 555.062 339.513V360H549.699V332.06H552.917C553.669 332.06 554.136 332.418 554.319 333.133L554.732 335.938Z" fill="#41A5DD"/>
<path d="M599.588 338.825C598.708 337.67 597.755 336.863 596.728 336.405C595.72 335.947 594.583 335.718 593.318 335.718C590.862 335.718 588.955 336.607 587.598 338.385C586.26 340.145 585.591 342.721 585.591 346.113C585.591 347.891 585.737 349.413 586.031 350.678C586.342 351.924 586.782 352.951 587.351 353.758C587.937 354.546 588.652 355.133 589.496 355.518C590.339 355.884 591.292 356.068 592.356 356.068C593.914 356.068 595.262 355.719 596.398 355.023C597.535 354.326 598.598 353.345 599.588 352.08V338.825ZM604.978 319.41V360H601.733C600.982 360 600.514 359.643 600.331 358.928L599.863 355.71C598.672 357.122 597.315 358.258 595.793 359.12C594.29 359.963 592.548 360.385 590.568 360.385C588.973 360.385 587.525 360.073 586.223 359.45C584.94 358.827 583.84 357.919 582.923 356.728C582.007 355.518 581.301 354.023 580.806 352.245C580.311 350.467 580.063 348.423 580.063 346.113C580.063 344.041 580.338 342.116 580.888 340.338C581.438 338.559 582.236 337.019 583.281 335.718C584.326 334.416 585.591 333.398 587.076 332.665C588.561 331.913 590.238 331.538 592.108 331.538C593.795 331.538 595.225 331.813 596.398 332.363C597.59 332.913 598.653 333.692 599.588 334.7V319.41H604.978Z" fill="#41A5DD"/>
<path d="M645.043 336.873C644.896 337.111 644.741 337.285 644.576 337.395C644.411 337.487 644.2 337.533 643.943 337.533C643.65 337.533 643.32 337.432 642.953 337.23C642.605 337.028 642.174 336.808 641.661 336.57C641.166 336.332 640.579 336.112 639.901 335.91C639.222 335.708 638.416 335.608 637.481 335.608C636.711 335.608 636.005 335.708 635.363 335.91C634.74 336.093 634.208 336.359 633.768 336.708C633.328 337.038 632.989 337.441 632.751 337.918C632.512 338.376 632.393 338.871 632.393 339.403C632.393 340.099 632.595 340.677 632.998 341.135C633.42 341.593 633.961 341.988 634.621 342.318C635.299 342.648 636.06 342.95 636.903 343.225C637.765 343.482 638.636 343.757 639.516 344.05C640.414 344.343 641.285 344.683 642.128 345.068C642.99 345.434 643.751 345.902 644.411 346.47C645.089 347.02 645.63 347.689 646.033 348.478C646.455 349.266 646.666 350.228 646.666 351.365C646.666 352.667 646.427 353.877 645.951 354.995C645.492 356.095 644.805 357.048 643.888 357.855C642.99 358.662 641.871 359.294 640.533 359.753C639.195 360.211 637.664 360.44 635.941 360.44C634.016 360.44 632.237 360.119 630.606 359.478C628.974 358.836 627.608 358.02 626.508 357.03L627.773 354.968C627.92 354.711 628.103 354.518 628.323 354.39C628.543 354.243 628.836 354.17 629.203 354.17C629.551 354.17 629.909 354.298 630.276 354.555C630.642 354.812 631.082 355.096 631.596 355.408C632.109 355.701 632.732 355.976 633.466 356.233C634.199 356.471 635.116 356.59 636.216 356.59C637.132 356.59 637.93 356.48 638.608 356.26C639.286 356.022 639.846 355.71 640.286 355.325C640.744 354.922 641.083 354.463 641.303 353.95C641.523 353.437 641.633 352.896 641.633 352.328C641.633 351.594 641.422 350.989 641.001 350.513C640.597 350.018 640.056 349.596 639.378 349.248C638.718 348.899 637.957 348.597 637.096 348.34C636.234 348.083 635.354 347.808 634.456 347.515C633.557 347.222 632.677 346.883 631.816 346.498C630.954 346.113 630.184 345.627 629.506 345.04C628.846 344.453 628.305 343.738 627.883 342.895C627.48 342.052 627.278 341.025 627.278 339.815C627.278 338.733 627.498 337.698 627.938 336.708C628.396 335.718 629.047 334.847 629.891 334.095C630.752 333.343 631.806 332.748 633.053 332.308C634.318 331.849 635.757 331.62 637.371 331.62C639.222 331.62 640.891 331.913 642.376 332.5C643.879 333.087 645.162 333.893 646.226 334.92L645.043 336.873Z" fill="#41A5DD"/>
<path d="M676.809 332.06V360H673.592C672.859 360 672.382 359.643 672.162 358.928L671.777 356.123C671.172 356.764 670.539 357.351 669.879 357.883C669.219 358.414 668.514 358.873 667.762 359.258C667.01 359.624 666.213 359.908 665.369 360.11C664.526 360.33 663.619 360.44 662.647 360.44C661.107 360.44 659.75 360.183 658.577 359.67C657.422 359.157 656.45 358.442 655.662 357.525C654.874 356.59 654.278 355.472 653.874 354.17C653.471 352.868 653.27 351.429 653.27 349.853V332.06H658.659V349.853C658.659 351.851 659.118 353.409 660.034 354.528C660.951 355.628 662.354 356.178 664.242 356.178C665.617 356.178 666.9 355.857 668.092 355.215C669.284 354.555 670.402 353.657 671.447 352.52V332.06H676.809Z" fill="#41A5DD"/>
<path d="M701.867 336.873C701.72 337.111 701.565 337.285 701.4 337.395C701.235 337.487 701.024 337.533 700.767 337.533C700.474 337.533 700.144 337.432 699.777 337.23C699.429 337.028 698.998 336.808 698.485 336.57C697.99 336.332 697.403 336.112 696.725 335.91C696.046 335.708 695.24 335.608 694.305 335.608C693.535 335.608 692.829 335.708 692.187 335.91C691.564 336.093 691.032 336.359 690.592 336.708C690.152 337.038 689.813 337.441 689.575 337.918C689.336 338.376 689.217 338.871 689.217 339.403C689.217 340.099 689.419 340.677 689.822 341.135C690.244 341.593 690.785 341.988 691.445 342.318C692.123 342.648 692.884 342.95 693.727 343.225C694.589 343.482 695.46 343.757 696.34 344.05C697.238 344.343 698.109 344.683 698.952 345.068C699.814 345.434 700.575 345.902 701.235 346.47C701.913 347.02 702.454 347.689 702.857 348.478C703.279 349.266 703.49 350.228 703.49 351.365C703.49 352.667 703.251 353.877 702.775 354.995C702.316 356.095 701.629 357.048 700.712 357.855C699.814 358.662 698.695 359.294 697.357 359.753C696.019 360.211 694.488 360.44 692.765 360.44C690.84 360.44 689.061 360.119 687.43 359.478C685.798 358.836 684.432 358.02 683.332 357.03L684.597 354.968C684.744 354.711 684.927 354.518 685.147 354.39C685.367 354.243 685.66 354.17 686.027 354.17C686.375 354.17 686.733 354.298 687.1 354.555C687.466 354.812 687.906 355.096 688.42 355.408C688.933 355.701 689.556 355.976 690.29 356.233C691.023 356.471 691.94 356.59 693.04 356.59C693.956 356.59 694.754 356.48 695.432 356.26C696.11 356.022 696.67 355.71 697.11 355.325C697.568 354.922 697.907 354.463 698.127 353.95C698.347 353.437 698.457 352.896 698.457 352.328C698.457 351.594 698.246 350.989 697.825 350.513C697.421 350.018 696.88 349.596 696.202 349.248C695.542 348.899 694.781 348.597 693.92 348.34C693.058 348.083 692.178 347.808 691.28 347.515C690.381 347.222 689.501 346.883 688.64 346.498C687.778 346.113 687.008 345.627 686.33 345.04C685.67 344.453 685.129 343.738 684.707 342.895C684.304 342.052 684.102 341.025 684.102 339.815C684.102 338.733 684.322 337.698 684.762 336.708C685.22 335.718 685.871 334.847 686.715 334.095C687.576 333.343 688.63 332.748 689.877 332.308C691.142 331.849 692.581 331.62 694.195 331.62C696.046 331.62 697.715 331.913 699.2 332.5C700.703 333.087 701.986 333.893 703.05 334.92L701.867 336.873Z" fill="#41A5DD"/>
<path d="M719.141 360.44C716.886 360.44 715.144 359.808 713.916 358.543C712.706 357.278 712.101 355.472 712.101 353.125V336.405H708.856C708.544 336.405 708.279 336.313 708.059 336.13C707.857 335.928 707.756 335.635 707.756 335.25V333.078L712.294 332.445L713.504 324.113C713.577 323.801 713.714 323.563 713.916 323.398C714.136 323.214 714.411 323.123 714.741 323.123H717.464V332.5H725.384V336.405H717.464V352.768C717.464 353.868 717.729 354.693 718.261 355.243C718.811 355.774 719.508 356.04 720.351 356.04C720.846 356.04 721.268 355.976 721.616 355.848C721.983 355.719 722.294 355.582 722.551 355.435C722.808 355.27 723.028 355.123 723.211 354.995C723.394 354.867 723.559 354.803 723.706 354.803C723.889 354.803 724.027 354.848 724.119 354.94C724.229 355.013 724.339 355.142 724.449 355.325L726.044 357.91C725.164 358.717 724.119 359.34 722.909 359.78C721.699 360.22 720.443 360.44 719.141 360.44Z" fill="#41A5DD"/>
<path d="M746.438 347.598C744.256 347.671 742.404 347.845 740.883 348.12C739.361 348.377 738.124 348.725 737.17 349.165C736.217 349.605 735.529 350.128 735.108 350.733C734.686 351.319 734.475 351.979 734.475 352.713C734.475 353.409 734.585 354.014 734.805 354.528C735.044 355.023 735.355 355.435 735.74 355.765C736.144 356.077 736.611 356.306 737.143 356.453C737.674 356.599 738.252 356.673 738.875 356.673C739.7 356.673 740.452 356.59 741.13 356.425C741.827 356.26 742.478 356.031 743.083 355.738C743.688 355.426 744.265 355.05 744.815 354.61C745.365 354.17 745.906 353.666 746.438 353.098V347.598ZM730.708 335.965C732.266 334.48 733.953 333.371 735.768 332.638C737.601 331.904 739.609 331.538 741.79 331.538C743.385 331.538 744.797 331.803 746.025 332.335C747.254 332.848 748.289 333.573 749.133 334.508C749.976 335.443 750.609 336.561 751.03 337.863C751.47 339.164 751.69 340.603 751.69 342.18V360H749.298C748.766 360 748.363 359.918 748.088 359.753C747.813 359.569 747.593 359.239 747.428 358.763L746.85 356.315C746.135 356.975 745.429 357.562 744.733 358.075C744.036 358.57 743.303 359.001 742.533 359.368C741.781 359.716 740.974 359.982 740.113 360.165C739.251 360.348 738.298 360.44 737.253 360.44C736.153 360.44 735.117 360.293 734.145 360C733.192 359.688 732.358 359.221 731.643 358.598C730.928 357.974 730.359 357.195 729.938 356.26C729.534 355.325 729.333 354.234 729.333 352.988C729.333 351.888 729.626 350.833 730.213 349.825C730.818 348.798 731.789 347.882 733.128 347.075C734.484 346.268 736.244 345.608 738.408 345.095C740.589 344.582 743.266 344.288 746.438 344.215V342.18C746.438 340.072 745.989 338.495 745.09 337.45C744.192 336.405 742.872 335.883 741.13 335.883C739.957 335.883 738.967 336.029 738.16 336.323C737.372 336.616 736.684 336.946 736.098 337.313C735.529 337.661 735.025 337.982 734.585 338.275C734.164 338.568 733.724 338.715 733.265 338.715C732.899 338.715 732.578 338.614 732.303 338.413C732.046 338.211 731.835 337.973 731.67 337.698L730.708 335.965Z" fill="#41A5DD"/>
<path d="M765.579 332.06V360H760.217V332.06H765.579ZM766.597 323.425C766.597 323.92 766.496 324.397 766.294 324.855C766.092 325.295 765.817 325.689 765.469 326.038C765.139 326.368 764.745 326.633 764.287 326.835C763.828 327.018 763.352 327.11 762.857 327.11C762.362 327.11 761.894 327.018 761.454 326.835C761.014 326.633 760.62 326.368 760.272 326.038C759.942 325.689 759.676 325.295 759.474 324.855C759.291 324.397 759.199 323.92 759.199 323.425C759.199 322.912 759.291 322.435 759.474 321.995C759.676 321.537 759.942 321.143 760.272 320.813C760.62 320.464 761.014 320.198 761.454 320.015C761.894 319.813 762.362 319.713 762.857 319.713C763.352 319.713 763.828 319.813 764.287 320.015C764.745 320.198 765.139 320.464 765.469 320.813C765.817 321.143 766.092 321.537 766.294 321.995C766.496 322.435 766.597 322.912 766.597 323.425Z" fill="#41A5DD"/>
<path d="M779.476 335.938C780.081 335.296 780.713 334.709 781.373 334.178C782.033 333.646 782.73 333.197 783.463 332.83C784.215 332.445 785.012 332.152 785.856 331.95C786.717 331.73 787.634 331.62 788.606 331.62C790.146 331.62 791.493 331.877 792.648 332.39C793.821 332.903 794.802 333.628 795.591 334.563C796.379 335.479 796.975 336.588 797.378 337.89C797.781 339.192 797.983 340.631 797.983 342.208V360H792.593V342.208C792.593 340.209 792.135 338.66 791.218 337.56C790.301 336.442 788.899 335.883 787.011 335.883C785.636 335.883 784.343 336.213 783.133 336.873C781.941 337.514 780.832 338.394 779.806 339.513V360H774.443V332.06H777.661C778.412 332.06 778.88 332.418 779.063 333.133L779.476 335.938Z" fill="#41A5DD"/>
<path d="M821.334 347.598C819.153 347.671 817.301 347.845 815.779 348.12C814.258 348.377 813.02 348.725 812.067 349.165C811.114 349.605 810.426 350.128 810.004 350.733C809.583 351.319 809.372 351.979 809.372 352.713C809.372 353.409 809.482 354.014 809.702 354.528C809.94 355.023 810.252 355.435 810.637 355.765C811.04 356.077 811.508 356.306 812.039 356.453C812.571 356.599 813.149 356.673 813.772 356.673C814.597 356.673 815.349 356.59 816.027 356.425C816.724 356.26 817.374 356.031 817.979 355.738C818.584 355.426 819.162 355.05 819.712 354.61C820.262 354.17 820.803 353.666 821.334 353.098V347.598ZM805.604 335.965C807.163 334.48 808.849 333.371 810.664 332.638C812.498 331.904 814.505 331.538 816.687 331.538C818.282 331.538 819.694 331.803 820.922 332.335C822.15 332.848 823.186 333.573 824.029 334.508C824.873 335.443 825.505 336.561 825.927 337.863C826.367 339.164 826.587 340.603 826.587 342.18V360H824.194C823.663 360 823.259 359.918 822.984 359.753C822.709 359.569 822.489 359.239 822.324 358.763L821.747 356.315C821.032 356.975 820.326 357.562 819.629 358.075C818.933 358.57 818.199 359.001 817.429 359.368C816.678 359.716 815.871 359.982 815.009 360.165C814.148 360.348 813.194 360.44 812.149 360.44C811.049 360.44 810.014 360.293 809.042 360C808.089 359.688 807.254 359.221 806.539 358.598C805.824 357.974 805.256 357.195 804.834 356.26C804.431 355.325 804.229 354.234 804.229 352.988C804.229 351.888 804.523 350.833 805.109 349.825C805.714 348.798 806.686 347.882 808.024 347.075C809.381 346.268 811.141 345.608 813.304 345.095C815.486 344.582 818.163 344.288 821.334 344.215V342.18C821.334 340.072 820.885 338.495 819.987 337.45C819.089 336.405 817.769 335.883 816.027 335.883C814.854 335.883 813.864 336.029 813.057 336.323C812.269 336.616 811.581 336.946 810.994 337.313C810.426 337.661 809.922 337.982 809.482 338.275C809.06 338.568 808.62 338.715 808.162 338.715C807.795 338.715 807.474 338.614 807.199 338.413C806.943 338.211 806.732 337.973 806.567 337.698L805.604 335.965Z" fill="#41A5DD"/>
<path d="M840.228 353.125C841.108 354.28 842.062 355.087 843.088 355.545C844.115 356.003 845.233 356.233 846.443 356.233C848.937 356.233 850.852 355.343 852.191 353.565C853.547 351.787 854.226 349.101 854.226 345.508C854.226 342.189 853.63 339.76 852.438 338.22C851.247 336.662 849.56 335.883 847.378 335.883C845.838 335.883 844.5 336.231 843.363 336.928C842.245 337.624 841.2 338.614 840.228 339.898V353.125ZM840.228 335.91C841.383 334.627 842.694 333.591 844.161 332.803C845.627 332.014 847.296 331.62 849.166 331.62C850.797 331.62 852.264 331.941 853.566 332.583C854.886 333.206 856.004 334.113 856.921 335.305C857.837 336.478 858.543 337.908 859.038 339.595C859.533 341.282 859.781 343.188 859.781 345.315C859.781 347.57 859.497 349.623 858.928 351.475C858.378 353.327 857.581 354.913 856.536 356.233C855.509 357.553 854.253 358.579 852.768 359.313C851.283 360.028 849.615 360.385 847.763 360.385C846.865 360.385 846.04 360.293 845.288 360.11C844.537 359.945 843.84 359.698 843.198 359.368C842.575 359.038 841.997 358.634 841.466 358.158C840.934 357.681 840.43 357.14 839.953 356.535L839.706 358.873C839.559 359.624 839.101 360 838.331 360H834.866V319.41H840.228V335.91Z" fill="#41A5DD"/>
<path d="M872.349 319.41V360H866.959V319.41H872.349Z" fill="#41A5DD"/>
<path d="M899.616 342.923C899.616 341.859 899.46 340.878 899.149 339.98C898.855 339.082 898.415 338.303 897.829 337.643C897.242 336.983 896.527 336.469 895.684 336.103C894.84 335.736 893.869 335.553 892.769 335.553C890.514 335.553 888.735 336.203 887.434 337.505C886.15 338.807 885.335 340.613 884.986 342.923H899.616ZM904.044 356.013C903.384 356.783 902.623 357.452 901.761 358.02C900.9 358.57 899.983 359.019 899.011 359.368C898.04 359.716 897.031 359.973 895.986 360.138C894.96 360.303 893.942 360.385 892.934 360.385C891.009 360.385 889.221 360.064 887.571 359.423C885.94 358.763 884.519 357.809 883.309 356.563C882.117 355.298 881.182 353.739 880.504 351.888C879.844 350.018 879.514 347.873 879.514 345.453C879.514 343.509 879.816 341.703 880.421 340.035C881.026 338.348 881.888 336.882 883.006 335.635C884.143 334.388 885.527 333.408 887.159 332.693C888.79 331.978 890.624 331.62 892.659 331.62C894.364 331.62 895.931 331.904 897.361 332.473C898.81 333.023 900.056 333.829 901.101 334.893C902.146 335.956 902.962 337.267 903.549 338.825C904.154 340.383 904.456 342.162 904.456 344.16C904.456 344.985 904.365 345.544 904.181 345.838C903.998 346.113 903.659 346.25 903.164 346.25H884.849C884.904 347.918 885.142 349.376 885.564 350.623C885.985 351.851 886.563 352.878 887.296 353.703C888.048 354.528 888.937 355.142 889.964 355.545C890.99 355.948 892.136 356.15 893.401 356.15C894.593 356.15 895.62 356.013 896.481 355.738C897.361 355.463 898.113 355.169 898.736 354.858C899.378 354.528 899.91 354.225 900.331 353.95C900.771 353.675 901.156 353.538 901.486 353.538C901.926 353.538 902.265 353.703 902.504 354.033L904.044 356.013Z" fill="#41A5DD"/>
<path d="M396.543 385.41V426H391.153V385.41H396.543Z" fill="#41A5DD"/>
<path d="M417.209 397.62C419.263 397.62 421.114 397.959 422.764 398.638C424.433 399.298 425.844 400.26 426.999 401.525C428.173 402.772 429.071 404.284 429.694 406.063C430.318 407.823 430.629 409.803 430.629 412.003C430.629 414.203 430.318 416.192 429.694 417.97C429.071 419.748 428.173 421.261 426.999 422.508C425.844 423.754 424.433 424.717 422.764 425.395C421.114 426.055 419.263 426.385 417.209 426.385C415.138 426.385 413.268 426.055 411.599 425.395C409.949 424.717 408.538 423.754 407.364 422.508C406.191 421.261 405.283 419.748 404.642 417.97C404.018 416.192 403.707 414.203 403.707 412.003C403.707 409.803 404.018 407.823 404.642 406.063C405.283 404.284 406.191 402.772 407.364 401.525C408.538 400.26 409.949 399.298 411.599 398.638C413.268 397.959 415.138 397.62 417.209 397.62ZM417.209 422.205C419.849 422.205 421.82 421.316 423.122 419.538C424.423 417.759 425.074 415.257 425.074 412.03C425.074 408.803 424.423 406.301 423.122 404.523C421.82 402.726 419.849 401.828 417.209 401.828C414.533 401.828 412.534 402.726 411.214 404.523C409.913 406.301 409.262 408.803 409.262 412.03C409.262 415.257 409.913 417.759 411.214 419.538C412.534 421.316 414.533 422.205 417.209 422.205Z" fill="#41A5DD"/>
<path d="M447.372 412.058C448.325 412.058 449.159 411.929 449.874 411.673C450.607 411.416 451.212 411.058 451.689 410.6C452.184 410.123 452.551 409.555 452.789 408.895C453.046 408.235 453.174 407.511 453.174 406.723C453.174 405.109 452.679 403.826 451.689 402.873C450.717 401.901 449.278 401.415 447.372 401.415C445.483 401.415 444.044 401.901 443.054 402.873C442.082 403.826 441.597 405.109 441.597 406.723C441.597 407.511 441.716 408.235 441.954 408.895C442.211 409.537 442.577 410.096 443.054 410.573C443.549 411.031 444.154 411.398 444.869 411.673C445.602 411.929 446.437 412.058 447.372 412.058ZM455.924 427.458C455.924 426.798 455.741 426.275 455.374 425.89C455.007 425.487 454.503 425.175 453.862 424.955C453.238 424.717 452.505 424.552 451.662 424.46C450.818 424.35 449.929 424.268 448.994 424.213C448.077 424.158 447.133 424.112 446.162 424.075C445.19 424.02 444.255 423.928 443.357 423.8C442.403 424.277 441.615 424.854 440.992 425.533C440.387 426.211 440.084 427.008 440.084 427.925C440.084 428.512 440.231 429.062 440.524 429.575C440.836 430.088 441.303 430.528 441.927 430.895C442.568 431.28 443.366 431.573 444.319 431.775C445.291 431.995 446.446 432.105 447.784 432.105C449.104 432.105 450.268 431.986 451.277 431.748C452.285 431.528 453.128 431.207 453.807 430.785C454.503 430.382 455.026 429.896 455.374 429.328C455.741 428.759 455.924 428.136 455.924 427.458ZM461.369 399.105V401.113C461.369 401.773 460.957 402.185 460.132 402.35L457.134 402.79C457.391 403.358 457.592 403.963 457.739 404.605C457.886 405.228 457.959 405.888 457.959 406.585C457.959 407.96 457.693 409.207 457.162 410.325C456.63 411.425 455.897 412.369 454.962 413.158C454.027 413.946 452.908 414.551 451.607 414.973C450.323 415.394 448.912 415.605 447.372 415.605C446.107 415.605 444.924 415.468 443.824 415.193C443.274 415.523 442.852 415.889 442.559 416.293C442.284 416.678 442.147 417.063 442.147 417.448C442.147 418.089 442.412 418.566 442.944 418.878C443.494 419.189 444.2 419.418 445.062 419.565C445.942 419.693 446.941 419.776 448.059 419.813C449.196 419.849 450.342 419.913 451.497 420.005C452.67 420.078 453.816 420.225 454.934 420.445C456.071 420.647 457.07 420.986 457.932 421.463C458.812 421.921 459.517 422.563 460.049 423.388C460.599 424.194 460.874 425.248 460.874 426.55C460.874 427.76 460.572 428.933 459.967 430.07C459.38 431.207 458.518 432.215 457.382 433.095C456.245 433.975 454.861 434.681 453.229 435.213C451.597 435.744 449.746 436.01 447.674 436.01C445.602 436.01 443.797 435.808 442.257 435.405C440.735 435.002 439.461 434.461 438.434 433.783C437.426 433.104 436.665 432.316 436.152 431.418C435.657 430.519 435.409 429.584 435.409 428.613C435.409 427.256 435.831 426.11 436.674 425.175C437.517 424.222 438.682 423.479 440.167 422.948C439.36 422.581 438.718 422.086 438.242 421.463C437.765 420.821 437.527 419.978 437.527 418.933C437.527 418.529 437.6 418.117 437.747 417.695C437.893 417.255 438.113 416.824 438.407 416.403C438.718 415.963 439.094 415.55 439.534 415.165C439.992 414.78 440.515 414.432 441.102 414.12C439.727 413.35 438.645 412.333 437.857 411.068C437.068 409.784 436.674 408.29 436.674 406.585C436.674 405.21 436.94 403.973 437.472 402.873C438.003 401.773 438.737 400.828 439.672 400.04C440.625 399.252 441.752 398.647 443.054 398.225C444.374 397.803 445.813 397.593 447.372 397.593C449.792 397.593 451.872 398.097 453.614 399.105H461.369Z" fill="#41A5DD"/>
<path d="M472.999 398.06V426H467.637V398.06H472.999ZM474.017 389.425C474.017 389.92 473.916 390.397 473.714 390.855C473.513 391.295 473.238 391.689 472.889 392.038C472.559 392.368 472.165 392.633 471.707 392.835C471.249 393.018 470.772 393.11 470.277 393.11C469.782 393.11 469.314 393.018 468.874 392.835C468.434 392.633 468.04 392.368 467.692 392.038C467.362 391.689 467.096 391.295 466.894 390.855C466.711 390.397 466.619 389.92 466.619 389.425C466.619 388.912 466.711 388.435 466.894 387.995C467.096 387.537 467.362 387.143 467.692 386.813C468.04 386.464 468.434 386.198 468.874 386.015C469.314 385.813 469.782 385.713 470.277 385.713C470.772 385.713 471.249 385.813 471.707 386.015C472.165 386.198 472.559 386.464 472.889 386.813C473.238 387.143 473.513 387.537 473.714 387.995C473.916 388.435 474.017 388.912 474.017 389.425Z" fill="#41A5DD"/>
<path d="M498.336 402.873C498.189 403.111 498.033 403.285 497.868 403.395C497.703 403.487 497.493 403.533 497.236 403.533C496.943 403.533 496.613 403.432 496.246 403.23C495.898 403.028 495.467 402.808 494.953 402.57C494.458 402.332 493.872 402.112 493.193 401.91C492.515 401.708 491.708 401.608 490.773 401.608C490.003 401.608 489.298 401.708 488.656 401.91C488.033 402.093 487.501 402.359 487.061 402.708C486.621 403.038 486.282 403.441 486.043 403.918C485.805 404.376 485.686 404.871 485.686 405.403C485.686 406.099 485.888 406.677 486.291 407.135C486.713 407.593 487.253 407.988 487.913 408.318C488.592 408.648 489.353 408.95 490.196 409.225C491.058 409.482 491.928 409.757 492.808 410.05C493.707 410.343 494.578 410.683 495.421 411.068C496.283 411.434 497.043 411.902 497.703 412.47C498.382 413.02 498.923 413.689 499.326 414.478C499.748 415.266 499.958 416.228 499.958 417.365C499.958 418.667 499.72 419.877 499.243 420.995C498.785 422.095 498.098 423.048 497.181 423.855C496.283 424.662 495.164 425.294 493.826 425.753C492.488 426.211 490.957 426.44 489.233 426.44C487.308 426.44 485.53 426.119 483.898 425.478C482.267 424.836 480.901 424.02 479.801 423.03L481.066 420.968C481.213 420.711 481.396 420.518 481.616 420.39C481.836 420.243 482.129 420.17 482.496 420.17C482.844 420.17 483.202 420.298 483.568 420.555C483.935 420.812 484.375 421.096 484.888 421.408C485.402 421.701 486.025 421.976 486.758 422.233C487.492 422.471 488.408 422.59 489.508 422.59C490.425 422.59 491.223 422.48 491.901 422.26C492.579 422.022 493.138 421.71 493.578 421.325C494.037 420.922 494.376 420.463 494.596 419.95C494.816 419.437 494.926 418.896 494.926 418.328C494.926 417.594 494.715 416.989 494.293 416.513C493.89 416.018 493.349 415.596 492.671 415.248C492.011 414.899 491.25 414.597 490.388 414.34C489.527 414.083 488.647 413.808 487.748 413.515C486.85 413.222 485.97 412.883 485.108 412.498C484.247 412.113 483.477 411.627 482.798 411.04C482.138 410.453 481.598 409.738 481.176 408.895C480.773 408.052 480.571 407.025 480.571 405.815C480.571 404.733 480.791 403.698 481.231 402.708C481.689 401.718 482.34 400.847 483.183 400.095C484.045 399.343 485.099 398.748 486.346 398.308C487.611 397.849 489.05 397.62 490.663 397.62C492.515 397.62 494.183 397.913 495.668 398.5C497.172 399.087 498.455 399.893 499.518 400.92L498.336 402.873Z" fill="#41A5DD"/>
<path d="M533.347 426H527.957V402.405H513.932V418.768C513.932 419.868 514.198 420.693 514.73 421.243C515.28 421.774 515.977 422.04 516.82 422.04C517.315 422.04 517.737 421.976 518.085 421.848C518.452 421.719 518.763 421.582 519.02 421.435C519.277 421.27 519.497 421.123 519.68 420.995C519.863 420.867 520.028 420.803 520.175 420.803C520.358 420.803 520.496 420.848 520.587 420.94C520.697 421.013 520.807 421.142 520.917 421.325L522.512 423.91C521.632 424.717 520.587 425.34 519.377 425.78C518.167 426.22 516.912 426.44 515.61 426.44C513.355 426.44 511.613 425.808 510.385 424.543C509.175 423.278 508.57 421.472 508.57 419.125V402.405H505.325C505.013 402.405 504.747 402.313 504.527 402.13C504.326 401.928 504.225 401.635 504.225 401.25V399.078L508.79 398.445L509.972 390.113C510.046 389.801 510.183 389.563 510.385 389.398C510.605 389.214 510.88 389.123 511.21 389.123H513.932V398.5H533.347V426ZM534.557 389.26C534.557 389.755 534.457 390.232 534.255 390.69C534.053 391.13 533.778 391.524 533.43 391.873C533.1 392.203 532.706 392.468 532.247 392.67C531.789 392.853 531.312 392.945 530.817 392.945C530.322 392.945 529.855 392.853 529.415 392.67C528.975 392.468 528.581 392.203 528.232 391.873C527.902 391.524 527.637 391.13 527.435 390.69C527.252 390.232 527.16 389.755 527.16 389.26C527.16 388.747 527.252 388.261 527.435 387.803C527.637 387.344 527.902 386.95 528.232 386.62C528.581 386.272 528.975 386.006 529.415 385.823C529.855 385.621 530.322 385.52 530.817 385.52C531.312 385.52 531.789 385.621 532.247 385.823C532.706 386.006 533.1 386.272 533.43 386.62C533.778 386.95 534.053 387.344 534.255 387.803C534.457 388.261 534.557 388.747 534.557 389.26Z" fill="#41A5DD"/>
<path d="M561.812 403.285C561.647 403.487 561.482 403.652 561.317 403.78C561.171 403.89 560.951 403.945 560.657 403.945C560.364 403.945 560.052 403.835 559.722 403.615C559.411 403.377 559.007 403.129 558.512 402.873C558.036 402.598 557.449 402.35 556.752 402.13C556.074 401.892 555.231 401.773 554.222 401.773C552.902 401.773 551.738 402.011 550.73 402.488C549.722 402.964 548.878 403.643 548.2 404.523C547.54 405.403 547.036 406.475 546.687 407.74C546.339 409.005 546.165 410.426 546.165 412.003C546.165 413.634 546.348 415.092 546.715 416.375C547.082 417.64 547.604 418.713 548.282 419.593C548.961 420.454 549.786 421.114 550.757 421.573C551.729 422.013 552.811 422.233 554.002 422.233C555.157 422.233 556.111 422.095 556.862 421.82C557.614 421.527 558.237 421.215 558.732 420.885C559.227 420.555 559.64 420.253 559.97 419.978C560.3 419.684 560.639 419.538 560.987 419.538C561.427 419.538 561.767 419.703 562.005 420.033L563.545 422.013C562.903 422.801 562.179 423.47 561.372 424.02C560.584 424.57 559.741 425.019 558.842 425.368C557.944 425.716 557 425.973 556.01 426.138C555.038 426.303 554.048 426.385 553.04 426.385C551.298 426.385 549.667 426.064 548.145 425.423C546.642 424.781 545.331 423.846 544.212 422.618C543.112 421.389 542.242 419.886 541.6 418.108C540.958 416.311 540.637 414.276 540.637 412.003C540.637 409.931 540.922 408.015 541.49 406.255C542.077 404.495 542.929 402.983 544.047 401.718C545.184 400.434 546.577 399.435 548.227 398.72C549.877 397.987 551.766 397.62 553.892 397.62C555.891 397.62 557.651 397.941 559.172 398.583C560.694 399.224 562.051 400.132 563.242 401.305L561.812 403.285Z" fill="#41A5DD"/>
<path d="M586.123 402.873C585.977 403.111 585.821 403.285 585.656 403.395C585.491 403.487 585.28 403.533 585.023 403.533C584.73 403.533 584.4 403.432 584.033 403.23C583.685 403.028 583.254 402.808 582.741 402.57C582.246 402.332 581.659 402.112 580.981 401.91C580.302 401.708 579.496 401.608 578.561 401.608C577.791 401.608 577.085 401.708 576.443 401.91C575.82 402.093 575.288 402.359 574.848 402.708C574.408 403.038 574.069 403.441 573.831 403.918C573.592 404.376 573.473 404.871 573.473 405.403C573.473 406.099 573.675 406.677 574.078 407.135C574.5 407.593 575.041 407.988 575.701 408.318C576.379 408.648 577.14 408.95 577.983 409.225C578.845 409.482 579.716 409.757 580.596 410.05C581.494 410.343 582.365 410.683 583.208 411.068C584.07 411.434 584.831 411.902 585.491 412.47C586.169 413.02 586.71 413.689 587.113 414.478C587.535 415.266 587.746 416.228 587.746 417.365C587.746 418.667 587.507 419.877 587.031 420.995C586.572 422.095 585.885 423.048 584.968 423.855C584.07 424.662 582.952 425.294 581.613 425.753C580.275 426.211 578.744 426.44 577.021 426.44C575.096 426.44 573.317 426.119 571.686 425.478C570.054 424.836 568.688 424.02 567.588 423.03L568.853 420.968C569 420.711 569.183 420.518 569.403 420.39C569.623 420.243 569.917 420.17 570.283 420.17C570.632 420.17 570.989 420.298 571.356 420.555C571.722 420.812 572.162 421.096 572.676 421.408C573.189 421.701 573.812 421.976 574.546 422.233C575.279 422.471 576.196 422.59 577.296 422.59C578.212 422.59 579.01 422.48 579.688 422.26C580.367 422.022 580.926 421.71 581.366 421.325C581.824 420.922 582.163 420.463 582.383 419.95C582.603 419.437 582.713 418.896 582.713 418.328C582.713 417.594 582.502 416.989 582.081 416.513C581.677 416.018 581.137 415.596 580.458 415.248C579.798 414.899 579.037 414.597 578.176 414.34C577.314 414.083 576.434 413.808 575.536 413.515C574.637 413.222 573.757 412.883 572.896 412.498C572.034 412.113 571.264 411.627 570.586 411.04C569.926 410.453 569.385 409.738 568.963 408.895C568.56 408.052 568.358 407.025 568.358 405.815C568.358 404.733 568.578 403.698 569.018 402.708C569.477 401.718 570.127 400.847 570.971 400.095C571.832 399.343 572.887 398.748 574.133 398.308C575.398 397.849 576.837 397.62 578.451 397.62C580.302 397.62 581.971 397.913 583.456 398.5C584.959 399.087 586.242 399.893 587.306 400.92L586.123 402.873Z" fill="#41A5DD"/>
<path d="M615.026 419.125C615.906 420.28 616.85 421.087 617.858 421.545C618.885 422.003 620.031 422.233 621.296 422.233C623.752 422.233 625.65 421.353 626.988 419.593C628.345 417.814 629.023 415.229 629.023 411.838C629.023 410.059 628.867 408.547 628.556 407.3C628.262 406.035 627.822 405.008 627.236 404.22C626.667 403.413 625.962 402.827 625.118 402.46C624.275 402.075 623.322 401.883 622.258 401.883C620.7 401.883 619.343 402.231 618.188 402.928C617.052 403.624 615.997 404.614 615.026 405.898V419.125ZM614.751 402.24C615.337 401.543 615.961 400.911 616.621 400.343C617.299 399.756 618.023 399.261 618.793 398.858C619.563 398.436 620.379 398.115 621.241 397.895C622.121 397.657 623.056 397.538 624.046 397.538C625.641 397.538 627.08 397.849 628.363 398.473C629.665 399.096 630.774 400.013 631.691 401.223C632.607 402.433 633.313 403.927 633.808 405.705C634.322 407.483 634.578 409.528 634.578 411.838C634.578 413.909 634.294 415.834 633.726 417.613C633.176 419.373 632.378 420.903 631.333 422.205C630.307 423.507 629.042 424.533 627.538 425.285C626.053 426.018 624.376 426.385 622.506 426.385C620.837 426.385 619.407 426.11 618.216 425.56C617.024 425.01 615.961 424.24 615.026 423.25V435.378H609.663V398.06H612.881C613.632 398.06 614.1 398.418 614.283 399.133L614.751 402.24Z" fill="#41A5DD"/>
<path d="M647.201 385.41V426H641.811V385.41H647.201Z" fill="#41A5DD"/>
<path d="M670.975 413.598C668.793 413.671 666.942 413.845 665.42 414.12C663.898 414.377 662.661 414.725 661.707 415.165C660.754 415.605 660.067 416.128 659.645 416.733C659.223 417.319 659.012 417.979 659.012 418.713C659.012 419.409 659.122 420.014 659.342 420.528C659.581 421.023 659.892 421.435 660.277 421.765C660.681 422.077 661.148 422.306 661.68 422.453C662.212 422.599 662.789 422.673 663.412 422.673C664.237 422.673 664.989 422.59 665.667 422.425C666.364 422.26 667.015 422.031 667.62 421.738C668.225 421.426 668.802 421.05 669.352 420.61C669.902 420.17 670.443 419.666 670.975 419.098V413.598ZM655.245 401.965C656.803 400.48 658.49 399.371 660.305 398.638C662.138 397.904 664.146 397.538 666.327 397.538C667.922 397.538 669.334 397.803 670.562 398.335C671.791 398.848 672.827 399.573 673.67 400.508C674.513 401.443 675.146 402.561 675.567 403.863C676.007 405.164 676.227 406.603 676.227 408.18V426H673.835C673.303 426 672.9 425.918 672.625 425.753C672.35 425.569 672.13 425.239 671.965 424.763L671.387 422.315C670.672 422.975 669.967 423.562 669.27 424.075C668.573 424.57 667.84 425.001 667.07 425.368C666.318 425.716 665.512 425.982 664.65 426.165C663.788 426.348 662.835 426.44 661.79 426.44C660.69 426.44 659.654 426.293 658.682 426C657.729 425.688 656.895 425.221 656.18 424.598C655.465 423.974 654.897 423.195 654.475 422.26C654.072 421.325 653.87 420.234 653.87 418.988C653.87 417.888 654.163 416.833 654.75 415.825C655.355 414.798 656.327 413.882 657.665 413.075C659.022 412.268 660.782 411.608 662.945 411.095C665.127 410.582 667.803 410.288 670.975 410.215V408.18C670.975 406.072 670.526 404.495 669.627 403.45C668.729 402.405 667.409 401.883 665.667 401.883C664.494 401.883 663.504 402.029 662.697 402.323C661.909 402.616 661.222 402.946 660.635 403.313C660.067 403.661 659.562 403.982 659.122 404.275C658.701 404.568 658.261 404.715 657.802 404.715C657.436 404.715 657.115 404.614 656.84 404.413C656.583 404.211 656.372 403.973 656.207 403.698L655.245 401.965Z" fill="#41A5DD"/>
<path d="M704.563 426V402.405H691.198V418.768C691.198 419.868 691.464 420.693 691.995 421.243C692.545 421.774 693.242 422.04 694.085 422.04C694.58 422.04 695.002 421.976 695.35 421.848C695.717 421.719 696.029 421.582 696.285 421.435C696.542 421.27 696.762 421.123 696.945 420.995C697.129 420.867 697.294 420.803 697.44 420.803C697.624 420.803 697.761 420.848 697.853 420.94C697.963 421.013 698.073 421.142 698.183 421.325L699.778 423.91C698.898 424.717 697.853 425.34 696.643 425.78C695.433 426.22 694.177 426.44 692.875 426.44C690.62 426.44 688.879 425.808 687.65 424.543C686.44 423.278 685.835 421.472 685.835 419.125V402.405H682.59C682.279 402.405 682.013 402.313 681.793 402.13C681.591 401.928 681.49 401.635 681.49 401.25V399.078L686.028 398.445L687.238 390.113C687.311 389.801 687.449 389.563 687.65 389.398C687.87 389.214 688.145 389.123 688.475 389.123H691.198V398.5H704.563V395.97C704.563 394.375 704.792 392.954 705.25 391.708C705.709 390.461 706.359 389.407 707.203 388.545C708.064 387.665 709.1 387.005 710.31 386.565C711.52 386.107 712.877 385.878 714.38 385.878C715.609 385.878 716.773 386.061 717.873 386.428L717.735 389.123C717.717 389.361 717.644 389.544 717.515 389.673C717.405 389.783 717.24 389.865 717.02 389.92C716.8 389.975 716.544 390.012 716.25 390.03C715.957 390.03 715.627 390.03 715.26 390.03C714.435 390.03 713.684 390.131 713.005 390.333C712.327 390.534 711.749 390.873 711.273 391.35C710.796 391.827 710.429 392.459 710.173 393.248C709.916 394.018 709.788 394.98 709.788 396.135V398.5H717.625V402.405H709.953V426H704.563Z" fill="#41A5DD"/>
<path d="M734.306 397.62C736.359 397.62 738.211 397.959 739.861 398.638C741.529 399.298 742.941 400.26 744.096 401.525C745.269 402.772 746.167 404.284 746.791 406.063C747.414 407.823 747.726 409.803 747.726 412.003C747.726 414.203 747.414 416.192 746.791 417.97C746.167 419.748 745.269 421.261 744.096 422.508C742.941 423.754 741.529 424.717 739.861 425.395C738.211 426.055 736.359 426.385 734.306 426.385C732.234 426.385 730.364 426.055 728.696 425.395C727.046 424.717 725.634 423.754 724.461 422.508C723.287 421.261 722.38 419.748 721.738 417.97C721.115 416.192 720.803 414.203 720.803 412.003C720.803 409.803 721.115 407.823 721.738 406.063C722.38 404.284 723.287 402.772 724.461 401.525C725.634 400.26 727.046 399.298 728.696 398.638C730.364 397.959 732.234 397.62 734.306 397.62ZM734.306 422.205C736.946 422.205 738.917 421.316 740.218 419.538C741.52 417.759 742.171 415.257 742.171 412.03C742.171 408.803 741.52 406.301 740.218 404.523C738.917 402.726 736.946 401.828 734.306 401.828C731.629 401.828 729.631 402.726 728.311 404.523C727.009 406.301 726.358 408.803 726.358 412.03C726.358 415.257 727.009 417.759 728.311 419.538C729.631 421.316 731.629 422.205 734.306 422.205Z" fill="#41A5DD"/>
<path d="M759.872 403.423C760.77 401.589 761.852 400.15 763.117 399.105C764.382 398.06 765.903 397.538 767.682 397.538C768.287 397.538 768.855 397.611 769.387 397.758C769.937 397.886 770.413 398.088 770.817 398.363L770.459 402.405C770.331 402.9 770.028 403.148 769.552 403.148C769.295 403.148 768.91 403.102 768.397 403.01C767.883 402.9 767.333 402.845 766.747 402.845C765.885 402.845 765.124 402.973 764.464 403.23C763.804 403.468 763.208 403.835 762.677 404.33C762.163 404.807 761.705 405.403 761.302 406.118C760.898 406.814 760.523 407.612 760.174 408.51V426H754.812V398.06H757.892C758.478 398.06 758.873 398.17 759.074 398.39C759.294 398.592 759.45 398.958 759.542 399.49L759.872 403.423Z" fill="#41A5DD"/>
<path d="M776.053 426V398.06H779.271C780.023 398.06 780.49 398.418 780.673 399.133L781.058 401.8C782.085 400.572 783.222 399.573 784.468 398.803C785.733 398.014 787.209 397.62 788.896 397.62C790.747 397.62 792.251 398.133 793.406 399.16C794.561 400.168 795.404 401.543 795.936 403.285C796.339 402.295 796.862 401.443 797.503 400.728C798.145 400.013 798.86 399.426 799.648 398.968C800.437 398.509 801.271 398.17 802.151 397.95C803.049 397.73 803.957 397.62 804.873 397.62C806.358 397.62 807.678 397.858 808.833 398.335C810.007 398.793 810.997 399.472 811.803 400.37C812.61 401.268 813.224 402.378 813.646 403.698C814.067 405.018 814.278 406.521 814.278 408.208V426H808.888V408.208C808.888 406.118 808.43 404.541 807.513 403.478C806.615 402.414 805.295 401.883 803.553 401.883C802.783 401.883 802.05 402.02 801.353 402.295C800.657 402.552 800.043 402.946 799.511 403.478C798.998 404.009 798.585 404.669 798.273 405.458C797.98 406.246 797.833 407.163 797.833 408.208V426H792.443V408.208C792.443 406.044 792.012 404.449 791.151 403.423C790.289 402.396 789.024 401.883 787.356 401.883C786.201 401.883 785.128 402.185 784.138 402.79C783.148 403.395 782.241 404.22 781.416 405.265V426H776.053Z" fill="#41A5DD"/>
</svg>
