<svg width="1204" height="678" viewBox="0 0 1204 678" fill="none" xmlns="http://www.w3.org/2000/svg">
<rect width="1204" height="677.25" fill="white"/>
<rect x="30" y="635" width="542" height="5" rx="2.5" fill="#70C216"/>
<path d="M43.8214 618.085C43.8214 619.098 43.6524 620.029 43.3145 620.877C42.9765 621.726 42.5015 622.456 41.8893 623.068C41.2771 623.68 40.5406 624.155 39.6798 624.493C38.8189 624.831 37.8624 625 36.8103 625H31.54V611.169H36.8103C37.8624 611.169 38.8189 611.341 39.6798 611.686C40.5406 612.023 41.2771 612.499 41.8893 613.111C42.5015 613.716 42.9765 614.443 43.3145 615.292C43.6524 616.14 43.8214 617.071 43.8214 618.085ZM41.1815 618.085C41.1815 617.326 41.0795 616.647 40.8754 616.047C40.6777 615.441 40.3876 614.931 40.005 614.517C39.6288 614.096 39.1696 613.774 38.6276 613.551C38.092 613.328 37.4862 613.216 36.8103 613.216H34.1225V622.953H36.8103C37.4862 622.953 38.092 622.841 38.6276 622.618C39.1696 622.395 39.6288 622.076 40.005 621.662C40.3876 621.241 40.6777 620.731 40.8754 620.131C41.0795 619.526 41.1815 618.843 41.1815 618.085ZM50.5317 615.033C51.2586 615.033 51.9186 615.151 52.5116 615.387C53.111 615.623 53.6212 615.958 54.042 616.392C54.4693 616.825 54.7977 617.354 55.0272 617.979C55.2568 618.604 55.3716 619.302 55.3716 620.074C55.3716 620.852 55.2568 621.553 55.0272 622.178C54.7977 622.803 54.4693 623.336 54.042 623.776C53.6212 624.216 53.111 624.554 52.5116 624.79C51.9186 625.026 51.2586 625.143 50.5317 625.143C49.7983 625.143 49.132 625.026 48.5326 624.79C47.9332 624.554 47.4199 624.216 46.9926 623.776C46.5718 623.336 46.2434 622.803 46.0074 622.178C45.7779 621.553 45.6631 620.852 45.6631 620.074C45.6631 619.302 45.7779 618.604 46.0074 617.979C46.2434 617.354 46.5718 616.825 46.9926 616.392C47.4199 615.958 47.9332 615.623 48.5326 615.387C49.132 615.151 49.7983 615.033 50.5317 615.033ZM50.5317 623.326C51.3479 623.326 51.9505 623.052 52.3395 622.504C52.7348 621.955 52.9325 621.152 52.9325 620.093C52.9325 619.035 52.7348 618.228 52.3395 617.673C51.9505 617.118 51.3479 616.841 50.5317 616.841C49.7027 616.841 49.0874 617.122 48.6856 617.683C48.2903 618.238 48.0926 619.041 48.0926 620.093C48.0926 621.145 48.2903 621.949 48.6856 622.504C49.0874 623.052 49.7027 623.326 50.5317 623.326Z" fill="#70C216"/>
<rect x="632" y="635" width="542" height="5" fill="#F74F64"/>
<path d="M645.821 618.085C645.821 619.098 645.652 620.029 645.314 620.877C644.977 621.726 644.501 622.456 643.889 623.068C643.277 623.68 642.541 624.155 641.68 624.493C640.819 624.831 639.862 625 638.81 625H633.54V611.169H638.81C639.862 611.169 640.819 611.341 641.68 611.686C642.541 612.023 643.277 612.499 643.889 613.111C644.501 613.716 644.977 614.443 645.314 615.292C645.652 616.14 645.821 617.071 645.821 618.085ZM643.181 618.085C643.181 617.326 643.079 616.647 642.875 616.047C642.678 615.441 642.388 614.931 642.005 614.517C641.629 614.096 641.17 613.774 640.628 613.551C640.092 613.328 639.486 613.216 638.81 613.216H636.123V622.953H638.81C639.486 622.953 640.092 622.841 640.628 622.618C641.17 622.395 641.629 622.076 642.005 621.662C642.388 621.241 642.678 620.731 642.875 620.131C643.079 619.526 643.181 618.843 643.181 618.085ZM652.532 615.033C653.259 615.033 653.919 615.151 654.512 615.387C655.111 615.623 655.621 615.958 656.042 616.392C656.469 616.825 656.798 617.354 657.027 617.979C657.257 618.604 657.372 619.302 657.372 620.074C657.372 620.852 657.257 621.553 657.027 622.178C656.798 622.803 656.469 623.336 656.042 623.776C655.621 624.216 655.111 624.554 654.512 624.79C653.919 625.026 653.259 625.143 652.532 625.143C651.798 625.143 651.132 625.026 650.533 624.79C649.933 624.554 649.42 624.216 648.993 623.776C648.572 623.336 648.243 622.803 648.007 622.178C647.778 621.553 647.663 620.852 647.663 620.074C647.663 619.302 647.778 618.604 648.007 617.979C648.243 617.354 648.572 616.825 648.993 616.392C649.42 615.958 649.933 615.623 650.533 615.387C651.132 615.151 651.798 615.033 652.532 615.033ZM652.532 623.326C653.348 623.326 653.95 623.052 654.339 622.504C654.735 621.955 654.932 621.152 654.932 620.093C654.932 619.035 654.735 618.228 654.339 617.673C653.95 617.118 653.348 616.841 652.532 616.841C651.703 616.841 651.087 617.122 650.686 617.683C650.29 618.238 650.093 619.041 650.093 620.093C650.093 621.145 650.29 621.949 650.686 622.504C651.087 623.052 651.703 623.326 652.532 623.326ZM661.983 616.392C662.181 616.194 662.388 616.012 662.605 615.846C662.828 615.674 663.061 615.531 663.303 615.416C663.552 615.295 663.817 615.202 664.097 615.138C664.378 615.068 664.684 615.033 665.016 615.033C665.551 615.033 666.026 615.126 666.441 615.311C666.855 615.489 667.2 615.744 667.474 616.076C667.754 616.401 667.965 616.793 668.105 617.252C668.252 617.705 668.325 618.206 668.325 618.754V625H665.963V618.754C665.963 618.155 665.825 617.692 665.551 617.367C665.277 617.036 664.859 616.87 664.298 616.87C663.89 616.87 663.507 616.962 663.15 617.147C662.793 617.332 662.455 617.584 662.137 617.903V625H659.774V615.186H661.218C661.524 615.186 661.725 615.33 661.821 615.617L661.983 616.392ZM672.499 610.241C672.805 610.745 673.012 611.271 673.12 611.819C673.229 612.361 673.238 612.9 673.149 613.436C673.06 613.965 672.872 614.475 672.585 614.966C672.304 615.451 671.925 615.888 671.446 616.277L670.7 615.827C670.637 615.789 670.592 615.744 670.567 615.693C670.541 615.636 670.528 615.582 670.528 615.531C670.535 615.473 670.547 615.419 670.567 615.368C670.592 615.317 670.624 615.272 670.662 615.234C670.796 615.075 670.924 614.864 671.045 614.603C671.166 614.341 671.249 614.048 671.293 613.723C671.344 613.398 671.338 613.05 671.274 612.68C671.217 612.31 671.073 611.941 670.844 611.571C670.735 611.386 670.704 611.226 670.748 611.092C670.799 610.952 670.904 610.853 671.064 610.796L672.499 610.241ZM678.985 625.153C678.131 625.153 677.474 624.914 677.015 624.436C676.562 623.951 676.335 623.285 676.335 622.437V616.956H675.331C675.204 616.956 675.095 616.914 675.006 616.831C674.917 616.749 674.872 616.624 674.872 616.458V615.521L676.45 615.263L676.948 612.585C676.98 612.457 677.04 612.358 677.129 612.288C677.219 612.218 677.333 612.183 677.474 612.183H678.698V615.272H681.319V616.956H678.698V622.274C678.698 622.58 678.771 622.819 678.918 622.991C679.071 623.164 679.278 623.25 679.54 623.25C679.686 623.25 679.808 623.234 679.903 623.202C680.005 623.164 680.091 623.125 680.161 623.087C680.238 623.049 680.305 623.014 680.362 622.982C680.42 622.944 680.477 622.924 680.535 622.924C680.605 622.924 680.662 622.944 680.707 622.982C680.751 623.014 680.799 623.065 680.85 623.135L681.558 624.283C681.214 624.57 680.818 624.786 680.372 624.933C679.926 625.08 679.463 625.153 678.985 625.153Z" fill="#F74F64"/>
<path d="M908.69 327.301C911.881 327.301 914.468 324.725 914.468 321.547C914.468 318.369 911.881 315.793 908.69 315.793C905.499 315.793 902.912 318.369 902.912 321.547C902.912 324.725 905.499 327.301 908.69 327.301Z" fill="#41A5DD"/>
<path fill-rule="evenodd" clip-rule="evenodd" d="M953.989 284.989C952.795 281.614 950.599 281 948.096 281H945.476C945.245 281 945.014 281 944.783 281.038H891.163C887.773 281.038 885 283.8 885 287.176V324.501C885 327.877 887.773 330.638 891.163 330.638H929.914V330.6H930.03C932.649 330.6 934.151 329.718 934.922 327.608L937.811 319.629H955.453L958.265 327.608C959.074 329.718 960.807 330.6 963.195 330.6C966.007 330.6 968.318 328.49 968.318 325.805C968.318 324.616 967.663 322.698 967.24 321.624L953.989 284.989ZM908.69 328.605C904.799 328.605 901.602 325.46 901.602 321.547C901.602 317.673 904.761 314.489 908.69 314.489C912.58 314.489 915.777 317.634 915.777 321.547C915.739 325.46 912.58 328.605 908.69 328.605ZM923.674 322.084H917.164C917.164 320.703 916.586 313.031 908.497 313.031C900.408 313.031 900.061 322.161 900.061 322.161H898.328C898.328 322.161 893.282 320.128 892.242 319.591C891.202 319.015 891.086 316.177 891.086 316.177V313.683H891.972V311.151C892.396 305.781 905.608 300.947 905.608 300.947C905.608 300.947 916.702 290.053 918.435 288.519C922.172 285.258 937.31 285.987 937.31 285.987L923.674 322.084ZM940.16 312.072L946.632 292.853H946.747L952.949 312.072H940.16Z" fill="#41A5DD"/>
<path fill-rule="evenodd" clip-rule="evenodd" d="M900.91 307.43C900.448 307.315 898.753 307.315 898.021 307.277C897.79 307.277 897.559 307.354 897.405 307.507C897.058 307.776 896.519 308.313 896.018 308.965C895.44 309.732 895.016 310.691 894.747 311.305C894.554 311.803 895.093 311.842 895.093 311.842L896.364 312.11C896.519 312.149 896.673 312.11 896.788 311.995L901.025 308.313C900.987 308.313 901.603 307.584 900.91 307.43Z" fill="#41A5DD"/>
<path fill-rule="evenodd" clip-rule="evenodd" d="M929.53 289.209C928.953 289.209 923.598 289.784 922.558 289.976C921.518 290.168 919.977 291.357 919.977 291.357L913.391 298.607V302.482L927.335 299.797C927.335 299.797 929.145 299.451 929.415 297.15C929.685 294.848 930.262 289.938 930.262 289.938C930.262 289.938 930.108 289.209 929.53 289.209Z" fill="#41A5DD"/>
<path d="M753.75 312.62L748.47 298.19C748.21 297.55 747.94 296.79 747.66 295.91C747.38 295.03 747.1 294.08 746.82 293.06C746.56 294.08 746.29 295.04 746.01 295.94C745.73 296.82 745.46 297.59 745.2 298.25L739.95 312.62H753.75ZM768 329H761.76C761.06 329 760.49 328.83 760.05 328.49C759.61 328.13 759.28 327.69 759.06 327.17L755.82 318.32H737.85L734.61 327.17C734.45 327.63 734.14 328.05 733.68 328.43C733.22 328.81 732.65 329 731.97 329H725.67L742.74 285.62H750.96L768 329ZM798.5 322.34V329H773.09V285.62H781.16V322.34H798.5ZM818.962 307.43C820.442 307.43 821.732 307.25 822.832 306.89C823.932 306.51 824.842 305.98 825.562 305.3C826.302 304.6 826.852 303.76 827.212 302.78C827.572 301.78 827.752 300.67 827.752 299.45C827.752 298.29 827.572 297.24 827.212 296.3C826.852 295.36 826.312 294.56 825.592 293.9C824.872 293.24 823.962 292.74 822.862 292.4C821.762 292.04 820.462 291.86 818.962 291.86H812.932V307.43H818.962ZM818.962 285.62C821.862 285.62 824.372 285.96 826.492 286.64C828.612 287.32 830.362 288.27 831.742 289.49C833.122 290.71 834.142 292.17 834.802 293.87C835.482 295.57 835.822 297.43 835.822 299.45C835.822 301.55 835.472 303.48 834.772 305.24C834.072 306.98 833.022 308.48 831.622 309.74C830.222 311 828.462 311.98 826.342 312.68C824.242 313.38 821.782 313.73 818.962 313.73H812.932V329H804.862V285.62H818.962ZM879.18 285.62V329H871.08V310.04H850.71V329H842.61V285.62H850.71V304.28H871.08V285.62H879.18Z" fill="#41A5DD"/>
<path d="M990.06 322.7C991.56 322.7 992.82 322.52 993.84 322.16C994.86 321.8 995.67 321.32 996.27 320.72C996.89 320.12 997.33 319.42 997.59 318.62C997.87 317.82 998.01 316.97 998.01 316.07C998.01 315.13 997.86 314.29 997.56 313.55C997.26 312.79 996.79 312.15 996.15 311.63C995.51 311.09 994.68 310.68 993.66 310.4C992.66 310.12 991.45 309.98 990.03 309.98H981.9V322.7H990.06ZM981.9 291.86V304.4H988.32C991.08 304.4 993.16 303.9 994.56 302.9C995.98 301.9 996.69 300.31 996.69 298.13C996.69 295.87 996.05 294.26 994.77 293.3C993.49 292.34 991.49 291.86 988.77 291.86H981.9ZM988.77 285.62C991.61 285.62 994.04 285.89 996.06 286.43C998.08 286.97 999.73 287.74 1001.01 288.74C1002.31 289.74 1003.26 290.95 1003.86 292.37C1004.46 293.79 1004.76 295.39 1004.76 297.17C1004.76 298.19 1004.61 299.17 1004.31 300.11C1004.01 301.03 1003.54 301.9 1002.9 302.72C1002.28 303.52 1001.48 304.25 1000.5 304.91C999.54 305.57 998.39 306.13 997.05 306.59C1003.01 307.93 1005.99 311.15 1005.99 316.25C1005.99 318.09 1005.64 319.79 1004.94 321.35C1004.24 322.91 1003.22 324.26 1001.88 325.4C1000.54 326.52 998.89 327.4 996.93 328.04C994.97 328.68 992.73 329 990.21 329H973.83V285.62H988.77ZM1022.02 292.04V304.07H1037.2V310.28H1022.02V322.55H1041.28V329H1013.92V285.62H1041.28V292.04H1022.02ZM1079.33 292.25H1066.25V329H1058.18V292.25H1045.1V285.62H1079.33V292.25Z" fill="#41A5DD"/>
<path d="M172.75 307.62L167.47 293.19C167.21 292.55 166.94 291.79 166.66 290.91C166.38 290.03 166.1 289.08 165.82 288.06C165.56 289.08 165.29 290.04 165.01 290.94C164.73 291.82 164.46 292.59 164.2 293.25L158.95 307.62H172.75ZM187 324H180.76C180.06 324 179.49 323.83 179.05 323.49C178.61 323.13 178.28 322.69 178.06 322.17L174.82 313.32H156.85L153.61 322.17C153.45 322.63 153.14 323.05 152.68 323.43C152.22 323.81 151.65 324 150.97 324H144.67L161.74 280.62H169.96L187 324ZM217.5 317.34V324H192.09V280.62H200.16V317.34H217.5ZM237.962 302.43C239.442 302.43 240.732 302.25 241.832 301.89C242.932 301.51 243.842 300.98 244.562 300.3C245.302 299.6 245.852 298.76 246.212 297.78C246.572 296.78 246.752 295.67 246.752 294.45C246.752 293.29 246.572 292.24 246.212 291.3C245.852 290.36 245.312 289.56 244.592 288.9C243.872 288.24 242.962 287.74 241.862 287.4C240.762 287.04 239.462 286.86 237.962 286.86H231.932V302.43H237.962ZM237.962 280.62C240.862 280.62 243.372 280.96 245.492 281.64C247.612 282.32 249.362 283.27 250.742 284.49C252.122 285.71 253.142 287.17 253.802 288.87C254.482 290.57 254.822 292.43 254.822 294.45C254.822 296.55 254.472 298.48 253.772 300.24C253.072 301.98 252.022 303.48 250.622 304.74C249.222 306 247.462 306.98 245.342 307.68C243.242 308.38 240.782 308.73 237.962 308.73H231.932V324H223.862V280.62H237.962ZM298.18 280.62V324H290.08V305.04H269.71V324H261.61V280.62H269.71V299.28H290.08V280.62H298.18ZM331.361 307.62L326.081 293.19C325.821 292.55 325.551 291.79 325.271 290.91C324.991 290.03 324.711 289.08 324.431 288.06C324.171 289.08 323.901 290.04 323.621 290.94C323.341 291.82 323.071 292.59 322.811 293.25L317.561 307.62H331.361ZM345.611 324H339.371C338.671 324 338.101 323.83 337.661 323.49C337.221 323.13 336.891 322.69 336.671 322.17L333.431 313.32H315.461L312.221 322.17C312.061 322.63 311.751 323.05 311.291 323.43C310.831 323.81 310.261 324 309.581 324H303.281L320.351 280.62H328.571L345.611 324ZM366.931 317.7C368.431 317.7 369.691 317.52 370.711 317.16C371.731 316.8 372.541 316.32 373.141 315.72C373.761 315.12 374.201 314.42 374.461 313.62C374.741 312.82 374.881 311.97 374.881 311.07C374.881 310.13 374.731 309.29 374.431 308.55C374.131 307.79 373.661 307.15 373.021 306.63C372.381 306.09 371.551 305.68 370.531 305.4C369.531 305.12 368.321 304.98 366.901 304.98H358.771V317.7H366.931ZM358.771 286.86V299.4H365.191C367.951 299.4 370.031 298.9 371.431 297.9C372.851 296.9 373.561 295.31 373.561 293.13C373.561 290.87 372.921 289.26 371.641 288.3C370.361 287.34 368.361 286.86 365.641 286.86H358.771ZM365.641 280.62C368.481 280.62 370.911 280.89 372.931 281.43C374.951 281.97 376.601 282.74 377.881 283.74C379.181 284.74 380.131 285.95 380.731 287.37C381.331 288.79 381.631 290.39 381.631 292.17C381.631 293.19 381.481 294.17 381.181 295.11C380.881 296.03 380.411 296.9 379.771 297.72C379.151 298.52 378.351 299.25 377.371 299.91C376.411 300.57 375.261 301.13 373.921 301.59C379.881 302.93 382.861 306.15 382.861 311.25C382.861 313.09 382.511 314.79 381.811 316.35C381.111 317.91 380.091 319.26 378.751 320.4C377.411 321.52 375.761 322.4 373.801 323.04C371.841 323.68 369.601 324 367.081 324H350.701V280.62H365.641ZM398.893 287.04V299.07H414.073V305.28H398.893V317.55H418.153V324H390.793V280.62H418.153V287.04H398.893ZM456.205 287.25H443.125V324H435.055V287.25H421.975V280.62H456.205V287.25Z" fill="#41A5DD"/>
</svg>
