<svg width="1204" height="678" viewBox="0 0 1204 678" fill="none" xmlns="http://www.w3.org/2000/svg">
<rect width="1204" height="677.25" fill="white"/>
<rect x="245.5" y="238.5" width="183" height="49" stroke="#D8D8D8"/>
<rect x="245.5" y="338.5" width="183" height="49" stroke="#D8D8D8"/>
<rect x="245.5" y="387.5" width="149" height="49" transform="rotate(-90 245.5 387.5)" stroke="#D8D8D8"/>
<rect x="379.5" y="387.5" width="149" height="49" transform="rotate(-90 379.5 387.5)" stroke="#D8D8D8"/>
<path d="M318.862 334.176C322.077 334.176 324.682 331.581 324.682 328.379C324.682 325.178 322.077 322.583 318.862 322.583C315.648 322.583 313.042 325.178 313.042 328.379C313.042 331.581 315.648 334.176 318.862 334.176Z" fill="#41A5DD"/>
<path fill-rule="evenodd" clip-rule="evenodd" d="M364.492 291.556C363.289 288.155 361.077 287.537 358.555 287.537H355.917C355.684 287.537 355.451 287.537 355.218 287.576H301.208C297.794 287.576 295 290.358 295 293.758V331.355C295 334.755 297.794 337.537 301.208 337.537H340.241V337.499H340.358C342.996 337.499 344.51 336.61 345.285 334.485L348.195 326.447H365.966L368.799 334.485C369.613 336.61 371.359 337.499 373.765 337.499C376.598 337.499 378.926 335.373 378.926 332.669C378.926 331.471 378.266 329.539 377.839 328.457L364.492 291.556ZM318.862 335.489C314.943 335.489 311.723 332.321 311.723 328.379C311.723 324.477 314.905 321.27 318.862 321.27C322.781 321.27 326.002 324.438 326.002 328.379C325.963 332.321 322.781 335.489 318.862 335.489ZM333.956 328.921H327.398C327.398 327.529 326.816 319.801 318.668 319.801C310.52 319.801 310.171 328.998 310.171 328.998H308.425C308.425 328.998 303.342 326.95 302.294 326.409C301.247 325.829 301.13 322.97 301.13 322.97V320.458H302.023V317.908C302.45 312.498 315.758 307.63 315.758 307.63C315.758 307.63 326.933 296.656 328.679 295.111C332.443 291.826 347.691 292.56 347.691 292.56L333.956 328.921ZM350.562 318.835L357.081 299.477H357.197L363.444 318.835H350.562Z" fill="#41A5DD"/>
<path fill-rule="evenodd" clip-rule="evenodd" d="M311.025 314.16C310.559 314.044 308.852 314.044 308.115 314.005C307.882 314.005 307.649 314.083 307.494 314.237C307.145 314.508 306.602 315.049 306.097 315.706C305.515 316.478 305.088 317.444 304.817 318.063C304.623 318.565 305.166 318.604 305.166 318.604L306.446 318.874C306.602 318.913 306.757 318.874 306.873 318.758L311.141 315.049C311.102 315.049 311.723 314.315 311.025 314.16Z" fill="#41A5DD"/>
<path fill-rule="evenodd" clip-rule="evenodd" d="M339.853 295.806C339.271 295.806 333.878 296.386 332.831 296.579C331.783 296.772 330.231 297.97 330.231 297.97L323.596 305.273V309.175L337.642 306.471C337.642 306.471 339.465 306.123 339.737 303.804C340.009 301.486 340.591 296.54 340.591 296.54C340.591 296.54 340.435 295.806 339.853 295.806Z" fill="#41A5DD"/>
<line x1="235" y1="288.5" x2="221" y2="288.5" stroke="black"/>
<line x1="235" y1="238.5" x2="221" y2="238.5" stroke="black"/>
<line x1="221.5" y1="238" x2="221.5" y2="288" stroke="black"/>
<line x1="295.5" y1="398" x2="295.5" y2="412" stroke="black"/>
<line x1="245.5" y1="398" x2="245.5" y2="412" stroke="black"/>
<line x1="245" y1="411.5" x2="295" y2="411.5" stroke="black"/>
<path d="M157.126 267.048V268H151.75V267.048H153.899V260.209C153.899 260.004 153.906 259.796 153.92 259.586L152.135 261.119C152.074 261.17 152.014 261.203 151.953 261.217C151.892 261.226 151.836 261.226 151.785 261.217C151.734 261.208 151.685 261.189 151.638 261.161C151.596 261.133 151.563 261.103 151.54 261.07L151.148 260.531L154.137 257.948H155.152V267.048H157.126ZM166.121 262.988C166.121 263.865 166.025 264.626 165.834 265.27C165.647 265.909 165.391 266.439 165.064 266.859C164.737 267.279 164.35 267.592 163.902 267.797C163.459 268.002 162.983 268.105 162.474 268.105C161.961 268.105 161.482 268.002 161.039 267.797C160.6 267.592 160.218 267.279 159.891 266.859C159.564 266.439 159.308 265.909 159.121 265.27C158.934 264.626 158.841 263.865 158.841 262.988C158.841 262.111 158.934 261.35 159.121 260.706C159.308 260.062 159.564 259.53 159.891 259.11C160.218 258.685 160.6 258.37 161.039 258.165C161.482 257.96 161.961 257.857 162.474 257.857C162.983 257.857 163.459 257.96 163.902 258.165C164.35 258.37 164.737 258.685 165.064 259.11C165.391 259.53 165.647 260.062 165.834 260.706C166.025 261.35 166.121 262.111 166.121 262.988ZM164.826 262.988C164.826 262.223 164.761 261.581 164.63 261.063C164.504 260.54 164.331 260.12 164.112 259.803C163.897 259.486 163.648 259.259 163.363 259.124C163.078 258.984 162.782 258.914 162.474 258.914C162.166 258.914 161.87 258.984 161.585 259.124C161.3 259.259 161.051 259.486 160.836 259.803C160.621 260.12 160.449 260.54 160.318 261.063C160.192 261.581 160.129 262.223 160.129 262.988C160.129 263.753 160.192 264.395 160.318 264.913C160.449 265.431 160.621 265.849 160.836 266.166C161.051 266.483 161.3 266.712 161.585 266.852C161.87 266.987 162.166 267.055 162.474 267.055C162.782 267.055 163.078 266.987 163.363 266.852C163.648 266.712 163.897 266.483 164.112 266.166C164.331 265.849 164.504 265.431 164.63 264.913C164.761 264.395 164.826 263.753 164.826 262.988ZM174.542 262.988C174.542 263.865 174.447 264.626 174.255 265.27C174.069 265.909 173.812 266.439 173.485 266.859C173.159 267.279 172.771 267.592 172.323 267.797C171.88 268.002 171.404 268.105 170.895 268.105C170.382 268.105 169.904 268.002 169.46 267.797C169.022 267.592 168.639 267.279 168.312 266.859C167.986 266.439 167.729 265.909 167.542 265.27C167.356 264.626 167.262 263.865 167.262 262.988C167.262 262.111 167.356 261.35 167.542 260.706C167.729 260.062 167.986 259.53 168.312 259.11C168.639 258.685 169.022 258.37 169.46 258.165C169.904 257.96 170.382 257.857 170.895 257.857C171.404 257.857 171.88 257.96 172.323 258.165C172.771 258.37 173.159 258.685 173.485 259.11C173.812 259.53 174.069 260.062 174.255 260.706C174.447 261.35 174.542 262.111 174.542 262.988ZM173.247 262.988C173.247 262.223 173.182 261.581 173.051 261.063C172.925 260.54 172.753 260.12 172.533 259.803C172.319 259.486 172.069 259.259 171.784 259.124C171.5 258.984 171.203 258.914 170.895 258.914C170.587 258.914 170.291 258.984 170.006 259.124C169.722 259.259 169.472 259.486 169.257 259.803C169.043 260.12 168.87 260.54 168.739 261.063C168.613 261.581 168.55 262.223 168.55 262.988C168.55 263.753 168.613 264.395 168.739 264.913C168.87 265.431 169.043 265.849 169.257 266.166C169.472 266.483 169.722 266.712 170.006 266.852C170.291 266.987 170.587 267.055 170.895 267.055C171.203 267.055 171.5 266.987 171.784 266.852C172.069 266.712 172.319 266.483 172.533 266.166C172.753 265.849 172.925 265.431 173.051 264.913C173.182 264.395 173.247 263.753 173.247 262.988ZM180.317 260.391C180.317 260.783 180.257 261.135 180.135 261.448C180.014 261.756 179.851 262.017 179.645 262.232C179.445 262.442 179.209 262.603 178.938 262.715C178.672 262.827 178.39 262.883 178.091 262.883C177.779 262.883 177.487 262.827 177.216 262.715C176.946 262.603 176.71 262.442 176.509 262.232C176.313 262.017 176.159 261.756 176.047 261.448C175.935 261.135 175.879 260.783 175.879 260.391C175.879 259.99 175.935 259.633 176.047 259.32C176.159 259.007 176.313 258.744 176.509 258.529C176.71 258.314 176.946 258.151 177.216 258.039C177.487 257.927 177.779 257.871 178.091 257.871C178.409 257.871 178.703 257.927 178.973 258.039C179.244 258.151 179.48 258.314 179.68 258.529C179.881 258.744 180.037 259.007 180.149 259.32C180.261 259.633 180.317 259.99 180.317 260.391ZM179.351 260.391C179.351 260.083 179.319 259.822 179.253 259.607C179.188 259.392 179.097 259.217 178.98 259.082C178.868 258.942 178.735 258.842 178.581 258.781C178.427 258.72 178.264 258.69 178.091 258.69C177.919 258.69 177.758 258.72 177.608 258.781C177.459 258.842 177.328 258.942 177.216 259.082C177.104 259.217 177.016 259.392 176.95 259.607C176.885 259.822 176.852 260.083 176.852 260.391C176.852 260.694 176.885 260.953 176.95 261.168C177.016 261.378 177.104 261.551 177.216 261.686C177.328 261.817 177.459 261.912 177.608 261.973C177.758 262.029 177.919 262.057 178.091 262.057C178.264 262.057 178.427 262.029 178.581 261.973C178.735 261.912 178.868 261.817 178.98 261.686C179.097 261.551 179.188 261.378 179.253 261.168C179.319 260.953 179.351 260.694 179.351 260.391ZM183.866 258.179C183.913 258.123 183.967 258.074 184.027 258.032C184.093 257.99 184.179 257.969 184.286 257.969H185.189L177.853 267.797C177.811 267.858 177.758 267.907 177.692 267.944C177.627 267.981 177.548 268 177.454 268H176.537L183.866 258.179ZM185.868 265.634C185.868 266.026 185.808 266.376 185.686 266.684C185.565 266.992 185.402 267.253 185.196 267.468C184.996 267.678 184.76 267.839 184.489 267.951C184.223 268.063 183.941 268.119 183.642 268.119C183.325 268.119 183.031 268.063 182.76 267.951C182.494 267.839 182.261 267.678 182.06 267.468C181.864 267.253 181.71 266.992 181.598 266.684C181.486 266.376 181.43 266.026 181.43 265.634C181.43 265.233 181.486 264.876 181.598 264.563C181.71 264.246 181.864 263.98 182.06 263.765C182.261 263.55 182.494 263.387 182.76 263.275C183.031 263.163 183.325 263.107 183.642 263.107C183.955 263.107 184.247 263.163 184.517 263.275C184.793 263.387 185.028 263.55 185.224 263.765C185.425 263.98 185.581 264.246 185.693 264.563C185.81 264.876 185.868 265.233 185.868 265.634ZM184.902 265.634C184.902 265.326 184.87 265.065 184.804 264.85C184.739 264.631 184.648 264.453 184.531 264.318C184.419 264.183 184.286 264.085 184.132 264.024C183.978 263.963 183.815 263.933 183.642 263.933C183.47 263.933 183.306 263.963 183.152 264.024C183.003 264.085 182.872 264.183 182.76 264.318C182.648 264.453 182.56 264.631 182.494 264.85C182.434 265.065 182.403 265.326 182.403 265.634C182.403 265.937 182.434 266.194 182.494 266.404C182.56 266.614 182.648 266.787 182.76 266.922C182.872 267.053 183.003 267.148 183.152 267.209C183.306 267.265 183.47 267.293 183.642 267.293C183.815 267.293 183.978 267.265 184.132 267.209C184.286 267.148 184.419 267.053 184.531 266.922C184.648 266.787 184.739 266.614 184.804 266.404C184.87 266.194 184.902 265.937 184.902 265.634ZM194.646 260.797C195.164 260.797 195.631 260.883 196.046 261.056C196.461 261.229 196.816 261.474 197.11 261.791C197.404 262.108 197.628 262.493 197.782 262.946C197.941 263.394 198.02 263.896 198.02 264.451C198.02 265.011 197.941 265.515 197.782 265.963C197.628 266.411 197.404 266.794 197.11 267.111C196.816 267.428 196.461 267.673 196.046 267.846C195.631 268.014 195.164 268.098 194.646 268.098C194.123 268.098 193.652 268.014 193.232 267.846C192.817 267.673 192.462 267.428 192.168 267.111C191.874 266.794 191.648 266.411 191.489 265.963C191.335 265.515 191.258 265.011 191.258 264.451C191.258 263.896 191.335 263.394 191.489 262.946C191.648 262.493 191.874 262.108 192.168 261.791C192.462 261.474 192.817 261.229 193.232 261.056C193.652 260.883 194.123 260.797 194.646 260.797ZM194.646 267.125C195.346 267.125 195.869 266.892 196.214 266.425C196.559 265.954 196.732 265.298 196.732 264.458C196.732 263.613 196.559 262.955 196.214 262.484C195.869 262.013 195.346 261.777 194.646 261.777C194.291 261.777 193.981 261.838 193.715 261.959C193.454 262.08 193.234 262.255 193.057 262.484C192.884 262.713 192.754 262.995 192.665 263.331C192.581 263.662 192.539 264.038 192.539 264.458C192.539 265.298 192.712 265.954 193.057 266.425C193.407 266.892 193.937 267.125 194.646 267.125ZM200.212 268V261.973L199.428 261.882C199.33 261.859 199.248 261.824 199.183 261.777C199.122 261.726 199.092 261.653 199.092 261.56V261.049H200.212V260.363C200.212 259.957 200.268 259.598 200.38 259.285C200.497 258.968 200.66 258.702 200.87 258.487C201.085 258.268 201.341 258.102 201.64 257.99C201.939 257.878 202.275 257.822 202.648 257.822C202.965 257.822 203.257 257.869 203.523 257.962L203.495 258.585C203.486 258.697 203.423 258.758 203.306 258.767C203.194 258.776 203.042 258.781 202.851 258.781C202.636 258.781 202.44 258.809 202.263 258.865C202.09 258.921 201.941 259.012 201.815 259.138C201.689 259.264 201.591 259.43 201.521 259.635C201.456 259.84 201.423 260.095 201.423 260.398V261.049H203.467V261.952H201.465V268H200.212ZM209.896 260.909V268.525C209.896 268.81 209.859 269.073 209.784 269.316C209.71 269.563 209.591 269.778 209.427 269.96C209.264 270.142 209.054 270.284 208.797 270.387C208.545 270.494 208.242 270.548 207.887 270.548C207.738 270.548 207.6 270.536 207.474 270.513C207.348 270.49 207.222 270.455 207.096 270.408L207.145 269.736C207.155 269.694 207.171 269.661 207.194 269.638C207.213 269.619 207.241 269.608 207.278 269.603C207.316 269.598 207.365 269.596 207.425 269.596C207.481 269.601 207.554 269.603 207.642 269.603C208.006 269.603 208.265 269.517 208.419 269.344C208.573 269.176 208.65 268.903 208.65 268.525V260.909H209.896ZM210.155 258.683C210.155 258.804 210.13 258.919 210.078 259.026C210.032 259.129 209.966 259.222 209.882 259.306C209.803 259.385 209.71 259.448 209.602 259.495C209.495 259.542 209.381 259.565 209.259 259.565C209.138 259.565 209.024 259.542 208.916 259.495C208.814 259.448 208.723 259.385 208.643 259.306C208.564 259.222 208.501 259.129 208.454 259.026C208.408 258.919 208.384 258.804 208.384 258.683C208.384 258.562 208.408 258.447 208.454 258.34C208.501 258.228 208.564 258.132 208.643 258.053C208.723 257.969 208.814 257.904 208.916 257.857C209.024 257.81 209.138 257.787 209.259 257.787C209.381 257.787 209.495 257.81 209.602 257.857C209.71 257.904 209.803 257.969 209.882 258.053C209.966 258.132 210.032 258.228 210.078 258.34C210.13 258.447 210.155 258.562 210.155 258.683Z" fill="black"/>
<line x1="439" y1="287.5" x2="453" y2="287.5" stroke="black"/>
<line x1="439" y1="337.5" x2="453" y2="337.5" stroke="black"/>
<line x1="452.5" y1="338" x2="452.5" y2="288" stroke="black"/>
<path d="M465.303 311.909V319.525C465.303 319.81 465.266 320.073 465.191 320.316C465.116 320.563 464.997 320.778 464.834 320.96C464.671 321.142 464.461 321.284 464.204 321.387C463.952 321.494 463.649 321.548 463.294 321.548C463.145 321.548 463.007 321.536 462.881 321.513C462.755 321.49 462.629 321.455 462.503 321.408L462.552 320.736C462.561 320.694 462.578 320.661 462.601 320.638C462.62 320.619 462.648 320.608 462.685 320.603C462.722 320.598 462.771 320.596 462.832 320.596C462.888 320.601 462.96 320.603 463.049 320.603C463.413 320.603 463.672 320.517 463.826 320.344C463.98 320.176 464.057 319.903 464.057 319.525V311.909H465.303ZM465.562 309.683C465.562 309.804 465.536 309.919 465.485 310.026C465.438 310.129 465.373 310.222 465.289 310.306C465.21 310.385 465.116 310.448 465.009 310.495C464.902 310.542 464.787 310.565 464.666 310.565C464.545 310.565 464.43 310.542 464.323 310.495C464.22 310.448 464.129 310.385 464.05 310.306C463.971 310.222 463.908 310.129 463.861 310.026C463.814 309.919 463.791 309.804 463.791 309.683C463.791 309.562 463.814 309.447 463.861 309.34C463.908 309.228 463.971 309.132 464.05 309.053C464.129 308.969 464.22 308.904 464.323 308.857C464.43 308.81 464.545 308.787 464.666 308.787C464.787 308.787 464.902 308.81 465.009 308.857C465.116 308.904 465.21 308.969 465.289 309.053C465.373 309.132 465.438 309.228 465.485 309.34C465.536 309.447 465.562 309.562 465.562 309.683Z" fill="black"/>
<path d="M246.126 435.048V436H240.75V435.048H242.899V428.209C242.899 428.004 242.906 427.796 242.92 427.586L241.135 429.119C241.074 429.17 241.014 429.203 240.953 429.217C240.892 429.226 240.836 429.226 240.785 429.217C240.734 429.208 240.685 429.189 240.638 429.161C240.596 429.133 240.563 429.103 240.54 429.07L240.148 428.531L243.137 425.948H244.152V435.048H246.126ZM255.121 430.988C255.121 431.865 255.025 432.626 254.834 433.27C254.647 433.909 254.391 434.439 254.064 434.859C253.737 435.279 253.35 435.592 252.902 435.797C252.459 436.002 251.983 436.105 251.474 436.105C250.961 436.105 250.482 436.002 250.039 435.797C249.6 435.592 249.218 435.279 248.891 434.859C248.564 434.439 248.308 433.909 248.121 433.27C247.934 432.626 247.841 431.865 247.841 430.988C247.841 430.111 247.934 429.35 248.121 428.706C248.308 428.062 248.564 427.53 248.891 427.11C249.218 426.685 249.6 426.37 250.039 426.165C250.482 425.96 250.961 425.857 251.474 425.857C251.983 425.857 252.459 425.96 252.902 426.165C253.35 426.37 253.737 426.685 254.064 427.11C254.391 427.53 254.647 428.062 254.834 428.706C255.025 429.35 255.121 430.111 255.121 430.988ZM253.826 430.988C253.826 430.223 253.761 429.581 253.63 429.063C253.504 428.54 253.331 428.12 253.112 427.803C252.897 427.486 252.648 427.259 252.363 427.124C252.078 426.984 251.782 426.914 251.474 426.914C251.166 426.914 250.87 426.984 250.585 427.124C250.3 427.259 250.051 427.486 249.836 427.803C249.621 428.12 249.449 428.54 249.318 429.063C249.192 429.581 249.129 430.223 249.129 430.988C249.129 431.753 249.192 432.395 249.318 432.913C249.449 433.431 249.621 433.849 249.836 434.166C250.051 434.483 250.3 434.712 250.585 434.852C250.87 434.987 251.166 435.055 251.474 435.055C251.782 435.055 252.078 434.987 252.363 434.852C252.648 434.712 252.897 434.483 253.112 434.166C253.331 433.849 253.504 433.431 253.63 432.913C253.761 432.395 253.826 431.753 253.826 430.988ZM263.542 430.988C263.542 431.865 263.447 432.626 263.255 433.27C263.069 433.909 262.812 434.439 262.485 434.859C262.159 435.279 261.771 435.592 261.323 435.797C260.88 436.002 260.404 436.105 259.895 436.105C259.382 436.105 258.904 436.002 258.46 435.797C258.022 435.592 257.639 435.279 257.312 434.859C256.986 434.439 256.729 433.909 256.542 433.27C256.356 432.626 256.262 431.865 256.262 430.988C256.262 430.111 256.356 429.35 256.542 428.706C256.729 428.062 256.986 427.53 257.312 427.11C257.639 426.685 258.022 426.37 258.46 426.165C258.904 425.96 259.382 425.857 259.895 425.857C260.404 425.857 260.88 425.96 261.323 426.165C261.771 426.37 262.159 426.685 262.485 427.11C262.812 427.53 263.069 428.062 263.255 428.706C263.447 429.35 263.542 430.111 263.542 430.988ZM262.247 430.988C262.247 430.223 262.182 429.581 262.051 429.063C261.925 428.54 261.753 428.12 261.533 427.803C261.319 427.486 261.069 427.259 260.784 427.124C260.5 426.984 260.203 426.914 259.895 426.914C259.587 426.914 259.291 426.984 259.006 427.124C258.722 427.259 258.472 427.486 258.257 427.803C258.043 428.12 257.87 428.54 257.739 429.063C257.613 429.581 257.55 430.223 257.55 430.988C257.55 431.753 257.613 432.395 257.739 432.913C257.87 433.431 258.043 433.849 258.257 434.166C258.472 434.483 258.722 434.712 259.006 434.852C259.291 434.987 259.587 435.055 259.895 435.055C260.203 435.055 260.5 434.987 260.784 434.852C261.069 434.712 261.319 434.483 261.533 434.166C261.753 433.849 261.925 433.431 262.051 432.913C262.182 432.395 262.247 431.753 262.247 430.988ZM269.317 428.391C269.317 428.783 269.257 429.135 269.135 429.448C269.014 429.756 268.851 430.017 268.645 430.232C268.445 430.442 268.209 430.603 267.938 430.715C267.672 430.827 267.39 430.883 267.091 430.883C266.779 430.883 266.487 430.827 266.216 430.715C265.946 430.603 265.71 430.442 265.509 430.232C265.313 430.017 265.159 429.756 265.047 429.448C264.935 429.135 264.879 428.783 264.879 428.391C264.879 427.99 264.935 427.633 265.047 427.32C265.159 427.007 265.313 426.744 265.509 426.529C265.71 426.314 265.946 426.151 266.216 426.039C266.487 425.927 266.779 425.871 267.091 425.871C267.409 425.871 267.703 425.927 267.973 426.039C268.244 426.151 268.48 426.314 268.68 426.529C268.881 426.744 269.037 427.007 269.149 427.32C269.261 427.633 269.317 427.99 269.317 428.391ZM268.351 428.391C268.351 428.083 268.319 427.822 268.253 427.607C268.188 427.392 268.097 427.217 267.98 427.082C267.868 426.942 267.735 426.842 267.581 426.781C267.427 426.72 267.264 426.69 267.091 426.69C266.919 426.69 266.758 426.72 266.608 426.781C266.459 426.842 266.328 426.942 266.216 427.082C266.104 427.217 266.016 427.392 265.95 427.607C265.885 427.822 265.852 428.083 265.852 428.391C265.852 428.694 265.885 428.953 265.95 429.168C266.016 429.378 266.104 429.551 266.216 429.686C266.328 429.817 266.459 429.912 266.608 429.973C266.758 430.029 266.919 430.057 267.091 430.057C267.264 430.057 267.427 430.029 267.581 429.973C267.735 429.912 267.868 429.817 267.98 429.686C268.097 429.551 268.188 429.378 268.253 429.168C268.319 428.953 268.351 428.694 268.351 428.391ZM272.866 426.179C272.913 426.123 272.967 426.074 273.027 426.032C273.093 425.99 273.179 425.969 273.286 425.969H274.189L266.853 435.797C266.811 435.858 266.758 435.907 266.692 435.944C266.627 435.981 266.548 436 266.454 436H265.537L272.866 426.179ZM274.868 433.634C274.868 434.026 274.808 434.376 274.686 434.684C274.565 434.992 274.402 435.253 274.196 435.468C273.996 435.678 273.76 435.839 273.489 435.951C273.223 436.063 272.941 436.119 272.642 436.119C272.325 436.119 272.031 436.063 271.76 435.951C271.494 435.839 271.261 435.678 271.06 435.468C270.864 435.253 270.71 434.992 270.598 434.684C270.486 434.376 270.43 434.026 270.43 433.634C270.43 433.233 270.486 432.876 270.598 432.563C270.71 432.246 270.864 431.98 271.06 431.765C271.261 431.55 271.494 431.387 271.76 431.275C272.031 431.163 272.325 431.107 272.642 431.107C272.955 431.107 273.247 431.163 273.517 431.275C273.793 431.387 274.028 431.55 274.224 431.765C274.425 431.98 274.581 432.246 274.693 432.563C274.81 432.876 274.868 433.233 274.868 433.634ZM273.902 433.634C273.902 433.326 273.87 433.065 273.804 432.85C273.739 432.631 273.648 432.453 273.531 432.318C273.419 432.183 273.286 432.085 273.132 432.024C272.978 431.963 272.815 431.933 272.642 431.933C272.47 431.933 272.306 431.963 272.152 432.024C272.003 432.085 271.872 432.183 271.76 432.318C271.648 432.453 271.56 432.631 271.494 432.85C271.434 433.065 271.403 433.326 271.403 433.634C271.403 433.937 271.434 434.194 271.494 434.404C271.56 434.614 271.648 434.787 271.76 434.922C271.872 435.053 272.003 435.148 272.152 435.209C272.306 435.265 272.47 435.293 272.642 435.293C272.815 435.293 272.978 435.265 273.132 435.209C273.286 435.148 273.419 435.053 273.531 434.922C273.648 434.787 273.739 434.614 273.804 434.404C273.87 434.194 273.902 433.937 273.902 433.634ZM283.646 428.797C284.164 428.797 284.631 428.883 285.046 429.056C285.461 429.229 285.816 429.474 286.11 429.791C286.404 430.108 286.628 430.493 286.782 430.946C286.941 431.394 287.02 431.896 287.02 432.451C287.02 433.011 286.941 433.515 286.782 433.963C286.628 434.411 286.404 434.794 286.11 435.111C285.816 435.428 285.461 435.673 285.046 435.846C284.631 436.014 284.164 436.098 283.646 436.098C283.123 436.098 282.652 436.014 282.232 435.846C281.817 435.673 281.462 435.428 281.168 435.111C280.874 434.794 280.648 434.411 280.489 433.963C280.335 433.515 280.258 433.011 280.258 432.451C280.258 431.896 280.335 431.394 280.489 430.946C280.648 430.493 280.874 430.108 281.168 429.791C281.462 429.474 281.817 429.229 282.232 429.056C282.652 428.883 283.123 428.797 283.646 428.797ZM283.646 435.125C284.346 435.125 284.869 434.892 285.214 434.425C285.559 433.954 285.732 433.298 285.732 432.458C285.732 431.613 285.559 430.955 285.214 430.484C284.869 430.013 284.346 429.777 283.646 429.777C283.291 429.777 282.981 429.838 282.715 429.959C282.454 430.08 282.234 430.255 282.057 430.484C281.884 430.713 281.754 430.995 281.665 431.331C281.581 431.662 281.539 432.038 281.539 432.458C281.539 433.298 281.712 433.954 282.057 434.425C282.407 434.892 282.937 435.125 283.646 435.125ZM289.212 436V429.973L288.428 429.882C288.33 429.859 288.248 429.824 288.183 429.777C288.122 429.726 288.092 429.653 288.092 429.56V429.049H289.212V428.363C289.212 427.957 289.268 427.598 289.38 427.285C289.497 426.968 289.66 426.702 289.87 426.487C290.085 426.268 290.341 426.102 290.64 425.99C290.939 425.878 291.275 425.822 291.648 425.822C291.965 425.822 292.257 425.869 292.523 425.962L292.495 426.585C292.486 426.697 292.423 426.758 292.306 426.767C292.194 426.776 292.042 426.781 291.851 426.781C291.636 426.781 291.44 426.809 291.263 426.865C291.09 426.921 290.941 427.012 290.815 427.138C290.689 427.264 290.591 427.43 290.521 427.635C290.456 427.84 290.423 428.095 290.423 428.398V429.049H292.467V429.952H290.465V436H289.212ZM298.896 428.909V436.525C298.896 436.81 298.859 437.073 298.784 437.316C298.71 437.563 298.591 437.778 298.427 437.96C298.264 438.142 298.054 438.284 297.797 438.387C297.545 438.494 297.242 438.548 296.887 438.548C296.738 438.548 296.6 438.536 296.474 438.513C296.348 438.49 296.222 438.455 296.096 438.408L296.145 437.736C296.155 437.694 296.171 437.661 296.194 437.638C296.213 437.619 296.241 437.608 296.278 437.603C296.316 437.598 296.365 437.596 296.425 437.596C296.481 437.601 296.554 437.603 296.642 437.603C297.006 437.603 297.265 437.517 297.419 437.344C297.573 437.176 297.65 436.903 297.65 436.525V428.909H298.896ZM299.155 426.683C299.155 426.804 299.13 426.919 299.078 427.026C299.032 427.129 298.966 427.222 298.882 427.306C298.803 427.385 298.71 427.448 298.602 427.495C298.495 427.542 298.381 427.565 298.259 427.565C298.138 427.565 298.024 427.542 297.916 427.495C297.814 427.448 297.723 427.385 297.643 427.306C297.564 427.222 297.501 427.129 297.454 427.026C297.408 426.919 297.384 426.804 297.384 426.683C297.384 426.562 297.408 426.447 297.454 426.34C297.501 426.228 297.564 426.132 297.643 426.053C297.723 425.969 297.814 425.904 297.916 425.857C298.024 425.81 298.138 425.787 298.259 425.787C298.381 425.787 298.495 425.81 298.602 425.857C298.71 425.904 298.803 425.969 298.882 426.053C298.966 426.132 299.032 426.228 299.078 426.34C299.13 426.447 299.155 426.562 299.155 426.683Z" fill="black"/>
<rect x="622.5" y="238.5" width="392" height="49" stroke="#D8D8D8"/>
<rect x="622.5" y="338.5" width="392" height="49" stroke="#D8D8D8"/>
<rect x="622.5" y="387.5" width="149" height="49" transform="rotate(-90 622.5 387.5)" stroke="#D8D8D8"/>
<rect x="965.5" y="387.5" width="149" height="49" transform="rotate(-90 965.5 387.5)" stroke="#D8D8D8"/>
<g clip-path="url(#clip0)">
<path fill-rule="evenodd" clip-rule="evenodd" d="M793.761 287.269C790.487 287.269 788.484 288.995 788.484 292.524V320.91H788.33L769.147 290.107C767.953 288.113 765.95 287.23 763.677 287.23C759.016 287.23 756.782 289.11 756.782 293.598V331.575C756.782 335.104 758.785 336.83 762.059 336.83C765.333 336.83 767.337 335.104 767.337 331.575V303.994H767.452L786.481 333.915C787.868 336.101 789.023 336.83 792.49 336.83C797.112 336.83 798.961 334.375 798.961 330.041V292.486C799.038 288.995 797.035 287.269 793.761 287.269Z" fill="#41A5DD"/>
<path fill-rule="evenodd" clip-rule="evenodd" d="M836.094 287.269C833.822 287.269 832.627 288.074 831.357 290.452L821.881 307.945L812.328 290.452C811.21 288.343 809.978 287.269 807.397 287.269C805.278 287.269 801.85 288.534 801.85 292.255C801.85 293.253 802.236 294.25 802.775 295.132L816.18 317.343V331.46C816.18 334.72 818.298 336.907 821.649 336.907C825.001 336.907 827.119 334.72 827.119 331.46V317.343L840.524 295.132C841.063 294.25 841.449 293.253 841.449 292.255C841.487 288.534 838.097 287.269 836.094 287.269Z" fill="#41A5DD"/>
<path fill-rule="evenodd" clip-rule="evenodd" d="M884.783 292.14C884.783 288.496 881.972 287.269 879.237 287.269C876.694 287.269 875.115 288.803 874.113 292.064L863.829 324.632H863.713L853.813 292.064C852.812 288.803 851.194 287.269 848.267 287.269C845.532 287.269 842.72 288.458 842.72 292.14C842.72 293.023 842.912 294.058 843.375 295.324L856.857 333.109C857.974 336.216 860.131 336.907 863.521 336.907C866.91 336.907 869.067 336.255 870.184 333.109L884.09 295.324C884.591 294.058 884.783 292.984 884.783 292.14Z" fill="#41A5DD"/>
<path fill-rule="evenodd" clip-rule="evenodd" d="M905.892 291.258C904.698 287.882 902.503 287.269 899.999 287.269H897.379C894.722 287.269 892.988 288.151 892.025 290.606L877.85 327.931C877.465 329.005 876.771 330.923 876.771 332.112C876.771 335.027 878.851 336.907 881.856 336.907C884.475 336.907 885.977 336.025 886.748 333.915L889.637 325.936H907.279L910.091 333.915C910.9 336.025 912.633 336.907 915.022 336.907C917.833 336.907 920.183 334.797 920.183 332.112C920.183 330.923 919.528 329.005 919.105 327.931L905.892 291.258ZM892.064 318.34L898.535 299.122H898.651L904.852 318.34H892.064Z" fill="#41A5DD"/>
<path fill-rule="evenodd" clip-rule="evenodd" d="M959.897 287.269C956.623 287.269 954.62 288.995 954.62 292.524V320.91H954.504L935.322 290.107C934.127 288.113 932.124 287.23 929.852 287.23C925.191 287.23 922.957 289.11 922.957 293.598V331.575C922.957 335.104 924.959 336.83 928.234 336.83C931.508 336.83 933.511 335.104 933.511 331.575V303.994H933.626L952.655 333.915C954.042 336.101 955.198 336.83 958.664 336.83C963.287 336.83 965.136 334.375 965.136 330.041V292.486C965.174 288.995 963.171 287.269 959.897 287.269Z" fill="#41A5DD"/>
<path d="M695.767 333.57C698.958 333.57 701.545 330.993 701.545 327.815C701.545 324.638 698.958 322.061 695.767 322.061C692.576 322.061 689.989 324.638 689.989 327.815C689.989 330.993 692.576 333.57 695.767 333.57Z" fill="#41A5DD"/>
<path fill-rule="evenodd" clip-rule="evenodd" d="M741.066 291.258C739.872 287.882 737.676 287.269 735.173 287.269H732.553C732.322 287.269 732.091 287.269 731.86 287.307H678.24C674.851 287.307 672.077 290.069 672.077 293.445V330.769C672.077 334.145 674.851 336.907 678.24 336.907H716.991V336.869H717.107C719.726 336.869 721.229 335.986 721.999 333.876L724.888 325.897H742.53L745.342 333.876C746.151 335.986 747.884 336.869 750.272 336.869C753.084 336.869 755.396 334.759 755.396 332.074C755.396 330.884 754.741 328.966 754.317 327.892L741.066 291.258ZM695.767 334.874C691.876 334.874 688.679 331.728 688.679 327.815C688.679 323.941 691.838 320.757 695.767 320.757C699.657 320.757 702.854 323.903 702.854 327.815C702.816 331.728 699.657 334.874 695.767 334.874ZM710.751 328.353H704.241C704.241 326.972 703.663 319.299 695.574 319.299C687.485 319.299 687.138 328.429 687.138 328.429H685.405C685.405 328.429 680.359 326.396 679.319 325.859C678.279 325.284 678.163 322.445 678.163 322.445V319.952H679.049V317.42C679.473 312.049 692.685 307.216 692.685 307.216C692.685 307.216 703.779 296.322 705.512 294.787C709.249 291.527 724.387 292.255 724.387 292.255L710.751 328.353ZM727.237 318.34L733.709 299.122H733.824L740.026 318.34H727.237Z" fill="#41A5DD"/>
<path fill-rule="evenodd" clip-rule="evenodd" d="M687.986 313.699C687.523 313.584 685.829 313.584 685.097 313.545C684.866 313.545 684.635 313.622 684.48 313.776C684.134 314.044 683.594 314.581 683.094 315.233C682.516 316 682.092 316.959 681.823 317.573C681.63 318.072 682.169 318.11 682.169 318.11L683.44 318.379C683.594 318.417 683.749 318.379 683.864 318.264L688.101 314.581C688.063 314.581 688.679 313.852 687.986 313.699Z" fill="#41A5DD"/>
<path fill-rule="evenodd" clip-rule="evenodd" d="M716.606 295.478C716.028 295.478 710.674 296.053 709.634 296.245C708.594 296.437 707.053 297.626 707.053 297.626L700.466 304.876V308.75L714.41 306.065C714.41 306.065 716.221 305.72 716.49 303.418C716.76 301.117 717.338 296.206 717.338 296.206C717.338 296.206 717.184 295.478 716.606 295.478Z" fill="#41A5DD"/>
</g>
<line x1="1025" y1="287.5" x2="1039" y2="287.5" stroke="black"/>
<line x1="1025" y1="337.5" x2="1039" y2="337.5" stroke="black"/>
<line x1="1038.5" y1="338" x2="1038.5" y2="288" stroke="black"/>
<path d="M1051.17 313.33C1051.39 312.845 1051.67 312.467 1052 312.196C1052.32 311.921 1052.72 311.783 1053.19 311.783C1053.34 311.783 1053.48 311.799 1053.62 311.832C1053.76 311.865 1053.88 311.916 1053.99 311.986L1053.9 312.917C1053.87 313.034 1053.8 313.092 1053.69 313.092C1053.62 313.092 1053.53 313.078 1053.4 313.05C1053.28 313.022 1053.13 313.008 1052.98 313.008C1052.75 313.008 1052.55 313.041 1052.37 313.106C1052.2 313.171 1052.05 313.269 1051.91 313.4C1051.77 313.526 1051.65 313.685 1051.53 313.876C1051.43 314.063 1051.33 314.277 1051.24 314.52V319H1049.99V311.909H1050.7C1050.84 311.909 1050.93 311.935 1050.98 311.986C1051.03 312.037 1051.07 312.126 1051.09 312.252L1051.17 313.33Z" fill="black"/>
<line x1="612" y1="288.5" x2="598" y2="288.5" stroke="black"/>
<line x1="612" y1="238.5" x2="598" y2="238.5" stroke="black"/>
<line x1="598.5" y1="238" x2="598.5" y2="288" stroke="black"/>
<path d="M534.126 267.048V268H528.75V267.048H530.899V260.209C530.899 260.004 530.906 259.796 530.92 259.586L529.135 261.119C529.074 261.17 529.014 261.203 528.953 261.217C528.892 261.226 528.836 261.226 528.785 261.217C528.734 261.208 528.685 261.189 528.638 261.161C528.596 261.133 528.563 261.103 528.54 261.07L528.148 260.531L531.137 257.948H532.152V267.048H534.126ZM543.121 262.988C543.121 263.865 543.025 264.626 542.834 265.27C542.647 265.909 542.391 266.439 542.064 266.859C541.737 267.279 541.35 267.592 540.902 267.797C540.459 268.002 539.983 268.105 539.474 268.105C538.961 268.105 538.482 268.002 538.039 267.797C537.6 267.592 537.218 267.279 536.891 266.859C536.564 266.439 536.308 265.909 536.121 265.27C535.934 264.626 535.841 263.865 535.841 262.988C535.841 262.111 535.934 261.35 536.121 260.706C536.308 260.062 536.564 259.53 536.891 259.11C537.218 258.685 537.6 258.37 538.039 258.165C538.482 257.96 538.961 257.857 539.474 257.857C539.983 257.857 540.459 257.96 540.902 258.165C541.35 258.37 541.737 258.685 542.064 259.11C542.391 259.53 542.647 260.062 542.834 260.706C543.025 261.35 543.121 262.111 543.121 262.988ZM541.826 262.988C541.826 262.223 541.761 261.581 541.63 261.063C541.504 260.54 541.331 260.12 541.112 259.803C540.897 259.486 540.648 259.259 540.363 259.124C540.078 258.984 539.782 258.914 539.474 258.914C539.166 258.914 538.87 258.984 538.585 259.124C538.3 259.259 538.051 259.486 537.836 259.803C537.621 260.12 537.449 260.54 537.318 261.063C537.192 261.581 537.129 262.223 537.129 262.988C537.129 263.753 537.192 264.395 537.318 264.913C537.449 265.431 537.621 265.849 537.836 266.166C538.051 266.483 538.3 266.712 538.585 266.852C538.87 266.987 539.166 267.055 539.474 267.055C539.782 267.055 540.078 266.987 540.363 266.852C540.648 266.712 540.897 266.483 541.112 266.166C541.331 265.849 541.504 265.431 541.63 264.913C541.761 264.395 541.826 263.753 541.826 262.988ZM551.542 262.988C551.542 263.865 551.447 264.626 551.255 265.27C551.069 265.909 550.812 266.439 550.485 266.859C550.159 267.279 549.771 267.592 549.323 267.797C548.88 268.002 548.404 268.105 547.895 268.105C547.382 268.105 546.904 268.002 546.46 267.797C546.022 267.592 545.639 267.279 545.312 266.859C544.986 266.439 544.729 265.909 544.542 265.27C544.356 264.626 544.262 263.865 544.262 262.988C544.262 262.111 544.356 261.35 544.542 260.706C544.729 260.062 544.986 259.53 545.312 259.11C545.639 258.685 546.022 258.37 546.46 258.165C546.904 257.96 547.382 257.857 547.895 257.857C548.404 257.857 548.88 257.96 549.323 258.165C549.771 258.37 550.159 258.685 550.485 259.11C550.812 259.53 551.069 260.062 551.255 260.706C551.447 261.35 551.542 262.111 551.542 262.988ZM550.247 262.988C550.247 262.223 550.182 261.581 550.051 261.063C549.925 260.54 549.753 260.12 549.533 259.803C549.319 259.486 549.069 259.259 548.784 259.124C548.5 258.984 548.203 258.914 547.895 258.914C547.587 258.914 547.291 258.984 547.006 259.124C546.722 259.259 546.472 259.486 546.257 259.803C546.043 260.12 545.87 260.54 545.739 261.063C545.613 261.581 545.55 262.223 545.55 262.988C545.55 263.753 545.613 264.395 545.739 264.913C545.87 265.431 546.043 265.849 546.257 266.166C546.472 266.483 546.722 266.712 547.006 266.852C547.291 266.987 547.587 267.055 547.895 267.055C548.203 267.055 548.5 266.987 548.784 266.852C549.069 266.712 549.319 266.483 549.533 266.166C549.753 265.849 549.925 265.431 550.051 264.913C550.182 264.395 550.247 263.753 550.247 262.988ZM557.317 260.391C557.317 260.783 557.257 261.135 557.135 261.448C557.014 261.756 556.851 262.017 556.645 262.232C556.445 262.442 556.209 262.603 555.938 262.715C555.672 262.827 555.39 262.883 555.091 262.883C554.779 262.883 554.487 262.827 554.216 262.715C553.946 262.603 553.71 262.442 553.509 262.232C553.313 262.017 553.159 261.756 553.047 261.448C552.935 261.135 552.879 260.783 552.879 260.391C552.879 259.99 552.935 259.633 553.047 259.32C553.159 259.007 553.313 258.744 553.509 258.529C553.71 258.314 553.946 258.151 554.216 258.039C554.487 257.927 554.779 257.871 555.091 257.871C555.409 257.871 555.703 257.927 555.973 258.039C556.244 258.151 556.48 258.314 556.68 258.529C556.881 258.744 557.037 259.007 557.149 259.32C557.261 259.633 557.317 259.99 557.317 260.391ZM556.351 260.391C556.351 260.083 556.319 259.822 556.253 259.607C556.188 259.392 556.097 259.217 555.98 259.082C555.868 258.942 555.735 258.842 555.581 258.781C555.427 258.72 555.264 258.69 555.091 258.69C554.919 258.69 554.758 258.72 554.608 258.781C554.459 258.842 554.328 258.942 554.216 259.082C554.104 259.217 554.016 259.392 553.95 259.607C553.885 259.822 553.852 260.083 553.852 260.391C553.852 260.694 553.885 260.953 553.95 261.168C554.016 261.378 554.104 261.551 554.216 261.686C554.328 261.817 554.459 261.912 554.608 261.973C554.758 262.029 554.919 262.057 555.091 262.057C555.264 262.057 555.427 262.029 555.581 261.973C555.735 261.912 555.868 261.817 555.98 261.686C556.097 261.551 556.188 261.378 556.253 261.168C556.319 260.953 556.351 260.694 556.351 260.391ZM560.866 258.179C560.913 258.123 560.967 258.074 561.027 258.032C561.093 257.99 561.179 257.969 561.286 257.969H562.189L554.853 267.797C554.811 267.858 554.758 267.907 554.692 267.944C554.627 267.981 554.548 268 554.454 268H553.537L560.866 258.179ZM562.868 265.634C562.868 266.026 562.808 266.376 562.686 266.684C562.565 266.992 562.402 267.253 562.196 267.468C561.996 267.678 561.76 267.839 561.489 267.951C561.223 268.063 560.941 268.119 560.642 268.119C560.325 268.119 560.031 268.063 559.76 267.951C559.494 267.839 559.261 267.678 559.06 267.468C558.864 267.253 558.71 266.992 558.598 266.684C558.486 266.376 558.43 266.026 558.43 265.634C558.43 265.233 558.486 264.876 558.598 264.563C558.71 264.246 558.864 263.98 559.06 263.765C559.261 263.55 559.494 263.387 559.76 263.275C560.031 263.163 560.325 263.107 560.642 263.107C560.955 263.107 561.247 263.163 561.517 263.275C561.793 263.387 562.028 263.55 562.224 263.765C562.425 263.98 562.581 264.246 562.693 264.563C562.81 264.876 562.868 265.233 562.868 265.634ZM561.902 265.634C561.902 265.326 561.87 265.065 561.804 264.85C561.739 264.631 561.648 264.453 561.531 264.318C561.419 264.183 561.286 264.085 561.132 264.024C560.978 263.963 560.815 263.933 560.642 263.933C560.47 263.933 560.306 263.963 560.152 264.024C560.003 264.085 559.872 264.183 559.76 264.318C559.648 264.453 559.56 264.631 559.494 264.85C559.434 265.065 559.403 265.326 559.403 265.634C559.403 265.937 559.434 266.194 559.494 266.404C559.56 266.614 559.648 266.787 559.76 266.922C559.872 267.053 560.003 267.148 560.152 267.209C560.306 267.265 560.47 267.293 560.642 267.293C560.815 267.293 560.978 267.265 561.132 267.209C561.286 267.148 561.419 267.053 561.531 266.922C561.648 266.787 561.739 266.614 561.804 266.404C561.87 266.194 561.902 265.937 561.902 265.634ZM571.646 260.797C572.164 260.797 572.631 260.883 573.046 261.056C573.461 261.229 573.816 261.474 574.11 261.791C574.404 262.108 574.628 262.493 574.782 262.946C574.941 263.394 575.02 263.896 575.02 264.451C575.02 265.011 574.941 265.515 574.782 265.963C574.628 266.411 574.404 266.794 574.11 267.111C573.816 267.428 573.461 267.673 573.046 267.846C572.631 268.014 572.164 268.098 571.646 268.098C571.123 268.098 570.652 268.014 570.232 267.846C569.817 267.673 569.462 267.428 569.168 267.111C568.874 266.794 568.648 266.411 568.489 265.963C568.335 265.515 568.258 265.011 568.258 264.451C568.258 263.896 568.335 263.394 568.489 262.946C568.648 262.493 568.874 262.108 569.168 261.791C569.462 261.474 569.817 261.229 570.232 261.056C570.652 260.883 571.123 260.797 571.646 260.797ZM571.646 267.125C572.346 267.125 572.869 266.892 573.214 266.425C573.559 265.954 573.732 265.298 573.732 264.458C573.732 263.613 573.559 262.955 573.214 262.484C572.869 262.013 572.346 261.777 571.646 261.777C571.291 261.777 570.981 261.838 570.715 261.959C570.454 262.08 570.234 262.255 570.057 262.484C569.884 262.713 569.754 262.995 569.665 263.331C569.581 263.662 569.539 264.038 569.539 264.458C569.539 265.298 569.712 265.954 570.057 266.425C570.407 266.892 570.937 267.125 571.646 267.125ZM577.212 268V261.973L576.428 261.882C576.33 261.859 576.248 261.824 576.183 261.777C576.122 261.726 576.092 261.653 576.092 261.56V261.049H577.212V260.363C577.212 259.957 577.268 259.598 577.38 259.285C577.497 258.968 577.66 258.702 577.87 258.487C578.085 258.268 578.341 258.102 578.64 257.99C578.939 257.878 579.275 257.822 579.648 257.822C579.965 257.822 580.257 257.869 580.523 257.962L580.495 258.585C580.486 258.697 580.423 258.758 580.306 258.767C580.194 258.776 580.042 258.781 579.851 258.781C579.636 258.781 579.44 258.809 579.263 258.865C579.09 258.921 578.941 259.012 578.815 259.138C578.689 259.264 578.591 259.43 578.521 259.635C578.456 259.84 578.423 260.095 578.423 260.398V261.049H580.467V261.952H578.465V268H577.212ZM586.763 262.33C586.987 261.845 587.263 261.467 587.589 261.196C587.916 260.921 588.315 260.783 588.786 260.783C588.936 260.783 589.078 260.799 589.213 260.832C589.353 260.865 589.477 260.916 589.584 260.986L589.493 261.917C589.465 262.034 589.395 262.092 589.283 262.092C589.218 262.092 589.122 262.078 588.996 262.05C588.87 262.022 588.728 262.008 588.569 262.008C588.345 262.008 588.145 262.041 587.967 262.106C587.795 262.171 587.638 262.269 587.498 262.4C587.363 262.526 587.239 262.685 587.127 262.876C587.02 263.063 586.922 263.277 586.833 263.52V268H585.58V260.909H586.294C586.43 260.909 586.523 260.935 586.574 260.986C586.626 261.037 586.661 261.126 586.679 261.252L586.763 262.33Z" fill="black"/>
<line x1="672.5" y1="398" x2="672.5" y2="412" stroke="black"/>
<line x1="622.5" y1="398" x2="622.5" y2="412" stroke="black"/>
<line x1="622" y1="411.5" x2="672" y2="411.5" stroke="black"/>
<path d="M622.126 435.048V436H616.75V435.048H618.899V428.209C618.899 428.004 618.906 427.796 618.92 427.586L617.135 429.119C617.074 429.17 617.014 429.203 616.953 429.217C616.892 429.226 616.836 429.226 616.785 429.217C616.734 429.208 616.685 429.189 616.638 429.161C616.596 429.133 616.563 429.103 616.54 429.07L616.148 428.531L619.137 425.948H620.152V435.048H622.126ZM631.121 430.988C631.121 431.865 631.025 432.626 630.834 433.27C630.647 433.909 630.391 434.439 630.064 434.859C629.737 435.279 629.35 435.592 628.902 435.797C628.459 436.002 627.983 436.105 627.474 436.105C626.961 436.105 626.482 436.002 626.039 435.797C625.6 435.592 625.218 435.279 624.891 434.859C624.564 434.439 624.308 433.909 624.121 433.27C623.934 432.626 623.841 431.865 623.841 430.988C623.841 430.111 623.934 429.35 624.121 428.706C624.308 428.062 624.564 427.53 624.891 427.11C625.218 426.685 625.6 426.37 626.039 426.165C626.482 425.96 626.961 425.857 627.474 425.857C627.983 425.857 628.459 425.96 628.902 426.165C629.35 426.37 629.737 426.685 630.064 427.11C630.391 427.53 630.647 428.062 630.834 428.706C631.025 429.35 631.121 430.111 631.121 430.988ZM629.826 430.988C629.826 430.223 629.761 429.581 629.63 429.063C629.504 428.54 629.331 428.12 629.112 427.803C628.897 427.486 628.648 427.259 628.363 427.124C628.078 426.984 627.782 426.914 627.474 426.914C627.166 426.914 626.87 426.984 626.585 427.124C626.3 427.259 626.051 427.486 625.836 427.803C625.621 428.12 625.449 428.54 625.318 429.063C625.192 429.581 625.129 430.223 625.129 430.988C625.129 431.753 625.192 432.395 625.318 432.913C625.449 433.431 625.621 433.849 625.836 434.166C626.051 434.483 626.3 434.712 626.585 434.852C626.87 434.987 627.166 435.055 627.474 435.055C627.782 435.055 628.078 434.987 628.363 434.852C628.648 434.712 628.897 434.483 629.112 434.166C629.331 433.849 629.504 433.431 629.63 432.913C629.761 432.395 629.826 431.753 629.826 430.988ZM639.542 430.988C639.542 431.865 639.447 432.626 639.255 433.27C639.069 433.909 638.812 434.439 638.485 434.859C638.159 435.279 637.771 435.592 637.323 435.797C636.88 436.002 636.404 436.105 635.895 436.105C635.382 436.105 634.904 436.002 634.46 435.797C634.022 435.592 633.639 435.279 633.312 434.859C632.986 434.439 632.729 433.909 632.542 433.27C632.356 432.626 632.262 431.865 632.262 430.988C632.262 430.111 632.356 429.35 632.542 428.706C632.729 428.062 632.986 427.53 633.312 427.11C633.639 426.685 634.022 426.37 634.46 426.165C634.904 425.96 635.382 425.857 635.895 425.857C636.404 425.857 636.88 425.96 637.323 426.165C637.771 426.37 638.159 426.685 638.485 427.11C638.812 427.53 639.069 428.062 639.255 428.706C639.447 429.35 639.542 430.111 639.542 430.988ZM638.247 430.988C638.247 430.223 638.182 429.581 638.051 429.063C637.925 428.54 637.753 428.12 637.533 427.803C637.319 427.486 637.069 427.259 636.784 427.124C636.5 426.984 636.203 426.914 635.895 426.914C635.587 426.914 635.291 426.984 635.006 427.124C634.722 427.259 634.472 427.486 634.257 427.803C634.043 428.12 633.87 428.54 633.739 429.063C633.613 429.581 633.55 430.223 633.55 430.988C633.55 431.753 633.613 432.395 633.739 432.913C633.87 433.431 634.043 433.849 634.257 434.166C634.472 434.483 634.722 434.712 635.006 434.852C635.291 434.987 635.587 435.055 635.895 435.055C636.203 435.055 636.5 434.987 636.784 434.852C637.069 434.712 637.319 434.483 637.533 434.166C637.753 433.849 637.925 433.431 638.051 432.913C638.182 432.395 638.247 431.753 638.247 430.988ZM645.317 428.391C645.317 428.783 645.257 429.135 645.135 429.448C645.014 429.756 644.851 430.017 644.645 430.232C644.445 430.442 644.209 430.603 643.938 430.715C643.672 430.827 643.39 430.883 643.091 430.883C642.779 430.883 642.487 430.827 642.216 430.715C641.946 430.603 641.71 430.442 641.509 430.232C641.313 430.017 641.159 429.756 641.047 429.448C640.935 429.135 640.879 428.783 640.879 428.391C640.879 427.99 640.935 427.633 641.047 427.32C641.159 427.007 641.313 426.744 641.509 426.529C641.71 426.314 641.946 426.151 642.216 426.039C642.487 425.927 642.779 425.871 643.091 425.871C643.409 425.871 643.703 425.927 643.973 426.039C644.244 426.151 644.48 426.314 644.68 426.529C644.881 426.744 645.037 427.007 645.149 427.32C645.261 427.633 645.317 427.99 645.317 428.391ZM644.351 428.391C644.351 428.083 644.319 427.822 644.253 427.607C644.188 427.392 644.097 427.217 643.98 427.082C643.868 426.942 643.735 426.842 643.581 426.781C643.427 426.72 643.264 426.69 643.091 426.69C642.919 426.69 642.758 426.72 642.608 426.781C642.459 426.842 642.328 426.942 642.216 427.082C642.104 427.217 642.016 427.392 641.95 427.607C641.885 427.822 641.852 428.083 641.852 428.391C641.852 428.694 641.885 428.953 641.95 429.168C642.016 429.378 642.104 429.551 642.216 429.686C642.328 429.817 642.459 429.912 642.608 429.973C642.758 430.029 642.919 430.057 643.091 430.057C643.264 430.057 643.427 430.029 643.581 429.973C643.735 429.912 643.868 429.817 643.98 429.686C644.097 429.551 644.188 429.378 644.253 429.168C644.319 428.953 644.351 428.694 644.351 428.391ZM648.866 426.179C648.913 426.123 648.967 426.074 649.027 426.032C649.093 425.99 649.179 425.969 649.286 425.969H650.189L642.853 435.797C642.811 435.858 642.758 435.907 642.692 435.944C642.627 435.981 642.548 436 642.454 436H641.537L648.866 426.179ZM650.868 433.634C650.868 434.026 650.808 434.376 650.686 434.684C650.565 434.992 650.402 435.253 650.196 435.468C649.996 435.678 649.76 435.839 649.489 435.951C649.223 436.063 648.941 436.119 648.642 436.119C648.325 436.119 648.031 436.063 647.76 435.951C647.494 435.839 647.261 435.678 647.06 435.468C646.864 435.253 646.71 434.992 646.598 434.684C646.486 434.376 646.43 434.026 646.43 433.634C646.43 433.233 646.486 432.876 646.598 432.563C646.71 432.246 646.864 431.98 647.06 431.765C647.261 431.55 647.494 431.387 647.76 431.275C648.031 431.163 648.325 431.107 648.642 431.107C648.955 431.107 649.247 431.163 649.517 431.275C649.793 431.387 650.028 431.55 650.224 431.765C650.425 431.98 650.581 432.246 650.693 432.563C650.81 432.876 650.868 433.233 650.868 433.634ZM649.902 433.634C649.902 433.326 649.87 433.065 649.804 432.85C649.739 432.631 649.648 432.453 649.531 432.318C649.419 432.183 649.286 432.085 649.132 432.024C648.978 431.963 648.815 431.933 648.642 431.933C648.47 431.933 648.306 431.963 648.152 432.024C648.003 432.085 647.872 432.183 647.76 432.318C647.648 432.453 647.56 432.631 647.494 432.85C647.434 433.065 647.403 433.326 647.403 433.634C647.403 433.937 647.434 434.194 647.494 434.404C647.56 434.614 647.648 434.787 647.76 434.922C647.872 435.053 648.003 435.148 648.152 435.209C648.306 435.265 648.47 435.293 648.642 435.293C648.815 435.293 648.978 435.265 649.132 435.209C649.286 435.148 649.419 435.053 649.531 434.922C649.648 434.787 649.739 434.614 649.804 434.404C649.87 434.194 649.902 433.937 649.902 433.634ZM659.646 428.797C660.164 428.797 660.631 428.883 661.046 429.056C661.461 429.229 661.816 429.474 662.11 429.791C662.404 430.108 662.628 430.493 662.782 430.946C662.941 431.394 663.02 431.896 663.02 432.451C663.02 433.011 662.941 433.515 662.782 433.963C662.628 434.411 662.404 434.794 662.11 435.111C661.816 435.428 661.461 435.673 661.046 435.846C660.631 436.014 660.164 436.098 659.646 436.098C659.123 436.098 658.652 436.014 658.232 435.846C657.817 435.673 657.462 435.428 657.168 435.111C656.874 434.794 656.648 434.411 656.489 433.963C656.335 433.515 656.258 433.011 656.258 432.451C656.258 431.896 656.335 431.394 656.489 430.946C656.648 430.493 656.874 430.108 657.168 429.791C657.462 429.474 657.817 429.229 658.232 429.056C658.652 428.883 659.123 428.797 659.646 428.797ZM659.646 435.125C660.346 435.125 660.869 434.892 661.214 434.425C661.559 433.954 661.732 433.298 661.732 432.458C661.732 431.613 661.559 430.955 661.214 430.484C660.869 430.013 660.346 429.777 659.646 429.777C659.291 429.777 658.981 429.838 658.715 429.959C658.454 430.08 658.234 430.255 658.057 430.484C657.884 430.713 657.754 430.995 657.665 431.331C657.581 431.662 657.539 432.038 657.539 432.458C657.539 433.298 657.712 433.954 658.057 434.425C658.407 434.892 658.937 435.125 659.646 435.125ZM665.212 436V429.973L664.428 429.882C664.33 429.859 664.248 429.824 664.183 429.777C664.122 429.726 664.092 429.653 664.092 429.56V429.049H665.212V428.363C665.212 427.957 665.268 427.598 665.38 427.285C665.497 426.968 665.66 426.702 665.87 426.487C666.085 426.268 666.341 426.102 666.64 425.99C666.939 425.878 667.275 425.822 667.648 425.822C667.965 425.822 668.257 425.869 668.523 425.962L668.495 426.585C668.486 426.697 668.423 426.758 668.306 426.767C668.194 426.776 668.042 426.781 667.851 426.781C667.636 426.781 667.44 426.809 667.263 426.865C667.09 426.921 666.941 427.012 666.815 427.138C666.689 427.264 666.591 427.43 666.521 427.635C666.456 427.84 666.423 428.095 666.423 428.398V429.049H668.467V429.952H666.465V436H665.212ZM674.763 430.33C674.987 429.845 675.263 429.467 675.589 429.196C675.916 428.921 676.315 428.783 676.786 428.783C676.936 428.783 677.078 428.799 677.213 428.832C677.353 428.865 677.477 428.916 677.584 428.986L677.493 429.917C677.465 430.034 677.395 430.092 677.283 430.092C677.218 430.092 677.122 430.078 676.996 430.05C676.87 430.022 676.728 430.008 676.569 430.008C676.345 430.008 676.145 430.041 675.967 430.106C675.795 430.171 675.638 430.269 675.498 430.4C675.363 430.526 675.239 430.685 675.127 430.876C675.02 431.063 674.922 431.277 674.833 431.52V436H673.58V428.909H674.294C674.43 428.909 674.523 428.935 674.574 428.986C674.626 429.037 674.661 429.126 674.679 429.252L674.763 430.33Z" fill="black"/>
<defs>
<clipPath id="clip0">
<rect width="293.137" height="50" fill="white" transform="translate(672 287)"/>
</clipPath>
</defs>
</svg>
