<svg width="1204" height="678" viewBox="0 0 1204 678" fill="none" xmlns="http://www.w3.org/2000/svg">
<rect width="1204" height="677.25" fill="white"/>
<rect x="30" y="635" width="1144" height="5" fill="#F74F64"/>
<path d="M43.005 614.493C43.005 615.447 42.846 616.323 42.528 617.121C42.21 617.919 41.763 618.606 41.187 619.182C40.611 619.758 39.918 620.205 39.108 620.523C38.298 620.841 37.398 621 36.408 621H31.449V607.986H36.408C37.398 607.986 38.298 608.148 39.108 608.472C39.918 608.79 40.611 609.237 41.187 609.813C41.763 610.383 42.21 611.067 42.528 611.865C42.846 612.663 43.005 613.539 43.005 614.493ZM40.521 614.493C40.521 613.779 40.425 613.14 40.233 612.576C40.047 612.006 39.774 611.526 39.414 611.136C39.06 610.74 38.628 610.437 38.118 610.227C37.614 610.017 37.044 609.912 36.408 609.912H33.879V619.074H36.408C37.044 619.074 37.614 618.969 38.118 618.759C38.628 618.549 39.06 618.249 39.414 617.859C39.774 617.463 40.047 616.983 40.233 616.419C40.425 615.849 40.521 615.207 40.521 614.493ZM49.0543 611.622C49.7383 611.622 50.3593 611.733 50.9173 611.955C51.4813 612.177 51.9613 612.492 52.3573 612.9C52.7593 613.308 53.0683 613.806 53.2843 614.394C53.5003 614.982 53.6083 615.639 53.6083 616.365C53.6083 617.097 53.5003 617.757 53.2843 618.345C53.0683 618.933 52.7593 619.434 52.3573 619.848C51.9613 620.262 51.4813 620.58 50.9173 620.802C50.3593 621.024 49.7383 621.135 49.0543 621.135C48.3643 621.135 47.7373 621.024 47.1733 620.802C46.6093 620.58 46.1263 620.262 45.7243 619.848C45.3283 619.434 45.0193 618.933 44.7973 618.345C44.5813 617.757 44.4733 617.097 44.4733 616.365C44.4733 615.639 44.5813 614.982 44.7973 614.394C45.0193 613.806 45.3283 613.308 45.7243 612.9C46.1263 612.492 46.6093 612.177 47.1733 611.955C47.7373 611.733 48.3643 611.622 49.0543 611.622ZM49.0543 619.425C49.8223 619.425 50.3893 619.167 50.7553 618.651C51.1273 618.135 51.3133 617.379 51.3133 616.383C51.3133 615.387 51.1273 614.628 50.7553 614.106C50.3893 613.584 49.8223 613.323 49.0543 613.323C48.2743 613.323 47.6953 613.587 47.3173 614.115C46.9453 614.637 46.7593 615.393 46.7593 616.383C46.7593 617.373 46.9453 618.129 47.3173 618.651C47.6953 619.167 48.2743 619.425 49.0543 619.425ZM57.6833 612.9C57.8693 612.714 58.0643 612.543 58.2683 612.387C58.4783 612.225 58.6973 612.09 58.9253 611.982C59.1593 611.868 59.4083 611.781 59.6723 611.721C59.9363 611.655 60.2243 611.622 60.5363 611.622C61.0403 611.622 61.4873 611.709 61.8773 611.883C62.2673 612.051 62.5913 612.291 62.8493 612.603C63.1133 612.909 63.3113 613.278 63.4433 613.71C63.5813 614.136 63.6503 614.607 63.6503 615.123V621H61.4273V615.123C61.4273 614.559 61.2983 614.124 61.0403 613.818C60.7823 613.506 60.3893 613.35 59.8613 613.35C59.4773 613.35 59.1173 613.437 58.7813 613.611C58.4453 613.785 58.1273 614.022 57.8273 614.322V621H55.6043V611.766H56.9633C57.2513 611.766 57.4403 611.901 57.5303 612.171L57.6833 612.9ZM67.3127 607.113C67.6007 607.587 67.7957 608.082 67.8977 608.598C67.9997 609.108 68.0087 609.615 67.9247 610.119C67.8407 610.617 67.6637 611.097 67.3937 611.559C67.1297 612.015 66.7727 612.426 66.3227 612.792L65.6207 612.369C65.5607 612.333 65.5187 612.291 65.4947 612.243C65.4707 612.189 65.4587 612.138 65.4587 612.09C65.4647 612.036 65.4767 611.985 65.4947 611.937C65.5187 611.889 65.5487 611.847 65.5847 611.811C65.7107 611.661 65.8307 611.463 65.9447 611.217C66.0587 610.971 66.1367 610.695 66.1787 610.389C66.2267 610.083 66.2207 609.756 66.1607 609.408C66.1067 609.06 65.9717 608.712 65.7557 608.364C65.6537 608.19 65.6237 608.04 65.6657 607.914C65.7137 607.782 65.8127 607.689 65.9627 607.635L67.3127 607.113ZM73.1514 621.144C72.3474 621.144 71.7294 620.919 71.2974 620.469C70.8714 620.013 70.6584 619.386 70.6584 618.588V613.431H69.7134C69.5934 613.431 69.4914 613.392 69.4074 613.314C69.3234 613.236 69.2814 613.119 69.2814 612.963V612.081L70.7664 611.838L71.2344 609.318C71.2644 609.198 71.3214 609.105 71.4054 609.039C71.4894 608.973 71.5974 608.94 71.7294 608.94H72.8814V611.847H75.3474V613.431H72.8814V618.435C72.8814 618.723 72.9504 618.948 73.0884 619.11C73.2324 619.272 73.4274 619.353 73.6734 619.353C73.8114 619.353 73.9254 619.338 74.0154 619.308C74.1114 619.272 74.1924 619.236 74.2584 619.2C74.3304 619.164 74.3934 619.131 74.4474 619.101C74.5014 619.065 74.5554 619.047 74.6094 619.047C74.6754 619.047 74.7294 619.065 74.7714 619.101C74.8134 619.131 74.8584 619.179 74.9064 619.245L75.5724 620.325C75.2484 620.595 74.8764 620.799 74.4564 620.937C74.0364 621.075 73.6014 621.144 73.1514 621.144Z" fill="#F74F64"/>
<path d="M557.731 366.596C565.476 366.596 571.754 360.331 571.754 352.604C571.754 344.876 565.476 338.611 557.731 338.611C549.987 338.611 543.709 344.876 543.709 352.604C543.709 360.331 549.987 366.596 557.731 366.596Z" fill="#41A5DD"/>
<path fill-rule="evenodd" clip-rule="evenodd" d="M667.734 263.696C664.84 255.492 659.499 254 653.413 254H647.058C646.491 254 645.924 254 645.387 254.09H515.157C506.922 254.09 500.179 260.802 500.179 269.007V359.796C500.179 368 506.922 374.713 515.157 374.713H609.257V374.624H609.525C615.88 374.624 619.55 372.475 621.4 367.344L628.411 347.951H671.254L678.116 367.374C680.085 372.505 684.292 374.653 690.08 374.653C696.912 374.653 702.521 369.522 702.521 362.988C702.521 360.094 700.94 355.44 699.896 352.814L667.734 263.696ZM557.731 369.79C548.274 369.79 540.516 362.152 540.516 352.635C540.516 343.207 548.184 335.45 557.731 335.45C567.189 335.45 574.946 343.088 574.946 352.605C574.827 362.123 567.159 369.79 557.731 369.79ZM594.1 353.918H578.288C578.288 350.547 576.886 331.9 557.254 331.9C537.622 331.9 536.757 354.097 536.757 354.097H532.55C532.55 354.097 520.288 349.144 517.782 347.832C515.246 346.429 514.978 339.537 514.978 339.537V333.481H517.126V327.335C518.14 314.267 550.243 302.512 550.243 302.512C550.243 302.512 577.184 276.018 581.391 272.289C590.461 264.353 627.217 266.143 627.217 266.143L594.1 353.918ZM634.139 329.572L649.862 282.821H650.131L665.198 329.572H634.139V329.572Z" fill="#41A5DD"/>
<path fill-rule="evenodd" clip-rule="evenodd" d="M538.816 318.295C537.682 318.027 533.565 318.027 531.805 317.907C531.238 317.907 530.671 318.086 530.313 318.474C529.477 319.13 528.165 320.443 526.941 322.024C525.539 323.904 524.495 326.231 523.868 327.723C523.391 328.946 524.704 329.036 524.704 329.036L527.777 329.692C528.165 329.782 528.523 329.692 528.791 329.424L539.084 320.473C539.025 320.443 540.516 318.653 538.816 318.295Z" fill="#41A5DD"/>
<path fill-rule="evenodd" clip-rule="evenodd" d="M608.331 273.962C606.929 273.962 593.921 275.364 591.385 275.842C588.849 276.319 585.12 279.213 585.12 279.213L569.128 296.845V306.273L602.991 299.74C602.991 299.74 607.377 298.904 608.033 293.295C608.689 287.686 610.092 275.752 610.092 275.752C610.092 275.752 609.734 273.962 608.331 273.962Z" fill="#41A5DD"/>
<path fill-rule="evenodd" clip-rule="evenodd" d="M500.806 417.287C500.507 418.093 500 419.525 500 420.42C500 422.598 501.522 424 503.759 424C505.699 424 506.832 423.344 507.369 421.762L509.488 415.825H522.555L524.644 421.762C525.241 423.344 526.523 424 528.314 424C530.402 424 532.132 422.419 532.132 420.42C532.132 419.525 531.625 418.093 531.327 417.287L521.511 389.988C520.616 387.452 518.975 387.004 517.155 387.004H515.216C513.247 387.004 511.934 387.661 511.248 389.481L500.806 417.287ZM520.795 410.156H511.308L516.111 395.836H516.2L520.795 410.156ZM536.906 420.062C536.906 422.687 538.398 423.97 540.815 423.97C543.231 423.97 544.723 422.687 544.723 420.062V399.505H544.812L558.924 421.792C559.969 423.433 560.804 423.97 563.37 423.97C566.801 423.97 568.173 422.15 568.173 418.928V390.943C568.173 388.317 566.682 387.034 564.265 387.034C561.848 387.034 560.357 388.317 560.357 390.943V412.096H560.267L546.066 389.153C545.17 387.661 543.679 387.034 542.008 387.034C538.547 387.034 536.906 388.407 536.906 391.778V420.062V420.062ZM583.628 419.913C583.628 422.329 585.209 423.97 587.686 423.97C590.162 423.97 591.743 422.329 591.743 419.913V409.411L601.708 392.852C602.096 392.196 602.394 391.48 602.394 390.734C602.394 387.959 599.858 387.004 598.367 387.004C596.696 387.004 595.801 387.601 594.846 389.391L587.805 402.429L580.734 389.391C579.899 387.81 579.004 387.004 577.064 387.004C575.483 387.004 572.947 387.959 572.947 390.734C572.947 391.48 573.245 392.226 573.633 392.852L583.598 409.411V419.913H583.628ZM634.676 393.001C635.034 392.047 635.183 391.271 635.183 390.614C635.183 387.899 633.095 387.004 631.066 387.004C629.186 387.004 627.993 388.138 627.247 390.585L619.639 414.841H619.55L612.18 390.585C611.434 388.168 610.241 387.004 608.063 387.004C606.034 387.004 603.946 387.899 603.946 390.614C603.946 391.271 604.095 392.047 604.453 393.001L614.448 421.136C615.283 423.463 616.864 423.97 619.4 423.97C621.936 423.97 623.518 423.463 624.353 421.136L634.676 393.001ZM635.72 417.287C635.422 418.093 634.915 419.525 634.915 420.42C634.915 422.598 636.436 424 638.674 424C640.613 424 641.747 423.344 642.284 421.762L644.402 415.825H657.53L659.618 421.762C660.215 423.344 661.498 424 663.288 424C665.376 424 667.107 422.419 667.107 420.42C667.107 419.525 666.6 418.093 666.301 417.287L656.485 389.988C655.59 387.452 653.949 387.004 652.13 387.004H650.19C648.221 387.004 646.908 387.661 646.222 389.481L635.72 417.287ZM655.74 410.156H646.222L651.026 395.836H651.115L655.74 410.156ZM671.821 420.062C671.821 422.687 673.313 423.97 675.729 423.97C678.146 423.97 679.638 422.687 679.638 420.062V399.505H679.727L693.839 421.792C694.883 423.433 695.719 423.97 698.285 423.97C701.716 423.97 703.088 422.15 703.088 418.928V390.943C703.088 388.317 701.596 387.034 699.18 387.034C696.763 387.034 695.271 388.317 695.271 390.943V412.096H695.182L681.01 389.153C680.115 387.661 678.623 387.034 676.952 387.034C673.492 387.034 671.851 388.407 671.851 391.778V420.062H671.821Z" fill="#41A5DD"/>
</svg>
