<svg width="1204" height="678" viewBox="0 0 1204 678" fill="none" xmlns="http://www.w3.org/2000/svg">
<rect width="1204" height="677.25" fill="white"/>
<rect x="247.5" y="238.5" width="764" height="49" stroke="#D8D8D8"/>
<rect x="247.5" y="338.5" width="764" height="49" stroke="#D8D8D8"/>
<rect x="247.5" y="387.5" width="149" height="49" transform="rotate(-90 247.5 387.5)" stroke="#D8D8D8"/>
<rect x="962.5" y="387.5" width="149" height="49" transform="rotate(-90 962.5 387.5)" stroke="#D8D8D8"/>
<rect x="590.5" y="387.5" width="149" height="99" transform="rotate(-90 590.5 387.5)" stroke="#D8D8D8"/>
<g clip-path="url(#clip0)">
<path fill-rule="evenodd" clip-rule="evenodd" d="M418.761 288.269C415.487 288.269 413.484 289.995 413.484 293.524V321.91H413.33L394.147 291.107C392.953 289.113 390.95 288.23 388.677 288.23C384.017 288.23 381.782 290.11 381.782 294.598V332.575C381.782 336.104 383.785 337.83 387.059 337.83C390.334 337.83 392.337 336.104 392.337 332.575V304.994H392.452L411.481 334.915C412.868 337.101 414.023 337.83 417.49 337.83C422.113 337.83 423.962 335.375 423.962 331.041V293.486C424.038 289.995 422.035 288.269 418.761 288.269Z" fill="#41A5DD"/>
<path fill-rule="evenodd" clip-rule="evenodd" d="M461.095 288.269C458.822 288.269 457.628 289.074 456.357 291.452L446.881 308.945L437.328 291.452C436.211 289.343 434.978 288.269 432.397 288.269C430.279 288.269 426.851 289.534 426.851 293.255C426.851 294.253 427.236 295.25 427.775 296.132L441.18 318.343V332.46C441.18 335.72 443.299 337.907 446.65 337.907C450.001 337.907 452.12 335.72 452.12 332.46V318.343L465.524 296.132C466.064 295.25 466.449 294.253 466.449 293.255C466.488 289.534 463.098 288.269 461.095 288.269Z" fill="#41A5DD"/>
<path fill-rule="evenodd" clip-rule="evenodd" d="M509.783 293.14C509.783 289.496 506.971 288.269 504.236 288.269C501.694 288.269 500.115 289.803 499.113 293.064L488.829 325.632H488.713L478.813 293.064C477.812 289.803 476.194 288.269 473.266 288.269C470.531 288.269 467.72 289.458 467.72 293.14C467.72 294.023 467.912 295.058 468.374 296.324L481.856 334.109C482.973 337.216 485.13 337.907 488.52 337.907C491.91 337.907 494.067 337.255 495.184 334.109L509.09 296.324C509.591 295.058 509.783 293.984 509.783 293.14Z" fill="#41A5DD"/>
<path fill-rule="evenodd" clip-rule="evenodd" d="M530.892 292.258C529.698 288.882 527.503 288.269 524.999 288.269H522.38C519.722 288.269 517.988 289.151 517.025 291.606L502.85 328.931C502.465 330.005 501.771 331.923 501.771 333.112C501.771 336.027 503.852 337.907 506.856 337.907C509.475 337.907 510.978 337.025 511.748 334.915L514.637 326.936H532.279L535.091 334.915C535.9 337.025 537.634 337.907 540.022 337.907C542.834 337.907 545.183 335.797 545.183 333.112C545.183 331.923 544.529 330.005 544.105 328.931L530.892 292.258ZM517.064 319.34L523.535 300.122H523.651L529.853 319.34H517.064Z" fill="#41A5DD"/>
<path fill-rule="evenodd" clip-rule="evenodd" d="M584.898 288.269C581.623 288.269 579.62 289.995 579.62 293.524V321.91H579.505L560.322 291.107C559.128 289.113 557.125 288.23 554.852 288.23C550.191 288.23 547.957 290.11 547.957 294.598V332.575C547.957 336.104 549.96 337.83 553.234 337.83C556.508 337.83 558.512 336.104 558.512 332.575V304.994H558.627L577.656 334.915C579.043 337.101 580.198 337.83 583.665 337.83C588.287 337.83 590.136 335.375 590.136 331.041V293.486C590.175 289.995 588.172 288.269 584.898 288.269Z" fill="#41A5DD"/>
<path d="M320.766 334.57C323.957 334.57 326.544 331.993 326.544 328.815C326.544 325.638 323.957 323.061 320.766 323.061C317.575 323.061 314.988 325.638 314.988 328.815C314.988 331.993 317.575 334.57 320.766 334.57Z" fill="#41A5DD"/>
<path fill-rule="evenodd" clip-rule="evenodd" d="M366.066 292.258C364.872 288.882 362.676 288.269 360.173 288.269H357.553C357.322 288.269 357.091 288.269 356.86 288.307H303.24C299.851 288.307 297.077 291.069 297.077 294.445V331.769C297.077 335.145 299.851 337.907 303.24 337.907H341.991V337.869H342.107C344.726 337.869 346.229 336.986 346.999 334.876L349.888 326.897H367.53L370.342 334.876C371.151 336.986 372.884 337.869 375.272 337.869C378.084 337.869 380.396 335.759 380.396 333.074C380.396 331.884 379.741 329.966 379.317 328.892L366.066 292.258ZM320.767 335.874C316.876 335.874 313.679 332.728 313.679 328.815C313.679 324.941 316.838 321.757 320.767 321.757C324.657 321.757 327.854 324.903 327.854 328.815C327.816 332.728 324.657 335.874 320.767 335.874ZM335.751 329.353H329.241C329.241 327.972 328.663 320.299 320.574 320.299C312.485 320.299 312.138 329.429 312.138 329.429H310.405C310.405 329.429 305.359 327.396 304.319 326.859C303.279 326.284 303.163 323.445 303.163 323.445V320.952H304.049V318.42C304.473 313.049 317.685 308.216 317.685 308.216C317.685 308.216 328.779 297.322 330.512 295.787C334.249 292.527 349.387 293.255 349.387 293.255L335.751 329.353ZM352.237 319.34L358.709 300.122H358.824L365.026 319.34H352.237Z" fill="#41A5DD"/>
<path fill-rule="evenodd" clip-rule="evenodd" d="M312.986 314.699C312.524 314.584 310.829 314.584 310.097 314.545C309.866 314.545 309.635 314.622 309.481 314.776C309.134 315.044 308.595 315.581 308.094 316.233C307.516 317 307.092 317.959 306.823 318.573C306.63 319.072 307.169 319.11 307.169 319.11L308.441 319.379C308.595 319.417 308.749 319.379 308.864 319.264L313.102 315.581C313.063 315.581 313.679 314.852 312.986 314.699Z" fill="#41A5DD"/>
<path fill-rule="evenodd" clip-rule="evenodd" d="M341.606 296.478C341.028 296.478 335.674 297.053 334.634 297.245C333.593 297.437 332.053 298.626 332.053 298.626L325.466 305.876V309.75L339.41 307.065C339.41 307.065 341.22 306.72 341.49 304.418C341.76 302.117 342.338 297.206 342.338 297.206C342.338 297.206 342.183 296.478 341.606 296.478Z" fill="#41A5DD"/>
</g>
<line x1="690.5" y1="398" x2="690.5" y2="412" stroke="black"/>
<line x1="590.5" y1="398" x2="590.5" y2="412" stroke="black"/>
<line x1="590" y1="411.5" x2="690" y2="411.5" stroke="black"/>
<path d="M615.909 434.817C616.044 434.817 616.152 434.857 616.231 434.936C616.31 435.015 616.35 435.118 616.35 435.244V436H609.658V435.573C609.658 435.484 609.677 435.393 609.714 435.3C609.751 435.207 609.81 435.12 609.889 435.041L613.102 431.814C613.368 431.543 613.611 431.284 613.83 431.037C614.049 430.785 614.236 430.533 614.39 430.281C614.544 430.029 614.663 429.775 614.747 429.518C614.831 429.257 614.873 428.979 614.873 428.685C614.873 428.391 614.826 428.134 614.733 427.915C614.64 427.691 614.511 427.507 614.348 427.362C614.189 427.217 614 427.11 613.781 427.04C613.562 426.965 613.326 426.928 613.074 426.928C612.817 426.928 612.582 426.965 612.367 427.04C612.152 427.115 611.961 427.22 611.793 427.355C611.63 427.486 611.492 427.642 611.38 427.824C611.268 428.006 611.189 428.207 611.142 428.426C611.086 428.589 611.009 428.699 610.911 428.755C610.818 428.806 610.685 428.82 610.512 428.797L609.861 428.685C609.926 428.228 610.052 427.824 610.239 427.474C610.43 427.119 610.668 426.823 610.953 426.585C611.242 426.347 611.571 426.167 611.94 426.046C612.309 425.92 612.708 425.857 613.137 425.857C613.562 425.857 613.958 425.92 614.327 426.046C614.696 426.172 615.015 426.356 615.286 426.599C615.557 426.837 615.769 427.129 615.923 427.474C616.077 427.819 616.154 428.211 616.154 428.65C616.154 429.023 616.098 429.371 615.986 429.693C615.874 430.01 615.722 430.314 615.531 430.603C615.34 430.892 615.118 431.175 614.866 431.45C614.619 431.725 614.355 432.003 614.075 432.283L611.429 434.985C611.616 434.934 611.805 434.894 611.996 434.866C612.187 434.833 612.372 434.817 612.549 434.817H615.909ZM625.121 430.988C625.121 431.865 625.025 432.626 624.834 433.27C624.647 433.909 624.391 434.439 624.064 434.859C623.737 435.279 623.35 435.592 622.902 435.797C622.459 436.002 621.983 436.105 621.474 436.105C620.961 436.105 620.482 436.002 620.039 435.797C619.6 435.592 619.218 435.279 618.891 434.859C618.564 434.439 618.308 433.909 618.121 433.27C617.934 432.626 617.841 431.865 617.841 430.988C617.841 430.111 617.934 429.35 618.121 428.706C618.308 428.062 618.564 427.53 618.891 427.11C619.218 426.685 619.6 426.37 620.039 426.165C620.482 425.96 620.961 425.857 621.474 425.857C621.983 425.857 622.459 425.96 622.902 426.165C623.35 426.37 623.737 426.685 624.064 427.11C624.391 427.53 624.647 428.062 624.834 428.706C625.025 429.35 625.121 430.111 625.121 430.988ZM623.826 430.988C623.826 430.223 623.761 429.581 623.63 429.063C623.504 428.54 623.331 428.12 623.112 427.803C622.897 427.486 622.648 427.259 622.363 427.124C622.078 426.984 621.782 426.914 621.474 426.914C621.166 426.914 620.87 426.984 620.585 427.124C620.3 427.259 620.051 427.486 619.836 427.803C619.621 428.12 619.449 428.54 619.318 429.063C619.192 429.581 619.129 430.223 619.129 430.988C619.129 431.753 619.192 432.395 619.318 432.913C619.449 433.431 619.621 433.849 619.836 434.166C620.051 434.483 620.3 434.712 620.585 434.852C620.87 434.987 621.166 435.055 621.474 435.055C621.782 435.055 622.078 434.987 622.363 434.852C622.648 434.712 622.897 434.483 623.112 434.166C623.331 433.849 623.504 433.431 623.63 432.913C623.761 432.395 623.826 431.753 623.826 430.988ZM633.542 430.988C633.542 431.865 633.447 432.626 633.255 433.27C633.069 433.909 632.812 434.439 632.485 434.859C632.159 435.279 631.771 435.592 631.323 435.797C630.88 436.002 630.404 436.105 629.895 436.105C629.382 436.105 628.904 436.002 628.46 435.797C628.022 435.592 627.639 435.279 627.312 434.859C626.986 434.439 626.729 433.909 626.542 433.27C626.356 432.626 626.262 431.865 626.262 430.988C626.262 430.111 626.356 429.35 626.542 428.706C626.729 428.062 626.986 427.53 627.312 427.11C627.639 426.685 628.022 426.37 628.46 426.165C628.904 425.96 629.382 425.857 629.895 425.857C630.404 425.857 630.88 425.96 631.323 426.165C631.771 426.37 632.159 426.685 632.485 427.11C632.812 427.53 633.069 428.062 633.255 428.706C633.447 429.35 633.542 430.111 633.542 430.988ZM632.247 430.988C632.247 430.223 632.182 429.581 632.051 429.063C631.925 428.54 631.753 428.12 631.533 427.803C631.319 427.486 631.069 427.259 630.784 427.124C630.5 426.984 630.203 426.914 629.895 426.914C629.587 426.914 629.291 426.984 629.006 427.124C628.722 427.259 628.472 427.486 628.257 427.803C628.043 428.12 627.87 428.54 627.739 429.063C627.613 429.581 627.55 430.223 627.55 430.988C627.55 431.753 627.613 432.395 627.739 432.913C627.87 433.431 628.043 433.849 628.257 434.166C628.472 434.483 628.722 434.712 629.006 434.852C629.291 434.987 629.587 435.055 629.895 435.055C630.203 435.055 630.5 434.987 630.784 434.852C631.069 434.712 631.319 434.483 631.533 434.166C631.753 433.849 631.925 433.431 632.051 432.913C632.182 432.395 632.247 431.753 632.247 430.988ZM639.317 428.391C639.317 428.783 639.257 429.135 639.135 429.448C639.014 429.756 638.851 430.017 638.645 430.232C638.445 430.442 638.209 430.603 637.938 430.715C637.672 430.827 637.39 430.883 637.091 430.883C636.779 430.883 636.487 430.827 636.216 430.715C635.946 430.603 635.71 430.442 635.509 430.232C635.313 430.017 635.159 429.756 635.047 429.448C634.935 429.135 634.879 428.783 634.879 428.391C634.879 427.99 634.935 427.633 635.047 427.32C635.159 427.007 635.313 426.744 635.509 426.529C635.71 426.314 635.946 426.151 636.216 426.039C636.487 425.927 636.779 425.871 637.091 425.871C637.409 425.871 637.703 425.927 637.973 426.039C638.244 426.151 638.48 426.314 638.68 426.529C638.881 426.744 639.037 427.007 639.149 427.32C639.261 427.633 639.317 427.99 639.317 428.391ZM638.351 428.391C638.351 428.083 638.319 427.822 638.253 427.607C638.188 427.392 638.097 427.217 637.98 427.082C637.868 426.942 637.735 426.842 637.581 426.781C637.427 426.72 637.264 426.69 637.091 426.69C636.919 426.69 636.758 426.72 636.608 426.781C636.459 426.842 636.328 426.942 636.216 427.082C636.104 427.217 636.016 427.392 635.95 427.607C635.885 427.822 635.852 428.083 635.852 428.391C635.852 428.694 635.885 428.953 635.95 429.168C636.016 429.378 636.104 429.551 636.216 429.686C636.328 429.817 636.459 429.912 636.608 429.973C636.758 430.029 636.919 430.057 637.091 430.057C637.264 430.057 637.427 430.029 637.581 429.973C637.735 429.912 637.868 429.817 637.98 429.686C638.097 429.551 638.188 429.378 638.253 429.168C638.319 428.953 638.351 428.694 638.351 428.391ZM642.866 426.179C642.913 426.123 642.967 426.074 643.027 426.032C643.093 425.99 643.179 425.969 643.286 425.969H644.189L636.853 435.797C636.811 435.858 636.758 435.907 636.692 435.944C636.627 435.981 636.548 436 636.454 436H635.537L642.866 426.179ZM644.868 433.634C644.868 434.026 644.808 434.376 644.686 434.684C644.565 434.992 644.402 435.253 644.196 435.468C643.996 435.678 643.76 435.839 643.489 435.951C643.223 436.063 642.941 436.119 642.642 436.119C642.325 436.119 642.031 436.063 641.76 435.951C641.494 435.839 641.261 435.678 641.06 435.468C640.864 435.253 640.71 434.992 640.598 434.684C640.486 434.376 640.43 434.026 640.43 433.634C640.43 433.233 640.486 432.876 640.598 432.563C640.71 432.246 640.864 431.98 641.06 431.765C641.261 431.55 641.494 431.387 641.76 431.275C642.031 431.163 642.325 431.107 642.642 431.107C642.955 431.107 643.247 431.163 643.517 431.275C643.793 431.387 644.028 431.55 644.224 431.765C644.425 431.98 644.581 432.246 644.693 432.563C644.81 432.876 644.868 433.233 644.868 433.634ZM643.902 433.634C643.902 433.326 643.87 433.065 643.804 432.85C643.739 432.631 643.648 432.453 643.531 432.318C643.419 432.183 643.286 432.085 643.132 432.024C642.978 431.963 642.815 431.933 642.642 431.933C642.47 431.933 642.306 431.963 642.152 432.024C642.003 432.085 641.872 432.183 641.76 432.318C641.648 432.453 641.56 432.631 641.494 432.85C641.434 433.065 641.403 433.326 641.403 433.634C641.403 433.937 641.434 434.194 641.494 434.404C641.56 434.614 641.648 434.787 641.76 434.922C641.872 435.053 642.003 435.148 642.152 435.209C642.306 435.265 642.47 435.293 642.642 435.293C642.815 435.293 642.978 435.265 643.132 435.209C643.286 435.148 643.419 435.053 643.531 434.922C643.648 434.787 643.739 434.614 643.804 434.404C643.87 434.194 643.902 433.937 643.902 433.634ZM653.646 428.797C654.164 428.797 654.631 428.883 655.046 429.056C655.461 429.229 655.816 429.474 656.11 429.791C656.404 430.108 656.628 430.493 656.782 430.946C656.941 431.394 657.02 431.896 657.02 432.451C657.02 433.011 656.941 433.515 656.782 433.963C656.628 434.411 656.404 434.794 656.11 435.111C655.816 435.428 655.461 435.673 655.046 435.846C654.631 436.014 654.164 436.098 653.646 436.098C653.123 436.098 652.652 436.014 652.232 435.846C651.817 435.673 651.462 435.428 651.168 435.111C650.874 434.794 650.648 434.411 650.489 433.963C650.335 433.515 650.258 433.011 650.258 432.451C650.258 431.896 650.335 431.394 650.489 430.946C650.648 430.493 650.874 430.108 651.168 429.791C651.462 429.474 651.817 429.229 652.232 429.056C652.652 428.883 653.123 428.797 653.646 428.797ZM653.646 435.125C654.346 435.125 654.869 434.892 655.214 434.425C655.559 433.954 655.732 433.298 655.732 432.458C655.732 431.613 655.559 430.955 655.214 430.484C654.869 430.013 654.346 429.777 653.646 429.777C653.291 429.777 652.981 429.838 652.715 429.959C652.454 430.08 652.234 430.255 652.057 430.484C651.884 430.713 651.754 430.995 651.665 431.331C651.581 431.662 651.539 432.038 651.539 432.458C651.539 433.298 651.712 433.954 652.057 434.425C652.407 434.892 652.937 435.125 653.646 435.125ZM659.212 436V429.973L658.428 429.882C658.33 429.859 658.248 429.824 658.183 429.777C658.122 429.726 658.092 429.653 658.092 429.56V429.049H659.212V428.363C659.212 427.957 659.268 427.598 659.38 427.285C659.497 426.968 659.66 426.702 659.87 426.487C660.085 426.268 660.341 426.102 660.64 425.99C660.939 425.878 661.275 425.822 661.648 425.822C661.965 425.822 662.257 425.869 662.523 425.962L662.495 426.585C662.486 426.697 662.423 426.758 662.306 426.767C662.194 426.776 662.042 426.781 661.851 426.781C661.636 426.781 661.44 426.809 661.263 426.865C661.09 426.921 660.941 427.012 660.815 427.138C660.689 427.264 660.591 427.43 660.521 427.635C660.456 427.84 660.423 428.095 660.423 428.398V429.049H662.467V429.952H660.465V436H659.212ZM668.763 430.33C668.987 429.845 669.263 429.467 669.589 429.196C669.916 428.921 670.315 428.783 670.786 428.783C670.936 428.783 671.078 428.799 671.213 428.832C671.353 428.865 671.477 428.916 671.584 428.986L671.493 429.917C671.465 430.034 671.395 430.092 671.283 430.092C671.218 430.092 671.122 430.078 670.996 430.05C670.87 430.022 670.728 430.008 670.569 430.008C670.345 430.008 670.145 430.041 669.967 430.106C669.795 430.171 669.638 430.269 669.498 430.4C669.363 430.526 669.239 430.685 669.127 430.876C669.02 431.063 668.922 431.277 668.833 431.52V436H667.58V428.909H668.294C668.43 428.909 668.523 428.935 668.574 428.986C668.626 429.037 668.661 429.126 668.679 429.252L668.763 430.33Z" fill="black"/>
<line x1="237" y1="288.5" x2="223" y2="288.5" stroke="black"/>
<line x1="237" y1="238.5" x2="223" y2="238.5" stroke="black"/>
<line x1="223.5" y1="238" x2="223.5" y2="288" stroke="black"/>
<path d="M159.126 267.048V268H153.75V267.048H155.899V260.209C155.899 260.004 155.906 259.796 155.92 259.586L154.135 261.119C154.074 261.17 154.014 261.203 153.953 261.217C153.892 261.226 153.836 261.226 153.785 261.217C153.734 261.208 153.685 261.189 153.638 261.161C153.596 261.133 153.563 261.103 153.54 261.07L153.148 260.531L156.137 257.948H157.152V267.048H159.126ZM168.121 262.988C168.121 263.865 168.025 264.626 167.834 265.27C167.647 265.909 167.391 266.439 167.064 266.859C166.737 267.279 166.35 267.592 165.902 267.797C165.459 268.002 164.983 268.105 164.474 268.105C163.961 268.105 163.482 268.002 163.039 267.797C162.6 267.592 162.218 267.279 161.891 266.859C161.564 266.439 161.308 265.909 161.121 265.27C160.934 264.626 160.841 263.865 160.841 262.988C160.841 262.111 160.934 261.35 161.121 260.706C161.308 260.062 161.564 259.53 161.891 259.11C162.218 258.685 162.6 258.37 163.039 258.165C163.482 257.96 163.961 257.857 164.474 257.857C164.983 257.857 165.459 257.96 165.902 258.165C166.35 258.37 166.737 258.685 167.064 259.11C167.391 259.53 167.647 260.062 167.834 260.706C168.025 261.35 168.121 262.111 168.121 262.988ZM166.826 262.988C166.826 262.223 166.761 261.581 166.63 261.063C166.504 260.54 166.331 260.12 166.112 259.803C165.897 259.486 165.648 259.259 165.363 259.124C165.078 258.984 164.782 258.914 164.474 258.914C164.166 258.914 163.87 258.984 163.585 259.124C163.3 259.259 163.051 259.486 162.836 259.803C162.621 260.12 162.449 260.54 162.318 261.063C162.192 261.581 162.129 262.223 162.129 262.988C162.129 263.753 162.192 264.395 162.318 264.913C162.449 265.431 162.621 265.849 162.836 266.166C163.051 266.483 163.3 266.712 163.585 266.852C163.87 266.987 164.166 267.055 164.474 267.055C164.782 267.055 165.078 266.987 165.363 266.852C165.648 266.712 165.897 266.483 166.112 266.166C166.331 265.849 166.504 265.431 166.63 264.913C166.761 264.395 166.826 263.753 166.826 262.988ZM176.542 262.988C176.542 263.865 176.447 264.626 176.255 265.27C176.069 265.909 175.812 266.439 175.485 266.859C175.159 267.279 174.771 267.592 174.323 267.797C173.88 268.002 173.404 268.105 172.895 268.105C172.382 268.105 171.904 268.002 171.46 267.797C171.022 267.592 170.639 267.279 170.312 266.859C169.986 266.439 169.729 265.909 169.542 265.27C169.356 264.626 169.262 263.865 169.262 262.988C169.262 262.111 169.356 261.35 169.542 260.706C169.729 260.062 169.986 259.53 170.312 259.11C170.639 258.685 171.022 258.37 171.46 258.165C171.904 257.96 172.382 257.857 172.895 257.857C173.404 257.857 173.88 257.96 174.323 258.165C174.771 258.37 175.159 258.685 175.485 259.11C175.812 259.53 176.069 260.062 176.255 260.706C176.447 261.35 176.542 262.111 176.542 262.988ZM175.247 262.988C175.247 262.223 175.182 261.581 175.051 261.063C174.925 260.54 174.753 260.12 174.533 259.803C174.319 259.486 174.069 259.259 173.784 259.124C173.5 258.984 173.203 258.914 172.895 258.914C172.587 258.914 172.291 258.984 172.006 259.124C171.722 259.259 171.472 259.486 171.257 259.803C171.043 260.12 170.87 260.54 170.739 261.063C170.613 261.581 170.55 262.223 170.55 262.988C170.55 263.753 170.613 264.395 170.739 264.913C170.87 265.431 171.043 265.849 171.257 266.166C171.472 266.483 171.722 266.712 172.006 266.852C172.291 266.987 172.587 267.055 172.895 267.055C173.203 267.055 173.5 266.987 173.784 266.852C174.069 266.712 174.319 266.483 174.533 266.166C174.753 265.849 174.925 265.431 175.051 264.913C175.182 264.395 175.247 263.753 175.247 262.988ZM182.317 260.391C182.317 260.783 182.257 261.135 182.135 261.448C182.014 261.756 181.851 262.017 181.645 262.232C181.445 262.442 181.209 262.603 180.938 262.715C180.672 262.827 180.39 262.883 180.091 262.883C179.779 262.883 179.487 262.827 179.216 262.715C178.946 262.603 178.71 262.442 178.509 262.232C178.313 262.017 178.159 261.756 178.047 261.448C177.935 261.135 177.879 260.783 177.879 260.391C177.879 259.99 177.935 259.633 178.047 259.32C178.159 259.007 178.313 258.744 178.509 258.529C178.71 258.314 178.946 258.151 179.216 258.039C179.487 257.927 179.779 257.871 180.091 257.871C180.409 257.871 180.703 257.927 180.973 258.039C181.244 258.151 181.48 258.314 181.68 258.529C181.881 258.744 182.037 259.007 182.149 259.32C182.261 259.633 182.317 259.99 182.317 260.391ZM181.351 260.391C181.351 260.083 181.319 259.822 181.253 259.607C181.188 259.392 181.097 259.217 180.98 259.082C180.868 258.942 180.735 258.842 180.581 258.781C180.427 258.72 180.264 258.69 180.091 258.69C179.919 258.69 179.758 258.72 179.608 258.781C179.459 258.842 179.328 258.942 179.216 259.082C179.104 259.217 179.016 259.392 178.95 259.607C178.885 259.822 178.852 260.083 178.852 260.391C178.852 260.694 178.885 260.953 178.95 261.168C179.016 261.378 179.104 261.551 179.216 261.686C179.328 261.817 179.459 261.912 179.608 261.973C179.758 262.029 179.919 262.057 180.091 262.057C180.264 262.057 180.427 262.029 180.581 261.973C180.735 261.912 180.868 261.817 180.98 261.686C181.097 261.551 181.188 261.378 181.253 261.168C181.319 260.953 181.351 260.694 181.351 260.391ZM185.866 258.179C185.913 258.123 185.967 258.074 186.027 258.032C186.093 257.99 186.179 257.969 186.286 257.969H187.189L179.853 267.797C179.811 267.858 179.758 267.907 179.692 267.944C179.627 267.981 179.548 268 179.454 268H178.537L185.866 258.179ZM187.868 265.634C187.868 266.026 187.808 266.376 187.686 266.684C187.565 266.992 187.402 267.253 187.196 267.468C186.996 267.678 186.76 267.839 186.489 267.951C186.223 268.063 185.941 268.119 185.642 268.119C185.325 268.119 185.031 268.063 184.76 267.951C184.494 267.839 184.261 267.678 184.06 267.468C183.864 267.253 183.71 266.992 183.598 266.684C183.486 266.376 183.43 266.026 183.43 265.634C183.43 265.233 183.486 264.876 183.598 264.563C183.71 264.246 183.864 263.98 184.06 263.765C184.261 263.55 184.494 263.387 184.76 263.275C185.031 263.163 185.325 263.107 185.642 263.107C185.955 263.107 186.247 263.163 186.517 263.275C186.793 263.387 187.028 263.55 187.224 263.765C187.425 263.98 187.581 264.246 187.693 264.563C187.81 264.876 187.868 265.233 187.868 265.634ZM186.902 265.634C186.902 265.326 186.87 265.065 186.804 264.85C186.739 264.631 186.648 264.453 186.531 264.318C186.419 264.183 186.286 264.085 186.132 264.024C185.978 263.963 185.815 263.933 185.642 263.933C185.47 263.933 185.306 263.963 185.152 264.024C185.003 264.085 184.872 264.183 184.76 264.318C184.648 264.453 184.56 264.631 184.494 264.85C184.434 265.065 184.403 265.326 184.403 265.634C184.403 265.937 184.434 266.194 184.494 266.404C184.56 266.614 184.648 266.787 184.76 266.922C184.872 267.053 185.003 267.148 185.152 267.209C185.306 267.265 185.47 267.293 185.642 267.293C185.815 267.293 185.978 267.265 186.132 267.209C186.286 267.148 186.419 267.053 186.531 266.922C186.648 266.787 186.739 266.614 186.804 266.404C186.87 266.194 186.902 265.937 186.902 265.634ZM196.646 260.797C197.164 260.797 197.631 260.883 198.046 261.056C198.461 261.229 198.816 261.474 199.11 261.791C199.404 262.108 199.628 262.493 199.782 262.946C199.941 263.394 200.02 263.896 200.02 264.451C200.02 265.011 199.941 265.515 199.782 265.963C199.628 266.411 199.404 266.794 199.11 267.111C198.816 267.428 198.461 267.673 198.046 267.846C197.631 268.014 197.164 268.098 196.646 268.098C196.123 268.098 195.652 268.014 195.232 267.846C194.817 267.673 194.462 267.428 194.168 267.111C193.874 266.794 193.648 266.411 193.489 265.963C193.335 265.515 193.258 265.011 193.258 264.451C193.258 263.896 193.335 263.394 193.489 262.946C193.648 262.493 193.874 262.108 194.168 261.791C194.462 261.474 194.817 261.229 195.232 261.056C195.652 260.883 196.123 260.797 196.646 260.797ZM196.646 267.125C197.346 267.125 197.869 266.892 198.214 266.425C198.559 265.954 198.732 265.298 198.732 264.458C198.732 263.613 198.559 262.955 198.214 262.484C197.869 262.013 197.346 261.777 196.646 261.777C196.291 261.777 195.981 261.838 195.715 261.959C195.454 262.08 195.234 262.255 195.057 262.484C194.884 262.713 194.754 262.995 194.665 263.331C194.581 263.662 194.539 264.038 194.539 264.458C194.539 265.298 194.712 265.954 195.057 266.425C195.407 266.892 195.937 267.125 196.646 267.125ZM202.212 268V261.973L201.428 261.882C201.33 261.859 201.248 261.824 201.183 261.777C201.122 261.726 201.092 261.653 201.092 261.56V261.049H202.212V260.363C202.212 259.957 202.268 259.598 202.38 259.285C202.497 258.968 202.66 258.702 202.87 258.487C203.085 258.268 203.341 258.102 203.64 257.99C203.939 257.878 204.275 257.822 204.648 257.822C204.965 257.822 205.257 257.869 205.523 257.962L205.495 258.585C205.486 258.697 205.423 258.758 205.306 258.767C205.194 258.776 205.042 258.781 204.851 258.781C204.636 258.781 204.44 258.809 204.263 258.865C204.09 258.921 203.941 259.012 203.815 259.138C203.689 259.264 203.591 259.43 203.521 259.635C203.456 259.84 203.423 260.095 203.423 260.398V261.049H205.467V261.952H203.465V268H202.212ZM211.763 262.33C211.987 261.845 212.263 261.467 212.589 261.196C212.916 260.921 213.315 260.783 213.786 260.783C213.936 260.783 214.078 260.799 214.213 260.832C214.353 260.865 214.477 260.916 214.584 260.986L214.493 261.917C214.465 262.034 214.395 262.092 214.283 262.092C214.218 262.092 214.122 262.078 213.996 262.05C213.87 262.022 213.728 262.008 213.569 262.008C213.345 262.008 213.145 262.041 212.967 262.106C212.795 262.171 212.638 262.269 212.498 262.4C212.363 262.526 212.239 262.685 212.127 262.876C212.02 263.063 211.922 263.277 211.833 263.52V268H210.58V260.909H211.294C211.43 260.909 211.523 260.935 211.574 260.986C211.626 261.037 211.661 261.126 211.679 261.252L211.763 262.33Z" fill="black"/>
<line x1="297.5" y1="398" x2="297.5" y2="412" stroke="black"/>
<line x1="247.5" y1="398" x2="247.5" y2="412" stroke="black"/>
<line x1="247" y1="411.5" x2="297" y2="411.5" stroke="black"/>
<path d="M247.126 435.048V436H241.75V435.048H243.899V428.209C243.899 428.004 243.906 427.796 243.92 427.586L242.135 429.119C242.074 429.17 242.014 429.203 241.953 429.217C241.892 429.226 241.836 429.226 241.785 429.217C241.734 429.208 241.685 429.189 241.638 429.161C241.596 429.133 241.563 429.103 241.54 429.07L241.148 428.531L244.137 425.948H245.152V435.048H247.126ZM256.121 430.988C256.121 431.865 256.025 432.626 255.834 433.27C255.647 433.909 255.391 434.439 255.064 434.859C254.737 435.279 254.35 435.592 253.902 435.797C253.459 436.002 252.983 436.105 252.474 436.105C251.961 436.105 251.482 436.002 251.039 435.797C250.6 435.592 250.218 435.279 249.891 434.859C249.564 434.439 249.308 433.909 249.121 433.27C248.934 432.626 248.841 431.865 248.841 430.988C248.841 430.111 248.934 429.35 249.121 428.706C249.308 428.062 249.564 427.53 249.891 427.11C250.218 426.685 250.6 426.37 251.039 426.165C251.482 425.96 251.961 425.857 252.474 425.857C252.983 425.857 253.459 425.96 253.902 426.165C254.35 426.37 254.737 426.685 255.064 427.11C255.391 427.53 255.647 428.062 255.834 428.706C256.025 429.35 256.121 430.111 256.121 430.988ZM254.826 430.988C254.826 430.223 254.761 429.581 254.63 429.063C254.504 428.54 254.331 428.12 254.112 427.803C253.897 427.486 253.648 427.259 253.363 427.124C253.078 426.984 252.782 426.914 252.474 426.914C252.166 426.914 251.87 426.984 251.585 427.124C251.3 427.259 251.051 427.486 250.836 427.803C250.621 428.12 250.449 428.54 250.318 429.063C250.192 429.581 250.129 430.223 250.129 430.988C250.129 431.753 250.192 432.395 250.318 432.913C250.449 433.431 250.621 433.849 250.836 434.166C251.051 434.483 251.3 434.712 251.585 434.852C251.87 434.987 252.166 435.055 252.474 435.055C252.782 435.055 253.078 434.987 253.363 434.852C253.648 434.712 253.897 434.483 254.112 434.166C254.331 433.849 254.504 433.431 254.63 432.913C254.761 432.395 254.826 431.753 254.826 430.988ZM264.542 430.988C264.542 431.865 264.447 432.626 264.255 433.27C264.069 433.909 263.812 434.439 263.485 434.859C263.159 435.279 262.771 435.592 262.323 435.797C261.88 436.002 261.404 436.105 260.895 436.105C260.382 436.105 259.904 436.002 259.46 435.797C259.022 435.592 258.639 435.279 258.312 434.859C257.986 434.439 257.729 433.909 257.542 433.27C257.356 432.626 257.262 431.865 257.262 430.988C257.262 430.111 257.356 429.35 257.542 428.706C257.729 428.062 257.986 427.53 258.312 427.11C258.639 426.685 259.022 426.37 259.46 426.165C259.904 425.96 260.382 425.857 260.895 425.857C261.404 425.857 261.88 425.96 262.323 426.165C262.771 426.37 263.159 426.685 263.485 427.11C263.812 427.53 264.069 428.062 264.255 428.706C264.447 429.35 264.542 430.111 264.542 430.988ZM263.247 430.988C263.247 430.223 263.182 429.581 263.051 429.063C262.925 428.54 262.753 428.12 262.533 427.803C262.319 427.486 262.069 427.259 261.784 427.124C261.5 426.984 261.203 426.914 260.895 426.914C260.587 426.914 260.291 426.984 260.006 427.124C259.722 427.259 259.472 427.486 259.257 427.803C259.043 428.12 258.87 428.54 258.739 429.063C258.613 429.581 258.55 430.223 258.55 430.988C258.55 431.753 258.613 432.395 258.739 432.913C258.87 433.431 259.043 433.849 259.257 434.166C259.472 434.483 259.722 434.712 260.006 434.852C260.291 434.987 260.587 435.055 260.895 435.055C261.203 435.055 261.5 434.987 261.784 434.852C262.069 434.712 262.319 434.483 262.533 434.166C262.753 433.849 262.925 433.431 263.051 432.913C263.182 432.395 263.247 431.753 263.247 430.988ZM270.317 428.391C270.317 428.783 270.257 429.135 270.135 429.448C270.014 429.756 269.851 430.017 269.645 430.232C269.445 430.442 269.209 430.603 268.938 430.715C268.672 430.827 268.39 430.883 268.091 430.883C267.779 430.883 267.487 430.827 267.216 430.715C266.946 430.603 266.71 430.442 266.509 430.232C266.313 430.017 266.159 429.756 266.047 429.448C265.935 429.135 265.879 428.783 265.879 428.391C265.879 427.99 265.935 427.633 266.047 427.32C266.159 427.007 266.313 426.744 266.509 426.529C266.71 426.314 266.946 426.151 267.216 426.039C267.487 425.927 267.779 425.871 268.091 425.871C268.409 425.871 268.703 425.927 268.973 426.039C269.244 426.151 269.48 426.314 269.68 426.529C269.881 426.744 270.037 427.007 270.149 427.32C270.261 427.633 270.317 427.99 270.317 428.391ZM269.351 428.391C269.351 428.083 269.319 427.822 269.253 427.607C269.188 427.392 269.097 427.217 268.98 427.082C268.868 426.942 268.735 426.842 268.581 426.781C268.427 426.72 268.264 426.69 268.091 426.69C267.919 426.69 267.758 426.72 267.608 426.781C267.459 426.842 267.328 426.942 267.216 427.082C267.104 427.217 267.016 427.392 266.95 427.607C266.885 427.822 266.852 428.083 266.852 428.391C266.852 428.694 266.885 428.953 266.95 429.168C267.016 429.378 267.104 429.551 267.216 429.686C267.328 429.817 267.459 429.912 267.608 429.973C267.758 430.029 267.919 430.057 268.091 430.057C268.264 430.057 268.427 430.029 268.581 429.973C268.735 429.912 268.868 429.817 268.98 429.686C269.097 429.551 269.188 429.378 269.253 429.168C269.319 428.953 269.351 428.694 269.351 428.391ZM273.866 426.179C273.913 426.123 273.967 426.074 274.027 426.032C274.093 425.99 274.179 425.969 274.286 425.969H275.189L267.853 435.797C267.811 435.858 267.758 435.907 267.692 435.944C267.627 435.981 267.548 436 267.454 436H266.537L273.866 426.179ZM275.868 433.634C275.868 434.026 275.808 434.376 275.686 434.684C275.565 434.992 275.402 435.253 275.196 435.468C274.996 435.678 274.76 435.839 274.489 435.951C274.223 436.063 273.941 436.119 273.642 436.119C273.325 436.119 273.031 436.063 272.76 435.951C272.494 435.839 272.261 435.678 272.06 435.468C271.864 435.253 271.71 434.992 271.598 434.684C271.486 434.376 271.43 434.026 271.43 433.634C271.43 433.233 271.486 432.876 271.598 432.563C271.71 432.246 271.864 431.98 272.06 431.765C272.261 431.55 272.494 431.387 272.76 431.275C273.031 431.163 273.325 431.107 273.642 431.107C273.955 431.107 274.247 431.163 274.517 431.275C274.793 431.387 275.028 431.55 275.224 431.765C275.425 431.98 275.581 432.246 275.693 432.563C275.81 432.876 275.868 433.233 275.868 433.634ZM274.902 433.634C274.902 433.326 274.87 433.065 274.804 432.85C274.739 432.631 274.648 432.453 274.531 432.318C274.419 432.183 274.286 432.085 274.132 432.024C273.978 431.963 273.815 431.933 273.642 431.933C273.47 431.933 273.306 431.963 273.152 432.024C273.003 432.085 272.872 432.183 272.76 432.318C272.648 432.453 272.56 432.631 272.494 432.85C272.434 433.065 272.403 433.326 272.403 433.634C272.403 433.937 272.434 434.194 272.494 434.404C272.56 434.614 272.648 434.787 272.76 434.922C272.872 435.053 273.003 435.148 273.152 435.209C273.306 435.265 273.47 435.293 273.642 435.293C273.815 435.293 273.978 435.265 274.132 435.209C274.286 435.148 274.419 435.053 274.531 434.922C274.648 434.787 274.739 434.614 274.804 434.404C274.87 434.194 274.902 433.937 274.902 433.634ZM284.646 428.797C285.164 428.797 285.631 428.883 286.046 429.056C286.461 429.229 286.816 429.474 287.11 429.791C287.404 430.108 287.628 430.493 287.782 430.946C287.941 431.394 288.02 431.896 288.02 432.451C288.02 433.011 287.941 433.515 287.782 433.963C287.628 434.411 287.404 434.794 287.11 435.111C286.816 435.428 286.461 435.673 286.046 435.846C285.631 436.014 285.164 436.098 284.646 436.098C284.123 436.098 283.652 436.014 283.232 435.846C282.817 435.673 282.462 435.428 282.168 435.111C281.874 434.794 281.648 434.411 281.489 433.963C281.335 433.515 281.258 433.011 281.258 432.451C281.258 431.896 281.335 431.394 281.489 430.946C281.648 430.493 281.874 430.108 282.168 429.791C282.462 429.474 282.817 429.229 283.232 429.056C283.652 428.883 284.123 428.797 284.646 428.797ZM284.646 435.125C285.346 435.125 285.869 434.892 286.214 434.425C286.559 433.954 286.732 433.298 286.732 432.458C286.732 431.613 286.559 430.955 286.214 430.484C285.869 430.013 285.346 429.777 284.646 429.777C284.291 429.777 283.981 429.838 283.715 429.959C283.454 430.08 283.234 430.255 283.057 430.484C282.884 430.713 282.754 430.995 282.665 431.331C282.581 431.662 282.539 432.038 282.539 432.458C282.539 433.298 282.712 433.954 283.057 434.425C283.407 434.892 283.937 435.125 284.646 435.125ZM290.212 436V429.973L289.428 429.882C289.33 429.859 289.248 429.824 289.183 429.777C289.122 429.726 289.092 429.653 289.092 429.56V429.049H290.212V428.363C290.212 427.957 290.268 427.598 290.38 427.285C290.497 426.968 290.66 426.702 290.87 426.487C291.085 426.268 291.341 426.102 291.64 425.99C291.939 425.878 292.275 425.822 292.648 425.822C292.965 425.822 293.257 425.869 293.523 425.962L293.495 426.585C293.486 426.697 293.423 426.758 293.306 426.767C293.194 426.776 293.042 426.781 292.851 426.781C292.636 426.781 292.44 426.809 292.263 426.865C292.09 426.921 291.941 427.012 291.815 427.138C291.689 427.264 291.591 427.43 291.521 427.635C291.456 427.84 291.423 428.095 291.423 428.398V429.049H293.467V429.952H291.465V436H290.212ZM299.763 430.33C299.987 429.845 300.263 429.467 300.589 429.196C300.916 428.921 301.315 428.783 301.786 428.783C301.936 428.783 302.078 428.799 302.213 428.832C302.353 428.865 302.477 428.916 302.584 428.986L302.493 429.917C302.465 430.034 302.395 430.092 302.283 430.092C302.218 430.092 302.122 430.078 301.996 430.05C301.87 430.022 301.728 430.008 301.569 430.008C301.345 430.008 301.145 430.041 300.967 430.106C300.795 430.171 300.638 430.269 300.498 430.4C300.363 430.526 300.239 430.685 300.127 430.876C300.02 431.063 299.922 431.277 299.833 431.52V436H298.58V428.909H299.294C299.43 428.909 299.523 428.935 299.574 428.986C299.626 429.037 299.661 429.126 299.679 429.252L299.763 430.33Z" fill="black"/>
<line x1="1012.5" y1="398" x2="1012.5" y2="412" stroke="black"/>
<line x1="962.5" y1="398" x2="962.5" y2="412" stroke="black"/>
<line x1="962" y1="411.5" x2="1012" y2="411.5" stroke="black"/>
<path d="M962.126 435.048V436H956.75V435.048H958.899V428.209C958.899 428.004 958.906 427.796 958.92 427.586L957.135 429.119C957.074 429.17 957.014 429.203 956.953 429.217C956.892 429.226 956.836 429.226 956.785 429.217C956.734 429.208 956.685 429.189 956.638 429.161C956.596 429.133 956.563 429.103 956.54 429.07L956.148 428.531L959.137 425.948H960.152V435.048H962.126ZM971.121 430.988C971.121 431.865 971.025 432.626 970.834 433.27C970.647 433.909 970.391 434.439 970.064 434.859C969.737 435.279 969.35 435.592 968.902 435.797C968.459 436.002 967.983 436.105 967.474 436.105C966.961 436.105 966.482 436.002 966.039 435.797C965.6 435.592 965.218 435.279 964.891 434.859C964.564 434.439 964.308 433.909 964.121 433.27C963.934 432.626 963.841 431.865 963.841 430.988C963.841 430.111 963.934 429.35 964.121 428.706C964.308 428.062 964.564 427.53 964.891 427.11C965.218 426.685 965.6 426.37 966.039 426.165C966.482 425.96 966.961 425.857 967.474 425.857C967.983 425.857 968.459 425.96 968.902 426.165C969.35 426.37 969.737 426.685 970.064 427.11C970.391 427.53 970.647 428.062 970.834 428.706C971.025 429.35 971.121 430.111 971.121 430.988ZM969.826 430.988C969.826 430.223 969.761 429.581 969.63 429.063C969.504 428.54 969.331 428.12 969.112 427.803C968.897 427.486 968.648 427.259 968.363 427.124C968.078 426.984 967.782 426.914 967.474 426.914C967.166 426.914 966.87 426.984 966.585 427.124C966.3 427.259 966.051 427.486 965.836 427.803C965.621 428.12 965.449 428.54 965.318 429.063C965.192 429.581 965.129 430.223 965.129 430.988C965.129 431.753 965.192 432.395 965.318 432.913C965.449 433.431 965.621 433.849 965.836 434.166C966.051 434.483 966.3 434.712 966.585 434.852C966.87 434.987 967.166 435.055 967.474 435.055C967.782 435.055 968.078 434.987 968.363 434.852C968.648 434.712 968.897 434.483 969.112 434.166C969.331 433.849 969.504 433.431 969.63 432.913C969.761 432.395 969.826 431.753 969.826 430.988ZM979.542 430.988C979.542 431.865 979.447 432.626 979.255 433.27C979.069 433.909 978.812 434.439 978.485 434.859C978.159 435.279 977.771 435.592 977.323 435.797C976.88 436.002 976.404 436.105 975.895 436.105C975.382 436.105 974.904 436.002 974.46 435.797C974.022 435.592 973.639 435.279 973.312 434.859C972.986 434.439 972.729 433.909 972.542 433.27C972.356 432.626 972.262 431.865 972.262 430.988C972.262 430.111 972.356 429.35 972.542 428.706C972.729 428.062 972.986 427.53 973.312 427.11C973.639 426.685 974.022 426.37 974.46 426.165C974.904 425.96 975.382 425.857 975.895 425.857C976.404 425.857 976.88 425.96 977.323 426.165C977.771 426.37 978.159 426.685 978.485 427.11C978.812 427.53 979.069 428.062 979.255 428.706C979.447 429.35 979.542 430.111 979.542 430.988ZM978.247 430.988C978.247 430.223 978.182 429.581 978.051 429.063C977.925 428.54 977.753 428.12 977.533 427.803C977.319 427.486 977.069 427.259 976.784 427.124C976.5 426.984 976.203 426.914 975.895 426.914C975.587 426.914 975.291 426.984 975.006 427.124C974.722 427.259 974.472 427.486 974.257 427.803C974.043 428.12 973.87 428.54 973.739 429.063C973.613 429.581 973.55 430.223 973.55 430.988C973.55 431.753 973.613 432.395 973.739 432.913C973.87 433.431 974.043 433.849 974.257 434.166C974.472 434.483 974.722 434.712 975.006 434.852C975.291 434.987 975.587 435.055 975.895 435.055C976.203 435.055 976.5 434.987 976.784 434.852C977.069 434.712 977.319 434.483 977.533 434.166C977.753 433.849 977.925 433.431 978.051 432.913C978.182 432.395 978.247 431.753 978.247 430.988ZM985.317 428.391C985.317 428.783 985.257 429.135 985.135 429.448C985.014 429.756 984.851 430.017 984.645 430.232C984.445 430.442 984.209 430.603 983.938 430.715C983.672 430.827 983.39 430.883 983.091 430.883C982.779 430.883 982.487 430.827 982.216 430.715C981.946 430.603 981.71 430.442 981.509 430.232C981.313 430.017 981.159 429.756 981.047 429.448C980.935 429.135 980.879 428.783 980.879 428.391C980.879 427.99 980.935 427.633 981.047 427.32C981.159 427.007 981.313 426.744 981.509 426.529C981.71 426.314 981.946 426.151 982.216 426.039C982.487 425.927 982.779 425.871 983.091 425.871C983.409 425.871 983.703 425.927 983.973 426.039C984.244 426.151 984.48 426.314 984.68 426.529C984.881 426.744 985.037 427.007 985.149 427.32C985.261 427.633 985.317 427.99 985.317 428.391ZM984.351 428.391C984.351 428.083 984.319 427.822 984.253 427.607C984.188 427.392 984.097 427.217 983.98 427.082C983.868 426.942 983.735 426.842 983.581 426.781C983.427 426.72 983.264 426.69 983.091 426.69C982.919 426.69 982.758 426.72 982.608 426.781C982.459 426.842 982.328 426.942 982.216 427.082C982.104 427.217 982.016 427.392 981.95 427.607C981.885 427.822 981.852 428.083 981.852 428.391C981.852 428.694 981.885 428.953 981.95 429.168C982.016 429.378 982.104 429.551 982.216 429.686C982.328 429.817 982.459 429.912 982.608 429.973C982.758 430.029 982.919 430.057 983.091 430.057C983.264 430.057 983.427 430.029 983.581 429.973C983.735 429.912 983.868 429.817 983.98 429.686C984.097 429.551 984.188 429.378 984.253 429.168C984.319 428.953 984.351 428.694 984.351 428.391ZM988.866 426.179C988.913 426.123 988.967 426.074 989.027 426.032C989.093 425.99 989.179 425.969 989.286 425.969H990.189L982.853 435.797C982.811 435.858 982.758 435.907 982.692 435.944C982.627 435.981 982.548 436 982.454 436H981.537L988.866 426.179ZM990.868 433.634C990.868 434.026 990.808 434.376 990.686 434.684C990.565 434.992 990.402 435.253 990.196 435.468C989.996 435.678 989.76 435.839 989.489 435.951C989.223 436.063 988.941 436.119 988.642 436.119C988.325 436.119 988.031 436.063 987.76 435.951C987.494 435.839 987.261 435.678 987.06 435.468C986.864 435.253 986.71 434.992 986.598 434.684C986.486 434.376 986.43 434.026 986.43 433.634C986.43 433.233 986.486 432.876 986.598 432.563C986.71 432.246 986.864 431.98 987.06 431.765C987.261 431.55 987.494 431.387 987.76 431.275C988.031 431.163 988.325 431.107 988.642 431.107C988.955 431.107 989.247 431.163 989.517 431.275C989.793 431.387 990.028 431.55 990.224 431.765C990.425 431.98 990.581 432.246 990.693 432.563C990.81 432.876 990.868 433.233 990.868 433.634ZM989.902 433.634C989.902 433.326 989.87 433.065 989.804 432.85C989.739 432.631 989.648 432.453 989.531 432.318C989.419 432.183 989.286 432.085 989.132 432.024C988.978 431.963 988.815 431.933 988.642 431.933C988.47 431.933 988.306 431.963 988.152 432.024C988.003 432.085 987.872 432.183 987.76 432.318C987.648 432.453 987.56 432.631 987.494 432.85C987.434 433.065 987.403 433.326 987.403 433.634C987.403 433.937 987.434 434.194 987.494 434.404C987.56 434.614 987.648 434.787 987.76 434.922C987.872 435.053 988.003 435.148 988.152 435.209C988.306 435.265 988.47 435.293 988.642 435.293C988.815 435.293 988.978 435.265 989.132 435.209C989.286 435.148 989.419 435.053 989.531 434.922C989.648 434.787 989.739 434.614 989.804 434.404C989.87 434.194 989.902 433.937 989.902 433.634ZM999.646 428.797C1000.16 428.797 1000.63 428.883 1001.05 429.056C1001.46 429.229 1001.82 429.474 1002.11 429.791C1002.4 430.108 1002.63 430.493 1002.78 430.946C1002.94 431.394 1003.02 431.896 1003.02 432.451C1003.02 433.011 1002.94 433.515 1002.78 433.963C1002.63 434.411 1002.4 434.794 1002.11 435.111C1001.82 435.428 1001.46 435.673 1001.05 435.846C1000.63 436.014 1000.16 436.098 999.646 436.098C999.123 436.098 998.652 436.014 998.232 435.846C997.817 435.673 997.462 435.428 997.168 435.111C996.874 434.794 996.648 434.411 996.489 433.963C996.335 433.515 996.258 433.011 996.258 432.451C996.258 431.896 996.335 431.394 996.489 430.946C996.648 430.493 996.874 430.108 997.168 429.791C997.462 429.474 997.817 429.229 998.232 429.056C998.652 428.883 999.123 428.797 999.646 428.797ZM999.646 435.125C1000.35 435.125 1000.87 434.892 1001.21 434.425C1001.56 433.954 1001.73 433.298 1001.73 432.458C1001.73 431.613 1001.56 430.955 1001.21 430.484C1000.87 430.013 1000.35 429.777 999.646 429.777C999.291 429.777 998.981 429.838 998.715 429.959C998.454 430.08 998.234 430.255 998.057 430.484C997.884 430.713 997.754 430.995 997.665 431.331C997.581 431.662 997.539 432.038 997.539 432.458C997.539 433.298 997.712 433.954 998.057 434.425C998.407 434.892 998.937 435.125 999.646 435.125ZM1005.21 436V429.973L1004.43 429.882C1004.33 429.859 1004.25 429.824 1004.18 429.777C1004.12 429.726 1004.09 429.653 1004.09 429.56V429.049H1005.21V428.363C1005.21 427.957 1005.27 427.598 1005.38 427.285C1005.5 426.968 1005.66 426.702 1005.87 426.487C1006.08 426.268 1006.34 426.102 1006.64 425.99C1006.94 425.878 1007.27 425.822 1007.65 425.822C1007.97 425.822 1008.26 425.869 1008.52 425.962L1008.49 426.585C1008.49 426.697 1008.42 426.758 1008.31 426.767C1008.19 426.776 1008.04 426.781 1007.85 426.781C1007.64 426.781 1007.44 426.809 1007.26 426.865C1007.09 426.921 1006.94 427.012 1006.81 427.138C1006.69 427.264 1006.59 427.43 1006.52 427.635C1006.46 427.84 1006.42 428.095 1006.42 428.398V429.049H1008.47V429.952H1006.46V436H1005.21ZM1014.76 430.33C1014.99 429.845 1015.26 429.467 1015.59 429.196C1015.92 428.921 1016.32 428.783 1016.79 428.783C1016.94 428.783 1017.08 428.799 1017.21 428.832C1017.35 428.865 1017.48 428.916 1017.58 428.986L1017.49 429.917C1017.47 430.034 1017.4 430.092 1017.28 430.092C1017.22 430.092 1017.12 430.078 1017 430.05C1016.87 430.022 1016.73 430.008 1016.57 430.008C1016.35 430.008 1016.14 430.041 1015.97 430.106C1015.79 430.171 1015.64 430.269 1015.5 430.4C1015.36 430.526 1015.24 430.685 1015.13 430.876C1015.02 431.063 1014.92 431.277 1014.83 431.52V436H1013.58V428.909H1014.29C1014.43 428.909 1014.52 428.935 1014.57 428.986C1014.63 429.037 1014.66 429.126 1014.68 429.252L1014.76 430.33Z" fill="black"/>
<path d="M786.996 321.989V306.14C786.996 304.192 787.313 302.743 787.947 301.792C788.581 300.842 789.577 300.389 790.936 300.389C791.706 300.389 792.43 300.615 793.064 301.023C793.653 301.43 794.242 302.064 794.694 302.925C795.509 302.064 796.37 301.385 797.275 300.932C798.181 300.479 799.132 300.253 800.038 300.253C801.125 300.253 802.075 300.66 802.845 301.43C803.66 302.2 804.068 303.151 804.068 304.147C804.068 305.732 802.619 307.045 799.721 308.132C798.679 308.54 797.909 308.811 797.366 309.038C796.37 309.536 795.736 310.034 795.374 310.623C795.057 311.166 794.875 312.253 794.875 313.747V321.989C794.875 323.891 794.558 325.34 793.925 326.336C793.245 327.242 792.249 327.74 790.936 327.74C789.577 327.74 788.581 327.242 787.947 326.336C787.313 325.34 786.996 323.891 786.996 321.989ZM811.404 311.075H821.819C821.774 309.808 821.185 308.585 820.234 307.725C819.283 306.819 818.015 306.366 816.702 306.366C815.389 306.366 814.257 306.774 813.26 307.634C812.309 308.54 811.721 309.672 811.404 311.075ZM811.54 316.283C811.721 317.732 812.309 318.909 813.351 319.725C814.438 320.585 815.796 320.947 817.517 320.947C819.011 320.947 820.641 320.54 822.453 319.679C824.309 318.819 825.396 318.411 825.804 318.411C826.709 318.411 827.525 318.683 828.068 319.272C828.657 319.815 828.974 320.585 828.974 321.491C828.974 323.211 827.796 324.706 825.441 326.109C823.087 327.468 820.279 328.147 817.109 328.147C813.215 328.147 809.955 326.834 807.328 324.162C804.747 321.491 803.434 318.14 803.434 314.155C803.434 310.125 804.702 306.774 807.238 304.057C809.774 301.34 812.943 300.026 816.702 300.026C820.37 300.026 823.404 301.294 825.849 303.83C828.34 306.366 829.562 309.445 829.562 313.113C829.562 314.336 829.291 315.151 828.747 315.649C828.204 316.102 827.162 316.374 825.623 316.374H811.54V316.283ZM832.551 294.955C832.551 293.008 832.868 291.558 833.502 290.562C834.136 289.611 835.132 289.158 836.491 289.158C837.804 289.158 838.755 289.657 839.389 290.562C840.068 291.513 840.385 292.962 840.385 294.955V321.989C840.385 323.936 840.068 325.385 839.434 326.336C838.8 327.242 837.804 327.74 836.491 327.74C835.132 327.74 834.136 327.242 833.502 326.336C832.868 325.385 832.551 323.936 832.551 321.989V294.955ZM851.66 313.974C851.66 316.011 852.113 317.642 853.109 318.819C854.06 320.042 855.328 320.675 856.868 320.675C858.408 320.675 859.675 320.087 860.626 318.819C861.577 317.596 862.03 315.966 862.03 313.974C862.03 312.026 861.577 310.442 860.581 309.219C859.585 307.996 858.362 307.362 856.868 307.362C855.328 307.362 854.06 307.951 853.109 309.174C852.158 310.396 851.66 312.026 851.66 313.974ZM843.464 314.019C843.464 309.943 844.732 306.547 847.223 303.921C849.758 301.249 852.928 299.936 856.823 299.936C860.717 299.936 863.932 301.249 866.423 303.921C868.913 306.547 870.136 309.943 870.136 314.019C870.136 318.185 868.868 321.536 866.423 324.208C863.932 326.834 860.762 328.192 856.823 328.192C852.928 328.192 849.713 326.834 847.223 324.208C844.732 321.536 843.464 318.14 843.464 314.019ZM877.426 323.936L870.589 306.457C870.453 306.094 870.362 305.687 870.272 305.325C870.181 305.008 870.136 304.645 870.136 304.328C870.136 303.196 870.543 302.291 871.223 301.521C871.902 300.796 872.898 300.389 873.94 300.389C874.936 300.389 875.751 300.706 876.385 301.294C877.019 301.883 877.562 302.879 878.015 304.238L882.317 317.958L886.574 303.74C886.936 302.653 887.389 301.883 887.977 301.294C888.611 300.751 889.381 300.479 890.287 300.479C891.374 300.479 892.279 300.842 892.958 301.521C893.683 302.245 894 303.151 894 304.328C894 304.691 893.955 305.098 893.864 305.551C893.774 306.004 893.638 306.457 893.411 306.955L886.755 324.208C886.166 325.657 885.532 326.698 884.853 327.242C884.174 327.785 883.268 328.102 882.181 328.102C881.049 328.102 880.098 327.83 879.464 327.242C878.74 326.653 878.06 325.521 877.426 323.936ZM901.789 311.075H912.204C912.113 309.808 911.57 308.585 910.619 307.725C909.668 306.864 908.4 306.366 907.087 306.366C905.728 306.366 904.596 306.774 903.645 307.634C902.694 308.54 902.06 309.672 901.789 311.075ZM901.879 316.283C902.06 317.732 902.694 318.909 903.736 319.725C904.777 320.585 906.136 320.947 907.902 320.947C909.351 320.947 911.026 320.54 912.838 319.679C914.649 318.819 915.781 318.411 916.234 318.411C917.14 318.411 917.909 318.683 918.498 319.272C919.087 319.815 919.404 320.585 919.404 321.491C919.404 323.211 918.181 324.706 915.872 326.109C913.472 327.468 910.709 328.147 907.54 328.147C903.645 328.147 900.385 326.834 897.758 324.162C895.132 321.491 893.864 318.14 893.864 314.155C893.864 310.125 895.087 306.774 897.668 304.057C900.204 301.34 903.328 300.026 907.132 300.026C910.8 300.026 913.834 301.294 916.279 303.83C918.725 306.366 919.947 309.445 919.947 313.113C919.947 314.336 919.721 315.151 919.132 315.649C918.589 316.102 917.592 316.374 916.053 316.374C916.008 316.283 901.879 316.283 901.879 316.283ZM929.321 313.883C929.321 315.875 929.819 317.415 930.77 318.683C931.766 319.906 932.989 320.494 934.483 320.494C936.023 320.494 937.245 319.906 938.196 318.683C939.147 317.46 939.645 315.875 939.645 313.883C939.645 311.891 939.192 310.26 938.242 309.083C937.291 307.815 936.023 307.226 934.483 307.226C932.943 307.226 931.721 307.815 930.77 309.083C929.819 310.306 929.321 311.891 929.321 313.883ZM939.826 325.204C939.011 326.064 938.06 326.789 936.974 327.242C935.887 327.649 934.709 327.921 933.441 327.921C930.136 327.921 927.238 326.517 924.883 323.8C922.483 321.083 921.26 317.777 921.26 313.838C921.26 309.898 922.438 306.638 924.792 303.921C927.192 301.204 930.045 299.936 933.441 299.936C934.664 299.936 935.796 300.117 936.792 300.479C937.789 300.842 938.74 301.385 939.645 302.2V295C939.645 293.053 939.962 291.604 940.596 290.608C941.275 289.657 942.272 289.204 943.63 289.204C944.898 289.204 945.894 289.702 946.528 290.608C947.162 291.558 947.479 293.008 947.479 295V322.034C947.479 323.981 947.162 325.43 946.528 326.381C945.94 327.287 944.943 327.785 943.63 327.785C942.86 327.785 942.136 327.558 941.502 327.106C940.777 326.562 940.189 325.928 939.826 325.204ZM954.815 290.381V291.106H952.777V296.404H951.962V291.106H949.925V290.381H954.815ZM955.947 290.381H957.125L958.845 295.453L960.566 290.381H961.743V296.404H960.974V291.332L959.253 296.404H958.438L956.672 291.332V291.513C956.672 291.649 956.717 291.921 956.717 292.192V296.404H955.947V290.381ZM766.891 308.585H770.377C772.234 308.585 773.592 308.177 774.543 307.362C775.449 306.592 775.947 305.415 775.947 303.83C775.947 302.245 775.494 301.068 774.543 300.298C773.638 299.574 772.234 299.166 770.377 299.166H766.891V308.585ZM766.891 322.079C766.891 323.981 766.528 325.43 765.849 326.426C765.17 327.332 764.174 327.83 762.77 327.83C761.411 327.83 760.415 327.332 759.736 326.426C759.057 325.475 758.74 324.026 758.74 322.079V297.445C758.74 295.272 759.147 293.777 759.962 292.962C760.777 292.147 762.226 291.74 764.309 291.74H771.645C775.675 291.74 778.845 292.826 781.155 295C783.509 297.174 784.687 300.117 784.687 303.83C784.687 307.589 783.6 310.577 781.381 312.706C779.208 314.834 776.219 315.921 772.279 315.921H766.845C766.891 315.966 766.891 322.079 766.891 322.079ZM725.683 310.758L724.958 311.483L715.721 320.766L706.483 311.528L705.758 310.804C703.223 308.268 703.177 304.147 705.758 301.611C708.294 299.075 712.415 299.03 714.996 301.611L715.721 302.336L716.445 301.611C718.981 299.075 723.147 299.03 725.683 301.611C728.219 304.057 728.219 308.177 725.683 310.758ZM715.675 283C701.502 283 690 294.502 690 308.721V309.309C690.045 311.981 690.498 314.517 691.313 316.872C696.702 335.392 715.766 343 715.766 343V334.396C729.894 334.396 741.396 322.894 741.396 308.721C741.396 294.502 729.894 283 715.675 283Z" fill="#FE9E16"/>
<line x1="1022" y1="287.5" x2="1036" y2="287.5" stroke="black"/>
<line x1="1022" y1="337.5" x2="1036" y2="337.5" stroke="black"/>
<line x1="1035.5" y1="338" x2="1035.5" y2="288" stroke="black"/>
<path d="M1048.17 313.33C1048.39 312.845 1048.67 312.467 1049 312.196C1049.32 311.921 1049.72 311.783 1050.19 311.783C1050.34 311.783 1050.48 311.799 1050.62 311.832C1050.76 311.865 1050.88 311.916 1050.99 311.986L1050.9 312.917C1050.87 313.034 1050.8 313.092 1050.69 313.092C1050.62 313.092 1050.53 313.078 1050.4 313.05C1050.28 313.022 1050.13 313.008 1049.98 313.008C1049.75 313.008 1049.55 313.041 1049.37 313.106C1049.2 313.171 1049.05 313.269 1048.91 313.4C1048.77 313.526 1048.65 313.685 1048.53 313.876C1048.43 314.063 1048.33 314.277 1048.24 314.52V319H1046.99V311.909H1047.7C1047.84 311.909 1047.93 311.935 1047.98 311.986C1048.03 312.037 1048.07 312.126 1048.09 312.252L1048.17 313.33Z" fill="black"/>
<defs>
<clipPath id="clip0">
<rect width="293.137" height="50" fill="white" transform="translate(297 288)"/>
</clipPath>
</defs>
</svg>
