<svg width="1204" height="678" viewBox="0 0 1204 678" fill="none" xmlns="http://www.w3.org/2000/svg">
<rect width="1204" height="677.25" fill="white"/>
<line x1="657" y1="349.5" x2="643" y2="349.5" stroke="black"/>
<line x1="657" y1="329.5" x2="643" y2="329.5" stroke="black"/>
<line x1="643.5" y1="329" x2="643.5" y2="349" stroke="black"/>
<path d="M607.909 342.817C608.044 342.817 608.152 342.857 608.231 342.936C608.31 343.015 608.35 343.118 608.35 343.244V344H601.658V343.573C601.658 343.484 601.677 343.393 601.714 343.3C601.751 343.207 601.81 343.12 601.889 343.041L605.102 339.814C605.368 339.543 605.611 339.284 605.83 339.037C606.049 338.785 606.236 338.533 606.39 338.281C606.544 338.029 606.663 337.775 606.747 337.518C606.831 337.257 606.873 336.979 606.873 336.685C606.873 336.391 606.826 336.134 606.733 335.915C606.64 335.691 606.511 335.507 606.348 335.362C606.189 335.217 606 335.11 605.781 335.04C605.562 334.965 605.326 334.928 605.074 334.928C604.817 334.928 604.582 334.965 604.367 335.04C604.152 335.115 603.961 335.22 603.793 335.355C603.63 335.486 603.492 335.642 603.38 335.824C603.268 336.006 603.189 336.207 603.142 336.426C603.086 336.589 603.009 336.699 602.911 336.755C602.818 336.806 602.685 336.82 602.512 336.797L601.861 336.685C601.926 336.228 602.052 335.824 602.239 335.474C602.43 335.119 602.668 334.823 602.953 334.585C603.242 334.347 603.571 334.167 603.94 334.046C604.309 333.92 604.708 333.857 605.137 333.857C605.562 333.857 605.958 333.92 606.327 334.046C606.696 334.172 607.015 334.356 607.286 334.599C607.557 334.837 607.769 335.129 607.923 335.474C608.077 335.819 608.154 336.211 608.154 336.65C608.154 337.023 608.098 337.371 607.986 337.693C607.874 338.01 607.722 338.314 607.531 338.603C607.34 338.892 607.118 339.175 606.866 339.45C606.619 339.725 606.355 340.003 606.075 340.283L603.429 342.985C603.616 342.934 603.805 342.894 603.996 342.866C604.187 342.833 604.372 342.817 604.549 342.817H607.909ZM617.121 338.988C617.121 339.865 617.025 340.626 616.834 341.27C616.647 341.909 616.391 342.439 616.064 342.859C615.737 343.279 615.35 343.592 614.902 343.797C614.459 344.002 613.983 344.105 613.474 344.105C612.961 344.105 612.482 344.002 612.039 343.797C611.6 343.592 611.218 343.279 610.891 342.859C610.564 342.439 610.308 341.909 610.121 341.27C609.934 340.626 609.841 339.865 609.841 338.988C609.841 338.111 609.934 337.35 610.121 336.706C610.308 336.062 610.564 335.53 610.891 335.11C611.218 334.685 611.6 334.37 612.039 334.165C612.482 333.96 612.961 333.857 613.474 333.857C613.983 333.857 614.459 333.96 614.902 334.165C615.35 334.37 615.737 334.685 616.064 335.11C616.391 335.53 616.647 336.062 616.834 336.706C617.025 337.35 617.121 338.111 617.121 338.988ZM615.826 338.988C615.826 338.223 615.761 337.581 615.63 337.063C615.504 336.54 615.331 336.12 615.112 335.803C614.897 335.486 614.648 335.259 614.363 335.124C614.078 334.984 613.782 334.914 613.474 334.914C613.166 334.914 612.87 334.984 612.585 335.124C612.3 335.259 612.051 335.486 611.836 335.803C611.621 336.12 611.449 336.54 611.318 337.063C611.192 337.581 611.129 338.223 611.129 338.988C611.129 339.753 611.192 340.395 611.318 340.913C611.449 341.431 611.621 341.849 611.836 342.166C612.051 342.483 612.3 342.712 612.585 342.852C612.87 342.987 613.166 343.055 613.474 343.055C613.782 343.055 614.078 342.987 614.363 342.852C614.648 342.712 614.897 342.483 615.112 342.166C615.331 341.849 615.504 341.431 615.63 340.913C615.761 340.395 615.826 339.753 615.826 338.988ZM620.082 342.292C620.311 342.6 620.561 342.817 620.831 342.943C621.102 343.069 621.405 343.132 621.741 343.132C622.404 343.132 622.913 342.896 623.267 342.425C623.622 341.954 623.799 341.282 623.799 340.409C623.799 339.947 623.757 339.55 623.673 339.219C623.594 338.888 623.477 338.617 623.323 338.407C623.169 338.192 622.98 338.036 622.756 337.938C622.532 337.84 622.278 337.791 621.993 337.791C621.587 337.791 621.23 337.884 620.922 338.071C620.619 338.258 620.339 338.521 620.082 338.862V342.292ZM620.019 338.008C620.318 337.639 620.663 337.343 621.055 337.119C621.447 336.895 621.895 336.783 622.399 336.783C622.81 336.783 623.181 336.862 623.512 337.021C623.844 337.175 624.126 337.406 624.359 337.714C624.593 338.017 624.772 338.395 624.898 338.848C625.024 339.301 625.087 339.821 625.087 340.409C625.087 340.932 625.017 341.419 624.877 341.872C624.737 342.32 624.534 342.71 624.268 343.041C624.007 343.368 623.685 343.627 623.302 343.818C622.924 344.005 622.497 344.098 622.021 344.098C621.587 344.098 621.214 344.026 620.901 343.881C620.593 343.732 620.32 343.526 620.082 343.265V346.401H618.829V336.909H619.578C619.756 336.909 619.865 336.995 619.907 337.168L620.019 338.008ZM632.527 344H631.33C631.228 344 631.146 343.974 631.085 343.923C631.029 343.867 630.983 343.806 630.945 343.741L629.16 340.962C629.142 341.027 629.121 341.093 629.097 341.158C629.079 341.219 629.051 341.275 629.013 341.326L627.361 343.741C627.315 343.806 627.263 343.867 627.207 343.923C627.156 343.974 627.084 344 626.99 344H625.877L628.362 340.36L625.975 336.909H627.172C627.275 336.909 627.35 336.925 627.396 336.958C627.443 336.991 627.485 337.037 627.522 337.098L629.265 339.758C629.303 339.623 629.361 339.492 629.44 339.366L630.966 337.126C631.008 337.061 631.053 337.009 631.099 336.972C631.151 336.93 631.211 336.909 631.281 336.909H632.429L630.042 340.297L632.527 344Z" fill="black"/>
<g clip-path="url(#clip0)">
<path fill-rule="evenodd" clip-rule="evenodd" d="M715.704 329.107C714.395 329.107 713.594 329.798 713.594 331.21V342.564H713.532L705.859 330.243C705.381 329.445 704.58 329.092 703.671 329.092C701.807 329.092 700.913 329.844 700.913 331.639V346.83C700.913 348.242 701.714 348.932 703.024 348.932C704.333 348.932 705.135 348.242 705.135 346.83V335.797H705.181L712.792 347.766C713.347 348.64 713.809 348.932 715.196 348.932C717.045 348.932 717.785 347.95 717.785 346.216V331.194C717.815 329.798 717.014 329.107 715.704 329.107Z" fill="#41A5DD"/>
<path fill-rule="evenodd" clip-rule="evenodd" d="M732.638 329.107C731.729 329.107 731.251 329.43 730.743 330.381L726.952 337.378L723.131 330.381C722.684 329.537 722.191 329.107 721.159 329.107C720.311 329.107 718.94 329.614 718.94 331.102C718.94 331.501 719.094 331.9 719.31 332.253L724.672 341.137V346.784C724.672 348.088 725.519 348.963 726.86 348.963C728.2 348.963 729.048 348.088 729.048 346.784V341.137L734.41 332.253C734.625 331.9 734.78 331.501 734.78 331.102C734.795 329.614 733.439 329.107 732.638 329.107Z" fill="#41A5DD"/>
<path fill-rule="evenodd" clip-rule="evenodd" d="M752.113 331.056C752.113 329.598 750.989 329.107 749.895 329.107C748.878 329.107 748.246 329.721 747.845 331.025L743.731 344.053H743.685L739.725 331.025C739.325 329.721 738.678 329.107 737.507 329.107C736.413 329.107 735.288 329.583 735.288 331.056C735.288 331.409 735.365 331.823 735.55 332.33L740.943 347.444C741.389 348.687 742.252 348.963 743.608 348.963C744.964 348.963 745.827 348.702 746.274 347.444L751.836 332.33C752.036 331.823 752.113 331.394 752.113 331.056Z" fill="#41A5DD"/>
<path fill-rule="evenodd" clip-rule="evenodd" d="M760.557 330.703C760.079 329.353 759.201 329.107 758.199 329.107H757.152C756.089 329.107 755.395 329.46 755.01 330.442L749.34 345.372C749.186 345.802 748.908 346.569 748.908 347.045C748.908 348.211 749.74 348.963 750.942 348.963C751.99 348.963 752.591 348.61 752.899 347.766L754.055 344.574H761.112L762.236 347.766C762.56 348.61 763.253 348.963 764.209 348.963C765.333 348.963 766.273 348.119 766.273 347.045C766.273 346.569 766.011 345.802 765.842 345.372L760.557 330.703ZM755.025 341.536L757.614 333.849H757.66L760.141 341.536H755.025Z" fill="#41A5DD"/>
<path fill-rule="evenodd" clip-rule="evenodd" d="M782.159 329.107C780.849 329.107 780.048 329.798 780.048 331.21V342.564H780.002L772.329 330.243C771.851 329.445 771.05 329.092 770.141 329.092C768.276 329.092 767.383 329.844 767.383 331.639V346.83C767.383 348.242 768.184 348.932 769.493 348.932C770.803 348.932 771.604 348.242 771.604 346.83V335.797H771.651L779.262 347.766C779.817 348.64 780.279 348.932 781.666 348.932C783.515 348.932 784.254 347.95 784.254 346.216V331.194C784.27 329.798 783.468 329.107 782.159 329.107Z" fill="#41A5DD"/>
<path d="M676.507 347.628C677.783 347.628 678.818 346.597 678.818 345.326C678.818 344.055 677.783 343.025 676.507 343.025C675.23 343.025 674.196 344.055 674.196 345.326C674.196 346.597 675.23 347.628 676.507 347.628Z" fill="#41A5DD"/>
<path fill-rule="evenodd" clip-rule="evenodd" d="M694.626 330.703C694.149 329.353 693.27 329.107 692.269 329.107H691.221C691.129 329.107 691.036 329.107 690.944 329.123H669.496C668.14 329.123 667.031 330.228 667.031 331.578V346.508C667.031 347.858 668.14 348.963 669.496 348.963H684.996V348.947H685.043C686.09 348.947 686.691 348.595 686.999 347.751L688.155 344.559H695.212L696.337 347.751C696.66 348.595 697.354 348.947 698.309 348.947C699.434 348.947 700.358 348.104 700.358 347.029C700.358 346.554 700.096 345.787 699.927 345.357L694.626 330.703ZM676.507 348.15C674.95 348.15 673.672 346.891 673.672 345.326C673.672 343.776 674.935 342.503 676.507 342.503C678.063 342.503 679.342 343.761 679.342 345.326C679.326 346.891 678.063 348.15 676.507 348.15ZM682.5 345.541H679.896C679.896 344.989 679.665 341.92 676.43 341.92C673.194 341.92 673.055 345.572 673.055 345.572H672.362C672.362 345.572 670.343 344.758 669.927 344.544C669.511 344.313 669.465 343.178 669.465 343.178V342.181H669.82V341.168C669.989 339.02 675.274 337.086 675.274 337.086C675.274 337.086 679.711 332.729 680.405 332.115C681.899 330.811 687.955 331.102 687.955 331.102L682.5 345.541ZM689.095 341.536L691.683 333.849H691.73L694.21 341.536H689.095Z" fill="#41A5DD"/>
<path fill-rule="evenodd" clip-rule="evenodd" d="M673.394 339.68C673.209 339.634 672.531 339.634 672.239 339.618C672.146 339.618 672.054 339.649 671.992 339.71C671.853 339.818 671.638 340.032 671.437 340.293C671.206 340.6 671.037 340.984 670.929 341.229C670.852 341.429 671.068 341.444 671.068 341.444L671.576 341.552C671.638 341.567 671.699 341.552 671.746 341.505L673.44 340.032C673.425 340.032 673.672 339.741 673.394 339.68Z" fill="#41A5DD"/>
<path fill-rule="evenodd" clip-rule="evenodd" d="M684.842 332.391C684.611 332.391 682.47 332.621 682.054 332.698C681.638 332.775 681.021 333.25 681.021 333.25L678.386 336.15V337.7L683.964 336.626C683.964 336.626 684.688 336.488 684.796 335.567C684.904 334.647 685.135 332.683 685.135 332.683C685.135 332.683 685.073 332.391 684.842 332.391Z" fill="#41A5DD"/>
</g>
<path d="M466.545 347.655C467.831 347.655 468.873 346.617 468.873 345.337C468.873 344.057 467.831 343.019 466.545 343.019C465.259 343.019 464.217 344.057 464.217 345.337C464.217 346.617 465.259 347.655 466.545 347.655Z" fill="#41A5DD"/>
<path fill-rule="evenodd" clip-rule="evenodd" d="M484.797 330.607C484.316 329.247 483.431 329 482.422 329H481.367C481.274 329 481.18 329 481.087 329.015H459.483C458.117 329.015 457 330.128 457 331.488V346.527C457 347.887 458.117 349 459.483 349H475.097V348.985H475.143C476.199 348.985 476.804 348.629 477.114 347.779L478.278 344.564H485.386L486.519 347.779C486.845 348.629 487.544 348.985 488.506 348.985C489.639 348.985 490.57 348.135 490.57 347.053C490.57 346.573 490.306 345.801 490.136 345.368L484.797 330.607ZM466.545 348.181C464.977 348.181 463.689 346.913 463.689 345.337C463.689 343.776 464.962 342.493 466.545 342.493C468.112 342.493 469.401 343.76 469.401 345.337C469.385 346.913 468.112 348.181 466.545 348.181ZM472.582 345.553H469.959C469.959 344.997 469.727 341.906 466.467 341.906C463.208 341.906 463.068 345.584 463.068 345.584H462.37C462.37 345.584 460.337 344.765 459.918 344.549C459.499 344.317 459.452 343.173 459.452 343.173V342.168H459.809V341.148C459.98 338.985 465.303 337.037 465.303 337.037C465.303 337.037 469.773 332.648 470.471 332.029C471.977 330.716 478.076 331.009 478.076 331.009L472.582 345.553ZM479.225 341.519L481.832 333.776H481.879L484.378 341.519H479.225Z" fill="#41A5DD"/>
<path fill-rule="evenodd" clip-rule="evenodd" d="M463.41 339.649C463.224 339.603 462.541 339.603 462.246 339.587C462.153 339.587 462.06 339.618 461.998 339.68C461.858 339.788 461.641 340.004 461.439 340.267C461.206 340.576 461.035 340.963 460.927 341.21C460.849 341.411 461.066 341.426 461.066 341.426L461.579 341.535C461.641 341.55 461.703 341.535 461.749 341.488L463.456 340.004C463.441 340.004 463.689 339.711 463.41 339.649Z" fill="#41A5DD"/>
<path fill-rule="evenodd" clip-rule="evenodd" d="M474.941 332.307C474.708 332.307 472.551 332.539 472.132 332.617C471.713 332.694 471.092 333.173 471.092 333.173L468.438 336.094V337.655L474.056 336.573C474.056 336.573 474.786 336.434 474.895 335.507C475.003 334.58 475.236 332.601 475.236 332.601C475.236 332.601 475.174 332.307 474.941 332.307Z" fill="#41A5DD"/>
<line x1="447" y1="349.5" x2="433" y2="349.5" stroke="black"/>
<line x1="447" y1="329.5" x2="433" y2="329.5" stroke="black"/>
<line x1="433.5" y1="329" x2="433.5" y2="349" stroke="black"/>
<path d="M397.909 342.817C398.044 342.817 398.152 342.857 398.231 342.936C398.31 343.015 398.35 343.118 398.35 343.244V344H391.658V343.573C391.658 343.484 391.677 343.393 391.714 343.3C391.751 343.207 391.81 343.12 391.889 343.041L395.102 339.814C395.368 339.543 395.611 339.284 395.83 339.037C396.049 338.785 396.236 338.533 396.39 338.281C396.544 338.029 396.663 337.775 396.747 337.518C396.831 337.257 396.873 336.979 396.873 336.685C396.873 336.391 396.826 336.134 396.733 335.915C396.64 335.691 396.511 335.507 396.348 335.362C396.189 335.217 396 335.11 395.781 335.04C395.562 334.965 395.326 334.928 395.074 334.928C394.817 334.928 394.582 334.965 394.367 335.04C394.152 335.115 393.961 335.22 393.793 335.355C393.63 335.486 393.492 335.642 393.38 335.824C393.268 336.006 393.189 336.207 393.142 336.426C393.086 336.589 393.009 336.699 392.911 336.755C392.818 336.806 392.685 336.82 392.512 336.797L391.861 336.685C391.926 336.228 392.052 335.824 392.239 335.474C392.43 335.119 392.668 334.823 392.953 334.585C393.242 334.347 393.571 334.167 393.94 334.046C394.309 333.92 394.708 333.857 395.137 333.857C395.562 333.857 395.958 333.92 396.327 334.046C396.696 334.172 397.015 334.356 397.286 334.599C397.557 334.837 397.769 335.129 397.923 335.474C398.077 335.819 398.154 336.211 398.154 336.65C398.154 337.023 398.098 337.371 397.986 337.693C397.874 338.01 397.722 338.314 397.531 338.603C397.34 338.892 397.118 339.175 396.866 339.45C396.619 339.725 396.355 340.003 396.075 340.283L393.429 342.985C393.616 342.934 393.805 342.894 393.996 342.866C394.187 342.833 394.372 342.817 394.549 342.817H397.909ZM407.121 338.988C407.121 339.865 407.025 340.626 406.834 341.27C406.647 341.909 406.391 342.439 406.064 342.859C405.737 343.279 405.35 343.592 404.902 343.797C404.459 344.002 403.983 344.105 403.474 344.105C402.961 344.105 402.482 344.002 402.039 343.797C401.6 343.592 401.218 343.279 400.891 342.859C400.564 342.439 400.308 341.909 400.121 341.27C399.934 340.626 399.841 339.865 399.841 338.988C399.841 338.111 399.934 337.35 400.121 336.706C400.308 336.062 400.564 335.53 400.891 335.11C401.218 334.685 401.6 334.37 402.039 334.165C402.482 333.96 402.961 333.857 403.474 333.857C403.983 333.857 404.459 333.96 404.902 334.165C405.35 334.37 405.737 334.685 406.064 335.11C406.391 335.53 406.647 336.062 406.834 336.706C407.025 337.35 407.121 338.111 407.121 338.988ZM405.826 338.988C405.826 338.223 405.761 337.581 405.63 337.063C405.504 336.54 405.331 336.12 405.112 335.803C404.897 335.486 404.648 335.259 404.363 335.124C404.078 334.984 403.782 334.914 403.474 334.914C403.166 334.914 402.87 334.984 402.585 335.124C402.3 335.259 402.051 335.486 401.836 335.803C401.621 336.12 401.449 336.54 401.318 337.063C401.192 337.581 401.129 338.223 401.129 338.988C401.129 339.753 401.192 340.395 401.318 340.913C401.449 341.431 401.621 341.849 401.836 342.166C402.051 342.483 402.3 342.712 402.585 342.852C402.87 342.987 403.166 343.055 403.474 343.055C403.782 343.055 404.078 342.987 404.363 342.852C404.648 342.712 404.897 342.483 405.112 342.166C405.331 341.849 405.504 341.431 405.63 340.913C405.761 340.395 405.826 339.753 405.826 338.988ZM410.082 342.292C410.311 342.6 410.561 342.817 410.831 342.943C411.102 343.069 411.405 343.132 411.741 343.132C412.404 343.132 412.913 342.896 413.267 342.425C413.622 341.954 413.799 341.282 413.799 340.409C413.799 339.947 413.757 339.55 413.673 339.219C413.594 338.888 413.477 338.617 413.323 338.407C413.169 338.192 412.98 338.036 412.756 337.938C412.532 337.84 412.278 337.791 411.993 337.791C411.587 337.791 411.23 337.884 410.922 338.071C410.619 338.258 410.339 338.521 410.082 338.862V342.292ZM410.019 338.008C410.318 337.639 410.663 337.343 411.055 337.119C411.447 336.895 411.895 336.783 412.399 336.783C412.81 336.783 413.181 336.862 413.512 337.021C413.844 337.175 414.126 337.406 414.359 337.714C414.593 338.017 414.772 338.395 414.898 338.848C415.024 339.301 415.087 339.821 415.087 340.409C415.087 340.932 415.017 341.419 414.877 341.872C414.737 342.32 414.534 342.71 414.268 343.041C414.007 343.368 413.685 343.627 413.302 343.818C412.924 344.005 412.497 344.098 412.021 344.098C411.587 344.098 411.214 344.026 410.901 343.881C410.593 343.732 410.32 343.526 410.082 343.265V346.401H408.829V336.909H409.578C409.756 336.909 409.865 336.995 409.907 337.168L410.019 338.008ZM422.527 344H421.33C421.228 344 421.146 343.974 421.085 343.923C421.029 343.867 420.983 343.806 420.945 343.741L419.16 340.962C419.142 341.027 419.121 341.093 419.097 341.158C419.079 341.219 419.051 341.275 419.013 341.326L417.361 343.741C417.315 343.806 417.263 343.867 417.207 343.923C417.156 343.974 417.084 344 416.99 344H415.877L418.362 340.36L415.975 336.909H417.172C417.275 336.909 417.35 336.925 417.396 336.958C417.443 336.991 417.485 337.037 417.522 337.098L419.265 339.758C419.303 339.623 419.361 339.492 419.44 339.366L420.966 337.126C421.008 337.061 421.053 337.009 421.099 336.972C421.151 336.93 421.211 336.909 421.281 336.909H422.429L420.042 340.297L422.527 344Z" fill="black"/>
<defs>
<clipPath id="clip0">
<rect width="117.255" height="20" fill="white" transform="translate(667 329)"/>
</clipPath>
</defs>
</svg>
