<svg width="1204" height="678" viewBox="0 0 1204 678" fill="none" xmlns="http://www.w3.org/2000/svg">
<rect width="1204" height="677.25" fill="white"/>
<rect x="30" y="635" width="542" height="5" rx="2.5" fill="#70C216"/>
<path d="M43.8214 618.085C43.8214 619.098 43.6524 620.029 43.3145 620.877C42.9765 621.726 42.5015 622.456 41.8893 623.068C41.2771 623.68 40.5406 624.155 39.6798 624.493C38.8189 624.831 37.8624 625 36.8103 625H31.54V611.169H36.8103C37.8624 611.169 38.8189 611.341 39.6798 611.686C40.5406 612.023 41.2771 612.499 41.8893 613.111C42.5015 613.716 42.9765 614.443 43.3145 615.292C43.6524 616.14 43.8214 617.071 43.8214 618.085ZM41.1815 618.085C41.1815 617.326 41.0795 616.647 40.8754 616.047C40.6777 615.441 40.3876 614.931 40.005 614.517C39.6288 614.096 39.1696 613.774 38.6276 613.551C38.092 613.328 37.4862 613.216 36.8103 613.216H34.1225V622.953H36.8103C37.4862 622.953 38.092 622.841 38.6276 622.618C39.1696 622.395 39.6288 622.076 40.005 621.662C40.3876 621.241 40.6777 620.731 40.8754 620.131C41.0795 619.526 41.1815 618.843 41.1815 618.085ZM50.5317 615.033C51.2586 615.033 51.9186 615.151 52.5116 615.387C53.111 615.623 53.6212 615.958 54.042 616.392C54.4693 616.825 54.7977 617.354 55.0272 617.979C55.2568 618.604 55.3716 619.302 55.3716 620.074C55.3716 620.852 55.2568 621.553 55.0272 622.178C54.7977 622.803 54.4693 623.336 54.042 623.776C53.6212 624.216 53.111 624.554 52.5116 624.79C51.9186 625.026 51.2586 625.143 50.5317 625.143C49.7983 625.143 49.132 625.026 48.5326 624.79C47.9332 624.554 47.4199 624.216 46.9926 623.776C46.5718 623.336 46.2434 622.803 46.0074 622.178C45.7779 621.553 45.6631 620.852 45.6631 620.074C45.6631 619.302 45.7779 618.604 46.0074 617.979C46.2434 617.354 46.5718 616.825 46.9926 616.392C47.4199 615.958 47.9332 615.623 48.5326 615.387C49.132 615.151 49.7983 615.033 50.5317 615.033ZM50.5317 623.326C51.3479 623.326 51.9505 623.052 52.3395 622.504C52.7348 621.955 52.9325 621.152 52.9325 620.093C52.9325 619.035 52.7348 618.228 52.3395 617.673C51.9505 617.118 51.3479 616.841 50.5317 616.841C49.7027 616.841 49.0874 617.122 48.6856 617.683C48.2903 618.238 48.0926 619.041 48.0926 620.093C48.0926 621.145 48.2903 621.949 48.6856 622.504C49.0874 623.052 49.7027 623.326 50.5317 623.326Z" fill="#70C216"/>
<rect x="632" y="635" width="542" height="5" fill="#F74F64"/>
<path d="M645.821 618.085C645.821 619.098 645.652 620.029 645.314 620.877C644.977 621.726 644.501 622.456 643.889 623.068C643.277 623.68 642.541 624.155 641.68 624.493C640.819 624.831 639.862 625 638.81 625H633.54V611.169H638.81C639.862 611.169 640.819 611.341 641.68 611.686C642.541 612.023 643.277 612.499 643.889 613.111C644.501 613.716 644.977 614.443 645.314 615.292C645.652 616.14 645.821 617.071 645.821 618.085ZM643.181 618.085C643.181 617.326 643.079 616.647 642.875 616.047C642.678 615.441 642.388 614.931 642.005 614.517C641.629 614.096 641.17 613.774 640.628 613.551C640.092 613.328 639.486 613.216 638.81 613.216H636.123V622.953H638.81C639.486 622.953 640.092 622.841 640.628 622.618C641.17 622.395 641.629 622.076 642.005 621.662C642.388 621.241 642.678 620.731 642.875 620.131C643.079 619.526 643.181 618.843 643.181 618.085ZM652.532 615.033C653.259 615.033 653.919 615.151 654.512 615.387C655.111 615.623 655.621 615.958 656.042 616.392C656.469 616.825 656.798 617.354 657.027 617.979C657.257 618.604 657.372 619.302 657.372 620.074C657.372 620.852 657.257 621.553 657.027 622.178C656.798 622.803 656.469 623.336 656.042 623.776C655.621 624.216 655.111 624.554 654.512 624.79C653.919 625.026 653.259 625.143 652.532 625.143C651.798 625.143 651.132 625.026 650.533 624.79C649.933 624.554 649.42 624.216 648.993 623.776C648.572 623.336 648.243 622.803 648.007 622.178C647.778 621.553 647.663 620.852 647.663 620.074C647.663 619.302 647.778 618.604 648.007 617.979C648.243 617.354 648.572 616.825 648.993 616.392C649.42 615.958 649.933 615.623 650.533 615.387C651.132 615.151 651.798 615.033 652.532 615.033ZM652.532 623.326C653.348 623.326 653.95 623.052 654.339 622.504C654.735 621.955 654.932 621.152 654.932 620.093C654.932 619.035 654.735 618.228 654.339 617.673C653.95 617.118 653.348 616.841 652.532 616.841C651.703 616.841 651.087 617.122 650.686 617.683C650.29 618.238 650.093 619.041 650.093 620.093C650.093 621.145 650.29 621.949 650.686 622.504C651.087 623.052 651.703 623.326 652.532 623.326ZM661.983 616.392C662.181 616.194 662.388 616.012 662.605 615.846C662.828 615.674 663.061 615.531 663.303 615.416C663.552 615.295 663.817 615.202 664.097 615.138C664.378 615.068 664.684 615.033 665.016 615.033C665.551 615.033 666.026 615.126 666.441 615.311C666.855 615.489 667.2 615.744 667.474 616.076C667.754 616.401 667.965 616.793 668.105 617.252C668.252 617.705 668.325 618.206 668.325 618.754V625H665.963V618.754C665.963 618.155 665.825 617.692 665.551 617.367C665.277 617.036 664.859 616.87 664.298 616.87C663.89 616.87 663.507 616.962 663.15 617.147C662.793 617.332 662.455 617.584 662.137 617.903V625H659.774V615.186H661.218C661.524 615.186 661.725 615.33 661.821 615.617L661.983 616.392ZM672.499 610.241C672.805 610.745 673.012 611.271 673.12 611.819C673.229 612.361 673.238 612.9 673.149 613.436C673.06 613.965 672.872 614.475 672.585 614.966C672.304 615.451 671.925 615.888 671.446 616.277L670.7 615.827C670.637 615.789 670.592 615.744 670.567 615.693C670.541 615.636 670.528 615.582 670.528 615.531C670.535 615.473 670.547 615.419 670.567 615.368C670.592 615.317 670.624 615.272 670.662 615.234C670.796 615.075 670.924 614.864 671.045 614.603C671.166 614.341 671.249 614.048 671.293 613.723C671.344 613.398 671.338 613.05 671.274 612.68C671.217 612.31 671.073 611.941 670.844 611.571C670.735 611.386 670.704 611.226 670.748 611.092C670.799 610.952 670.904 610.853 671.064 610.796L672.499 610.241ZM678.985 625.153C678.131 625.153 677.474 624.914 677.015 624.436C676.562 623.951 676.335 623.285 676.335 622.437V616.956H675.331C675.204 616.956 675.095 616.914 675.006 616.831C674.917 616.749 674.872 616.624 674.872 616.458V615.521L676.45 615.263L676.948 612.585C676.98 612.457 677.04 612.358 677.129 612.288C677.219 612.218 677.333 612.183 677.474 612.183H678.698V615.272H681.319V616.956H678.698V622.274C678.698 622.58 678.771 622.819 678.918 622.991C679.071 623.164 679.278 623.25 679.54 623.25C679.686 623.25 679.808 623.234 679.903 623.202C680.005 623.164 680.091 623.125 680.161 623.087C680.238 623.049 680.305 623.014 680.362 622.982C680.42 622.944 680.477 622.924 680.535 622.924C680.605 622.924 680.662 622.944 680.707 622.982C680.751 623.014 680.799 623.065 680.85 623.135L681.558 624.283C681.214 624.57 680.818 624.786 680.372 624.933C679.926 625.08 679.463 625.153 678.985 625.153Z" fill="#F74F64"/>
<g clip-path="url(#clip0)">
<path fill-rule="evenodd" clip-rule="evenodd" d="M275.76 276.269C272.486 276.269 270.483 277.995 270.483 281.524V309.911H270.329L251.146 279.107C249.952 277.113 247.949 276.23 245.676 276.23C241.016 276.23 238.781 278.11 238.781 282.598V320.575C238.781 324.104 240.784 325.83 244.058 325.83C247.333 325.83 249.336 324.104 249.336 320.575V292.994H249.451L268.48 322.915C269.867 325.101 271.022 325.83 274.489 325.83C279.112 325.83 280.961 323.375 280.961 319.041V281.486C281.037 277.995 279.035 276.269 275.76 276.269Z" fill="#41A5DD"/>
<path fill-rule="evenodd" clip-rule="evenodd" d="M318.094 276.269C315.821 276.269 314.627 277.074 313.356 279.452L303.88 296.945L294.327 279.452C293.21 277.343 291.977 276.269 289.396 276.269C287.278 276.269 283.85 277.534 283.85 281.255C283.85 282.253 284.235 283.25 284.774 284.132L298.179 306.343V320.46C298.179 323.72 300.298 325.907 303.649 325.907C307 325.907 309.119 323.72 309.119 320.46V306.343L322.523 284.132C323.063 283.25 323.448 282.253 323.448 281.255C323.487 277.534 320.097 276.269 318.094 276.269Z" fill="#41A5DD"/>
<path fill-rule="evenodd" clip-rule="evenodd" d="M366.784 281.14C366.784 277.496 363.972 276.269 361.237 276.269C358.695 276.269 357.116 277.803 356.114 281.064L345.83 313.632H345.714L335.814 281.064C334.813 277.803 333.195 276.269 330.267 276.269C327.532 276.269 324.721 277.458 324.721 281.14C324.721 282.023 324.913 283.058 325.375 284.324L338.857 322.109C339.974 325.216 342.131 325.907 345.521 325.907C348.911 325.907 351.068 325.255 352.185 322.109L366.091 284.324C366.592 283.058 366.784 281.984 366.784 281.14Z" fill="#41A5DD"/>
<path fill-rule="evenodd" clip-rule="evenodd" d="M387.892 280.258C386.698 276.882 384.503 276.269 381.999 276.269H379.38C376.722 276.269 374.988 277.151 374.025 279.606L359.85 316.931C359.465 318.005 358.771 319.923 358.771 321.112C358.771 324.027 360.852 325.907 363.856 325.907C366.475 325.907 367.978 325.025 368.748 322.915L371.637 314.936H389.279L392.091 322.915C392.9 325.025 394.634 325.907 397.022 325.907C399.834 325.907 402.183 323.797 402.183 321.112C402.183 319.923 401.529 318.005 401.105 316.931L387.892 280.258ZM374.064 307.34L380.535 288.122H380.651L386.853 307.34H374.064Z" fill="#41A5DD"/>
<path fill-rule="evenodd" clip-rule="evenodd" d="M441.898 276.269C438.623 276.269 436.62 277.995 436.62 281.524V309.911H436.505L417.322 279.107C416.128 277.113 414.125 276.23 411.852 276.23C407.191 276.23 404.957 278.11 404.957 282.598V320.575C404.957 324.104 406.96 325.83 410.234 325.83C413.508 325.83 415.512 324.104 415.512 320.575V292.994H415.627L434.656 322.915C436.043 325.101 437.198 325.83 440.665 325.83C445.287 325.83 447.136 323.375 447.136 319.041V281.486C447.175 277.995 445.172 276.269 441.898 276.269Z" fill="#41A5DD"/>
<path d="M177.766 322.57C180.957 322.57 183.544 319.993 183.544 316.815C183.544 313.638 180.957 311.061 177.766 311.061C174.575 311.061 171.988 313.638 171.988 316.815C171.988 319.993 174.575 322.57 177.766 322.57Z" fill="#41A5DD"/>
<path fill-rule="evenodd" clip-rule="evenodd" d="M223.065 280.258C221.871 276.882 219.675 276.269 217.172 276.269H214.552C214.321 276.269 214.09 276.269 213.859 276.307H160.239C156.85 276.307 154.076 279.069 154.076 282.445V319.769C154.076 323.145 156.85 325.907 160.239 325.907H198.99V325.869H199.106C201.725 325.869 203.228 324.986 203.998 322.876L206.887 314.897H224.529L227.341 322.876C228.15 324.986 229.883 325.869 232.271 325.869C235.083 325.869 237.395 323.759 237.395 321.074C237.395 319.884 236.74 317.966 236.316 316.892L223.065 280.258ZM177.766 323.874C173.875 323.874 170.678 320.728 170.678 316.815C170.678 312.941 173.837 309.757 177.766 309.757C181.656 309.757 184.853 312.903 184.853 316.815C184.815 320.728 181.656 323.874 177.766 323.874ZM192.75 317.353H186.24C186.24 315.972 185.662 308.299 177.573 308.299C169.484 308.299 169.137 317.429 169.137 317.429H167.404C167.404 317.429 162.358 315.396 161.318 314.859C160.278 314.284 160.162 311.445 160.162 311.445V308.952H161.048V306.42C161.472 301.049 174.684 296.216 174.684 296.216C174.684 296.216 185.778 285.322 187.511 283.787C191.248 280.527 206.386 281.255 206.386 281.255L192.75 317.353ZM209.236 307.34L215.708 288.122H215.823L222.025 307.34H209.236Z" fill="#41A5DD"/>
<path fill-rule="evenodd" clip-rule="evenodd" d="M169.986 302.699C169.524 302.584 167.829 302.584 167.097 302.545C166.866 302.545 166.635 302.622 166.481 302.776C166.134 303.044 165.595 303.581 165.094 304.233C164.516 305 164.092 305.959 163.823 306.573C163.63 307.072 164.169 307.11 164.169 307.11L165.441 307.379C165.595 307.417 165.749 307.379 165.864 307.264L170.102 303.581C170.063 303.581 170.679 302.852 169.986 302.699Z" fill="#41A5DD"/>
<path fill-rule="evenodd" clip-rule="evenodd" d="M198.607 284.478C198.029 284.478 192.675 285.053 191.635 285.245C190.594 285.437 189.054 286.626 189.054 286.626L182.467 293.876V297.75L196.411 295.065C196.411 295.065 198.221 294.72 198.491 292.418C198.761 290.117 199.339 285.206 199.339 285.206C199.339 285.206 199.184 284.478 198.607 284.478Z" fill="#41A5DD"/>
</g>
<g filter="url(#filter0_d)">
<path fill-rule="evenodd" clip-rule="evenodd" d="M877.76 276.269C874.486 276.269 872.483 277.995 872.483 281.524V309.911H872.329L853.146 279.107C851.952 277.113 849.949 276.23 847.676 276.23C843.016 276.23 840.781 278.11 840.781 282.598V320.575C840.781 324.104 842.784 325.83 846.058 325.83C849.333 325.83 851.336 324.104 851.336 320.575V292.994H851.451L870.48 322.915C871.867 325.101 873.022 325.83 876.489 325.83C881.112 325.83 882.961 323.375 882.961 319.041V281.486C883.037 277.995 881.035 276.269 877.76 276.269Z" fill="#41A5DD"/>
</g>
<g filter="url(#filter1_d)">
<path fill-rule="evenodd" clip-rule="evenodd" d="M920.094 276.269C917.821 276.269 916.627 277.074 915.356 279.452L905.88 296.945L896.327 279.452C895.21 277.343 893.977 276.269 891.396 276.269C889.278 276.269 885.85 277.534 885.85 281.255C885.85 282.253 886.235 283.25 886.774 284.132L900.179 306.343V320.46C900.179 323.72 902.298 325.907 905.649 325.907C909 325.907 911.119 323.72 911.119 320.46V306.343L924.523 284.132C925.063 283.25 925.448 282.253 925.448 281.255C925.487 277.534 922.097 276.269 920.094 276.269Z" fill="#41A5DD"/>
</g>
<g filter="url(#filter2_d)">
<path fill-rule="evenodd" clip-rule="evenodd" d="M968.784 281.14C968.784 277.496 965.972 276.269 963.237 276.269C960.695 276.269 959.116 277.803 958.114 281.064L947.83 313.632H947.714L937.814 281.064C936.813 277.803 935.195 276.269 932.267 276.269C929.532 276.269 926.721 277.458 926.721 281.14C926.721 282.023 926.913 283.058 927.375 284.324L940.857 322.109C941.974 325.216 944.131 325.907 947.521 325.907C950.911 325.907 953.068 325.255 954.185 322.109L968.091 284.324C968.592 283.058 968.784 281.984 968.784 281.14Z" fill="#41A5DD"/>
</g>
<g filter="url(#filter3_d)">
<path fill-rule="evenodd" clip-rule="evenodd" d="M989.892 280.258C988.698 276.882 986.503 276.269 983.999 276.269H981.38C978.722 276.269 976.988 277.151 976.025 279.606L961.85 316.931C961.465 318.005 960.771 319.923 960.771 321.112C960.771 324.027 962.852 325.907 965.856 325.907C968.475 325.907 969.978 325.025 970.748 322.915L973.637 314.936H991.279L994.091 322.915C994.9 325.025 996.634 325.907 999.022 325.907C1001.83 325.907 1004.18 323.797 1004.18 321.112C1004.18 319.923 1003.53 318.005 1003.1 316.931L989.892 280.258ZM976.064 307.34L982.535 288.122H982.651L988.853 307.34H976.064Z" fill="#41A5DD"/>
</g>
<g filter="url(#filter4_d)">
<path fill-rule="evenodd" clip-rule="evenodd" d="M1043.9 276.269C1040.62 276.269 1038.62 277.995 1038.62 281.524V309.911H1038.5L1019.32 279.107C1018.13 277.113 1016.12 276.23 1013.85 276.23C1009.19 276.23 1006.96 278.11 1006.96 282.598V320.575C1006.96 324.104 1008.96 325.83 1012.23 325.83C1015.51 325.83 1017.51 324.104 1017.51 320.575V292.994H1017.63L1036.66 322.915C1038.04 325.101 1039.2 325.83 1042.66 325.83C1047.29 325.83 1049.14 323.375 1049.14 319.041V281.486C1049.17 277.995 1047.17 276.269 1043.9 276.269Z" fill="#41A5DD"/>
</g>
<g filter="url(#filter5_d)">
<path d="M779.766 322.57C782.957 322.57 785.544 319.993 785.544 316.815C785.544 313.638 782.957 311.061 779.766 311.061C776.575 311.061 773.988 313.638 773.988 316.815C773.988 319.993 776.575 322.57 779.766 322.57Z" fill="#41A5DD"/>
</g>
<g filter="url(#filter6_d)">
<path fill-rule="evenodd" clip-rule="evenodd" d="M825.065 280.258C823.871 276.882 821.675 276.269 819.172 276.269H816.552C816.321 276.269 816.09 276.269 815.859 276.307H762.239C758.85 276.307 756.076 279.069 756.076 282.445V319.769C756.076 323.145 758.85 325.907 762.239 325.907H800.99V325.869H801.106C803.725 325.869 805.228 324.986 805.998 322.876L808.887 314.897H826.529L829.341 322.876C830.15 324.986 831.883 325.869 834.271 325.869C837.083 325.869 839.395 323.759 839.395 321.074C839.395 319.884 838.74 317.966 838.316 316.892L825.065 280.258ZM779.766 323.874C775.875 323.874 772.678 320.728 772.678 316.815C772.678 312.941 775.837 309.757 779.766 309.757C783.656 309.757 786.853 312.903 786.853 316.815C786.815 320.728 783.656 323.874 779.766 323.874ZM794.75 317.353H788.24C788.24 315.972 787.662 308.299 779.573 308.299C771.484 308.299 771.137 317.429 771.137 317.429H769.404C769.404 317.429 764.358 315.396 763.318 314.859C762.278 314.284 762.162 311.445 762.162 311.445V308.952H763.048V306.42C763.472 301.049 776.684 296.216 776.684 296.216C776.684 296.216 787.778 285.322 789.511 283.787C793.248 280.527 808.386 281.255 808.386 281.255L794.75 317.353ZM811.236 307.34L817.708 288.122H817.823L824.025 307.34H811.236Z" fill="#41A5DD"/>
</g>
<g filter="url(#filter7_d)">
<path fill-rule="evenodd" clip-rule="evenodd" d="M771.986 302.699C771.524 302.584 769.829 302.584 769.097 302.545C768.866 302.545 768.635 302.622 768.481 302.776C768.134 303.044 767.595 303.581 767.094 304.233C766.516 305 766.092 305.959 765.823 306.573C765.63 307.072 766.169 307.11 766.169 307.11L767.441 307.379C767.595 307.417 767.749 307.379 767.864 307.264L772.102 303.581C772.063 303.581 772.679 302.852 771.986 302.699Z" fill="#41A5DD"/>
</g>
<g filter="url(#filter8_d)">
<path fill-rule="evenodd" clip-rule="evenodd" d="M800.607 284.478C800.029 284.478 794.675 285.053 793.635 285.245C792.594 285.437 791.054 286.626 791.054 286.626L784.467 293.876V297.75L798.411 295.065C798.411 295.065 800.221 294.72 800.491 292.418C800.761 290.117 801.339 285.206 801.339 285.206C801.339 285.206 801.184 284.478 800.607 284.478Z" fill="#41A5DD"/>
</g>
<defs>
<filter id="filter0_d" x="840.781" y="276.23" width="50.1816" height="57.5999" filterUnits="userSpaceOnUse" color-interpolation-filters="sRGB">
<feFlood flood-opacity="0" result="BackgroundImageFix"/>
<feColorMatrix in="SourceAlpha" type="matrix" values="0 0 0 0 0 0 0 0 0 0 0 0 0 0 0 0 0 0 127 0" result="hardAlpha"/>
<feOffset dx="4" dy="4"/>
<feGaussianBlur stdDeviation="2"/>
<feComposite in2="hardAlpha" operator="out"/>
<feColorMatrix type="matrix" values="0 0 0 0 0 0 0 0 0 0 0 0 0 0 0 0 0 0 0.25 0"/>
<feBlend mode="normal" in2="BackgroundImageFix" result="effect1_dropShadow"/>
<feBlend mode="normal" in="SourceGraphic" in2="effect1_dropShadow" result="shape"/>
</filter>
<filter id="filter1_d" x="885.85" y="276.269" width="47.5996" height="57.6383" filterUnits="userSpaceOnUse" color-interpolation-filters="sRGB">
<feFlood flood-opacity="0" result="BackgroundImageFix"/>
<feColorMatrix in="SourceAlpha" type="matrix" values="0 0 0 0 0 0 0 0 0 0 0 0 0 0 0 0 0 0 127 0" result="hardAlpha"/>
<feOffset dx="4" dy="4"/>
<feGaussianBlur stdDeviation="2"/>
<feComposite in2="hardAlpha" operator="out"/>
<feColorMatrix type="matrix" values="0 0 0 0 0 0 0 0 0 0 0 0 0 0 0 0 0 0 0.25 0"/>
<feBlend mode="normal" in2="BackgroundImageFix" result="effect1_dropShadow"/>
<feBlend mode="normal" in="SourceGraphic" in2="effect1_dropShadow" result="shape"/>
</filter>
<filter id="filter2_d" x="926.721" y="276.269" width="50.0625" height="57.6383" filterUnits="userSpaceOnUse" color-interpolation-filters="sRGB">
<feFlood flood-opacity="0" result="BackgroundImageFix"/>
<feColorMatrix in="SourceAlpha" type="matrix" values="0 0 0 0 0 0 0 0 0 0 0 0 0 0 0 0 0 0 127 0" result="hardAlpha"/>
<feOffset dx="4" dy="4"/>
<feGaussianBlur stdDeviation="2"/>
<feComposite in2="hardAlpha" operator="out"/>
<feColorMatrix type="matrix" values="0 0 0 0 0 0 0 0 0 0 0 0 0 0 0 0 0 0 0.25 0"/>
<feBlend mode="normal" in2="BackgroundImageFix" result="effect1_dropShadow"/>
<feBlend mode="normal" in="SourceGraphic" in2="effect1_dropShadow" result="shape"/>
</filter>
<filter id="filter3_d" x="960.771" y="276.269" width="51.4121" height="57.6383" filterUnits="userSpaceOnUse" color-interpolation-filters="sRGB">
<feFlood flood-opacity="0" result="BackgroundImageFix"/>
<feColorMatrix in="SourceAlpha" type="matrix" values="0 0 0 0 0 0 0 0 0 0 0 0 0 0 0 0 0 0 127 0" result="hardAlpha"/>
<feOffset dx="4" dy="4"/>
<feGaussianBlur stdDeviation="2"/>
<feComposite in2="hardAlpha" operator="out"/>
<feColorMatrix type="matrix" values="0 0 0 0 0 0 0 0 0 0 0 0 0 0 0 0 0 0 0.25 0"/>
<feBlend mode="normal" in2="BackgroundImageFix" result="effect1_dropShadow"/>
<feBlend mode="normal" in="SourceGraphic" in2="effect1_dropShadow" result="shape"/>
</filter>
<filter id="filter4_d" x="1006.96" y="276.23" width="50.1797" height="57.5999" filterUnits="userSpaceOnUse" color-interpolation-filters="sRGB">
<feFlood flood-opacity="0" result="BackgroundImageFix"/>
<feColorMatrix in="SourceAlpha" type="matrix" values="0 0 0 0 0 0 0 0 0 0 0 0 0 0 0 0 0 0 127 0" result="hardAlpha"/>
<feOffset dx="4" dy="4"/>
<feGaussianBlur stdDeviation="2"/>
<feComposite in2="hardAlpha" operator="out"/>
<feColorMatrix type="matrix" values="0 0 0 0 0 0 0 0 0 0 0 0 0 0 0 0 0 0 0.25 0"/>
<feBlend mode="normal" in2="BackgroundImageFix" result="effect1_dropShadow"/>
<feBlend mode="normal" in="SourceGraphic" in2="effect1_dropShadow" result="shape"/>
</filter>
<filter id="filter5_d" x="773.988" y="311.061" width="19.5566" height="19.5082" filterUnits="userSpaceOnUse" color-interpolation-filters="sRGB">
<feFlood flood-opacity="0" result="BackgroundImageFix"/>
<feColorMatrix in="SourceAlpha" type="matrix" values="0 0 0 0 0 0 0 0 0 0 0 0 0 0 0 0 0 0 127 0" result="hardAlpha"/>
<feOffset dx="4" dy="4"/>
<feGaussianBlur stdDeviation="2"/>
<feComposite in2="hardAlpha" operator="out"/>
<feColorMatrix type="matrix" values="0 0 0 0 0 0 0 0 0 0 0 0 0 0 0 0 0 0 0.25 0"/>
<feBlend mode="normal" in2="BackgroundImageFix" result="effect1_dropShadow"/>
<feBlend mode="normal" in="SourceGraphic" in2="effect1_dropShadow" result="shape"/>
</filter>
<filter id="filter6_d" x="756.076" y="276.269" width="91.3184" height="57.6383" filterUnits="userSpaceOnUse" color-interpolation-filters="sRGB">
<feFlood flood-opacity="0" result="BackgroundImageFix"/>
<feColorMatrix in="SourceAlpha" type="matrix" values="0 0 0 0 0 0 0 0 0 0 0 0 0 0 0 0 0 0 127 0" result="hardAlpha"/>
<feOffset dx="4" dy="4"/>
<feGaussianBlur stdDeviation="2"/>
<feComposite in2="hardAlpha" operator="out"/>
<feColorMatrix type="matrix" values="0 0 0 0 0 0 0 0 0 0 0 0 0 0 0 0 0 0 0.25 0"/>
<feBlend mode="normal" in2="BackgroundImageFix" result="effect1_dropShadow"/>
<feBlend mode="normal" in="SourceGraphic" in2="effect1_dropShadow" result="shape"/>
</filter>
<filter id="filter7_d" x="765.781" y="302.545" width="14.5352" height="12.8478" filterUnits="userSpaceOnUse" color-interpolation-filters="sRGB">
<feFlood flood-opacity="0" result="BackgroundImageFix"/>
<feColorMatrix in="SourceAlpha" type="matrix" values="0 0 0 0 0 0 0 0 0 0 0 0 0 0 0 0 0 0 127 0" result="hardAlpha"/>
<feOffset dx="4" dy="4"/>
<feGaussianBlur stdDeviation="2"/>
<feComposite in2="hardAlpha" operator="out"/>
<feColorMatrix type="matrix" values="0 0 0 0 0 0 0 0 0 0 0 0 0 0 0 0 0 0 0.25 0"/>
<feBlend mode="normal" in2="BackgroundImageFix" result="effect1_dropShadow"/>
<feBlend mode="normal" in="SourceGraphic" in2="effect1_dropShadow" result="shape"/>
</filter>
<filter id="filter8_d" x="784.467" y="284.478" width="24.8711" height="21.2727" filterUnits="userSpaceOnUse" color-interpolation-filters="sRGB">
<feFlood flood-opacity="0" result="BackgroundImageFix"/>
<feColorMatrix in="SourceAlpha" type="matrix" values="0 0 0 0 0 0 0 0 0 0 0 0 0 0 0 0 0 0 127 0" result="hardAlpha"/>
<feOffset dx="4" dy="4"/>
<feGaussianBlur stdDeviation="2"/>
<feComposite in2="hardAlpha" operator="out"/>
<feColorMatrix type="matrix" values="0 0 0 0 0 0 0 0 0 0 0 0 0 0 0 0 0 0 0.25 0"/>
<feBlend mode="normal" in2="BackgroundImageFix" result="effect1_dropShadow"/>
<feBlend mode="normal" in="SourceGraphic" in2="effect1_dropShadow" result="shape"/>
</filter>
<clipPath id="clip0">
<rect width="293.137" height="50" fill="white" transform="translate(154 276)"/>
</clipPath>
</defs>
</svg>
