<svg width="1204" height="678" viewBox="0 0 1204 678" fill="none" xmlns="http://www.w3.org/2000/svg">
<rect width="1204" height="677.25" fill="white"/>
<rect x="87" y="239" width="200" height="200" fill="#41A5DD"/>
<path d="M158.179 373.621C163.322 373.621 167.491 369.47 167.491 364.348C167.491 359.226 163.322 355.074 158.179 355.074C153.036 355.074 148.867 359.226 148.867 364.348C148.867 369.47 153.036 373.621 158.179 373.621Z" fill="white"/>
<path fill-rule="evenodd" clip-rule="evenodd" d="M231.187 305.43C229.262 299.989 225.723 299 221.688 299H217.467C217.094 299 216.722 299 216.349 299.062H129.933C124.47 299.062 120 303.513 120 308.954V369.108C120 374.549 124.47 379 129.933 379H192.386V378.938H192.572C196.794 378.938 199.215 377.516 200.457 374.116L205.113 361.256H233.546L238.078 374.116C239.381 377.516 242.175 378.938 246.024 378.938C250.556 378.938 254.281 375.538 254.281 371.21C254.281 369.294 253.225 366.203 252.542 364.471L231.187 305.43ZM158.18 375.723C151.91 375.723 146.757 370.654 146.757 364.348C146.757 358.104 151.847 352.972 158.18 352.972C164.45 352.972 169.603 358.042 169.603 364.348C169.54 370.654 164.45 375.723 158.18 375.723ZM182.329 365.213H171.837C171.837 362.988 170.906 350.623 157.869 350.623C144.832 350.623 144.274 365.337 144.274 365.337H141.48C141.48 365.337 133.347 362.06 131.671 361.195C129.995 360.267 129.809 355.693 129.809 355.693V351.674H131.237V347.594C131.92 338.938 153.213 331.148 153.213 331.148C153.213 331.148 171.092 313.59 173.886 311.117C179.908 305.862 204.306 307.037 204.306 307.037L182.329 365.213ZM208.899 349.077L219.329 318.104H219.515L229.51 349.077H208.899Z" fill="white"/>
<path fill-rule="evenodd" clip-rule="evenodd" d="M145.64 341.597C144.895 341.411 142.164 341.411 140.984 341.349C140.612 341.349 140.239 341.473 139.991 341.72C139.432 342.153 138.563 343.019 137.756 344.07C136.825 345.306 136.142 346.852 135.707 347.841C135.397 348.645 136.266 348.706 136.266 348.706L138.315 349.139C138.563 349.201 138.811 349.139 138.997 348.954L145.826 343.019C145.764 343.019 146.758 341.844 145.64 341.597Z" fill="white"/>
<path fill-rule="evenodd" clip-rule="evenodd" d="M191.765 312.23C190.834 312.23 182.205 313.158 180.529 313.467C178.852 313.776 176.369 315.693 176.369 315.693L165.753 327.377V333.621L188.226 329.294C188.226 329.294 191.144 328.737 191.579 325.028C192.014 321.318 192.945 313.405 192.945 313.405C192.945 313.405 192.696 312.23 191.765 312.23Z" fill="white"/>
<rect x="347" y="239" width="200" height="200" rx="20" fill="#41A5DD"/>
<path d="M418.179 373.621C423.322 373.621 427.491 369.47 427.491 364.348C427.491 359.226 423.322 355.074 418.179 355.074C413.036 355.074 408.867 359.226 408.867 364.348C408.867 369.47 413.036 373.621 418.179 373.621Z" fill="white"/>
<path fill-rule="evenodd" clip-rule="evenodd" d="M491.187 305.43C489.262 299.989 485.723 299 481.688 299H477.467C477.094 299 476.722 299 476.349 299.062H389.933C384.47 299.062 380 303.513 380 308.954V369.108C380 374.549 384.47 379 389.933 379H452.386V378.938H452.572C456.794 378.938 459.215 377.516 460.457 374.116L465.113 361.256H493.546L498.078 374.116C499.381 377.516 502.175 378.938 506.024 378.938C510.556 378.938 514.281 375.538 514.281 371.21C514.281 369.294 513.225 366.203 512.542 364.471L491.187 305.43ZM418.18 375.723C411.91 375.723 406.757 370.654 406.757 364.348C406.757 358.104 411.847 352.972 418.18 352.972C424.45 352.972 429.603 358.042 429.603 364.348C429.54 370.654 424.45 375.723 418.18 375.723ZM442.329 365.213H431.837C431.837 362.988 430.906 350.623 417.869 350.623C404.832 350.623 404.274 365.337 404.274 365.337H401.48C401.48 365.337 393.347 362.06 391.671 361.195C389.995 360.267 389.809 355.693 389.809 355.693V351.674H391.237V347.594C391.92 338.938 413.213 331.148 413.213 331.148C413.213 331.148 431.092 313.59 433.886 311.117C439.908 305.862 464.306 307.037 464.306 307.037L442.329 365.213ZM468.899 349.077L479.329 318.104H479.515L489.51 349.077H468.899Z" fill="white"/>
<path fill-rule="evenodd" clip-rule="evenodd" d="M405.64 341.597C404.895 341.411 402.164 341.411 400.984 341.349C400.612 341.349 400.239 341.473 399.991 341.72C399.432 342.153 398.563 343.019 397.756 344.07C396.825 345.306 396.142 346.852 395.707 347.841C395.397 348.645 396.266 348.706 396.266 348.706L398.315 349.139C398.563 349.201 398.811 349.139 398.997 348.954L405.826 343.019C405.764 343.019 406.758 341.844 405.64 341.597Z" fill="white"/>
<path fill-rule="evenodd" clip-rule="evenodd" d="M451.765 312.23C450.834 312.23 442.204 313.158 440.528 313.467C438.852 313.776 436.369 315.693 436.369 315.693L425.753 327.377V333.621L448.226 329.294C448.226 329.294 451.144 328.737 451.579 325.028C452.013 321.318 452.944 313.405 452.944 313.405C452.944 313.405 452.696 312.23 451.765 312.23Z" fill="white"/>
<rect x="607" y="239" width="200" height="200" rx="50" fill="#41A5DD"/>
<path d="M678.179 373.621C683.322 373.621 687.491 369.47 687.491 364.348C687.491 359.226 683.322 355.074 678.179 355.074C673.036 355.074 668.867 359.226 668.867 364.348C668.867 369.47 673.036 373.621 678.179 373.621Z" fill="white"/>
<path fill-rule="evenodd" clip-rule="evenodd" d="M751.187 305.43C749.262 299.989 745.723 299 741.688 299H737.467C737.094 299 736.722 299 736.349 299.062H649.933C644.47 299.062 640 303.513 640 308.954V369.108C640 374.549 644.47 379 649.933 379H712.386V378.938H712.572C716.794 378.938 719.215 377.516 720.457 374.116L725.113 361.256H753.546L758.078 374.116C759.381 377.516 762.175 378.938 766.024 378.938C770.556 378.938 774.281 375.538 774.281 371.21C774.281 369.294 773.225 366.203 772.542 364.471L751.187 305.43ZM678.18 375.723C671.91 375.723 666.757 370.654 666.757 364.348C666.757 358.104 671.847 352.972 678.18 352.972C684.45 352.972 689.603 358.042 689.603 364.348C689.54 370.654 684.45 375.723 678.18 375.723ZM702.329 365.213H691.837C691.837 362.988 690.906 350.623 677.869 350.623C664.832 350.623 664.274 365.337 664.274 365.337H661.48C661.48 365.337 653.347 362.06 651.671 361.195C649.995 360.267 649.809 355.693 649.809 355.693V351.674H651.237V347.594C651.92 338.938 673.213 331.148 673.213 331.148C673.213 331.148 691.092 313.59 693.886 311.117C699.908 305.862 724.306 307.037 724.306 307.037L702.329 365.213ZM728.899 349.077L739.329 318.104H739.515L749.51 349.077H728.899Z" fill="white"/>
<path fill-rule="evenodd" clip-rule="evenodd" d="M665.64 341.597C664.895 341.411 662.163 341.411 660.984 341.349C660.611 341.349 660.239 341.473 659.99 341.72C659.431 342.153 658.562 343.019 657.755 344.07C656.824 345.306 656.141 346.852 655.707 347.841C655.396 348.645 656.265 348.706 656.265 348.706L658.314 349.139C658.562 349.201 658.811 349.139 658.997 348.954L665.826 343.019C665.764 343.019 666.757 341.844 665.64 341.597Z" fill="white"/>
<path fill-rule="evenodd" clip-rule="evenodd" d="M711.765 312.23C710.834 312.23 702.204 313.158 700.528 313.467C698.852 313.776 696.369 315.693 696.369 315.693L685.753 327.377V333.621L708.226 329.294C708.226 329.294 711.144 328.737 711.579 325.028C712.013 321.318 712.944 313.405 712.944 313.405C712.944 313.405 712.696 312.23 711.765 312.23Z" fill="white"/>
<rect x="867" y="239" width="200" height="200" rx="100" fill="#41A5DD"/>
<path d="M938.179 373.621C943.322 373.621 947.491 369.47 947.491 364.348C947.491 359.226 943.322 355.074 938.179 355.074C933.036 355.074 928.867 359.226 928.867 364.348C928.867 369.47 933.036 373.621 938.179 373.621Z" fill="white"/>
<path fill-rule="evenodd" clip-rule="evenodd" d="M1011.19 305.43C1009.26 299.989 1005.72 299 1001.69 299H997.467C997.094 299 996.722 299 996.349 299.062H909.933C904.47 299.062 900 303.513 900 308.954V369.108C900 374.549 904.47 379 909.933 379H972.386V378.938H972.572C976.794 378.938 979.215 377.516 980.457 374.116L985.113 361.256H1013.55L1018.08 374.116C1019.38 377.516 1022.17 378.938 1026.02 378.938C1030.56 378.938 1034.28 375.538 1034.28 371.21C1034.28 369.294 1033.23 366.203 1032.54 364.471L1011.19 305.43ZM938.18 375.723C931.91 375.723 926.757 370.654 926.757 364.348C926.757 358.104 931.847 352.972 938.18 352.972C944.45 352.972 949.603 358.042 949.603 364.348C949.54 370.654 944.45 375.723 938.18 375.723ZM962.329 365.213H951.837C951.837 362.988 950.906 350.623 937.869 350.623C924.832 350.623 924.274 365.337 924.274 365.337H921.48C921.48 365.337 913.347 362.06 911.671 361.195C909.995 360.267 909.809 355.693 909.809 355.693V351.674H911.237V347.594C911.92 338.938 933.213 331.148 933.213 331.148C933.213 331.148 951.092 313.59 953.886 311.117C959.908 305.862 984.306 307.037 984.306 307.037L962.329 365.213ZM988.899 349.077L999.329 318.104H999.515L1009.51 349.077H988.899Z" fill="white"/>
<path fill-rule="evenodd" clip-rule="evenodd" d="M925.64 341.597C924.895 341.411 922.163 341.411 920.984 341.349C920.611 341.349 920.239 341.473 919.99 341.72C919.431 342.153 918.562 343.019 917.755 344.07C916.824 345.306 916.141 346.852 915.707 347.841C915.396 348.645 916.265 348.706 916.265 348.706L918.314 349.139C918.562 349.201 918.811 349.139 918.997 348.954L925.826 343.019C925.764 343.019 926.757 341.844 925.64 341.597Z" fill="white"/>
<path fill-rule="evenodd" clip-rule="evenodd" d="M971.765 312.23C970.834 312.23 962.204 313.158 960.528 313.467C958.852 313.776 956.369 315.693 956.369 315.693L945.753 327.377V333.621L968.226 329.294C968.226 329.294 971.144 328.737 971.579 325.028C972.013 321.318 972.944 313.405 972.944 313.405C972.944 313.405 972.696 312.23 971.765 312.23Z" fill="white"/>
<line y1="-0.5" x2="14" y2="-0.5" transform="matrix(-1 -1.16918e-06 6.53684e-09 -1 77 439)" stroke="black"/>
<line x1="77" y1="239.5" x2="63" y2="239.5" stroke="black"/>
<line x1="63.5" y1="239" x2="63.5" y2="439" stroke="black"/>
<line x1="1077" y1="298.5" x2="1091" y2="298.5" stroke="black"/>
<line x1="1077" y1="378.5" x2="1091" y2="378.5" stroke="black"/>
<line x1="1090.5" y1="379" x2="1090.5" y2="299" stroke="black"/>
<path d="M1106.11 341.381V337.244C1106.11 337.123 1106.11 336.99 1106.12 336.845C1106.13 336.7 1106.15 336.553 1106.17 336.404L1102.51 341.381H1106.11ZM1108.72 341.381V342.095C1108.72 342.17 1108.7 342.233 1108.65 342.284C1108.61 342.335 1108.54 342.361 1108.45 342.361H1107.2V345H1106.11V342.361H1101.66C1101.56 342.361 1101.48 342.335 1101.41 342.284C1101.35 342.228 1101.31 342.16 1101.29 342.081L1101.16 341.444L1106.04 334.969H1107.2V341.381H1108.72ZM1117.12 339.988C1117.12 340.865 1117.03 341.626 1116.83 342.27C1116.65 342.909 1116.39 343.439 1116.06 343.859C1115.74 344.279 1115.35 344.592 1114.9 344.797C1114.46 345.002 1113.98 345.105 1113.47 345.105C1112.96 345.105 1112.48 345.002 1112.04 344.797C1111.6 344.592 1111.22 344.279 1110.89 343.859C1110.56 343.439 1110.31 342.909 1110.12 342.27C1109.93 341.626 1109.84 340.865 1109.84 339.988C1109.84 339.111 1109.93 338.35 1110.12 337.706C1110.31 337.062 1110.56 336.53 1110.89 336.11C1111.22 335.685 1111.6 335.37 1112.04 335.165C1112.48 334.96 1112.96 334.857 1113.47 334.857C1113.98 334.857 1114.46 334.96 1114.9 335.165C1115.35 335.37 1115.74 335.685 1116.06 336.11C1116.39 336.53 1116.65 337.062 1116.83 337.706C1117.03 338.35 1117.12 339.111 1117.12 339.988ZM1115.83 339.988C1115.83 339.223 1115.76 338.581 1115.63 338.063C1115.5 337.54 1115.33 337.12 1115.11 336.803C1114.9 336.486 1114.65 336.259 1114.36 336.124C1114.08 335.984 1113.78 335.914 1113.47 335.914C1113.17 335.914 1112.87 335.984 1112.59 336.124C1112.3 336.259 1112.05 336.486 1111.84 336.803C1111.62 337.12 1111.45 337.54 1111.32 338.063C1111.19 338.581 1111.13 339.223 1111.13 339.988C1111.13 340.753 1111.19 341.395 1111.32 341.913C1111.45 342.431 1111.62 342.849 1111.84 343.166C1112.05 343.483 1112.3 343.712 1112.59 343.852C1112.87 343.987 1113.17 344.055 1113.47 344.055C1113.78 344.055 1114.08 343.987 1114.36 343.852C1114.65 343.712 1114.9 343.483 1115.11 343.166C1115.33 342.849 1115.5 342.431 1115.63 341.913C1115.76 341.395 1115.83 340.753 1115.83 339.988ZM1122.9 337.391C1122.9 337.783 1122.84 338.135 1122.71 338.448C1122.59 338.756 1122.43 339.017 1122.22 339.232C1122.02 339.442 1121.79 339.603 1121.52 339.715C1121.25 339.827 1120.97 339.883 1120.67 339.883C1120.36 339.883 1120.07 339.827 1119.8 339.715C1119.52 339.603 1119.29 339.442 1119.09 339.232C1118.89 339.017 1118.74 338.756 1118.63 338.448C1118.51 338.135 1118.46 337.783 1118.46 337.391C1118.46 336.99 1118.51 336.633 1118.63 336.32C1118.74 336.007 1118.89 335.744 1119.09 335.529C1119.29 335.314 1119.52 335.151 1119.8 335.039C1120.07 334.927 1120.36 334.871 1120.67 334.871C1120.99 334.871 1121.28 334.927 1121.55 335.039C1121.82 335.151 1122.06 335.314 1122.26 335.529C1122.46 335.744 1122.62 336.007 1122.73 336.32C1122.84 336.633 1122.9 336.99 1122.9 337.391ZM1121.93 337.391C1121.93 337.083 1121.9 336.822 1121.83 336.607C1121.77 336.392 1121.68 336.217 1121.56 336.082C1121.45 335.942 1121.31 335.842 1121.16 335.781C1121.01 335.72 1120.84 335.69 1120.67 335.69C1120.5 335.69 1120.34 335.72 1120.19 335.781C1120.04 335.842 1119.91 335.942 1119.8 336.082C1119.68 336.217 1119.59 336.392 1119.53 336.607C1119.46 336.822 1119.43 337.083 1119.43 337.391C1119.43 337.694 1119.46 337.953 1119.53 338.168C1119.59 338.378 1119.68 338.551 1119.8 338.686C1119.91 338.817 1120.04 338.912 1120.19 338.973C1120.34 339.029 1120.5 339.057 1120.67 339.057C1120.84 339.057 1121.01 339.029 1121.16 338.973C1121.31 338.912 1121.45 338.817 1121.56 338.686C1121.68 338.551 1121.77 338.378 1121.83 338.168C1121.9 337.953 1121.93 337.694 1121.93 337.391ZM1126.45 335.179C1126.49 335.123 1126.55 335.074 1126.61 335.032C1126.67 334.99 1126.76 334.969 1126.87 334.969H1127.77L1120.43 344.797C1120.39 344.858 1120.34 344.907 1120.27 344.944C1120.21 344.981 1120.13 345 1120.03 345H1119.12L1126.45 335.179ZM1128.45 342.634C1128.45 343.026 1128.39 343.376 1128.27 343.684C1128.14 343.992 1127.98 344.253 1127.78 344.468C1127.57 344.678 1127.34 344.839 1127.07 344.951C1126.8 345.063 1126.52 345.119 1126.22 345.119C1125.9 345.119 1125.61 345.063 1125.34 344.951C1125.07 344.839 1124.84 344.678 1124.64 344.468C1124.44 344.253 1124.29 343.992 1124.18 343.684C1124.07 343.376 1124.01 343.026 1124.01 342.634C1124.01 342.233 1124.07 341.876 1124.18 341.563C1124.29 341.246 1124.44 340.98 1124.64 340.765C1124.84 340.55 1125.07 340.387 1125.34 340.275C1125.61 340.163 1125.9 340.107 1126.22 340.107C1126.53 340.107 1126.83 340.163 1127.1 340.275C1127.37 340.387 1127.61 340.55 1127.8 340.765C1128 340.98 1128.16 341.246 1128.27 341.563C1128.39 341.876 1128.45 342.233 1128.45 342.634ZM1127.48 342.634C1127.48 342.326 1127.45 342.065 1127.38 341.85C1127.32 341.631 1127.23 341.453 1127.11 341.318C1127 341.183 1126.87 341.085 1126.71 341.024C1126.56 340.963 1126.39 340.933 1126.22 340.933C1126.05 340.933 1125.89 340.963 1125.73 341.024C1125.58 341.085 1125.45 341.183 1125.34 341.318C1125.23 341.453 1125.14 341.631 1125.07 341.85C1125.01 342.065 1124.98 342.326 1124.98 342.634C1124.98 342.937 1125.01 343.194 1125.07 343.404C1125.14 343.614 1125.23 343.787 1125.34 343.922C1125.45 344.053 1125.58 344.148 1125.73 344.209C1125.89 344.265 1126.05 344.293 1126.22 344.293C1126.39 344.293 1126.56 344.265 1126.71 344.209C1126.87 344.148 1127 344.053 1127.11 343.922C1127.23 343.787 1127.32 343.614 1127.38 343.404C1127.45 343.194 1127.48 342.937 1127.48 342.634ZM1137.22 337.797C1137.74 337.797 1138.21 337.883 1138.62 338.056C1139.04 338.229 1139.39 338.474 1139.69 338.791C1139.98 339.108 1140.21 339.493 1140.36 339.946C1140.52 340.394 1140.6 340.896 1140.6 341.451C1140.6 342.011 1140.52 342.515 1140.36 342.963C1140.21 343.411 1139.98 343.794 1139.69 344.111C1139.39 344.428 1139.04 344.673 1138.62 344.846C1138.21 345.014 1137.74 345.098 1137.22 345.098C1136.7 345.098 1136.23 345.014 1135.81 344.846C1135.4 344.673 1135.04 344.428 1134.75 344.111C1134.45 343.794 1134.23 343.411 1134.07 342.963C1133.91 342.515 1133.84 342.011 1133.84 341.451C1133.84 340.896 1133.91 340.394 1134.07 339.946C1134.23 339.493 1134.45 339.108 1134.75 338.791C1135.04 338.474 1135.4 338.229 1135.81 338.056C1136.23 337.883 1136.7 337.797 1137.22 337.797ZM1137.22 344.125C1137.92 344.125 1138.45 343.892 1138.79 343.425C1139.14 342.954 1139.31 342.298 1139.31 341.458C1139.31 340.613 1139.14 339.955 1138.79 339.484C1138.45 339.013 1137.92 338.777 1137.22 338.777C1136.87 338.777 1136.56 338.838 1136.29 338.959C1136.03 339.08 1135.81 339.255 1135.64 339.484C1135.46 339.713 1135.33 339.995 1135.24 340.331C1135.16 340.662 1135.12 341.038 1135.12 341.458C1135.12 342.298 1135.29 342.954 1135.64 343.425C1135.99 343.892 1136.52 344.125 1137.22 344.125ZM1142.79 345V338.973L1142.01 338.882C1141.91 338.859 1141.83 338.824 1141.76 338.777C1141.7 338.726 1141.67 338.653 1141.67 338.56V338.049H1142.79V337.363C1142.79 336.957 1142.85 336.598 1142.96 336.285C1143.08 335.968 1143.24 335.702 1143.45 335.487C1143.66 335.268 1143.92 335.102 1144.22 334.99C1144.52 334.878 1144.85 334.822 1145.23 334.822C1145.54 334.822 1145.84 334.869 1146.1 334.962L1146.07 335.585C1146.06 335.697 1146 335.758 1145.88 335.767C1145.77 335.776 1145.62 335.781 1145.43 335.781C1145.22 335.781 1145.02 335.809 1144.84 335.865C1144.67 335.921 1144.52 336.012 1144.39 336.138C1144.27 336.264 1144.17 336.43 1144.1 336.635C1144.03 336.84 1144 337.095 1144 337.398V338.049H1146.05V338.952H1144.04V345H1142.79ZM1156.98 345H1155.79C1155.68 345 1155.6 344.974 1155.54 344.923C1155.49 344.867 1155.44 344.806 1155.4 344.741L1153.62 341.962C1153.6 342.027 1153.58 342.093 1153.55 342.158C1153.53 342.219 1153.51 342.275 1153.47 342.326L1151.82 344.741C1151.77 344.806 1151.72 344.867 1151.66 344.923C1151.61 344.974 1151.54 345 1151.45 345H1150.33L1152.82 341.36L1150.43 337.909H1151.63C1151.73 337.909 1151.81 337.925 1151.85 337.958C1151.9 337.991 1151.94 338.037 1151.98 338.098L1153.72 340.758C1153.76 340.623 1153.82 340.492 1153.9 340.366L1155.42 338.126C1155.46 338.061 1155.51 338.009 1155.56 337.972C1155.61 337.93 1155.67 337.909 1155.74 337.909H1156.89L1154.5 341.297L1156.98 345Z" fill="black"/>
<path d="M52.811 345H51.614C51.5113 345 51.4297 344.974 51.369 344.923C51.313 344.867 51.2663 344.806 51.229 344.741L49.444 341.962C49.4253 342.027 49.4043 342.093 49.381 342.158C49.3623 342.219 49.3343 342.275 49.297 342.326L47.645 344.741C47.5983 344.806 47.547 344.867 47.491 344.923C47.4397 344.974 47.3673 345 47.274 345H46.161L48.646 341.36L46.259 337.909H47.456C47.5587 337.909 47.6333 337.925 47.68 337.958C47.7267 337.991 47.7687 338.037 47.806 338.098L49.549 340.758C49.5863 340.623 49.6447 340.492 49.724 340.366L51.25 338.126C51.292 338.061 51.3363 338.009 51.383 337.972C51.4343 337.93 51.495 337.909 51.565 337.909H52.713L50.326 341.297L52.811 345Z" fill="black"/>
</svg>
