<svg width="1204" height="678" viewBox="0 0 1204 678" fill="none" xmlns="http://www.w3.org/2000/svg">
<rect width="1204" height="677.25" fill="white"/>
<path d="M504 292C504 289.791 505.791 288 508 288H716C718.209 288 720 289.791 720 292V344C720 346.209 718.209 348 716 348H508C505.791 348 504 346.209 504 344V292Z" fill="#41A5DD"/>
<path d="M552.938 313.975H549.014V325H546.593V313.975H542.669V311.986H552.938V313.975ZM554.876 317.368C555.164 316.816 555.506 316.384 555.902 316.072C556.298 315.754 556.766 315.595 557.306 315.595C557.732 315.595 558.074 315.688 558.332 315.874L558.188 317.539C558.158 317.647 558.113 317.725 558.053 317.773C557.999 317.815 557.924 317.836 557.828 317.836C557.738 317.836 557.603 317.821 557.423 317.791C557.249 317.761 557.078 317.746 556.91 317.746C556.664 317.746 556.445 317.782 556.253 317.854C556.061 317.926 555.887 318.031 555.731 318.169C555.581 318.301 555.446 318.463 555.326 318.655C555.212 318.847 555.104 319.066 555.002 319.312V325H552.779V315.766H554.084C554.312 315.766 554.471 315.808 554.561 315.892C554.651 315.97 554.711 316.114 554.741 316.324L554.876 317.368ZM564.549 321.058C563.907 321.088 563.367 321.145 562.929 321.229C562.491 321.307 562.14 321.409 561.876 321.535C561.612 321.661 561.423 321.808 561.309 321.976C561.195 322.144 561.138 322.327 561.138 322.525C561.138 322.915 561.252 323.194 561.48 323.362C561.714 323.53 562.017 323.614 562.389 323.614C562.845 323.614 563.238 323.533 563.568 323.371C563.904 323.203 564.231 322.951 564.549 322.615V321.058ZM559.455 317.053C560.517 316.081 561.795 315.595 563.289 315.595C563.829 315.595 564.312 315.685 564.738 315.865C565.164 316.039 565.524 316.285 565.818 316.603C566.112 316.915 566.334 317.29 566.484 317.728C566.64 318.166 566.718 318.646 566.718 319.168V325H565.71C565.5 325 565.338 324.97 565.224 324.91C565.11 324.844 565.02 324.715 564.954 324.523L564.756 323.857C564.522 324.067 564.294 324.253 564.072 324.415C563.85 324.571 563.619 324.703 563.379 324.811C563.139 324.919 562.881 325 562.605 325.054C562.335 325.114 562.035 325.144 561.705 325.144C561.315 325.144 560.955 325.093 560.625 324.991C560.295 324.883 560.01 324.724 559.77 324.514C559.53 324.304 559.344 324.043 559.212 323.731C559.08 323.419 559.014 323.056 559.014 322.642C559.014 322.408 559.053 322.177 559.131 321.949C559.209 321.715 559.335 321.493 559.509 321.283C559.689 321.073 559.92 320.875 560.202 320.689C560.484 320.503 560.829 320.341 561.237 320.203C561.651 320.065 562.131 319.954 562.677 319.87C563.223 319.78 563.847 319.726 564.549 319.708V319.168C564.549 318.55 564.417 318.094 564.153 317.8C563.889 317.5 563.508 317.35 563.01 317.35C562.65 317.35 562.35 317.392 562.11 317.476C561.876 317.56 561.669 317.656 561.489 317.764C561.309 317.866 561.144 317.959 560.994 318.043C560.85 318.127 560.688 318.169 560.508 318.169C560.352 318.169 560.22 318.13 560.112 318.052C560.004 317.968 559.917 317.872 559.851 317.764L559.455 317.053ZM575.727 317.719C575.661 317.803 575.595 317.869 575.529 317.917C575.469 317.965 575.379 317.989 575.259 317.989C575.145 317.989 575.034 317.956 574.926 317.89C574.818 317.818 574.689 317.74 574.539 317.656C574.389 317.566 574.209 317.488 573.999 317.422C573.795 317.35 573.54 317.314 573.234 317.314C572.844 317.314 572.502 317.386 572.208 317.53C571.914 317.668 571.668 317.869 571.47 318.133C571.278 318.397 571.134 318.718 571.038 319.096C570.942 319.468 570.894 319.891 570.894 320.365C570.894 320.857 570.945 321.295 571.047 321.679C571.155 322.063 571.308 322.387 571.506 322.651C571.704 322.909 571.944 323.107 572.226 323.245C572.508 323.377 572.826 323.443 573.18 323.443C573.534 323.443 573.819 323.401 574.035 323.317C574.257 323.227 574.443 323.131 574.593 323.029C574.743 322.921 574.872 322.825 574.98 322.741C575.094 322.651 575.22 322.606 575.358 322.606C575.538 322.606 575.673 322.675 575.763 322.813L576.402 323.623C576.156 323.911 575.889 324.154 575.601 324.352C575.313 324.544 575.013 324.7 574.701 324.82C574.395 324.934 574.077 325.015 573.747 325.063C573.423 325.111 573.099 325.135 572.775 325.135C572.205 325.135 571.668 325.03 571.164 324.82C570.66 324.604 570.219 324.292 569.841 323.884C569.463 323.476 569.163 322.978 568.941 322.39C568.725 321.796 568.617 321.121 568.617 320.365C568.617 319.687 568.713 319.06 568.905 318.484C569.103 317.902 569.391 317.401 569.769 316.981C570.147 316.555 570.615 316.222 571.173 315.982C571.731 315.742 572.373 315.622 573.099 315.622C573.789 315.622 574.392 315.733 574.908 315.955C575.43 316.177 575.898 316.495 576.312 316.909L575.727 317.719ZM580.318 311.626V319.285H580.732C580.882 319.285 580.999 319.267 581.083 319.231C581.173 319.189 581.263 319.108 581.353 318.988L583.648 316.153C583.744 316.027 583.849 315.931 583.963 315.865C584.083 315.799 584.236 315.766 584.422 315.766H586.456L583.585 319.195C583.381 319.465 583.159 319.672 582.919 319.816C583.045 319.906 583.156 320.011 583.252 320.131C583.354 320.251 583.45 320.38 583.54 320.518L586.618 325H584.611C584.437 325 584.287 324.973 584.161 324.919C584.035 324.859 583.93 324.754 583.846 324.604L581.488 321.103C581.404 320.965 581.317 320.875 581.227 320.833C581.137 320.791 581.002 320.77 580.822 320.77H580.318V325H578.095V311.626H580.318ZM600.618 315.766L595.587 327.538C595.521 327.694 595.434 327.811 595.326 327.889C595.224 327.973 595.065 328.015 594.849 328.015H593.193L594.921 324.307L591.186 315.766H593.139C593.313 315.766 593.448 315.808 593.544 315.892C593.646 315.976 593.721 316.072 593.769 316.18L595.731 320.968C595.797 321.13 595.851 321.292 595.893 321.454C595.941 321.616 595.986 321.781 596.028 321.949C596.082 321.781 596.136 321.616 596.19 321.454C596.244 321.286 596.304 321.121 596.37 320.959L598.224 316.18C598.272 316.06 598.35 315.961 598.458 315.883C598.572 315.805 598.698 315.766 598.836 315.766H600.618ZM605.827 315.622C606.511 315.622 607.132 315.733 607.69 315.955C608.254 316.177 608.734 316.492 609.13 316.9C609.532 317.308 609.841 317.806 610.057 318.394C610.273 318.982 610.381 319.639 610.381 320.365C610.381 321.097 610.273 321.757 610.057 322.345C609.841 322.933 609.532 323.434 609.13 323.848C608.734 324.262 608.254 324.58 607.69 324.802C607.132 325.024 606.511 325.135 605.827 325.135C605.137 325.135 604.51 325.024 603.946 324.802C603.382 324.58 602.899 324.262 602.497 323.848C602.101 323.434 601.792 322.933 601.57 322.345C601.354 321.757 601.246 321.097 601.246 320.365C601.246 319.639 601.354 318.982 601.57 318.394C601.792 317.806 602.101 317.308 602.497 316.9C602.899 316.492 603.382 316.177 603.946 315.955C604.51 315.733 605.137 315.622 605.827 315.622ZM605.827 323.425C606.595 323.425 607.162 323.167 607.528 322.651C607.9 322.135 608.086 321.379 608.086 320.383C608.086 319.387 607.9 318.628 607.528 318.106C607.162 317.584 606.595 317.323 605.827 317.323C605.047 317.323 604.468 317.587 604.09 318.115C603.718 318.637 603.532 319.393 603.532 320.383C603.532 321.373 603.718 322.129 604.09 322.651C604.468 323.167 605.047 323.425 605.827 323.425ZM620.333 315.766V325H618.974C618.68 325 618.494 324.865 618.416 324.595L618.263 323.857C617.885 324.241 617.468 324.553 617.012 324.793C616.556 325.027 616.019 325.144 615.401 325.144C614.897 325.144 614.45 325.06 614.06 324.892C613.676 324.718 613.352 324.475 613.088 324.163C612.824 323.851 612.623 323.482 612.485 323.056C612.353 322.624 612.287 322.15 612.287 321.634V315.766H614.51V321.634C614.51 322.198 614.639 322.636 614.897 322.948C615.161 323.254 615.554 323.407 616.076 323.407C616.46 323.407 616.82 323.323 617.156 323.155C617.492 322.981 617.81 322.744 618.11 322.444V315.766H620.333ZM624.934 317.368C625.222 316.816 625.564 316.384 625.96 316.072C626.356 315.754 626.824 315.595 627.364 315.595C627.79 315.595 628.132 315.688 628.39 315.874L628.246 317.539C628.216 317.647 628.171 317.725 628.111 317.773C628.057 317.815 627.982 317.836 627.886 317.836C627.796 317.836 627.661 317.821 627.481 317.791C627.307 317.761 627.136 317.746 626.968 317.746C626.722 317.746 626.503 317.782 626.311 317.854C626.119 317.926 625.945 318.031 625.789 318.169C625.639 318.301 625.504 318.463 625.384 318.655C625.27 318.847 625.162 319.066 625.06 319.312V325H622.837V315.766H624.142C624.37 315.766 624.529 315.808 624.619 315.892C624.709 315.97 624.769 316.114 624.799 316.324L624.934 317.368ZM639.939 318.124C639.687 317.818 639.411 317.602 639.111 317.476C638.817 317.35 638.499 317.287 638.157 317.287C637.821 317.287 637.518 317.35 637.248 317.476C636.978 317.602 636.747 317.794 636.555 318.052C636.363 318.304 636.216 318.628 636.114 319.024C636.012 319.414 635.961 319.876 635.961 320.41C635.961 320.95 636.003 321.409 636.087 321.787C636.177 322.159 636.303 322.465 636.465 322.705C636.627 322.939 636.825 323.11 637.059 323.218C637.293 323.32 637.554 323.371 637.842 323.371C638.304 323.371 638.697 323.275 639.021 323.083C639.345 322.891 639.651 322.618 639.939 322.264V318.124ZM642.162 311.626V325H640.803C640.509 325 640.323 324.865 640.245 324.595L640.056 323.704C639.684 324.13 639.255 324.475 638.769 324.739C638.289 325.003 637.728 325.135 637.086 325.135C636.582 325.135 636.12 325.03 635.7 324.82C635.28 324.61 634.917 324.307 634.611 323.911C634.311 323.509 634.077 323.014 633.909 322.426C633.747 321.838 633.666 321.166 633.666 320.41C633.666 319.726 633.759 319.09 633.945 318.502C634.131 317.914 634.398 317.404 634.746 316.972C635.094 316.54 635.511 316.204 635.997 315.964C636.483 315.718 637.029 315.595 637.635 315.595C638.151 315.595 638.592 315.676 638.958 315.838C639.324 316 639.651 316.219 639.939 316.495V311.626H642.162ZM646.752 317.368C647.04 316.816 647.382 316.384 647.778 316.072C648.174 315.754 648.642 315.595 649.182 315.595C649.608 315.595 649.95 315.688 650.208 315.874L650.064 317.539C650.034 317.647 649.989 317.725 649.929 317.773C649.875 317.815 649.8 317.836 649.704 317.836C649.614 317.836 649.479 317.821 649.299 317.791C649.125 317.761 648.954 317.746 648.786 317.746C648.54 317.746 648.321 317.782 648.129 317.854C647.937 317.926 647.763 318.031 647.607 318.169C647.457 318.301 647.322 318.463 647.202 318.655C647.088 318.847 646.98 319.066 646.878 319.312V325H644.655V315.766H645.96C646.188 315.766 646.347 315.808 646.437 315.892C646.527 315.97 646.587 316.114 646.617 316.324L646.752 317.368ZM653.974 315.766V325H651.742V315.766H653.974ZM654.28 313.075C654.28 313.267 654.241 313.447 654.163 313.615C654.085 313.783 653.98 313.93 653.848 314.056C653.722 314.182 653.572 314.284 653.398 314.362C653.224 314.434 653.038 314.47 652.84 314.47C652.648 314.47 652.465 314.434 652.291 314.362C652.123 314.284 651.976 314.182 651.85 314.056C651.724 313.93 651.622 313.783 651.544 313.615C651.472 313.447 651.436 313.267 651.436 313.075C651.436 312.877 651.472 312.691 651.544 312.517C651.622 312.343 651.724 312.193 651.85 312.067C651.976 311.941 652.123 311.842 652.291 311.77C652.465 311.692 652.648 311.653 652.84 311.653C653.038 311.653 653.224 311.692 653.398 311.77C653.572 311.842 653.722 311.941 653.848 312.067C653.98 312.193 654.085 312.343 654.163 312.517C654.241 312.691 654.28 312.877 654.28 313.075ZM664.866 315.766L661.203 325H659.187L655.524 315.766H657.36C657.528 315.766 657.666 315.805 657.774 315.883C657.888 315.961 657.963 316.06 657.999 316.18L659.781 321.112C659.877 321.4 659.961 321.682 660.033 321.958C660.105 322.234 660.168 322.51 660.222 322.786C660.282 322.51 660.348 322.234 660.42 321.958C660.492 321.682 660.579 321.4 660.681 321.112L662.499 316.18C662.541 316.06 662.616 315.961 662.724 315.883C662.832 315.805 662.961 315.766 663.111 315.766H664.866ZM672.018 319.321C672.018 319.033 671.976 318.763 671.892 318.511C671.814 318.253 671.694 318.028 671.532 317.836C671.37 317.644 671.163 317.494 670.911 317.386C670.665 317.272 670.377 317.215 670.047 317.215C669.405 317.215 668.898 317.398 668.526 317.764C668.16 318.13 667.926 318.649 667.824 319.321H672.018ZM667.779 320.662C667.815 321.136 667.899 321.547 668.031 321.895C668.163 322.237 668.337 322.522 668.553 322.75C668.769 322.972 669.024 323.14 669.318 323.254C669.618 323.362 669.948 323.416 670.308 323.416C670.668 323.416 670.977 323.374 671.235 323.29C671.499 323.206 671.727 323.113 671.919 323.011C672.117 322.909 672.288 322.816 672.432 322.732C672.582 322.648 672.726 322.606 672.864 322.606C673.05 322.606 673.188 322.675 673.278 322.813L673.917 323.623C673.671 323.911 673.395 324.154 673.089 324.352C672.783 324.544 672.462 324.7 672.126 324.82C671.796 324.934 671.457 325.015 671.109 325.063C670.767 325.111 670.434 325.135 670.11 325.135C669.468 325.135 668.871 325.03 668.319 324.82C667.767 324.604 667.287 324.289 666.879 323.875C666.471 323.455 666.15 322.939 665.916 322.327C665.682 321.709 665.565 320.995 665.565 320.185C665.565 319.555 665.667 318.964 665.871 318.412C666.075 317.854 666.366 317.371 666.744 316.963C667.128 316.549 667.593 316.222 668.139 315.982C668.691 315.742 669.312 315.622 670.002 315.622C670.584 315.622 671.121 315.715 671.613 315.901C672.105 316.087 672.528 316.36 672.882 316.72C673.236 317.074 673.512 317.512 673.71 318.034C673.914 318.55 674.016 319.141 674.016 319.807C674.016 320.143 673.98 320.371 673.908 320.491C673.836 320.605 673.698 320.662 673.494 320.662H667.779ZM678.081 317.368C678.369 316.816 678.711 316.384 679.107 316.072C679.503 315.754 679.971 315.595 680.511 315.595C680.937 315.595 681.279 315.688 681.537 315.874L681.393 317.539C681.363 317.647 681.318 317.725 681.258 317.773C681.204 317.815 681.129 317.836 681.033 317.836C680.943 317.836 680.808 317.821 680.628 317.791C680.454 317.761 680.283 317.746 680.115 317.746C679.869 317.746 679.65 317.782 679.458 317.854C679.266 317.926 679.092 318.031 678.936 318.169C678.786 318.301 678.651 318.463 678.531 318.655C678.417 318.847 678.309 319.066 678.207 319.312V325H675.984V315.766H677.289C677.517 315.766 677.676 315.808 677.766 315.892C677.856 315.97 677.916 316.114 677.946 316.324L678.081 317.368Z" fill="white"/>
<line x1="494" y1="348.5" x2="480" y2="348.5" stroke="black"/>
<line x1="494" y1="288.5" x2="480" y2="288.5" stroke="black"/>
<line x1="480.5" y1="288" x2="480.5" y2="348" stroke="black"/>
<line x1="543.5" y1="358" x2="543.5" y2="372" stroke="black"/>
<line x1="504.5" y1="358" x2="504.5" y2="372" stroke="black"/>
<line x1="504" y1="371.5" x2="543" y2="371.5" stroke="black"/>
<line x1="720.5" y1="358" x2="720.5" y2="372" stroke="black"/>
<line x1="681.5" y1="358" x2="681.5" y2="372" stroke="black"/>
<line x1="681" y1="371.5" x2="720" y2="371.5" stroke="black"/>
<path d="M442.046 322.076C442.382 322.076 442.685 322.022 442.956 321.915C443.231 321.808 443.465 321.658 443.656 321.467C443.852 321.276 444.001 321.049 444.104 320.788C444.211 320.527 444.265 320.242 444.265 319.934C444.265 319.607 444.214 319.313 444.111 319.052C444.008 318.786 443.861 318.562 443.67 318.38C443.483 318.193 443.259 318.051 442.998 317.953C442.737 317.855 442.45 317.806 442.137 317.806C441.801 317.806 441.498 317.864 441.227 317.981C440.956 318.093 440.725 318.247 440.534 318.443C440.347 318.634 440.203 318.858 440.1 319.115C440.002 319.367 439.953 319.631 439.953 319.906C439.953 320.228 440 320.522 440.093 320.788C440.186 321.054 440.322 321.283 440.499 321.474C440.681 321.665 440.9 321.815 441.157 321.922C441.418 322.025 441.715 322.076 442.046 322.076ZM441.318 316.728C441.229 316.84 441.143 316.95 441.059 317.057C440.98 317.16 440.903 317.262 440.828 317.365C441.066 317.202 441.327 317.076 441.612 316.987C441.897 316.898 442.207 316.854 442.543 316.854C442.949 316.854 443.332 316.922 443.691 317.057C444.05 317.188 444.363 317.381 444.629 317.638C444.9 317.89 445.114 318.203 445.273 318.576C445.432 318.945 445.511 319.367 445.511 319.843C445.511 320.305 445.427 320.734 445.259 321.131C445.091 321.528 444.855 321.873 444.552 322.167C444.253 322.461 443.892 322.692 443.467 322.86C443.047 323.028 442.583 323.112 442.074 323.112C441.57 323.112 441.113 323.033 440.702 322.874C440.291 322.711 439.941 322.482 439.652 322.188C439.367 321.889 439.146 321.53 438.987 321.11C438.833 320.685 438.756 320.212 438.756 319.689C438.756 319.25 438.852 318.784 439.043 318.289C439.239 317.79 439.549 317.258 439.974 316.693L442.522 313.27C442.587 313.186 442.676 313.116 442.788 313.06C442.905 312.999 443.038 312.969 443.187 312.969H444.293L441.318 316.728ZM454.121 317.988C454.121 318.865 454.025 319.626 453.834 320.27C453.647 320.909 453.391 321.439 453.064 321.859C452.737 322.279 452.35 322.592 451.902 322.797C451.459 323.002 450.983 323.105 450.474 323.105C449.961 323.105 449.482 323.002 449.039 322.797C448.6 322.592 448.218 322.279 447.891 321.859C447.564 321.439 447.308 320.909 447.121 320.27C446.934 319.626 446.841 318.865 446.841 317.988C446.841 317.111 446.934 316.35 447.121 315.706C447.308 315.062 447.564 314.53 447.891 314.11C448.218 313.685 448.6 313.37 449.039 313.165C449.482 312.96 449.961 312.857 450.474 312.857C450.983 312.857 451.459 312.96 451.902 313.165C452.35 313.37 452.737 313.685 453.064 314.11C453.391 314.53 453.647 315.062 453.834 315.706C454.025 316.35 454.121 317.111 454.121 317.988ZM452.826 317.988C452.826 317.223 452.761 316.581 452.63 316.063C452.504 315.54 452.331 315.12 452.112 314.803C451.897 314.486 451.648 314.259 451.363 314.124C451.078 313.984 450.782 313.914 450.474 313.914C450.166 313.914 449.87 313.984 449.585 314.124C449.3 314.259 449.051 314.486 448.836 314.803C448.621 315.12 448.449 315.54 448.318 316.063C448.192 316.581 448.129 317.223 448.129 317.988C448.129 318.753 448.192 319.395 448.318 319.913C448.449 320.431 448.621 320.849 448.836 321.166C449.051 321.483 449.3 321.712 449.585 321.852C449.87 321.987 450.166 322.055 450.474 322.055C450.782 322.055 451.078 321.987 451.363 321.852C451.648 321.712 451.897 321.483 452.112 321.166C452.331 320.849 452.504 320.431 452.63 319.913C452.761 319.395 452.826 318.753 452.826 317.988ZM457.082 321.292C457.311 321.6 457.561 321.817 457.831 321.943C458.102 322.069 458.405 322.132 458.741 322.132C459.404 322.132 459.913 321.896 460.267 321.425C460.622 320.954 460.799 320.282 460.799 319.409C460.799 318.947 460.757 318.55 460.673 318.219C460.594 317.888 460.477 317.617 460.323 317.407C460.169 317.192 459.98 317.036 459.756 316.938C459.532 316.84 459.278 316.791 458.993 316.791C458.587 316.791 458.23 316.884 457.922 317.071C457.619 317.258 457.339 317.521 457.082 317.862V321.292ZM457.019 317.008C457.318 316.639 457.663 316.343 458.055 316.119C458.447 315.895 458.895 315.783 459.399 315.783C459.81 315.783 460.181 315.862 460.512 316.021C460.844 316.175 461.126 316.406 461.359 316.714C461.593 317.017 461.772 317.395 461.898 317.848C462.024 318.301 462.087 318.821 462.087 319.409C462.087 319.932 462.017 320.419 461.877 320.872C461.737 321.32 461.534 321.71 461.268 322.041C461.007 322.368 460.685 322.627 460.302 322.818C459.924 323.005 459.497 323.098 459.021 323.098C458.587 323.098 458.214 323.026 457.901 322.881C457.593 322.732 457.32 322.526 457.082 322.265V325.401H455.829V315.909H456.578C456.756 315.909 456.865 315.995 456.907 316.168L457.019 317.008ZM469.527 323H468.33C468.228 323 468.146 322.974 468.085 322.923C468.029 322.867 467.983 322.806 467.945 322.741L466.16 319.962C466.142 320.027 466.121 320.093 466.097 320.158C466.079 320.219 466.051 320.275 466.013 320.326L464.361 322.741C464.315 322.806 464.263 322.867 464.207 322.923C464.156 322.974 464.084 323 463.99 323H462.877L465.362 319.36L462.975 315.909H464.172C464.275 315.909 464.35 315.925 464.396 315.958C464.443 315.991 464.485 316.037 464.522 316.098L466.265 318.758C466.303 318.623 466.361 318.492 466.44 318.366L467.966 316.126C468.008 316.061 468.053 316.009 468.099 315.972C468.151 315.93 468.211 315.909 468.281 315.909H469.429L467.042 319.297L469.527 323Z" fill="black"/>
<path d="M508.91 388.685C508.975 388.228 509.101 387.824 509.288 387.474C509.475 387.119 509.71 386.823 509.995 386.585C510.284 386.347 510.613 386.167 510.982 386.046C511.355 385.92 511.757 385.857 512.186 385.857C512.611 385.857 513.003 385.918 513.362 386.039C513.721 386.16 514.029 386.333 514.286 386.557C514.547 386.781 514.75 387.052 514.895 387.369C515.04 387.686 515.112 388.039 515.112 388.426C515.112 388.743 515.07 389.028 514.986 389.28C514.907 389.527 514.79 389.744 514.636 389.931C514.487 390.118 514.305 390.276 514.09 390.407C513.875 390.538 513.635 390.645 513.369 390.729C514.022 390.897 514.512 391.186 514.839 391.597C515.17 392.003 515.336 392.512 515.336 393.123C515.336 393.585 515.247 394 515.07 394.369C514.897 394.738 514.659 395.053 514.356 395.314C514.053 395.571 513.698 395.769 513.292 395.909C512.891 396.044 512.459 396.112 511.997 396.112C511.465 396.112 511.01 396.047 510.632 395.916C510.254 395.781 509.934 395.596 509.673 395.363C509.412 395.13 509.197 394.854 509.029 394.537C508.861 394.215 508.719 393.867 508.602 393.494L509.141 393.27C509.281 393.209 509.416 393.193 509.547 393.221C509.682 393.249 509.78 393.326 509.841 393.452C509.902 393.583 509.976 393.739 510.065 393.921C510.158 394.103 510.284 394.278 510.443 394.446C510.602 394.614 510.802 394.756 511.045 394.873C511.292 394.99 511.605 395.048 511.983 395.048C512.333 395.048 512.639 394.992 512.9 394.88C513.166 394.763 513.385 394.614 513.558 394.432C513.735 394.25 513.868 394.047 513.957 393.823C514.046 393.599 514.09 393.377 514.09 393.158C514.09 392.887 514.055 392.64 513.985 392.416C513.915 392.192 513.784 391.998 513.593 391.835C513.402 391.672 513.138 391.543 512.802 391.45C512.471 391.357 512.044 391.31 511.521 391.31V390.407C511.95 390.402 512.314 390.356 512.613 390.267C512.916 390.178 513.161 390.057 513.348 389.903C513.539 389.749 513.677 389.565 513.761 389.35C513.85 389.135 513.894 388.897 513.894 388.636C513.894 388.347 513.847 388.095 513.754 387.88C513.665 387.665 513.542 387.488 513.383 387.348C513.224 387.208 513.035 387.103 512.816 387.033C512.601 386.963 512.368 386.928 512.116 386.928C511.864 386.928 511.628 386.965 511.409 387.04C511.194 387.115 511.003 387.22 510.835 387.355C510.672 387.486 510.534 387.642 510.422 387.824C510.31 388.006 510.231 388.207 510.184 388.426C510.123 388.589 510.046 388.699 509.953 388.755C509.864 388.806 509.734 388.82 509.561 388.797L508.91 388.685ZM520.481 395.118C520.808 395.118 521.099 395.074 521.356 394.985C521.617 394.892 521.837 394.763 522.014 394.6C522.196 394.432 522.334 394.234 522.427 394.005C522.525 393.772 522.574 393.515 522.574 393.235C522.574 392.89 522.516 392.596 522.399 392.353C522.287 392.106 522.133 391.905 521.937 391.751C521.746 391.597 521.524 391.485 521.272 391.415C521.02 391.34 520.756 391.303 520.481 391.303C520.206 391.303 519.942 391.34 519.69 391.415C519.438 391.485 519.214 391.597 519.018 391.751C518.827 391.905 518.673 392.106 518.556 392.353C518.444 392.596 518.388 392.89 518.388 393.235C518.388 393.515 518.435 393.772 518.528 394.005C518.626 394.234 518.764 394.432 518.941 394.6C519.123 394.763 519.342 394.892 519.599 394.985C519.86 395.074 520.154 395.118 520.481 395.118ZM520.481 386.823C520.182 386.823 519.919 386.867 519.69 386.956C519.466 387.045 519.277 387.166 519.123 387.32C518.974 387.474 518.859 387.654 518.78 387.859C518.705 388.064 518.668 388.284 518.668 388.517C518.668 388.746 518.701 388.967 518.766 389.182C518.831 389.397 518.936 389.588 519.081 389.756C519.226 389.919 519.412 390.052 519.641 390.155C519.874 390.253 520.154 390.302 520.481 390.302C520.808 390.302 521.085 390.253 521.314 390.155C521.547 390.052 521.736 389.919 521.881 389.756C522.026 389.588 522.131 389.397 522.196 389.182C522.261 388.967 522.294 388.746 522.294 388.517C522.294 388.284 522.254 388.064 522.175 387.859C522.1 387.654 521.986 387.474 521.832 387.32C521.683 387.166 521.494 387.045 521.265 386.956C521.041 386.867 520.78 386.823 520.481 386.823ZM521.916 390.771C522.541 390.948 523.022 391.245 523.358 391.66C523.694 392.075 523.862 392.607 523.862 393.256C523.862 393.695 523.778 394.091 523.61 394.446C523.447 394.796 523.216 395.095 522.917 395.342C522.623 395.589 522.268 395.781 521.853 395.916C521.438 396.047 520.98 396.112 520.481 396.112C519.982 396.112 519.524 396.047 519.109 395.916C518.694 395.781 518.337 395.589 518.038 395.342C517.739 395.095 517.508 394.796 517.345 394.446C517.182 394.091 517.1 393.695 517.1 393.256C517.1 392.607 517.268 392.075 517.604 391.66C517.94 391.245 518.421 390.948 519.046 390.771C518.519 390.575 518.12 390.283 517.849 389.896C517.583 389.504 517.45 389.037 517.45 388.496C517.45 388.127 517.522 387.782 517.667 387.46C517.812 387.138 518.017 386.858 518.283 386.62C518.549 386.382 518.866 386.195 519.235 386.06C519.608 385.925 520.024 385.857 520.481 385.857C520.934 385.857 521.347 385.925 521.72 386.06C522.093 386.195 522.413 386.382 522.679 386.62C522.945 386.858 523.15 387.138 523.295 387.46C523.44 387.782 523.512 388.127 523.512 388.496C523.512 389.037 523.377 389.504 523.106 389.896C522.84 390.283 522.443 390.575 521.916 390.771ZM527.082 394.292C527.311 394.6 527.561 394.817 527.831 394.943C528.102 395.069 528.405 395.132 528.741 395.132C529.404 395.132 529.913 394.896 530.267 394.425C530.622 393.954 530.799 393.282 530.799 392.409C530.799 391.947 530.757 391.55 530.673 391.219C530.594 390.888 530.477 390.617 530.323 390.407C530.169 390.192 529.98 390.036 529.756 389.938C529.532 389.84 529.278 389.791 528.993 389.791C528.587 389.791 528.23 389.884 527.922 390.071C527.619 390.258 527.339 390.521 527.082 390.862V394.292ZM527.019 390.008C527.318 389.639 527.663 389.343 528.055 389.119C528.447 388.895 528.895 388.783 529.399 388.783C529.81 388.783 530.181 388.862 530.512 389.021C530.844 389.175 531.126 389.406 531.359 389.714C531.593 390.017 531.772 390.395 531.898 390.848C532.024 391.301 532.087 391.821 532.087 392.409C532.087 392.932 532.017 393.419 531.877 393.872C531.737 394.32 531.534 394.71 531.268 395.041C531.007 395.368 530.685 395.627 530.302 395.818C529.924 396.005 529.497 396.098 529.021 396.098C528.587 396.098 528.214 396.026 527.901 395.881C527.593 395.732 527.32 395.526 527.082 395.265V398.401H525.829V388.909H526.578C526.756 388.909 526.865 388.995 526.907 389.168L527.019 390.008ZM539.527 396H538.33C538.228 396 538.146 395.974 538.085 395.923C538.029 395.867 537.983 395.806 537.945 395.741L536.16 392.962C536.142 393.027 536.121 393.093 536.097 393.158C536.079 393.219 536.051 393.275 536.013 393.326L534.361 395.741C534.315 395.806 534.263 395.867 534.207 395.923C534.156 395.974 534.084 396 533.99 396H532.877L535.362 392.36L532.975 388.909H534.172C534.275 388.909 534.35 388.925 534.396 388.958C534.443 388.991 534.485 389.037 534.522 389.098L536.265 391.758C536.303 391.623 536.361 391.492 536.44 391.366L537.966 389.126C538.008 389.061 538.053 389.009 538.099 388.972C538.151 388.93 538.211 388.909 538.281 388.909H539.429L537.042 392.297L539.527 396Z" fill="black"/>
<path d="M685.91 388.685C685.975 388.228 686.101 387.824 686.288 387.474C686.475 387.119 686.71 386.823 686.995 386.585C687.284 386.347 687.613 386.167 687.982 386.046C688.355 385.92 688.757 385.857 689.186 385.857C689.611 385.857 690.003 385.918 690.362 386.039C690.721 386.16 691.029 386.333 691.286 386.557C691.547 386.781 691.75 387.052 691.895 387.369C692.04 387.686 692.112 388.039 692.112 388.426C692.112 388.743 692.07 389.028 691.986 389.28C691.907 389.527 691.79 389.744 691.636 389.931C691.487 390.118 691.305 390.276 691.09 390.407C690.875 390.538 690.635 390.645 690.369 390.729C691.022 390.897 691.512 391.186 691.839 391.597C692.17 392.003 692.336 392.512 692.336 393.123C692.336 393.585 692.247 394 692.07 394.369C691.897 394.738 691.659 395.053 691.356 395.314C691.053 395.571 690.698 395.769 690.292 395.909C689.891 396.044 689.459 396.112 688.997 396.112C688.465 396.112 688.01 396.047 687.632 395.916C687.254 395.781 686.934 395.596 686.673 395.363C686.412 395.13 686.197 394.854 686.029 394.537C685.861 394.215 685.719 393.867 685.602 393.494L686.141 393.27C686.281 393.209 686.416 393.193 686.547 393.221C686.682 393.249 686.78 393.326 686.841 393.452C686.902 393.583 686.976 393.739 687.065 393.921C687.158 394.103 687.284 394.278 687.443 394.446C687.602 394.614 687.802 394.756 688.045 394.873C688.292 394.99 688.605 395.048 688.983 395.048C689.333 395.048 689.639 394.992 689.9 394.88C690.166 394.763 690.385 394.614 690.558 394.432C690.735 394.25 690.868 394.047 690.957 393.823C691.046 393.599 691.09 393.377 691.09 393.158C691.09 392.887 691.055 392.64 690.985 392.416C690.915 392.192 690.784 391.998 690.593 391.835C690.402 391.672 690.138 391.543 689.802 391.45C689.471 391.357 689.044 391.31 688.521 391.31V390.407C688.95 390.402 689.314 390.356 689.613 390.267C689.916 390.178 690.161 390.057 690.348 389.903C690.539 389.749 690.677 389.565 690.761 389.35C690.85 389.135 690.894 388.897 690.894 388.636C690.894 388.347 690.847 388.095 690.754 387.88C690.665 387.665 690.542 387.488 690.383 387.348C690.224 387.208 690.035 387.103 689.816 387.033C689.601 386.963 689.368 386.928 689.116 386.928C688.864 386.928 688.628 386.965 688.409 387.04C688.194 387.115 688.003 387.22 687.835 387.355C687.672 387.486 687.534 387.642 687.422 387.824C687.31 388.006 687.231 388.207 687.184 388.426C687.123 388.589 687.046 388.699 686.953 388.755C686.864 388.806 686.734 388.82 686.561 388.797L685.91 388.685ZM697.481 395.118C697.808 395.118 698.099 395.074 698.356 394.985C698.617 394.892 698.837 394.763 699.014 394.6C699.196 394.432 699.334 394.234 699.427 394.005C699.525 393.772 699.574 393.515 699.574 393.235C699.574 392.89 699.516 392.596 699.399 392.353C699.287 392.106 699.133 391.905 698.937 391.751C698.746 391.597 698.524 391.485 698.272 391.415C698.02 391.34 697.756 391.303 697.481 391.303C697.206 391.303 696.942 391.34 696.69 391.415C696.438 391.485 696.214 391.597 696.018 391.751C695.827 391.905 695.673 392.106 695.556 392.353C695.444 392.596 695.388 392.89 695.388 393.235C695.388 393.515 695.435 393.772 695.528 394.005C695.626 394.234 695.764 394.432 695.941 394.6C696.123 394.763 696.342 394.892 696.599 394.985C696.86 395.074 697.154 395.118 697.481 395.118ZM697.481 386.823C697.182 386.823 696.919 386.867 696.69 386.956C696.466 387.045 696.277 387.166 696.123 387.32C695.974 387.474 695.859 387.654 695.78 387.859C695.705 388.064 695.668 388.284 695.668 388.517C695.668 388.746 695.701 388.967 695.766 389.182C695.831 389.397 695.936 389.588 696.081 389.756C696.226 389.919 696.412 390.052 696.641 390.155C696.874 390.253 697.154 390.302 697.481 390.302C697.808 390.302 698.085 390.253 698.314 390.155C698.547 390.052 698.736 389.919 698.881 389.756C699.026 389.588 699.131 389.397 699.196 389.182C699.261 388.967 699.294 388.746 699.294 388.517C699.294 388.284 699.254 388.064 699.175 387.859C699.1 387.654 698.986 387.474 698.832 387.32C698.683 387.166 698.494 387.045 698.265 386.956C698.041 386.867 697.78 386.823 697.481 386.823ZM698.916 390.771C699.541 390.948 700.022 391.245 700.358 391.66C700.694 392.075 700.862 392.607 700.862 393.256C700.862 393.695 700.778 394.091 700.61 394.446C700.447 394.796 700.216 395.095 699.917 395.342C699.623 395.589 699.268 395.781 698.853 395.916C698.438 396.047 697.98 396.112 697.481 396.112C696.982 396.112 696.524 396.047 696.109 395.916C695.694 395.781 695.337 395.589 695.038 395.342C694.739 395.095 694.508 394.796 694.345 394.446C694.182 394.091 694.1 393.695 694.1 393.256C694.1 392.607 694.268 392.075 694.604 391.66C694.94 391.245 695.421 390.948 696.046 390.771C695.519 390.575 695.12 390.283 694.849 389.896C694.583 389.504 694.45 389.037 694.45 388.496C694.45 388.127 694.522 387.782 694.667 387.46C694.812 387.138 695.017 386.858 695.283 386.62C695.549 386.382 695.866 386.195 696.235 386.06C696.608 385.925 697.024 385.857 697.481 385.857C697.934 385.857 698.347 385.925 698.72 386.06C699.093 386.195 699.413 386.382 699.679 386.62C699.945 386.858 700.15 387.138 700.295 387.46C700.44 387.782 700.512 388.127 700.512 388.496C700.512 389.037 700.377 389.504 700.106 389.896C699.84 390.283 699.443 390.575 698.916 390.771ZM704.082 394.292C704.311 394.6 704.561 394.817 704.831 394.943C705.102 395.069 705.405 395.132 705.741 395.132C706.404 395.132 706.913 394.896 707.267 394.425C707.622 393.954 707.799 393.282 707.799 392.409C707.799 391.947 707.757 391.55 707.673 391.219C707.594 390.888 707.477 390.617 707.323 390.407C707.169 390.192 706.98 390.036 706.756 389.938C706.532 389.84 706.278 389.791 705.993 389.791C705.587 389.791 705.23 389.884 704.922 390.071C704.619 390.258 704.339 390.521 704.082 390.862V394.292ZM704.019 390.008C704.318 389.639 704.663 389.343 705.055 389.119C705.447 388.895 705.895 388.783 706.399 388.783C706.81 388.783 707.181 388.862 707.512 389.021C707.844 389.175 708.126 389.406 708.359 389.714C708.593 390.017 708.772 390.395 708.898 390.848C709.024 391.301 709.087 391.821 709.087 392.409C709.087 392.932 709.017 393.419 708.877 393.872C708.737 394.32 708.534 394.71 708.268 395.041C708.007 395.368 707.685 395.627 707.302 395.818C706.924 396.005 706.497 396.098 706.021 396.098C705.587 396.098 705.214 396.026 704.901 395.881C704.593 395.732 704.32 395.526 704.082 395.265V398.401H702.829V388.909H703.578C703.756 388.909 703.865 388.995 703.907 389.168L704.019 390.008ZM716.527 396H715.33C715.228 396 715.146 395.974 715.085 395.923C715.029 395.867 714.983 395.806 714.945 395.741L713.16 392.962C713.142 393.027 713.121 393.093 713.097 393.158C713.079 393.219 713.051 393.275 713.013 393.326L711.361 395.741C711.315 395.806 711.263 395.867 711.207 395.923C711.156 395.974 711.084 396 710.99 396H709.877L712.362 392.36L709.975 388.909H711.172C711.275 388.909 711.35 388.925 711.396 388.958C711.443 388.991 711.485 389.037 711.522 389.098L713.265 391.758C713.303 391.623 713.361 391.492 713.44 391.366L714.966 389.126C715.008 389.061 715.053 389.009 715.099 388.972C715.151 388.93 715.211 388.909 715.281 388.909H716.429L714.042 392.297L716.527 396Z" fill="black"/>
<path d="M747.11 291.381V287.244C747.11 287.123 747.115 286.99 747.124 286.845C747.133 286.7 747.147 286.553 747.166 286.404L743.512 291.381H747.11ZM749.721 291.381V292.095C749.721 292.17 749.698 292.233 749.651 292.284C749.609 292.335 749.541 292.361 749.448 292.361H748.202V295H747.11V292.361H742.658C742.565 292.361 742.483 292.335 742.413 292.284C742.348 292.228 742.306 292.16 742.287 292.081L742.161 291.444L747.04 284.969H748.202V291.381H749.721ZM752.661 293.292C752.89 293.6 753.139 293.817 753.41 293.943C753.681 294.069 753.984 294.132 754.32 294.132C754.983 294.132 755.491 293.896 755.846 293.425C756.201 292.954 756.378 292.282 756.378 291.409C756.378 290.947 756.336 290.55 756.252 290.219C756.173 289.888 756.056 289.617 755.902 289.407C755.748 289.192 755.559 289.036 755.335 288.938C755.111 288.84 754.857 288.791 754.572 288.791C754.166 288.791 753.809 288.884 753.501 289.071C753.198 289.258 752.918 289.521 752.661 289.862V293.292ZM752.598 289.008C752.897 288.639 753.242 288.343 753.634 288.119C754.026 287.895 754.474 287.783 754.978 287.783C755.389 287.783 755.76 287.862 756.091 288.021C756.422 288.175 756.705 288.406 756.938 288.714C757.171 289.017 757.351 289.395 757.477 289.848C757.603 290.301 757.666 290.821 757.666 291.409C757.666 291.932 757.596 292.419 757.456 292.872C757.316 293.32 757.113 293.71 756.847 294.041C756.586 294.368 756.264 294.627 755.881 294.818C755.503 295.005 755.076 295.098 754.6 295.098C754.166 295.098 753.793 295.026 753.48 294.881C753.172 294.732 752.899 294.526 752.661 294.265V297.401H751.408V287.909H752.157C752.334 287.909 752.444 287.995 752.486 288.168L752.598 289.008ZM765.106 295H763.909C763.807 295 763.725 294.974 763.664 294.923C763.608 294.867 763.562 294.806 763.524 294.741L761.739 291.962C761.721 292.027 761.7 292.093 761.676 292.158C761.658 292.219 761.63 292.275 761.592 292.326L759.94 294.741C759.894 294.806 759.842 294.867 759.786 294.923C759.735 294.974 759.663 295 759.569 295H758.456L760.941 291.36L758.554 287.909H759.751C759.854 287.909 759.929 287.925 759.975 287.958C760.022 287.991 760.064 288.037 760.101 288.098L761.844 290.758C761.882 290.623 761.94 290.492 762.019 290.366L763.545 288.126C763.587 288.061 763.632 288.009 763.678 287.972C763.73 287.93 763.79 287.909 763.86 287.909H765.008L762.621 291.297L765.106 295Z" fill="black"/>
<circle cx="720" cy="290" r="11.5" stroke="black"/>
</svg>
