<svg width="41" height="24" viewBox="0 0 41 24" fill="none" xmlns="http://www.w3.org/2000/svg">
<path d="M11.445 22.3699C12.9867 22.3699 14.2365 21.1253 14.2365 19.59C14.2365 18.0547 12.9867 16.8101 11.445 16.8101C9.90335 16.8101 8.65356 18.0547 8.65356 19.59C8.65356 21.1253 9.90335 22.3699 11.445 22.3699Z" fill="black"/>
<path fill-rule="evenodd" clip-rule="evenodd" d="M33.3302 1.92741C32.7533 0.296525 31.6926 0 30.4829 0H29.2175C29.1058 0 28.9941 -1.17632e-09 28.8825 0.0185328H2.97757C1.33991 0.0185328 0 1.3529 0 2.98378V21.0162C0 22.6471 1.33991 23.9815 2.97757 23.9815H21.6991V23.9629H21.7549C23.0204 23.9629 23.7462 23.5367 24.1184 22.5174L25.5141 18.6626H34.0374L35.3959 22.5174C35.7867 23.5367 36.6242 23.9629 37.778 23.9629C39.1365 23.9629 40.2531 22.9436 40.2531 21.6463C40.2531 21.0718 39.9367 20.1452 39.732 19.6263L33.3302 1.92741ZM11.4451 22.9992C9.56546 22.9992 8.02084 21.4795 8.02084 19.5892C8.02084 17.7174 9.54685 16.1792 11.4451 16.1792C13.3246 16.1792 14.8693 17.6988 14.8693 19.5892C14.8507 21.4795 13.3246 22.9992 11.4451 22.9992ZM18.6843 19.8487H15.5392C15.5392 19.1815 15.2601 15.4749 11.352 15.4749C7.44394 15.4749 7.27645 19.8857 7.27645 19.8857H6.43901C6.43901 19.8857 4.00112 18.9035 3.49865 18.644C2.99618 18.366 2.94036 16.9946 2.94036 16.9946V15.79H3.36838V14.5668C3.57309 11.9722 9.95627 9.63707 9.95627 9.63707C9.95627 9.63707 15.3159 4.37375 16.1533 3.63243C17.9585 2.05714 25.2722 2.40927 25.2722 2.40927L18.6843 19.8487ZM26.6493 15.0116L29.7757 5.72664H29.8316L32.8278 15.0116H26.6493Z" fill="black"/>
<path fill-rule="evenodd" clip-rule="evenodd" d="M7.68589 12.7699C7.46257 12.7143 6.64374 12.7143 6.29015 12.6958C6.17849 12.6958 6.06683 12.7329 5.99239 12.807C5.8249 12.9367 5.56436 13.1962 5.32244 13.5112C5.04329 13.8819 4.83858 14.3452 4.70831 14.6417C4.61526 14.8827 4.8758 14.9012 4.8758 14.9012L5.48993 15.0309C5.56436 15.0495 5.6388 15.0309 5.69463 14.9753L7.74172 13.1962C7.72311 13.1962 8.02086 12.8441 7.68589 12.7699Z" fill="black"/>
<path fill-rule="evenodd" clip-rule="evenodd" d="M21.5131 3.9668C21.234 3.9668 18.6472 4.24479 18.1447 4.33745C17.6423 4.43012 16.8979 5.00463 16.8979 5.00463L13.7156 8.50734V10.3792L20.4523 9.08185C20.4523 9.08185 21.327 8.91506 21.4573 7.80309C21.5875 6.69112 21.8667 4.31892 21.8667 4.31892C21.8667 4.31892 21.7922 3.9668 21.5131 3.9668Z" fill="black"/>
</svg>
