<svg width="1204" height="678" viewBox="0 0 1204 678" fill="none" xmlns="http://www.w3.org/2000/svg">
<rect width="1204" height="677.25" fill="white"/>
<rect x="243.5" y="239.5" width="772" height="49" stroke="#D8D8D8"/>
<rect x="243.5" y="338.5" width="772" height="49" stroke="#D8D8D8"/>
<rect x="243.5" y="387.5" width="148" height="49" transform="rotate(-90 243.5 387.5)" stroke="#D8D8D8"/>
<rect x="586.5" y="387.5" width="148" height="49" transform="rotate(-90 586.5 387.5)" stroke="#D8D8D8"/>
<rect x="966.5" y="387.5" width="148" height="49" transform="rotate(-90 966.5 387.5)" stroke="#D8D8D8"/>
<g clip-path="url(#clip0)">
<path fill-rule="evenodd" clip-rule="evenodd" d="M414.761 288.268C411.487 288.268 409.484 289.995 409.484 293.524V321.91H409.33L390.147 291.107C388.953 289.112 386.95 288.23 384.677 288.23C380.016 288.23 377.782 290.11 377.782 294.598V332.575C377.782 336.104 379.785 337.83 383.059 337.83C386.333 337.83 388.337 336.104 388.337 332.575V304.993H388.452L407.481 334.915C408.868 337.101 410.023 337.83 413.49 337.83C418.112 337.83 419.961 335.375 419.961 331.04V293.485C420.038 289.995 418.035 288.268 414.761 288.268Z" fill="#41A5DD"/>
<path fill-rule="evenodd" clip-rule="evenodd" d="M457.094 288.269C454.822 288.269 453.627 289.074 452.357 291.452L442.881 308.945L433.328 291.452C432.21 289.343 430.978 288.269 428.397 288.269C426.278 288.269 422.85 289.534 422.85 293.255C422.85 294.253 423.236 295.25 423.775 296.132L437.18 318.343V332.46C437.18 335.72 439.298 337.907 442.649 337.907C446.001 337.907 448.119 335.72 448.119 332.46V318.343L461.524 296.132C462.063 295.25 462.449 294.253 462.449 293.255C462.487 289.534 459.097 288.269 457.094 288.269Z" fill="#41A5DD"/>
<path fill-rule="evenodd" clip-rule="evenodd" d="M505.783 293.14C505.783 289.496 502.972 288.269 500.237 288.269C497.694 288.269 496.115 289.803 495.113 293.064L484.829 325.632H484.713L474.813 293.064C473.812 289.803 472.194 288.269 469.267 288.269C466.532 288.269 463.72 289.458 463.72 293.14C463.72 294.023 463.912 295.058 464.375 296.324L477.857 334.109C478.974 337.216 481.131 337.907 484.521 337.907C487.91 337.907 490.067 337.255 491.184 334.109L505.09 296.324C505.591 295.058 505.783 293.984 505.783 293.14Z" fill="#41A5DD"/>
<path fill-rule="evenodd" clip-rule="evenodd" d="M526.892 292.258C525.698 288.882 523.503 288.269 520.999 288.269H518.379C515.722 288.269 513.988 289.151 513.025 291.606L498.85 328.931C498.465 330.005 497.771 331.923 497.771 333.112C497.771 336.027 499.851 337.907 502.856 337.907C505.475 337.907 506.977 337.025 507.748 334.915L510.637 326.936H528.279L531.091 334.915C531.9 337.025 533.633 337.907 536.022 337.907C538.833 337.907 541.183 335.797 541.183 333.112C541.183 331.923 540.528 330.005 540.105 328.931L526.892 292.258ZM513.064 319.34L519.535 300.122H519.651L525.852 319.34H513.064Z" fill="#41A5DD"/>
<path fill-rule="evenodd" clip-rule="evenodd" d="M580.897 288.268C577.623 288.268 575.62 289.995 575.62 293.524V321.91H575.504L556.322 291.107C555.127 289.112 553.124 288.23 550.852 288.23C546.191 288.23 543.957 290.11 543.957 294.598V332.575C543.957 336.104 545.959 337.83 549.234 337.83C552.508 337.83 554.511 336.104 554.511 332.575V304.993H554.626L573.655 334.915C575.042 337.101 576.198 337.83 579.664 337.83C584.287 337.83 586.136 335.375 586.136 331.04V293.485C586.174 289.995 584.171 288.268 580.897 288.268Z" fill="#41A5DD"/>
<path d="M316.767 334.57C319.958 334.57 322.545 331.994 322.545 328.815C322.545 325.638 319.958 323.062 316.767 323.062C313.576 323.062 310.989 325.638 310.989 328.815C310.989 331.994 313.576 334.57 316.767 334.57Z" fill="#41A5DD"/>
<path fill-rule="evenodd" clip-rule="evenodd" d="M362.066 292.258C360.872 288.882 358.676 288.269 356.173 288.269H353.553C353.322 288.269 353.091 288.269 352.86 288.307H299.24C295.851 288.307 293.077 291.069 293.077 294.445V331.769C293.077 335.145 295.851 337.907 299.24 337.907H337.991V337.869H338.107C340.726 337.869 342.229 336.986 342.999 334.876L345.888 326.897H363.53L366.342 334.876C367.151 336.986 368.884 337.869 371.272 337.869C374.084 337.869 376.396 335.759 376.396 333.074C376.396 331.884 375.741 329.966 375.317 328.892L362.066 292.258ZM316.767 335.874C312.876 335.874 309.679 332.728 309.679 328.815C309.679 324.941 312.838 321.757 316.767 321.757C320.657 321.757 323.854 324.903 323.854 328.815C323.816 332.728 320.657 335.874 316.767 335.874ZM331.751 329.353H325.241C325.241 327.972 324.663 320.299 316.574 320.299C308.485 320.299 308.138 329.429 308.138 329.429H306.405C306.405 329.429 301.359 327.396 300.319 326.859C299.279 326.284 299.163 323.445 299.163 323.445V320.952H300.049V318.42C300.473 313.049 313.685 308.216 313.685 308.216C313.685 308.216 324.779 297.322 326.512 295.787C330.249 292.527 345.387 293.255 345.387 293.255L331.751 329.353ZM348.237 319.34L354.709 300.122H354.824L361.026 319.34H348.237Z" fill="#41A5DD"/>
<path fill-rule="evenodd" clip-rule="evenodd" d="M308.986 314.699C308.523 314.584 306.829 314.584 306.097 314.545C305.866 314.545 305.635 314.622 305.48 314.776C305.134 315.044 304.594 315.581 304.094 316.233C303.516 317 303.092 317.959 302.823 318.573C302.63 319.072 303.169 319.11 303.169 319.11L304.44 319.379C304.594 319.417 304.749 319.379 304.864 319.264L309.101 315.581C309.063 315.581 309.679 314.852 308.986 314.699Z" fill="#41A5DD"/>
<path fill-rule="evenodd" clip-rule="evenodd" d="M337.606 296.478C337.028 296.478 331.674 297.053 330.634 297.245C329.594 297.437 328.053 298.626 328.053 298.626L321.466 305.876V309.75L335.41 307.065C335.41 307.065 337.221 306.72 337.49 304.418C337.76 302.116 338.338 297.206 338.338 297.206C338.338 297.206 338.184 296.478 337.606 296.478Z" fill="#41A5DD"/>
</g>
<line x1="1026" y1="288.5" x2="1040" y2="288.5" stroke="black"/>
<line x1="1026" y1="338.5" x2="1040" y2="338.5" stroke="black"/>
<line x1="1039.5" y1="339" x2="1039.5" y2="289" stroke="black"/>
<path d="M1052.17 314.33C1052.39 313.845 1052.67 313.467 1053 313.196C1053.32 312.921 1053.72 312.783 1054.19 312.783C1054.34 312.783 1054.48 312.799 1054.62 312.832C1054.76 312.865 1054.88 312.916 1054.99 312.986L1054.9 313.917C1054.87 314.034 1054.8 314.092 1054.69 314.092C1054.62 314.092 1054.53 314.078 1054.4 314.05C1054.28 314.022 1054.13 314.008 1053.98 314.008C1053.75 314.008 1053.55 314.041 1053.37 314.106C1053.2 314.171 1053.05 314.269 1052.91 314.4C1052.77 314.526 1052.65 314.685 1052.53 314.876C1052.43 315.063 1052.33 315.277 1052.24 315.52V320H1050.99V312.909H1051.7C1051.84 312.909 1051.93 312.935 1051.98 312.986C1052.03 313.037 1052.07 313.126 1052.09 313.252L1052.17 314.33Z" fill="black"/>
<line x1="233" y1="289.5" x2="219" y2="289.5" stroke="black"/>
<line x1="233" y1="239.5" x2="219" y2="239.5" stroke="black"/>
<line x1="219.5" y1="239" x2="219.5" y2="289" stroke="black"/>
<path d="M155.126 268.048V269H149.75V268.048H151.899V261.209C151.899 261.004 151.906 260.796 151.92 260.586L150.135 262.119C150.074 262.17 150.014 262.203 149.953 262.217C149.892 262.226 149.836 262.226 149.785 262.217C149.734 262.208 149.685 262.189 149.638 262.161C149.596 262.133 149.563 262.103 149.54 262.07L149.148 261.531L152.137 258.948H153.152V268.048H155.126ZM164.121 263.988C164.121 264.865 164.025 265.626 163.834 266.27C163.647 266.909 163.391 267.439 163.064 267.859C162.737 268.279 162.35 268.592 161.902 268.797C161.459 269.002 160.983 269.105 160.474 269.105C159.961 269.105 159.482 269.002 159.039 268.797C158.6 268.592 158.218 268.279 157.891 267.859C157.564 267.439 157.308 266.909 157.121 266.27C156.934 265.626 156.841 264.865 156.841 263.988C156.841 263.111 156.934 262.35 157.121 261.706C157.308 261.062 157.564 260.53 157.891 260.11C158.218 259.685 158.6 259.37 159.039 259.165C159.482 258.96 159.961 258.857 160.474 258.857C160.983 258.857 161.459 258.96 161.902 259.165C162.35 259.37 162.737 259.685 163.064 260.11C163.391 260.53 163.647 261.062 163.834 261.706C164.025 262.35 164.121 263.111 164.121 263.988ZM162.826 263.988C162.826 263.223 162.761 262.581 162.63 262.063C162.504 261.54 162.331 261.12 162.112 260.803C161.897 260.486 161.648 260.259 161.363 260.124C161.078 259.984 160.782 259.914 160.474 259.914C160.166 259.914 159.87 259.984 159.585 260.124C159.3 260.259 159.051 260.486 158.836 260.803C158.621 261.12 158.449 261.54 158.318 262.063C158.192 262.581 158.129 263.223 158.129 263.988C158.129 264.753 158.192 265.395 158.318 265.913C158.449 266.431 158.621 266.849 158.836 267.166C159.051 267.483 159.3 267.712 159.585 267.852C159.87 267.987 160.166 268.055 160.474 268.055C160.782 268.055 161.078 267.987 161.363 267.852C161.648 267.712 161.897 267.483 162.112 267.166C162.331 266.849 162.504 266.431 162.63 265.913C162.761 265.395 162.826 264.753 162.826 263.988ZM172.542 263.988C172.542 264.865 172.447 265.626 172.255 266.27C172.069 266.909 171.812 267.439 171.485 267.859C171.159 268.279 170.771 268.592 170.323 268.797C169.88 269.002 169.404 269.105 168.895 269.105C168.382 269.105 167.904 269.002 167.46 268.797C167.022 268.592 166.639 268.279 166.312 267.859C165.986 267.439 165.729 266.909 165.542 266.27C165.356 265.626 165.262 264.865 165.262 263.988C165.262 263.111 165.356 262.35 165.542 261.706C165.729 261.062 165.986 260.53 166.312 260.11C166.639 259.685 167.022 259.37 167.46 259.165C167.904 258.96 168.382 258.857 168.895 258.857C169.404 258.857 169.88 258.96 170.323 259.165C170.771 259.37 171.159 259.685 171.485 260.11C171.812 260.53 172.069 261.062 172.255 261.706C172.447 262.35 172.542 263.111 172.542 263.988ZM171.247 263.988C171.247 263.223 171.182 262.581 171.051 262.063C170.925 261.54 170.753 261.12 170.533 260.803C170.319 260.486 170.069 260.259 169.784 260.124C169.5 259.984 169.203 259.914 168.895 259.914C168.587 259.914 168.291 259.984 168.006 260.124C167.722 260.259 167.472 260.486 167.257 260.803C167.043 261.12 166.87 261.54 166.739 262.063C166.613 262.581 166.55 263.223 166.55 263.988C166.55 264.753 166.613 265.395 166.739 265.913C166.87 266.431 167.043 266.849 167.257 267.166C167.472 267.483 167.722 267.712 168.006 267.852C168.291 267.987 168.587 268.055 168.895 268.055C169.203 268.055 169.5 267.987 169.784 267.852C170.069 267.712 170.319 267.483 170.533 267.166C170.753 266.849 170.925 266.431 171.051 265.913C171.182 265.395 171.247 264.753 171.247 263.988ZM178.317 261.391C178.317 261.783 178.257 262.135 178.135 262.448C178.014 262.756 177.851 263.017 177.645 263.232C177.445 263.442 177.209 263.603 176.938 263.715C176.672 263.827 176.39 263.883 176.091 263.883C175.779 263.883 175.487 263.827 175.216 263.715C174.946 263.603 174.71 263.442 174.509 263.232C174.313 263.017 174.159 262.756 174.047 262.448C173.935 262.135 173.879 261.783 173.879 261.391C173.879 260.99 173.935 260.633 174.047 260.32C174.159 260.007 174.313 259.744 174.509 259.529C174.71 259.314 174.946 259.151 175.216 259.039C175.487 258.927 175.779 258.871 176.091 258.871C176.409 258.871 176.703 258.927 176.973 259.039C177.244 259.151 177.48 259.314 177.68 259.529C177.881 259.744 178.037 260.007 178.149 260.32C178.261 260.633 178.317 260.99 178.317 261.391ZM177.351 261.391C177.351 261.083 177.319 260.822 177.253 260.607C177.188 260.392 177.097 260.217 176.98 260.082C176.868 259.942 176.735 259.842 176.581 259.781C176.427 259.72 176.264 259.69 176.091 259.69C175.919 259.69 175.758 259.72 175.608 259.781C175.459 259.842 175.328 259.942 175.216 260.082C175.104 260.217 175.016 260.392 174.95 260.607C174.885 260.822 174.852 261.083 174.852 261.391C174.852 261.694 174.885 261.953 174.95 262.168C175.016 262.378 175.104 262.551 175.216 262.686C175.328 262.817 175.459 262.912 175.608 262.973C175.758 263.029 175.919 263.057 176.091 263.057C176.264 263.057 176.427 263.029 176.581 262.973C176.735 262.912 176.868 262.817 176.98 262.686C177.097 262.551 177.188 262.378 177.253 262.168C177.319 261.953 177.351 261.694 177.351 261.391ZM181.866 259.179C181.913 259.123 181.967 259.074 182.027 259.032C182.093 258.99 182.179 258.969 182.286 258.969H183.189L175.853 268.797C175.811 268.858 175.758 268.907 175.692 268.944C175.627 268.981 175.548 269 175.454 269H174.537L181.866 259.179ZM183.868 266.634C183.868 267.026 183.808 267.376 183.686 267.684C183.565 267.992 183.402 268.253 183.196 268.468C182.996 268.678 182.76 268.839 182.489 268.951C182.223 269.063 181.941 269.119 181.642 269.119C181.325 269.119 181.031 269.063 180.76 268.951C180.494 268.839 180.261 268.678 180.06 268.468C179.864 268.253 179.71 267.992 179.598 267.684C179.486 267.376 179.43 267.026 179.43 266.634C179.43 266.233 179.486 265.876 179.598 265.563C179.71 265.246 179.864 264.98 180.06 264.765C180.261 264.55 180.494 264.387 180.76 264.275C181.031 264.163 181.325 264.107 181.642 264.107C181.955 264.107 182.247 264.163 182.517 264.275C182.793 264.387 183.028 264.55 183.224 264.765C183.425 264.98 183.581 265.246 183.693 265.563C183.81 265.876 183.868 266.233 183.868 266.634ZM182.902 266.634C182.902 266.326 182.87 266.065 182.804 265.85C182.739 265.631 182.648 265.453 182.531 265.318C182.419 265.183 182.286 265.085 182.132 265.024C181.978 264.963 181.815 264.933 181.642 264.933C181.47 264.933 181.306 264.963 181.152 265.024C181.003 265.085 180.872 265.183 180.76 265.318C180.648 265.453 180.56 265.631 180.494 265.85C180.434 266.065 180.403 266.326 180.403 266.634C180.403 266.937 180.434 267.194 180.494 267.404C180.56 267.614 180.648 267.787 180.76 267.922C180.872 268.053 181.003 268.148 181.152 268.209C181.306 268.265 181.47 268.293 181.642 268.293C181.815 268.293 181.978 268.265 182.132 268.209C182.286 268.148 182.419 268.053 182.531 267.922C182.648 267.787 182.739 267.614 182.804 267.404C182.87 267.194 182.902 266.937 182.902 266.634ZM192.646 261.797C193.164 261.797 193.631 261.883 194.046 262.056C194.461 262.229 194.816 262.474 195.11 262.791C195.404 263.108 195.628 263.493 195.782 263.946C195.941 264.394 196.02 264.896 196.02 265.451C196.02 266.011 195.941 266.515 195.782 266.963C195.628 267.411 195.404 267.794 195.11 268.111C194.816 268.428 194.461 268.673 194.046 268.846C193.631 269.014 193.164 269.098 192.646 269.098C192.123 269.098 191.652 269.014 191.232 268.846C190.817 268.673 190.462 268.428 190.168 268.111C189.874 267.794 189.648 267.411 189.489 266.963C189.335 266.515 189.258 266.011 189.258 265.451C189.258 264.896 189.335 264.394 189.489 263.946C189.648 263.493 189.874 263.108 190.168 262.791C190.462 262.474 190.817 262.229 191.232 262.056C191.652 261.883 192.123 261.797 192.646 261.797ZM192.646 268.125C193.346 268.125 193.869 267.892 194.214 267.425C194.559 266.954 194.732 266.298 194.732 265.458C194.732 264.613 194.559 263.955 194.214 263.484C193.869 263.013 193.346 262.777 192.646 262.777C192.291 262.777 191.981 262.838 191.715 262.959C191.454 263.08 191.234 263.255 191.057 263.484C190.884 263.713 190.754 263.995 190.665 264.331C190.581 264.662 190.539 265.038 190.539 265.458C190.539 266.298 190.712 266.954 191.057 267.425C191.407 267.892 191.937 268.125 192.646 268.125ZM198.212 269V262.973L197.428 262.882C197.33 262.859 197.248 262.824 197.183 262.777C197.122 262.726 197.092 262.653 197.092 262.56V262.049H198.212V261.363C198.212 260.957 198.268 260.598 198.38 260.285C198.497 259.968 198.66 259.702 198.87 259.487C199.085 259.268 199.341 259.102 199.64 258.99C199.939 258.878 200.275 258.822 200.648 258.822C200.965 258.822 201.257 258.869 201.523 258.962L201.495 259.585C201.486 259.697 201.423 259.758 201.306 259.767C201.194 259.776 201.042 259.781 200.851 259.781C200.636 259.781 200.44 259.809 200.263 259.865C200.09 259.921 199.941 260.012 199.815 260.138C199.689 260.264 199.591 260.43 199.521 260.635C199.456 260.84 199.423 261.095 199.423 261.398V262.049H201.467V262.952H199.465V269H198.212ZM207.763 263.33C207.987 262.845 208.263 262.467 208.589 262.196C208.916 261.921 209.315 261.783 209.786 261.783C209.936 261.783 210.078 261.799 210.213 261.832C210.353 261.865 210.477 261.916 210.584 261.986L210.493 262.917C210.465 263.034 210.395 263.092 210.283 263.092C210.218 263.092 210.122 263.078 209.996 263.05C209.87 263.022 209.728 263.008 209.569 263.008C209.345 263.008 209.145 263.041 208.967 263.106C208.795 263.171 208.638 263.269 208.498 263.4C208.363 263.526 208.239 263.685 208.127 263.876C208.02 264.063 207.922 264.277 207.833 264.52V269H206.58V261.909H207.294C207.43 261.909 207.523 261.935 207.574 261.986C207.626 262.037 207.661 262.126 207.679 262.252L207.763 263.33Z" fill="black"/>
<line x1="293.5" y1="398" x2="293.5" y2="412" stroke="black"/>
<line x1="243.5" y1="398" x2="243.5" y2="412" stroke="black"/>
<line x1="243" y1="411.5" x2="293" y2="411.5" stroke="black"/>
<path d="M243.126 435.048V436H237.75V435.048H239.899V428.209C239.899 428.004 239.906 427.796 239.92 427.586L238.135 429.119C238.074 429.17 238.014 429.203 237.953 429.217C237.892 429.226 237.836 429.226 237.785 429.217C237.734 429.208 237.685 429.189 237.638 429.161C237.596 429.133 237.563 429.103 237.54 429.07L237.148 428.531L240.137 425.948H241.152V435.048H243.126ZM252.121 430.988C252.121 431.865 252.025 432.626 251.834 433.27C251.647 433.909 251.391 434.439 251.064 434.859C250.737 435.279 250.35 435.592 249.902 435.797C249.459 436.002 248.983 436.105 248.474 436.105C247.961 436.105 247.482 436.002 247.039 435.797C246.6 435.592 246.218 435.279 245.891 434.859C245.564 434.439 245.308 433.909 245.121 433.27C244.934 432.626 244.841 431.865 244.841 430.988C244.841 430.111 244.934 429.35 245.121 428.706C245.308 428.062 245.564 427.53 245.891 427.11C246.218 426.685 246.6 426.37 247.039 426.165C247.482 425.96 247.961 425.857 248.474 425.857C248.983 425.857 249.459 425.96 249.902 426.165C250.35 426.37 250.737 426.685 251.064 427.11C251.391 427.53 251.647 428.062 251.834 428.706C252.025 429.35 252.121 430.111 252.121 430.988ZM250.826 430.988C250.826 430.223 250.761 429.581 250.63 429.063C250.504 428.54 250.331 428.12 250.112 427.803C249.897 427.486 249.648 427.259 249.363 427.124C249.078 426.984 248.782 426.914 248.474 426.914C248.166 426.914 247.87 426.984 247.585 427.124C247.3 427.259 247.051 427.486 246.836 427.803C246.621 428.12 246.449 428.54 246.318 429.063C246.192 429.581 246.129 430.223 246.129 430.988C246.129 431.753 246.192 432.395 246.318 432.913C246.449 433.431 246.621 433.849 246.836 434.166C247.051 434.483 247.3 434.712 247.585 434.852C247.87 434.987 248.166 435.055 248.474 435.055C248.782 435.055 249.078 434.987 249.363 434.852C249.648 434.712 249.897 434.483 250.112 434.166C250.331 433.849 250.504 433.431 250.63 432.913C250.761 432.395 250.826 431.753 250.826 430.988ZM260.542 430.988C260.542 431.865 260.447 432.626 260.255 433.27C260.069 433.909 259.812 434.439 259.485 434.859C259.159 435.279 258.771 435.592 258.323 435.797C257.88 436.002 257.404 436.105 256.895 436.105C256.382 436.105 255.904 436.002 255.46 435.797C255.022 435.592 254.639 435.279 254.312 434.859C253.986 434.439 253.729 433.909 253.542 433.27C253.356 432.626 253.262 431.865 253.262 430.988C253.262 430.111 253.356 429.35 253.542 428.706C253.729 428.062 253.986 427.53 254.312 427.11C254.639 426.685 255.022 426.37 255.46 426.165C255.904 425.96 256.382 425.857 256.895 425.857C257.404 425.857 257.88 425.96 258.323 426.165C258.771 426.37 259.159 426.685 259.485 427.11C259.812 427.53 260.069 428.062 260.255 428.706C260.447 429.35 260.542 430.111 260.542 430.988ZM259.247 430.988C259.247 430.223 259.182 429.581 259.051 429.063C258.925 428.54 258.753 428.12 258.533 427.803C258.319 427.486 258.069 427.259 257.784 427.124C257.5 426.984 257.203 426.914 256.895 426.914C256.587 426.914 256.291 426.984 256.006 427.124C255.722 427.259 255.472 427.486 255.257 427.803C255.043 428.12 254.87 428.54 254.739 429.063C254.613 429.581 254.55 430.223 254.55 430.988C254.55 431.753 254.613 432.395 254.739 432.913C254.87 433.431 255.043 433.849 255.257 434.166C255.472 434.483 255.722 434.712 256.006 434.852C256.291 434.987 256.587 435.055 256.895 435.055C257.203 435.055 257.5 434.987 257.784 434.852C258.069 434.712 258.319 434.483 258.533 434.166C258.753 433.849 258.925 433.431 259.051 432.913C259.182 432.395 259.247 431.753 259.247 430.988ZM266.317 428.391C266.317 428.783 266.257 429.135 266.135 429.448C266.014 429.756 265.851 430.017 265.645 430.232C265.445 430.442 265.209 430.603 264.938 430.715C264.672 430.827 264.39 430.883 264.091 430.883C263.779 430.883 263.487 430.827 263.216 430.715C262.946 430.603 262.71 430.442 262.509 430.232C262.313 430.017 262.159 429.756 262.047 429.448C261.935 429.135 261.879 428.783 261.879 428.391C261.879 427.99 261.935 427.633 262.047 427.32C262.159 427.007 262.313 426.744 262.509 426.529C262.71 426.314 262.946 426.151 263.216 426.039C263.487 425.927 263.779 425.871 264.091 425.871C264.409 425.871 264.703 425.927 264.973 426.039C265.244 426.151 265.48 426.314 265.68 426.529C265.881 426.744 266.037 427.007 266.149 427.32C266.261 427.633 266.317 427.99 266.317 428.391ZM265.351 428.391C265.351 428.083 265.319 427.822 265.253 427.607C265.188 427.392 265.097 427.217 264.98 427.082C264.868 426.942 264.735 426.842 264.581 426.781C264.427 426.72 264.264 426.69 264.091 426.69C263.919 426.69 263.758 426.72 263.608 426.781C263.459 426.842 263.328 426.942 263.216 427.082C263.104 427.217 263.016 427.392 262.95 427.607C262.885 427.822 262.852 428.083 262.852 428.391C262.852 428.694 262.885 428.953 262.95 429.168C263.016 429.378 263.104 429.551 263.216 429.686C263.328 429.817 263.459 429.912 263.608 429.973C263.758 430.029 263.919 430.057 264.091 430.057C264.264 430.057 264.427 430.029 264.581 429.973C264.735 429.912 264.868 429.817 264.98 429.686C265.097 429.551 265.188 429.378 265.253 429.168C265.319 428.953 265.351 428.694 265.351 428.391ZM269.866 426.179C269.913 426.123 269.967 426.074 270.027 426.032C270.093 425.99 270.179 425.969 270.286 425.969H271.189L263.853 435.797C263.811 435.858 263.758 435.907 263.692 435.944C263.627 435.981 263.548 436 263.454 436H262.537L269.866 426.179ZM271.868 433.634C271.868 434.026 271.808 434.376 271.686 434.684C271.565 434.992 271.402 435.253 271.196 435.468C270.996 435.678 270.76 435.839 270.489 435.951C270.223 436.063 269.941 436.119 269.642 436.119C269.325 436.119 269.031 436.063 268.76 435.951C268.494 435.839 268.261 435.678 268.06 435.468C267.864 435.253 267.71 434.992 267.598 434.684C267.486 434.376 267.43 434.026 267.43 433.634C267.43 433.233 267.486 432.876 267.598 432.563C267.71 432.246 267.864 431.98 268.06 431.765C268.261 431.55 268.494 431.387 268.76 431.275C269.031 431.163 269.325 431.107 269.642 431.107C269.955 431.107 270.247 431.163 270.517 431.275C270.793 431.387 271.028 431.55 271.224 431.765C271.425 431.98 271.581 432.246 271.693 432.563C271.81 432.876 271.868 433.233 271.868 433.634ZM270.902 433.634C270.902 433.326 270.87 433.065 270.804 432.85C270.739 432.631 270.648 432.453 270.531 432.318C270.419 432.183 270.286 432.085 270.132 432.024C269.978 431.963 269.815 431.933 269.642 431.933C269.47 431.933 269.306 431.963 269.152 432.024C269.003 432.085 268.872 432.183 268.76 432.318C268.648 432.453 268.56 432.631 268.494 432.85C268.434 433.065 268.403 433.326 268.403 433.634C268.403 433.937 268.434 434.194 268.494 434.404C268.56 434.614 268.648 434.787 268.76 434.922C268.872 435.053 269.003 435.148 269.152 435.209C269.306 435.265 269.47 435.293 269.642 435.293C269.815 435.293 269.978 435.265 270.132 435.209C270.286 435.148 270.419 435.053 270.531 434.922C270.648 434.787 270.739 434.614 270.804 434.404C270.87 434.194 270.902 433.937 270.902 433.634ZM280.646 428.797C281.164 428.797 281.631 428.883 282.046 429.056C282.461 429.229 282.816 429.474 283.11 429.791C283.404 430.108 283.628 430.493 283.782 430.946C283.941 431.394 284.02 431.896 284.02 432.451C284.02 433.011 283.941 433.515 283.782 433.963C283.628 434.411 283.404 434.794 283.11 435.111C282.816 435.428 282.461 435.673 282.046 435.846C281.631 436.014 281.164 436.098 280.646 436.098C280.123 436.098 279.652 436.014 279.232 435.846C278.817 435.673 278.462 435.428 278.168 435.111C277.874 434.794 277.648 434.411 277.489 433.963C277.335 433.515 277.258 433.011 277.258 432.451C277.258 431.896 277.335 431.394 277.489 430.946C277.648 430.493 277.874 430.108 278.168 429.791C278.462 429.474 278.817 429.229 279.232 429.056C279.652 428.883 280.123 428.797 280.646 428.797ZM280.646 435.125C281.346 435.125 281.869 434.892 282.214 434.425C282.559 433.954 282.732 433.298 282.732 432.458C282.732 431.613 282.559 430.955 282.214 430.484C281.869 430.013 281.346 429.777 280.646 429.777C280.291 429.777 279.981 429.838 279.715 429.959C279.454 430.08 279.234 430.255 279.057 430.484C278.884 430.713 278.754 430.995 278.665 431.331C278.581 431.662 278.539 432.038 278.539 432.458C278.539 433.298 278.712 433.954 279.057 434.425C279.407 434.892 279.937 435.125 280.646 435.125ZM286.212 436V429.973L285.428 429.882C285.33 429.859 285.248 429.824 285.183 429.777C285.122 429.726 285.092 429.653 285.092 429.56V429.049H286.212V428.363C286.212 427.957 286.268 427.598 286.38 427.285C286.497 426.968 286.66 426.702 286.87 426.487C287.085 426.268 287.341 426.102 287.64 425.99C287.939 425.878 288.275 425.822 288.648 425.822C288.965 425.822 289.257 425.869 289.523 425.962L289.495 426.585C289.486 426.697 289.423 426.758 289.306 426.767C289.194 426.776 289.042 426.781 288.851 426.781C288.636 426.781 288.44 426.809 288.263 426.865C288.09 426.921 287.941 427.012 287.815 427.138C287.689 427.264 287.591 427.43 287.521 427.635C287.456 427.84 287.423 428.095 287.423 428.398V429.049H289.467V429.952H287.465V436H286.212ZM295.763 430.33C295.987 429.845 296.263 429.467 296.589 429.196C296.916 428.921 297.315 428.783 297.786 428.783C297.936 428.783 298.078 428.799 298.213 428.832C298.353 428.865 298.477 428.916 298.584 428.986L298.493 429.917C298.465 430.034 298.395 430.092 298.283 430.092C298.218 430.092 298.122 430.078 297.996 430.05C297.87 430.022 297.728 430.008 297.569 430.008C297.345 430.008 297.145 430.041 296.967 430.106C296.795 430.171 296.638 430.269 296.498 430.4C296.363 430.526 296.239 430.685 296.127 430.876C296.02 431.063 295.922 431.277 295.833 431.52V436H294.58V428.909H295.294C295.43 428.909 295.523 428.935 295.574 428.986C295.626 429.037 295.661 429.126 295.679 429.252L295.763 430.33Z" fill="black"/>
<line x1="636.5" y1="398" x2="636.5" y2="412" stroke="black"/>
<line x1="586.5" y1="398" x2="586.5" y2="412" stroke="black"/>
<line x1="586" y1="411.5" x2="636" y2="411.5" stroke="black"/>
<path d="M586.126 435.048V436H580.75V435.048H582.899V428.209C582.899 428.004 582.906 427.796 582.92 427.586L581.135 429.119C581.074 429.17 581.014 429.203 580.953 429.217C580.892 429.226 580.836 429.226 580.785 429.217C580.734 429.208 580.685 429.189 580.638 429.161C580.596 429.133 580.563 429.103 580.54 429.07L580.148 428.531L583.137 425.948H584.152V435.048H586.126ZM595.121 430.988C595.121 431.865 595.025 432.626 594.834 433.27C594.647 433.909 594.391 434.439 594.064 434.859C593.737 435.279 593.35 435.592 592.902 435.797C592.459 436.002 591.983 436.105 591.474 436.105C590.961 436.105 590.482 436.002 590.039 435.797C589.6 435.592 589.218 435.279 588.891 434.859C588.564 434.439 588.308 433.909 588.121 433.27C587.934 432.626 587.841 431.865 587.841 430.988C587.841 430.111 587.934 429.35 588.121 428.706C588.308 428.062 588.564 427.53 588.891 427.11C589.218 426.685 589.6 426.37 590.039 426.165C590.482 425.96 590.961 425.857 591.474 425.857C591.983 425.857 592.459 425.96 592.902 426.165C593.35 426.37 593.737 426.685 594.064 427.11C594.391 427.53 594.647 428.062 594.834 428.706C595.025 429.35 595.121 430.111 595.121 430.988ZM593.826 430.988C593.826 430.223 593.761 429.581 593.63 429.063C593.504 428.54 593.331 428.12 593.112 427.803C592.897 427.486 592.648 427.259 592.363 427.124C592.078 426.984 591.782 426.914 591.474 426.914C591.166 426.914 590.87 426.984 590.585 427.124C590.3 427.259 590.051 427.486 589.836 427.803C589.621 428.12 589.449 428.54 589.318 429.063C589.192 429.581 589.129 430.223 589.129 430.988C589.129 431.753 589.192 432.395 589.318 432.913C589.449 433.431 589.621 433.849 589.836 434.166C590.051 434.483 590.3 434.712 590.585 434.852C590.87 434.987 591.166 435.055 591.474 435.055C591.782 435.055 592.078 434.987 592.363 434.852C592.648 434.712 592.897 434.483 593.112 434.166C593.331 433.849 593.504 433.431 593.63 432.913C593.761 432.395 593.826 431.753 593.826 430.988ZM603.542 430.988C603.542 431.865 603.447 432.626 603.255 433.27C603.069 433.909 602.812 434.439 602.485 434.859C602.159 435.279 601.771 435.592 601.323 435.797C600.88 436.002 600.404 436.105 599.895 436.105C599.382 436.105 598.904 436.002 598.46 435.797C598.022 435.592 597.639 435.279 597.312 434.859C596.986 434.439 596.729 433.909 596.542 433.27C596.356 432.626 596.262 431.865 596.262 430.988C596.262 430.111 596.356 429.35 596.542 428.706C596.729 428.062 596.986 427.53 597.312 427.11C597.639 426.685 598.022 426.37 598.46 426.165C598.904 425.96 599.382 425.857 599.895 425.857C600.404 425.857 600.88 425.96 601.323 426.165C601.771 426.37 602.159 426.685 602.485 427.11C602.812 427.53 603.069 428.062 603.255 428.706C603.447 429.35 603.542 430.111 603.542 430.988ZM602.247 430.988C602.247 430.223 602.182 429.581 602.051 429.063C601.925 428.54 601.753 428.12 601.533 427.803C601.319 427.486 601.069 427.259 600.784 427.124C600.5 426.984 600.203 426.914 599.895 426.914C599.587 426.914 599.291 426.984 599.006 427.124C598.722 427.259 598.472 427.486 598.257 427.803C598.043 428.12 597.87 428.54 597.739 429.063C597.613 429.581 597.55 430.223 597.55 430.988C597.55 431.753 597.613 432.395 597.739 432.913C597.87 433.431 598.043 433.849 598.257 434.166C598.472 434.483 598.722 434.712 599.006 434.852C599.291 434.987 599.587 435.055 599.895 435.055C600.203 435.055 600.5 434.987 600.784 434.852C601.069 434.712 601.319 434.483 601.533 434.166C601.753 433.849 601.925 433.431 602.051 432.913C602.182 432.395 602.247 431.753 602.247 430.988ZM609.317 428.391C609.317 428.783 609.257 429.135 609.135 429.448C609.014 429.756 608.851 430.017 608.645 430.232C608.445 430.442 608.209 430.603 607.938 430.715C607.672 430.827 607.39 430.883 607.091 430.883C606.779 430.883 606.487 430.827 606.216 430.715C605.946 430.603 605.71 430.442 605.509 430.232C605.313 430.017 605.159 429.756 605.047 429.448C604.935 429.135 604.879 428.783 604.879 428.391C604.879 427.99 604.935 427.633 605.047 427.32C605.159 427.007 605.313 426.744 605.509 426.529C605.71 426.314 605.946 426.151 606.216 426.039C606.487 425.927 606.779 425.871 607.091 425.871C607.409 425.871 607.703 425.927 607.973 426.039C608.244 426.151 608.48 426.314 608.68 426.529C608.881 426.744 609.037 427.007 609.149 427.32C609.261 427.633 609.317 427.99 609.317 428.391ZM608.351 428.391C608.351 428.083 608.319 427.822 608.253 427.607C608.188 427.392 608.097 427.217 607.98 427.082C607.868 426.942 607.735 426.842 607.581 426.781C607.427 426.72 607.264 426.69 607.091 426.69C606.919 426.69 606.758 426.72 606.608 426.781C606.459 426.842 606.328 426.942 606.216 427.082C606.104 427.217 606.016 427.392 605.95 427.607C605.885 427.822 605.852 428.083 605.852 428.391C605.852 428.694 605.885 428.953 605.95 429.168C606.016 429.378 606.104 429.551 606.216 429.686C606.328 429.817 606.459 429.912 606.608 429.973C606.758 430.029 606.919 430.057 607.091 430.057C607.264 430.057 607.427 430.029 607.581 429.973C607.735 429.912 607.868 429.817 607.98 429.686C608.097 429.551 608.188 429.378 608.253 429.168C608.319 428.953 608.351 428.694 608.351 428.391ZM612.866 426.179C612.913 426.123 612.967 426.074 613.027 426.032C613.093 425.99 613.179 425.969 613.286 425.969H614.189L606.853 435.797C606.811 435.858 606.758 435.907 606.692 435.944C606.627 435.981 606.548 436 606.454 436H605.537L612.866 426.179ZM614.868 433.634C614.868 434.026 614.808 434.376 614.686 434.684C614.565 434.992 614.402 435.253 614.196 435.468C613.996 435.678 613.76 435.839 613.489 435.951C613.223 436.063 612.941 436.119 612.642 436.119C612.325 436.119 612.031 436.063 611.76 435.951C611.494 435.839 611.261 435.678 611.06 435.468C610.864 435.253 610.71 434.992 610.598 434.684C610.486 434.376 610.43 434.026 610.43 433.634C610.43 433.233 610.486 432.876 610.598 432.563C610.71 432.246 610.864 431.98 611.06 431.765C611.261 431.55 611.494 431.387 611.76 431.275C612.031 431.163 612.325 431.107 612.642 431.107C612.955 431.107 613.247 431.163 613.517 431.275C613.793 431.387 614.028 431.55 614.224 431.765C614.425 431.98 614.581 432.246 614.693 432.563C614.81 432.876 614.868 433.233 614.868 433.634ZM613.902 433.634C613.902 433.326 613.87 433.065 613.804 432.85C613.739 432.631 613.648 432.453 613.531 432.318C613.419 432.183 613.286 432.085 613.132 432.024C612.978 431.963 612.815 431.933 612.642 431.933C612.47 431.933 612.306 431.963 612.152 432.024C612.003 432.085 611.872 432.183 611.76 432.318C611.648 432.453 611.56 432.631 611.494 432.85C611.434 433.065 611.403 433.326 611.403 433.634C611.403 433.937 611.434 434.194 611.494 434.404C611.56 434.614 611.648 434.787 611.76 434.922C611.872 435.053 612.003 435.148 612.152 435.209C612.306 435.265 612.47 435.293 612.642 435.293C612.815 435.293 612.978 435.265 613.132 435.209C613.286 435.148 613.419 435.053 613.531 434.922C613.648 434.787 613.739 434.614 613.804 434.404C613.87 434.194 613.902 433.937 613.902 433.634ZM623.646 428.797C624.164 428.797 624.631 428.883 625.046 429.056C625.461 429.229 625.816 429.474 626.11 429.791C626.404 430.108 626.628 430.493 626.782 430.946C626.941 431.394 627.02 431.896 627.02 432.451C627.02 433.011 626.941 433.515 626.782 433.963C626.628 434.411 626.404 434.794 626.11 435.111C625.816 435.428 625.461 435.673 625.046 435.846C624.631 436.014 624.164 436.098 623.646 436.098C623.123 436.098 622.652 436.014 622.232 435.846C621.817 435.673 621.462 435.428 621.168 435.111C620.874 434.794 620.648 434.411 620.489 433.963C620.335 433.515 620.258 433.011 620.258 432.451C620.258 431.896 620.335 431.394 620.489 430.946C620.648 430.493 620.874 430.108 621.168 429.791C621.462 429.474 621.817 429.229 622.232 429.056C622.652 428.883 623.123 428.797 623.646 428.797ZM623.646 435.125C624.346 435.125 624.869 434.892 625.214 434.425C625.559 433.954 625.732 433.298 625.732 432.458C625.732 431.613 625.559 430.955 625.214 430.484C624.869 430.013 624.346 429.777 623.646 429.777C623.291 429.777 622.981 429.838 622.715 429.959C622.454 430.08 622.234 430.255 622.057 430.484C621.884 430.713 621.754 430.995 621.665 431.331C621.581 431.662 621.539 432.038 621.539 432.458C621.539 433.298 621.712 433.954 622.057 434.425C622.407 434.892 622.937 435.125 623.646 435.125ZM629.212 436V429.973L628.428 429.882C628.33 429.859 628.248 429.824 628.183 429.777C628.122 429.726 628.092 429.653 628.092 429.56V429.049H629.212V428.363C629.212 427.957 629.268 427.598 629.38 427.285C629.497 426.968 629.66 426.702 629.87 426.487C630.085 426.268 630.341 426.102 630.64 425.99C630.939 425.878 631.275 425.822 631.648 425.822C631.965 425.822 632.257 425.869 632.523 425.962L632.495 426.585C632.486 426.697 632.423 426.758 632.306 426.767C632.194 426.776 632.042 426.781 631.851 426.781C631.636 426.781 631.44 426.809 631.263 426.865C631.09 426.921 630.941 427.012 630.815 427.138C630.689 427.264 630.591 427.43 630.521 427.635C630.456 427.84 630.423 428.095 630.423 428.398V429.049H632.467V429.952H630.465V436H629.212ZM638.763 430.33C638.987 429.845 639.263 429.467 639.589 429.196C639.916 428.921 640.315 428.783 640.786 428.783C640.936 428.783 641.078 428.799 641.213 428.832C641.353 428.865 641.477 428.916 641.584 428.986L641.493 429.917C641.465 430.034 641.395 430.092 641.283 430.092C641.218 430.092 641.122 430.078 640.996 430.05C640.87 430.022 640.728 430.008 640.569 430.008C640.345 430.008 640.145 430.041 639.967 430.106C639.795 430.171 639.638 430.269 639.498 430.4C639.363 430.526 639.239 430.685 639.127 430.876C639.02 431.063 638.922 431.277 638.833 431.52V436H637.58V428.909H638.294C638.43 428.909 638.523 428.935 638.574 428.986C638.626 429.037 638.661 429.126 638.679 429.252L638.763 430.33Z" fill="black"/>
<path d="M648.656 314.936C650.799 314.936 652.724 314.637 654.43 314.037C656.136 313.438 657.577 312.608 658.752 311.548C659.951 310.487 660.862 309.243 661.484 307.813C662.13 306.361 662.452 304.782 662.452 303.076C662.452 299.319 661.3 296.426 658.994 294.397C656.689 292.368 653.243 291.354 648.656 291.354H639.562V314.936H648.656ZM648.656 288.553C654.396 288.553 658.718 289.81 661.622 292.322C664.55 294.835 666.014 298.42 666.014 303.076C666.014 305.22 665.61 307.191 664.804 308.989C663.997 310.787 662.844 312.343 661.346 313.657C659.847 314.948 658.026 315.962 655.882 316.7C653.739 317.414 651.33 317.772 648.656 317.772H639.562V337.481H636V288.553H648.656Z" fill="#41A5DD"/>
<path d="M688.014 312.723C690.181 312.723 692.117 312.47 693.823 311.963C695.552 311.432 697.004 310.683 698.18 309.715C699.379 308.747 700.289 307.583 700.912 306.223C701.534 304.863 701.845 303.33 701.845 301.624C701.845 298.143 700.704 295.561 698.422 293.878C696.163 292.195 692.855 291.354 688.498 291.354H679.543V312.723H688.014ZM709.729 337.481H706.686C706.294 337.481 705.96 337.424 705.684 337.308C705.43 337.17 705.188 336.928 704.957 336.582L689.259 316.734C689.075 316.481 688.879 316.262 688.671 316.077C688.487 315.893 688.268 315.755 688.014 315.663C687.784 315.547 687.496 315.467 687.15 315.42C686.827 315.374 686.424 315.351 685.939 315.351H679.543V337.481H675.981V288.553H688.498C694.123 288.553 698.33 289.648 701.119 291.838C703.932 294.005 705.338 297.198 705.338 301.416C705.338 303.284 705.015 304.989 704.37 306.534C703.724 308.078 702.791 309.438 701.569 310.614C700.37 311.767 698.906 312.712 697.177 313.45C695.472 314.187 693.547 314.683 691.403 314.936C691.956 315.282 692.452 315.743 692.89 316.32L709.729 337.481Z" fill="#41A5DD"/>
<path d="M761.183 313C761.183 316.781 760.618 320.215 759.488 323.304C758.359 326.37 756.768 328.998 754.716 331.188C752.665 333.355 750.198 335.038 747.317 336.237C744.458 337.412 741.3 338 737.842 338C734.385 338 731.226 337.412 728.368 336.237C725.509 335.038 723.054 333.355 721.003 331.188C718.951 328.998 717.361 326.37 716.231 323.304C715.101 320.215 714.537 316.781 714.537 313C714.537 309.243 715.101 305.831 716.231 302.765C717.361 299.676 718.951 297.048 721.003 294.881C723.054 292.691 725.509 290.997 728.368 289.798C731.226 288.599 734.385 288 737.842 288C741.3 288 744.458 288.599 747.317 289.798C750.198 290.974 752.665 292.657 754.716 294.846C756.768 297.036 758.359 299.676 759.488 302.765C760.618 305.831 761.183 309.243 761.183 313ZM757.517 313C757.517 309.588 757.045 306.522 756.1 303.802C755.154 301.082 753.817 298.777 752.089 296.887C750.36 294.996 748.285 293.556 745.864 292.564C743.444 291.55 740.77 291.043 737.842 291.043C734.938 291.043 732.275 291.55 729.855 292.564C727.434 293.556 725.348 294.996 723.596 296.887C721.867 298.777 720.519 301.082 719.551 303.802C718.605 306.522 718.133 309.588 718.133 313C718.133 316.435 718.605 319.512 719.551 322.232C720.519 324.929 721.867 327.223 723.596 329.113C725.348 331.004 727.434 332.444 729.855 333.436C732.275 334.427 734.938 334.923 737.842 334.923C740.77 334.923 743.444 334.427 745.864 333.436C748.285 332.444 750.36 331.004 752.089 329.113C753.817 327.223 755.154 324.929 756.1 322.232C757.045 319.512 757.517 316.435 757.517 313Z" fill="#41A5DD"/>
<path d="M785.077 314.936C787.221 314.936 789.146 314.637 790.852 314.037C792.558 313.438 793.998 312.608 795.174 311.548C796.373 310.487 797.283 309.243 797.906 307.813C798.551 306.361 798.874 304.782 798.874 303.076C798.874 299.319 797.721 296.426 795.416 294.397C793.111 292.368 789.665 291.354 785.077 291.354H775.983V314.936H785.077ZM785.077 288.553C790.817 288.553 795.139 289.81 798.044 292.322C800.972 294.835 802.435 298.42 802.435 303.076C802.435 305.22 802.032 307.191 801.225 308.989C800.418 310.787 799.266 312.343 797.767 313.657C796.269 314.948 794.448 315.962 792.304 316.7C790.16 317.414 787.751 317.772 785.077 317.772H775.983V337.481H772.422V288.553H785.077Z" fill="#41A5DD"/>
<path d="M841.794 334.542L841.725 337.481H812.403V288.553H841.725V291.492H815.964V311.271H837.403V314.141H815.964V334.542H841.794Z" fill="#41A5DD"/>
<path d="M864.552 312.723C866.719 312.723 868.655 312.47 870.361 311.963C872.09 311.432 873.542 310.683 874.718 309.715C875.916 308.747 876.827 307.583 877.449 306.223C878.072 304.863 878.383 303.33 878.383 301.624C878.383 298.143 877.242 295.561 874.96 293.878C872.701 292.195 869.393 291.354 865.036 291.354H856.08V312.723H864.552ZM886.267 337.481H883.224C882.832 337.481 882.498 337.424 882.221 337.308C881.968 337.17 881.726 336.928 881.495 336.582L865.797 316.734C865.612 316.481 865.416 316.262 865.209 316.077C865.024 315.893 864.805 315.755 864.552 315.663C864.321 315.547 864.033 315.467 863.687 315.42C863.365 315.374 862.961 315.351 862.477 315.351H856.08V337.481H852.519V288.553H865.036C870.661 288.553 874.868 289.648 877.657 291.838C880.469 294.005 881.875 297.198 881.875 301.416C881.875 303.284 881.553 304.989 880.907 306.534C880.262 308.078 879.328 309.438 878.106 310.614C876.908 311.767 875.444 312.712 873.715 313.45C872.009 314.187 870.084 314.683 867.94 314.936C868.494 315.282 868.989 315.743 869.427 316.32L886.267 337.481Z" fill="#41A5DD"/>
<path d="M924.311 291.562H907.126V337.481H903.565V291.562H886.276V288.553H924.311V291.562Z" fill="#41A5DD"/>
<path d="M947.659 317.322V337.481H944.132V317.322L926.013 288.553H929.125C929.448 288.553 929.713 288.634 929.92 288.795C930.128 288.934 930.301 289.141 930.439 289.418L944.443 311.894C944.743 312.424 945.019 312.942 945.273 313.45C945.526 313.934 945.745 314.418 945.93 314.902C946.114 314.418 946.322 313.934 946.552 313.45C946.783 312.942 947.048 312.424 947.348 311.894L961.352 289.418C961.467 289.164 961.628 288.957 961.836 288.795C962.066 288.634 962.343 288.553 962.666 288.553H965.778L947.659 317.322Z" fill="#41A5DD"/>
<defs>
<clipPath id="clip0">
<rect width="293.137" height="50" fill="white" transform="translate(293 288)"/>
</clipPath>
</defs>
</svg>
