<svg width="1204" height="678" viewBox="0 0 1204 678" fill="none" xmlns="http://www.w3.org/2000/svg">
<rect width="1204" height="677.25" fill="white"/>
<rect x="409.5" y="209.5" width="392" height="49" stroke="#D8D8D8"/>
<rect x="409.5" y="368.5" width="392" height="49" stroke="#D8D8D8"/>
<rect x="409.5" y="308.5" width="392" height="19" stroke="#D8D8D8"/>
<rect x="409.5" y="417.5" width="208" height="49" transform="rotate(-90 409.5 417.5)" stroke="#D8D8D8"/>
<rect x="752.5" y="417.5" width="208" height="49" transform="rotate(-90 752.5 417.5)" stroke="#D8D8D8"/>
<g clip-path="url(#clip0)">
<path fill-rule="evenodd" clip-rule="evenodd" d="M580.761 258.269C577.487 258.269 575.484 259.995 575.484 263.524V291.91H575.33L556.147 261.107C554.953 259.113 552.95 258.23 550.677 258.23C546.016 258.23 543.782 260.11 543.782 264.598V302.575C543.782 306.104 545.785 307.83 549.059 307.83C552.333 307.83 554.337 306.104 554.337 302.575V274.994H554.452L573.481 304.915C574.868 307.101 576.023 307.83 579.49 307.83C584.112 307.83 585.961 305.375 585.961 301.041V263.486C586.038 259.995 584.035 258.269 580.761 258.269Z" fill="#41A5DD"/>
<path fill-rule="evenodd" clip-rule="evenodd" d="M623.094 258.269C620.822 258.269 619.627 259.074 618.357 261.452L608.881 278.945L599.328 261.452C598.21 259.343 596.978 258.269 594.397 258.269C592.278 258.269 588.85 259.534 588.85 263.255C588.85 264.253 589.236 265.25 589.775 266.132L603.18 288.343V302.46C603.18 305.72 605.298 307.907 608.649 307.907C612.001 307.907 614.119 305.72 614.119 302.46V288.343L627.524 266.132C628.063 265.25 628.449 264.253 628.449 263.255C628.487 259.534 625.097 258.269 623.094 258.269Z" fill="#41A5DD"/>
<path fill-rule="evenodd" clip-rule="evenodd" d="M671.783 263.14C671.783 259.496 668.972 258.269 666.237 258.269C663.694 258.269 662.115 259.803 661.113 263.064L650.829 295.632H650.713L640.813 263.064C639.812 259.803 638.194 258.269 635.267 258.269C632.532 258.269 629.72 259.458 629.72 263.14C629.72 264.023 629.912 265.058 630.375 266.324L643.857 304.109C644.974 307.216 647.131 307.907 650.521 307.907C653.91 307.907 656.067 307.255 657.184 304.109L671.09 266.324C671.591 265.058 671.783 263.984 671.783 263.14Z" fill="#41A5DD"/>
<path fill-rule="evenodd" clip-rule="evenodd" d="M692.892 262.258C691.698 258.882 689.503 258.269 686.999 258.269H684.379C681.722 258.269 679.988 259.151 679.025 261.606L664.85 298.931C664.465 300.005 663.771 301.923 663.771 303.112C663.771 306.027 665.851 307.907 668.856 307.907C671.475 307.907 672.977 307.025 673.748 304.915L676.637 296.936H694.279L697.091 304.915C697.9 307.025 699.633 307.907 702.022 307.907C704.833 307.907 707.183 305.797 707.183 303.112C707.183 301.923 706.528 300.005 706.105 298.931L692.892 262.258ZM679.064 289.34L685.535 270.122H685.651L691.852 289.34H679.064Z" fill="#41A5DD"/>
<path fill-rule="evenodd" clip-rule="evenodd" d="M746.897 258.269C743.623 258.269 741.62 259.995 741.62 263.524V291.91H741.504L722.322 261.107C721.127 259.113 719.124 258.23 716.852 258.23C712.191 258.23 709.957 260.11 709.957 264.598V302.575C709.957 306.104 711.959 307.83 715.234 307.83C718.508 307.83 720.511 306.104 720.511 302.575V274.994H720.626L739.655 304.915C741.042 307.101 742.198 307.83 745.664 307.83C750.287 307.83 752.136 305.375 752.136 301.041V263.486C752.174 259.995 750.171 258.269 746.897 258.269Z" fill="#41A5DD"/>
<path d="M482.767 304.57C485.958 304.57 488.545 301.994 488.545 298.815C488.545 295.638 485.958 293.062 482.767 293.062C479.576 293.062 476.989 295.638 476.989 298.815C476.989 301.994 479.576 304.57 482.767 304.57Z" fill="#41A5DD"/>
<path fill-rule="evenodd" clip-rule="evenodd" d="M528.066 262.258C526.872 258.882 524.676 258.269 522.173 258.269H519.553C519.322 258.269 519.091 258.269 518.86 258.307H465.24C461.851 258.307 459.077 261.069 459.077 264.445V301.769C459.077 305.145 461.851 307.907 465.24 307.907H503.991V307.869H504.107C506.726 307.869 508.229 306.986 508.999 304.876L511.888 296.897H529.53L532.342 304.876C533.151 306.986 534.884 307.869 537.272 307.869C540.084 307.869 542.396 305.759 542.396 303.074C542.396 301.884 541.741 299.966 541.317 298.892L528.066 262.258ZM482.767 305.874C478.876 305.874 475.679 302.728 475.679 298.815C475.679 294.941 478.838 291.757 482.767 291.757C486.657 291.757 489.854 294.903 489.854 298.815C489.816 302.728 486.657 305.874 482.767 305.874ZM497.751 299.353H491.241C491.241 297.972 490.663 290.299 482.574 290.299C474.485 290.299 474.138 299.429 474.138 299.429H472.405C472.405 299.429 467.359 297.396 466.319 296.859C465.279 296.284 465.163 293.445 465.163 293.445V290.952H466.049V288.42C466.473 283.049 479.685 278.216 479.685 278.216C479.685 278.216 490.779 267.322 492.512 265.787C496.249 262.527 511.387 263.255 511.387 263.255L497.751 299.353ZM514.237 289.34L520.709 270.122H520.824L527.026 289.34H514.237Z" fill="#41A5DD"/>
<path fill-rule="evenodd" clip-rule="evenodd" d="M474.986 284.699C474.523 284.584 472.829 284.584 472.097 284.545C471.866 284.545 471.635 284.622 471.48 284.776C471.134 285.044 470.594 285.581 470.094 286.233C469.516 287 469.092 287.959 468.823 288.573C468.63 289.072 469.169 289.11 469.169 289.11L470.44 289.379C470.594 289.417 470.749 289.379 470.864 289.264L475.101 285.581C475.063 285.581 475.679 284.852 474.986 284.699Z" fill="#41A5DD"/>
<path fill-rule="evenodd" clip-rule="evenodd" d="M503.606 266.478C503.028 266.478 497.674 267.053 496.634 267.245C495.594 267.437 494.053 268.626 494.053 268.626L487.466 275.876V279.75L501.41 277.065C501.41 277.065 503.221 276.72 503.49 274.418C503.76 272.117 504.338 267.207 504.338 267.207C504.338 267.207 504.184 266.478 503.606 266.478Z" fill="#41A5DD"/>
</g>
<line x1="812" y1="258.5" x2="826" y2="258.5" stroke="black"/>
<line x1="812" y1="308.5" x2="826" y2="308.5" stroke="black"/>
<line x1="825.5" y1="309" x2="825.5" y2="259" stroke="black"/>
<path d="M838.17 284.33C838.394 283.845 838.669 283.467 838.996 283.196C839.323 282.921 839.722 282.783 840.193 282.783C840.342 282.783 840.485 282.799 840.62 282.832C840.76 282.865 840.884 282.916 840.991 282.986L840.9 283.917C840.872 284.034 840.802 284.092 840.69 284.092C840.625 284.092 840.529 284.078 840.403 284.05C840.277 284.022 840.135 284.008 839.976 284.008C839.752 284.008 839.551 284.041 839.374 284.106C839.201 284.171 839.045 284.269 838.905 284.4C838.77 284.526 838.646 284.685 838.534 284.876C838.427 285.063 838.329 285.277 838.24 285.52V290H836.987V282.909H837.701C837.836 282.909 837.93 282.935 837.981 282.986C838.032 283.037 838.067 283.126 838.086 283.252L838.17 284.33Z" fill="black"/>
<line x1="399" y1="259.5" x2="385" y2="259.5" stroke="black"/>
<line x1="399" y1="209.5" x2="385" y2="209.5" stroke="black"/>
<line x1="385.5" y1="209" x2="385.5" y2="259" stroke="black"/>
<path d="M321.126 238.048V239H315.75V238.048H317.899V231.209C317.899 231.004 317.906 230.796 317.92 230.586L316.135 232.119C316.074 232.17 316.014 232.203 315.953 232.217C315.892 232.226 315.836 232.226 315.785 232.217C315.734 232.208 315.685 232.189 315.638 232.161C315.596 232.133 315.563 232.103 315.54 232.07L315.148 231.531L318.137 228.948H319.152V238.048H321.126ZM330.121 233.988C330.121 234.865 330.025 235.626 329.834 236.27C329.647 236.909 329.391 237.439 329.064 237.859C328.737 238.279 328.35 238.592 327.902 238.797C327.459 239.002 326.983 239.105 326.474 239.105C325.961 239.105 325.482 239.002 325.039 238.797C324.6 238.592 324.218 238.279 323.891 237.859C323.564 237.439 323.308 236.909 323.121 236.27C322.934 235.626 322.841 234.865 322.841 233.988C322.841 233.111 322.934 232.35 323.121 231.706C323.308 231.062 323.564 230.53 323.891 230.11C324.218 229.685 324.6 229.37 325.039 229.165C325.482 228.96 325.961 228.857 326.474 228.857C326.983 228.857 327.459 228.96 327.902 229.165C328.35 229.37 328.737 229.685 329.064 230.11C329.391 230.53 329.647 231.062 329.834 231.706C330.025 232.35 330.121 233.111 330.121 233.988ZM328.826 233.988C328.826 233.223 328.761 232.581 328.63 232.063C328.504 231.54 328.331 231.12 328.112 230.803C327.897 230.486 327.648 230.259 327.363 230.124C327.078 229.984 326.782 229.914 326.474 229.914C326.166 229.914 325.87 229.984 325.585 230.124C325.3 230.259 325.051 230.486 324.836 230.803C324.621 231.12 324.449 231.54 324.318 232.063C324.192 232.581 324.129 233.223 324.129 233.988C324.129 234.753 324.192 235.395 324.318 235.913C324.449 236.431 324.621 236.849 324.836 237.166C325.051 237.483 325.3 237.712 325.585 237.852C325.87 237.987 326.166 238.055 326.474 238.055C326.782 238.055 327.078 237.987 327.363 237.852C327.648 237.712 327.897 237.483 328.112 237.166C328.331 236.849 328.504 236.431 328.63 235.913C328.761 235.395 328.826 234.753 328.826 233.988ZM338.542 233.988C338.542 234.865 338.447 235.626 338.255 236.27C338.069 236.909 337.812 237.439 337.485 237.859C337.159 238.279 336.771 238.592 336.323 238.797C335.88 239.002 335.404 239.105 334.895 239.105C334.382 239.105 333.904 239.002 333.46 238.797C333.022 238.592 332.639 238.279 332.312 237.859C331.986 237.439 331.729 236.909 331.542 236.27C331.356 235.626 331.262 234.865 331.262 233.988C331.262 233.111 331.356 232.35 331.542 231.706C331.729 231.062 331.986 230.53 332.312 230.11C332.639 229.685 333.022 229.37 333.46 229.165C333.904 228.96 334.382 228.857 334.895 228.857C335.404 228.857 335.88 228.96 336.323 229.165C336.771 229.37 337.159 229.685 337.485 230.11C337.812 230.53 338.069 231.062 338.255 231.706C338.447 232.35 338.542 233.111 338.542 233.988ZM337.247 233.988C337.247 233.223 337.182 232.581 337.051 232.063C336.925 231.54 336.753 231.12 336.533 230.803C336.319 230.486 336.069 230.259 335.784 230.124C335.5 229.984 335.203 229.914 334.895 229.914C334.587 229.914 334.291 229.984 334.006 230.124C333.722 230.259 333.472 230.486 333.257 230.803C333.043 231.12 332.87 231.54 332.739 232.063C332.613 232.581 332.55 233.223 332.55 233.988C332.55 234.753 332.613 235.395 332.739 235.913C332.87 236.431 333.043 236.849 333.257 237.166C333.472 237.483 333.722 237.712 334.006 237.852C334.291 237.987 334.587 238.055 334.895 238.055C335.203 238.055 335.5 237.987 335.784 237.852C336.069 237.712 336.319 237.483 336.533 237.166C336.753 236.849 336.925 236.431 337.051 235.913C337.182 235.395 337.247 234.753 337.247 233.988ZM344.317 231.391C344.317 231.783 344.257 232.135 344.135 232.448C344.014 232.756 343.851 233.017 343.645 233.232C343.445 233.442 343.209 233.603 342.938 233.715C342.672 233.827 342.39 233.883 342.091 233.883C341.779 233.883 341.487 233.827 341.216 233.715C340.946 233.603 340.71 233.442 340.509 233.232C340.313 233.017 340.159 232.756 340.047 232.448C339.935 232.135 339.879 231.783 339.879 231.391C339.879 230.99 339.935 230.633 340.047 230.32C340.159 230.007 340.313 229.744 340.509 229.529C340.71 229.314 340.946 229.151 341.216 229.039C341.487 228.927 341.779 228.871 342.091 228.871C342.409 228.871 342.703 228.927 342.973 229.039C343.244 229.151 343.48 229.314 343.68 229.529C343.881 229.744 344.037 230.007 344.149 230.32C344.261 230.633 344.317 230.99 344.317 231.391ZM343.351 231.391C343.351 231.083 343.319 230.822 343.253 230.607C343.188 230.392 343.097 230.217 342.98 230.082C342.868 229.942 342.735 229.842 342.581 229.781C342.427 229.72 342.264 229.69 342.091 229.69C341.919 229.69 341.758 229.72 341.608 229.781C341.459 229.842 341.328 229.942 341.216 230.082C341.104 230.217 341.016 230.392 340.95 230.607C340.885 230.822 340.852 231.083 340.852 231.391C340.852 231.694 340.885 231.953 340.95 232.168C341.016 232.378 341.104 232.551 341.216 232.686C341.328 232.817 341.459 232.912 341.608 232.973C341.758 233.029 341.919 233.057 342.091 233.057C342.264 233.057 342.427 233.029 342.581 232.973C342.735 232.912 342.868 232.817 342.98 232.686C343.097 232.551 343.188 232.378 343.253 232.168C343.319 231.953 343.351 231.694 343.351 231.391ZM347.866 229.179C347.913 229.123 347.967 229.074 348.027 229.032C348.093 228.99 348.179 228.969 348.286 228.969H349.189L341.853 238.797C341.811 238.858 341.758 238.907 341.692 238.944C341.627 238.981 341.548 239 341.454 239H340.537L347.866 229.179ZM349.868 236.634C349.868 237.026 349.808 237.376 349.686 237.684C349.565 237.992 349.402 238.253 349.196 238.468C348.996 238.678 348.76 238.839 348.489 238.951C348.223 239.063 347.941 239.119 347.642 239.119C347.325 239.119 347.031 239.063 346.76 238.951C346.494 238.839 346.261 238.678 346.06 238.468C345.864 238.253 345.71 237.992 345.598 237.684C345.486 237.376 345.43 237.026 345.43 236.634C345.43 236.233 345.486 235.876 345.598 235.563C345.71 235.246 345.864 234.98 346.06 234.765C346.261 234.55 346.494 234.387 346.76 234.275C347.031 234.163 347.325 234.107 347.642 234.107C347.955 234.107 348.247 234.163 348.517 234.275C348.793 234.387 349.028 234.55 349.224 234.765C349.425 234.98 349.581 235.246 349.693 235.563C349.81 235.876 349.868 236.233 349.868 236.634ZM348.902 236.634C348.902 236.326 348.87 236.065 348.804 235.85C348.739 235.631 348.648 235.453 348.531 235.318C348.419 235.183 348.286 235.085 348.132 235.024C347.978 234.963 347.815 234.933 347.642 234.933C347.47 234.933 347.306 234.963 347.152 235.024C347.003 235.085 346.872 235.183 346.76 235.318C346.648 235.453 346.56 235.631 346.494 235.85C346.434 236.065 346.403 236.326 346.403 236.634C346.403 236.937 346.434 237.194 346.494 237.404C346.56 237.614 346.648 237.787 346.76 237.922C346.872 238.053 347.003 238.148 347.152 238.209C347.306 238.265 347.47 238.293 347.642 238.293C347.815 238.293 347.978 238.265 348.132 238.209C348.286 238.148 348.419 238.053 348.531 237.922C348.648 237.787 348.739 237.614 348.804 237.404C348.87 237.194 348.902 236.937 348.902 236.634ZM358.646 231.797C359.164 231.797 359.631 231.883 360.046 232.056C360.461 232.229 360.816 232.474 361.11 232.791C361.404 233.108 361.628 233.493 361.782 233.946C361.941 234.394 362.02 234.896 362.02 235.451C362.02 236.011 361.941 236.515 361.782 236.963C361.628 237.411 361.404 237.794 361.11 238.111C360.816 238.428 360.461 238.673 360.046 238.846C359.631 239.014 359.164 239.098 358.646 239.098C358.123 239.098 357.652 239.014 357.232 238.846C356.817 238.673 356.462 238.428 356.168 238.111C355.874 237.794 355.648 237.411 355.489 236.963C355.335 236.515 355.258 236.011 355.258 235.451C355.258 234.896 355.335 234.394 355.489 233.946C355.648 233.493 355.874 233.108 356.168 232.791C356.462 232.474 356.817 232.229 357.232 232.056C357.652 231.883 358.123 231.797 358.646 231.797ZM358.646 238.125C359.346 238.125 359.869 237.892 360.214 237.425C360.559 236.954 360.732 236.298 360.732 235.458C360.732 234.613 360.559 233.955 360.214 233.484C359.869 233.013 359.346 232.777 358.646 232.777C358.291 232.777 357.981 232.838 357.715 232.959C357.454 233.08 357.234 233.255 357.057 233.484C356.884 233.713 356.754 233.995 356.665 234.331C356.581 234.662 356.539 235.038 356.539 235.458C356.539 236.298 356.712 236.954 357.057 237.425C357.407 237.892 357.937 238.125 358.646 238.125ZM364.212 239V232.973L363.428 232.882C363.33 232.859 363.248 232.824 363.183 232.777C363.122 232.726 363.092 232.653 363.092 232.56V232.049H364.212V231.363C364.212 230.957 364.268 230.598 364.38 230.285C364.497 229.968 364.66 229.702 364.87 229.487C365.085 229.268 365.341 229.102 365.64 228.99C365.939 228.878 366.275 228.822 366.648 228.822C366.965 228.822 367.257 228.869 367.523 228.962L367.495 229.585C367.486 229.697 367.423 229.758 367.306 229.767C367.194 229.776 367.042 229.781 366.851 229.781C366.636 229.781 366.44 229.809 366.263 229.865C366.09 229.921 365.941 230.012 365.815 230.138C365.689 230.264 365.591 230.43 365.521 230.635C365.456 230.84 365.423 231.095 365.423 231.398V232.049H367.467V232.952H365.465V239H364.212ZM373.763 233.33C373.987 232.845 374.263 232.467 374.589 232.196C374.916 231.921 375.315 231.783 375.786 231.783C375.936 231.783 376.078 231.799 376.213 231.832C376.353 231.865 376.477 231.916 376.584 231.986L376.493 232.917C376.465 233.034 376.395 233.092 376.283 233.092C376.218 233.092 376.122 233.078 375.996 233.05C375.87 233.022 375.728 233.008 375.569 233.008C375.345 233.008 375.145 233.041 374.967 233.106C374.795 233.171 374.638 233.269 374.498 233.4C374.363 233.526 374.239 233.685 374.127 233.876C374.02 234.063 373.922 234.277 373.833 234.52V239H372.58V231.909H373.294C373.43 231.909 373.523 231.935 373.574 231.986C373.626 232.037 373.661 232.126 373.679 232.252L373.763 233.33Z" fill="black"/>
<line x1="399" y1="328.5" x2="385" y2="328.5" stroke="black"/>
<line x1="399" y1="308.5" x2="385" y2="308.5" stroke="black"/>
<line x1="385.5" y1="308" x2="385.5" y2="328" stroke="black"/>
<path d="M325.11 320.381V316.244C325.11 316.123 325.115 315.99 325.124 315.845C325.133 315.7 325.147 315.553 325.166 315.404L321.512 320.381H325.11ZM327.721 320.381V321.095C327.721 321.17 327.698 321.233 327.651 321.284C327.609 321.335 327.541 321.361 327.448 321.361H326.202V324H325.11V321.361H320.658C320.565 321.361 320.483 321.335 320.413 321.284C320.348 321.228 320.306 321.16 320.287 321.081L320.161 320.444L325.04 313.969H326.202V320.381H327.721ZM336.121 318.988C336.121 319.865 336.025 320.626 335.834 321.27C335.647 321.909 335.391 322.439 335.064 322.859C334.737 323.279 334.35 323.592 333.902 323.797C333.459 324.002 332.983 324.105 332.474 324.105C331.961 324.105 331.482 324.002 331.039 323.797C330.6 323.592 330.218 323.279 329.891 322.859C329.564 322.439 329.308 321.909 329.121 321.27C328.934 320.626 328.841 319.865 328.841 318.988C328.841 318.111 328.934 317.35 329.121 316.706C329.308 316.062 329.564 315.53 329.891 315.11C330.218 314.685 330.6 314.37 331.039 314.165C331.482 313.96 331.961 313.857 332.474 313.857C332.983 313.857 333.459 313.96 333.902 314.165C334.35 314.37 334.737 314.685 335.064 315.11C335.391 315.53 335.647 316.062 335.834 316.706C336.025 317.35 336.121 318.111 336.121 318.988ZM334.826 318.988C334.826 318.223 334.761 317.581 334.63 317.063C334.504 316.54 334.331 316.12 334.112 315.803C333.897 315.486 333.648 315.259 333.363 315.124C333.078 314.984 332.782 314.914 332.474 314.914C332.166 314.914 331.87 314.984 331.585 315.124C331.3 315.259 331.051 315.486 330.836 315.803C330.621 316.12 330.449 316.54 330.318 317.063C330.192 317.581 330.129 318.223 330.129 318.988C330.129 319.753 330.192 320.395 330.318 320.913C330.449 321.431 330.621 321.849 330.836 322.166C331.051 322.483 331.3 322.712 331.585 322.852C331.87 322.987 332.166 323.055 332.474 323.055C332.782 323.055 333.078 322.987 333.363 322.852C333.648 322.712 333.897 322.483 334.112 322.166C334.331 321.849 334.504 321.431 334.63 320.913C334.761 320.395 334.826 319.753 334.826 318.988ZM341.896 316.391C341.896 316.783 341.836 317.135 341.714 317.448C341.593 317.756 341.43 318.017 341.224 318.232C341.024 318.442 340.788 318.603 340.517 318.715C340.251 318.827 339.969 318.883 339.67 318.883C339.358 318.883 339.066 318.827 338.795 318.715C338.525 318.603 338.289 318.442 338.088 318.232C337.892 318.017 337.738 317.756 337.626 317.448C337.514 317.135 337.458 316.783 337.458 316.391C337.458 315.99 337.514 315.633 337.626 315.32C337.738 315.007 337.892 314.744 338.088 314.529C338.289 314.314 338.525 314.151 338.795 314.039C339.066 313.927 339.358 313.871 339.67 313.871C339.988 313.871 340.282 313.927 340.552 314.039C340.823 314.151 341.059 314.314 341.259 314.529C341.46 314.744 341.616 315.007 341.728 315.32C341.84 315.633 341.896 315.99 341.896 316.391ZM340.93 316.391C340.93 316.083 340.898 315.822 340.832 315.607C340.767 315.392 340.676 315.217 340.559 315.082C340.447 314.942 340.314 314.842 340.16 314.781C340.006 314.72 339.843 314.69 339.67 314.69C339.498 314.69 339.337 314.72 339.187 314.781C339.038 314.842 338.907 314.942 338.795 315.082C338.683 315.217 338.595 315.392 338.529 315.607C338.464 315.822 338.431 316.083 338.431 316.391C338.431 316.694 338.464 316.953 338.529 317.168C338.595 317.378 338.683 317.551 338.795 317.686C338.907 317.817 339.038 317.912 339.187 317.973C339.337 318.029 339.498 318.057 339.67 318.057C339.843 318.057 340.006 318.029 340.16 317.973C340.314 317.912 340.447 317.817 340.559 317.686C340.676 317.551 340.767 317.378 340.832 317.168C340.898 316.953 340.93 316.694 340.93 316.391ZM345.445 314.179C345.492 314.123 345.546 314.074 345.606 314.032C345.672 313.99 345.758 313.969 345.865 313.969H346.768L339.432 323.797C339.39 323.858 339.337 323.907 339.271 323.944C339.206 323.981 339.127 324 339.033 324H338.116L345.445 314.179ZM347.447 321.634C347.447 322.026 347.387 322.376 347.265 322.684C347.144 322.992 346.981 323.253 346.775 323.468C346.575 323.678 346.339 323.839 346.068 323.951C345.802 324.063 345.52 324.119 345.221 324.119C344.904 324.119 344.61 324.063 344.339 323.951C344.073 323.839 343.84 323.678 343.639 323.468C343.443 323.253 343.289 322.992 343.177 322.684C343.065 322.376 343.009 322.026 343.009 321.634C343.009 321.233 343.065 320.876 343.177 320.563C343.289 320.246 343.443 319.98 343.639 319.765C343.84 319.55 344.073 319.387 344.339 319.275C344.61 319.163 344.904 319.107 345.221 319.107C345.534 319.107 345.826 319.163 346.096 319.275C346.372 319.387 346.607 319.55 346.803 319.765C347.004 319.98 347.16 320.246 347.272 320.563C347.389 320.876 347.447 321.233 347.447 321.634ZM346.481 321.634C346.481 321.326 346.449 321.065 346.383 320.85C346.318 320.631 346.227 320.453 346.11 320.318C345.998 320.183 345.865 320.085 345.711 320.024C345.557 319.963 345.394 319.933 345.221 319.933C345.049 319.933 344.885 319.963 344.731 320.024C344.582 320.085 344.451 320.183 344.339 320.318C344.227 320.453 344.139 320.631 344.073 320.85C344.013 321.065 343.982 321.326 343.982 321.634C343.982 321.937 344.013 322.194 344.073 322.404C344.139 322.614 344.227 322.787 344.339 322.922C344.451 323.053 344.582 323.148 344.731 323.209C344.885 323.265 345.049 323.293 345.221 323.293C345.394 323.293 345.557 323.265 345.711 323.209C345.865 323.148 345.998 323.053 346.11 322.922C346.227 322.787 346.318 322.614 346.383 322.404C346.449 322.194 346.481 321.937 346.481 321.634ZM356.225 316.797C356.743 316.797 357.209 316.883 357.625 317.056C358.04 317.229 358.395 317.474 358.689 317.791C358.983 318.108 359.207 318.493 359.361 318.946C359.519 319.394 359.599 319.896 359.599 320.451C359.599 321.011 359.519 321.515 359.361 321.963C359.207 322.411 358.983 322.794 358.689 323.111C358.395 323.428 358.04 323.673 357.625 323.846C357.209 324.014 356.743 324.098 356.225 324.098C355.702 324.098 355.231 324.014 354.811 323.846C354.395 323.673 354.041 323.428 353.747 323.111C353.453 322.794 353.226 322.411 353.068 321.963C352.914 321.515 352.837 321.011 352.837 320.451C352.837 319.896 352.914 319.394 353.068 318.946C353.226 318.493 353.453 318.108 353.747 317.791C354.041 317.474 354.395 317.229 354.811 317.056C355.231 316.883 355.702 316.797 356.225 316.797ZM356.225 323.125C356.925 323.125 357.447 322.892 357.793 322.425C358.138 321.954 358.311 321.298 358.311 320.458C358.311 319.613 358.138 318.955 357.793 318.484C357.447 318.013 356.925 317.777 356.225 317.777C355.87 317.777 355.56 317.838 355.294 317.959C355.032 318.08 354.813 318.255 354.636 318.484C354.463 318.713 354.332 318.995 354.244 319.331C354.16 319.662 354.118 320.038 354.118 320.458C354.118 321.298 354.29 321.954 354.636 322.425C354.986 322.892 355.515 323.125 356.225 323.125ZM361.791 324V317.973L361.007 317.882C360.909 317.859 360.827 317.824 360.762 317.777C360.701 317.726 360.671 317.653 360.671 317.56V317.049H361.791V316.363C361.791 315.957 361.847 315.598 361.959 315.285C362.075 314.968 362.239 314.702 362.449 314.487C362.663 314.268 362.92 314.102 363.219 313.99C363.517 313.878 363.853 313.822 364.227 313.822C364.544 313.822 364.836 313.869 365.102 313.962L365.074 314.585C365.064 314.697 365.001 314.758 364.885 314.767C364.773 314.776 364.621 314.781 364.43 314.781C364.215 314.781 364.019 314.809 363.842 314.865C363.669 314.921 363.52 315.012 363.394 315.138C363.268 315.264 363.17 315.43 363.1 315.635C363.034 315.84 363.002 316.095 363.002 316.398V317.049H365.046V317.952H363.044V324H361.791ZM371.342 318.33C371.566 317.845 371.842 317.467 372.168 317.196C372.495 316.921 372.894 316.783 373.365 316.783C373.515 316.783 373.657 316.799 373.792 316.832C373.932 316.865 374.056 316.916 374.163 316.986L374.072 317.917C374.044 318.034 373.974 318.092 373.862 318.092C373.797 318.092 373.701 318.078 373.575 318.05C373.449 318.022 373.307 318.008 373.148 318.008C372.924 318.008 372.724 318.041 372.546 318.106C372.374 318.171 372.217 318.269 372.077 318.4C371.942 318.526 371.818 318.685 371.706 318.876C371.599 319.063 371.501 319.277 371.412 319.52V324H370.159V316.909H370.873C371.009 316.909 371.102 316.935 371.153 316.986C371.205 317.037 371.24 317.126 371.258 317.252L371.342 318.33Z" fill="black"/>
<line x1="459.5" y1="428" x2="459.5" y2="442" stroke="black"/>
<line x1="409.5" y1="428" x2="409.5" y2="442" stroke="black"/>
<line x1="409" y1="441.5" x2="459" y2="441.5" stroke="black"/>
<path d="M409.126 465.048V466H403.75V465.048H405.899V458.209C405.899 458.004 405.906 457.796 405.92 457.586L404.135 459.119C404.074 459.17 404.014 459.203 403.953 459.217C403.892 459.226 403.836 459.226 403.785 459.217C403.734 459.208 403.685 459.189 403.638 459.161C403.596 459.133 403.563 459.103 403.54 459.07L403.148 458.531L406.137 455.948H407.152V465.048H409.126ZM418.121 460.988C418.121 461.865 418.025 462.626 417.834 463.27C417.647 463.909 417.391 464.439 417.064 464.859C416.737 465.279 416.35 465.592 415.902 465.797C415.459 466.002 414.983 466.105 414.474 466.105C413.961 466.105 413.482 466.002 413.039 465.797C412.6 465.592 412.218 465.279 411.891 464.859C411.564 464.439 411.308 463.909 411.121 463.27C410.934 462.626 410.841 461.865 410.841 460.988C410.841 460.111 410.934 459.35 411.121 458.706C411.308 458.062 411.564 457.53 411.891 457.11C412.218 456.685 412.6 456.37 413.039 456.165C413.482 455.96 413.961 455.857 414.474 455.857C414.983 455.857 415.459 455.96 415.902 456.165C416.35 456.37 416.737 456.685 417.064 457.11C417.391 457.53 417.647 458.062 417.834 458.706C418.025 459.35 418.121 460.111 418.121 460.988ZM416.826 460.988C416.826 460.223 416.761 459.581 416.63 459.063C416.504 458.54 416.331 458.12 416.112 457.803C415.897 457.486 415.648 457.259 415.363 457.124C415.078 456.984 414.782 456.914 414.474 456.914C414.166 456.914 413.87 456.984 413.585 457.124C413.3 457.259 413.051 457.486 412.836 457.803C412.621 458.12 412.449 458.54 412.318 459.063C412.192 459.581 412.129 460.223 412.129 460.988C412.129 461.753 412.192 462.395 412.318 462.913C412.449 463.431 412.621 463.849 412.836 464.166C413.051 464.483 413.3 464.712 413.585 464.852C413.87 464.987 414.166 465.055 414.474 465.055C414.782 465.055 415.078 464.987 415.363 464.852C415.648 464.712 415.897 464.483 416.112 464.166C416.331 463.849 416.504 463.431 416.63 462.913C416.761 462.395 416.826 461.753 416.826 460.988ZM426.542 460.988C426.542 461.865 426.447 462.626 426.255 463.27C426.069 463.909 425.812 464.439 425.485 464.859C425.159 465.279 424.771 465.592 424.323 465.797C423.88 466.002 423.404 466.105 422.895 466.105C422.382 466.105 421.904 466.002 421.46 465.797C421.022 465.592 420.639 465.279 420.312 464.859C419.986 464.439 419.729 463.909 419.542 463.27C419.356 462.626 419.262 461.865 419.262 460.988C419.262 460.111 419.356 459.35 419.542 458.706C419.729 458.062 419.986 457.53 420.312 457.11C420.639 456.685 421.022 456.37 421.46 456.165C421.904 455.96 422.382 455.857 422.895 455.857C423.404 455.857 423.88 455.96 424.323 456.165C424.771 456.37 425.159 456.685 425.485 457.11C425.812 457.53 426.069 458.062 426.255 458.706C426.447 459.35 426.542 460.111 426.542 460.988ZM425.247 460.988C425.247 460.223 425.182 459.581 425.051 459.063C424.925 458.54 424.753 458.12 424.533 457.803C424.319 457.486 424.069 457.259 423.784 457.124C423.5 456.984 423.203 456.914 422.895 456.914C422.587 456.914 422.291 456.984 422.006 457.124C421.722 457.259 421.472 457.486 421.257 457.803C421.043 458.12 420.87 458.54 420.739 459.063C420.613 459.581 420.55 460.223 420.55 460.988C420.55 461.753 420.613 462.395 420.739 462.913C420.87 463.431 421.043 463.849 421.257 464.166C421.472 464.483 421.722 464.712 422.006 464.852C422.291 464.987 422.587 465.055 422.895 465.055C423.203 465.055 423.5 464.987 423.784 464.852C424.069 464.712 424.319 464.483 424.533 464.166C424.753 463.849 424.925 463.431 425.051 462.913C425.182 462.395 425.247 461.753 425.247 460.988ZM432.317 458.391C432.317 458.783 432.257 459.135 432.135 459.448C432.014 459.756 431.851 460.017 431.645 460.232C431.445 460.442 431.209 460.603 430.938 460.715C430.672 460.827 430.39 460.883 430.091 460.883C429.779 460.883 429.487 460.827 429.216 460.715C428.946 460.603 428.71 460.442 428.509 460.232C428.313 460.017 428.159 459.756 428.047 459.448C427.935 459.135 427.879 458.783 427.879 458.391C427.879 457.99 427.935 457.633 428.047 457.32C428.159 457.007 428.313 456.744 428.509 456.529C428.71 456.314 428.946 456.151 429.216 456.039C429.487 455.927 429.779 455.871 430.091 455.871C430.409 455.871 430.703 455.927 430.973 456.039C431.244 456.151 431.48 456.314 431.68 456.529C431.881 456.744 432.037 457.007 432.149 457.32C432.261 457.633 432.317 457.99 432.317 458.391ZM431.351 458.391C431.351 458.083 431.319 457.822 431.253 457.607C431.188 457.392 431.097 457.217 430.98 457.082C430.868 456.942 430.735 456.842 430.581 456.781C430.427 456.72 430.264 456.69 430.091 456.69C429.919 456.69 429.758 456.72 429.608 456.781C429.459 456.842 429.328 456.942 429.216 457.082C429.104 457.217 429.016 457.392 428.95 457.607C428.885 457.822 428.852 458.083 428.852 458.391C428.852 458.694 428.885 458.953 428.95 459.168C429.016 459.378 429.104 459.551 429.216 459.686C429.328 459.817 429.459 459.912 429.608 459.973C429.758 460.029 429.919 460.057 430.091 460.057C430.264 460.057 430.427 460.029 430.581 459.973C430.735 459.912 430.868 459.817 430.98 459.686C431.097 459.551 431.188 459.378 431.253 459.168C431.319 458.953 431.351 458.694 431.351 458.391ZM435.866 456.179C435.913 456.123 435.967 456.074 436.027 456.032C436.093 455.99 436.179 455.969 436.286 455.969H437.189L429.853 465.797C429.811 465.858 429.758 465.907 429.692 465.944C429.627 465.981 429.548 466 429.454 466H428.537L435.866 456.179ZM437.868 463.634C437.868 464.026 437.808 464.376 437.686 464.684C437.565 464.992 437.402 465.253 437.196 465.468C436.996 465.678 436.76 465.839 436.489 465.951C436.223 466.063 435.941 466.119 435.642 466.119C435.325 466.119 435.031 466.063 434.76 465.951C434.494 465.839 434.261 465.678 434.06 465.468C433.864 465.253 433.71 464.992 433.598 464.684C433.486 464.376 433.43 464.026 433.43 463.634C433.43 463.233 433.486 462.876 433.598 462.563C433.71 462.246 433.864 461.98 434.06 461.765C434.261 461.55 434.494 461.387 434.76 461.275C435.031 461.163 435.325 461.107 435.642 461.107C435.955 461.107 436.247 461.163 436.517 461.275C436.793 461.387 437.028 461.55 437.224 461.765C437.425 461.98 437.581 462.246 437.693 462.563C437.81 462.876 437.868 463.233 437.868 463.634ZM436.902 463.634C436.902 463.326 436.87 463.065 436.804 462.85C436.739 462.631 436.648 462.453 436.531 462.318C436.419 462.183 436.286 462.085 436.132 462.024C435.978 461.963 435.815 461.933 435.642 461.933C435.47 461.933 435.306 461.963 435.152 462.024C435.003 462.085 434.872 462.183 434.76 462.318C434.648 462.453 434.56 462.631 434.494 462.85C434.434 463.065 434.403 463.326 434.403 463.634C434.403 463.937 434.434 464.194 434.494 464.404C434.56 464.614 434.648 464.787 434.76 464.922C434.872 465.053 435.003 465.148 435.152 465.209C435.306 465.265 435.47 465.293 435.642 465.293C435.815 465.293 435.978 465.265 436.132 465.209C436.286 465.148 436.419 465.053 436.531 464.922C436.648 464.787 436.739 464.614 436.804 464.404C436.87 464.194 436.902 463.937 436.902 463.634ZM446.646 458.797C447.164 458.797 447.631 458.883 448.046 459.056C448.461 459.229 448.816 459.474 449.11 459.791C449.404 460.108 449.628 460.493 449.782 460.946C449.941 461.394 450.02 461.896 450.02 462.451C450.02 463.011 449.941 463.515 449.782 463.963C449.628 464.411 449.404 464.794 449.11 465.111C448.816 465.428 448.461 465.673 448.046 465.846C447.631 466.014 447.164 466.098 446.646 466.098C446.123 466.098 445.652 466.014 445.232 465.846C444.817 465.673 444.462 465.428 444.168 465.111C443.874 464.794 443.648 464.411 443.489 463.963C443.335 463.515 443.258 463.011 443.258 462.451C443.258 461.896 443.335 461.394 443.489 460.946C443.648 460.493 443.874 460.108 444.168 459.791C444.462 459.474 444.817 459.229 445.232 459.056C445.652 458.883 446.123 458.797 446.646 458.797ZM446.646 465.125C447.346 465.125 447.869 464.892 448.214 464.425C448.559 463.954 448.732 463.298 448.732 462.458C448.732 461.613 448.559 460.955 448.214 460.484C447.869 460.013 447.346 459.777 446.646 459.777C446.291 459.777 445.981 459.838 445.715 459.959C445.454 460.08 445.234 460.255 445.057 460.484C444.884 460.713 444.754 460.995 444.665 461.331C444.581 461.662 444.539 462.038 444.539 462.458C444.539 463.298 444.712 463.954 445.057 464.425C445.407 464.892 445.937 465.125 446.646 465.125ZM452.212 466V459.973L451.428 459.882C451.33 459.859 451.248 459.824 451.183 459.777C451.122 459.726 451.092 459.653 451.092 459.56V459.049H452.212V458.363C452.212 457.957 452.268 457.598 452.38 457.285C452.497 456.968 452.66 456.702 452.87 456.487C453.085 456.268 453.341 456.102 453.64 455.99C453.939 455.878 454.275 455.822 454.648 455.822C454.965 455.822 455.257 455.869 455.523 455.962L455.495 456.585C455.486 456.697 455.423 456.758 455.306 456.767C455.194 456.776 455.042 456.781 454.851 456.781C454.636 456.781 454.44 456.809 454.263 456.865C454.09 456.921 453.941 457.012 453.815 457.138C453.689 457.264 453.591 457.43 453.521 457.635C453.456 457.84 453.423 458.095 453.423 458.398V459.049H455.467V459.952H453.465V466H452.212ZM461.763 460.33C461.987 459.845 462.263 459.467 462.589 459.196C462.916 458.921 463.315 458.783 463.786 458.783C463.936 458.783 464.078 458.799 464.213 458.832C464.353 458.865 464.477 458.916 464.584 458.986L464.493 459.917C464.465 460.034 464.395 460.092 464.283 460.092C464.218 460.092 464.122 460.078 463.996 460.05C463.87 460.022 463.728 460.008 463.569 460.008C463.345 460.008 463.145 460.041 462.967 460.106C462.795 460.171 462.638 460.269 462.498 460.4C462.363 460.526 462.239 460.685 462.127 460.876C462.02 461.063 461.922 461.277 461.833 461.52V466H460.58V458.909H461.294C461.43 458.909 461.523 458.935 461.574 458.986C461.626 459.037 461.661 459.126 461.679 459.252L461.763 460.33Z" fill="black"/>
<line x1="812" y1="327.5" x2="826" y2="327.5" stroke="black"/>
<line x1="812" y1="367.5" x2="826" y2="367.5" stroke="black"/>
<line x1="825.5" y1="368" x2="825.5" y2="328" stroke="black"/>
<path d="M840.06 353.118C840.387 353.118 840.678 353.074 840.935 352.985C841.196 352.892 841.416 352.763 841.593 352.6C841.775 352.432 841.913 352.234 842.006 352.005C842.104 351.772 842.153 351.515 842.153 351.235C842.153 350.89 842.095 350.596 841.978 350.353C841.866 350.106 841.712 349.905 841.516 349.751C841.325 349.597 841.103 349.485 840.851 349.415C840.599 349.34 840.335 349.303 840.06 349.303C839.785 349.303 839.521 349.34 839.269 349.415C839.017 349.485 838.793 349.597 838.597 349.751C838.406 349.905 838.252 350.106 838.135 350.353C838.023 350.596 837.967 350.89 837.967 351.235C837.967 351.515 838.014 351.772 838.107 352.005C838.205 352.234 838.343 352.432 838.52 352.6C838.702 352.763 838.921 352.892 839.178 352.985C839.439 353.074 839.733 353.118 840.06 353.118ZM840.06 344.823C839.761 344.823 839.498 344.867 839.269 344.956C839.045 345.045 838.856 345.166 838.702 345.32C838.553 345.474 838.438 345.654 838.359 345.859C838.284 346.064 838.247 346.284 838.247 346.517C838.247 346.746 838.28 346.967 838.345 347.182C838.41 347.397 838.515 347.588 838.66 347.756C838.805 347.919 838.991 348.052 839.22 348.155C839.453 348.253 839.733 348.302 840.06 348.302C840.387 348.302 840.664 348.253 840.893 348.155C841.126 348.052 841.315 347.919 841.46 347.756C841.605 347.588 841.71 347.397 841.775 347.182C841.84 346.967 841.873 346.746 841.873 346.517C841.873 346.284 841.833 346.064 841.754 345.859C841.679 345.654 841.565 345.474 841.411 345.32C841.262 345.166 841.073 345.045 840.844 344.956C840.62 344.867 840.359 344.823 840.06 344.823ZM841.495 348.771C842.12 348.948 842.601 349.245 842.937 349.66C843.273 350.075 843.441 350.607 843.441 351.256C843.441 351.695 843.357 352.091 843.189 352.446C843.026 352.796 842.795 353.095 842.496 353.342C842.202 353.589 841.847 353.781 841.432 353.916C841.017 354.047 840.559 354.112 840.06 354.112C839.561 354.112 839.103 354.047 838.688 353.916C838.273 353.781 837.916 353.589 837.617 353.342C837.318 353.095 837.087 352.796 836.924 352.446C836.761 352.091 836.679 351.695 836.679 351.256C836.679 350.607 836.847 350.075 837.183 349.66C837.519 349.245 838 348.948 838.625 348.771C838.098 348.575 837.699 348.283 837.428 347.896C837.162 347.504 837.029 347.037 837.029 346.496C837.029 346.127 837.101 345.782 837.246 345.46C837.391 345.138 837.596 344.858 837.862 344.62C838.128 344.382 838.445 344.195 838.814 344.06C839.187 343.925 839.603 343.857 840.06 343.857C840.513 343.857 840.926 343.925 841.299 344.06C841.672 344.195 841.992 344.382 842.258 344.62C842.524 344.858 842.729 345.138 842.874 345.46C843.019 345.782 843.091 346.127 843.091 346.496C843.091 347.037 842.956 347.504 842.685 347.896C842.419 348.283 842.022 348.575 841.495 348.771ZM852.121 348.988C852.121 349.865 852.025 350.626 851.834 351.27C851.647 351.909 851.391 352.439 851.064 352.859C850.737 353.279 850.35 353.592 849.902 353.797C849.459 354.002 848.983 354.105 848.474 354.105C847.961 354.105 847.482 354.002 847.039 353.797C846.6 353.592 846.218 353.279 845.891 352.859C845.564 352.439 845.308 351.909 845.121 351.27C844.934 350.626 844.841 349.865 844.841 348.988C844.841 348.111 844.934 347.35 845.121 346.706C845.308 346.062 845.564 345.53 845.891 345.11C846.218 344.685 846.6 344.37 847.039 344.165C847.482 343.96 847.961 343.857 848.474 343.857C848.983 343.857 849.459 343.96 849.902 344.165C850.35 344.37 850.737 344.685 851.064 345.11C851.391 345.53 851.647 346.062 851.834 346.706C852.025 347.35 852.121 348.111 852.121 348.988ZM850.826 348.988C850.826 348.223 850.761 347.581 850.63 347.063C850.504 346.54 850.331 346.12 850.112 345.803C849.897 345.486 849.648 345.259 849.363 345.124C849.078 344.984 848.782 344.914 848.474 344.914C848.166 344.914 847.87 344.984 847.585 345.124C847.3 345.259 847.051 345.486 846.836 345.803C846.621 346.12 846.449 346.54 846.318 347.063C846.192 347.581 846.129 348.223 846.129 348.988C846.129 349.753 846.192 350.395 846.318 350.913C846.449 351.431 846.621 351.849 846.836 352.166C847.051 352.483 847.3 352.712 847.585 352.852C847.87 352.987 848.166 353.055 848.474 353.055C848.782 353.055 849.078 352.987 849.363 352.852C849.648 352.712 849.897 352.483 850.112 352.166C850.331 351.849 850.504 351.431 850.63 350.913C850.761 350.395 850.826 349.753 850.826 348.988ZM857.896 346.391C857.896 346.783 857.836 347.135 857.714 347.448C857.593 347.756 857.43 348.017 857.224 348.232C857.024 348.442 856.788 348.603 856.517 348.715C856.251 348.827 855.969 348.883 855.67 348.883C855.358 348.883 855.066 348.827 854.795 348.715C854.525 348.603 854.289 348.442 854.088 348.232C853.892 348.017 853.738 347.756 853.626 347.448C853.514 347.135 853.458 346.783 853.458 346.391C853.458 345.99 853.514 345.633 853.626 345.32C853.738 345.007 853.892 344.744 854.088 344.529C854.289 344.314 854.525 344.151 854.795 344.039C855.066 343.927 855.358 343.871 855.67 343.871C855.988 343.871 856.282 343.927 856.552 344.039C856.823 344.151 857.059 344.314 857.259 344.529C857.46 344.744 857.616 345.007 857.728 345.32C857.84 345.633 857.896 345.99 857.896 346.391ZM856.93 346.391C856.93 346.083 856.898 345.822 856.832 345.607C856.767 345.392 856.676 345.217 856.559 345.082C856.447 344.942 856.314 344.842 856.16 344.781C856.006 344.72 855.843 344.69 855.67 344.69C855.498 344.69 855.337 344.72 855.187 344.781C855.038 344.842 854.907 344.942 854.795 345.082C854.683 345.217 854.595 345.392 854.529 345.607C854.464 345.822 854.431 346.083 854.431 346.391C854.431 346.694 854.464 346.953 854.529 347.168C854.595 347.378 854.683 347.551 854.795 347.686C854.907 347.817 855.038 347.912 855.187 347.973C855.337 348.029 855.498 348.057 855.67 348.057C855.843 348.057 856.006 348.029 856.16 347.973C856.314 347.912 856.447 347.817 856.559 347.686C856.676 347.551 856.767 347.378 856.832 347.168C856.898 346.953 856.93 346.694 856.93 346.391ZM861.445 344.179C861.492 344.123 861.546 344.074 861.606 344.032C861.672 343.99 861.758 343.969 861.865 343.969H862.768L855.432 353.797C855.39 353.858 855.337 353.907 855.271 353.944C855.206 353.981 855.127 354 855.033 354H854.116L861.445 344.179ZM863.447 351.634C863.447 352.026 863.387 352.376 863.265 352.684C863.144 352.992 862.981 353.253 862.775 353.468C862.575 353.678 862.339 353.839 862.068 353.951C861.802 354.063 861.52 354.119 861.221 354.119C860.904 354.119 860.61 354.063 860.339 353.951C860.073 353.839 859.84 353.678 859.639 353.468C859.443 353.253 859.289 352.992 859.177 352.684C859.065 352.376 859.009 352.026 859.009 351.634C859.009 351.233 859.065 350.876 859.177 350.563C859.289 350.246 859.443 349.98 859.639 349.765C859.84 349.55 860.073 349.387 860.339 349.275C860.61 349.163 860.904 349.107 861.221 349.107C861.534 349.107 861.826 349.163 862.096 349.275C862.372 349.387 862.607 349.55 862.803 349.765C863.004 349.98 863.16 350.246 863.272 350.563C863.389 350.876 863.447 351.233 863.447 351.634ZM862.481 351.634C862.481 351.326 862.449 351.065 862.383 350.85C862.318 350.631 862.227 350.453 862.11 350.318C861.998 350.183 861.865 350.085 861.711 350.024C861.557 349.963 861.394 349.933 861.221 349.933C861.049 349.933 860.885 349.963 860.731 350.024C860.582 350.085 860.451 350.183 860.339 350.318C860.227 350.453 860.139 350.631 860.073 350.85C860.013 351.065 859.982 351.326 859.982 351.634C859.982 351.937 860.013 352.194 860.073 352.404C860.139 352.614 860.227 352.787 860.339 352.922C860.451 353.053 860.582 353.148 860.731 353.209C860.885 353.265 861.049 353.293 861.221 353.293C861.394 353.293 861.557 353.265 861.711 353.209C861.865 353.148 861.998 353.053 862.11 352.922C862.227 352.787 862.318 352.614 862.383 352.404C862.449 352.194 862.481 351.937 862.481 351.634ZM872.225 346.797C872.743 346.797 873.209 346.883 873.625 347.056C874.04 347.229 874.395 347.474 874.689 347.791C874.983 348.108 875.207 348.493 875.361 348.946C875.519 349.394 875.599 349.896 875.599 350.451C875.599 351.011 875.519 351.515 875.361 351.963C875.207 352.411 874.983 352.794 874.689 353.111C874.395 353.428 874.04 353.673 873.625 353.846C873.209 354.014 872.743 354.098 872.225 354.098C871.702 354.098 871.231 354.014 870.811 353.846C870.395 353.673 870.041 353.428 869.747 353.111C869.453 352.794 869.226 352.411 869.068 351.963C868.914 351.515 868.837 351.011 868.837 350.451C868.837 349.896 868.914 349.394 869.068 348.946C869.226 348.493 869.453 348.108 869.747 347.791C870.041 347.474 870.395 347.229 870.811 347.056C871.231 346.883 871.702 346.797 872.225 346.797ZM872.225 353.125C872.925 353.125 873.447 352.892 873.793 352.425C874.138 351.954 874.311 351.298 874.311 350.458C874.311 349.613 874.138 348.955 873.793 348.484C873.447 348.013 872.925 347.777 872.225 347.777C871.87 347.777 871.56 347.838 871.294 347.959C871.032 348.08 870.813 348.255 870.636 348.484C870.463 348.713 870.332 348.995 870.244 349.331C870.16 349.662 870.118 350.038 870.118 350.458C870.118 351.298 870.29 351.954 870.636 352.425C870.986 352.892 871.515 353.125 872.225 353.125ZM877.791 354V347.973L877.007 347.882C876.909 347.859 876.827 347.824 876.762 347.777C876.701 347.726 876.671 347.653 876.671 347.56V347.049H877.791V346.363C877.791 345.957 877.847 345.598 877.959 345.285C878.075 344.968 878.239 344.702 878.449 344.487C878.663 344.268 878.92 344.102 879.219 343.99C879.517 343.878 879.853 343.822 880.227 343.822C880.544 343.822 880.836 343.869 881.102 343.962L881.074 344.585C881.064 344.697 881.001 344.758 880.885 344.767C880.773 344.776 880.621 344.781 880.43 344.781C880.215 344.781 880.019 344.809 879.842 344.865C879.669 344.921 879.52 345.012 879.394 345.138C879.268 345.264 879.17 345.43 879.1 345.635C879.034 345.84 879.002 346.095 879.002 346.398V347.049H881.046V347.952H879.044V354H877.791ZM887.342 348.33C887.566 347.845 887.842 347.467 888.168 347.196C888.495 346.921 888.894 346.783 889.365 346.783C889.515 346.783 889.657 346.799 889.792 346.832C889.932 346.865 890.056 346.916 890.163 346.986L890.072 347.917C890.044 348.034 889.974 348.092 889.862 348.092C889.797 348.092 889.701 348.078 889.575 348.05C889.449 348.022 889.307 348.008 889.148 348.008C888.924 348.008 888.724 348.041 888.546 348.106C888.374 348.171 888.217 348.269 888.077 348.4C887.942 348.526 887.818 348.685 887.706 348.876C887.599 349.063 887.501 349.277 887.412 349.52V354H886.159V346.909H886.873C887.009 346.909 887.102 346.935 887.153 346.986C887.205 347.037 887.24 347.126 887.258 347.252L887.342 348.33Z" fill="black"/>
<path d="M469.124 349.549C470.84 349.549 472.379 349.309 473.744 348.83C475.109 348.35 476.261 347.686 477.202 346.838C478.161 345.99 478.889 344.994 479.387 343.851C479.904 342.689 480.162 341.426 480.162 340.061C480.162 337.055 479.24 334.74 477.396 333.118C475.551 331.495 472.794 330.683 469.124 330.683H461.849V349.549H469.124ZM469.124 328.443C473.716 328.443 477.174 329.448 479.498 331.458C481.84 333.468 483.011 336.336 483.011 340.061C483.011 341.776 482.688 343.353 482.043 344.791C481.397 346.23 480.475 347.474 479.277 348.526C478.078 349.558 476.621 350.37 474.906 350.96C473.191 351.532 471.264 351.817 469.124 351.817H461.849V367.585H459V328.443H469.124Z" fill="#41A5DD"/>
<path d="M500.611 347.779C502.345 347.779 503.894 347.576 505.259 347.17C506.642 346.746 507.804 346.147 508.744 345.372C509.703 344.598 510.432 343.666 510.929 342.578C511.427 341.49 511.676 340.264 511.676 338.899C511.676 336.114 510.763 334.049 508.938 332.703C507.13 331.356 504.484 330.683 500.999 330.683H493.834V347.779H500.611ZM517.983 367.585H515.549C515.236 367.585 514.968 367.539 514.747 367.447C514.544 367.336 514.35 367.142 514.166 366.866L501.607 350.988C501.46 350.785 501.303 350.609 501.137 350.462C500.989 350.314 500.814 350.204 500.611 350.13C500.427 350.038 500.196 349.973 499.92 349.936C499.662 349.899 499.339 349.881 498.952 349.881H493.834V367.585H490.985V328.443H500.999C505.498 328.443 508.864 329.319 511.095 331.071C513.345 332.804 514.47 335.358 514.47 338.733C514.47 340.227 514.212 341.592 513.696 342.827C513.179 344.063 512.432 345.151 511.455 346.091C510.496 347.013 509.325 347.769 507.942 348.36C506.577 348.95 505.037 349.346 503.322 349.549C503.765 349.826 504.161 350.195 504.512 350.656L517.983 367.585Z" fill="#41A5DD"/>
<path d="M559.146 348C559.146 351.024 558.694 353.772 557.791 356.243C556.887 358.696 555.615 360.799 553.973 362.55C552.332 364.284 550.359 365.63 548.053 366.589C545.767 367.53 543.24 368 540.474 368C537.708 368 535.181 367.53 532.894 366.589C530.608 365.63 528.644 364.284 527.002 362.55C525.361 360.799 524.088 358.696 523.185 356.243C522.281 353.772 521.829 351.024 521.829 348C521.829 344.994 522.281 342.265 523.185 339.812C524.088 337.341 525.361 335.238 527.002 333.505C528.644 331.753 530.608 330.397 532.894 329.438C535.181 328.479 537.708 328 540.474 328C543.24 328 545.767 328.479 548.053 329.438C550.359 330.379 552.332 331.725 553.973 333.477C555.615 335.229 556.887 337.341 557.791 339.812C558.694 342.265 559.146 344.994 559.146 348ZM556.214 348C556.214 345.271 555.836 342.818 555.08 340.642C554.324 338.466 553.254 336.621 551.871 335.109C550.488 333.597 548.828 332.444 546.892 331.651C544.955 330.84 542.816 330.434 540.474 330.434C538.15 330.434 536.02 330.84 534.084 331.651C532.147 332.444 530.479 333.597 529.077 335.109C527.694 336.621 526.615 338.466 525.84 340.642C525.084 342.818 524.706 345.271 524.706 348C524.706 350.748 525.084 353.21 525.84 355.386C526.615 357.544 527.694 359.379 529.077 360.891C530.479 362.403 532.147 363.556 534.084 364.349C536.02 365.142 538.15 365.538 540.474 365.538C542.816 365.538 544.955 365.142 546.892 364.349C548.828 363.556 550.488 362.403 551.871 360.891C553.254 359.379 554.324 357.544 555.08 355.386C555.836 353.21 556.214 350.748 556.214 348Z" fill="#41A5DD"/>
<path d="M578.262 349.549C579.977 349.549 581.517 349.309 582.881 348.83C584.246 348.35 585.399 347.686 586.339 346.838C587.298 345.99 588.027 344.994 588.525 343.851C589.041 342.689 589.299 341.426 589.299 340.061C589.299 337.055 588.377 334.74 586.533 333.118C584.689 331.495 581.932 330.683 578.262 330.683H570.987V349.549H578.262ZM578.262 328.443C582.854 328.443 586.312 329.448 588.635 331.458C590.977 333.468 592.148 336.336 592.148 340.061C592.148 341.776 591.826 343.353 591.18 344.791C590.535 346.23 589.613 347.474 588.414 348.526C587.215 349.558 585.758 350.37 584.043 350.96C582.328 351.532 580.401 351.817 578.262 351.817H570.987V367.585H568.137V328.443H578.262Z" fill="#41A5DD"/>
<path d="M623.635 365.234L623.58 367.585H600.122V328.443H623.58V330.794H602.971V346.617H620.122V348.913H602.971V365.234H623.635Z" fill="#41A5DD"/>
<path d="M641.841 347.779C643.575 347.779 645.124 347.576 646.489 347.17C647.872 346.746 649.034 346.147 649.974 345.372C650.933 344.598 651.662 343.666 652.16 342.578C652.657 341.49 652.906 340.264 652.906 338.899C652.906 336.114 651.994 334.049 650.168 332.703C648.361 331.356 645.714 330.683 642.229 330.683H635.064V347.779H641.841ZM659.214 367.585H656.779C656.466 367.585 656.198 367.539 655.977 367.447C655.774 367.336 655.58 367.142 655.396 366.866L642.837 350.988C642.69 350.785 642.533 350.609 642.367 350.462C642.219 350.314 642.044 350.204 641.841 350.13C641.657 350.038 641.427 349.973 641.15 349.936C640.892 349.899 640.569 349.881 640.182 349.881H635.064V367.585H632.215V328.443H642.229C646.728 328.443 650.094 329.319 652.326 331.071C654.575 332.804 655.7 335.358 655.7 338.733C655.7 340.227 655.442 341.592 654.926 342.827C654.409 344.063 653.663 345.151 652.685 346.091C651.726 347.013 650.555 347.769 649.172 348.36C647.807 348.95 646.267 349.346 644.552 349.549C644.995 349.826 645.391 350.195 645.742 350.656L659.214 367.585Z" fill="#41A5DD"/>
<path d="M689.649 330.849H675.901V367.585H673.052V330.849H659.22V328.443H689.649V330.849Z" fill="#41A5DD"/>
<path d="M708.327 351.458V367.585H705.505V351.458L691.01 328.443H693.5C693.758 328.443 693.97 328.507 694.136 328.636C694.302 328.747 694.44 328.913 694.551 329.134L705.754 347.115C705.994 347.539 706.215 347.954 706.418 348.36C706.621 348.747 706.796 349.134 706.944 349.521C707.091 349.134 707.257 348.747 707.442 348.36C707.626 347.954 707.838 347.539 708.078 347.115L719.281 329.134C719.374 328.931 719.503 328.765 719.669 328.636C719.853 328.507 720.074 328.443 720.333 328.443H722.822L708.327 351.458Z" fill="#41A5DD"/>
<defs>
<clipPath id="clip0">
<rect width="293.137" height="50" fill="white" transform="translate(459 258)"/>
</clipPath>
</defs>
</svg>
