<svg width="1204" height="678" viewBox="0 0 1204 678" fill="none" xmlns="http://www.w3.org/2000/svg">
<rect width="1204" height="677.25" fill="white"/>
<g clip-path="url(#clip0)">
<path fill-rule="evenodd" clip-rule="evenodd" d="M351.943 231.333C347.884 231.333 345.402 233.473 345.402 237.848V273.038H345.21L321.43 234.852C319.95 232.379 317.466 231.286 314.649 231.286C308.871 231.286 306.102 233.616 306.102 239.18V286.258C306.102 290.633 308.585 292.773 312.643 292.773C316.702 292.773 319.186 290.633 319.186 286.258V252.067H319.329L342.918 289.159C344.637 291.87 346.07 292.773 350.367 292.773C356.098 292.773 358.39 289.73 358.39 284.356V237.801C358.485 233.473 356.002 231.333 351.943 231.333Z" fill="#243741"/>
<path fill-rule="evenodd" clip-rule="evenodd" d="M404.423 231.333C401.605 231.333 400.125 232.332 398.549 235.28L386.802 256.965L374.96 235.28C373.575 232.665 372.047 231.333 368.847 231.333C366.221 231.333 361.971 232.902 361.971 237.515C361.971 238.751 362.449 239.988 363.117 241.082L379.735 268.616V286.116C379.735 290.157 382.361 292.868 386.515 292.868C390.67 292.868 393.296 290.157 393.296 286.116V268.616L409.914 241.082C410.582 239.988 411.06 238.751 411.06 237.515C411.108 232.902 406.906 231.333 404.423 231.333Z" fill="#243741"/>
<path fill-rule="evenodd" clip-rule="evenodd" d="M464.781 237.372C464.781 232.855 461.296 231.333 457.905 231.333C454.753 231.333 452.796 233.235 451.554 237.277L438.805 277.651H438.661L426.389 237.277C425.148 233.235 423.142 231.333 419.513 231.333C416.122 231.333 412.637 232.807 412.637 237.372C412.637 238.466 412.875 239.75 413.448 241.319L430.161 288.16C431.546 292.012 434.22 292.868 438.423 292.868C442.625 292.868 445.299 292.06 446.683 288.16L463.922 241.319C464.543 239.75 464.781 238.419 464.781 237.372Z" fill="#243741"/>
<path fill-rule="evenodd" clip-rule="evenodd" d="M490.949 236.279C489.469 232.094 486.747 231.333 483.643 231.333H480.396C477.101 231.333 474.952 232.427 473.758 235.47L456.186 281.741C455.708 283.072 454.849 285.45 454.849 286.924C454.849 290.538 457.427 292.868 461.152 292.868C464.399 292.868 466.261 291.774 467.217 289.159L470.798 279.268H492.668L496.154 289.159C497.157 291.774 499.306 292.868 502.266 292.868C505.752 292.868 508.665 290.253 508.665 286.924C508.665 285.45 507.853 283.072 507.328 281.741L490.949 236.279ZM473.806 269.852L481.828 246.027H481.972L489.66 269.852H473.806Z" fill="#243741"/>
<path fill-rule="evenodd" clip-rule="evenodd" d="M557.897 231.333C553.838 231.333 551.355 233.473 551.355 237.848V273.038H551.212L527.432 234.852C525.951 232.379 523.468 231.286 520.651 231.286C514.873 231.286 512.103 233.616 512.103 239.18V286.258C512.103 290.633 514.586 292.773 518.645 292.773C522.704 292.773 525.187 290.633 525.187 286.258V252.067H525.33L548.92 289.159C550.639 291.87 552.071 292.773 556.369 292.773C562.099 292.773 564.391 289.73 564.391 284.356V237.801C564.439 233.473 561.956 231.333 557.897 231.333Z" fill="#243741"/>
<path d="M230.463 288.731C234.419 288.731 237.626 285.537 237.626 281.597C237.626 277.658 234.419 274.464 230.463 274.464C226.507 274.464 223.3 277.658 223.3 281.597C223.3 285.537 226.507 288.731 230.463 288.731Z" fill="#243741"/>
<path fill-rule="evenodd" clip-rule="evenodd" d="M286.619 236.279C285.139 232.094 282.417 231.333 279.313 231.333H276.066C275.779 231.333 275.493 231.333 275.207 231.381H208.736C204.534 231.381 201.096 234.804 201.096 238.989V285.26C201.096 289.444 204.534 292.868 208.736 292.868H256.774V292.821H256.917C260.165 292.821 262.027 291.727 262.982 289.111L266.563 279.22H288.434L291.92 289.111C292.922 291.727 295.071 292.821 298.032 292.821C301.518 292.821 304.383 290.205 304.383 286.876C304.383 285.402 303.571 283.024 303.046 281.693L286.619 236.279ZM230.463 290.348C225.64 290.348 221.677 286.448 221.677 281.598C221.677 276.795 225.592 272.848 230.463 272.848C235.286 272.848 239.249 276.747 239.249 281.598C239.202 286.448 235.286 290.348 230.463 290.348ZM249.039 282.264H240.968C240.968 280.552 240.252 271.041 230.224 271.041C220.196 271.041 219.767 282.358 219.767 282.358H217.618C217.618 282.358 211.362 279.838 210.073 279.173C208.784 278.459 208.641 274.94 208.641 274.94V271.849H209.739V268.711C210.264 262.053 226.643 256.061 226.643 256.061C226.643 256.061 240.395 242.556 242.544 240.654C247.176 236.612 265.943 237.515 265.943 237.515L249.039 282.264ZM269.476 269.852L277.499 246.027H277.642L285.33 269.852H269.476Z" fill="#243741"/>
<path fill-rule="evenodd" clip-rule="evenodd" d="M220.817 264.098C220.244 263.955 218.143 263.955 217.236 263.908C216.949 263.908 216.663 264.003 216.472 264.193C216.042 264.526 215.374 265.192 214.753 266C214.037 266.951 213.511 268.14 213.177 268.901C212.938 269.519 213.607 269.567 213.607 269.567L215.183 269.9C215.374 269.947 215.565 269.9 215.708 269.757L220.961 265.192C220.913 265.192 221.677 264.288 220.817 264.098Z" fill="#243741"/>
<path fill-rule="evenodd" clip-rule="evenodd" d="M256.297 241.51C255.58 241.51 248.943 242.223 247.654 242.461C246.364 242.699 244.454 244.173 244.454 244.173L236.289 253.161V257.964L253.575 254.635C253.575 254.635 255.819 254.207 256.154 251.353C256.488 248.5 257.204 242.413 257.204 242.413C257.204 242.413 257.013 241.51 256.297 241.51Z" fill="#243741"/>
</g>
<path d="M646.225 288.746C651.533 288.746 655.542 287.604 658.253 285.321C660.993 283.01 662.363 279.771 662.363 275.604C662.363 273.692 661.992 271.98 661.25 270.467C660.536 268.926 659.495 267.628 658.125 266.572C656.755 265.488 655.072 264.66 653.074 264.089C651.076 263.518 648.808 263.233 646.268 263.233H631.029V288.746H646.225ZM631.029 235.152V260.023H644.127C646.924 260.023 649.307 259.666 651.276 258.952C653.274 258.239 654.9 257.297 656.156 256.127C657.44 254.957 658.382 253.63 658.981 252.146C659.58 250.662 659.88 249.136 659.88 247.566C659.88 243.485 658.582 240.403 655.985 238.32C653.416 236.208 649.435 235.152 644.042 235.152H631.029ZM644.042 231.685C647.495 231.685 650.491 232.027 653.031 232.712C655.571 233.397 657.668 234.41 659.324 235.751C660.979 237.064 662.206 238.677 663.005 240.589C663.804 242.501 664.204 244.669 664.204 247.095C664.204 248.693 663.918 250.234 663.347 251.718C662.805 253.202 662.006 254.572 660.95 255.828C659.923 257.083 658.639 258.182 657.098 259.124C655.585 260.037 653.844 260.736 651.875 261.221C656.641 261.906 660.294 263.49 662.834 265.973C665.402 268.427 666.686 271.666 666.686 275.69C666.686 278.258 666.23 280.57 665.316 282.624C664.403 284.679 663.076 286.42 661.336 287.847C659.595 289.274 657.454 290.372 654.915 291.143C652.375 291.885 649.492 292.256 646.268 292.256H626.62V231.685H644.042Z" fill="#243741"/>
<path d="M702.886 289.131C705.797 289.131 708.394 288.631 710.677 287.633C712.989 286.605 714.943 285.193 716.542 283.395C718.14 281.597 719.352 279.485 720.18 277.06C721.036 274.605 721.464 271.966 721.464 269.14V231.685H725.83V269.14C725.83 272.479 725.303 275.604 724.247 278.515C723.191 281.397 721.664 283.923 719.666 286.092C717.697 288.232 715.286 289.916 712.432 291.143C709.607 292.37 706.425 292.983 702.886 292.983C699.348 292.983 696.151 292.37 693.298 291.143C690.473 289.916 688.061 288.232 686.063 286.092C684.094 283.923 682.582 281.397 681.526 278.515C680.47 275.604 679.942 272.479 679.942 269.14V231.685H684.351V269.098C684.351 271.923 684.765 274.563 685.593 277.017C686.449 279.442 687.662 281.554 689.231 283.352C690.829 285.15 692.77 286.563 695.053 287.59C697.364 288.617 699.976 289.131 702.886 289.131Z" fill="#243741"/>
<path d="M772.323 239.048C772.067 239.533 771.696 239.775 771.21 239.775C770.839 239.775 770.354 239.518 769.755 239.005C769.184 238.463 768.4 237.878 767.401 237.25C766.402 236.593 765.146 235.994 763.634 235.452C762.15 234.91 760.309 234.639 758.112 234.639C755.914 234.639 753.974 234.952 752.29 235.58C750.635 236.208 749.237 237.064 748.095 238.149C746.982 239.233 746.126 240.489 745.527 241.916C744.956 243.342 744.671 244.841 744.671 246.41C744.671 248.465 745.099 250.163 745.955 251.504C746.839 252.845 747.995 253.987 749.422 254.929C750.849 255.87 752.461 256.669 754.259 257.326C756.086 257.954 757.955 258.582 759.867 259.209C761.779 259.837 763.634 260.536 765.432 261.307C767.258 262.049 768.885 262.991 770.312 264.132C771.738 265.274 772.88 266.686 773.736 268.37C774.621 270.025 775.063 272.094 775.063 274.577C775.063 277.117 774.621 279.514 773.736 281.768C772.88 283.994 771.624 285.935 769.969 287.59C768.314 289.245 766.288 290.558 763.891 291.528C761.493 292.47 758.754 292.941 755.672 292.941C751.677 292.941 748.238 292.241 745.356 290.843C742.473 289.416 739.948 287.476 737.779 285.022L738.977 283.138C739.32 282.71 739.719 282.496 740.176 282.496C740.433 282.496 740.761 282.667 741.16 283.01C741.56 283.352 742.045 283.78 742.616 284.294C743.187 284.779 743.872 285.321 744.671 285.92C745.47 286.491 746.397 287.033 747.453 287.547C748.509 288.032 749.722 288.446 751.092 288.788C752.461 289.131 754.017 289.302 755.757 289.302C758.155 289.302 760.295 288.945 762.178 288.232C764.062 287.49 765.646 286.491 766.93 285.236C768.243 283.98 769.241 282.496 769.926 280.784C770.611 279.043 770.954 277.188 770.954 275.219C770.954 273.079 770.511 271.324 769.627 269.954C768.771 268.555 767.629 267.4 766.202 266.486C764.775 265.545 763.149 264.76 761.322 264.132C759.524 263.504 757.669 262.891 755.757 262.291C753.845 261.692 751.976 261.021 750.15 260.279C748.352 259.538 746.74 258.596 745.313 257.454C743.886 256.284 742.73 254.843 741.845 253.131C740.989 251.39 740.561 249.221 740.561 246.624C740.561 244.598 740.946 242.643 741.717 240.76C742.487 238.876 743.615 237.221 745.099 235.794C746.583 234.339 748.409 233.183 750.578 232.327C752.775 231.442 755.272 231 758.069 231C761.208 231 764.019 231.499 766.502 232.498C769.013 233.497 771.296 235.024 773.351 237.078L772.323 239.048Z" fill="#243741"/>
<path d="M793.141 292.256H788.732V231.685H793.141V292.256Z" fill="#243741"/>
<path d="M857.799 231.685V292.256H855.744C855.373 292.256 855.059 292.199 854.802 292.085C854.574 291.942 854.346 291.714 854.118 291.4L814.779 238.834C814.864 239.69 814.907 240.503 814.907 241.274V292.256H811.054V231.685H813.238C813.637 231.685 813.937 231.742 814.136 231.856C814.365 231.942 814.607 232.156 814.864 232.498L854.118 284.936C854.032 284.08 853.989 283.266 853.989 282.496V231.685H857.799Z" fill="#243741"/>
<path d="M912.067 288.617L911.982 292.256H875.682V231.685H911.982V235.323H880.091V259.809H906.631V263.362H880.091V288.617H912.067Z" fill="#243741"/>
<path d="M954.752 239.048C954.495 239.533 954.124 239.775 953.639 239.775C953.268 239.775 952.783 239.518 952.183 239.005C951.613 238.463 950.828 237.878 949.829 237.25C948.83 236.593 947.575 235.994 946.062 235.452C944.578 234.91 942.737 234.639 940.54 234.639C938.343 234.639 936.402 234.952 934.718 235.58C933.063 236.208 931.665 237.064 930.523 238.149C929.41 239.233 928.554 240.489 927.955 241.916C927.384 243.342 927.099 244.841 927.099 246.41C927.099 248.465 927.527 250.163 928.383 251.504C929.268 252.845 930.423 253.987 931.85 254.929C933.277 255.87 934.89 256.669 936.687 257.326C938.514 257.954 940.383 258.582 942.295 259.209C944.207 259.837 946.062 260.536 947.86 261.307C949.686 262.049 951.313 262.991 952.74 264.132C954.167 265.274 955.308 266.686 956.164 268.37C957.049 270.025 957.491 272.094 957.491 274.577C957.491 277.117 957.049 279.514 956.164 281.768C955.308 283.994 954.053 285.935 952.397 287.59C950.742 289.245 948.716 290.558 946.319 291.528C943.922 292.47 941.182 292.941 938.1 292.941C934.105 292.941 930.666 292.241 927.784 290.843C924.901 289.416 922.376 287.476 920.207 285.022L921.406 283.138C921.748 282.71 922.148 282.496 922.604 282.496C922.861 282.496 923.189 282.667 923.589 283.01C923.988 283.352 924.473 283.78 925.044 284.294C925.615 284.779 926.3 285.321 927.099 285.92C927.898 286.491 928.825 287.033 929.881 287.547C930.937 288.032 932.15 288.446 933.52 288.788C934.89 289.131 936.445 289.302 938.186 289.302C940.583 289.302 942.723 288.945 944.607 288.232C946.49 287.49 948.074 286.491 949.358 285.236C950.671 283.98 951.67 282.496 952.355 280.784C953.039 279.043 953.382 277.188 953.382 275.219C953.382 273.079 952.94 271.324 952.055 269.954C951.199 268.555 950.057 267.4 948.63 266.486C947.204 265.545 945.577 264.76 943.75 264.132C941.953 263.504 940.098 262.891 938.186 262.291C936.274 261.692 934.404 261.021 932.578 260.279C930.78 259.538 929.168 258.596 927.741 257.454C926.314 256.284 925.158 254.843 924.274 253.131C923.418 251.39 922.989 249.221 922.989 246.624C922.989 244.598 923.375 242.643 924.145 240.76C924.916 238.876 926.043 237.221 927.527 235.794C929.011 234.339 930.837 233.183 933.006 232.327C935.203 231.442 937.701 231 940.497 231C943.636 231 946.447 231.499 948.93 232.498C951.441 233.497 953.724 235.024 955.779 237.078L954.752 239.048Z" fill="#243741"/>
<path d="M1000.57 239.048C1000.31 239.533 999.94 239.775 999.455 239.775C999.084 239.775 998.599 239.518 997.999 239.005C997.429 238.463 996.644 237.878 995.645 237.25C994.646 236.593 993.391 235.994 991.878 235.452C990.394 234.91 988.553 234.639 986.356 234.639C984.159 234.639 982.218 234.952 980.534 235.58C978.879 236.208 977.481 237.064 976.339 238.149C975.226 239.233 974.37 240.489 973.771 241.916C973.2 243.342 972.915 244.841 972.915 246.41C972.915 248.465 973.343 250.163 974.199 251.504C975.084 252.845 976.24 253.987 977.666 254.929C979.093 255.87 980.706 256.669 982.504 257.326C984.33 257.954 986.199 258.582 988.111 259.209C990.023 259.837 991.878 260.536 993.676 261.307C995.502 262.049 997.129 262.991 998.556 264.132C999.983 265.274 1001.12 266.686 1001.98 268.37C1002.87 270.025 1003.31 272.094 1003.31 274.577C1003.31 277.117 1002.87 279.514 1001.98 281.768C1001.12 283.994 999.869 285.935 998.213 287.59C996.558 289.245 994.532 290.558 992.135 291.528C989.738 292.47 986.998 292.941 983.916 292.941C979.921 292.941 976.482 292.241 973.6 290.843C970.718 289.416 968.192 287.476 966.023 285.022L967.222 283.138C967.564 282.71 967.964 282.496 968.42 282.496C968.677 282.496 969.005 282.667 969.405 283.01C969.804 283.352 970.289 283.78 970.86 284.294C971.431 284.779 972.116 285.321 972.915 285.92C973.714 286.491 974.641 287.033 975.697 287.547C976.753 288.032 977.966 288.446 979.336 288.788C980.706 289.131 982.261 289.302 984.002 289.302C986.399 289.302 988.539 288.945 990.423 288.232C992.306 287.49 993.89 286.491 995.174 285.236C996.487 283.98 997.486 282.496 998.171 280.784C998.856 279.043 999.198 277.188 999.198 275.219C999.198 273.079 998.756 271.324 997.871 269.954C997.015 268.555 995.873 267.4 994.446 266.486C993.02 265.545 991.393 264.76 989.567 264.132C987.769 263.504 985.914 262.891 984.002 262.291C982.09 261.692 980.221 261.021 978.394 260.279C976.596 259.538 974.984 258.596 973.557 257.454C972.13 256.284 970.974 254.843 970.09 253.131C969.234 251.39 968.806 249.221 968.806 246.624C968.806 244.598 969.191 242.643 969.961 240.76C970.732 238.876 971.859 237.221 973.343 235.794C974.827 234.339 976.653 233.183 978.822 232.327C981.02 231.442 983.517 231 986.313 231C989.452 231 992.263 231.499 994.746 232.498C997.257 233.497 999.54 235.024 1001.6 237.078L1000.57 239.048Z" fill="#243741"/>
<path d="M630.862 419.922C631.249 419.922 631.59 419.871 631.884 419.768C632.182 419.665 632.432 419.523 632.633 419.341C632.838 419.154 632.992 418.933 633.095 418.676C633.197 418.419 633.249 418.137 633.249 417.829C633.249 417.19 633.05 416.69 632.654 416.331C632.262 415.972 631.664 415.792 630.862 415.792H629.252V419.922H630.862ZM630.862 414.721C631.496 414.721 632.047 414.796 632.514 414.945C632.985 415.09 633.375 415.297 633.683 415.568C633.991 415.839 634.219 416.165 634.369 416.548C634.523 416.931 634.6 417.358 634.6 417.829C634.6 418.296 634.518 418.723 634.355 419.11C634.191 419.497 633.951 419.831 633.634 420.111C633.321 420.391 632.931 420.61 632.465 420.769C632.003 420.923 631.468 421 630.862 421H629.252V424.752H627.901V414.721H630.862ZM637.361 419.082C637.585 418.597 637.86 418.219 638.187 417.948C638.514 417.673 638.913 417.535 639.384 417.535C639.533 417.535 639.676 417.551 639.811 417.584C639.951 417.617 640.075 417.668 640.182 417.738L640.091 418.669C640.063 418.786 639.993 418.844 639.881 418.844C639.816 418.844 639.72 418.83 639.594 418.802C639.468 418.774 639.326 418.76 639.167 418.76C638.943 418.76 638.742 418.793 638.565 418.858C638.392 418.923 638.236 419.021 638.096 419.152C637.961 419.278 637.837 419.437 637.725 419.628C637.618 419.815 637.52 420.029 637.431 420.272V424.752H636.178V417.661H636.892C637.027 417.661 637.121 417.687 637.172 417.738C637.223 417.789 637.258 417.878 637.277 418.004L637.361 419.082ZM642.894 417.661V424.752H641.648V417.661H642.894ZM643.16 415.435C643.16 415.556 643.134 415.671 643.083 415.778C643.036 415.881 642.971 415.974 642.887 416.058C642.807 416.137 642.712 416.2 642.6 416.247C642.492 416.294 642.378 416.317 642.257 416.317C642.135 416.317 642.021 416.294 641.914 416.247C641.811 416.2 641.72 416.137 641.641 416.058C641.561 415.974 641.498 415.881 641.452 415.778C641.405 415.671 641.382 415.556 641.382 415.435C641.382 415.314 641.405 415.199 641.452 415.092C641.498 414.98 641.561 414.884 641.641 414.805C641.72 414.721 641.811 414.656 641.914 414.609C642.021 414.562 642.135 414.539 642.257 414.539C642.378 414.539 642.492 414.562 642.6 414.609C642.712 414.656 642.807 414.721 642.887 414.805C642.971 414.884 643.036 414.98 643.083 415.092C643.134 415.199 643.16 415.314 643.16 415.435ZM645.241 424.752V417.661H645.99C646.167 417.661 646.277 417.747 646.319 417.92L646.41 418.648C646.671 418.326 646.965 418.062 647.292 417.857C647.619 417.652 647.997 417.549 648.426 417.549C648.902 417.549 649.287 417.682 649.581 417.948C649.88 418.214 650.094 418.573 650.225 419.026C650.328 418.769 650.458 418.548 650.617 418.361C650.78 418.174 650.962 418.02 651.163 417.899C651.364 417.778 651.576 417.689 651.8 417.633C652.029 417.577 652.26 417.549 652.493 417.549C652.866 417.549 653.198 417.61 653.487 417.731C653.781 417.848 654.028 418.02 654.229 418.249C654.434 418.478 654.591 418.76 654.698 419.096C654.805 419.427 654.859 419.808 654.859 420.237V424.752H653.606V420.237C653.606 419.682 653.485 419.262 653.242 418.977C652.999 418.688 652.649 418.543 652.192 418.543C651.987 418.543 651.791 418.58 651.604 418.655C651.422 418.725 651.261 418.83 651.121 418.97C650.981 419.11 650.869 419.287 650.785 419.502C650.706 419.712 650.666 419.957 650.666 420.237V424.752H649.413V420.237C649.413 419.668 649.299 419.243 649.07 418.963C648.841 418.683 648.508 418.543 648.069 418.543C647.761 418.543 647.476 418.627 647.215 418.795C646.954 418.958 646.713 419.182 646.494 419.467V424.752H645.241ZM660.896 421.56C660.322 421.579 659.832 421.625 659.426 421.7C659.024 421.77 658.695 421.863 658.439 421.98C658.187 422.097 658.002 422.234 657.886 422.393C657.774 422.552 657.718 422.729 657.718 422.925C657.718 423.112 657.748 423.273 657.809 423.408C657.869 423.543 657.951 423.655 658.054 423.744C658.161 423.828 658.285 423.891 658.425 423.933C658.569 423.97 658.723 423.989 658.887 423.989C659.106 423.989 659.307 423.968 659.489 423.926C659.671 423.879 659.841 423.814 660 423.73C660.163 423.646 660.317 423.546 660.462 423.429C660.611 423.312 660.756 423.179 660.896 423.03V421.56ZM656.871 418.662C657.263 418.284 657.685 418.002 658.138 417.815C658.59 417.628 659.092 417.535 659.643 417.535C660.039 417.535 660.392 417.6 660.7 417.731C661.008 417.862 661.267 418.044 661.477 418.277C661.687 418.51 661.845 418.793 661.953 419.124C662.06 419.455 662.114 419.819 662.114 420.216V424.752H661.561C661.439 424.752 661.346 424.733 661.281 424.696C661.215 424.654 661.164 424.575 661.127 424.458L660.987 423.786C660.8 423.959 660.618 424.113 660.441 424.248C660.263 424.379 660.077 424.491 659.881 424.584C659.685 424.673 659.475 424.74 659.251 424.787C659.031 424.838 658.786 424.864 658.516 424.864C658.24 424.864 657.981 424.827 657.739 424.752C657.496 424.673 657.284 424.556 657.102 424.402C656.924 424.248 656.782 424.054 656.675 423.821C656.572 423.583 656.521 423.303 656.521 422.981C656.521 422.701 656.598 422.433 656.752 422.176C656.906 421.915 657.155 421.684 657.501 421.483C657.846 421.282 658.296 421.119 658.852 420.993C659.407 420.862 660.088 420.788 660.896 420.769V420.216C660.896 419.665 660.777 419.25 660.539 418.97C660.301 418.685 659.953 418.543 659.496 418.543C659.188 418.543 658.929 418.583 658.719 418.662C658.513 418.737 658.334 418.823 658.18 418.921C658.03 419.014 657.9 419.101 657.788 419.18C657.68 419.255 657.573 419.292 657.466 419.292C657.382 419.292 657.309 419.271 657.249 419.229C657.188 419.182 657.137 419.126 657.095 419.061L656.871 418.662ZM665.495 419.082C665.719 418.597 665.994 418.219 666.321 417.948C666.647 417.673 667.046 417.535 667.518 417.535C667.667 417.535 667.809 417.551 667.945 417.584C668.085 417.617 668.208 417.668 668.316 417.738L668.225 418.669C668.197 418.786 668.127 418.844 668.015 418.844C667.949 418.844 667.854 418.83 667.728 418.802C667.602 418.774 667.459 418.76 667.301 418.76C667.077 418.76 666.876 418.793 666.699 418.858C666.526 418.923 666.37 419.021 666.23 419.152C666.094 419.278 665.971 419.437 665.859 419.628C665.751 419.815 665.653 420.029 665.565 420.272V424.752H664.312V417.661H665.026C665.161 417.661 665.254 417.687 665.306 417.738C665.357 417.789 665.392 417.878 665.411 418.004L665.495 419.082ZM675.829 417.661L671.874 426.845C671.832 426.938 671.779 427.013 671.713 427.069C671.653 427.125 671.557 427.153 671.426 427.153H670.502L671.797 424.339L668.871 417.661H669.949C670.057 417.661 670.141 417.689 670.201 417.745C670.267 417.796 670.311 417.855 670.334 417.92L672.231 422.386C672.306 422.582 672.369 422.787 672.42 423.002C672.486 422.783 672.556 422.575 672.63 422.379L674.471 417.92C674.499 417.845 674.546 417.785 674.611 417.738C674.681 417.687 674.758 417.661 674.842 417.661H675.829ZM682.947 424.864C682.387 424.864 681.956 424.708 681.652 424.395C681.354 424.082 681.204 423.632 681.204 423.044V418.704H680.35C680.276 418.704 680.213 418.683 680.161 418.641C680.11 418.594 680.084 418.524 680.084 418.431V417.934L681.246 417.787L681.533 415.596C681.547 415.526 681.578 415.47 681.624 415.428C681.676 415.381 681.741 415.358 681.82 415.358H682.45V417.801H684.501V418.704H682.45V422.96C682.45 423.259 682.523 423.48 682.667 423.625C682.812 423.77 682.999 423.842 683.227 423.842C683.358 423.842 683.47 423.826 683.563 423.793C683.661 423.756 683.745 423.716 683.815 423.674C683.885 423.632 683.944 423.595 683.99 423.562C684.042 423.525 684.086 423.506 684.123 423.506C684.189 423.506 684.247 423.546 684.298 423.625L684.662 424.22C684.448 424.421 684.189 424.579 683.885 424.696C683.582 424.808 683.269 424.864 682.947 424.864ZM692.206 417.661L688.251 426.845C688.209 426.938 688.155 427.013 688.09 427.069C688.029 427.125 687.934 427.153 687.803 427.153H686.879L688.174 424.339L685.248 417.661H686.326C686.433 417.661 686.517 417.689 686.578 417.745C686.643 417.796 686.688 417.855 686.711 417.92L688.608 422.386C688.683 422.582 688.746 422.787 688.797 423.002C688.862 422.783 688.932 422.575 689.007 422.379L690.848 417.92C690.876 417.845 690.923 417.785 690.988 417.738C691.058 417.687 691.135 417.661 691.219 417.661H692.206ZM694.86 423.044C695.088 423.352 695.338 423.569 695.609 423.695C695.879 423.821 696.183 423.884 696.519 423.884C697.181 423.884 697.69 423.648 698.045 423.177C698.399 422.706 698.577 422.034 698.577 421.161C698.577 420.699 698.535 420.302 698.451 419.971C698.371 419.64 698.255 419.369 698.101 419.159C697.947 418.944 697.758 418.788 697.534 418.69C697.31 418.592 697.055 418.543 696.771 418.543C696.365 418.543 696.008 418.636 695.7 418.823C695.396 419.01 695.116 419.273 694.86 419.614V423.044ZM694.797 418.76C695.095 418.391 695.441 418.095 695.833 417.871C696.225 417.647 696.673 417.535 697.177 417.535C697.587 417.535 697.958 417.614 698.29 417.773C698.621 417.927 698.903 418.158 699.137 418.466C699.37 418.769 699.55 419.147 699.676 419.6C699.802 420.053 699.865 420.573 699.865 421.161C699.865 421.684 699.795 422.171 699.655 422.624C699.515 423.072 699.312 423.462 699.046 423.793C698.784 424.12 698.462 424.379 698.08 424.57C697.702 424.757 697.275 424.85 696.799 424.85C696.365 424.85 695.991 424.778 695.679 424.633C695.371 424.484 695.098 424.278 694.86 424.017V427.153H693.607V417.661H694.356C694.533 417.661 694.643 417.747 694.685 417.92L694.797 418.76ZM706.5 420.433C706.5 420.144 706.458 419.88 706.374 419.642C706.295 419.399 706.176 419.192 706.017 419.019C705.863 418.842 705.674 418.706 705.45 418.613C705.226 418.515 704.972 418.466 704.687 418.466C704.09 418.466 703.616 418.641 703.266 418.991C702.921 419.336 702.706 419.817 702.622 420.433H706.5ZM707.508 423.758C707.354 423.945 707.17 424.108 706.955 424.248C706.741 424.383 706.51 424.495 706.262 424.584C706.02 424.673 705.768 424.738 705.506 424.78C705.245 424.827 704.986 424.85 704.729 424.85C704.239 424.85 703.787 424.768 703.371 424.605C702.961 424.437 702.604 424.194 702.3 423.877C702.002 423.555 701.768 423.158 701.6 422.687C701.432 422.216 701.348 421.674 701.348 421.063C701.348 420.568 701.423 420.106 701.572 419.677C701.726 419.248 701.946 418.877 702.23 418.564C702.515 418.247 702.863 417.999 703.273 417.822C703.684 417.64 704.146 417.549 704.659 417.549C705.084 417.549 705.476 417.621 705.835 417.766C706.199 417.906 706.512 418.111 706.773 418.382C707.039 418.648 707.247 418.979 707.396 419.376C707.546 419.768 707.62 420.216 707.62 420.72C707.62 420.916 707.599 421.047 707.557 421.112C707.515 421.177 707.436 421.21 707.319 421.21H702.58C702.594 421.658 702.655 422.048 702.762 422.379C702.874 422.71 703.028 422.988 703.224 423.212C703.42 423.431 703.654 423.597 703.924 423.709C704.195 423.816 704.498 423.87 704.834 423.87C705.147 423.87 705.415 423.835 705.639 423.765C705.868 423.69 706.064 423.611 706.227 423.527C706.391 423.443 706.526 423.366 706.633 423.296C706.745 423.221 706.841 423.184 706.92 423.184C707.023 423.184 707.102 423.224 707.158 423.303L707.508 423.758ZM709.844 424.752V418.725L709.06 418.634C708.962 418.611 708.881 418.576 708.815 418.529C708.755 418.478 708.724 418.405 708.724 418.312V417.801H709.844V417.115C709.844 416.709 709.9 416.35 710.012 416.037C710.129 415.72 710.292 415.454 710.502 415.239C710.717 415.02 710.974 414.854 711.272 414.742C711.571 414.63 711.907 414.574 712.28 414.574C712.598 414.574 712.889 414.621 713.155 414.714L713.127 415.337C713.118 415.449 713.055 415.51 712.938 415.519C712.826 415.528 712.675 415.533 712.483 415.533C712.269 415.533 712.073 415.561 711.895 415.617C711.723 415.673 711.573 415.764 711.447 415.89C711.321 416.016 711.223 416.182 711.153 416.387C711.088 416.592 711.055 416.847 711.055 417.15V417.801H713.099V418.704H711.097V424.752H709.844ZM718.393 421.56C717.819 421.579 717.329 421.625 716.923 421.7C716.521 421.77 716.192 421.863 715.936 421.98C715.684 422.097 715.499 422.234 715.383 422.393C715.271 422.552 715.215 422.729 715.215 422.925C715.215 423.112 715.245 423.273 715.306 423.408C715.366 423.543 715.448 423.655 715.551 423.744C715.658 423.828 715.782 423.891 715.922 423.933C716.066 423.97 716.22 423.989 716.384 423.989C716.603 423.989 716.804 423.968 716.986 423.926C717.168 423.879 717.338 423.814 717.497 423.73C717.66 423.646 717.814 423.546 717.959 423.429C718.108 423.312 718.253 423.179 718.393 423.03V421.56ZM714.368 418.662C714.76 418.284 715.182 418.002 715.635 417.815C716.087 417.628 716.589 417.535 717.14 417.535C717.536 417.535 717.889 417.6 718.197 417.731C718.505 417.862 718.764 418.044 718.974 418.277C719.184 418.51 719.342 418.793 719.45 419.124C719.557 419.455 719.611 419.819 719.611 420.216V424.752H719.058C718.936 424.752 718.843 424.733 718.778 424.696C718.712 424.654 718.661 424.575 718.624 424.458L718.484 423.786C718.297 423.959 718.115 424.113 717.938 424.248C717.76 424.379 717.574 424.491 717.378 424.584C717.182 424.673 716.972 424.74 716.748 424.787C716.528 424.838 716.283 424.864 716.013 424.864C715.737 424.864 715.478 424.827 715.236 424.752C714.993 424.673 714.781 424.556 714.599 424.402C714.421 424.248 714.279 424.054 714.172 423.821C714.069 423.583 714.018 423.303 714.018 422.981C714.018 422.701 714.095 422.433 714.249 422.176C714.403 421.915 714.652 421.684 714.998 421.483C715.343 421.282 715.793 421.119 716.349 420.993C716.904 420.862 717.585 420.788 718.393 420.769V420.216C718.393 419.665 718.274 419.25 718.036 418.97C717.798 418.685 717.45 418.543 716.993 418.543C716.685 418.543 716.426 418.583 716.216 418.662C716.01 418.737 715.831 418.823 715.677 418.921C715.527 419.014 715.397 419.101 715.285 419.18C715.177 419.255 715.07 419.292 714.963 419.292C714.879 419.292 714.806 419.271 714.746 419.229C714.685 419.182 714.634 419.126 714.592 419.061L714.368 418.662ZM726.744 418.921C726.706 418.972 726.669 419.012 726.632 419.04C726.594 419.068 726.543 419.082 726.478 419.082C726.408 419.082 726.331 419.054 726.247 418.998C726.163 418.937 726.058 418.872 725.932 418.802C725.81 418.732 725.659 418.669 725.477 418.613C725.299 418.552 725.08 418.522 724.819 418.522C724.469 418.522 724.161 418.585 723.895 418.711C723.629 418.832 723.405 419.01 723.223 419.243C723.045 419.476 722.91 419.759 722.817 420.09C722.728 420.421 722.684 420.792 722.684 421.203C722.684 421.632 722.733 422.015 722.831 422.351C722.929 422.682 723.066 422.962 723.244 423.191C723.426 423.415 723.643 423.588 723.895 423.709C724.151 423.826 724.438 423.884 724.756 423.884C725.059 423.884 725.309 423.849 725.505 423.779C725.701 423.704 725.862 423.623 725.988 423.534C726.118 423.445 726.226 423.366 726.31 423.296C726.398 423.221 726.485 423.184 726.569 423.184C726.671 423.184 726.751 423.224 726.807 423.303L727.157 423.758C727.003 423.949 726.828 424.113 726.632 424.248C726.436 424.383 726.223 424.498 725.995 424.591C725.771 424.68 725.535 424.745 725.288 424.787C725.04 424.829 724.788 424.85 724.532 424.85C724.088 424.85 723.675 424.768 723.293 424.605C722.915 424.442 722.586 424.206 722.306 423.898C722.026 423.585 721.806 423.203 721.648 422.75C721.489 422.297 721.41 421.782 721.41 421.203C721.41 420.676 721.482 420.188 721.627 419.74C721.776 419.292 721.991 418.907 722.271 418.585C722.555 418.258 722.903 418.004 723.314 417.822C723.729 417.64 724.205 417.549 724.742 417.549C725.241 417.549 725.68 417.631 726.058 417.794C726.44 417.953 726.779 418.179 727.073 418.473L726.744 418.921ZM733.417 420.433C733.417 420.144 733.375 419.88 733.291 419.642C733.212 419.399 733.093 419.192 732.934 419.019C732.78 418.842 732.591 418.706 732.367 418.613C732.143 418.515 731.889 418.466 731.604 418.466C731.007 418.466 730.533 418.641 730.183 418.991C729.838 419.336 729.623 419.817 729.539 420.433H733.417ZM734.425 423.758C734.271 423.945 734.087 424.108 733.872 424.248C733.657 424.383 733.426 424.495 733.179 424.584C732.936 424.673 732.684 424.738 732.423 424.78C732.162 424.827 731.903 424.85 731.646 424.85C731.156 424.85 730.703 424.768 730.288 424.605C729.877 424.437 729.52 424.194 729.217 423.877C728.918 423.555 728.685 423.158 728.517 422.687C728.349 422.216 728.265 421.674 728.265 421.063C728.265 420.568 728.34 420.106 728.489 419.677C728.643 419.248 728.862 418.877 729.147 418.564C729.432 418.247 729.779 417.999 730.19 417.822C730.601 417.64 731.063 417.549 731.576 417.549C732.001 417.549 732.393 417.621 732.752 417.766C733.116 417.906 733.429 418.111 733.69 418.382C733.956 418.648 734.164 418.979 734.313 419.376C734.462 419.768 734.537 420.216 734.537 420.72C734.537 420.916 734.516 421.047 734.474 421.112C734.432 421.177 734.353 421.21 734.236 421.21H729.497C729.511 421.658 729.572 422.048 729.679 422.379C729.791 422.71 729.945 422.988 730.141 423.212C730.337 423.431 730.57 423.597 730.841 423.709C731.112 423.816 731.415 423.87 731.751 423.87C732.064 423.87 732.332 423.835 732.556 423.765C732.785 423.69 732.981 423.611 733.144 423.527C733.307 423.443 733.443 423.366 733.55 423.296C733.662 423.221 733.758 423.184 733.837 423.184C733.94 423.184 734.019 423.224 734.075 423.303L734.425 423.758ZM633.592 440.611V441.752H627.901V431.721H629.252V440.611H633.592ZM636.414 434.661V441.752H635.168V434.661H636.414ZM636.68 432.435C636.68 432.556 636.654 432.671 636.603 432.778C636.556 432.881 636.491 432.974 636.407 433.058C636.328 433.137 636.232 433.2 636.12 433.247C636.013 433.294 635.898 433.317 635.777 433.317C635.656 433.317 635.541 433.294 635.434 433.247C635.331 433.2 635.24 433.137 635.161 433.058C635.082 432.974 635.019 432.881 634.972 432.778C634.925 432.671 634.902 432.556 634.902 432.435C634.902 432.314 634.925 432.199 634.972 432.092C635.019 431.98 635.082 431.884 635.161 431.805C635.24 431.721 635.331 431.656 635.434 431.609C635.541 431.562 635.656 431.539 635.777 431.539C635.898 431.539 636.013 431.562 636.12 431.609C636.232 431.656 636.328 431.721 636.407 431.805C636.491 431.884 636.556 431.98 636.603 432.092C636.654 432.199 636.68 432.314 636.68 432.435ZM641.232 438.287C641.484 438.287 641.706 438.252 641.897 438.182C642.089 438.112 642.25 438.014 642.38 437.888C642.511 437.762 642.609 437.613 642.674 437.44C642.74 437.263 642.772 437.069 642.772 436.859C642.772 436.425 642.639 436.08 642.373 435.823C642.112 435.566 641.732 435.438 641.232 435.438C640.728 435.438 640.343 435.566 640.077 435.823C639.816 436.08 639.685 436.425 639.685 436.859C639.685 437.069 639.718 437.263 639.783 437.44C639.853 437.613 639.954 437.762 640.084 437.888C640.215 438.014 640.376 438.112 640.567 438.182C640.759 438.252 640.98 438.287 641.232 438.287ZM643.479 442.137C643.479 441.964 643.43 441.824 643.332 441.717C643.234 441.61 643.101 441.526 642.933 441.465C642.77 441.404 642.579 441.362 642.359 441.339C642.14 441.311 641.907 441.29 641.659 441.276C641.417 441.262 641.169 441.248 640.917 441.234C640.665 441.22 640.423 441.197 640.189 441.164C639.928 441.285 639.713 441.439 639.545 441.626C639.382 441.808 639.3 442.023 639.3 442.27C639.3 442.429 639.34 442.576 639.419 442.711C639.503 442.851 639.629 442.97 639.797 443.068C639.965 443.171 640.175 443.25 640.427 443.306C640.684 443.367 640.985 443.397 641.33 443.397C641.666 443.397 641.967 443.367 642.233 443.306C642.499 443.245 642.723 443.159 642.905 443.047C643.092 442.935 643.234 442.802 643.332 442.648C643.43 442.494 643.479 442.324 643.479 442.137ZM644.746 434.941V435.403C644.746 435.557 644.648 435.655 644.452 435.697L643.647 435.802C643.806 436.11 643.885 436.451 643.885 436.824C643.885 437.169 643.818 437.484 643.682 437.769C643.552 438.049 643.37 438.289 643.136 438.49C642.903 438.691 642.623 438.845 642.296 438.952C641.97 439.059 641.615 439.113 641.232 439.113C640.901 439.113 640.588 439.073 640.294 438.994C640.145 439.087 640.031 439.188 639.951 439.295C639.872 439.398 639.832 439.503 639.832 439.61C639.832 439.778 639.9 439.906 640.035 439.995C640.175 440.079 640.357 440.14 640.581 440.177C640.805 440.214 641.06 440.238 641.344 440.247C641.634 440.256 641.928 440.273 642.226 440.296C642.53 440.315 642.824 440.35 643.108 440.401C643.398 440.452 643.654 440.536 643.878 440.653C644.102 440.77 644.282 440.931 644.417 441.136C644.557 441.341 644.627 441.607 644.627 441.934C644.627 442.237 644.55 442.531 644.396 442.816C644.247 443.101 644.03 443.353 643.745 443.572C643.461 443.796 643.111 443.973 642.695 444.104C642.285 444.239 641.82 444.307 641.302 444.307C640.784 444.307 640.332 444.256 639.944 444.153C639.557 444.05 639.235 443.913 638.978 443.74C638.722 443.567 638.528 443.367 638.397 443.138C638.271 442.914 638.208 442.678 638.208 442.431C638.208 442.081 638.318 441.785 638.537 441.542C638.757 441.299 639.058 441.106 639.44 440.961C639.23 440.868 639.062 440.744 638.936 440.59C638.815 440.431 638.754 440.219 638.754 439.953C638.754 439.85 638.773 439.745 638.81 439.638C638.848 439.526 638.904 439.416 638.978 439.309C639.058 439.197 639.153 439.092 639.265 438.994C639.377 438.896 639.508 438.81 639.657 438.735C639.307 438.539 639.034 438.28 638.838 437.958C638.642 437.631 638.544 437.253 638.544 436.824C638.544 436.479 638.61 436.166 638.74 435.886C638.876 435.601 639.062 435.361 639.3 435.165C639.538 434.964 639.821 434.81 640.147 434.703C640.479 434.596 640.84 434.542 641.232 434.542C641.54 434.542 641.827 434.577 642.093 434.647C642.359 434.712 642.602 434.81 642.821 434.941H644.746ZM647.588 435.606C647.891 435.284 648.227 435.027 648.596 434.836C648.964 434.645 649.389 434.549 649.87 434.549C650.257 434.549 650.598 434.614 650.892 434.745C651.19 434.871 651.438 435.053 651.634 435.291C651.834 435.524 651.986 435.807 652.089 436.138C652.191 436.469 652.243 436.836 652.243 437.237V441.752H650.99V437.237C650.99 436.7 650.866 436.285 650.619 435.991C650.376 435.692 650.005 435.543 649.506 435.543C649.137 435.543 648.792 435.632 648.47 435.809C648.152 435.986 647.858 436.227 647.588 436.53V441.752H646.335V431.441H647.588V435.606ZM656.523 441.864C655.963 441.864 655.531 441.708 655.228 441.395C654.929 441.082 654.78 440.632 654.78 440.044V435.704H653.926C653.851 435.704 653.788 435.683 653.737 435.641C653.685 435.594 653.66 435.524 653.66 435.431V434.934L654.822 434.787L655.109 432.596C655.123 432.526 655.153 432.47 655.2 432.428C655.251 432.381 655.316 432.358 655.396 432.358H656.026V434.801H658.077V435.704H656.026V439.96C656.026 440.259 656.098 440.48 656.243 440.625C656.387 440.77 656.574 440.842 656.803 440.842C656.933 440.842 657.045 440.826 657.139 440.793C657.237 440.756 657.321 440.716 657.391 440.674C657.461 440.632 657.519 440.595 657.566 440.562C657.617 440.525 657.661 440.506 657.699 440.506C657.764 440.506 657.822 440.546 657.874 440.625L658.238 441.22C658.023 441.421 657.764 441.579 657.461 441.696C657.157 441.808 656.845 441.864 656.523 441.864Z" fill="black"/>
<path d="M205.242 419.922C205.629 419.922 205.97 419.871 206.264 419.768C206.563 419.665 206.812 419.523 207.013 419.341C207.218 419.154 207.372 418.933 207.475 418.676C207.578 418.419 207.629 418.137 207.629 417.829C207.629 417.19 207.431 416.69 207.034 416.331C206.642 415.972 206.045 415.792 205.242 415.792H203.632V419.922H205.242ZM205.242 414.721C205.877 414.721 206.427 414.796 206.894 414.945C207.365 415.09 207.755 415.297 208.063 415.568C208.371 415.839 208.6 416.165 208.749 416.548C208.903 416.931 208.98 417.358 208.98 417.829C208.98 418.296 208.898 418.723 208.735 419.11C208.572 419.497 208.331 419.831 208.014 420.111C207.701 420.391 207.312 420.61 206.845 420.769C206.383 420.923 205.849 421 205.242 421H203.632V424.752H202.281V414.721H205.242ZM211.741 419.082C211.965 418.597 212.241 418.219 212.567 417.948C212.894 417.673 213.293 417.535 213.764 417.535C213.914 417.535 214.056 417.551 214.191 417.584C214.331 417.617 214.455 417.668 214.562 417.738L214.471 418.669C214.443 418.786 214.373 418.844 214.261 418.844C214.196 418.844 214.1 418.83 213.974 418.802C213.848 418.774 213.706 418.76 213.547 418.76C213.323 418.76 213.123 418.793 212.945 418.858C212.773 418.923 212.616 419.021 212.476 419.152C212.341 419.278 212.217 419.437 212.105 419.628C211.998 419.815 211.9 420.029 211.811 420.272V424.752H210.558V417.661H211.272C211.408 417.661 211.501 417.687 211.552 417.738C211.604 417.789 211.639 417.878 211.657 418.004L211.741 419.082ZM217.274 417.661V424.752H216.028V417.661H217.274ZM217.54 415.435C217.54 415.556 217.514 415.671 217.463 415.778C217.416 415.881 217.351 415.974 217.267 416.058C217.188 416.137 217.092 416.2 216.98 416.247C216.873 416.294 216.758 416.317 216.637 416.317C216.516 416.317 216.401 416.294 216.294 416.247C216.191 416.2 216.1 416.137 216.021 416.058C215.942 415.974 215.879 415.881 215.832 415.778C215.785 415.671 215.762 415.556 215.762 415.435C215.762 415.314 215.785 415.199 215.832 415.092C215.879 414.98 215.942 414.884 216.021 414.805C216.1 414.721 216.191 414.656 216.294 414.609C216.401 414.562 216.516 414.539 216.637 414.539C216.758 414.539 216.873 414.562 216.98 414.609C217.092 414.656 217.188 414.721 217.267 414.805C217.351 414.884 217.416 414.98 217.463 415.092C217.514 415.199 217.54 415.314 217.54 415.435ZM219.621 424.752V417.661H220.37C220.548 417.661 220.657 417.747 220.699 417.92L220.79 418.648C221.052 418.326 221.346 418.062 221.672 417.857C221.999 417.652 222.377 417.549 222.806 417.549C223.282 417.549 223.667 417.682 223.961 417.948C224.26 418.214 224.475 418.573 224.605 419.026C224.708 418.769 224.839 418.548 224.997 418.361C225.161 418.174 225.343 418.02 225.543 417.899C225.744 417.778 225.956 417.689 226.18 417.633C226.409 417.577 226.64 417.549 226.873 417.549C227.247 417.549 227.578 417.61 227.867 417.731C228.161 417.848 228.409 418.02 228.609 418.249C228.815 418.478 228.971 418.76 229.078 419.096C229.186 419.427 229.239 419.808 229.239 420.237V424.752H227.986V420.237C227.986 419.682 227.865 419.262 227.622 418.977C227.38 418.688 227.03 418.543 226.572 418.543C226.367 418.543 226.171 418.58 225.984 418.655C225.802 418.725 225.641 418.83 225.501 418.97C225.361 419.11 225.249 419.287 225.165 419.502C225.086 419.712 225.046 419.957 225.046 420.237V424.752H223.793V420.237C223.793 419.668 223.679 419.243 223.45 418.963C223.222 418.683 222.888 418.543 222.449 418.543C222.141 418.543 221.857 418.627 221.595 418.795C221.334 418.958 221.094 419.182 220.874 419.467V424.752H219.621ZM235.276 421.56C234.702 421.579 234.212 421.625 233.806 421.7C233.405 421.77 233.076 421.863 232.819 421.98C232.567 422.097 232.383 422.234 232.266 422.393C232.154 422.552 232.098 422.729 232.098 422.925C232.098 423.112 232.128 423.273 232.189 423.408C232.25 423.543 232.331 423.655 232.434 423.744C232.541 423.828 232.665 423.891 232.805 423.933C232.95 423.97 233.104 423.989 233.267 423.989C233.486 423.989 233.687 423.968 233.869 423.926C234.051 423.879 234.221 423.814 234.38 423.73C234.543 423.646 234.697 423.546 234.842 423.429C234.991 423.312 235.136 423.179 235.276 423.03V421.56ZM231.251 418.662C231.643 418.284 232.065 418.002 232.518 417.815C232.971 417.628 233.472 417.535 234.023 417.535C234.42 417.535 234.772 417.6 235.08 417.731C235.388 417.862 235.647 418.044 235.857 418.277C236.067 418.51 236.226 418.793 236.333 419.124C236.44 419.455 236.494 419.819 236.494 420.216V424.752H235.941C235.82 424.752 235.726 424.733 235.661 424.696C235.596 424.654 235.544 424.575 235.507 424.458L235.367 423.786C235.18 423.959 234.998 424.113 234.821 424.248C234.644 424.379 234.457 424.491 234.261 424.584C234.065 424.673 233.855 424.74 233.631 424.787C233.412 424.838 233.167 424.864 232.896 424.864C232.621 424.864 232.362 424.827 232.119 424.752C231.876 424.673 231.664 424.556 231.482 424.402C231.305 424.248 231.162 424.054 231.055 423.821C230.952 423.583 230.901 423.303 230.901 422.981C230.901 422.701 230.978 422.433 231.132 422.176C231.286 421.915 231.536 421.684 231.881 421.483C232.226 421.282 232.677 421.119 233.232 420.993C233.787 420.862 234.469 420.788 235.276 420.769V420.216C235.276 419.665 235.157 419.25 234.919 418.97C234.681 418.685 234.333 418.543 233.876 418.543C233.568 418.543 233.309 418.583 233.099 418.662C232.894 418.737 232.714 418.823 232.56 418.921C232.411 419.014 232.28 419.101 232.168 419.18C232.061 419.255 231.953 419.292 231.846 419.292C231.762 419.292 231.69 419.271 231.629 419.229C231.568 419.182 231.517 419.126 231.475 419.061L231.251 418.662ZM239.875 419.082C240.099 418.597 240.374 418.219 240.701 417.948C241.028 417.673 241.427 417.535 241.898 417.535C242.047 417.535 242.19 417.551 242.325 417.584C242.465 417.617 242.589 417.668 242.696 417.738L242.605 418.669C242.577 418.786 242.507 418.844 242.395 418.844C242.33 418.844 242.234 418.83 242.108 418.802C241.982 418.774 241.84 418.76 241.681 418.76C241.457 418.76 241.256 418.793 241.079 418.858C240.906 418.923 240.75 419.021 240.61 419.152C240.475 419.278 240.351 419.437 240.239 419.628C240.132 419.815 240.034 420.029 239.945 420.272V424.752H238.692V417.661H239.406C239.541 417.661 239.635 417.687 239.686 417.738C239.737 417.789 239.772 417.878 239.791 418.004L239.875 419.082ZM250.21 417.661L246.255 426.845C246.213 426.938 246.159 427.013 246.094 427.069C246.033 427.125 245.937 427.153 245.807 427.153H244.883L246.178 424.339L243.252 417.661H244.33C244.437 417.661 244.521 417.689 244.582 417.745C244.647 417.796 244.691 417.855 244.715 417.92L246.612 422.386C246.686 422.582 246.749 422.787 246.801 423.002C246.866 422.783 246.936 422.575 247.011 422.379L248.852 417.92C248.88 417.845 248.926 417.785 248.992 417.738C249.062 417.687 249.139 417.661 249.223 417.661H250.21ZM256.439 414.441V424.752H255.193V414.441H256.439ZM261.748 417.549C262.266 417.549 262.733 417.635 263.148 417.808C263.564 417.981 263.918 418.226 264.212 418.543C264.506 418.86 264.73 419.245 264.884 419.698C265.043 420.146 265.122 420.648 265.122 421.203C265.122 421.763 265.043 422.267 264.884 422.715C264.73 423.163 264.506 423.546 264.212 423.863C263.918 424.18 263.564 424.425 263.148 424.598C262.733 424.766 262.266 424.85 261.748 424.85C261.226 424.85 260.754 424.766 260.334 424.598C259.919 424.425 259.564 424.18 259.27 423.863C258.976 423.546 258.75 423.163 258.591 422.715C258.437 422.267 258.36 421.763 258.36 421.203C258.36 420.648 258.437 420.146 258.591 419.698C258.75 419.245 258.976 418.86 259.27 418.543C259.564 418.226 259.919 417.981 260.334 417.808C260.754 417.635 261.226 417.549 261.748 417.549ZM261.748 423.877C262.448 423.877 262.971 423.644 263.316 423.177C263.662 422.706 263.834 422.05 263.834 421.21C263.834 420.365 263.662 419.707 263.316 419.236C262.971 418.765 262.448 418.529 261.748 418.529C261.394 418.529 261.083 418.59 260.817 418.711C260.556 418.832 260.337 419.007 260.159 419.236C259.987 419.465 259.856 419.747 259.767 420.083C259.683 420.414 259.641 420.79 259.641 421.21C259.641 422.05 259.814 422.706 260.159 423.177C260.509 423.644 261.039 423.877 261.748 423.877ZM269.433 421.287C269.685 421.287 269.906 421.252 270.098 421.182C270.289 421.112 270.45 421.014 270.581 420.888C270.711 420.762 270.809 420.613 270.875 420.44C270.94 420.263 270.973 420.069 270.973 419.859C270.973 419.425 270.84 419.08 270.574 418.823C270.312 418.566 269.932 418.438 269.433 418.438C268.929 418.438 268.544 418.566 268.278 418.823C268.016 419.08 267.886 419.425 267.886 419.859C267.886 420.069 267.918 420.263 267.984 420.44C268.054 420.613 268.154 420.762 268.285 420.888C268.415 421.014 268.576 421.112 268.768 421.182C268.959 421.252 269.181 421.287 269.433 421.287ZM271.68 425.137C271.68 424.964 271.631 424.824 271.533 424.717C271.435 424.61 271.302 424.526 271.134 424.465C270.97 424.404 270.779 424.362 270.56 424.339C270.34 424.311 270.107 424.29 269.86 424.276C269.617 424.262 269.37 424.248 269.118 424.234C268.866 424.22 268.623 424.197 268.39 424.164C268.128 424.285 267.914 424.439 267.746 424.626C267.582 424.808 267.501 425.023 267.501 425.27C267.501 425.429 267.54 425.576 267.62 425.711C267.704 425.851 267.83 425.97 267.998 426.068C268.166 426.171 268.376 426.25 268.628 426.306C268.884 426.367 269.185 426.397 269.531 426.397C269.867 426.397 270.168 426.367 270.434 426.306C270.7 426.245 270.924 426.159 271.106 426.047C271.292 425.935 271.435 425.802 271.533 425.648C271.631 425.494 271.68 425.324 271.68 425.137ZM272.947 417.941V418.403C272.947 418.557 272.849 418.655 272.653 418.697L271.848 418.802C272.006 419.11 272.086 419.451 272.086 419.824C272.086 420.169 272.018 420.484 271.883 420.769C271.752 421.049 271.57 421.289 271.337 421.49C271.103 421.691 270.823 421.845 270.497 421.952C270.17 422.059 269.815 422.113 269.433 422.113C269.101 422.113 268.789 422.073 268.495 421.994C268.345 422.087 268.231 422.188 268.152 422.295C268.072 422.398 268.033 422.503 268.033 422.61C268.033 422.778 268.1 422.906 268.236 422.995C268.376 423.079 268.558 423.14 268.782 423.177C269.006 423.214 269.26 423.238 269.545 423.247C269.834 423.256 270.128 423.273 270.427 423.296C270.73 423.315 271.024 423.35 271.309 423.401C271.598 423.452 271.855 423.536 272.079 423.653C272.303 423.77 272.482 423.931 272.618 424.136C272.758 424.341 272.828 424.607 272.828 424.934C272.828 425.237 272.751 425.531 272.597 425.816C272.447 426.101 272.23 426.353 271.946 426.572C271.661 426.796 271.311 426.973 270.896 427.104C270.485 427.239 270.021 427.307 269.503 427.307C268.985 427.307 268.532 427.256 268.145 427.153C267.757 427.05 267.435 426.913 267.179 426.74C266.922 426.567 266.728 426.367 266.598 426.138C266.472 425.914 266.409 425.678 266.409 425.431C266.409 425.081 266.518 424.785 266.738 424.542C266.957 424.299 267.258 424.106 267.641 423.961C267.431 423.868 267.263 423.744 267.137 423.59C267.015 423.431 266.955 423.219 266.955 422.953C266.955 422.85 266.973 422.745 267.011 422.638C267.048 422.526 267.104 422.416 267.179 422.309C267.258 422.197 267.354 422.092 267.466 421.994C267.578 421.896 267.708 421.81 267.858 421.735C267.508 421.539 267.235 421.28 267.039 420.958C266.843 420.631 266.745 420.253 266.745 419.824C266.745 419.479 266.81 419.166 266.941 418.886C267.076 418.601 267.263 418.361 267.501 418.165C267.739 417.964 268.021 417.81 268.348 417.703C268.679 417.596 269.041 417.542 269.433 417.542C269.741 417.542 270.028 417.577 270.294 417.647C270.56 417.712 270.802 417.81 271.022 417.941H272.947ZM277.415 417.549C277.933 417.549 278.399 417.635 278.815 417.808C279.23 417.981 279.585 418.226 279.879 418.543C280.173 418.86 280.397 419.245 280.551 419.698C280.709 420.146 280.789 420.648 280.789 421.203C280.789 421.763 280.709 422.267 280.551 422.715C280.397 423.163 280.173 423.546 279.879 423.863C279.585 424.18 279.23 424.425 278.815 424.598C278.399 424.766 277.933 424.85 277.415 424.85C276.892 424.85 276.421 424.766 276.001 424.598C275.585 424.425 275.231 424.18 274.937 423.863C274.643 423.546 274.416 423.163 274.258 422.715C274.104 422.267 274.027 421.763 274.027 421.203C274.027 420.648 274.104 420.146 274.258 419.698C274.416 419.245 274.643 418.86 274.937 418.543C275.231 418.226 275.585 417.981 276.001 417.808C276.421 417.635 276.892 417.549 277.415 417.549ZM277.415 423.877C278.115 423.877 278.637 423.644 278.983 423.177C279.328 422.706 279.501 422.05 279.501 421.21C279.501 420.365 279.328 419.707 278.983 419.236C278.637 418.765 278.115 418.529 277.415 418.529C277.06 418.529 276.75 418.59 276.484 418.711C276.222 418.832 276.003 419.007 275.826 419.236C275.653 419.465 275.522 419.747 275.434 420.083C275.35 420.414 275.308 420.79 275.308 421.21C275.308 422.05 275.48 422.706 275.826 423.177C276.176 423.644 276.705 423.877 277.415 423.877Z" fill="black"/>
<line x1="627.12" y1="313.645" x2="627.12" y2="390.091" stroke="black"/>
<line x1="201.5" y1="313.645" x2="201.5" y2="390.091" stroke="black"/>
<defs>
<clipPath id="clip0">
<rect width="363.393" height="61.9835" fill="white" transform="translate(201 231)"/>
</clipPath>
</defs>
</svg>
