<svg width="1204" height="678" viewBox="0 0 1204 678" fill="none" xmlns="http://www.w3.org/2000/svg">
<rect width="1204" height="677.25" fill="white"/>
<rect x="228.5" y="239.5" width="741" height="49" stroke="#D8D8D8"/>
<rect x="228.5" y="338.5" width="741" height="49" stroke="#D8D8D8"/>
<rect x="228.5" y="268.5" width="741" height="89" stroke="#D8D8D8"/>
<rect x="228.5" y="387.5" width="148" height="49" transform="rotate(-90 228.5 387.5)" stroke="#D8D8D8"/>
<rect x="571.5" y="387.5" width="148" height="74" transform="rotate(-90 571.5 387.5)" stroke="#D8D8D8"/>
<rect x="920.5" y="387.5" width="148" height="49" transform="rotate(-90 920.5 387.5)" stroke="#D8D8D8"/>
<g clip-path="url(#clip0)">
<path fill-rule="evenodd" clip-rule="evenodd" d="M399.761 288.269C396.487 288.269 394.484 289.995 394.484 293.524V321.911H394.33L375.147 291.107C373.953 289.113 371.95 288.23 369.677 288.23C365.017 288.23 362.782 290.11 362.782 294.598V332.575C362.782 336.104 364.785 337.83 368.059 337.83C371.334 337.83 373.337 336.104 373.337 332.575V304.994H373.452L392.481 334.915C393.868 337.101 395.023 337.83 398.49 337.83C403.113 337.83 404.962 335.375 404.962 331.041V293.486C405.038 289.995 403.035 288.269 399.761 288.269Z" fill="#243741"/>
<path fill-rule="evenodd" clip-rule="evenodd" d="M442.095 288.269C439.822 288.269 438.628 289.074 437.357 291.452L427.881 308.945L418.328 291.452C417.211 289.343 415.978 288.269 413.397 288.269C411.279 288.269 407.851 289.534 407.851 293.255C407.851 294.253 408.236 295.25 408.775 296.132L422.18 318.343V332.46C422.18 335.72 424.299 337.907 427.65 337.907C431.001 337.907 433.12 335.72 433.12 332.46V318.343L446.524 296.132C447.064 295.25 447.449 294.253 447.449 293.255C447.488 289.534 444.098 288.269 442.095 288.269Z" fill="#243741"/>
<path fill-rule="evenodd" clip-rule="evenodd" d="M490.783 293.14C490.783 289.496 487.971 288.269 485.236 288.269C482.694 288.269 481.115 289.803 480.113 293.064L469.829 325.632H469.713L459.813 293.064C458.812 289.803 457.194 288.269 454.266 288.269C451.531 288.269 448.72 289.458 448.72 293.14C448.72 294.023 448.912 295.058 449.374 296.324L462.856 334.109C463.973 337.216 466.13 337.907 469.52 337.907C472.91 337.907 475.067 337.255 476.184 334.109L490.09 296.324C490.591 295.058 490.783 293.984 490.783 293.14Z" fill="#243741"/>
<path fill-rule="evenodd" clip-rule="evenodd" d="M511.892 292.258C510.698 288.882 508.503 288.269 505.999 288.269H503.38C500.722 288.269 498.988 289.151 498.025 291.606L483.85 328.931C483.465 330.005 482.771 331.923 482.771 333.112C482.771 336.027 484.852 337.907 487.856 337.907C490.475 337.907 491.978 337.025 492.748 334.915L495.637 326.936H513.279L516.091 334.915C516.9 337.025 518.634 337.907 521.022 337.907C523.834 337.907 526.183 335.797 526.183 333.112C526.183 331.923 525.529 330.005 525.105 328.931L511.892 292.258ZM498.064 319.34L504.535 300.122H504.651L510.853 319.34H498.064Z" fill="#243741"/>
<path fill-rule="evenodd" clip-rule="evenodd" d="M565.897 288.269C562.623 288.269 560.62 289.995 560.62 293.524V321.911H560.504L541.322 291.107C540.127 289.113 538.124 288.23 535.852 288.23C531.191 288.23 528.957 290.11 528.957 294.598V332.575C528.957 336.104 530.959 337.83 534.234 337.83C537.508 337.83 539.511 336.104 539.511 332.575V304.994H539.626L558.655 334.915C560.042 337.101 561.198 337.83 564.664 337.83C569.287 337.83 571.136 335.375 571.136 331.041V293.486C571.174 289.995 569.171 288.269 565.897 288.269Z" fill="#243741"/>
<path d="M301.767 334.57C304.958 334.57 307.545 331.994 307.545 328.815C307.545 325.638 304.958 323.062 301.767 323.062C298.576 323.062 295.989 325.638 295.989 328.815C295.989 331.994 298.576 334.57 301.767 334.57Z" fill="#243741"/>
<path fill-rule="evenodd" clip-rule="evenodd" d="M347.066 292.258C345.872 288.882 343.676 288.269 341.173 288.269H338.553C338.322 288.269 338.091 288.269 337.86 288.307H284.24C280.851 288.307 278.077 291.069 278.077 294.445V331.769C278.077 335.145 280.851 337.907 284.24 337.907H322.991V337.869H323.107C325.726 337.869 327.229 336.986 327.999 334.876L330.888 326.897H348.53L351.342 334.876C352.151 336.986 353.884 337.869 356.272 337.869C359.084 337.869 361.396 335.759 361.396 333.074C361.396 331.884 360.741 329.966 360.317 328.892L347.066 292.258ZM301.767 335.874C297.876 335.874 294.679 332.728 294.679 328.815C294.679 324.941 297.838 321.757 301.767 321.757C305.657 321.757 308.854 324.903 308.854 328.815C308.816 332.728 305.657 335.874 301.767 335.874ZM316.751 329.353H310.241C310.241 327.972 309.663 320.299 301.574 320.299C293.485 320.299 293.138 329.429 293.138 329.429H291.405C291.405 329.429 286.359 327.396 285.319 326.859C284.279 326.284 284.163 323.445 284.163 323.445V320.952H285.049V318.42C285.473 313.049 298.685 308.216 298.685 308.216C298.685 308.216 309.779 297.322 311.512 295.787C315.249 292.527 330.387 293.255 330.387 293.255L316.751 329.353ZM333.237 319.34L339.709 300.122H339.824L346.026 319.34H333.237Z" fill="#243741"/>
<path fill-rule="evenodd" clip-rule="evenodd" d="M293.985 314.699C293.523 314.584 291.828 314.584 291.097 314.545C290.865 314.545 290.634 314.622 290.48 314.776C290.134 315.044 289.594 315.581 289.093 316.233C288.516 317 288.092 317.959 287.822 318.573C287.63 319.072 288.169 319.11 288.169 319.11L289.44 319.379C289.594 319.417 289.748 319.379 289.864 319.264L294.101 315.581C294.063 315.581 294.679 314.852 293.985 314.699Z" fill="#243741"/>
<path fill-rule="evenodd" clip-rule="evenodd" d="M322.606 296.478C322.028 296.478 316.674 297.053 315.634 297.245C314.594 297.437 313.053 298.626 313.053 298.626L306.466 305.876V309.75L320.41 307.065C320.41 307.065 322.221 306.72 322.491 304.418C322.76 302.117 323.338 297.207 323.338 297.207C323.338 297.207 323.184 296.478 322.606 296.478Z" fill="#243741"/>
</g>
<line x1="980" y1="267.5" x2="994" y2="267.5" stroke="black"/>
<line x1="980" y1="357.5" x2="994" y2="357.5" stroke="black"/>
<line x1="993.5" y1="358" x2="993.5" y2="268" stroke="black"/>
<path d="M190.17 314.33C190.394 313.845 190.669 313.467 190.996 313.196C191.323 312.921 191.722 312.783 192.193 312.783C192.342 312.783 192.485 312.799 192.62 312.832C192.76 312.865 192.884 312.916 192.991 312.986L192.9 313.917C192.872 314.034 192.802 314.092 192.69 314.092C192.625 314.092 192.529 314.078 192.403 314.05C192.277 314.022 192.135 314.008 191.976 314.008C191.752 314.008 191.551 314.041 191.374 314.106C191.201 314.171 191.045 314.269 190.905 314.4C190.77 314.526 190.646 314.685 190.534 314.876C190.427 315.063 190.329 315.277 190.24 315.52V320H188.987V312.909H189.701C189.836 312.909 189.93 312.935 189.981 312.986C190.032 313.037 190.067 313.126 190.086 313.252L190.17 314.33Z" fill="black"/>
<path d="M1011.13 317.048V318H1005.75V317.048H1007.9V310.209C1007.9 310.004 1007.91 309.796 1007.92 309.586L1006.14 311.119C1006.07 311.17 1006.01 311.203 1005.95 311.217C1005.89 311.226 1005.84 311.226 1005.79 311.217C1005.73 311.208 1005.68 311.189 1005.64 311.161C1005.6 311.133 1005.56 311.103 1005.54 311.07L1005.15 310.531L1008.14 307.948H1009.15V317.048H1011.13ZM1016.48 317.118C1016.81 317.118 1017.1 317.074 1017.36 316.985C1017.62 316.892 1017.84 316.763 1018.01 316.6C1018.2 316.432 1018.33 316.234 1018.43 316.005C1018.53 315.772 1018.57 315.515 1018.57 315.235C1018.57 314.89 1018.52 314.596 1018.4 314.353C1018.29 314.106 1018.13 313.905 1017.94 313.751C1017.75 313.597 1017.52 313.485 1017.27 313.415C1017.02 313.34 1016.76 313.303 1016.48 313.303C1016.21 313.303 1015.94 313.34 1015.69 313.415C1015.44 313.485 1015.21 313.597 1015.02 313.751C1014.83 313.905 1014.67 314.106 1014.56 314.353C1014.44 314.596 1014.39 314.89 1014.39 315.235C1014.39 315.515 1014.43 315.772 1014.53 316.005C1014.63 316.234 1014.76 316.432 1014.94 316.6C1015.12 316.763 1015.34 316.892 1015.6 316.985C1015.86 317.074 1016.15 317.118 1016.48 317.118ZM1016.48 308.823C1016.18 308.823 1015.92 308.867 1015.69 308.956C1015.47 309.045 1015.28 309.166 1015.12 309.32C1014.97 309.474 1014.86 309.654 1014.78 309.859C1014.71 310.064 1014.67 310.284 1014.67 310.517C1014.67 310.746 1014.7 310.967 1014.77 311.182C1014.83 311.397 1014.94 311.588 1015.08 311.756C1015.23 311.919 1015.41 312.052 1015.64 312.155C1015.87 312.253 1016.15 312.302 1016.48 312.302C1016.81 312.302 1017.09 312.253 1017.31 312.155C1017.55 312.052 1017.74 311.919 1017.88 311.756C1018.03 311.588 1018.13 311.397 1018.2 311.182C1018.26 310.967 1018.29 310.746 1018.29 310.517C1018.29 310.284 1018.25 310.064 1018.18 309.859C1018.1 309.654 1017.99 309.474 1017.83 309.32C1017.68 309.166 1017.49 309.045 1017.27 308.956C1017.04 308.867 1016.78 308.823 1016.48 308.823ZM1017.92 312.771C1018.54 312.948 1019.02 313.245 1019.36 313.66C1019.69 314.075 1019.86 314.607 1019.86 315.256C1019.86 315.695 1019.78 316.091 1019.61 316.446C1019.45 316.796 1019.22 317.095 1018.92 317.342C1018.62 317.589 1018.27 317.781 1017.85 317.916C1017.44 318.047 1016.98 318.112 1016.48 318.112C1015.98 318.112 1015.52 318.047 1015.11 317.916C1014.69 317.781 1014.34 317.589 1014.04 317.342C1013.74 317.095 1013.51 316.796 1013.35 316.446C1013.18 316.091 1013.1 315.695 1013.1 315.256C1013.1 314.607 1013.27 314.075 1013.6 313.66C1013.94 313.245 1014.42 312.948 1015.05 312.771C1014.52 312.575 1014.12 312.283 1013.85 311.896C1013.58 311.504 1013.45 311.037 1013.45 310.496C1013.45 310.127 1013.52 309.782 1013.67 309.46C1013.81 309.138 1014.02 308.858 1014.28 308.62C1014.55 308.382 1014.87 308.195 1015.24 308.06C1015.61 307.925 1016.02 307.857 1016.48 307.857C1016.93 307.857 1017.35 307.925 1017.72 308.06C1018.09 308.195 1018.41 308.382 1018.68 308.62C1018.95 308.858 1019.15 309.138 1019.3 309.46C1019.44 309.782 1019.51 310.127 1019.51 310.496C1019.51 311.037 1019.38 311.504 1019.11 311.896C1018.84 312.283 1018.44 312.575 1017.92 312.771ZM1028.54 312.988C1028.54 313.865 1028.45 314.626 1028.26 315.27C1028.07 315.909 1027.81 316.439 1027.49 316.859C1027.16 317.279 1026.77 317.592 1026.32 317.797C1025.88 318.002 1025.4 318.105 1024.9 318.105C1024.38 318.105 1023.9 318.002 1023.46 317.797C1023.02 317.592 1022.64 317.279 1022.31 316.859C1021.99 316.439 1021.73 315.909 1021.54 315.27C1021.36 314.626 1021.26 313.865 1021.26 312.988C1021.26 312.111 1021.36 311.35 1021.54 310.706C1021.73 310.062 1021.99 309.53 1022.31 309.11C1022.64 308.685 1023.02 308.37 1023.46 308.165C1023.9 307.96 1024.38 307.857 1024.9 307.857C1025.4 307.857 1025.88 307.96 1026.32 308.165C1026.77 308.37 1027.16 308.685 1027.49 309.11C1027.81 309.53 1028.07 310.062 1028.26 310.706C1028.45 311.35 1028.54 312.111 1028.54 312.988ZM1027.25 312.988C1027.25 312.223 1027.18 311.581 1027.05 311.063C1026.93 310.54 1026.75 310.12 1026.53 309.803C1026.32 309.486 1026.07 309.259 1025.78 309.124C1025.5 308.984 1025.2 308.914 1024.9 308.914C1024.59 308.914 1024.29 308.984 1024.01 309.124C1023.72 309.259 1023.47 309.486 1023.26 309.803C1023.04 310.12 1022.87 310.54 1022.74 311.063C1022.61 311.581 1022.55 312.223 1022.55 312.988C1022.55 313.753 1022.61 314.395 1022.74 314.913C1022.87 315.431 1023.04 315.849 1023.26 316.166C1023.47 316.483 1023.72 316.712 1024.01 316.852C1024.29 316.987 1024.59 317.055 1024.9 317.055C1025.2 317.055 1025.5 316.987 1025.78 316.852C1026.07 316.712 1026.32 316.483 1026.53 316.166C1026.75 315.849 1026.93 315.431 1027.05 314.913C1027.18 314.395 1027.25 313.753 1027.25 312.988ZM1034.32 310.391C1034.32 310.783 1034.26 311.135 1034.14 311.448C1034.01 311.756 1033.85 312.017 1033.65 312.232C1033.44 312.442 1033.21 312.603 1032.94 312.715C1032.67 312.827 1032.39 312.883 1032.09 312.883C1031.78 312.883 1031.49 312.827 1031.22 312.715C1030.95 312.603 1030.71 312.442 1030.51 312.232C1030.31 312.017 1030.16 311.756 1030.05 311.448C1029.94 311.135 1029.88 310.783 1029.88 310.391C1029.88 309.99 1029.94 309.633 1030.05 309.32C1030.16 309.007 1030.31 308.744 1030.51 308.529C1030.71 308.314 1030.95 308.151 1031.22 308.039C1031.49 307.927 1031.78 307.871 1032.09 307.871C1032.41 307.871 1032.7 307.927 1032.97 308.039C1033.24 308.151 1033.48 308.314 1033.68 308.529C1033.88 308.744 1034.04 309.007 1034.15 309.32C1034.26 309.633 1034.32 309.99 1034.32 310.391ZM1033.35 310.391C1033.35 310.083 1033.32 309.822 1033.25 309.607C1033.19 309.392 1033.1 309.217 1032.98 309.082C1032.87 308.942 1032.74 308.842 1032.58 308.781C1032.43 308.72 1032.26 308.69 1032.09 308.69C1031.92 308.69 1031.76 308.72 1031.61 308.781C1031.46 308.842 1031.33 308.942 1031.22 309.082C1031.1 309.217 1031.02 309.392 1030.95 309.607C1030.88 309.822 1030.85 310.083 1030.85 310.391C1030.85 310.694 1030.88 310.953 1030.95 311.168C1031.02 311.378 1031.1 311.551 1031.22 311.686C1031.33 311.817 1031.46 311.912 1031.61 311.973C1031.76 312.029 1031.92 312.057 1032.09 312.057C1032.26 312.057 1032.43 312.029 1032.58 311.973C1032.74 311.912 1032.87 311.817 1032.98 311.686C1033.1 311.551 1033.19 311.378 1033.25 311.168C1033.32 310.953 1033.35 310.694 1033.35 310.391ZM1037.87 308.179C1037.91 308.123 1037.97 308.074 1038.03 308.032C1038.09 307.99 1038.18 307.969 1038.29 307.969H1039.19L1031.85 317.797C1031.81 317.858 1031.76 317.907 1031.69 317.944C1031.63 317.981 1031.55 318 1031.45 318H1030.54L1037.87 308.179ZM1039.87 315.634C1039.87 316.026 1039.81 316.376 1039.69 316.684C1039.56 316.992 1039.4 317.253 1039.2 317.468C1039 317.678 1038.76 317.839 1038.49 317.951C1038.22 318.063 1037.94 318.119 1037.64 318.119C1037.32 318.119 1037.03 318.063 1036.76 317.951C1036.49 317.839 1036.26 317.678 1036.06 317.468C1035.86 317.253 1035.71 316.992 1035.6 316.684C1035.49 316.376 1035.43 316.026 1035.43 315.634C1035.43 315.233 1035.49 314.876 1035.6 314.563C1035.71 314.246 1035.86 313.98 1036.06 313.765C1036.26 313.55 1036.49 313.387 1036.76 313.275C1037.03 313.163 1037.32 313.107 1037.64 313.107C1037.95 313.107 1038.25 313.163 1038.52 313.275C1038.79 313.387 1039.03 313.55 1039.22 313.765C1039.42 313.98 1039.58 314.246 1039.69 314.563C1039.81 314.876 1039.87 315.233 1039.87 315.634ZM1038.9 315.634C1038.9 315.326 1038.87 315.065 1038.8 314.85C1038.74 314.631 1038.65 314.453 1038.53 314.318C1038.42 314.183 1038.29 314.085 1038.13 314.024C1037.98 313.963 1037.81 313.933 1037.64 313.933C1037.47 313.933 1037.31 313.963 1037.15 314.024C1037 314.085 1036.87 314.183 1036.76 314.318C1036.65 314.453 1036.56 314.631 1036.49 314.85C1036.43 315.065 1036.4 315.326 1036.4 315.634C1036.4 315.937 1036.43 316.194 1036.49 316.404C1036.56 316.614 1036.65 316.787 1036.76 316.922C1036.87 317.053 1037 317.148 1037.15 317.209C1037.31 317.265 1037.47 317.293 1037.64 317.293C1037.81 317.293 1037.98 317.265 1038.13 317.209C1038.29 317.148 1038.42 317.053 1038.53 316.922C1038.65 316.787 1038.74 316.614 1038.8 316.404C1038.87 316.194 1038.9 315.937 1038.9 315.634ZM1052.53 310.797C1053.05 310.797 1053.51 310.883 1053.93 311.056C1054.34 311.229 1054.7 311.474 1054.99 311.791C1055.29 312.108 1055.51 312.493 1055.66 312.946C1055.82 313.394 1055.9 313.896 1055.9 314.451C1055.9 315.011 1055.82 315.515 1055.66 315.963C1055.51 316.411 1055.29 316.794 1054.99 317.111C1054.7 317.428 1054.34 317.673 1053.93 317.846C1053.51 318.014 1053.05 318.098 1052.53 318.098C1052.01 318.098 1051.53 318.014 1051.11 317.846C1050.7 317.673 1050.34 317.428 1050.05 317.111C1049.76 316.794 1049.53 316.411 1049.37 315.963C1049.22 315.515 1049.14 315.011 1049.14 314.451C1049.14 313.896 1049.22 313.394 1049.37 312.946C1049.53 312.493 1049.76 312.108 1050.05 311.791C1050.34 311.474 1050.7 311.229 1051.11 311.056C1051.53 310.883 1052.01 310.797 1052.53 310.797ZM1052.53 317.125C1053.23 317.125 1053.75 316.892 1054.1 316.425C1054.44 315.954 1054.61 315.298 1054.61 314.458C1054.61 313.613 1054.44 312.955 1054.1 312.484C1053.75 312.013 1053.23 311.777 1052.53 311.777C1052.17 311.777 1051.86 311.838 1051.6 311.959C1051.34 312.08 1051.12 312.255 1050.94 312.484C1050.77 312.713 1050.64 312.995 1050.55 313.331C1050.46 313.662 1050.42 314.038 1050.42 314.458C1050.42 315.298 1050.59 315.954 1050.94 316.425C1051.29 316.892 1051.82 317.125 1052.53 317.125ZM1058.09 318V311.973L1057.31 311.882C1057.21 311.859 1057.13 311.824 1057.06 311.777C1057 311.726 1056.97 311.653 1056.97 311.56V311.049H1058.09V310.363C1058.09 309.957 1058.15 309.598 1058.26 309.285C1058.38 308.968 1058.54 308.702 1058.75 308.487C1058.97 308.268 1059.22 308.102 1059.52 307.99C1059.82 307.878 1060.16 307.822 1060.53 307.822C1060.85 307.822 1061.14 307.869 1061.4 307.962L1061.38 308.585C1061.37 308.697 1061.3 308.758 1061.19 308.767C1061.08 308.776 1060.92 308.781 1060.73 308.781C1060.52 308.781 1060.32 308.809 1060.14 308.865C1059.97 308.921 1059.82 309.012 1059.7 309.138C1059.57 309.264 1059.47 309.43 1059.4 309.635C1059.34 309.84 1059.3 310.095 1059.3 310.398V311.049H1061.35V311.952H1059.35V318H1058.09ZM1067.65 312.33C1067.87 311.845 1068.14 311.467 1068.47 311.196C1068.8 310.921 1069.2 310.783 1069.67 310.783C1069.82 310.783 1069.96 310.799 1070.1 310.832C1070.24 310.865 1070.36 310.916 1070.47 310.986L1070.38 311.917C1070.35 312.034 1070.28 312.092 1070.17 312.092C1070.1 312.092 1070 312.078 1069.88 312.05C1069.75 312.022 1069.61 312.008 1069.45 312.008C1069.23 312.008 1069.03 312.041 1068.85 312.106C1068.68 312.171 1068.52 312.269 1068.38 312.4C1068.25 312.526 1068.12 312.685 1068.01 312.876C1067.9 313.063 1067.8 313.277 1067.72 313.52V318H1066.46V310.909H1067.18C1067.31 310.909 1067.41 310.935 1067.46 310.986C1067.51 311.037 1067.54 311.126 1067.56 311.252L1067.65 312.33Z" fill="black"/>
<line x1="218" y1="338.5" x2="204" y2="338.5" stroke="black"/>
<line x1="218" y1="239.5" x2="204" y2="239.5" stroke="black"/>
<line x1="218" y1="289.5" x2="204" y2="289.5" stroke="black"/>
<line x1="204.5" y1="239" x2="204.5" y2="338" stroke="black"/>
<path d="M140.126 268.048V269H134.75V268.048H136.899V261.209C136.899 261.004 136.906 260.796 136.92 260.586L135.135 262.119C135.074 262.17 135.014 262.203 134.953 262.217C134.892 262.226 134.836 262.226 134.785 262.217C134.734 262.208 134.685 262.189 134.638 262.161C134.596 262.133 134.563 262.103 134.54 262.07L134.148 261.531L137.137 258.948H138.152V268.048H140.126ZM149.121 263.988C149.121 264.865 149.025 265.626 148.834 266.27C148.647 266.909 148.391 267.439 148.064 267.859C147.737 268.279 147.35 268.592 146.902 268.797C146.459 269.002 145.983 269.105 145.474 269.105C144.961 269.105 144.482 269.002 144.039 268.797C143.6 268.592 143.218 268.279 142.891 267.859C142.564 267.439 142.308 266.909 142.121 266.27C141.934 265.626 141.841 264.865 141.841 263.988C141.841 263.111 141.934 262.35 142.121 261.706C142.308 261.062 142.564 260.53 142.891 260.11C143.218 259.685 143.6 259.37 144.039 259.165C144.482 258.96 144.961 258.857 145.474 258.857C145.983 258.857 146.459 258.96 146.902 259.165C147.35 259.37 147.737 259.685 148.064 260.11C148.391 260.53 148.647 261.062 148.834 261.706C149.025 262.35 149.121 263.111 149.121 263.988ZM147.826 263.988C147.826 263.223 147.761 262.581 147.63 262.063C147.504 261.54 147.331 261.12 147.112 260.803C146.897 260.486 146.648 260.259 146.363 260.124C146.078 259.984 145.782 259.914 145.474 259.914C145.166 259.914 144.87 259.984 144.585 260.124C144.3 260.259 144.051 260.486 143.836 260.803C143.621 261.12 143.449 261.54 143.318 262.063C143.192 262.581 143.129 263.223 143.129 263.988C143.129 264.753 143.192 265.395 143.318 265.913C143.449 266.431 143.621 266.849 143.836 267.166C144.051 267.483 144.3 267.712 144.585 267.852C144.87 267.987 145.166 268.055 145.474 268.055C145.782 268.055 146.078 267.987 146.363 267.852C146.648 267.712 146.897 267.483 147.112 267.166C147.331 266.849 147.504 266.431 147.63 265.913C147.761 265.395 147.826 264.753 147.826 263.988ZM157.542 263.988C157.542 264.865 157.447 265.626 157.255 266.27C157.069 266.909 156.812 267.439 156.485 267.859C156.159 268.279 155.771 268.592 155.323 268.797C154.88 269.002 154.404 269.105 153.895 269.105C153.382 269.105 152.904 269.002 152.46 268.797C152.022 268.592 151.639 268.279 151.312 267.859C150.986 267.439 150.729 266.909 150.542 266.27C150.356 265.626 150.262 264.865 150.262 263.988C150.262 263.111 150.356 262.35 150.542 261.706C150.729 261.062 150.986 260.53 151.312 260.11C151.639 259.685 152.022 259.37 152.46 259.165C152.904 258.96 153.382 258.857 153.895 258.857C154.404 258.857 154.88 258.96 155.323 259.165C155.771 259.37 156.159 259.685 156.485 260.11C156.812 260.53 157.069 261.062 157.255 261.706C157.447 262.35 157.542 263.111 157.542 263.988ZM156.247 263.988C156.247 263.223 156.182 262.581 156.051 262.063C155.925 261.54 155.753 261.12 155.533 260.803C155.319 260.486 155.069 260.259 154.784 260.124C154.5 259.984 154.203 259.914 153.895 259.914C153.587 259.914 153.291 259.984 153.006 260.124C152.722 260.259 152.472 260.486 152.257 260.803C152.043 261.12 151.87 261.54 151.739 262.063C151.613 262.581 151.55 263.223 151.55 263.988C151.55 264.753 151.613 265.395 151.739 265.913C151.87 266.431 152.043 266.849 152.257 267.166C152.472 267.483 152.722 267.712 153.006 267.852C153.291 267.987 153.587 268.055 153.895 268.055C154.203 268.055 154.5 267.987 154.784 267.852C155.069 267.712 155.319 267.483 155.533 267.166C155.753 266.849 155.925 266.431 156.051 265.913C156.182 265.395 156.247 264.753 156.247 263.988ZM163.317 261.391C163.317 261.783 163.257 262.135 163.135 262.448C163.014 262.756 162.851 263.017 162.645 263.232C162.445 263.442 162.209 263.603 161.938 263.715C161.672 263.827 161.39 263.883 161.091 263.883C160.779 263.883 160.487 263.827 160.216 263.715C159.946 263.603 159.71 263.442 159.509 263.232C159.313 263.017 159.159 262.756 159.047 262.448C158.935 262.135 158.879 261.783 158.879 261.391C158.879 260.99 158.935 260.633 159.047 260.32C159.159 260.007 159.313 259.744 159.509 259.529C159.71 259.314 159.946 259.151 160.216 259.039C160.487 258.927 160.779 258.871 161.091 258.871C161.409 258.871 161.703 258.927 161.973 259.039C162.244 259.151 162.48 259.314 162.68 259.529C162.881 259.744 163.037 260.007 163.149 260.32C163.261 260.633 163.317 260.99 163.317 261.391ZM162.351 261.391C162.351 261.083 162.319 260.822 162.253 260.607C162.188 260.392 162.097 260.217 161.98 260.082C161.868 259.942 161.735 259.842 161.581 259.781C161.427 259.72 161.264 259.69 161.091 259.69C160.919 259.69 160.758 259.72 160.608 259.781C160.459 259.842 160.328 259.942 160.216 260.082C160.104 260.217 160.016 260.392 159.95 260.607C159.885 260.822 159.852 261.083 159.852 261.391C159.852 261.694 159.885 261.953 159.95 262.168C160.016 262.378 160.104 262.551 160.216 262.686C160.328 262.817 160.459 262.912 160.608 262.973C160.758 263.029 160.919 263.057 161.091 263.057C161.264 263.057 161.427 263.029 161.581 262.973C161.735 262.912 161.868 262.817 161.98 262.686C162.097 262.551 162.188 262.378 162.253 262.168C162.319 261.953 162.351 261.694 162.351 261.391ZM166.866 259.179C166.913 259.123 166.967 259.074 167.027 259.032C167.093 258.99 167.179 258.969 167.286 258.969H168.189L160.853 268.797C160.811 268.858 160.758 268.907 160.692 268.944C160.627 268.981 160.548 269 160.454 269H159.537L166.866 259.179ZM168.868 266.634C168.868 267.026 168.808 267.376 168.686 267.684C168.565 267.992 168.402 268.253 168.196 268.468C167.996 268.678 167.76 268.839 167.489 268.951C167.223 269.063 166.941 269.119 166.642 269.119C166.325 269.119 166.031 269.063 165.76 268.951C165.494 268.839 165.261 268.678 165.06 268.468C164.864 268.253 164.71 267.992 164.598 267.684C164.486 267.376 164.43 267.026 164.43 266.634C164.43 266.233 164.486 265.876 164.598 265.563C164.71 265.246 164.864 264.98 165.06 264.765C165.261 264.55 165.494 264.387 165.76 264.275C166.031 264.163 166.325 264.107 166.642 264.107C166.955 264.107 167.247 264.163 167.517 264.275C167.793 264.387 168.028 264.55 168.224 264.765C168.425 264.98 168.581 265.246 168.693 265.563C168.81 265.876 168.868 266.233 168.868 266.634ZM167.902 266.634C167.902 266.326 167.87 266.065 167.804 265.85C167.739 265.631 167.648 265.453 167.531 265.318C167.419 265.183 167.286 265.085 167.132 265.024C166.978 264.963 166.815 264.933 166.642 264.933C166.47 264.933 166.306 264.963 166.152 265.024C166.003 265.085 165.872 265.183 165.76 265.318C165.648 265.453 165.56 265.631 165.494 265.85C165.434 266.065 165.403 266.326 165.403 266.634C165.403 266.937 165.434 267.194 165.494 267.404C165.56 267.614 165.648 267.787 165.76 267.922C165.872 268.053 166.003 268.148 166.152 268.209C166.306 268.265 166.47 268.293 166.642 268.293C166.815 268.293 166.978 268.265 167.132 268.209C167.286 268.148 167.419 268.053 167.531 267.922C167.648 267.787 167.739 267.614 167.804 267.404C167.87 267.194 167.902 266.937 167.902 266.634ZM177.646 261.797C178.164 261.797 178.631 261.883 179.046 262.056C179.461 262.229 179.816 262.474 180.11 262.791C180.404 263.108 180.628 263.493 180.782 263.946C180.941 264.394 181.02 264.896 181.02 265.451C181.02 266.011 180.941 266.515 180.782 266.963C180.628 267.411 180.404 267.794 180.11 268.111C179.816 268.428 179.461 268.673 179.046 268.846C178.631 269.014 178.164 269.098 177.646 269.098C177.123 269.098 176.652 269.014 176.232 268.846C175.817 268.673 175.462 268.428 175.168 268.111C174.874 267.794 174.648 267.411 174.489 266.963C174.335 266.515 174.258 266.011 174.258 265.451C174.258 264.896 174.335 264.394 174.489 263.946C174.648 263.493 174.874 263.108 175.168 262.791C175.462 262.474 175.817 262.229 176.232 262.056C176.652 261.883 177.123 261.797 177.646 261.797ZM177.646 268.125C178.346 268.125 178.869 267.892 179.214 267.425C179.559 266.954 179.732 266.298 179.732 265.458C179.732 264.613 179.559 263.955 179.214 263.484C178.869 263.013 178.346 262.777 177.646 262.777C177.291 262.777 176.981 262.838 176.715 262.959C176.454 263.08 176.234 263.255 176.057 263.484C175.884 263.713 175.754 263.995 175.665 264.331C175.581 264.662 175.539 265.038 175.539 265.458C175.539 266.298 175.712 266.954 176.057 267.425C176.407 267.892 176.937 268.125 177.646 268.125ZM183.212 269V262.973L182.428 262.882C182.33 262.859 182.248 262.824 182.183 262.777C182.122 262.726 182.092 262.653 182.092 262.56V262.049H183.212V261.363C183.212 260.957 183.268 260.598 183.38 260.285C183.497 259.968 183.66 259.702 183.87 259.487C184.085 259.268 184.341 259.102 184.64 258.99C184.939 258.878 185.275 258.822 185.648 258.822C185.965 258.822 186.257 258.869 186.523 258.962L186.495 259.585C186.486 259.697 186.423 259.758 186.306 259.767C186.194 259.776 186.042 259.781 185.851 259.781C185.636 259.781 185.44 259.809 185.263 259.865C185.09 259.921 184.941 260.012 184.815 260.138C184.689 260.264 184.591 260.43 184.521 260.635C184.456 260.84 184.423 261.095 184.423 261.398V262.049H186.467V262.952H184.465V269H183.212ZM192.763 263.33C192.987 262.845 193.263 262.467 193.589 262.196C193.916 261.921 194.315 261.783 194.786 261.783C194.936 261.783 195.078 261.799 195.213 261.832C195.353 261.865 195.477 261.916 195.584 261.986L195.493 262.917C195.465 263.034 195.395 263.092 195.283 263.092C195.218 263.092 195.122 263.078 194.996 263.05C194.87 263.022 194.728 263.008 194.569 263.008C194.345 263.008 194.145 263.041 193.967 263.106C193.795 263.171 193.638 263.269 193.498 263.4C193.363 263.526 193.239 263.685 193.127 263.876C193.02 264.063 192.922 264.277 192.833 264.52V269H191.58V261.909H192.294C192.43 261.909 192.523 261.935 192.574 261.986C192.626 262.037 192.661 262.126 192.679 262.252L192.763 263.33Z" fill="black"/>
<line x1="278.5" y1="398" x2="278.5" y2="412" stroke="black"/>
<line x1="228.5" y1="398" x2="228.5" y2="412" stroke="black"/>
<line x1="228" y1="411.5" x2="278" y2="411.5" stroke="black"/>
<path d="M228.126 435.048V436H222.75V435.048H224.899V428.209C224.899 428.004 224.906 427.796 224.92 427.586L223.135 429.119C223.074 429.17 223.014 429.203 222.953 429.217C222.892 429.226 222.836 429.226 222.785 429.217C222.734 429.208 222.685 429.189 222.638 429.161C222.596 429.133 222.563 429.103 222.54 429.07L222.148 428.531L225.137 425.948H226.152V435.048H228.126ZM237.121 430.988C237.121 431.865 237.025 432.626 236.834 433.27C236.647 433.909 236.391 434.439 236.064 434.859C235.737 435.279 235.35 435.592 234.902 435.797C234.459 436.002 233.983 436.105 233.474 436.105C232.961 436.105 232.482 436.002 232.039 435.797C231.6 435.592 231.218 435.279 230.891 434.859C230.564 434.439 230.308 433.909 230.121 433.27C229.934 432.626 229.841 431.865 229.841 430.988C229.841 430.111 229.934 429.35 230.121 428.706C230.308 428.062 230.564 427.53 230.891 427.11C231.218 426.685 231.6 426.37 232.039 426.165C232.482 425.96 232.961 425.857 233.474 425.857C233.983 425.857 234.459 425.96 234.902 426.165C235.35 426.37 235.737 426.685 236.064 427.11C236.391 427.53 236.647 428.062 236.834 428.706C237.025 429.35 237.121 430.111 237.121 430.988ZM235.826 430.988C235.826 430.223 235.761 429.581 235.63 429.063C235.504 428.54 235.331 428.12 235.112 427.803C234.897 427.486 234.648 427.259 234.363 427.124C234.078 426.984 233.782 426.914 233.474 426.914C233.166 426.914 232.87 426.984 232.585 427.124C232.3 427.259 232.051 427.486 231.836 427.803C231.621 428.12 231.449 428.54 231.318 429.063C231.192 429.581 231.129 430.223 231.129 430.988C231.129 431.753 231.192 432.395 231.318 432.913C231.449 433.431 231.621 433.849 231.836 434.166C232.051 434.483 232.3 434.712 232.585 434.852C232.87 434.987 233.166 435.055 233.474 435.055C233.782 435.055 234.078 434.987 234.363 434.852C234.648 434.712 234.897 434.483 235.112 434.166C235.331 433.849 235.504 433.431 235.63 432.913C235.761 432.395 235.826 431.753 235.826 430.988ZM245.542 430.988C245.542 431.865 245.447 432.626 245.255 433.27C245.069 433.909 244.812 434.439 244.485 434.859C244.159 435.279 243.771 435.592 243.323 435.797C242.88 436.002 242.404 436.105 241.895 436.105C241.382 436.105 240.904 436.002 240.46 435.797C240.022 435.592 239.639 435.279 239.312 434.859C238.986 434.439 238.729 433.909 238.542 433.27C238.356 432.626 238.262 431.865 238.262 430.988C238.262 430.111 238.356 429.35 238.542 428.706C238.729 428.062 238.986 427.53 239.312 427.11C239.639 426.685 240.022 426.37 240.46 426.165C240.904 425.96 241.382 425.857 241.895 425.857C242.404 425.857 242.88 425.96 243.323 426.165C243.771 426.37 244.159 426.685 244.485 427.11C244.812 427.53 245.069 428.062 245.255 428.706C245.447 429.35 245.542 430.111 245.542 430.988ZM244.247 430.988C244.247 430.223 244.182 429.581 244.051 429.063C243.925 428.54 243.753 428.12 243.533 427.803C243.319 427.486 243.069 427.259 242.784 427.124C242.5 426.984 242.203 426.914 241.895 426.914C241.587 426.914 241.291 426.984 241.006 427.124C240.722 427.259 240.472 427.486 240.257 427.803C240.043 428.12 239.87 428.54 239.739 429.063C239.613 429.581 239.55 430.223 239.55 430.988C239.55 431.753 239.613 432.395 239.739 432.913C239.87 433.431 240.043 433.849 240.257 434.166C240.472 434.483 240.722 434.712 241.006 434.852C241.291 434.987 241.587 435.055 241.895 435.055C242.203 435.055 242.5 434.987 242.784 434.852C243.069 434.712 243.319 434.483 243.533 434.166C243.753 433.849 243.925 433.431 244.051 432.913C244.182 432.395 244.247 431.753 244.247 430.988ZM251.317 428.391C251.317 428.783 251.257 429.135 251.135 429.448C251.014 429.756 250.851 430.017 250.645 430.232C250.445 430.442 250.209 430.603 249.938 430.715C249.672 430.827 249.39 430.883 249.091 430.883C248.779 430.883 248.487 430.827 248.216 430.715C247.946 430.603 247.71 430.442 247.509 430.232C247.313 430.017 247.159 429.756 247.047 429.448C246.935 429.135 246.879 428.783 246.879 428.391C246.879 427.99 246.935 427.633 247.047 427.32C247.159 427.007 247.313 426.744 247.509 426.529C247.71 426.314 247.946 426.151 248.216 426.039C248.487 425.927 248.779 425.871 249.091 425.871C249.409 425.871 249.703 425.927 249.973 426.039C250.244 426.151 250.48 426.314 250.68 426.529C250.881 426.744 251.037 427.007 251.149 427.32C251.261 427.633 251.317 427.99 251.317 428.391ZM250.351 428.391C250.351 428.083 250.319 427.822 250.253 427.607C250.188 427.392 250.097 427.217 249.98 427.082C249.868 426.942 249.735 426.842 249.581 426.781C249.427 426.72 249.264 426.69 249.091 426.69C248.919 426.69 248.758 426.72 248.608 426.781C248.459 426.842 248.328 426.942 248.216 427.082C248.104 427.217 248.016 427.392 247.95 427.607C247.885 427.822 247.852 428.083 247.852 428.391C247.852 428.694 247.885 428.953 247.95 429.168C248.016 429.378 248.104 429.551 248.216 429.686C248.328 429.817 248.459 429.912 248.608 429.973C248.758 430.029 248.919 430.057 249.091 430.057C249.264 430.057 249.427 430.029 249.581 429.973C249.735 429.912 249.868 429.817 249.98 429.686C250.097 429.551 250.188 429.378 250.253 429.168C250.319 428.953 250.351 428.694 250.351 428.391ZM254.866 426.179C254.913 426.123 254.967 426.074 255.027 426.032C255.093 425.99 255.179 425.969 255.286 425.969H256.189L248.853 435.797C248.811 435.858 248.758 435.907 248.692 435.944C248.627 435.981 248.548 436 248.454 436H247.537L254.866 426.179ZM256.868 433.634C256.868 434.026 256.808 434.376 256.686 434.684C256.565 434.992 256.402 435.253 256.196 435.468C255.996 435.678 255.76 435.839 255.489 435.951C255.223 436.063 254.941 436.119 254.642 436.119C254.325 436.119 254.031 436.063 253.76 435.951C253.494 435.839 253.261 435.678 253.06 435.468C252.864 435.253 252.71 434.992 252.598 434.684C252.486 434.376 252.43 434.026 252.43 433.634C252.43 433.233 252.486 432.876 252.598 432.563C252.71 432.246 252.864 431.98 253.06 431.765C253.261 431.55 253.494 431.387 253.76 431.275C254.031 431.163 254.325 431.107 254.642 431.107C254.955 431.107 255.247 431.163 255.517 431.275C255.793 431.387 256.028 431.55 256.224 431.765C256.425 431.98 256.581 432.246 256.693 432.563C256.81 432.876 256.868 433.233 256.868 433.634ZM255.902 433.634C255.902 433.326 255.87 433.065 255.804 432.85C255.739 432.631 255.648 432.453 255.531 432.318C255.419 432.183 255.286 432.085 255.132 432.024C254.978 431.963 254.815 431.933 254.642 431.933C254.47 431.933 254.306 431.963 254.152 432.024C254.003 432.085 253.872 432.183 253.76 432.318C253.648 432.453 253.56 432.631 253.494 432.85C253.434 433.065 253.403 433.326 253.403 433.634C253.403 433.937 253.434 434.194 253.494 434.404C253.56 434.614 253.648 434.787 253.76 434.922C253.872 435.053 254.003 435.148 254.152 435.209C254.306 435.265 254.47 435.293 254.642 435.293C254.815 435.293 254.978 435.265 255.132 435.209C255.286 435.148 255.419 435.053 255.531 434.922C255.648 434.787 255.739 434.614 255.804 434.404C255.87 434.194 255.902 433.937 255.902 433.634ZM265.646 428.797C266.164 428.797 266.631 428.883 267.046 429.056C267.461 429.229 267.816 429.474 268.11 429.791C268.404 430.108 268.628 430.493 268.782 430.946C268.941 431.394 269.02 431.896 269.02 432.451C269.02 433.011 268.941 433.515 268.782 433.963C268.628 434.411 268.404 434.794 268.11 435.111C267.816 435.428 267.461 435.673 267.046 435.846C266.631 436.014 266.164 436.098 265.646 436.098C265.123 436.098 264.652 436.014 264.232 435.846C263.817 435.673 263.462 435.428 263.168 435.111C262.874 434.794 262.648 434.411 262.489 433.963C262.335 433.515 262.258 433.011 262.258 432.451C262.258 431.896 262.335 431.394 262.489 430.946C262.648 430.493 262.874 430.108 263.168 429.791C263.462 429.474 263.817 429.229 264.232 429.056C264.652 428.883 265.123 428.797 265.646 428.797ZM265.646 435.125C266.346 435.125 266.869 434.892 267.214 434.425C267.559 433.954 267.732 433.298 267.732 432.458C267.732 431.613 267.559 430.955 267.214 430.484C266.869 430.013 266.346 429.777 265.646 429.777C265.291 429.777 264.981 429.838 264.715 429.959C264.454 430.08 264.234 430.255 264.057 430.484C263.884 430.713 263.754 430.995 263.665 431.331C263.581 431.662 263.539 432.038 263.539 432.458C263.539 433.298 263.712 433.954 264.057 434.425C264.407 434.892 264.937 435.125 265.646 435.125ZM271.212 436V429.973L270.428 429.882C270.33 429.859 270.248 429.824 270.183 429.777C270.122 429.726 270.092 429.653 270.092 429.56V429.049H271.212V428.363C271.212 427.957 271.268 427.598 271.38 427.285C271.497 426.968 271.66 426.702 271.87 426.487C272.085 426.268 272.341 426.102 272.64 425.99C272.939 425.878 273.275 425.822 273.648 425.822C273.965 425.822 274.257 425.869 274.523 425.962L274.495 426.585C274.486 426.697 274.423 426.758 274.306 426.767C274.194 426.776 274.042 426.781 273.851 426.781C273.636 426.781 273.44 426.809 273.263 426.865C273.09 426.921 272.941 427.012 272.815 427.138C272.689 427.264 272.591 427.43 272.521 427.635C272.456 427.84 272.423 428.095 272.423 428.398V429.049H274.467V429.952H272.465V436H271.212ZM280.763 430.33C280.987 429.845 281.263 429.467 281.589 429.196C281.916 428.921 282.315 428.783 282.786 428.783C282.936 428.783 283.078 428.799 283.213 428.832C283.353 428.865 283.477 428.916 283.584 428.986L283.493 429.917C283.465 430.034 283.395 430.092 283.283 430.092C283.218 430.092 283.122 430.078 282.996 430.05C282.87 430.022 282.728 430.008 282.569 430.008C282.345 430.008 282.145 430.041 281.967 430.106C281.795 430.171 281.638 430.269 281.498 430.4C281.363 430.526 281.239 430.685 281.127 430.876C281.02 431.063 280.922 431.277 280.833 431.52V436H279.58V428.909H280.294C280.43 428.909 280.523 428.935 280.574 428.986C280.626 429.037 280.661 429.126 280.679 429.252L280.763 430.33Z" fill="black"/>
<line x1="646.5" y1="398" x2="646.5" y2="412" stroke="black"/>
<line x1="571.5" y1="398" x2="571.5" y2="412" stroke="black"/>
<line x1="571" y1="411.5" x2="646" y2="411.5" stroke="black"/>
<path d="M584.126 435.048V436H578.75V435.048H580.899V428.209C580.899 428.004 580.906 427.796 580.92 427.586L579.135 429.119C579.074 429.17 579.014 429.203 578.953 429.217C578.892 429.226 578.836 429.226 578.785 429.217C578.734 429.208 578.685 429.189 578.638 429.161C578.596 429.133 578.563 429.103 578.54 429.07L578.148 428.531L581.137 425.948H582.152V435.048H584.126ZM587.955 429.756C588.478 429.644 588.958 429.588 589.397 429.588C589.92 429.588 590.382 429.665 590.783 429.819C591.184 429.973 591.518 430.185 591.784 430.456C592.055 430.727 592.258 431.046 592.393 431.415C592.533 431.784 592.603 432.185 592.603 432.619C592.603 433.151 592.51 433.632 592.323 434.061C592.141 434.49 591.887 434.859 591.56 435.167C591.238 435.47 590.858 435.704 590.419 435.867C589.98 436.03 589.507 436.112 588.998 436.112C588.704 436.112 588.422 436.082 588.151 436.021C587.88 435.965 587.626 435.888 587.388 435.79C587.155 435.692 586.938 435.58 586.737 435.454C586.536 435.328 586.359 435.195 586.205 435.055L586.59 434.523C586.674 434.402 586.784 434.341 586.919 434.341C587.012 434.341 587.117 434.378 587.234 434.453C587.351 434.523 587.493 434.602 587.661 434.691C587.829 434.78 588.025 434.861 588.249 434.936C588.478 435.006 588.748 435.041 589.061 435.041C589.411 435.041 589.726 434.985 590.006 434.873C590.286 434.761 590.526 434.602 590.727 434.397C590.928 434.187 591.082 433.937 591.189 433.648C591.296 433.359 591.35 433.034 591.35 432.675C591.35 432.362 591.303 432.08 591.21 431.828C591.121 431.576 590.984 431.361 590.797 431.184C590.615 431.007 590.386 430.869 590.111 430.771C589.836 430.673 589.514 430.624 589.145 430.624C588.893 430.624 588.629 430.645 588.354 430.687C588.083 430.729 587.806 430.797 587.521 430.89L586.737 430.659L587.542 425.969H592.295V426.515C592.295 426.692 592.239 426.839 592.127 426.956C592.02 427.068 591.833 427.124 591.567 427.124H588.417L587.955 429.756ZM601.542 430.988C601.542 431.865 601.447 432.626 601.255 433.27C601.069 433.909 600.812 434.439 600.485 434.859C600.159 435.279 599.771 435.592 599.323 435.797C598.88 436.002 598.404 436.105 597.895 436.105C597.382 436.105 596.904 436.002 596.46 435.797C596.022 435.592 595.639 435.279 595.312 434.859C594.986 434.439 594.729 433.909 594.542 433.27C594.356 432.626 594.262 431.865 594.262 430.988C594.262 430.111 594.356 429.35 594.542 428.706C594.729 428.062 594.986 427.53 595.312 427.11C595.639 426.685 596.022 426.37 596.46 426.165C596.904 425.96 597.382 425.857 597.895 425.857C598.404 425.857 598.88 425.96 599.323 426.165C599.771 426.37 600.159 426.685 600.485 427.11C600.812 427.53 601.069 428.062 601.255 428.706C601.447 429.35 601.542 430.111 601.542 430.988ZM600.247 430.988C600.247 430.223 600.182 429.581 600.051 429.063C599.925 428.54 599.753 428.12 599.533 427.803C599.319 427.486 599.069 427.259 598.784 427.124C598.5 426.984 598.203 426.914 597.895 426.914C597.587 426.914 597.291 426.984 597.006 427.124C596.722 427.259 596.472 427.486 596.257 427.803C596.043 428.12 595.87 428.54 595.739 429.063C595.613 429.581 595.55 430.223 595.55 430.988C595.55 431.753 595.613 432.395 595.739 432.913C595.87 433.431 596.043 433.849 596.257 434.166C596.472 434.483 596.722 434.712 597.006 434.852C597.291 434.987 597.587 435.055 597.895 435.055C598.203 435.055 598.5 434.987 598.784 434.852C599.069 434.712 599.319 434.483 599.533 434.166C599.753 433.849 599.925 433.431 600.051 432.913C600.182 432.395 600.247 431.753 600.247 430.988ZM607.317 428.391C607.317 428.783 607.257 429.135 607.135 429.448C607.014 429.756 606.851 430.017 606.645 430.232C606.445 430.442 606.209 430.603 605.938 430.715C605.672 430.827 605.39 430.883 605.091 430.883C604.779 430.883 604.487 430.827 604.216 430.715C603.946 430.603 603.71 430.442 603.509 430.232C603.313 430.017 603.159 429.756 603.047 429.448C602.935 429.135 602.879 428.783 602.879 428.391C602.879 427.99 602.935 427.633 603.047 427.32C603.159 427.007 603.313 426.744 603.509 426.529C603.71 426.314 603.946 426.151 604.216 426.039C604.487 425.927 604.779 425.871 605.091 425.871C605.409 425.871 605.703 425.927 605.973 426.039C606.244 426.151 606.48 426.314 606.68 426.529C606.881 426.744 607.037 427.007 607.149 427.32C607.261 427.633 607.317 427.99 607.317 428.391ZM606.351 428.391C606.351 428.083 606.319 427.822 606.253 427.607C606.188 427.392 606.097 427.217 605.98 427.082C605.868 426.942 605.735 426.842 605.581 426.781C605.427 426.72 605.264 426.69 605.091 426.69C604.919 426.69 604.758 426.72 604.608 426.781C604.459 426.842 604.328 426.942 604.216 427.082C604.104 427.217 604.016 427.392 603.95 427.607C603.885 427.822 603.852 428.083 603.852 428.391C603.852 428.694 603.885 428.953 603.95 429.168C604.016 429.378 604.104 429.551 604.216 429.686C604.328 429.817 604.459 429.912 604.608 429.973C604.758 430.029 604.919 430.057 605.091 430.057C605.264 430.057 605.427 430.029 605.581 429.973C605.735 429.912 605.868 429.817 605.98 429.686C606.097 429.551 606.188 429.378 606.253 429.168C606.319 428.953 606.351 428.694 606.351 428.391ZM610.866 426.179C610.913 426.123 610.967 426.074 611.027 426.032C611.093 425.99 611.179 425.969 611.286 425.969H612.189L604.853 435.797C604.811 435.858 604.758 435.907 604.692 435.944C604.627 435.981 604.548 436 604.454 436H603.537L610.866 426.179ZM612.868 433.634C612.868 434.026 612.808 434.376 612.686 434.684C612.565 434.992 612.402 435.253 612.196 435.468C611.996 435.678 611.76 435.839 611.489 435.951C611.223 436.063 610.941 436.119 610.642 436.119C610.325 436.119 610.031 436.063 609.76 435.951C609.494 435.839 609.261 435.678 609.06 435.468C608.864 435.253 608.71 434.992 608.598 434.684C608.486 434.376 608.43 434.026 608.43 433.634C608.43 433.233 608.486 432.876 608.598 432.563C608.71 432.246 608.864 431.98 609.06 431.765C609.261 431.55 609.494 431.387 609.76 431.275C610.031 431.163 610.325 431.107 610.642 431.107C610.955 431.107 611.247 431.163 611.517 431.275C611.793 431.387 612.028 431.55 612.224 431.765C612.425 431.98 612.581 432.246 612.693 432.563C612.81 432.876 612.868 433.233 612.868 433.634ZM611.902 433.634C611.902 433.326 611.87 433.065 611.804 432.85C611.739 432.631 611.648 432.453 611.531 432.318C611.419 432.183 611.286 432.085 611.132 432.024C610.978 431.963 610.815 431.933 610.642 431.933C610.47 431.933 610.306 431.963 610.152 432.024C610.003 432.085 609.872 432.183 609.76 432.318C609.648 432.453 609.56 432.631 609.494 432.85C609.434 433.065 609.403 433.326 609.403 433.634C609.403 433.937 609.434 434.194 609.494 434.404C609.56 434.614 609.648 434.787 609.76 434.922C609.872 435.053 610.003 435.148 610.152 435.209C610.306 435.265 610.47 435.293 610.642 435.293C610.815 435.293 610.978 435.265 611.132 435.209C611.286 435.148 611.419 435.053 611.531 434.922C611.648 434.787 611.739 434.614 611.804 434.404C611.87 434.194 611.902 433.937 611.902 433.634ZM621.646 428.797C622.164 428.797 622.631 428.883 623.046 429.056C623.461 429.229 623.816 429.474 624.11 429.791C624.404 430.108 624.628 430.493 624.782 430.946C624.941 431.394 625.02 431.896 625.02 432.451C625.02 433.011 624.941 433.515 624.782 433.963C624.628 434.411 624.404 434.794 624.11 435.111C623.816 435.428 623.461 435.673 623.046 435.846C622.631 436.014 622.164 436.098 621.646 436.098C621.123 436.098 620.652 436.014 620.232 435.846C619.817 435.673 619.462 435.428 619.168 435.111C618.874 434.794 618.648 434.411 618.489 433.963C618.335 433.515 618.258 433.011 618.258 432.451C618.258 431.896 618.335 431.394 618.489 430.946C618.648 430.493 618.874 430.108 619.168 429.791C619.462 429.474 619.817 429.229 620.232 429.056C620.652 428.883 621.123 428.797 621.646 428.797ZM621.646 435.125C622.346 435.125 622.869 434.892 623.214 434.425C623.559 433.954 623.732 433.298 623.732 432.458C623.732 431.613 623.559 430.955 623.214 430.484C622.869 430.013 622.346 429.777 621.646 429.777C621.291 429.777 620.981 429.838 620.715 429.959C620.454 430.08 620.234 430.255 620.057 430.484C619.884 430.713 619.754 430.995 619.665 431.331C619.581 431.662 619.539 432.038 619.539 432.458C619.539 433.298 619.712 433.954 620.057 434.425C620.407 434.892 620.937 435.125 621.646 435.125ZM627.212 436V429.973L626.428 429.882C626.33 429.859 626.248 429.824 626.183 429.777C626.122 429.726 626.092 429.653 626.092 429.56V429.049H627.212V428.363C627.212 427.957 627.268 427.598 627.38 427.285C627.497 426.968 627.66 426.702 627.87 426.487C628.085 426.268 628.341 426.102 628.64 425.99C628.939 425.878 629.275 425.822 629.648 425.822C629.965 425.822 630.257 425.869 630.523 425.962L630.495 426.585C630.486 426.697 630.423 426.758 630.306 426.767C630.194 426.776 630.042 426.781 629.851 426.781C629.636 426.781 629.44 426.809 629.263 426.865C629.09 426.921 628.941 427.012 628.815 427.138C628.689 427.264 628.591 427.43 628.521 427.635C628.456 427.84 628.423 428.095 628.423 428.398V429.049H630.467V429.952H628.465V436H627.212ZM636.763 430.33C636.987 429.845 637.263 429.467 637.589 429.196C637.916 428.921 638.315 428.783 638.786 428.783C638.936 428.783 639.078 428.799 639.213 428.832C639.353 428.865 639.477 428.916 639.584 428.986L639.493 429.917C639.465 430.034 639.395 430.092 639.283 430.092C639.218 430.092 639.122 430.078 638.996 430.05C638.87 430.022 638.728 430.008 638.569 430.008C638.345 430.008 638.145 430.041 637.967 430.106C637.795 430.171 637.638 430.269 637.498 430.4C637.363 430.526 637.239 430.685 637.127 430.876C637.02 431.063 636.922 431.277 636.833 431.52V436H635.58V428.909H636.294C636.43 428.909 636.523 428.935 636.574 428.986C636.626 429.037 636.661 429.126 636.679 429.252L636.763 430.33Z" fill="black"/>
<path d="M649.559 291.49V312.05H671.847V314.987H649.559V337.447H646V288.553H675.302V291.49H649.559Z" fill="#243741"/>
<path d="M697.033 312.706C699.199 312.706 701.134 312.453 702.839 311.946C704.566 311.416 706.017 310.668 707.192 309.7C708.39 308.733 709.3 307.569 709.922 306.21C710.544 304.851 710.855 303.319 710.855 301.614C710.855 298.136 709.715 295.556 707.434 293.874C705.177 292.193 701.871 291.352 697.517 291.352H688.568V312.706H697.033ZM718.733 337.447H715.693C715.301 337.447 714.967 337.39 714.691 337.274C714.437 337.136 714.195 336.894 713.965 336.549L698.277 316.715C698.093 316.461 697.897 316.242 697.69 316.058C697.506 315.874 697.287 315.736 697.033 315.643C696.803 315.528 696.515 315.448 696.17 315.402C695.847 315.355 695.444 315.332 694.96 315.332H688.568V337.447H685.009V288.553H697.517C703.138 288.553 707.342 289.647 710.129 291.836C712.94 294.001 714.345 297.191 714.345 301.407C714.345 303.273 714.023 304.978 713.378 306.521C712.733 308.065 711.8 309.424 710.579 310.598C709.381 311.75 707.918 312.695 706.19 313.432C704.486 314.169 702.562 314.664 700.42 314.918C700.973 315.263 701.468 315.724 701.906 316.3L718.733 337.447Z" fill="#243741"/>
<path d="M756.358 334.51L756.289 337.447H726.987V288.553H756.289V291.49H730.546V311.255H751.969V314.123H730.546V334.51H756.358Z" fill="#243741"/>
<path d="M770.634 337.447H767.075V288.553H770.634V337.447Z" fill="#243741"/>
<path d="M824.141 315.263V332.644C821.699 334.372 819.096 335.696 816.331 336.618C813.567 337.539 810.457 338 807.002 338C803.132 338 799.653 337.413 796.566 336.238C793.48 335.04 790.842 333.358 788.653 331.193C786.488 329.004 784.818 326.367 783.643 323.28C782.491 320.193 781.915 316.761 781.915 312.983C781.915 309.205 782.48 305.784 783.609 302.72C784.76 299.633 786.396 297.007 788.515 294.842C790.658 292.653 793.238 290.972 796.255 289.797C799.273 288.599 802.671 288 806.449 288C808.315 288 810.031 288.127 811.597 288.38C813.187 288.633 814.661 289.014 816.02 289.52C817.38 290.004 818.647 290.615 819.821 291.352C820.996 292.066 822.125 292.895 823.208 293.84L822.24 295.36C821.918 295.913 821.434 296.04 820.789 295.74C820.443 295.602 819.948 295.279 819.303 294.773C818.658 294.266 817.771 293.736 816.642 293.183C815.514 292.63 814.108 292.135 812.427 291.697C810.768 291.26 808.741 291.041 806.345 291.041C803.166 291.041 800.287 291.548 797.707 292.561C795.15 293.575 792.961 295.026 791.141 296.915C789.345 298.804 787.951 301.108 786.96 303.826C785.993 306.544 785.509 309.596 785.509 312.983C785.509 316.415 785.993 319.502 786.96 322.243C787.951 324.985 789.368 327.311 791.21 329.223C793.076 331.135 795.334 332.598 797.983 333.612C800.632 334.625 803.615 335.132 806.933 335.132C808.384 335.132 809.72 335.04 810.941 334.856C812.185 334.671 813.36 334.418 814.465 334.095C815.594 333.75 816.677 333.335 817.714 332.851C818.773 332.345 819.844 331.78 820.927 331.158V317.993H811.563C811.31 317.993 811.091 317.912 810.906 317.751C810.745 317.59 810.664 317.406 810.664 317.198V315.263H824.141Z" fill="#243741"/>
<path d="M873.647 288.553V337.447H870.088V314.019H839.472V337.447H835.913V288.553H839.472V311.359H870.088V288.553H873.647Z" fill="#243741"/>
<path d="M919.872 291.559H902.699V337.447H899.14V291.559H881.862V288.553H919.872V291.559Z" fill="#243741"/>
<line x1="609" y1="269" x2="609" y2="357" stroke="#243741" stroke-width="2" stroke-linecap="round" stroke-linejoin="round"/>
<defs>
<clipPath id="clip0">
<rect width="293.137" height="50" fill="white" transform="translate(278 288)"/>
</clipPath>
</defs>
</svg>
