<svg width="1204" height="678" viewBox="0 0 1204 678" fill="none" xmlns="http://www.w3.org/2000/svg">
<rect width="1204" height="677.25" fill="#41A5DD"/>
<line x1="572" y1="359.5" x2="558" y2="359.5" stroke="white"/>
<line x1="572" y1="319.5" x2="558" y2="319.5" stroke="white"/>
<line x1="558.5" y1="319" x2="558.5" y2="359" stroke="white"/>
<path d="M520.11 341.381V337.244C520.11 337.123 520.115 336.99 520.124 336.845C520.133 336.7 520.147 336.553 520.166 336.404L516.512 341.381H520.11ZM522.721 341.381V342.095C522.721 342.17 522.698 342.233 522.651 342.284C522.609 342.335 522.541 342.361 522.448 342.361H521.202V345H520.11V342.361H515.658C515.565 342.361 515.483 342.335 515.413 342.284C515.348 342.228 515.306 342.16 515.287 342.081L515.161 341.444L520.04 334.969H521.202V341.381H522.721ZM531.121 339.988C531.121 340.865 531.025 341.626 530.834 342.27C530.647 342.909 530.391 343.439 530.064 343.859C529.737 344.279 529.35 344.592 528.902 344.797C528.459 345.002 527.983 345.105 527.474 345.105C526.961 345.105 526.482 345.002 526.039 344.797C525.6 344.592 525.218 344.279 524.891 343.859C524.564 343.439 524.308 342.909 524.121 342.27C523.934 341.626 523.841 340.865 523.841 339.988C523.841 339.111 523.934 338.35 524.121 337.706C524.308 337.062 524.564 336.53 524.891 336.11C525.218 335.685 525.6 335.37 526.039 335.165C526.482 334.96 526.961 334.857 527.474 334.857C527.983 334.857 528.459 334.96 528.902 335.165C529.35 335.37 529.737 335.685 530.064 336.11C530.391 336.53 530.647 337.062 530.834 337.706C531.025 338.35 531.121 339.111 531.121 339.988ZM529.826 339.988C529.826 339.223 529.761 338.581 529.63 338.063C529.504 337.54 529.331 337.12 529.112 336.803C528.897 336.486 528.648 336.259 528.363 336.124C528.078 335.984 527.782 335.914 527.474 335.914C527.166 335.914 526.87 335.984 526.585 336.124C526.3 336.259 526.051 336.486 525.836 336.803C525.621 337.12 525.449 337.54 525.318 338.063C525.192 338.581 525.129 339.223 525.129 339.988C525.129 340.753 525.192 341.395 525.318 341.913C525.449 342.431 525.621 342.849 525.836 343.166C526.051 343.483 526.3 343.712 526.585 343.852C526.87 343.987 527.166 344.055 527.474 344.055C527.782 344.055 528.078 343.987 528.363 343.852C528.648 343.712 528.897 343.483 529.112 343.166C529.331 342.849 529.504 342.431 529.63 341.913C529.761 341.395 529.826 340.753 529.826 339.988ZM534.082 343.292C534.311 343.6 534.561 343.817 534.831 343.943C535.102 344.069 535.405 344.132 535.741 344.132C536.404 344.132 536.913 343.896 537.267 343.425C537.622 342.954 537.799 342.282 537.799 341.409C537.799 340.947 537.757 340.55 537.673 340.219C537.594 339.888 537.477 339.617 537.323 339.407C537.169 339.192 536.98 339.036 536.756 338.938C536.532 338.84 536.278 338.791 535.993 338.791C535.587 338.791 535.23 338.884 534.922 339.071C534.619 339.258 534.339 339.521 534.082 339.862V343.292ZM534.019 339.008C534.318 338.639 534.663 338.343 535.055 338.119C535.447 337.895 535.895 337.783 536.399 337.783C536.81 337.783 537.181 337.862 537.512 338.021C537.844 338.175 538.126 338.406 538.359 338.714C538.593 339.017 538.772 339.395 538.898 339.848C539.024 340.301 539.087 340.821 539.087 341.409C539.087 341.932 539.017 342.419 538.877 342.872C538.737 343.32 538.534 343.71 538.268 344.041C538.007 344.368 537.685 344.627 537.302 344.818C536.924 345.005 536.497 345.098 536.021 345.098C535.587 345.098 535.214 345.026 534.901 344.881C534.593 344.732 534.32 344.526 534.082 344.265V347.401H532.829V337.909H533.578C533.756 337.909 533.865 337.995 533.907 338.168L534.019 339.008ZM546.527 345H545.33C545.228 345 545.146 344.974 545.085 344.923C545.029 344.867 544.983 344.806 544.945 344.741L543.16 341.962C543.142 342.027 543.121 342.093 543.097 342.158C543.079 342.219 543.051 342.275 543.013 342.326L541.361 344.741C541.315 344.806 541.263 344.867 541.207 344.923C541.156 344.974 541.084 345 540.99 345H539.877L542.362 341.36L539.975 337.909H541.172C541.275 337.909 541.35 337.925 541.396 337.958C541.443 337.991 541.485 338.037 541.522 338.098L543.265 340.758C543.303 340.623 543.361 340.492 543.44 340.366L544.966 338.126C545.008 338.061 545.053 338.009 545.099 337.972C545.151 337.93 545.211 337.909 545.281 337.909H546.429L544.042 341.297L546.527 345Z" fill="white"/>
<g clip-path="url(#clip0)">
<path fill-rule="evenodd" clip-rule="evenodd" d="M626.277 319.098C625.086 319.098 624.358 319.725 624.358 321.009V331.331H624.302L617.326 320.13C616.892 319.405 616.164 319.084 615.337 319.084C613.642 319.084 612.83 319.767 612.83 321.399V335.209C612.83 336.492 613.558 337.12 614.749 337.12C615.939 337.12 616.668 336.492 616.668 335.209V325.18H616.71L623.629 336.06C624.134 336.855 624.554 337.12 625.815 337.12C627.495 337.12 628.168 336.227 628.168 334.651V320.995C628.196 319.725 627.467 319.098 626.277 319.098Z" fill="white"/>
<path fill-rule="evenodd" clip-rule="evenodd" d="M641.671 319.098C640.844 319.098 640.41 319.391 639.948 320.255L636.502 326.616L633.028 320.255C632.622 319.488 632.174 319.098 631.235 319.098C630.465 319.098 629.218 319.558 629.218 320.911C629.218 321.274 629.358 321.636 629.555 321.957L634.429 330.034V335.167C634.429 336.353 635.199 337.148 636.418 337.148C637.637 337.148 638.407 336.353 638.407 335.167V330.034L643.282 321.957C643.478 321.636 643.618 321.274 643.618 320.911C643.632 319.558 642.399 319.098 641.671 319.098Z" fill="white"/>
<path fill-rule="evenodd" clip-rule="evenodd" d="M659.376 320.869C659.376 319.544 658.353 319.098 657.359 319.098C656.434 319.098 655.86 319.656 655.496 320.841L651.756 332.684H651.714L648.114 320.841C647.75 319.656 647.161 319.098 646.097 319.098C645.102 319.098 644.08 319.53 644.08 320.869C644.08 321.19 644.15 321.567 644.318 322.027L649.221 335.767C649.627 336.897 650.411 337.148 651.644 337.148C652.876 337.148 653.661 336.911 654.067 335.767L659.124 322.027C659.306 321.567 659.376 321.176 659.376 320.869Z" fill="white"/>
<path fill-rule="evenodd" clip-rule="evenodd" d="M667.052 320.548C666.617 319.321 665.819 319.098 664.909 319.098H663.956C662.99 319.098 662.359 319.418 662.009 320.311L656.855 333.884C656.714 334.274 656.462 334.972 656.462 335.404C656.462 336.464 657.219 337.148 658.311 337.148C659.264 337.148 659.81 336.827 660.09 336.06L661.141 333.159H667.556L668.579 336.06C668.873 336.827 669.503 337.148 670.371 337.148C671.394 337.148 672.248 336.381 672.248 335.404C672.248 334.972 672.01 334.274 671.856 333.884L667.052 320.548ZM662.023 330.397L664.376 323.408H664.418L666.674 330.397H662.023Z" fill="white"/>
<path fill-rule="evenodd" clip-rule="evenodd" d="M686.69 319.098C685.499 319.098 684.771 319.725 684.771 321.009V331.331H684.729L677.753 320.13C677.319 319.405 676.591 319.084 675.764 319.084C674.069 319.084 673.257 319.767 673.257 321.399V335.209C673.257 336.492 673.985 337.12 675.176 337.12C676.367 337.12 677.095 336.492 677.095 335.209V325.18H677.137L684.056 336.06C684.561 336.855 684.981 337.12 686.242 337.12C687.923 337.12 688.595 336.227 688.595 334.651V320.995C688.609 319.725 687.88 319.098 686.69 319.098Z" fill="white"/>
<path d="M590.642 335.934C591.803 335.934 592.744 334.998 592.744 333.842C592.744 332.686 591.803 331.75 590.642 331.75C589.482 331.75 588.541 332.686 588.541 333.842C588.541 334.998 589.482 335.934 590.642 335.934Z" fill="white"/>
<path fill-rule="evenodd" clip-rule="evenodd" d="M607.115 320.548C606.681 319.321 605.882 319.098 604.972 319.098H604.019C603.935 319.098 603.851 319.098 603.767 319.112H584.269C583.037 319.112 582.028 320.116 582.028 321.343V334.916C582.028 336.144 583.037 337.148 584.269 337.148H598.36V337.134H598.402C599.355 337.134 599.901 336.813 600.181 336.046L601.232 333.145H607.647L608.67 336.046C608.964 336.813 609.594 337.134 610.463 337.134C611.485 337.134 612.326 336.367 612.326 335.39C612.326 334.958 612.087 334.26 611.933 333.87L607.115 320.548ZM590.642 336.409C589.228 336.409 588.065 335.265 588.065 333.842C588.065 332.433 589.214 331.275 590.642 331.275C592.057 331.275 593.22 332.419 593.22 333.842C593.206 335.265 592.057 336.409 590.642 336.409ZM596.091 334.037H593.724C593.724 333.535 593.514 330.745 590.572 330.745C587.631 330.745 587.505 334.065 587.505 334.065H586.875C586.875 334.065 585.04 333.326 584.661 333.131C584.283 332.921 584.241 331.889 584.241 331.889V330.982H584.563V330.062C584.717 328.109 589.522 326.351 589.522 326.351C589.522 326.351 593.556 322.39 594.186 321.832C595.545 320.646 601.05 320.911 601.05 320.911L596.091 334.037ZM602.086 330.397L604.44 323.408H604.482L606.737 330.397H602.086Z" fill="white"/>
<path fill-rule="evenodd" clip-rule="evenodd" d="M587.813 328.709C587.645 328.667 587.029 328.667 586.762 328.653C586.678 328.653 586.594 328.681 586.538 328.737C586.412 328.834 586.216 329.029 586.034 329.267C585.824 329.546 585.67 329.894 585.572 330.118C585.502 330.299 585.698 330.313 585.698 330.313L586.16 330.41C586.216 330.424 586.272 330.41 586.314 330.369L587.855 329.029C587.841 329.029 588.065 328.764 587.813 328.709Z" fill="white"/>
<path fill-rule="evenodd" clip-rule="evenodd" d="M598.22 322.083C598.01 322.083 596.063 322.292 595.685 322.362C595.307 322.431 594.747 322.864 594.747 322.864L592.351 325.5V326.909L597.422 325.933C597.422 325.933 598.08 325.807 598.178 324.97C598.276 324.133 598.487 322.348 598.487 322.348C598.487 322.348 598.43 322.083 598.22 322.083Z" fill="white"/>
</g>
<path d="M585.711 352.291C586.34 352.291 586.904 352.203 587.405 352.029C587.905 351.855 588.327 351.613 588.672 351.305C589.024 350.996 589.291 350.634 589.473 350.218C589.662 349.796 589.757 349.337 589.757 348.84C589.757 347.747 589.419 346.906 588.743 346.316C588.067 345.725 587.056 345.43 585.711 345.43H583.044V352.291H585.711ZM585.711 344.616C587.394 344.616 588.662 344.981 589.514 345.712C590.372 346.443 590.801 347.486 590.801 348.84C590.801 349.464 590.683 350.037 590.447 350.56C590.21 351.084 589.872 351.536 589.433 351.918C588.993 352.294 588.459 352.589 587.83 352.804C587.202 353.012 586.495 353.115 585.711 353.115H583.044V358.849H582V344.616H585.711Z" fill="white"/>
<path d="M597.659 351.647C598.294 351.647 598.862 351.573 599.362 351.426C599.869 351.271 600.295 351.053 600.64 350.772C600.991 350.49 601.258 350.151 601.441 349.756C601.623 349.36 601.715 348.914 601.715 348.418C601.715 347.405 601.38 346.654 600.711 346.165C600.048 345.675 599.078 345.43 597.801 345.43H595.174V351.647H597.659ZM604.026 358.849H603.134C603.019 358.849 602.921 358.832 602.84 358.799C602.766 358.759 602.695 358.688 602.627 358.588L598.024 352.814C597.97 352.74 597.912 352.676 597.851 352.623C597.797 352.569 597.733 352.529 597.659 352.502C597.591 352.468 597.506 352.445 597.405 352.431C597.31 352.418 597.192 352.411 597.05 352.411H595.174V358.849H594.13V344.616H597.801C599.45 344.616 600.684 344.934 601.502 345.571C602.326 346.202 602.739 347.13 602.739 348.358C602.739 348.901 602.644 349.397 602.455 349.846C602.265 350.296 601.992 350.691 601.633 351.033C601.282 351.369 600.853 351.643 600.346 351.858C599.845 352.073 599.281 352.217 598.652 352.291C598.815 352.391 598.96 352.525 599.088 352.693L604.026 358.849Z" fill="white"/>
<path d="M619.521 351.727C619.521 352.827 619.355 353.826 619.024 354.725C618.693 355.617 618.226 356.381 617.624 357.018C617.023 357.649 616.299 358.138 615.454 358.487C614.616 358.829 613.69 359 612.676 359C611.662 359 610.736 358.829 609.898 358.487C609.06 358.138 608.34 357.649 607.738 357.018C607.136 356.381 606.67 355.617 606.339 354.725C606.007 353.826 605.842 352.827 605.842 351.727C605.842 350.634 606.007 349.642 606.339 348.75C606.67 347.851 607.136 347.087 607.738 346.456C608.34 345.819 609.06 345.326 609.898 344.978C610.736 344.629 611.662 344.455 612.676 344.455C613.69 344.455 614.616 344.629 615.454 344.978C616.299 345.32 617.023 345.809 617.624 346.446C618.226 347.083 618.693 347.851 619.024 348.75C619.355 349.642 619.521 350.634 619.521 351.727ZM618.446 351.727C618.446 350.735 618.307 349.843 618.03 349.052C617.753 348.26 617.361 347.59 616.854 347.04C616.347 346.49 615.738 346.071 615.029 345.782C614.319 345.487 613.535 345.34 612.676 345.34C611.824 345.34 611.044 345.487 610.334 345.782C609.624 346.071 609.012 346.49 608.498 347.04C607.991 347.59 607.596 348.26 607.312 349.052C607.035 349.843 606.896 350.735 606.896 351.727C606.896 352.727 607.035 353.622 607.312 354.413C607.596 355.198 607.991 355.865 608.498 356.415C609.012 356.965 609.624 357.384 610.334 357.672C611.044 357.961 611.824 358.105 612.676 358.105C613.535 358.105 614.319 357.961 615.029 357.672C615.738 357.384 616.347 356.965 616.854 356.415C617.361 355.865 617.753 355.198 618.03 354.413C618.307 353.622 618.446 352.727 618.446 351.727Z" fill="white"/>
<path d="M626.933 352.291C627.562 352.291 628.126 352.203 628.627 352.029C629.127 351.855 629.549 351.613 629.894 351.305C630.246 350.996 630.513 350.634 630.695 350.218C630.884 349.796 630.979 349.337 630.979 348.84C630.979 347.747 630.641 346.906 629.965 346.316C629.289 345.725 628.278 345.43 626.933 345.43H624.266V352.291H626.933ZM626.933 344.616C628.616 344.616 629.884 344.981 630.736 345.712C631.594 346.443 632.023 347.486 632.023 348.84C632.023 349.464 631.905 350.037 631.669 350.56C631.432 351.084 631.094 351.536 630.655 351.918C630.215 352.294 629.681 352.589 629.052 352.804C628.424 353.012 627.717 353.115 626.933 353.115H624.266V358.849H623.222V344.616H626.933Z" fill="white"/>
<path d="M643.971 357.994L643.951 358.849H635.352V344.616H643.951V345.471H636.396V351.224H642.683V352.059H636.396V357.994H643.971Z" fill="white"/>
<path d="M651.05 351.647C651.686 351.647 652.253 351.573 652.754 351.426C653.261 351.271 653.686 351.053 654.031 350.772C654.383 350.49 654.65 350.151 654.832 349.756C655.015 349.36 655.106 348.914 655.106 348.418C655.106 347.405 654.771 346.654 654.102 346.165C653.44 345.675 652.47 345.43 651.192 345.43H648.566V351.647H651.05ZM657.418 358.849H656.526C656.411 358.849 656.313 358.832 656.232 358.799C656.157 358.759 656.086 358.688 656.019 358.588L651.415 352.814C651.361 352.74 651.304 352.676 651.243 352.623C651.189 352.569 651.124 352.529 651.05 352.502C650.982 352.468 650.898 352.445 650.797 352.431C650.702 352.418 650.584 352.411 650.442 352.411H648.566V358.849H647.521V344.616H651.192C652.841 344.616 654.075 344.934 654.893 345.571C655.718 346.202 656.13 347.13 656.13 348.358C656.13 348.901 656.036 349.397 655.846 349.846C655.657 350.296 655.383 350.691 655.025 351.033C654.673 351.369 654.244 351.643 653.737 351.858C653.237 352.073 652.672 352.217 652.044 352.291C652.206 352.391 652.351 352.525 652.48 352.693L657.418 358.849Z" fill="white"/>
<path d="M668.98 345.491H663.94V358.849H662.896V345.491H657.826V344.616H668.98V345.491Z" fill="white"/>
<path d="M676.232 352.985V358.849H675.198V352.985L669.885 344.616H670.797C670.892 344.616 670.969 344.639 671.03 344.686C671.091 344.726 671.142 344.787 671.182 344.867L675.289 351.405C675.377 351.56 675.458 351.711 675.532 351.858C675.607 351.999 675.671 352.14 675.725 352.281C675.779 352.14 675.84 351.999 675.908 351.858C675.975 351.711 676.053 351.56 676.141 351.405L680.248 344.867C680.281 344.793 680.329 344.733 680.389 344.686C680.457 344.639 680.538 344.616 680.633 344.616H681.545L676.232 352.985Z" fill="white"/>
<defs>
<clipPath id="clip0">
<rect width="106.595" height="18.1818" fill="white" transform="translate(582 319)"/>
</clipPath>
</defs>
</svg>
