<svg width="1204" height="678" viewBox="0 0 1204 678" fill="none" xmlns="http://www.w3.org/2000/svg">
<rect width="1204" height="677.25" fill="white"/>
<g clip-path="url(#clip0)">
<path fill-rule="evenodd" clip-rule="evenodd" d="M513.049 324.161C511.084 324.161 509.883 325.197 509.883 327.314V344.344H509.79L498.282 325.864C497.565 324.667 496.364 324.138 495 324.138C492.204 324.138 490.864 325.266 490.864 327.958V350.742C490.864 352.859 492.065 353.895 494.03 353.895C495.994 353.895 497.196 352.859 497.196 350.742V334.195H497.265L508.681 352.146C509.513 353.458 510.206 353.895 512.286 353.895C515.059 353.895 516.168 352.422 516.168 349.822V327.291C516.215 325.197 515.013 324.161 513.049 324.161Z" fill="#41A5DD"/>
<path fill-rule="evenodd" clip-rule="evenodd" d="M538.446 324.161C537.082 324.161 536.366 324.644 535.603 326.071L529.919 336.566L524.187 326.071C523.517 324.806 522.778 324.161 521.229 324.161C519.958 324.161 517.902 324.921 517.902 327.153C517.902 327.751 518.133 328.35 518.456 328.879L526.498 342.204V350.673C526.498 352.629 527.769 353.941 529.78 353.941C531.79 353.941 533.061 352.629 533.061 350.673V342.204L541.103 328.879C541.427 328.35 541.658 327.751 541.658 327.153C541.681 324.921 539.647 324.161 538.446 324.161Z" fill="#41A5DD"/>
<path fill-rule="evenodd" clip-rule="evenodd" d="M567.656 327.084C567.656 324.898 565.969 324.161 564.328 324.161C562.803 324.161 561.856 325.082 561.255 327.038L555.085 346.577H555.015L549.076 327.038C548.475 325.082 547.505 324.161 545.748 324.161C544.108 324.161 542.421 324.875 542.421 327.084C542.421 327.613 542.536 328.235 542.813 328.994L550.902 351.662C551.572 353.527 552.866 353.941 554.9 353.941C556.933 353.941 558.227 353.55 558.897 351.662L567.24 328.994C567.54 328.235 567.656 327.59 567.656 327.084Z" fill="#41A5DD"/>
<path fill-rule="evenodd" clip-rule="evenodd" d="M580.32 326.555C579.603 324.529 578.286 324.161 576.784 324.161H575.213C573.618 324.161 572.578 324.69 572.001 326.163L563.496 348.556C563.265 349.2 562.849 350.351 562.849 351.064C562.849 352.813 564.097 353.941 565.9 353.941C567.471 353.941 568.372 353.411 568.835 352.146L570.568 347.359H581.152L582.839 352.146C583.324 353.411 584.364 353.941 585.797 353.941C587.484 353.941 588.893 352.675 588.893 351.064C588.893 350.351 588.501 349.2 588.246 348.556L580.32 326.555ZM572.024 342.802L575.906 331.272H575.975L579.696 342.802H572.024Z" fill="#41A5DD"/>
<path fill-rule="evenodd" clip-rule="evenodd" d="M612.719 324.161C610.755 324.161 609.553 325.197 609.553 327.314V344.344H609.484L597.976 325.864C597.259 324.667 596.057 324.138 594.694 324.138C591.898 324.138 590.557 325.266 590.557 327.958V350.742C590.557 352.859 591.759 353.895 593.723 353.895C595.688 353.895 596.889 352.859 596.889 350.742V334.195H596.959L608.375 352.146C609.207 353.458 609.9 353.895 611.98 353.895C614.753 353.895 615.862 352.422 615.862 349.822V327.291C615.885 325.197 614.684 324.161 612.719 324.161Z" fill="#41A5DD"/>
<path d="M454.258 351.938C456.173 351.938 457.725 350.393 457.725 348.486C457.725 346.58 456.173 345.034 454.258 345.034C452.344 345.034 450.792 346.58 450.792 348.486C450.792 350.393 452.344 351.938 454.258 351.938Z" fill="#41A5DD"/>
<path fill-rule="evenodd" clip-rule="evenodd" d="M481.435 326.555C480.719 324.529 479.401 324.161 477.899 324.161H476.328C476.189 324.161 476.051 324.161 475.912 324.184H443.744C441.71 324.184 440.046 325.841 440.046 327.866V350.259C440.046 352.284 441.71 353.941 443.744 353.941H466.992V353.918H467.061C468.633 353.918 469.534 353.389 469.996 352.123L471.729 347.336H482.313L484 352.123C484.485 353.389 485.525 353.918 486.958 353.918C488.645 353.918 490.032 352.652 490.032 351.041C490.032 350.328 489.639 349.177 489.385 348.533L481.435 326.555ZM454.258 352.721C451.924 352.721 450.006 350.834 450.006 348.487C450.006 346.162 451.901 344.252 454.258 344.252C456.592 344.252 458.511 346.139 458.511 348.487C458.487 350.834 456.592 352.721 454.258 352.721ZM463.248 348.809H459.343C459.343 347.98 458.996 343.378 454.143 343.378C449.29 343.378 449.082 348.855 449.082 348.855H448.042C448.042 348.855 445.015 347.635 444.391 347.313C443.767 346.968 443.697 345.265 443.697 345.265V343.769H444.229V342.25C444.483 339.028 452.41 336.128 452.41 336.128C452.41 336.128 459.065 329.592 460.105 328.672C462.347 326.716 471.429 327.153 471.429 327.153L463.248 348.809ZM473.139 342.802L477.021 331.272H477.09L480.811 342.802H473.139Z" fill="#41A5DD"/>
<path fill-rule="evenodd" clip-rule="evenodd" d="M449.59 340.018C449.313 339.949 448.296 339.949 447.857 339.926C447.718 339.926 447.58 339.972 447.487 340.064C447.279 340.225 446.956 340.547 446.655 340.938C446.309 341.399 446.055 341.974 445.893 342.342C445.777 342.641 446.101 342.664 446.101 342.664L446.863 342.826C446.956 342.849 447.048 342.826 447.118 342.756L449.66 340.547C449.637 340.547 450.006 340.11 449.59 340.018Z" fill="#41A5DD"/>
<path fill-rule="evenodd" clip-rule="evenodd" d="M466.761 329.086C466.414 329.086 463.202 329.431 462.578 329.546C461.954 329.661 461.029 330.375 461.029 330.375L457.078 334.724V337.049L465.443 335.438C465.443 335.438 466.529 335.231 466.691 333.85C466.853 332.469 467.2 329.523 467.2 329.523C467.2 329.523 467.107 329.086 466.761 329.086Z" fill="#41A5DD"/>
</g>
<path d="M653.593 340.162C654.88 340.162 656.035 339.982 657.058 339.622C658.082 339.263 658.946 338.765 659.651 338.129C660.371 337.492 660.917 336.746 661.29 335.888C661.678 335.017 661.871 334.069 661.871 333.046C661.871 330.791 661.18 329.055 659.797 327.838C658.414 326.621 656.346 326.012 653.593 326.012H648.137V340.162H653.593ZM653.593 324.332C657.037 324.332 659.631 325.086 661.373 326.593C663.13 328.101 664.008 330.252 664.008 333.046C664.008 334.332 663.766 335.515 663.282 336.593C662.798 337.672 662.107 338.606 661.207 339.394C660.308 340.169 659.216 340.777 657.929 341.22C656.643 341.649 655.198 341.863 653.593 341.863H648.137V353.689H646V324.332H653.593Z" fill="#41A5DD"/>
<path d="M678.038 338.834C679.339 338.834 680.5 338.682 681.524 338.378C682.561 338.059 683.433 337.61 684.138 337.029C684.857 336.448 685.404 335.75 685.777 334.934C686.15 334.118 686.337 333.198 686.337 332.174C686.337 330.086 685.652 328.537 684.283 327.527C682.928 326.517 680.943 326.012 678.329 326.012H672.955V338.834H678.038ZM691.067 353.689H689.242C689.007 353.689 688.806 353.654 688.64 353.585C688.488 353.502 688.343 353.357 688.204 353.149L678.785 341.241C678.675 341.089 678.557 340.957 678.433 340.846C678.322 340.736 678.191 340.653 678.038 340.598C677.9 340.528 677.727 340.48 677.52 340.452C677.326 340.425 677.084 340.411 676.794 340.411H672.955V353.689H670.818V324.332H678.329C681.704 324.332 684.228 324.989 685.901 326.303C687.589 327.603 688.433 329.519 688.433 332.05C688.433 333.17 688.239 334.194 687.852 335.12C687.464 336.047 686.904 336.863 686.171 337.568C685.452 338.26 684.574 338.827 683.536 339.27C682.513 339.712 681.358 340.01 680.072 340.162C680.404 340.369 680.701 340.646 680.964 340.992L691.067 353.689Z" fill="#41A5DD"/>
<path d="M722.769 339C722.769 341.268 722.43 343.329 721.753 345.183C721.075 347.022 720.121 348.599 718.89 349.913C717.659 351.213 716.179 352.223 714.45 352.942C712.735 353.647 710.84 354 708.765 354C706.69 354 704.796 353.647 703.081 352.942C701.365 352.223 699.892 351.213 698.661 349.913C697.43 348.599 696.476 347.022 695.798 345.183C695.121 343.329 694.782 341.268 694.782 339C694.782 336.746 695.121 334.698 695.798 332.859C696.476 331.006 697.43 329.429 698.661 328.129C699.892 326.815 701.365 325.798 703.081 325.079C704.796 324.36 706.69 324 708.765 324C710.84 324 712.735 324.36 714.45 325.079C716.179 325.784 717.659 326.794 718.89 328.108C720.121 329.422 721.075 331.006 721.753 332.859C722.43 334.698 722.769 336.746 722.769 339ZM720.57 339C720.57 336.953 720.287 335.113 719.72 333.481C719.152 331.849 718.35 330.466 717.313 329.332C716.276 328.198 715.031 327.333 713.578 326.739C712.126 326.13 710.522 325.826 708.765 325.826C707.022 325.826 705.425 326.13 703.973 326.739C702.52 327.333 701.269 328.198 700.217 329.332C699.18 330.466 698.371 331.849 697.79 333.481C697.223 335.113 696.939 336.953 696.939 339C696.939 341.061 697.223 342.907 697.79 344.539C698.371 346.158 699.18 347.534 700.217 348.668C701.269 349.802 702.52 350.667 703.973 351.261C705.425 351.856 707.022 352.154 708.765 352.154C710.522 352.154 712.126 351.856 713.578 351.261C715.031 350.667 716.276 349.802 717.313 348.668C718.35 347.534 719.152 346.158 719.72 344.539C720.287 342.907 720.57 341.061 720.57 339Z" fill="#41A5DD"/>
<path d="M737.936 340.162C739.222 340.162 740.377 339.982 741.401 339.622C742.424 339.263 743.289 338.765 743.994 338.129C744.713 337.492 745.26 336.746 745.633 335.888C746.02 335.017 746.214 334.069 746.214 333.046C746.214 330.791 745.522 329.055 744.139 327.838C742.756 326.621 740.688 326.012 737.936 326.012H732.48V340.162H737.936ZM737.936 324.332C741.38 324.332 743.973 325.086 745.716 326.593C747.473 328.101 748.351 330.252 748.351 333.046C748.351 334.332 748.109 335.515 747.625 336.593C747.141 337.672 746.449 338.606 745.55 339.394C744.651 340.169 743.558 340.777 742.272 341.22C740.986 341.649 739.54 341.863 737.936 341.863H732.48V353.689H730.343V324.332H737.936Z" fill="#41A5DD"/>
<path d="M772.796 351.925L772.754 353.689H755.161V324.332H772.754V326.095H757.298V337.963H770.161V339.685H757.298V351.925H772.796Z" fill="#41A5DD"/>
<path d="M787.28 338.834C788.581 338.834 789.742 338.682 790.766 338.378C791.803 338.059 792.675 337.61 793.38 337.029C794.099 336.448 794.646 335.75 795.019 334.934C795.393 334.118 795.579 333.198 795.579 332.174C795.579 330.086 794.895 328.537 793.525 327.527C792.17 326.517 790.185 326.012 787.571 326.012H782.197V338.834H787.28ZM800.31 353.689H798.484C798.249 353.689 798.048 353.654 797.882 353.585C797.73 353.502 797.585 353.357 797.446 353.149L788.027 341.241C787.917 341.089 787.799 340.957 787.675 340.846C787.564 340.736 787.433 340.653 787.28 340.598C787.142 340.528 786.969 340.48 786.762 340.452C786.568 340.425 786.326 340.411 786.036 340.411H782.197V353.689H780.061V324.332H787.571C790.946 324.332 793.47 324.989 795.144 326.303C796.831 327.603 797.675 329.519 797.675 332.05C797.675 333.17 797.481 334.194 797.094 335.12C796.706 336.047 796.146 336.863 795.413 337.568C794.694 338.26 793.816 338.827 792.778 339.27C791.755 339.712 790.6 340.01 789.314 340.162C789.646 340.369 789.943 340.646 790.206 340.992L800.31 353.689Z" fill="#41A5DD"/>
<path d="M823.966 326.137H813.655V353.689H811.518V326.137H801.145V324.332H823.966V326.137Z" fill="#41A5DD"/>
<path d="M838.804 341.593V353.689H836.688V341.593L825.817 324.332H827.684C827.878 324.332 828.037 324.38 828.161 324.477C828.286 324.56 828.389 324.685 828.472 324.851L836.875 338.336C837.055 338.654 837.221 338.965 837.373 339.27C837.525 339.56 837.656 339.851 837.767 340.141C837.878 339.851 838.002 339.56 838.141 339.27C838.279 338.965 838.438 338.654 838.618 338.336L847.02 324.851C847.089 324.698 847.186 324.574 847.311 324.477C847.449 324.38 847.615 324.332 847.809 324.332H849.676L838.804 341.593Z" fill="#41A5DD"/>
<line x1="430" y1="354.5" x2="416" y2="354.5" stroke="black"/>
<line x1="430" y1="324.5" x2="416" y2="324.5" stroke="black"/>
<line x1="416.5" y1="324" x2="416.5" y2="354" stroke="black"/>
<path d="M373.91 337.685C373.975 337.228 374.101 336.824 374.288 336.474C374.475 336.119 374.71 335.823 374.995 335.585C375.284 335.347 375.613 335.167 375.982 335.046C376.355 334.92 376.757 334.857 377.186 334.857C377.611 334.857 378.003 334.918 378.362 335.039C378.721 335.16 379.029 335.333 379.286 335.557C379.547 335.781 379.75 336.052 379.895 336.369C380.04 336.686 380.112 337.039 380.112 337.426C380.112 337.743 380.07 338.028 379.986 338.28C379.907 338.527 379.79 338.744 379.636 338.931C379.487 339.118 379.305 339.276 379.09 339.407C378.875 339.538 378.635 339.645 378.369 339.729C379.022 339.897 379.512 340.186 379.839 340.597C380.17 341.003 380.336 341.512 380.336 342.123C380.336 342.585 380.247 343 380.07 343.369C379.897 343.738 379.659 344.053 379.356 344.314C379.053 344.571 378.698 344.769 378.292 344.909C377.891 345.044 377.459 345.112 376.997 345.112C376.465 345.112 376.01 345.047 375.632 344.916C375.254 344.781 374.934 344.596 374.673 344.363C374.412 344.13 374.197 343.854 374.029 343.537C373.861 343.215 373.719 342.867 373.602 342.494L374.141 342.27C374.281 342.209 374.416 342.193 374.547 342.221C374.682 342.249 374.78 342.326 374.841 342.452C374.902 342.583 374.976 342.739 375.065 342.921C375.158 343.103 375.284 343.278 375.443 343.446C375.602 343.614 375.802 343.756 376.045 343.873C376.292 343.99 376.605 344.048 376.983 344.048C377.333 344.048 377.639 343.992 377.9 343.88C378.166 343.763 378.385 343.614 378.558 343.432C378.735 343.25 378.868 343.047 378.957 342.823C379.046 342.599 379.09 342.377 379.09 342.158C379.09 341.887 379.055 341.64 378.985 341.416C378.915 341.192 378.784 340.998 378.593 340.835C378.402 340.672 378.138 340.543 377.802 340.45C377.471 340.357 377.044 340.31 376.521 340.31V339.407C376.95 339.402 377.314 339.356 377.613 339.267C377.916 339.178 378.161 339.057 378.348 338.903C378.539 338.749 378.677 338.565 378.761 338.35C378.85 338.135 378.894 337.897 378.894 337.636C378.894 337.347 378.847 337.095 378.754 336.88C378.665 336.665 378.542 336.488 378.383 336.348C378.224 336.208 378.035 336.103 377.816 336.033C377.601 335.963 377.368 335.928 377.116 335.928C376.864 335.928 376.628 335.965 376.409 336.04C376.194 336.115 376.003 336.22 375.835 336.355C375.672 336.486 375.534 336.642 375.422 336.824C375.31 337.006 375.231 337.207 375.184 337.426C375.123 337.589 375.046 337.699 374.953 337.755C374.864 337.806 374.734 337.82 374.561 337.797L373.91 337.685ZM389.121 339.988C389.121 340.865 389.025 341.626 388.834 342.27C388.647 342.909 388.391 343.439 388.064 343.859C387.737 344.279 387.35 344.592 386.902 344.797C386.459 345.002 385.983 345.105 385.474 345.105C384.961 345.105 384.482 345.002 384.039 344.797C383.6 344.592 383.218 344.279 382.891 343.859C382.564 343.439 382.308 342.909 382.121 342.27C381.934 341.626 381.841 340.865 381.841 339.988C381.841 339.111 381.934 338.35 382.121 337.706C382.308 337.062 382.564 336.53 382.891 336.11C383.218 335.685 383.6 335.37 384.039 335.165C384.482 334.96 384.961 334.857 385.474 334.857C385.983 334.857 386.459 334.96 386.902 335.165C387.35 335.37 387.737 335.685 388.064 336.11C388.391 336.53 388.647 337.062 388.834 337.706C389.025 338.35 389.121 339.111 389.121 339.988ZM387.826 339.988C387.826 339.223 387.761 338.581 387.63 338.063C387.504 337.54 387.331 337.12 387.112 336.803C386.897 336.486 386.648 336.259 386.363 336.124C386.078 335.984 385.782 335.914 385.474 335.914C385.166 335.914 384.87 335.984 384.585 336.124C384.3 336.259 384.051 336.486 383.836 336.803C383.621 337.12 383.449 337.54 383.318 338.063C383.192 338.581 383.129 339.223 383.129 339.988C383.129 340.753 383.192 341.395 383.318 341.913C383.449 342.431 383.621 342.849 383.836 343.166C384.051 343.483 384.3 343.712 384.585 343.852C384.87 343.987 385.166 344.055 385.474 344.055C385.782 344.055 386.078 343.987 386.363 343.852C386.648 343.712 386.897 343.483 387.112 343.166C387.331 342.849 387.504 342.431 387.63 341.913C387.761 341.395 387.826 340.753 387.826 339.988ZM392.082 343.292C392.311 343.6 392.561 343.817 392.831 343.943C393.102 344.069 393.405 344.132 393.741 344.132C394.404 344.132 394.913 343.896 395.267 343.425C395.622 342.954 395.799 342.282 395.799 341.409C395.799 340.947 395.757 340.55 395.673 340.219C395.594 339.888 395.477 339.617 395.323 339.407C395.169 339.192 394.98 339.036 394.756 338.938C394.532 338.84 394.278 338.791 393.993 338.791C393.587 338.791 393.23 338.884 392.922 339.071C392.619 339.258 392.339 339.521 392.082 339.862V343.292ZM392.019 339.008C392.318 338.639 392.663 338.343 393.055 338.119C393.447 337.895 393.895 337.783 394.399 337.783C394.81 337.783 395.181 337.862 395.512 338.021C395.844 338.175 396.126 338.406 396.359 338.714C396.593 339.017 396.772 339.395 396.898 339.848C397.024 340.301 397.087 340.821 397.087 341.409C397.087 341.932 397.017 342.419 396.877 342.872C396.737 343.32 396.534 343.71 396.268 344.041C396.007 344.368 395.685 344.627 395.302 344.818C394.924 345.005 394.497 345.098 394.021 345.098C393.587 345.098 393.214 345.026 392.901 344.881C392.593 344.732 392.32 344.526 392.082 344.265V347.401H390.829V337.909H391.578C391.756 337.909 391.865 337.995 391.907 338.168L392.019 339.008ZM404.527 345H403.33C403.228 345 403.146 344.974 403.085 344.923C403.029 344.867 402.983 344.806 402.945 344.741L401.16 341.962C401.142 342.027 401.121 342.093 401.097 342.158C401.079 342.219 401.051 342.275 401.013 342.326L399.361 344.741C399.315 344.806 399.263 344.867 399.207 344.923C399.156 344.974 399.084 345 398.99 345H397.877L400.362 341.36L397.975 337.909H399.172C399.275 337.909 399.35 337.925 399.396 337.958C399.443 337.991 399.485 338.037 399.522 338.098L401.265 340.758C401.303 340.623 401.361 340.492 401.44 340.366L402.966 338.126C403.008 338.061 403.053 338.009 403.099 337.972C403.151 337.93 403.211 337.909 403.281 337.909H404.429L402.042 341.297L404.527 345Z" fill="black"/>
<defs>
<clipPath id="clip0">
<rect width="175.863" height="29.9967" fill="white" transform="translate(440 324)"/>
</clipPath>
</defs>
</svg>
