<svg width="1204" height="678" viewBox="0 0 1204 678" fill="none" xmlns="http://www.w3.org/2000/svg">
<rect width="1204" height="677.25" fill="white"/>
<line x1="546" y1="369.5" x2="532" y2="369.5" stroke="black"/>
<line x1="546" y1="309.5" x2="532" y2="309.5" stroke="black"/>
<line x1="532.5" y1="309" x2="532.5" y2="369" stroke="black"/>
<path d="M493.046 344.076C493.382 344.076 493.685 344.022 493.956 343.915C494.231 343.808 494.465 343.658 494.656 343.467C494.852 343.276 495.001 343.049 495.104 342.788C495.211 342.527 495.265 342.242 495.265 341.934C495.265 341.607 495.214 341.313 495.111 341.052C495.008 340.786 494.861 340.562 494.67 340.38C494.483 340.193 494.259 340.051 493.998 339.953C493.737 339.855 493.45 339.806 493.137 339.806C492.801 339.806 492.498 339.864 492.227 339.981C491.956 340.093 491.725 340.247 491.534 340.443C491.347 340.634 491.203 340.858 491.1 341.115C491.002 341.367 490.953 341.631 490.953 341.906C490.953 342.228 491 342.522 491.093 342.788C491.186 343.054 491.322 343.283 491.499 343.474C491.681 343.665 491.9 343.815 492.157 343.922C492.418 344.025 492.715 344.076 493.046 344.076ZM492.318 338.728C492.229 338.84 492.143 338.95 492.059 339.057C491.98 339.16 491.903 339.262 491.828 339.365C492.066 339.202 492.327 339.076 492.612 338.987C492.897 338.898 493.207 338.854 493.543 338.854C493.949 338.854 494.332 338.922 494.691 339.057C495.05 339.188 495.363 339.381 495.629 339.638C495.9 339.89 496.114 340.203 496.273 340.576C496.432 340.945 496.511 341.367 496.511 341.843C496.511 342.305 496.427 342.734 496.259 343.131C496.091 343.528 495.855 343.873 495.552 344.167C495.253 344.461 494.892 344.692 494.467 344.86C494.047 345.028 493.583 345.112 493.074 345.112C492.57 345.112 492.113 345.033 491.702 344.874C491.291 344.711 490.941 344.482 490.652 344.188C490.367 343.889 490.146 343.53 489.987 343.11C489.833 342.685 489.756 342.212 489.756 341.689C489.756 341.25 489.852 340.784 490.043 340.289C490.239 339.79 490.549 339.258 490.974 338.693L493.522 335.27C493.587 335.186 493.676 335.116 493.788 335.06C493.905 334.999 494.038 334.969 494.187 334.969H495.293L492.318 338.728ZM505.121 339.988C505.121 340.865 505.025 341.626 504.834 342.27C504.647 342.909 504.391 343.439 504.064 343.859C503.737 344.279 503.35 344.592 502.902 344.797C502.459 345.002 501.983 345.105 501.474 345.105C500.961 345.105 500.482 345.002 500.039 344.797C499.6 344.592 499.218 344.279 498.891 343.859C498.564 343.439 498.308 342.909 498.121 342.27C497.934 341.626 497.841 340.865 497.841 339.988C497.841 339.111 497.934 338.35 498.121 337.706C498.308 337.062 498.564 336.53 498.891 336.11C499.218 335.685 499.6 335.37 500.039 335.165C500.482 334.96 500.961 334.857 501.474 334.857C501.983 334.857 502.459 334.96 502.902 335.165C503.35 335.37 503.737 335.685 504.064 336.11C504.391 336.53 504.647 337.062 504.834 337.706C505.025 338.35 505.121 339.111 505.121 339.988ZM503.826 339.988C503.826 339.223 503.761 338.581 503.63 338.063C503.504 337.54 503.331 337.12 503.112 336.803C502.897 336.486 502.648 336.259 502.363 336.124C502.078 335.984 501.782 335.914 501.474 335.914C501.166 335.914 500.87 335.984 500.585 336.124C500.3 336.259 500.051 336.486 499.836 336.803C499.621 337.12 499.449 337.54 499.318 338.063C499.192 338.581 499.129 339.223 499.129 339.988C499.129 340.753 499.192 341.395 499.318 341.913C499.449 342.431 499.621 342.849 499.836 343.166C500.051 343.483 500.3 343.712 500.585 343.852C500.87 343.987 501.166 344.055 501.474 344.055C501.782 344.055 502.078 343.987 502.363 343.852C502.648 343.712 502.897 343.483 503.112 343.166C503.331 342.849 503.504 342.431 503.63 341.913C503.761 341.395 503.826 340.753 503.826 339.988ZM508.082 343.292C508.311 343.6 508.561 343.817 508.831 343.943C509.102 344.069 509.405 344.132 509.741 344.132C510.404 344.132 510.913 343.896 511.267 343.425C511.622 342.954 511.799 342.282 511.799 341.409C511.799 340.947 511.757 340.55 511.673 340.219C511.594 339.888 511.477 339.617 511.323 339.407C511.169 339.192 510.98 339.036 510.756 338.938C510.532 338.84 510.278 338.791 509.993 338.791C509.587 338.791 509.23 338.884 508.922 339.071C508.619 339.258 508.339 339.521 508.082 339.862V343.292ZM508.019 339.008C508.318 338.639 508.663 338.343 509.055 338.119C509.447 337.895 509.895 337.783 510.399 337.783C510.81 337.783 511.181 337.862 511.512 338.021C511.844 338.175 512.126 338.406 512.359 338.714C512.593 339.017 512.772 339.395 512.898 339.848C513.024 340.301 513.087 340.821 513.087 341.409C513.087 341.932 513.017 342.419 512.877 342.872C512.737 343.32 512.534 343.71 512.268 344.041C512.007 344.368 511.685 344.627 511.302 344.818C510.924 345.005 510.497 345.098 510.021 345.098C509.587 345.098 509.214 345.026 508.901 344.881C508.593 344.732 508.32 344.526 508.082 344.265V347.401H506.829V337.909H507.578C507.756 337.909 507.865 337.995 507.907 338.168L508.019 339.008ZM520.527 345H519.33C519.228 345 519.146 344.974 519.085 344.923C519.029 344.867 518.983 344.806 518.945 344.741L517.16 341.962C517.142 342.027 517.121 342.093 517.097 342.158C517.079 342.219 517.051 342.275 517.013 342.326L515.361 344.741C515.315 344.806 515.263 344.867 515.207 344.923C515.156 344.974 515.084 345 514.99 345H513.877L516.362 341.36L513.975 337.909H515.172C515.275 337.909 515.35 337.925 515.396 337.958C515.443 337.991 515.485 338.037 515.522 338.098L517.265 340.758C517.303 340.623 517.361 340.492 517.44 340.366L518.966 338.126C519.008 338.061 519.053 338.009 519.099 337.972C519.151 337.93 519.211 337.909 519.281 337.909H520.429L518.042 341.297L520.527 345Z" fill="black"/>
<g clip-path="url(#clip0)">
<path fill-rule="evenodd" clip-rule="evenodd" d="M622.415 309.146C620.629 309.146 619.537 310.088 619.537 312.013V327.497H619.453L608.989 310.695C608.338 309.607 607.245 309.125 606.006 309.125C603.463 309.125 602.245 310.151 602.245 312.599V333.313C602.245 335.238 603.337 336.18 605.123 336.18C606.909 336.18 608.002 335.238 608.002 333.313V318.269H608.065L618.444 334.59C619.201 335.782 619.831 336.18 621.722 336.18C624.243 336.18 625.252 334.841 625.252 332.477V311.992C625.294 310.088 624.201 309.146 622.415 309.146Z" fill="#41A5DD"/>
<path fill-rule="evenodd" clip-rule="evenodd" d="M645.506 309.146C644.266 309.146 643.615 309.586 642.922 310.883L637.753 320.424L632.542 310.883C631.933 309.732 631.261 309.146 629.853 309.146C628.697 309.146 626.827 309.837 626.827 311.867C626.827 312.411 627.038 312.955 627.332 313.436L634.643 325.551V333.251C634.643 335.029 635.799 336.222 637.627 336.222C639.455 336.222 640.611 335.029 640.611 333.251V325.551L647.922 313.436C648.216 312.955 648.427 312.411 648.427 311.867C648.448 309.837 646.599 309.146 645.506 309.146Z" fill="#41A5DD"/>
<path fill-rule="evenodd" clip-rule="evenodd" d="M672.064 311.804C672.064 309.816 670.53 309.146 669.038 309.146C667.651 309.146 666.79 309.983 666.244 311.762L660.634 329.526H660.571L655.171 311.762C654.625 309.983 653.742 309.146 652.145 309.146C650.654 309.146 649.12 309.795 649.12 311.804C649.12 312.285 649.225 312.85 649.477 313.54L656.831 334.15C657.44 335.845 658.617 336.222 660.466 336.222C662.315 336.222 663.491 335.866 664.101 334.15L671.686 313.54C671.959 312.85 672.064 312.264 672.064 311.804Z" fill="#41A5DD"/>
<path fill-rule="evenodd" clip-rule="evenodd" d="M683.578 311.323C682.926 309.481 681.729 309.146 680.363 309.146H678.934C677.485 309.146 676.539 309.628 676.014 310.967L668.282 331.326C668.072 331.912 667.693 332.958 667.693 333.606C667.693 335.197 668.828 336.222 670.467 336.222C671.896 336.222 672.715 335.741 673.135 334.59L674.711 330.238H684.334L685.868 334.59C686.309 335.741 687.255 336.222 688.557 336.222C690.091 336.222 691.373 335.071 691.373 333.606C691.373 332.958 691.016 331.912 690.784 331.326L683.578 311.323ZM676.035 326.095L679.565 315.612H679.628L683.01 326.095H676.035Z" fill="#41A5DD"/>
<path fill-rule="evenodd" clip-rule="evenodd" d="M713.035 309.146C711.249 309.146 710.156 310.088 710.156 312.013V327.497H710.093L699.63 310.695C698.979 309.607 697.886 309.125 696.646 309.125C694.104 309.125 692.885 310.151 692.885 312.599V333.313C692.885 335.238 693.978 336.18 695.764 336.18C697.55 336.18 698.642 335.238 698.642 333.313V318.269H698.705L709.085 334.59C709.841 335.782 710.471 336.18 712.362 336.18C714.884 336.18 715.892 334.841 715.892 332.477V311.992C715.913 310.088 714.821 309.146 713.035 309.146Z" fill="#41A5DD"/>
<path d="M568.964 334.401C570.704 334.401 572.115 332.996 572.115 331.263C572.115 329.529 570.704 328.124 568.964 328.124C567.223 328.124 565.812 329.529 565.812 331.263C565.812 332.996 567.223 334.401 568.964 334.401Z" fill="#41A5DD"/>
<path fill-rule="evenodd" clip-rule="evenodd" d="M593.672 311.323C593.021 309.481 591.823 309.146 590.458 309.146H589.029C588.903 309.146 588.777 309.146 588.651 309.167H559.404C557.555 309.167 556.042 310.674 556.042 312.515V332.874C556.042 334.716 557.555 336.222 559.404 336.222H580.541V336.201H580.604C582.032 336.201 582.852 335.72 583.272 334.569L584.848 330.217H594.471L596.005 334.569C596.446 335.72 597.391 336.201 598.694 336.201C600.228 336.201 601.488 335.05 601.488 333.586C601.488 332.937 601.131 331.891 600.9 331.305L593.672 311.323ZM568.964 335.113C566.842 335.113 565.098 333.397 565.098 331.263C565.098 329.15 566.821 327.413 568.964 327.413C571.086 327.413 572.83 329.129 572.83 331.263C572.809 333.397 571.086 335.113 568.964 335.113ZM577.137 331.556H573.586C573.586 330.803 573.271 326.618 568.859 326.618C564.446 326.618 564.257 331.598 564.257 331.598H563.312C563.312 331.598 560.559 330.489 559.992 330.196C559.425 329.882 559.362 328.334 559.362 328.334V326.974H559.845V325.593C560.076 322.663 567.283 320.027 567.283 320.027C567.283 320.027 573.334 314.085 574.279 313.248C576.317 311.469 584.575 311.867 584.575 311.867L577.137 331.556ZM586.129 326.095L589.659 315.612H589.722L593.105 326.095H586.129Z" fill="#41A5DD"/>
<path fill-rule="evenodd" clip-rule="evenodd" d="M564.719 323.563C564.467 323.5 563.543 323.5 563.144 323.479C563.018 323.479 562.892 323.521 562.808 323.605C562.618 323.751 562.324 324.044 562.051 324.4C561.736 324.818 561.505 325.341 561.358 325.676C561.253 325.948 561.547 325.969 561.547 325.969L562.24 326.116C562.324 326.137 562.408 326.116 562.471 326.053L564.783 324.044C564.761 324.044 565.098 323.647 564.719 323.563Z" fill="#41A5DD"/>
<path fill-rule="evenodd" clip-rule="evenodd" d="M580.33 313.624C580.015 313.624 577.095 313.938 576.528 314.043C575.96 314.147 575.12 314.796 575.12 314.796L571.527 318.751V320.864L579.133 319.399C579.133 319.399 580.12 319.211 580.268 317.955C580.415 316.7 580.73 314.022 580.73 314.022C580.73 314.022 580.646 313.624 580.33 313.624Z" fill="#41A5DD"/>
</g>
<path d="M561.567 358.936C562.51 358.936 563.357 358.805 564.107 358.544C564.857 358.282 565.491 357.92 566.008 357.457C566.535 356.995 566.936 356.451 567.21 355.828C567.494 355.194 567.636 354.505 567.636 353.761C567.636 352.121 567.129 350.858 566.115 349.973C565.101 349.088 563.585 348.645 561.567 348.645H557.567V358.936H561.567ZM561.567 347.423C564.092 347.423 565.993 347.972 567.271 349.068C568.558 350.164 569.202 351.729 569.202 353.761C569.202 354.696 569.025 355.556 568.67 356.341C568.315 357.125 567.808 357.804 567.149 358.378C566.49 358.941 565.689 359.384 564.746 359.705C563.803 360.017 562.743 360.173 561.567 360.173H557.567V368.774H556V347.423H561.567Z" fill="#41A5DD"/>
<path d="M579.488 357.97C580.441 357.97 581.293 357.86 582.043 357.638C582.804 357.407 583.442 357.08 583.96 356.658C584.487 356.235 584.887 355.727 585.161 355.134C585.435 354.54 585.572 353.871 585.572 353.127C585.572 351.608 585.07 350.481 584.066 349.747C583.072 349.013 581.617 348.645 579.701 348.645H575.761V357.97H579.488ZM589.04 368.774H587.701C587.529 368.774 587.382 368.749 587.26 368.698C587.149 368.638 587.042 368.532 586.941 368.381L580.035 359.721C579.954 359.61 579.868 359.514 579.777 359.434C579.696 359.353 579.599 359.293 579.488 359.253C579.386 359.203 579.26 359.167 579.108 359.147C578.966 359.127 578.788 359.117 578.575 359.117H575.761V368.774H574.195V347.423H579.701C582.175 347.423 584.026 347.901 585.252 348.857C586.49 349.802 587.108 351.195 587.108 353.036C587.108 353.851 586.966 354.595 586.682 355.269C586.398 355.943 585.988 356.537 585.45 357.05C584.923 357.553 584.279 357.965 583.519 358.287C582.768 358.609 581.921 358.825 580.978 358.936C581.222 359.087 581.44 359.288 581.632 359.539L589.04 368.774Z" fill="#41A5DD"/>
<path d="M612.281 358.091C612.281 359.741 612.032 361.239 611.536 362.587C611.039 363.925 610.339 365.072 609.437 366.028C608.534 366.973 607.449 367.707 606.182 368.231C604.924 368.744 603.535 369 602.014 369C600.493 369 599.104 368.744 597.847 368.231C596.589 367.707 595.509 366.973 594.607 366.028C593.705 365.072 593.005 363.925 592.508 362.587C592.011 361.239 591.763 359.741 591.763 358.091C591.763 356.451 592.011 354.963 592.508 353.625C593.005 352.277 593.705 351.13 594.607 350.185C595.509 349.229 596.589 348.49 597.847 347.966C599.104 347.443 600.493 347.182 602.014 347.182C603.535 347.182 604.924 347.443 606.182 347.966C607.449 348.48 608.534 349.214 609.437 350.169C610.339 351.125 611.039 352.277 611.536 353.625C612.032 354.963 612.281 356.451 612.281 358.091ZM610.669 358.091C610.669 356.602 610.461 355.264 610.045 354.077C609.629 352.89 609.041 351.885 608.281 351.06C607.52 350.235 606.608 349.606 605.543 349.174C604.478 348.731 603.302 348.51 602.014 348.51C600.737 348.51 599.565 348.731 598.501 349.174C597.436 349.606 596.518 350.235 595.748 351.06C594.987 351.885 594.394 352.89 593.968 354.077C593.552 355.264 593.345 356.602 593.345 358.091C593.345 359.59 593.552 360.933 593.968 362.12C594.394 363.297 594.987 364.297 595.748 365.122C596.518 365.947 597.436 366.576 598.501 367.008C599.565 367.441 600.737 367.657 602.014 367.657C603.302 367.657 604.478 367.441 605.543 367.008C606.608 366.576 607.52 365.947 608.281 365.122C609.041 364.297 609.629 363.297 610.045 362.12C610.461 360.933 610.669 359.59 610.669 358.091Z" fill="#41A5DD"/>
<path d="M623.4 358.936C624.343 358.936 625.189 358.805 625.94 358.544C626.69 358.282 627.324 357.92 627.841 357.457C628.368 356.995 628.769 356.451 629.043 355.828C629.327 355.194 629.469 354.505 629.469 353.761C629.469 352.121 628.962 350.858 627.948 349.973C626.934 349.088 625.418 348.645 623.4 348.645H619.4V358.936H623.4ZM623.4 347.423C625.925 347.423 627.826 347.972 629.104 349.068C630.391 350.164 631.035 351.729 631.035 353.761C631.035 354.696 630.858 355.556 630.503 356.341C630.148 357.125 629.641 357.804 628.982 358.378C628.323 358.941 627.522 359.384 626.579 359.705C625.636 360.017 624.576 360.173 623.4 360.173H619.4V368.774H617.833V347.423H623.4Z" fill="#41A5DD"/>
<path d="M648.956 367.491L648.926 368.774H636.028V347.423H648.926V348.706H637.594V357.337H647.025V358.589H637.594V367.491H648.956Z" fill="#41A5DD"/>
<path d="M659.575 357.97C660.528 357.97 661.38 357.86 662.13 357.638C662.891 357.407 663.53 357.08 664.047 356.658C664.574 356.235 664.975 355.727 665.248 355.134C665.522 354.54 665.659 353.871 665.659 353.127C665.659 351.608 665.157 350.481 664.153 349.747C663.16 349.013 661.705 348.645 659.788 348.645H655.849V357.97H659.575ZM669.127 368.774H667.788C667.616 368.774 667.469 368.749 667.347 368.698C667.236 368.638 667.129 368.532 667.028 368.381L660.123 359.721C660.042 359.61 659.955 359.514 659.864 359.434C659.783 359.353 659.687 359.293 659.575 359.253C659.474 359.203 659.347 359.167 659.195 359.147C659.053 359.127 658.875 359.117 658.663 359.117H655.849V368.774H654.282V347.423H659.788C662.262 347.423 664.113 347.901 665.34 348.857C666.577 349.802 667.195 351.195 667.195 353.036C667.195 353.851 667.053 354.595 666.769 355.269C666.485 355.943 666.075 356.537 665.537 357.05C665.01 357.553 664.366 357.965 663.606 358.287C662.855 358.609 662.009 358.825 661.066 358.936C661.309 359.087 661.527 359.288 661.72 359.539L669.127 368.774Z" fill="#41A5DD"/>
<path d="M686.47 348.736H678.911V368.774H677.344V348.736H669.739V347.423H686.47V348.736Z" fill="#41A5DD"/>
<path d="M697.348 359.977V368.774H695.797V359.977L687.827 347.423H689.196C689.338 347.423 689.454 347.459 689.546 347.529C689.637 347.589 689.713 347.68 689.774 347.801L695.934 357.608C696.065 357.839 696.187 358.066 696.299 358.287C696.41 358.498 696.507 358.71 696.588 358.921C696.669 358.71 696.76 358.498 696.861 358.287C696.963 358.066 697.079 357.839 697.211 357.608L703.371 347.801C703.422 347.69 703.493 347.599 703.584 347.529C703.686 347.459 703.807 347.423 703.949 347.423H705.318L697.348 359.977Z" fill="#41A5DD"/>
<defs>
<clipPath id="clip0">
<rect width="159.893" height="27.2727" fill="white" transform="translate(556 309)"/>
</clipPath>
</defs>
</svg>
