<svg width="1204" height="678" viewBox="0 0 1204 678" fill="none" xmlns="http://www.w3.org/2000/svg">
<rect width="1204" height="677.25" fill="white"/>
<line y1="-0.5" x2="14" y2="-0.5" transform="matrix(-1 -1.2861e-06 5.94258e-09 -1 436 457)" stroke="black"/>
<line x1="436" y1="237.5" x2="422" y2="237.5" stroke="black"/>
<line x1="422.5" y1="237" x2="422.5" y2="457" stroke="black"/>
<path d="M411.811 352H410.614C410.511 352 410.43 351.974 410.369 351.923C410.313 351.867 410.266 351.806 410.229 351.741L408.444 348.962C408.425 349.027 408.404 349.093 408.381 349.158C408.362 349.219 408.334 349.275 408.297 349.326L406.645 351.741C406.598 351.806 406.547 351.867 406.491 351.923C406.44 351.974 406.367 352 406.274 352H405.161L407.646 348.36L405.259 344.909H406.456C406.559 344.909 406.633 344.925 406.68 344.958C406.727 344.991 406.769 345.037 406.806 345.098L408.549 347.758C408.586 347.623 408.645 347.492 408.724 347.366L410.25 345.126C410.292 345.061 410.336 345.009 410.383 344.972C410.434 344.93 410.495 344.909 410.565 344.909H411.713L409.326 348.297L411.811 352Z" fill="black"/>
<path d="M743.62 457H446V237H689.818C701.729 237 712.133 244.657 715.829 255.869L769.631 421.177C775.381 438.952 762.238 457 743.62 457Z" fill="#41A5DD"/>
<path d="M749.126 249.048V250H743.75V249.048H745.899V242.209C745.899 242.004 745.906 241.796 745.92 241.586L744.135 243.119C744.074 243.17 744.014 243.203 743.953 243.217C743.892 243.226 743.836 243.226 743.785 243.217C743.734 243.208 743.685 243.189 743.638 243.161C743.596 243.133 743.563 243.103 743.54 243.07L743.148 242.531L746.137 239.948H747.152V249.048H749.126ZM757.988 239.969V240.529C757.988 240.688 757.969 240.818 757.932 240.921C757.899 241.024 757.867 241.11 757.834 241.18L753.676 249.559C753.615 249.68 753.531 249.785 753.424 249.874C753.317 249.958 753.174 250 752.997 250H752.101L756.315 241.726C756.376 241.609 756.439 241.502 756.504 241.404C756.569 241.306 756.639 241.213 756.714 241.124H751.478C751.399 241.124 751.329 241.094 751.268 241.033C751.207 240.968 751.177 240.895 751.177 240.816V239.969H757.988ZM763.896 242.391C763.896 242.783 763.836 243.135 763.714 243.448C763.593 243.756 763.43 244.017 763.224 244.232C763.024 244.442 762.788 244.603 762.517 244.715C762.251 244.827 761.969 244.883 761.67 244.883C761.358 244.883 761.066 244.827 760.795 244.715C760.525 244.603 760.289 244.442 760.088 244.232C759.892 244.017 759.738 243.756 759.626 243.448C759.514 243.135 759.458 242.783 759.458 242.391C759.458 241.99 759.514 241.633 759.626 241.32C759.738 241.007 759.892 240.744 760.088 240.529C760.289 240.314 760.525 240.151 760.795 240.039C761.066 239.927 761.358 239.871 761.67 239.871C761.988 239.871 762.282 239.927 762.552 240.039C762.823 240.151 763.059 240.314 763.259 240.529C763.46 240.744 763.616 241.007 763.728 241.32C763.84 241.633 763.896 241.99 763.896 242.391ZM762.93 242.391C762.93 242.083 762.898 241.822 762.832 241.607C762.767 241.392 762.676 241.217 762.559 241.082C762.447 240.942 762.314 240.842 762.16 240.781C762.006 240.72 761.843 240.69 761.67 240.69C761.498 240.69 761.337 240.72 761.187 240.781C761.038 240.842 760.907 240.942 760.795 241.082C760.683 241.217 760.595 241.392 760.529 241.607C760.464 241.822 760.431 242.083 760.431 242.391C760.431 242.694 760.464 242.953 760.529 243.168C760.595 243.378 760.683 243.551 760.795 243.686C760.907 243.817 761.038 243.912 761.187 243.973C761.337 244.029 761.498 244.057 761.67 244.057C761.843 244.057 762.006 244.029 762.16 243.973C762.314 243.912 762.447 243.817 762.559 243.686C762.676 243.551 762.767 243.378 762.832 243.168C762.898 242.953 762.93 242.694 762.93 242.391ZM767.445 240.179C767.492 240.123 767.546 240.074 767.606 240.032C767.672 239.99 767.758 239.969 767.865 239.969H768.768L761.432 249.797C761.39 249.858 761.337 249.907 761.271 249.944C761.206 249.981 761.127 250 761.033 250H760.116L767.445 240.179ZM769.447 247.634C769.447 248.026 769.387 248.376 769.265 248.684C769.144 248.992 768.981 249.253 768.775 249.468C768.575 249.678 768.339 249.839 768.068 249.951C767.802 250.063 767.52 250.119 767.221 250.119C766.904 250.119 766.61 250.063 766.339 249.951C766.073 249.839 765.84 249.678 765.639 249.468C765.443 249.253 765.289 248.992 765.177 248.684C765.065 248.376 765.009 248.026 765.009 247.634C765.009 247.233 765.065 246.876 765.177 246.563C765.289 246.246 765.443 245.98 765.639 245.765C765.84 245.55 766.073 245.387 766.339 245.275C766.61 245.163 766.904 245.107 767.221 245.107C767.534 245.107 767.826 245.163 768.096 245.275C768.372 245.387 768.607 245.55 768.803 245.765C769.004 245.98 769.16 246.246 769.272 246.563C769.389 246.876 769.447 247.233 769.447 247.634ZM768.481 247.634C768.481 247.326 768.449 247.065 768.383 246.85C768.318 246.631 768.227 246.453 768.11 246.318C767.998 246.183 767.865 246.085 767.711 246.024C767.557 245.963 767.394 245.933 767.221 245.933C767.049 245.933 766.885 245.963 766.731 246.024C766.582 246.085 766.451 246.183 766.339 246.318C766.227 246.453 766.139 246.631 766.073 246.85C766.013 247.065 765.982 247.326 765.982 247.634C765.982 247.937 766.013 248.194 766.073 248.404C766.139 248.614 766.227 248.787 766.339 248.922C766.451 249.053 766.582 249.148 766.731 249.209C766.885 249.265 767.049 249.293 767.221 249.293C767.394 249.293 767.557 249.265 767.711 249.209C767.865 249.148 767.998 249.053 768.11 248.922C768.227 248.787 768.318 248.614 768.383 248.404C768.449 248.194 768.481 247.937 768.481 247.634ZM778.225 242.797C778.743 242.797 779.209 242.883 779.625 243.056C780.04 243.229 780.395 243.474 780.689 243.791C780.983 244.108 781.207 244.493 781.361 244.946C781.519 245.394 781.599 245.896 781.599 246.451C781.599 247.011 781.519 247.515 781.361 247.963C781.207 248.411 780.983 248.794 780.689 249.111C780.395 249.428 780.04 249.673 779.625 249.846C779.209 250.014 778.743 250.098 778.225 250.098C777.702 250.098 777.231 250.014 776.811 249.846C776.395 249.673 776.041 249.428 775.747 249.111C775.453 248.794 775.226 248.411 775.068 247.963C774.914 247.515 774.837 247.011 774.837 246.451C774.837 245.896 774.914 245.394 775.068 244.946C775.226 244.493 775.453 244.108 775.747 243.791C776.041 243.474 776.395 243.229 776.811 243.056C777.231 242.883 777.702 242.797 778.225 242.797ZM778.225 249.125C778.925 249.125 779.447 248.892 779.793 248.425C780.138 247.954 780.311 247.298 780.311 246.458C780.311 245.613 780.138 244.955 779.793 244.484C779.447 244.013 778.925 243.777 778.225 243.777C777.87 243.777 777.56 243.838 777.294 243.959C777.032 244.08 776.813 244.255 776.636 244.484C776.463 244.713 776.332 244.995 776.244 245.331C776.16 245.662 776.118 246.038 776.118 246.458C776.118 247.298 776.29 247.954 776.636 248.425C776.986 248.892 777.515 249.125 778.225 249.125ZM783.791 250V243.973L783.007 243.882C782.909 243.859 782.827 243.824 782.762 243.777C782.701 243.726 782.671 243.653 782.671 243.56V243.049H783.791V242.363C783.791 241.957 783.847 241.598 783.959 241.285C784.075 240.968 784.239 240.702 784.449 240.487C784.663 240.268 784.92 240.102 785.219 239.99C785.517 239.878 785.853 239.822 786.227 239.822C786.544 239.822 786.836 239.869 787.102 239.962L787.074 240.585C787.064 240.697 787.001 240.758 786.885 240.767C786.773 240.776 786.621 240.781 786.43 240.781C786.215 240.781 786.019 240.809 785.842 240.865C785.669 240.921 785.52 241.012 785.394 241.138C785.268 241.264 785.17 241.43 785.1 241.635C785.034 241.84 785.002 242.095 785.002 242.398V243.049H787.046V243.952H785.044V250H783.791ZM797.983 250H796.786C796.684 250 796.602 249.974 796.541 249.923C796.485 249.867 796.439 249.806 796.401 249.741L794.616 246.962C794.598 247.027 794.577 247.093 794.553 247.158C794.535 247.219 794.507 247.275 794.469 247.326L792.817 249.741C792.771 249.806 792.719 249.867 792.663 249.923C792.612 249.974 792.54 250 792.446 250H791.333L793.818 246.36L791.431 242.909H792.628C792.731 242.909 792.806 242.925 792.852 242.958C792.899 242.991 792.941 243.037 792.978 243.098L794.721 245.758C794.759 245.623 794.817 245.492 794.896 245.366L796.422 243.126C796.464 243.061 796.509 243.009 796.555 242.972C796.607 242.93 796.667 242.909 796.737 242.909H797.885L795.498 246.297L797.983 250Z" fill="black"/>
<path d="M809.91 440.685C809.975 440.228 810.101 439.824 810.288 439.474C810.475 439.119 810.71 438.823 810.995 438.585C811.284 438.347 811.613 438.167 811.982 438.046C812.355 437.92 812.757 437.857 813.186 437.857C813.611 437.857 814.003 437.918 814.362 438.039C814.721 438.16 815.029 438.333 815.286 438.557C815.547 438.781 815.75 439.052 815.895 439.369C816.04 439.686 816.112 440.039 816.112 440.426C816.112 440.743 816.07 441.028 815.986 441.28C815.907 441.527 815.79 441.744 815.636 441.931C815.487 442.118 815.305 442.276 815.09 442.407C814.875 442.538 814.635 442.645 814.369 442.729C815.022 442.897 815.512 443.186 815.839 443.597C816.17 444.003 816.336 444.512 816.336 445.123C816.336 445.585 816.247 446 816.07 446.369C815.897 446.738 815.659 447.053 815.356 447.314C815.053 447.571 814.698 447.769 814.292 447.909C813.891 448.044 813.459 448.112 812.997 448.112C812.465 448.112 812.01 448.047 811.632 447.916C811.254 447.781 810.934 447.596 810.673 447.363C810.412 447.13 810.197 446.854 810.029 446.537C809.861 446.215 809.719 445.867 809.602 445.494L810.141 445.27C810.281 445.209 810.416 445.193 810.547 445.221C810.682 445.249 810.78 445.326 810.841 445.452C810.902 445.583 810.976 445.739 811.065 445.921C811.158 446.103 811.284 446.278 811.443 446.446C811.602 446.614 811.802 446.756 812.045 446.873C812.292 446.99 812.605 447.048 812.983 447.048C813.333 447.048 813.639 446.992 813.9 446.88C814.166 446.763 814.385 446.614 814.558 446.432C814.735 446.25 814.868 446.047 814.957 445.823C815.046 445.599 815.09 445.377 815.09 445.158C815.09 444.887 815.055 444.64 814.985 444.416C814.915 444.192 814.784 443.998 814.593 443.835C814.402 443.672 814.138 443.543 813.802 443.45C813.471 443.357 813.044 443.31 812.521 443.31V442.407C812.95 442.402 813.314 442.356 813.613 442.267C813.916 442.178 814.161 442.057 814.348 441.903C814.539 441.749 814.677 441.565 814.761 441.35C814.85 441.135 814.894 440.897 814.894 440.636C814.894 440.347 814.847 440.095 814.754 439.88C814.665 439.665 814.542 439.488 814.383 439.348C814.224 439.208 814.035 439.103 813.816 439.033C813.601 438.963 813.368 438.928 813.116 438.928C812.864 438.928 812.628 438.965 812.409 439.04C812.194 439.115 812.003 439.22 811.835 439.355C811.672 439.486 811.534 439.642 811.422 439.824C811.31 440.006 811.231 440.207 811.184 440.426C811.123 440.589 811.046 440.699 810.953 440.755C810.864 440.806 810.734 440.82 810.561 440.797L809.91 440.685ZM822.531 444.381V440.244C822.531 440.123 822.536 439.99 822.545 439.845C822.554 439.7 822.568 439.553 822.587 439.404L818.933 444.381H822.531ZM825.142 444.381V445.095C825.142 445.17 825.119 445.233 825.072 445.284C825.03 445.335 824.962 445.361 824.869 445.361H823.623V448H822.531V445.361H818.079C817.986 445.361 817.904 445.335 817.834 445.284C817.769 445.228 817.727 445.16 817.708 445.081L817.582 444.444L822.461 437.969H823.623V444.381H825.142ZM830.896 440.391C830.896 440.783 830.836 441.135 830.714 441.448C830.593 441.756 830.43 442.017 830.224 442.232C830.024 442.442 829.788 442.603 829.517 442.715C829.251 442.827 828.969 442.883 828.67 442.883C828.358 442.883 828.066 442.827 827.795 442.715C827.525 442.603 827.289 442.442 827.088 442.232C826.892 442.017 826.738 441.756 826.626 441.448C826.514 441.135 826.458 440.783 826.458 440.391C826.458 439.99 826.514 439.633 826.626 439.32C826.738 439.007 826.892 438.744 827.088 438.529C827.289 438.314 827.525 438.151 827.795 438.039C828.066 437.927 828.358 437.871 828.67 437.871C828.988 437.871 829.282 437.927 829.552 438.039C829.823 438.151 830.059 438.314 830.259 438.529C830.46 438.744 830.616 439.007 830.728 439.32C830.84 439.633 830.896 439.99 830.896 440.391ZM829.93 440.391C829.93 440.083 829.898 439.822 829.832 439.607C829.767 439.392 829.676 439.217 829.559 439.082C829.447 438.942 829.314 438.842 829.16 438.781C829.006 438.72 828.843 438.69 828.67 438.69C828.498 438.69 828.337 438.72 828.187 438.781C828.038 438.842 827.907 438.942 827.795 439.082C827.683 439.217 827.595 439.392 827.529 439.607C827.464 439.822 827.431 440.083 827.431 440.391C827.431 440.694 827.464 440.953 827.529 441.168C827.595 441.378 827.683 441.551 827.795 441.686C827.907 441.817 828.038 441.912 828.187 441.973C828.337 442.029 828.498 442.057 828.67 442.057C828.843 442.057 829.006 442.029 829.16 441.973C829.314 441.912 829.447 441.817 829.559 441.686C829.676 441.551 829.767 441.378 829.832 441.168C829.898 440.953 829.93 440.694 829.93 440.391ZM834.445 438.179C834.492 438.123 834.546 438.074 834.606 438.032C834.672 437.99 834.758 437.969 834.865 437.969H835.768L828.432 447.797C828.39 447.858 828.337 447.907 828.271 447.944C828.206 447.981 828.127 448 828.033 448H827.116L834.445 438.179ZM836.447 445.634C836.447 446.026 836.387 446.376 836.265 446.684C836.144 446.992 835.981 447.253 835.775 447.468C835.575 447.678 835.339 447.839 835.068 447.951C834.802 448.063 834.52 448.119 834.221 448.119C833.904 448.119 833.61 448.063 833.339 447.951C833.073 447.839 832.84 447.678 832.639 447.468C832.443 447.253 832.289 446.992 832.177 446.684C832.065 446.376 832.009 446.026 832.009 445.634C832.009 445.233 832.065 444.876 832.177 444.563C832.289 444.246 832.443 443.98 832.639 443.765C832.84 443.55 833.073 443.387 833.339 443.275C833.61 443.163 833.904 443.107 834.221 443.107C834.534 443.107 834.826 443.163 835.096 443.275C835.372 443.387 835.607 443.55 835.803 443.765C836.004 443.98 836.16 444.246 836.272 444.563C836.389 444.876 836.447 445.233 836.447 445.634ZM835.481 445.634C835.481 445.326 835.449 445.065 835.383 444.85C835.318 444.631 835.227 444.453 835.11 444.318C834.998 444.183 834.865 444.085 834.711 444.024C834.557 443.963 834.394 443.933 834.221 443.933C834.049 443.933 833.885 443.963 833.731 444.024C833.582 444.085 833.451 444.183 833.339 444.318C833.227 444.453 833.139 444.631 833.073 444.85C833.013 445.065 832.982 445.326 832.982 445.634C832.982 445.937 833.013 446.194 833.073 446.404C833.139 446.614 833.227 446.787 833.339 446.922C833.451 447.053 833.582 447.148 833.731 447.209C833.885 447.265 834.049 447.293 834.221 447.293C834.394 447.293 834.557 447.265 834.711 447.209C834.865 447.148 834.998 447.053 835.11 446.922C835.227 446.787 835.318 446.614 835.383 446.404C835.449 446.194 835.481 445.937 835.481 445.634ZM845.225 440.797C845.743 440.797 846.209 440.883 846.625 441.056C847.04 441.229 847.395 441.474 847.689 441.791C847.983 442.108 848.207 442.493 848.361 442.946C848.519 443.394 848.599 443.896 848.599 444.451C848.599 445.011 848.519 445.515 848.361 445.963C848.207 446.411 847.983 446.794 847.689 447.111C847.395 447.428 847.04 447.673 846.625 447.846C846.209 448.014 845.743 448.098 845.225 448.098C844.702 448.098 844.231 448.014 843.811 447.846C843.395 447.673 843.041 447.428 842.747 447.111C842.453 446.794 842.226 446.411 842.068 445.963C841.914 445.515 841.837 445.011 841.837 444.451C841.837 443.896 841.914 443.394 842.068 442.946C842.226 442.493 842.453 442.108 842.747 441.791C843.041 441.474 843.395 441.229 843.811 441.056C844.231 440.883 844.702 440.797 845.225 440.797ZM845.225 447.125C845.925 447.125 846.447 446.892 846.793 446.425C847.138 445.954 847.311 445.298 847.311 444.458C847.311 443.613 847.138 442.955 846.793 442.484C846.447 442.013 845.925 441.777 845.225 441.777C844.87 441.777 844.56 441.838 844.294 441.959C844.032 442.08 843.813 442.255 843.636 442.484C843.463 442.713 843.332 442.995 843.244 443.331C843.16 443.662 843.118 444.038 843.118 444.458C843.118 445.298 843.29 445.954 843.636 446.425C843.986 446.892 844.515 447.125 845.225 447.125ZM850.791 448V441.973L850.007 441.882C849.909 441.859 849.827 441.824 849.762 441.777C849.701 441.726 849.671 441.653 849.671 441.56V441.049H850.791V440.363C850.791 439.957 850.847 439.598 850.959 439.285C851.075 438.968 851.239 438.702 851.449 438.487C851.663 438.268 851.92 438.102 852.219 437.99C852.517 437.878 852.853 437.822 853.227 437.822C853.544 437.822 853.836 437.869 854.102 437.962L854.074 438.585C854.064 438.697 854.001 438.758 853.885 438.767C853.773 438.776 853.621 438.781 853.43 438.781C853.215 438.781 853.019 438.809 852.842 438.865C852.669 438.921 852.52 439.012 852.394 439.138C852.268 439.264 852.17 439.43 852.1 439.635C852.034 439.84 852.002 440.095 852.002 440.398V441.049H854.046V441.952H852.044V448H850.791ZM864.983 448H863.786C863.684 448 863.602 447.974 863.541 447.923C863.485 447.867 863.439 447.806 863.401 447.741L861.616 444.962C861.598 445.027 861.577 445.093 861.553 445.158C861.535 445.219 861.507 445.275 861.469 445.326L859.817 447.741C859.771 447.806 859.719 447.867 859.663 447.923C859.612 447.974 859.54 448 859.446 448H858.333L860.818 444.36L858.431 440.909H859.628C859.731 440.909 859.806 440.925 859.852 440.958C859.899 440.991 859.941 441.037 859.978 441.098L861.721 443.758C861.759 443.623 861.817 443.492 861.896 443.366L863.422 441.126C863.464 441.061 863.509 441.009 863.555 440.972C863.607 440.93 863.667 440.909 863.737 440.909H864.885L862.498 444.297L864.983 448Z" fill="black"/>
<circle cx="707.5" cy="244.5" r="24" stroke="black"/>
<circle cx="762.5" cy="442.5" r="36" stroke="black"/>
</svg>
