<svg width="1204" height="678" viewBox="0 0 1204 678" fill="none" xmlns="http://www.w3.org/2000/svg">
<rect width="1204" height="677.25" fill="white"/>
<line y1="-0.5" x2="14" y2="-0.5" transform="matrix(-1 -1.35625e-06 5.63521e-09 -1 431 483)" stroke="black"/>
<line x1="431" y1="251.5" x2="417" y2="251.5" stroke="black"/>
<line x1="417.5" y1="251" x2="417.5" y2="483" stroke="black"/>
<path d="M406.811 373H405.614C405.511 373 405.43 372.974 405.369 372.923C405.313 372.867 405.266 372.806 405.229 372.741L403.444 369.962C403.425 370.027 403.404 370.093 403.381 370.158C403.362 370.219 403.334 370.275 403.297 370.326L401.645 372.741C401.598 372.806 401.547 372.867 401.491 372.923C401.44 372.974 401.367 373 401.274 373H400.161L402.646 369.36L400.259 365.909H401.456C401.559 365.909 401.633 365.925 401.68 365.958C401.727 365.991 401.769 366.037 401.806 366.098L403.549 368.758C403.586 368.623 403.645 368.492 403.724 368.366L405.25 366.126C405.292 366.061 405.336 366.009 405.383 365.972C405.434 365.93 405.495 365.909 405.565 365.909H406.713L404.326 369.297L406.811 373Z" fill="black"/>
<path fill-rule="evenodd" clip-rule="evenodd" d="M524.421 251H612.579C613.388 251 614.195 251.025 615 251.075V251H805V483H615V482.925C614.195 482.975 613.388 483 612.579 483H524.421C517.516 483 510.732 481.178 504.752 477.716C498.772 474.255 493.806 469.276 490.354 463.28L446.27 386.72C442.818 380.724 441 373.923 441 367C441 360.077 442.818 353.276 446.27 347.28L490.354 270.72C493.806 264.724 498.772 259.745 504.752 256.284C510.732 252.822 517.516 251 524.421 251Z" fill="#41A5DD"/>
<path d="M505.126 207.048V208H499.75V207.048H501.899V200.209C501.899 200.004 501.906 199.796 501.92 199.586L500.135 201.119C500.074 201.17 500.014 201.203 499.953 201.217C499.892 201.226 499.836 201.226 499.785 201.217C499.734 201.208 499.685 201.189 499.638 201.161C499.596 201.133 499.563 201.103 499.54 201.07L499.148 200.531L502.137 197.948H503.152V207.048H505.126ZM513.988 197.969V198.529C513.988 198.688 513.969 198.818 513.932 198.921C513.899 199.024 513.867 199.11 513.834 199.18L509.676 207.559C509.615 207.68 509.531 207.785 509.424 207.874C509.317 207.958 509.174 208 508.997 208H508.101L512.315 199.726C512.376 199.609 512.439 199.502 512.504 199.404C512.569 199.306 512.639 199.213 512.714 199.124H507.478C507.399 199.124 507.329 199.094 507.268 199.033C507.207 198.968 507.177 198.895 507.177 198.816V197.969H513.988ZM519.896 200.391C519.896 200.783 519.836 201.135 519.714 201.448C519.593 201.756 519.43 202.017 519.224 202.232C519.024 202.442 518.788 202.603 518.517 202.715C518.251 202.827 517.969 202.883 517.67 202.883C517.358 202.883 517.066 202.827 516.795 202.715C516.525 202.603 516.289 202.442 516.088 202.232C515.892 202.017 515.738 201.756 515.626 201.448C515.514 201.135 515.458 200.783 515.458 200.391C515.458 199.99 515.514 199.633 515.626 199.32C515.738 199.007 515.892 198.744 516.088 198.529C516.289 198.314 516.525 198.151 516.795 198.039C517.066 197.927 517.358 197.871 517.67 197.871C517.988 197.871 518.282 197.927 518.552 198.039C518.823 198.151 519.059 198.314 519.259 198.529C519.46 198.744 519.616 199.007 519.728 199.32C519.84 199.633 519.896 199.99 519.896 200.391ZM518.93 200.391C518.93 200.083 518.898 199.822 518.832 199.607C518.767 199.392 518.676 199.217 518.559 199.082C518.447 198.942 518.314 198.842 518.16 198.781C518.006 198.72 517.843 198.69 517.67 198.69C517.498 198.69 517.337 198.72 517.187 198.781C517.038 198.842 516.907 198.942 516.795 199.082C516.683 199.217 516.595 199.392 516.529 199.607C516.464 199.822 516.431 200.083 516.431 200.391C516.431 200.694 516.464 200.953 516.529 201.168C516.595 201.378 516.683 201.551 516.795 201.686C516.907 201.817 517.038 201.912 517.187 201.973C517.337 202.029 517.498 202.057 517.67 202.057C517.843 202.057 518.006 202.029 518.16 201.973C518.314 201.912 518.447 201.817 518.559 201.686C518.676 201.551 518.767 201.378 518.832 201.168C518.898 200.953 518.93 200.694 518.93 200.391ZM523.445 198.179C523.492 198.123 523.546 198.074 523.606 198.032C523.672 197.99 523.758 197.969 523.865 197.969H524.768L517.432 207.797C517.39 207.858 517.337 207.907 517.271 207.944C517.206 207.981 517.127 208 517.033 208H516.116L523.445 198.179ZM525.447 205.634C525.447 206.026 525.387 206.376 525.265 206.684C525.144 206.992 524.981 207.253 524.775 207.468C524.575 207.678 524.339 207.839 524.068 207.951C523.802 208.063 523.52 208.119 523.221 208.119C522.904 208.119 522.61 208.063 522.339 207.951C522.073 207.839 521.84 207.678 521.639 207.468C521.443 207.253 521.289 206.992 521.177 206.684C521.065 206.376 521.009 206.026 521.009 205.634C521.009 205.233 521.065 204.876 521.177 204.563C521.289 204.246 521.443 203.98 521.639 203.765C521.84 203.55 522.073 203.387 522.339 203.275C522.61 203.163 522.904 203.107 523.221 203.107C523.534 203.107 523.826 203.163 524.096 203.275C524.372 203.387 524.607 203.55 524.803 203.765C525.004 203.98 525.16 204.246 525.272 204.563C525.389 204.876 525.447 205.233 525.447 205.634ZM524.481 205.634C524.481 205.326 524.449 205.065 524.383 204.85C524.318 204.631 524.227 204.453 524.11 204.318C523.998 204.183 523.865 204.085 523.711 204.024C523.557 203.963 523.394 203.933 523.221 203.933C523.049 203.933 522.885 203.963 522.731 204.024C522.582 204.085 522.451 204.183 522.339 204.318C522.227 204.453 522.139 204.631 522.073 204.85C522.013 205.065 521.982 205.326 521.982 205.634C521.982 205.937 522.013 206.194 522.073 206.404C522.139 206.614 522.227 206.787 522.339 206.922C522.451 207.053 522.582 207.148 522.731 207.209C522.885 207.265 523.049 207.293 523.221 207.293C523.394 207.293 523.557 207.265 523.711 207.209C523.865 207.148 523.998 207.053 524.11 206.922C524.227 206.787 524.318 206.614 524.383 206.404C524.449 206.194 524.481 205.937 524.481 205.634ZM534.225 200.797C534.743 200.797 535.209 200.883 535.625 201.056C536.04 201.229 536.395 201.474 536.689 201.791C536.983 202.108 537.207 202.493 537.361 202.946C537.519 203.394 537.599 203.896 537.599 204.451C537.599 205.011 537.519 205.515 537.361 205.963C537.207 206.411 536.983 206.794 536.689 207.111C536.395 207.428 536.04 207.673 535.625 207.846C535.209 208.014 534.743 208.098 534.225 208.098C533.702 208.098 533.231 208.014 532.811 207.846C532.395 207.673 532.041 207.428 531.747 207.111C531.453 206.794 531.226 206.411 531.068 205.963C530.914 205.515 530.837 205.011 530.837 204.451C530.837 203.896 530.914 203.394 531.068 202.946C531.226 202.493 531.453 202.108 531.747 201.791C532.041 201.474 532.395 201.229 532.811 201.056C533.231 200.883 533.702 200.797 534.225 200.797ZM534.225 207.125C534.925 207.125 535.447 206.892 535.793 206.425C536.138 205.954 536.311 205.298 536.311 204.458C536.311 203.613 536.138 202.955 535.793 202.484C535.447 202.013 534.925 201.777 534.225 201.777C533.87 201.777 533.56 201.838 533.294 201.959C533.032 202.08 532.813 202.255 532.636 202.484C532.463 202.713 532.332 202.995 532.244 203.331C532.16 203.662 532.118 204.038 532.118 204.458C532.118 205.298 532.29 205.954 532.636 206.425C532.986 206.892 533.515 207.125 534.225 207.125ZM539.791 208V201.973L539.007 201.882C538.909 201.859 538.827 201.824 538.762 201.777C538.701 201.726 538.671 201.653 538.671 201.56V201.049H539.791V200.363C539.791 199.957 539.847 199.598 539.959 199.285C540.075 198.968 540.239 198.702 540.449 198.487C540.663 198.268 540.92 198.102 541.219 197.99C541.517 197.878 541.853 197.822 542.227 197.822C542.544 197.822 542.836 197.869 543.102 197.962L543.074 198.585C543.064 198.697 543.001 198.758 542.885 198.767C542.773 198.776 542.621 198.781 542.43 198.781C542.215 198.781 542.019 198.809 541.842 198.865C541.669 198.921 541.52 199.012 541.394 199.138C541.268 199.264 541.17 199.43 541.1 199.635C541.034 199.84 541.002 200.095 541.002 200.398V201.049H543.046V201.952H541.044V208H539.791ZM553.983 208H552.786C552.684 208 552.602 207.974 552.541 207.923C552.485 207.867 552.439 207.806 552.401 207.741L550.616 204.962C550.598 205.027 550.577 205.093 550.553 205.158C550.535 205.219 550.507 205.275 550.469 205.326L548.817 207.741C548.771 207.806 548.719 207.867 548.663 207.923C548.612 207.974 548.54 208 548.446 208H547.333L549.818 204.36L547.431 200.909H548.628C548.731 200.909 548.806 200.925 548.852 200.958C548.899 200.991 548.941 201.037 548.978 201.098L550.721 203.758C550.759 203.623 550.817 203.492 550.896 203.366L552.422 201.126C552.464 201.061 552.509 201.009 552.555 200.972C552.607 200.93 552.667 200.909 552.737 200.909H553.885L551.498 204.297L553.983 208Z" fill="black"/>
<circle cx="504.5" cy="255.5" r="34" stroke="black"/>
</svg>
