<?xml version="1.0" encoding="utf-8"?>
<!-- Generator: Adobe Illustrator 25.4.1, SVG Export Plug-In . SVG Version: 6.00 Build 0)  -->
<svg version="1.1" id="Layer_1" xmlns="http://www.w3.org/2000/svg" xmlns:xlink="http://www.w3.org/1999/xlink" x="0px" y="0px"
	 viewBox="0 0 1204 678" style="enable-background:new 0 0 1204 678;" xml:space="preserve">
<style type="text/css">
	.st0{fill:#FFFFFF;}
	.st1{fill:#F74F64;}
	.st2{fill:none;stroke:#D9D9D9;}
	.st3{fill:#006091;}
</style>
<rect y="0" class="st0" width="1204" height="677.2"/>
<rect x="30" y="635" class="st1" width="1144" height="5"/>
<path class="st1" d="M43.8,618.1c0,1-0.2,1.9-0.5,2.8c-0.3,0.8-0.8,1.6-1.4,2.2c-0.6,0.6-1.3,1.1-2.2,1.4c-0.9,0.3-1.8,0.5-2.9,0.5
	h-5.3v-13.8h5.3c1.1,0,2,0.2,2.9,0.5c0.9,0.3,1.6,0.8,2.2,1.4c0.6,0.6,1.1,1.3,1.4,2.2C43.7,616.1,43.8,617.1,43.8,618.1z
	 M41.2,618.1c0-0.8-0.1-1.4-0.3-2c-0.2-0.6-0.5-1.1-0.9-1.5c-0.4-0.4-0.8-0.7-1.4-1c-0.5-0.2-1.1-0.3-1.8-0.3h-2.7v9.7h2.7
	c0.7,0,1.3-0.1,1.8-0.3c0.5-0.2,1-0.5,1.4-1c0.4-0.4,0.7-0.9,0.9-1.5C41.1,619.5,41.2,618.8,41.2,618.1z M50.5,615
	c0.7,0,1.4,0.1,2,0.4c0.6,0.2,1.1,0.6,1.5,1c0.4,0.4,0.8,1,1,1.6c0.2,0.6,0.3,1.3,0.3,2.1c0,0.8-0.1,1.5-0.3,2.1
	c-0.2,0.6-0.6,1.2-1,1.6c-0.4,0.4-0.9,0.8-1.5,1c-0.6,0.2-1.3,0.4-2,0.4c-0.7,0-1.4-0.1-2-0.4c-0.6-0.2-1.1-0.6-1.5-1
	c-0.4-0.4-0.7-1-1-1.6c-0.2-0.6-0.3-1.3-0.3-2.1c0-0.8,0.1-1.5,0.3-2.1c0.2-0.6,0.6-1.2,1-1.6c0.4-0.4,0.9-0.8,1.5-1
	C49.1,615.2,49.8,615,50.5,615z M50.5,623.3c0.8,0,1.4-0.3,1.8-0.8c0.4-0.5,0.6-1.4,0.6-2.4c0-1.1-0.2-1.9-0.6-2.4
	c-0.4-0.6-1-0.8-1.8-0.8c-0.8,0-1.4,0.3-1.8,0.8c-0.4,0.6-0.6,1.4-0.6,2.4s0.2,1.9,0.6,2.4C49.1,623.1,49.7,623.3,50.5,623.3z
	 M60,616.4c0.2-0.2,0.4-0.4,0.6-0.5c0.2-0.2,0.5-0.3,0.7-0.4c0.2-0.1,0.5-0.2,0.8-0.3c0.3-0.1,0.6-0.1,0.9-0.1c0.5,0,1,0.1,1.4,0.3
	c0.4,0.2,0.8,0.4,1,0.8c0.3,0.3,0.5,0.7,0.6,1.2c0.1,0.5,0.2,1,0.2,1.5v6.2H64v-6.2c0-0.6-0.1-1.1-0.4-1.4c-0.3-0.3-0.7-0.5-1.3-0.5
	c-0.4,0-0.8,0.1-1.1,0.3c-0.4,0.2-0.7,0.4-1,0.8v7.1h-2.4v-9.8h1.4c0.3,0,0.5,0.1,0.6,0.4L60,616.4z M70.5,610.2
	c0.3,0.5,0.5,1,0.6,1.6c0.1,0.5,0.1,1.1,0,1.6c-0.1,0.5-0.3,1-0.6,1.5c-0.3,0.5-0.7,0.9-1.1,1.3l-0.7-0.4c-0.1,0-0.1-0.1-0.1-0.1
	c0-0.1,0-0.1,0-0.2c0-0.1,0-0.1,0-0.2c0-0.1,0.1-0.1,0.1-0.1c0.1-0.2,0.3-0.4,0.4-0.6c0.1-0.3,0.2-0.6,0.2-0.9c0.1-0.3,0-0.7,0-1
	c-0.1-0.4-0.2-0.7-0.4-1.1c-0.1-0.2-0.1-0.3-0.1-0.5c0.1-0.1,0.2-0.2,0.3-0.3L70.5,610.2z M77,625.2c-0.9,0-1.5-0.2-2-0.7
	c-0.5-0.5-0.7-1.2-0.7-2V617h-1c-0.1,0-0.2,0-0.3-0.1c-0.1-0.1-0.1-0.2-0.1-0.4v-0.9l1.6-0.3l0.5-2.7c0-0.1,0.1-0.2,0.2-0.3
	c0.1-0.1,0.2-0.1,0.3-0.1h1.2v3.1h2.6v1.7h-2.6v5.3c0,0.3,0.1,0.5,0.2,0.7c0.2,0.2,0.4,0.3,0.6,0.3c0.1,0,0.3,0,0.4,0
	c0.1,0,0.2-0.1,0.3-0.1c0.1,0,0.1-0.1,0.2-0.1c0.1,0,0.1-0.1,0.2-0.1c0.1,0,0.1,0,0.2,0.1c0,0,0.1,0.1,0.1,0.2l0.7,1.1
	c-0.3,0.3-0.7,0.5-1.2,0.6C77.9,625.1,77.5,625.2,77,625.2z"/>
<rect x="40.5" y="128.5" class="st2" width="521.8" height="316"/>
<rect x="642.5" y="128.5" class="st2" width="521.8" height="316"/>
<path class="st3" d="M562.3,247l-32.7-56.8c-3.5-6-8.4-11-14.4-14.4c-6-3.5-12.8-5.3-19.7-5.3h-88.2c-6.9,0-13.7,1.8-19.7,5.3
	c-6,3.5-10.9,8.4-14.4,14.4l-44.1,76.6c-3.5,6-5.3,12.8-5.3,19.7c0,6.9,1.8,13.7,5.3,19.7l44.1,76.6c3.5,6,8.4,11,14.4,14.4
	c6,3.5,12.8,5.3,19.7,5.3h88.2c6.9,0,13.7-1.8,19.7-5.3c6-3.5,10.9-8.4,14.4-14.4l32.7-56.8"/>
<path class="st3" d="M691.8,341.7c6,3.5,12.8,5.3,19.7,5.3h88.2c6.9,0,13.7-1.8,19.7-5.3c6-3.5,10.9-8.4,14.4-14.4l44.1-76.6
	c3.5-6,5.3-12.8,5.3-19.7c0-6.9-1.8-13.7-5.3-19.7l-44.1-76.6c-1.3-2.2-2.8-4.3-4.4-6.2H681.8c-1.7,1.9-3.2,4-4.4,6.2l-34.9,60.5
	v71.5l34.9,60.5C680.8,333.3,685.8,338.3,691.8,341.7z"/>
</svg>
