<svg width="1204" height="678" viewBox="0 0 1204 678" fill="none" xmlns="http://www.w3.org/2000/svg">
<rect width="1204" height="677.25" fill="white"/>
<path d="M492.579 234H404.421C397.516 234 390.732 235.822 384.752 239.284C378.772 242.745 373.806 247.724 370.354 253.72L326.27 330.28C322.818 336.276 321 343.077 321 350C321 356.923 322.818 363.724 326.27 369.72L370.354 446.28C373.806 452.276 378.772 457.255 384.752 460.716C390.732 464.178 397.516 466 404.421 466H492.579C499.484 466 506.267 464.177 512.246 460.716C518.226 457.254 523.192 452.275 526.644 446.28L570.73 369.72C574.182 363.724 576 356.923 576 350C576 343.077 574.182 336.276 570.73 330.28L526.644 253.72C523.192 247.725 518.226 242.746 512.246 239.284C506.267 235.823 499.484 234 492.579 234V234Z" fill="#41A5DD"/>
<path d="M797.579 234H709.421C702.516 234 695.732 235.822 689.752 239.284C683.772 242.745 678.806 247.724 675.354 253.72L631.27 330.28C627.818 336.276 626 343.077 626 350C626 356.923 627.818 363.724 631.27 369.72L675.354 446.28C678.806 452.276 683.772 457.255 689.752 460.716C695.732 464.178 702.516 466 709.421 466H797.579C804.484 466 811.267 464.177 817.246 460.716C823.226 457.254 828.192 452.275 831.644 446.28L875.73 369.72C879.182 363.724 881 356.923 881 350C881 343.077 879.182 336.276 875.73 330.28L831.644 253.72C828.192 247.725 823.226 242.746 817.246 239.284C811.267 235.823 804.484 234 797.579 234V234Z" fill="#41A5DD"/>
<path d="M874.126 250.048V251H868.75V250.048H870.899V243.209C870.899 243.004 870.906 242.796 870.92 242.586L869.135 244.119C869.074 244.17 869.014 244.203 868.953 244.217C868.892 244.226 868.836 244.226 868.785 244.217C868.734 244.208 868.685 244.189 868.638 244.161C868.596 244.133 868.563 244.103 868.54 244.07L868.148 243.531L871.137 240.948H872.152V250.048H874.126ZM882.988 240.969V241.529C882.988 241.688 882.969 241.818 882.932 241.921C882.899 242.024 882.867 242.11 882.834 242.18L878.676 250.559C878.615 250.68 878.531 250.785 878.424 250.874C878.317 250.958 878.174 251 877.997 251H877.101L881.315 242.726C881.376 242.609 881.439 242.502 881.504 242.404C881.569 242.306 881.639 242.213 881.714 242.124H876.478C876.399 242.124 876.329 242.094 876.268 242.033C876.207 241.968 876.177 241.895 876.177 241.816V240.969H882.988ZM888.896 243.391C888.896 243.783 888.836 244.135 888.714 244.448C888.593 244.756 888.43 245.017 888.224 245.232C888.024 245.442 887.788 245.603 887.517 245.715C887.251 245.827 886.969 245.883 886.67 245.883C886.358 245.883 886.066 245.827 885.795 245.715C885.525 245.603 885.289 245.442 885.088 245.232C884.892 245.017 884.738 244.756 884.626 244.448C884.514 244.135 884.458 243.783 884.458 243.391C884.458 242.99 884.514 242.633 884.626 242.32C884.738 242.007 884.892 241.744 885.088 241.529C885.289 241.314 885.525 241.151 885.795 241.039C886.066 240.927 886.358 240.871 886.67 240.871C886.988 240.871 887.282 240.927 887.552 241.039C887.823 241.151 888.059 241.314 888.259 241.529C888.46 241.744 888.616 242.007 888.728 242.32C888.84 242.633 888.896 242.99 888.896 243.391ZM887.93 243.391C887.93 243.083 887.898 242.822 887.832 242.607C887.767 242.392 887.676 242.217 887.559 242.082C887.447 241.942 887.314 241.842 887.16 241.781C887.006 241.72 886.843 241.69 886.67 241.69C886.498 241.69 886.337 241.72 886.187 241.781C886.038 241.842 885.907 241.942 885.795 242.082C885.683 242.217 885.595 242.392 885.529 242.607C885.464 242.822 885.431 243.083 885.431 243.391C885.431 243.694 885.464 243.953 885.529 244.168C885.595 244.378 885.683 244.551 885.795 244.686C885.907 244.817 886.038 244.912 886.187 244.973C886.337 245.029 886.498 245.057 886.67 245.057C886.843 245.057 887.006 245.029 887.16 244.973C887.314 244.912 887.447 244.817 887.559 244.686C887.676 244.551 887.767 244.378 887.832 244.168C887.898 243.953 887.93 243.694 887.93 243.391ZM892.445 241.179C892.492 241.123 892.546 241.074 892.606 241.032C892.672 240.99 892.758 240.969 892.865 240.969H893.768L886.432 250.797C886.39 250.858 886.337 250.907 886.271 250.944C886.206 250.981 886.127 251 886.033 251H885.116L892.445 241.179ZM894.447 248.634C894.447 249.026 894.387 249.376 894.265 249.684C894.144 249.992 893.981 250.253 893.775 250.468C893.575 250.678 893.339 250.839 893.068 250.951C892.802 251.063 892.52 251.119 892.221 251.119C891.904 251.119 891.61 251.063 891.339 250.951C891.073 250.839 890.84 250.678 890.639 250.468C890.443 250.253 890.289 249.992 890.177 249.684C890.065 249.376 890.009 249.026 890.009 248.634C890.009 248.233 890.065 247.876 890.177 247.563C890.289 247.246 890.443 246.98 890.639 246.765C890.84 246.55 891.073 246.387 891.339 246.275C891.61 246.163 891.904 246.107 892.221 246.107C892.534 246.107 892.826 246.163 893.096 246.275C893.372 246.387 893.607 246.55 893.803 246.765C894.004 246.98 894.16 247.246 894.272 247.563C894.389 247.876 894.447 248.233 894.447 248.634ZM893.481 248.634C893.481 248.326 893.449 248.065 893.383 247.85C893.318 247.631 893.227 247.453 893.11 247.318C892.998 247.183 892.865 247.085 892.711 247.024C892.557 246.963 892.394 246.933 892.221 246.933C892.049 246.933 891.885 246.963 891.731 247.024C891.582 247.085 891.451 247.183 891.339 247.318C891.227 247.453 891.139 247.631 891.073 247.85C891.013 248.065 890.982 248.326 890.982 248.634C890.982 248.937 891.013 249.194 891.073 249.404C891.139 249.614 891.227 249.787 891.339 249.922C891.451 250.053 891.582 250.148 891.731 250.209C891.885 250.265 892.049 250.293 892.221 250.293C892.394 250.293 892.557 250.265 892.711 250.209C892.865 250.148 892.998 250.053 893.11 249.922C893.227 249.787 893.318 249.614 893.383 249.404C893.449 249.194 893.481 248.937 893.481 248.634ZM903.225 243.797C903.743 243.797 904.209 243.883 904.625 244.056C905.04 244.229 905.395 244.474 905.689 244.791C905.983 245.108 906.207 245.493 906.361 245.946C906.519 246.394 906.599 246.896 906.599 247.451C906.599 248.011 906.519 248.515 906.361 248.963C906.207 249.411 905.983 249.794 905.689 250.111C905.395 250.428 905.04 250.673 904.625 250.846C904.209 251.014 903.743 251.098 903.225 251.098C902.702 251.098 902.231 251.014 901.811 250.846C901.395 250.673 901.041 250.428 900.747 250.111C900.453 249.794 900.226 249.411 900.068 248.963C899.914 248.515 899.837 248.011 899.837 247.451C899.837 246.896 899.914 246.394 900.068 245.946C900.226 245.493 900.453 245.108 900.747 244.791C901.041 244.474 901.395 244.229 901.811 244.056C902.231 243.883 902.702 243.797 903.225 243.797ZM903.225 250.125C903.925 250.125 904.447 249.892 904.793 249.425C905.138 248.954 905.311 248.298 905.311 247.458C905.311 246.613 905.138 245.955 904.793 245.484C904.447 245.013 903.925 244.777 903.225 244.777C902.87 244.777 902.56 244.838 902.294 244.959C902.032 245.08 901.813 245.255 901.636 245.484C901.463 245.713 901.332 245.995 901.244 246.331C901.16 246.662 901.118 247.038 901.118 247.458C901.118 248.298 901.29 248.954 901.636 249.425C901.986 249.892 902.515 250.125 903.225 250.125ZM908.791 251V244.973L908.007 244.882C907.909 244.859 907.827 244.824 907.762 244.777C907.701 244.726 907.671 244.653 907.671 244.56V244.049H908.791V243.363C908.791 242.957 908.847 242.598 908.959 242.285C909.075 241.968 909.239 241.702 909.449 241.487C909.663 241.268 909.92 241.102 910.219 240.99C910.517 240.878 910.853 240.822 911.227 240.822C911.544 240.822 911.836 240.869 912.102 240.962L912.074 241.585C912.064 241.697 912.001 241.758 911.885 241.767C911.773 241.776 911.621 241.781 911.43 241.781C911.215 241.781 911.019 241.809 910.842 241.865C910.669 241.921 910.52 242.012 910.394 242.138C910.268 242.264 910.17 242.43 910.1 242.635C910.034 242.84 910.002 243.095 910.002 243.398V244.049H912.046V244.952H910.044V251H908.791ZM922.983 251H921.786C921.684 251 921.602 250.974 921.541 250.923C921.485 250.867 921.439 250.806 921.401 250.741L919.616 247.962C919.598 248.027 919.577 248.093 919.553 248.158C919.535 248.219 919.507 248.275 919.469 248.326L917.817 250.741C917.771 250.806 917.719 250.867 917.663 250.923C917.612 250.974 917.54 251 917.446 251H916.333L918.818 247.36L916.431 243.909H917.628C917.731 243.909 917.806 243.925 917.852 243.958C917.899 243.991 917.941 244.037 917.978 244.098L919.721 246.758C919.759 246.623 919.817 246.492 919.896 246.366L921.422 244.126C921.464 244.061 921.509 244.009 921.555 243.972C921.607 243.93 921.667 243.909 921.737 243.909H922.885L920.498 247.297L922.983 251Z" fill="black"/>
<circle cx="822.5" cy="245.5" r="34" stroke="black"/>
<line y1="-0.5" x2="14" y2="-0.5" transform="matrix(-1 -1.35625e-06 5.63521e-09 -1 311 466)" stroke="black"/>
<line x1="311" y1="234.5" x2="297" y2="234.5" stroke="black"/>
<line x1="297.5" y1="234" x2="297.5" y2="466" stroke="black"/>
<path d="M286.811 355H285.614C285.511 355 285.43 354.974 285.369 354.923C285.313 354.867 285.266 354.806 285.229 354.741L283.444 351.962C283.425 352.027 283.404 352.093 283.381 352.158C283.362 352.219 283.334 352.275 283.297 352.326L281.645 354.741C281.598 354.806 281.547 354.867 281.491 354.923C281.44 354.974 281.367 355 281.274 355H280.161L282.646 351.36L280.259 347.909H281.456C281.559 347.909 281.633 347.925 281.68 347.958C281.727 347.991 281.769 348.037 281.806 348.098L283.549 350.758C283.586 350.623 283.645 350.492 283.724 350.366L285.25 348.126C285.292 348.061 285.336 348.009 285.383 347.972C285.434 347.93 285.495 347.909 285.565 347.909H286.713L284.326 351.297L286.811 355Z" fill="black"/>
</svg>
