<?xml version="1.0" encoding="utf-8"?>
<!-- Generator: Adobe Illustrator 25.4.1, SVG Export Plug-In . SVG Version: 6.00 Build 0)  -->
<svg version="1.1" id="Layer_1" xmlns="http://www.w3.org/2000/svg" xmlns:xlink="http://www.w3.org/1999/xlink" x="0px" y="0px"
	 viewBox="0 0 1204 678" style="enable-background:new 0 0 1204 678;" xml:space="preserve">
<style type="text/css">
	.st0{fill:#FFFFFF;}
	.st1{fill:#F74F64;}
	.st2{fill:none;stroke:#D9D9D9;}
	.st3{fill-rule:evenodd;clip-rule:evenodd;fill:#41A5DD;}
</style>
<rect y="0" class="st0" width="1204" height="677.2"/>
<rect x="30" y="635" class="st1" width="1144" height="5"/>
<path class="st1" d="M43.8,618.1c0,1-0.2,1.9-0.5,2.8c-0.3,0.8-0.8,1.6-1.4,2.2c-0.6,0.6-1.3,1.1-2.2,1.4c-0.9,0.3-1.8,0.5-2.9,0.5
	h-5.3v-13.8h5.3c1.1,0,2,0.2,2.9,0.5c0.9,0.3,1.6,0.8,2.2,1.4c0.6,0.6,1.1,1.3,1.4,2.2C43.7,616.1,43.8,617.1,43.8,618.1z
	 M41.2,618.1c0-0.8-0.1-1.4-0.3-2c-0.2-0.6-0.5-1.1-0.9-1.5c-0.4-0.4-0.8-0.7-1.4-1c-0.5-0.2-1.1-0.3-1.8-0.3h-2.7v9.7h2.7
	c0.7,0,1.3-0.1,1.8-0.3c0.5-0.2,1-0.5,1.4-1c0.4-0.4,0.7-0.9,0.9-1.5C41.1,619.5,41.2,618.8,41.2,618.1z M50.5,615
	c0.7,0,1.4,0.1,2,0.4c0.6,0.2,1.1,0.6,1.5,1c0.4,0.4,0.8,1,1,1.6c0.2,0.6,0.3,1.3,0.3,2.1c0,0.8-0.1,1.5-0.3,2.1
	c-0.2,0.6-0.6,1.2-1,1.6c-0.4,0.4-0.9,0.8-1.5,1c-0.6,0.2-1.3,0.4-2,0.4c-0.7,0-1.4-0.1-2-0.4c-0.6-0.2-1.1-0.6-1.5-1
	c-0.4-0.4-0.7-1-1-1.6c-0.2-0.6-0.3-1.3-0.3-2.1c0-0.8,0.1-1.5,0.3-2.1c0.2-0.6,0.6-1.2,1-1.6c0.4-0.4,0.9-0.8,1.5-1
	C49.1,615.2,49.8,615,50.5,615z M50.5,623.3c0.8,0,1.4-0.3,1.8-0.8c0.4-0.5,0.6-1.4,0.6-2.4c0-1.1-0.2-1.9-0.6-2.4
	c-0.4-0.6-1-0.8-1.8-0.8c-0.8,0-1.4,0.3-1.8,0.8c-0.4,0.6-0.6,1.4-0.6,2.4s0.2,1.9,0.6,2.4C49.1,623.1,49.7,623.3,50.5,623.3z
	 M60,616.4c0.2-0.2,0.4-0.4,0.6-0.5c0.2-0.2,0.5-0.3,0.7-0.4c0.2-0.1,0.5-0.2,0.8-0.3c0.3-0.1,0.6-0.1,0.9-0.1c0.5,0,1,0.1,1.4,0.3
	c0.4,0.2,0.8,0.4,1,0.8c0.3,0.3,0.5,0.7,0.6,1.2c0.1,0.5,0.2,1,0.2,1.5v6.2H64v-6.2c0-0.6-0.1-1.1-0.4-1.4c-0.3-0.3-0.7-0.5-1.3-0.5
	c-0.4,0-0.8,0.1-1.1,0.3c-0.4,0.2-0.7,0.4-1,0.8v7.1h-2.4v-9.8h1.4c0.3,0,0.5,0.1,0.6,0.4L60,616.4z M70.5,610.2
	c0.3,0.5,0.5,1,0.6,1.6c0.1,0.5,0.1,1.1,0,1.6c-0.1,0.5-0.3,1-0.6,1.5c-0.3,0.5-0.7,0.9-1.1,1.3l-0.7-0.4c-0.1,0-0.1-0.1-0.1-0.1
	c0-0.1,0-0.1,0-0.2c0-0.1,0-0.1,0-0.2c0-0.1,0.1-0.1,0.1-0.1c0.1-0.2,0.3-0.4,0.4-0.6c0.1-0.3,0.2-0.6,0.2-0.9c0.1-0.3,0-0.7,0-1
	c-0.1-0.4-0.2-0.7-0.4-1.1c-0.1-0.2-0.1-0.3-0.1-0.5c0.1-0.1,0.2-0.2,0.3-0.3L70.5,610.2z M77,625.2c-0.9,0-1.5-0.2-2-0.7
	c-0.5-0.5-0.7-1.2-0.7-2V617h-1c-0.1,0-0.2,0-0.3-0.1c-0.1-0.1-0.1-0.2-0.1-0.4v-0.9l1.6-0.3l0.5-2.7c0-0.1,0.1-0.2,0.2-0.3
	c0.1-0.1,0.2-0.1,0.3-0.1h1.2v3.1h2.6v1.7h-2.6v5.3c0,0.3,0.1,0.5,0.2,0.7c0.2,0.2,0.4,0.3,0.6,0.3c0.1,0,0.3,0,0.4,0
	c0.1,0,0.2-0.1,0.3-0.1c0.1,0,0.1-0.1,0.2-0.1c0.1,0,0.1-0.1,0.2-0.1c0.1,0,0.1,0,0.2,0.1c0,0,0.1,0.1,0.1,0.2l0.7,1.1
	c-0.3,0.3-0.7,0.5-1.2,0.6C77.9,625.1,77.5,625.2,77,625.2z"/>
<rect x="40.5" y="128.5" class="st2" width="521.8" height="316"/>
<path class="st3" d="M112.9,194.4h76.5c0.7,0,1.4,0,2.1,0.1v-0.1h164.9v201.4H191.6v-0.1c-0.7,0-1.4,0.1-2.1,0.1h-76.5
	c-6,0-11.9-1.6-17.1-4.6c-5.2-3-9.5-7.3-12.5-12.5l-38.3-66.5c-3-5.2-4.6-11.1-4.6-17.1c0-6,1.6-11.9,4.6-17.1l38.3-66.5
	c3-5.2,7.3-9.5,12.5-12.5C101,196,106.9,194.4,112.9,194.4z"/>
<rect x="642.5" y="128.5" class="st2" width="521.8" height="316"/>
<path class="st3" d="M829,199h66.6c0.6,0,1.2,0,1.8,0.1V199H1041v175.3H897.5v-0.1c-0.6,0-1.2,0.1-1.8,0.1H829
	c-5.2,0-10.3-1.4-14.9-4c-4.5-2.6-8.3-6.4-10.9-10.9L770,301.5c-2.6-4.5-4-9.7-4-14.9c0-5.2,1.4-10.4,4-14.9l33.3-57.8
	c2.6-4.5,6.4-8.3,10.9-10.9C818.7,200.4,823.8,199,829,199z"/>
</svg>
