<svg width="1204" height="678" viewBox="0 0 1204 678" fill="none" xmlns="http://www.w3.org/2000/svg">
<rect width="1204" height="677.25" fill="white"/>
<path d="M856.135 581.498L372.438 486.569C345.106 481.205 327.085 454.967 331.888 427.531L394.834 68H856.135V581.498Z" fill="#41A5DD"/>
<rect x="801.182" y="68.4618" width="54.4899" height="512.574" stroke="#D8D8D8" stroke-width="0.923557"/>
<rect x="256.462" y="122.538" width="54.0764" height="599.076" transform="rotate(-90 256.462 122.538)" stroke="#D8D8D8" stroke-width="0.923557"/>
<rect x="256.462" y="232.538" width="89.0764" height="599.076" transform="rotate(-90 256.462 232.538)" stroke="#D8D8D8" stroke-width="0.923557"/>
<rect x="256.462" y="580.538" width="82.0764" height="599.076" transform="rotate(-90 256.462 580.538)" stroke="#D8D8D8" stroke-width="0.923557"/>
<rect x="330.169" y="68.4618" width="109.903" height="512.574" stroke="#D8D8D8" stroke-width="0.923557"/>
<path d="M569.814 619.356C569.814 619.649 569.855 619.912 569.937 620.145C570.023 620.373 570.144 620.567 570.299 620.727C570.458 620.886 570.65 621.007 570.874 621.089C571.103 621.17 571.357 621.211 571.637 621.211C571.947 621.211 572.221 621.162 572.458 621.063C572.699 620.959 572.902 620.823 573.066 620.655C573.23 620.487 573.355 620.293 573.441 620.074C573.527 619.854 573.57 619.625 573.57 619.388C573.57 619.1 573.523 618.839 573.428 618.606C573.337 618.369 573.21 618.169 573.046 618.005C572.883 617.841 572.687 617.716 572.458 617.63C572.234 617.539 571.986 617.494 571.715 617.494C571.43 617.494 571.172 617.541 570.939 617.636C570.706 617.727 570.506 617.854 570.338 618.018C570.17 618.182 570.04 618.378 569.95 618.606C569.859 618.834 569.814 619.084 569.814 619.356ZM572.503 622.207C572.598 622.082 572.687 621.963 572.768 621.851C572.85 621.739 572.928 621.627 573.001 621.515C572.764 621.705 572.497 621.849 572.199 621.948C571.902 622.048 571.587 622.097 571.256 622.097C570.907 622.097 570.575 622.039 570.26 621.923C569.95 621.806 569.676 621.636 569.439 621.412C569.202 621.183 569.012 620.905 568.87 620.578C568.732 620.246 568.663 619.867 568.663 619.44C568.663 619.035 568.739 618.656 568.889 618.302C569.04 617.949 569.251 617.641 569.523 617.378C569.795 617.115 570.118 616.908 570.493 616.757C570.868 616.606 571.279 616.531 571.728 616.531C572.171 616.531 572.574 616.604 572.936 616.751C573.299 616.897 573.609 617.102 573.867 617.365C574.126 617.628 574.324 617.942 574.462 618.309C574.604 618.675 574.676 619.08 574.676 619.524C574.676 619.791 574.65 620.046 574.598 620.287C574.551 620.524 574.479 620.759 574.385 620.992C574.294 621.22 574.182 621.448 574.048 621.677C573.915 621.901 573.764 622.132 573.596 622.369L571.34 625.627C571.284 625.709 571.204 625.776 571.1 625.827C570.997 625.875 570.878 625.898 570.745 625.898H569.685L572.503 622.207ZM578.102 620.132C578.585 620.028 579.029 619.977 579.434 619.977C579.917 619.977 580.343 620.048 580.714 620.19C581.085 620.332 581.393 620.528 581.638 620.778C581.888 621.028 582.076 621.323 582.201 621.664C582.33 622.004 582.395 622.375 582.395 622.776C582.395 623.267 582.309 623.711 582.136 624.108C581.968 624.504 581.733 624.845 581.431 625.129C581.134 625.409 580.783 625.625 580.378 625.776C579.973 625.926 579.535 626.002 579.065 626.002C578.794 626.002 578.533 625.974 578.283 625.918C578.033 625.866 577.798 625.795 577.578 625.704C577.363 625.614 577.162 625.511 576.977 625.394C576.792 625.278 576.628 625.155 576.486 625.026L576.841 624.534C576.919 624.422 577.02 624.366 577.145 624.366C577.231 624.366 577.328 624.401 577.436 624.47C577.544 624.534 577.675 624.608 577.831 624.69C577.986 624.771 578.167 624.847 578.374 624.916C578.585 624.98 578.835 625.013 579.123 625.013C579.447 625.013 579.738 624.961 579.996 624.858C580.255 624.754 580.477 624.608 580.662 624.418C580.847 624.224 580.99 623.993 581.089 623.726C581.188 623.459 581.238 623.159 581.238 622.828C581.238 622.539 581.194 622.278 581.108 622.045C581.026 621.813 580.899 621.614 580.727 621.451C580.559 621.287 580.348 621.16 580.093 621.069C579.839 620.979 579.542 620.933 579.201 620.933C578.968 620.933 578.725 620.953 578.471 620.992C578.221 621.03 577.964 621.093 577.701 621.179L576.977 620.966L577.721 616.634H582.11V617.138C582.11 617.302 582.059 617.438 581.955 617.546C581.856 617.649 581.684 617.701 581.438 617.701H578.529L578.102 620.132ZM588.207 618.871C588.207 619.233 588.151 619.559 588.039 619.847C587.927 620.132 587.776 620.373 587.586 620.571C587.401 620.765 587.183 620.914 586.933 621.017C586.687 621.121 586.427 621.173 586.151 621.173C585.862 621.173 585.593 621.121 585.343 621.017C585.093 620.914 584.875 620.765 584.69 620.571C584.509 620.373 584.367 620.132 584.263 619.847C584.16 619.559 584.108 619.233 584.108 618.871C584.108 618.5 584.16 618.171 584.263 617.882C584.367 617.593 584.509 617.35 584.69 617.151C584.875 616.953 585.093 616.802 585.343 616.699C585.593 616.595 585.862 616.544 586.151 616.544C586.444 616.544 586.716 616.595 586.965 616.699C587.215 616.802 587.433 616.953 587.618 617.151C587.804 617.35 587.948 617.593 588.052 617.882C588.155 618.171 588.207 618.5 588.207 618.871ZM587.315 618.871C587.315 618.587 587.284 618.345 587.224 618.147C587.164 617.949 587.08 617.787 586.972 617.662C586.869 617.533 586.746 617.44 586.603 617.384C586.461 617.328 586.31 617.3 586.151 617.3C585.991 617.3 585.843 617.328 585.705 617.384C585.567 617.44 585.446 617.533 585.343 617.662C585.239 617.787 585.157 617.949 585.097 618.147C585.037 618.345 585.007 618.587 585.007 618.871C585.007 619.151 585.037 619.39 585.097 619.589C585.157 619.783 585.239 619.942 585.343 620.067C585.446 620.188 585.567 620.276 585.705 620.332C585.843 620.384 585.991 620.41 586.151 620.41C586.31 620.41 586.461 620.384 586.603 620.332C586.746 620.276 586.869 620.188 586.972 620.067C587.08 619.942 587.164 619.783 587.224 619.589C587.284 619.39 587.315 619.151 587.315 618.871ZM591.484 616.828C591.528 616.776 591.577 616.731 591.633 616.692C591.693 616.654 591.773 616.634 591.872 616.634H592.706L585.931 625.711C585.892 625.767 585.843 625.812 585.782 625.847C585.722 625.881 585.649 625.898 585.563 625.898H584.716L591.484 616.828ZM593.333 623.713C593.333 624.075 593.277 624.399 593.165 624.683C593.053 624.967 592.902 625.209 592.713 625.407C592.527 625.601 592.31 625.75 592.06 625.853C591.814 625.957 591.553 626.008 591.278 626.008C590.985 626.008 590.713 625.957 590.463 625.853C590.217 625.75 590.002 625.601 589.817 625.407C589.635 625.209 589.493 624.967 589.39 624.683C589.286 624.399 589.235 624.075 589.235 623.713C589.235 623.343 589.286 623.013 589.39 622.724C589.493 622.431 589.635 622.185 589.817 621.987C590.002 621.789 590.217 621.638 590.463 621.535C590.713 621.431 590.985 621.379 591.278 621.379C591.566 621.379 591.836 621.431 592.086 621.535C592.34 621.638 592.558 621.789 592.739 621.987C592.924 622.185 593.068 622.431 593.172 622.724C593.28 623.013 593.333 623.343 593.333 623.713ZM592.441 623.713C592.441 623.429 592.411 623.187 592.351 622.989C592.29 622.787 592.206 622.623 592.099 622.498C591.995 622.373 591.872 622.282 591.73 622.226C591.588 622.17 591.437 622.142 591.278 622.142C591.118 622.142 590.967 622.17 590.825 622.226C590.687 622.282 590.566 622.373 590.463 622.498C590.36 622.623 590.278 622.787 590.217 622.989C590.161 623.187 590.133 623.429 590.133 623.713C590.133 623.993 590.161 624.23 590.217 624.424C590.278 624.618 590.36 624.778 590.463 624.903C590.566 625.024 590.687 625.112 590.825 625.168C590.967 625.22 591.118 625.245 591.278 625.245C591.437 625.245 591.588 625.22 591.73 625.168C591.872 625.112 591.995 625.024 592.099 624.903C592.206 624.778 592.29 624.618 592.351 624.424C592.411 624.23 592.441 623.993 592.441 623.713ZM601.44 619.246C601.918 619.246 602.349 619.326 602.733 619.485C603.117 619.645 603.444 619.871 603.716 620.164C603.987 620.457 604.194 620.813 604.336 621.231C604.483 621.645 604.556 622.108 604.556 622.621C604.556 623.138 604.483 623.603 604.336 624.017C604.194 624.431 603.987 624.784 603.716 625.077C603.444 625.37 603.117 625.597 602.733 625.756C602.349 625.911 601.918 625.989 601.44 625.989C600.957 625.989 600.522 625.911 600.134 625.756C599.751 625.597 599.423 625.37 599.151 625.077C598.88 624.784 598.671 624.431 598.524 624.017C598.382 623.603 598.311 623.138 598.311 622.621C598.311 622.108 598.382 621.645 598.524 621.231C598.671 620.813 598.88 620.457 599.151 620.164C599.423 619.871 599.751 619.645 600.134 619.485C600.522 619.326 600.957 619.246 601.44 619.246ZM601.44 625.09C602.087 625.09 602.569 624.875 602.888 624.444C603.207 624.009 603.367 623.403 603.367 622.627C603.367 621.847 603.207 621.239 602.888 620.804C602.569 620.369 602.087 620.151 601.44 620.151C601.113 620.151 600.826 620.207 600.58 620.319C600.339 620.431 600.136 620.593 599.973 620.804C599.813 621.015 599.692 621.276 599.61 621.586C599.533 621.892 599.494 622.239 599.494 622.627C599.494 623.403 599.654 624.009 599.973 624.444C600.296 624.875 600.785 625.09 601.44 625.09ZM606.581 625.898V620.332L605.856 620.248C605.766 620.227 605.691 620.194 605.63 620.151C605.574 620.104 605.546 620.037 605.546 619.951V619.479H606.581V618.845C606.581 618.47 606.632 618.138 606.736 617.85C606.843 617.557 606.994 617.311 607.188 617.113C607.387 616.91 607.624 616.757 607.899 616.654C608.175 616.55 608.486 616.498 608.83 616.498C609.123 616.498 609.393 616.542 609.638 616.628L609.613 617.203C609.604 617.307 609.546 617.363 609.438 617.371C609.335 617.38 609.195 617.384 609.018 617.384C608.82 617.384 608.639 617.41 608.475 617.462C608.315 617.513 608.177 617.598 608.061 617.714C607.945 617.83 607.854 617.983 607.789 618.173C607.729 618.363 607.699 618.597 607.699 618.878V619.479H609.587V620.313H607.738V625.898H606.581ZM615.402 620.662C615.609 620.214 615.863 619.865 616.165 619.615C616.466 619.36 616.835 619.233 617.27 619.233C617.408 619.233 617.54 619.248 617.665 619.278C617.794 619.309 617.908 619.356 618.007 619.421L617.923 620.28C617.897 620.388 617.833 620.442 617.729 620.442C617.669 620.442 617.581 620.429 617.464 620.403C617.348 620.377 617.216 620.364 617.07 620.364C616.863 620.364 616.678 620.395 616.514 620.455C616.354 620.515 616.21 620.606 616.081 620.727C615.956 620.843 615.841 620.989 615.738 621.166C615.639 621.339 615.548 621.537 615.467 621.761V625.898H614.309V619.349H614.969C615.094 619.349 615.18 619.373 615.227 619.421C615.275 619.468 615.307 619.55 615.324 619.666L615.402 620.662Z" fill="black"/>
<path d="M366.564 656.207C366.689 656.207 366.789 656.244 366.862 656.317C366.935 656.39 366.972 656.485 366.972 656.602V657.3H360.791V656.905C360.791 656.824 360.809 656.74 360.843 656.653C360.877 656.567 360.931 656.487 361.005 656.414L363.972 653.434C364.218 653.184 364.442 652.945 364.644 652.716C364.847 652.483 365.019 652.251 365.162 652.018C365.304 651.785 365.414 651.55 365.491 651.313C365.569 651.072 365.608 650.816 365.608 650.544C365.608 650.272 365.565 650.035 365.478 649.833C365.392 649.626 365.274 649.456 365.123 649.322C364.976 649.189 364.802 649.089 364.599 649.025C364.397 648.956 364.179 648.921 363.946 648.921C363.709 648.921 363.491 648.956 363.293 649.025C363.095 649.094 362.918 649.191 362.763 649.316C362.612 649.436 362.485 649.581 362.382 649.749C362.278 649.917 362.205 650.102 362.162 650.305C362.11 650.456 362.039 650.557 361.949 650.609C361.862 650.656 361.739 650.669 361.58 650.647L360.979 650.544C361.039 650.122 361.155 649.749 361.328 649.426C361.505 649.098 361.724 648.824 361.987 648.605C362.255 648.385 362.558 648.219 362.899 648.107C363.239 647.99 363.608 647.932 364.004 647.932C364.397 647.932 364.763 647.99 365.103 648.107C365.444 648.223 365.739 648.393 365.989 648.617C366.239 648.837 366.435 649.107 366.577 649.426C366.72 649.744 366.791 650.107 366.791 650.512C366.791 650.856 366.739 651.178 366.636 651.475C366.532 651.768 366.392 652.048 366.215 652.315C366.039 652.583 365.834 652.843 365.601 653.098C365.373 653.352 365.129 653.608 364.871 653.867L362.427 656.362C362.599 656.315 362.774 656.278 362.951 656.252C363.127 656.222 363.298 656.207 363.461 656.207H366.564ZM375.072 652.671C375.072 653.481 374.984 654.184 374.807 654.778C374.635 655.369 374.398 655.858 374.096 656.246C373.794 656.634 373.437 656.923 373.023 657.112C372.614 657.302 372.174 657.397 371.704 657.397C371.23 657.397 370.788 657.302 370.379 657.112C369.974 656.923 369.62 656.634 369.319 656.246C369.017 655.858 368.78 655.369 368.607 654.778C368.435 654.184 368.349 653.481 368.349 652.671C368.349 651.861 368.435 651.158 368.607 650.563C368.78 649.969 369.017 649.477 369.319 649.089C369.62 648.697 369.974 648.406 370.379 648.217C370.788 648.027 371.23 647.932 371.704 647.932C372.174 647.932 372.614 648.027 373.023 648.217C373.437 648.406 373.794 648.697 374.096 649.089C374.398 649.477 374.635 649.969 374.807 650.563C374.984 651.158 375.072 651.861 375.072 652.671ZM373.876 652.671C373.876 651.964 373.816 651.371 373.695 650.893C373.579 650.41 373.419 650.022 373.217 649.729C373.019 649.436 372.788 649.227 372.525 649.102C372.262 648.973 371.989 648.908 371.704 648.908C371.42 648.908 371.146 648.973 370.883 649.102C370.62 649.227 370.39 649.436 370.191 649.729C369.993 650.022 369.834 650.41 369.713 650.893C369.597 651.371 369.538 651.964 369.538 652.671C369.538 653.378 369.597 653.97 369.713 654.449C369.834 654.927 369.993 655.313 370.191 655.606C370.39 655.899 370.62 656.11 370.883 656.24C371.146 656.365 371.42 656.427 371.704 656.427C371.989 656.427 372.262 656.365 372.525 656.24C372.788 656.11 373.019 655.899 373.217 655.606C373.419 655.313 373.579 654.927 373.695 654.449C373.816 653.97 373.876 653.378 373.876 652.671ZM380.406 650.272C380.406 650.634 380.35 650.96 380.238 651.249C380.126 651.533 379.975 651.774 379.785 651.973C379.6 652.167 379.382 652.315 379.132 652.419C378.887 652.522 378.626 652.574 378.35 652.574C378.061 652.574 377.792 652.522 377.542 652.419C377.292 652.315 377.074 652.167 376.889 651.973C376.708 651.774 376.566 651.533 376.462 651.249C376.359 650.96 376.307 650.634 376.307 650.272C376.307 649.902 376.359 649.572 376.462 649.283C376.566 648.995 376.708 648.751 376.889 648.553C377.074 648.355 377.292 648.204 377.542 648.1C377.792 647.997 378.061 647.945 378.35 647.945C378.643 647.945 378.915 647.997 379.165 648.1C379.415 648.204 379.632 648.355 379.818 648.553C380.003 648.751 380.147 648.995 380.251 649.283C380.354 649.572 380.406 649.902 380.406 650.272ZM379.514 650.272C379.514 649.988 379.484 649.747 379.423 649.548C379.363 649.35 379.279 649.189 379.171 649.064C379.068 648.934 378.945 648.842 378.803 648.786C378.66 648.73 378.51 648.701 378.35 648.701C378.191 648.701 378.042 648.73 377.904 648.786C377.766 648.842 377.645 648.934 377.542 649.064C377.439 649.189 377.357 649.35 377.296 649.548C377.236 649.747 377.206 649.988 377.206 650.272C377.206 650.553 377.236 650.792 377.296 650.99C377.357 651.184 377.439 651.343 377.542 651.468C377.645 651.589 377.766 651.677 377.904 651.734C378.042 651.785 378.191 651.811 378.35 651.811C378.51 651.811 378.66 651.785 378.803 651.734C378.945 651.677 379.068 651.589 379.171 651.468C379.279 651.343 379.363 651.184 379.423 650.99C379.484 650.792 379.514 650.553 379.514 650.272ZM383.684 648.23C383.727 648.178 383.776 648.133 383.832 648.094C383.893 648.055 383.972 648.036 384.072 648.036H384.906L378.13 657.112C378.092 657.168 378.042 657.214 377.982 657.248C377.921 657.283 377.848 657.3 377.762 657.3H376.915L383.684 648.23ZM385.533 655.115C385.533 655.477 385.477 655.8 385.365 656.084C385.252 656.369 385.102 656.61 384.912 656.808C384.727 657.002 384.509 657.151 384.259 657.255C384.013 657.358 383.753 657.41 383.477 657.41C383.184 657.41 382.912 657.358 382.662 657.255C382.417 657.151 382.201 657.002 382.016 656.808C381.835 656.61 381.692 656.369 381.589 656.084C381.486 655.8 381.434 655.477 381.434 655.115C381.434 654.744 381.486 654.414 381.589 654.126C381.692 653.832 381.835 653.587 382.016 653.389C382.201 653.19 382.417 653.039 382.662 652.936C382.912 652.833 383.184 652.781 383.477 652.781C383.766 652.781 384.035 652.833 384.285 652.936C384.539 653.039 384.757 653.19 384.938 653.389C385.123 653.587 385.268 653.832 385.371 654.126C385.479 654.414 385.533 654.744 385.533 655.115ZM384.64 655.115C384.64 654.83 384.61 654.589 384.55 654.391C384.49 654.188 384.406 654.024 384.298 653.899C384.194 653.774 384.072 653.684 383.929 653.628C383.787 653.572 383.636 653.544 383.477 653.544C383.317 653.544 383.166 653.572 383.024 653.628C382.886 653.684 382.766 653.774 382.662 653.899C382.559 654.024 382.477 654.188 382.417 654.391C382.361 654.589 382.333 654.83 382.333 655.115C382.333 655.395 382.361 655.632 382.417 655.826C382.477 656.02 382.559 656.179 382.662 656.304C382.766 656.425 382.886 656.513 383.024 656.569C383.166 656.621 383.317 656.647 383.477 656.647C383.636 656.647 383.787 656.621 383.929 656.569C384.072 656.513 384.194 656.425 384.298 656.304C384.406 656.179 384.49 656.02 384.55 655.826C384.61 655.632 384.64 655.395 384.64 655.115ZM393.639 650.647C394.118 650.647 394.549 650.727 394.932 650.887C395.316 651.046 395.643 651.272 395.915 651.565C396.186 651.859 396.393 652.214 396.536 652.632C396.682 653.046 396.755 653.509 396.755 654.022C396.755 654.539 396.682 655.005 396.536 655.419C396.393 655.832 396.186 656.186 395.915 656.479C395.643 656.772 395.316 656.998 394.932 657.158C394.549 657.313 394.118 657.39 393.639 657.39C393.157 657.39 392.721 657.313 392.333 657.158C391.95 656.998 391.622 656.772 391.351 656.479C391.079 656.186 390.87 655.832 390.724 655.419C390.581 655.005 390.51 654.539 390.51 654.022C390.51 653.509 390.581 653.046 390.724 652.632C390.87 652.214 391.079 651.859 391.351 651.565C391.622 651.272 391.95 651.046 392.333 650.887C392.721 650.727 393.157 650.647 393.639 650.647ZM393.639 656.492C394.286 656.492 394.768 656.276 395.087 655.845C395.406 655.41 395.566 654.804 395.566 654.029C395.566 653.248 395.406 652.641 395.087 652.205C394.768 651.77 394.286 651.553 393.639 651.553C393.312 651.553 393.025 651.609 392.779 651.721C392.538 651.833 392.336 651.994 392.172 652.205C392.012 652.417 391.892 652.677 391.81 652.988C391.732 653.294 391.693 653.641 391.693 654.029C391.693 654.804 391.853 655.41 392.172 655.845C392.495 656.276 392.984 656.492 393.639 656.492ZM398.78 657.3V651.734L398.056 651.649C397.965 651.628 397.89 651.596 397.829 651.553C397.773 651.505 397.745 651.438 397.745 651.352V650.88H398.78V650.247C398.78 649.872 398.831 649.54 398.935 649.251C399.043 648.958 399.194 648.712 399.387 648.514C399.586 648.311 399.823 648.158 400.099 648.055C400.374 647.952 400.685 647.9 401.03 647.9C401.323 647.9 401.592 647.943 401.838 648.029L401.812 648.605C401.803 648.708 401.745 648.764 401.637 648.773C401.534 648.781 401.394 648.786 401.217 648.786C401.019 648.786 400.838 648.811 400.674 648.863C400.515 648.915 400.377 648.999 400.26 649.115C400.144 649.232 400.053 649.385 399.989 649.574C399.928 649.764 399.898 649.999 399.898 650.279V650.88H401.786V651.714H399.937V657.3H398.78ZM407.601 652.063C407.808 651.615 408.062 651.266 408.364 651.016C408.666 650.762 409.034 650.634 409.469 650.634C409.607 650.634 409.739 650.65 409.864 650.68C409.993 650.71 410.107 650.757 410.206 650.822L410.122 651.682C410.097 651.79 410.032 651.843 409.928 651.843C409.868 651.843 409.78 651.831 409.663 651.805C409.547 651.779 409.416 651.766 409.269 651.766C409.062 651.766 408.877 651.796 408.713 651.856C408.554 651.917 408.409 652.007 408.28 652.128C408.155 652.244 408.041 652.391 407.937 652.567C407.838 652.74 407.748 652.938 407.666 653.162V657.3H406.509V650.751H407.168C407.293 650.751 407.379 650.775 407.427 650.822C407.474 650.869 407.506 650.951 407.524 651.068L407.601 652.063Z" fill="black"/>
<line y1="-0.461778" x2="12.9298" y2="-0.461778" transform="matrix(-3.33216e-06 1 -1 -2.29363e-09 856.135 590.733)" stroke="black" stroke-width="0.923557"/>
<line x1="330.169" y1="590.733" x2="330.169" y2="603.663" stroke="black" stroke-width="0.923557"/>
<line x1="329.707" y1="603.201" x2="856.134" y2="603.201" stroke="black" stroke-width="0.923557"/>
<path d="M556.047 25.7634C556.254 25.3152 556.508 24.9661 556.81 24.7161C557.112 24.4618 557.48 24.3347 557.915 24.3347C558.053 24.3347 558.185 24.3498 558.31 24.3799C558.439 24.4101 558.553 24.4575 558.652 24.5222L558.568 25.382C558.542 25.4898 558.478 25.5436 558.374 25.5436C558.314 25.5436 558.226 25.5307 558.109 25.5048C557.993 25.479 557.862 25.466 557.715 25.466C557.508 25.466 557.323 25.4962 557.159 25.5566C557 25.6169 556.855 25.7074 556.726 25.8281C556.601 25.9444 556.487 26.091 556.383 26.2677C556.284 26.4401 556.194 26.6383 556.112 26.8625V31H554.954V24.4511H555.614C555.739 24.4511 555.825 24.4748 555.872 24.5222C555.92 24.5696 555.952 24.6515 555.969 24.7678L556.047 25.7634Z" fill="black"/>
<line y1="-0.486083" x2="13.6103" y2="-0.486083" transform="matrix(3.60877e-06 -1 1 2.11782e-09 256 57.6104)" stroke="black" stroke-width="0.972166"/>
<line x1="855.649" y1="57.6104" x2="855.649" y2="44" stroke="black" stroke-width="0.972166"/>
<line x1="856.135" y1="44.4861" x2="256" y2="44.4861" stroke="black" stroke-width="0.972166"/>
<line x1="440.995" y1="622.134" x2="440.995" y2="635.064" stroke="black" stroke-width="0.923557"/>
<line x1="330.169" y1="622.134" x2="330.169" y2="635.064" stroke="black" stroke-width="0.923557"/>
<line x1="329.707" y1="634.603" x2="440.534" y2="634.603" stroke="black" stroke-width="0.923557"/>
<path d="M895.581 544.121V545H890.616V544.121H892.601V537.805C892.601 537.615 892.607 537.423 892.62 537.229L890.972 538.645C890.916 538.692 890.86 538.723 890.804 538.736C890.748 538.744 890.696 538.744 890.649 538.736C890.601 538.727 890.556 538.71 890.513 538.684C890.474 538.658 890.444 538.63 890.422 538.6L890.06 538.102L892.821 535.716H893.758V544.121H895.581ZM899.118 539.233C899.6 539.13 900.044 539.078 900.449 539.078C900.932 539.078 901.359 539.149 901.729 539.291C902.1 539.434 902.408 539.63 902.654 539.88C902.904 540.13 903.091 540.425 903.216 540.765C903.346 541.106 903.41 541.477 903.41 541.877C903.41 542.369 903.324 542.813 903.152 543.209C902.984 543.606 902.749 543.946 902.447 544.231C902.15 544.511 901.798 544.726 901.393 544.877C900.988 545.028 900.551 545.103 900.081 545.103C899.809 545.103 899.549 545.075 899.299 545.019C899.049 544.968 898.814 544.897 898.594 544.806C898.378 544.716 898.178 544.612 897.993 544.496C897.807 544.379 897.644 544.257 897.501 544.127L897.857 543.636C897.935 543.524 898.036 543.468 898.161 543.468C898.247 543.468 898.344 543.502 898.452 543.571C898.56 543.636 898.691 543.709 898.846 543.791C899.001 543.873 899.182 543.948 899.389 544.017C899.6 544.082 899.85 544.114 900.139 544.114C900.462 544.114 900.753 544.063 901.012 543.959C901.27 543.856 901.492 543.709 901.678 543.52C901.863 543.326 902.005 543.095 902.104 542.828C902.204 542.561 902.253 542.261 902.253 541.929C902.253 541.64 902.21 541.38 902.124 541.147C902.042 540.914 901.915 540.716 901.742 540.552C901.574 540.388 901.363 540.261 901.109 540.171C900.855 540.08 900.557 540.035 900.217 540.035C899.984 540.035 899.74 540.054 899.486 540.093C899.236 540.132 898.98 540.194 898.717 540.281L897.993 540.067L898.736 535.736H903.126V536.24C903.126 536.404 903.074 536.54 902.971 536.647C902.872 536.751 902.699 536.803 902.454 536.803H899.544L899.118 539.233ZM909.222 537.973C909.222 538.335 909.166 538.66 909.054 538.949C908.942 539.233 908.791 539.475 908.602 539.673C908.416 539.867 908.199 540.016 907.949 540.119C907.703 540.222 907.442 540.274 907.167 540.274C906.878 540.274 906.608 540.222 906.358 540.119C906.108 540.016 905.891 539.867 905.705 539.673C905.524 539.475 905.382 539.233 905.279 538.949C905.175 538.66 905.124 538.335 905.124 537.973C905.124 537.602 905.175 537.272 905.279 536.984C905.382 536.695 905.524 536.451 905.705 536.253C905.891 536.055 906.108 535.904 906.358 535.8C906.608 535.697 906.878 535.645 907.167 535.645C907.46 535.645 907.731 535.697 907.981 535.8C908.231 535.904 908.449 536.055 908.634 536.253C908.819 536.451 908.964 536.695 909.067 536.984C909.171 537.272 909.222 537.602 909.222 537.973ZM908.33 537.973C908.33 537.688 908.3 537.447 908.24 537.249C908.179 537.05 908.095 536.889 907.988 536.764C907.884 536.634 907.761 536.542 907.619 536.486C907.477 536.43 907.326 536.402 907.167 536.402C907.007 536.402 906.858 536.43 906.72 536.486C906.583 536.542 906.462 536.634 906.358 536.764C906.255 536.889 906.173 537.05 906.113 537.249C906.052 537.447 906.022 537.688 906.022 537.973C906.022 538.253 906.052 538.492 906.113 538.69C906.173 538.884 906.255 539.044 906.358 539.169C906.462 539.289 906.583 539.378 906.72 539.434C906.858 539.485 907.007 539.511 907.167 539.511C907.326 539.511 907.477 539.485 907.619 539.434C907.761 539.378 907.884 539.289 907.988 539.169C908.095 539.044 908.179 538.884 908.24 538.69C908.3 538.492 908.33 538.253 908.33 537.973ZM912.5 535.93C912.543 535.878 912.593 535.833 912.649 535.794C912.709 535.755 912.789 535.736 912.888 535.736H913.722L906.947 544.813C906.908 544.869 906.858 544.914 906.798 544.948C906.738 544.983 906.664 545 906.578 545H905.731L912.5 535.93ZM914.349 542.815C914.349 543.177 914.293 543.5 914.181 543.785C914.069 544.069 913.918 544.31 913.728 544.509C913.543 544.703 913.325 544.851 913.075 544.955C912.83 545.058 912.569 545.11 912.293 545.11C912 545.11 911.729 545.058 911.479 544.955C911.233 544.851 911.017 544.703 910.832 544.509C910.651 544.31 910.509 544.069 910.405 543.785C910.302 543.5 910.25 543.177 910.25 542.815C910.25 542.444 910.302 542.115 910.405 541.826C910.509 541.533 910.651 541.287 910.832 541.089C911.017 540.89 911.233 540.74 911.479 540.636C911.729 540.533 912 540.481 912.293 540.481C912.582 540.481 912.851 540.533 913.101 540.636C913.356 540.74 913.573 540.89 913.754 541.089C913.94 541.287 914.084 541.533 914.187 541.826C914.295 542.115 914.349 542.444 914.349 542.815ZM913.457 542.815C913.457 542.53 913.427 542.289 913.366 542.091C913.306 541.888 913.222 541.724 913.114 541.599C913.011 541.474 912.888 541.384 912.746 541.328C912.604 541.272 912.453 541.244 912.293 541.244C912.134 541.244 911.983 541.272 911.841 541.328C911.703 541.384 911.582 541.474 911.479 541.599C911.375 541.724 911.293 541.888 911.233 542.091C911.177 542.289 911.149 542.53 911.149 542.815C911.149 543.095 911.177 543.332 911.233 543.526C911.293 543.72 911.375 543.879 911.479 544.004C911.582 544.125 911.703 544.213 911.841 544.269C911.983 544.321 912.134 544.347 912.293 544.347C912.453 544.347 912.604 544.321 912.746 544.269C912.888 544.213 913.011 544.125 913.114 544.004C913.222 543.879 913.306 543.72 913.366 543.526C913.427 543.332 913.457 543.095 913.457 542.815ZM922.456 538.348C922.934 538.348 923.365 538.427 923.749 538.587C924.132 538.746 924.46 538.973 924.731 539.266C925.003 539.559 925.21 539.914 925.352 540.332C925.499 540.746 925.572 541.209 925.572 541.722C925.572 542.239 925.499 542.705 925.352 543.119C925.21 543.532 925.003 543.886 924.731 544.179C924.46 544.472 924.132 544.698 923.749 544.858C923.365 545.013 922.934 545.091 922.456 545.091C921.973 545.091 921.538 545.013 921.15 544.858C920.766 544.698 920.439 544.472 920.167 544.179C919.896 543.886 919.687 543.532 919.54 543.119C919.398 542.705 919.327 542.239 919.327 541.722C919.327 541.209 919.398 540.746 919.54 540.332C919.687 539.914 919.896 539.559 920.167 539.266C920.439 538.973 920.766 538.746 921.15 538.587C921.538 538.427 921.973 538.348 922.456 538.348ZM922.456 544.192C923.102 544.192 923.585 543.976 923.904 543.545C924.223 543.11 924.382 542.505 924.382 541.729C924.382 540.949 924.223 540.341 923.904 539.906C923.585 539.47 923.102 539.253 922.456 539.253C922.128 539.253 921.842 539.309 921.596 539.421C921.355 539.533 921.152 539.694 920.988 539.906C920.829 540.117 920.708 540.378 920.626 540.688C920.549 540.994 920.51 541.341 920.51 541.729C920.51 542.505 920.669 543.11 920.988 543.545C921.311 543.976 921.801 544.192 922.456 544.192ZM927.596 545V539.434L926.872 539.35C926.782 539.328 926.706 539.296 926.646 539.253C926.59 539.205 926.562 539.138 926.562 539.052V538.58H927.596V537.947C927.596 537.572 927.648 537.24 927.751 536.951C927.859 536.658 928.01 536.412 928.204 536.214C928.402 536.012 928.639 535.859 928.915 535.755C929.191 535.652 929.501 535.6 929.846 535.6C930.139 535.6 930.408 535.643 930.654 535.729L930.628 536.305C930.62 536.408 930.561 536.464 930.454 536.473C930.35 536.481 930.21 536.486 930.033 536.486C929.835 536.486 929.654 536.512 929.49 536.563C929.331 536.615 929.193 536.699 929.077 536.815C928.96 536.932 928.87 537.085 928.805 537.274C928.745 537.464 928.715 537.699 928.715 537.979V538.58H930.602V539.414H928.753V545H927.596ZM936.418 539.763C936.624 539.315 936.879 538.966 937.18 538.716C937.482 538.462 937.851 538.335 938.286 538.335C938.424 538.335 938.555 538.35 938.68 538.38C938.81 538.41 938.924 538.458 939.023 538.522L938.939 539.382C938.913 539.49 938.848 539.544 938.745 539.544C938.685 539.544 938.596 539.531 938.48 539.505C938.363 539.479 938.232 539.466 938.085 539.466C937.879 539.466 937.693 539.496 937.529 539.557C937.37 539.617 937.226 539.707 937.096 539.828C936.971 539.944 936.857 540.091 936.754 540.268C936.655 540.44 936.564 540.638 936.482 540.862V545H935.325V538.451H935.984C936.109 538.451 936.196 538.475 936.243 538.522C936.29 538.57 936.323 538.651 936.34 538.768L936.418 539.763Z" fill="black"/>
<line x1="866" y1="497.538" x2="878.93" y2="497.538" stroke="black" stroke-width="0.923557"/>
<line x1="866" y1="580.538" x2="878.93" y2="580.538" stroke="black" stroke-width="0.923557"/>
<line x1="878.468" y1="581" x2="878.468" y2="498" stroke="black" stroke-width="0.923557"/>
<path d="M895.581 100.121V101H890.616V100.121H892.601V93.8046C892.601 93.6149 892.607 93.4231 892.62 93.2292L890.972 94.645C890.916 94.6924 890.86 94.7226 890.804 94.7355C890.748 94.7441 890.696 94.7441 890.649 94.7355C890.601 94.7269 890.556 94.7097 890.513 94.6838C890.474 94.6579 890.444 94.6299 890.422 94.5997L890.06 94.102L892.821 91.7164H893.758V100.121H895.581ZM903.889 96.3711C903.889 97.1814 903.8 97.8839 903.624 98.4787C903.451 99.0692 903.214 99.5583 902.913 99.9462C902.611 100.334 902.253 100.623 901.839 100.813C901.43 101.002 900.99 101.097 900.521 101.097C900.046 101.097 899.605 101.002 899.195 100.813C898.79 100.623 898.437 100.334 898.135 99.9462C897.833 99.5583 897.596 99.0692 897.424 98.4787C897.251 97.8839 897.165 97.1814 897.165 96.3711C897.165 95.5609 897.251 94.8583 897.424 94.2636C897.596 93.6688 897.833 93.1775 898.135 92.7896C898.437 92.3974 898.79 92.1065 899.195 91.9168C899.605 91.7272 900.046 91.6324 900.521 91.6324C900.99 91.6324 901.43 91.7272 901.839 91.9168C902.253 92.1065 902.611 92.3974 902.913 92.7896C903.214 93.1775 903.451 93.6688 903.624 94.2636C903.8 94.8583 903.889 95.5609 903.889 96.3711ZM902.693 96.3711C902.693 95.6643 902.632 95.0717 902.512 94.5933C902.395 94.1106 902.236 93.7227 902.033 93.4296C901.835 93.1365 901.604 92.9275 901.342 92.8025C901.079 92.6732 900.805 92.6086 900.521 92.6086C900.236 92.6086 899.962 92.6732 899.699 92.8025C899.437 92.9275 899.206 93.1365 899.008 93.4296C898.809 93.7227 898.65 94.1106 898.529 94.5933C898.413 95.0717 898.355 95.6643 898.355 96.3711C898.355 97.078 898.413 97.6706 898.529 98.149C898.65 98.6274 898.809 99.0131 899.008 99.3062C899.206 99.5993 899.437 99.8105 899.699 99.9398C899.962 100.065 900.236 100.127 900.521 100.127C900.805 100.127 901.079 100.065 901.342 99.9398C901.604 99.8105 901.835 99.5993 902.033 99.3062C902.236 99.0131 902.395 98.6274 902.512 98.149C902.632 97.6706 902.693 97.078 902.693 96.3711ZM909.222 93.9727C909.222 94.3347 909.166 94.6601 909.054 94.9489C908.942 95.2333 908.791 95.4747 908.602 95.6729C908.416 95.8669 908.199 96.0156 907.949 96.119C907.703 96.2224 907.442 96.2742 907.167 96.2742C906.878 96.2742 906.608 96.2224 906.358 96.119C906.108 96.0156 905.891 95.8669 905.705 95.6729C905.524 95.4747 905.382 95.2333 905.279 94.9489C905.175 94.6601 905.124 94.3347 905.124 93.9727C905.124 93.602 905.175 93.2723 905.279 92.9835C905.382 92.6948 905.524 92.4512 905.705 92.253C905.891 92.0547 906.108 91.9039 906.358 91.8004C906.608 91.697 906.878 91.6453 907.167 91.6453C907.46 91.6453 907.731 91.697 907.981 91.8004C908.231 91.9039 908.449 92.0547 908.634 92.253C908.819 92.4512 908.964 92.6948 909.067 92.9835C909.171 93.2723 909.222 93.602 909.222 93.9727ZM908.33 93.9727C908.33 93.6882 908.3 93.4468 908.24 93.2486C908.179 93.0503 908.095 92.8887 907.988 92.7637C907.884 92.6344 907.761 92.5418 907.619 92.4857C907.477 92.4297 907.326 92.4017 907.167 92.4017C907.007 92.4017 906.858 92.4297 906.72 92.4857C906.583 92.5418 906.462 92.6344 906.358 92.7637C906.255 92.8887 906.173 93.0503 906.113 93.2486C906.052 93.4468 906.022 93.6882 906.022 93.9727C906.022 94.2528 906.052 94.492 906.113 94.6903C906.173 94.8842 906.255 95.0437 906.358 95.1687C906.462 95.2893 906.583 95.3777 906.72 95.4337C906.858 95.4854 907.007 95.5113 907.167 95.5113C907.326 95.5113 907.477 95.4854 907.619 95.4337C907.761 95.3777 907.884 95.2893 907.988 95.1687C908.095 95.0437 908.179 94.8842 908.24 94.6903C908.3 94.492 908.33 94.2528 908.33 93.9727ZM912.5 91.9297C912.543 91.878 912.593 91.8328 912.649 91.794C912.709 91.7552 912.789 91.7358 912.888 91.7358H913.722L906.947 100.813C906.908 100.869 906.858 100.914 906.798 100.948C906.738 100.983 906.664 101 906.578 101H905.731L912.5 91.9297ZM914.349 98.8149C914.349 99.1769 914.293 99.5001 914.181 99.7846C914.069 100.069 913.918 100.31 913.728 100.509C913.543 100.703 913.325 100.851 913.075 100.955C912.83 101.058 912.569 101.11 912.293 101.11C912 101.11 911.729 101.058 911.479 100.955C911.233 100.851 911.017 100.703 910.832 100.509C910.651 100.31 910.509 100.069 910.405 99.7846C910.302 99.5001 910.25 99.1769 910.25 98.8149C910.25 98.4442 910.302 98.1145 910.405 97.8257C910.509 97.5327 910.651 97.287 910.832 97.0887C911.017 96.8905 911.233 96.7396 911.479 96.6362C911.729 96.5328 912 96.481 912.293 96.481C912.582 96.481 912.851 96.5328 913.101 96.6362C913.356 96.7396 913.573 96.8905 913.754 97.0887C913.94 97.287 914.084 97.5327 914.187 97.8257C914.295 98.1145 914.349 98.4442 914.349 98.8149ZM913.457 98.8149C913.457 98.5304 913.427 98.2891 913.366 98.0908C913.306 97.8882 913.222 97.7245 913.114 97.5995C913.011 97.4745 912.888 97.384 912.746 97.3279C912.604 97.2719 912.453 97.2439 912.293 97.2439C912.134 97.2439 911.983 97.2719 911.841 97.3279C911.703 97.384 911.582 97.4745 911.479 97.5995C911.375 97.7245 911.293 97.8882 911.233 98.0908C911.177 98.2891 911.149 98.5304 911.149 98.8149C911.149 99.095 911.177 99.3321 911.233 99.526C911.293 99.7199 911.375 99.8794 911.479 100.004C911.582 100.125 911.703 100.213 911.841 100.269C911.983 100.321 912.134 100.347 912.293 100.347C912.453 100.347 912.604 100.321 912.746 100.269C912.888 100.213 913.011 100.125 913.114 100.004C913.222 99.8794 913.306 99.7199 913.366 99.526C913.427 99.3321 913.457 99.095 913.457 98.8149ZM922.456 94.3476C922.934 94.3476 923.365 94.4274 923.749 94.5868C924.132 94.7463 924.46 94.9726 924.731 95.2656C925.003 95.5587 925.21 95.9143 925.352 96.3323C925.499 96.7461 925.572 97.2094 925.572 97.7223C925.572 98.2395 925.499 98.705 925.352 99.1187C925.21 99.5325 925.003 99.8859 924.731 100.179C924.46 100.472 924.132 100.698 923.749 100.858C923.365 101.013 922.934 101.091 922.456 101.091C921.973 101.091 921.538 101.013 921.15 100.858C920.766 100.698 920.439 100.472 920.167 100.179C919.896 99.8859 919.687 99.5325 919.54 99.1187C919.398 98.705 919.327 98.2395 919.327 97.7223C919.327 97.2094 919.398 96.7461 919.54 96.3323C919.687 95.9143 919.896 95.5587 920.167 95.2656C920.439 94.9726 920.766 94.7463 921.15 94.5868C921.538 94.4274 921.973 94.3476 922.456 94.3476ZM922.456 100.192C923.102 100.192 923.585 99.9764 923.904 99.5454C924.223 99.1101 924.382 98.5045 924.382 97.7288C924.382 96.9487 924.223 96.341 923.904 95.9057C923.585 95.4704 923.102 95.2527 922.456 95.2527C922.128 95.2527 921.842 95.3087 921.596 95.4208C921.355 95.5329 921.152 95.6945 920.988 95.9057C920.829 96.1168 920.708 96.3776 920.626 96.6879C920.549 96.9939 920.51 97.3409 920.51 97.7288C920.51 98.5045 920.669 99.1101 920.988 99.5454C921.311 99.9764 921.801 100.192 922.456 100.192ZM927.596 101V95.4337L926.872 95.3497C926.782 95.3281 926.706 95.2958 926.646 95.2527C926.59 95.2053 926.562 95.1385 926.562 95.0523V94.5804H927.596V93.9468C927.596 93.5718 927.648 93.24 927.751 92.9512C927.859 92.6581 928.01 92.4125 928.204 92.2142C928.402 92.0116 928.639 91.8586 928.915 91.7552C929.191 91.6518 929.501 91.6 929.846 91.6C930.139 91.6 930.408 91.6431 930.654 91.7293L930.628 92.3047C930.62 92.4081 930.561 92.4642 930.454 92.4728C930.35 92.4814 930.21 92.4857 930.033 92.4857C929.835 92.4857 929.654 92.5116 929.49 92.5633C929.331 92.615 929.193 92.6991 929.077 92.8154C928.96 92.9318 928.87 93.0848 928.805 93.2744C928.745 93.4641 928.715 93.699 928.715 93.9791V94.5804H930.602V95.4143H928.753V101H927.596ZM936.418 95.7634C936.624 95.3152 936.879 94.9661 937.18 94.7161C937.482 94.4618 937.851 94.3347 938.286 94.3347C938.424 94.3347 938.555 94.3498 938.68 94.3799C938.81 94.4101 938.924 94.4575 939.023 94.5222L938.939 95.382C938.913 95.4898 938.848 95.5436 938.745 95.5436C938.685 95.5436 938.596 95.5307 938.48 95.5048C938.363 95.479 938.232 95.466 938.085 95.466C937.879 95.466 937.693 95.4962 937.529 95.5566C937.37 95.6169 937.226 95.7074 937.096 95.8281C936.971 95.9444 936.857 96.091 936.754 96.2677C936.655 96.4401 936.564 96.6383 936.482 96.8625V101H935.325V94.4511H935.984C936.109 94.4511 936.196 94.4748 936.243 94.5222C936.29 94.5696 936.323 94.6515 936.34 94.7678L936.418 95.7634Z" fill="black"/>
<path d="M889.84 132.244C889.901 131.822 890.017 131.449 890.19 131.126C890.362 130.798 890.58 130.525 890.842 130.305C891.11 130.085 891.414 129.919 891.754 129.807C892.099 129.691 892.469 129.632 892.866 129.632C893.258 129.632 893.62 129.688 893.952 129.8C894.284 129.913 894.568 130.072 894.805 130.279C895.047 130.486 895.234 130.736 895.368 131.029C895.502 131.322 895.568 131.647 895.568 132.005C895.568 132.298 895.53 132.561 895.452 132.794C895.379 133.022 895.271 133.223 895.129 133.395C894.991 133.567 894.823 133.714 894.624 133.835C894.426 133.955 894.204 134.054 893.959 134.132C894.562 134.287 895.015 134.554 895.316 134.934C895.622 135.309 895.775 135.778 895.775 136.343C895.775 136.77 895.693 137.153 895.53 137.494C895.37 137.834 895.15 138.125 894.87 138.366C894.59 138.603 894.262 138.787 893.887 138.916C893.517 139.041 893.118 139.103 892.691 139.103C892.2 139.103 891.78 139.043 891.431 138.922C891.082 138.797 890.786 138.627 890.545 138.412C890.304 138.196 890.105 137.942 889.95 137.649C889.795 137.351 889.664 137.03 889.556 136.686L890.054 136.479C890.183 136.423 890.308 136.408 890.429 136.433C890.554 136.459 890.644 136.53 890.7 136.647C890.756 136.767 890.825 136.912 890.907 137.08C890.993 137.248 891.11 137.41 891.256 137.565C891.403 137.72 891.588 137.851 891.812 137.959C892.041 138.067 892.329 138.121 892.679 138.121C893.002 138.121 893.284 138.069 893.525 137.966C893.771 137.858 893.974 137.72 894.133 137.552C894.297 137.384 894.42 137.196 894.502 136.989C894.584 136.783 894.624 136.578 894.624 136.375C894.624 136.125 894.592 135.897 894.527 135.69C894.463 135.483 894.342 135.304 894.165 135.153C893.989 135.003 893.745 134.884 893.435 134.798C893.129 134.712 892.735 134.669 892.252 134.669V133.835C892.648 133.83 892.985 133.787 893.26 133.705C893.541 133.623 893.767 133.511 893.939 133.369C894.116 133.227 894.243 133.057 894.321 132.858C894.403 132.66 894.443 132.44 894.443 132.199C894.443 131.932 894.4 131.699 894.314 131.501C894.232 131.302 894.118 131.139 893.972 131.009C893.825 130.88 893.65 130.783 893.448 130.718C893.25 130.654 893.034 130.621 892.801 130.621C892.569 130.621 892.351 130.656 892.148 130.725C891.95 130.794 891.773 130.891 891.618 131.016C891.467 131.137 891.34 131.281 891.237 131.449C891.133 131.617 891.06 131.802 891.017 132.005C890.961 132.156 890.89 132.257 890.804 132.309C890.722 132.356 890.601 132.369 890.442 132.348L889.84 132.244ZM897.495 138.289C897.495 138.177 897.514 138.071 897.553 137.972C897.596 137.873 897.652 137.787 897.721 137.713C897.795 137.64 897.881 137.582 897.98 137.539C898.079 137.496 898.185 137.474 898.297 137.474C898.409 137.474 898.514 137.496 898.613 137.539C898.713 137.582 898.799 137.64 898.872 137.713C898.945 137.787 899.003 137.873 899.047 137.972C899.09 138.071 899.111 138.177 899.111 138.289C899.111 138.405 899.09 138.513 899.047 138.612C899.003 138.707 898.945 138.791 898.872 138.864C898.799 138.938 898.713 138.994 898.613 139.032C898.514 139.075 898.409 139.097 898.297 139.097C898.185 139.097 898.079 139.075 897.98 139.032C897.881 138.994 897.795 138.938 897.721 138.864C897.652 138.791 897.596 138.707 897.553 138.612C897.514 138.513 897.495 138.405 897.495 138.289ZM902.45 133.233C902.933 133.13 903.377 133.078 903.782 133.078C904.265 133.078 904.692 133.149 905.062 133.291C905.433 133.434 905.741 133.63 905.987 133.88C906.237 134.13 906.424 134.425 906.549 134.765C906.678 135.106 906.743 135.477 906.743 135.877C906.743 136.369 906.657 136.813 906.484 137.209C906.316 137.606 906.082 137.946 905.78 138.231C905.482 138.511 905.131 138.726 904.726 138.877C904.321 139.028 903.883 139.103 903.414 139.103C903.142 139.103 902.881 139.075 902.631 139.019C902.381 138.968 902.147 138.897 901.927 138.806C901.711 138.716 901.511 138.612 901.326 138.496C901.14 138.379 900.976 138.257 900.834 138.127L901.19 137.636C901.267 137.524 901.369 137.468 901.494 137.468C901.58 137.468 901.677 137.502 901.785 137.571C901.892 137.636 902.024 137.709 902.179 137.791C902.334 137.873 902.515 137.948 902.722 138.017C902.933 138.082 903.183 138.114 903.472 138.114C903.795 138.114 904.086 138.063 904.345 137.959C904.603 137.856 904.825 137.709 905.01 137.52C905.196 137.326 905.338 137.095 905.437 136.828C905.536 136.561 905.586 136.261 905.586 135.929C905.586 135.64 905.543 135.38 905.457 135.147C905.375 134.914 905.248 134.716 905.075 134.552C904.907 134.388 904.696 134.261 904.442 134.171C904.187 134.08 903.89 134.035 903.549 134.035C903.317 134.035 903.073 134.054 902.819 134.093C902.569 134.132 902.312 134.194 902.05 134.281L901.326 134.067L902.069 129.736H906.459V130.24C906.459 130.404 906.407 130.54 906.303 130.647C906.204 130.751 906.032 130.803 905.786 130.803H902.877L902.45 133.233ZM912.555 131.973C912.555 132.335 912.499 132.66 912.387 132.949C912.275 133.233 912.124 133.475 911.934 133.673C911.749 133.867 911.532 134.016 911.282 134.119C911.036 134.222 910.775 134.274 910.499 134.274C910.211 134.274 909.941 134.222 909.691 134.119C909.441 134.016 909.224 133.867 909.038 133.673C908.857 133.475 908.715 133.233 908.612 132.949C908.508 132.66 908.456 132.335 908.456 131.973C908.456 131.602 908.508 131.272 908.612 130.984C908.715 130.695 908.857 130.451 909.038 130.253C909.224 130.055 909.441 129.904 909.691 129.8C909.941 129.697 910.211 129.645 910.499 129.645C910.792 129.645 911.064 129.697 911.314 129.8C911.564 129.904 911.781 130.055 911.967 130.253C912.152 130.451 912.297 130.695 912.4 130.984C912.503 131.272 912.555 131.602 912.555 131.973ZM911.663 131.973C911.663 131.688 911.633 131.447 911.572 131.249C911.512 131.05 911.428 130.889 911.32 130.764C911.217 130.634 911.094 130.542 910.952 130.486C910.81 130.43 910.659 130.402 910.499 130.402C910.34 130.402 910.191 130.43 910.053 130.486C909.915 130.542 909.795 130.634 909.691 130.764C909.588 130.889 909.506 131.05 909.446 131.249C909.385 131.447 909.355 131.688 909.355 131.973C909.355 132.253 909.385 132.492 909.446 132.69C909.506 132.884 909.588 133.044 909.691 133.169C909.795 133.289 909.915 133.378 910.053 133.434C910.191 133.485 910.34 133.511 910.499 133.511C910.659 133.511 910.81 133.485 910.952 133.434C911.094 133.378 911.217 133.289 911.32 133.169C911.428 133.044 911.512 132.884 911.572 132.69C911.633 132.492 911.663 132.253 911.663 131.973ZM915.833 129.93C915.876 129.878 915.925 129.833 915.982 129.794C916.042 129.755 916.122 129.736 916.221 129.736H917.055L910.279 138.813C910.241 138.869 910.191 138.914 910.131 138.948C910.07 138.983 909.997 139 909.911 139H909.064L915.833 129.93ZM917.682 136.815C917.682 137.177 917.626 137.5 917.514 137.785C917.402 138.069 917.251 138.31 917.061 138.509C916.876 138.703 916.658 138.851 916.408 138.955C916.163 139.058 915.902 139.11 915.626 139.11C915.333 139.11 915.061 139.058 914.811 138.955C914.566 138.851 914.35 138.703 914.165 138.509C913.984 138.31 913.842 138.069 913.738 137.785C913.635 137.5 913.583 137.177 913.583 136.815C913.583 136.444 913.635 136.115 913.738 135.826C913.842 135.533 913.984 135.287 914.165 135.089C914.35 134.89 914.566 134.74 914.811 134.636C915.061 134.533 915.333 134.481 915.626 134.481C915.915 134.481 916.184 134.533 916.434 134.636C916.688 134.74 916.906 134.89 917.087 135.089C917.272 135.287 917.417 135.533 917.52 135.826C917.628 136.115 917.682 136.444 917.682 136.815ZM916.79 136.815C916.79 136.53 916.759 136.289 916.699 136.091C916.639 135.888 916.555 135.724 916.447 135.599C916.344 135.474 916.221 135.384 916.078 135.328C915.936 135.272 915.785 135.244 915.626 135.244C915.466 135.244 915.316 135.272 915.173 135.328C915.035 135.384 914.915 135.474 914.811 135.599C914.708 135.724 914.626 135.888 914.566 136.091C914.51 136.289 914.482 136.53 914.482 136.815C914.482 137.095 914.51 137.332 914.566 137.526C914.626 137.72 914.708 137.879 914.811 138.004C914.915 138.125 915.035 138.213 915.173 138.269C915.316 138.321 915.466 138.347 915.626 138.347C915.785 138.347 915.936 138.321 916.078 138.269C916.221 138.213 916.344 138.125 916.447 138.004C916.555 137.879 916.639 137.72 916.699 137.526C916.759 137.332 916.79 137.095 916.79 136.815ZM925.788 132.348C926.267 132.348 926.698 132.427 927.081 132.587C927.465 132.746 927.793 132.973 928.064 133.266C928.336 133.559 928.542 133.914 928.685 134.332C928.831 134.746 928.905 135.209 928.905 135.722C928.905 136.239 928.831 136.705 928.685 137.119C928.542 137.532 928.336 137.886 928.064 138.179C927.793 138.472 927.465 138.698 927.081 138.858C926.698 139.013 926.267 139.091 925.788 139.091C925.306 139.091 924.87 139.013 924.483 138.858C924.099 138.698 923.771 138.472 923.5 138.179C923.228 137.886 923.019 137.532 922.873 137.119C922.731 136.705 922.659 136.239 922.659 135.722C922.659 135.209 922.731 134.746 922.873 134.332C923.019 133.914 923.228 133.559 923.5 133.266C923.771 132.973 924.099 132.746 924.483 132.587C924.87 132.427 925.306 132.348 925.788 132.348ZM925.788 138.192C926.435 138.192 926.918 137.976 927.237 137.545C927.556 137.11 927.715 136.505 927.715 135.729C927.715 134.949 927.556 134.341 927.237 133.906C926.918 133.47 926.435 133.253 925.788 133.253C925.461 133.253 925.174 133.309 924.929 133.421C924.687 133.533 924.485 133.694 924.321 133.906C924.161 134.117 924.041 134.378 923.959 134.688C923.881 134.994 923.842 135.341 923.842 135.729C923.842 136.505 924.002 137.11 924.321 137.545C924.644 137.976 925.133 138.192 925.788 138.192ZM930.929 139V133.434L930.205 133.35C930.114 133.328 930.039 133.296 929.979 133.253C929.923 133.205 929.895 133.138 929.895 133.052V132.58H930.929V131.947C930.929 131.572 930.981 131.24 931.084 130.951C931.192 130.658 931.343 130.412 931.537 130.214C931.735 130.012 931.972 129.859 932.248 129.755C932.524 129.652 932.834 129.6 933.179 129.6C933.472 129.6 933.741 129.643 933.987 129.729L933.961 130.305C933.952 130.408 933.894 130.464 933.786 130.473C933.683 130.481 933.543 130.486 933.366 130.486C933.168 130.486 932.987 130.512 932.823 130.563C932.664 130.615 932.526 130.699 932.409 130.815C932.293 130.932 932.203 131.085 932.138 131.274C932.078 131.464 932.047 131.699 932.047 131.979V132.58H933.935V133.414H932.086V139H930.929ZM939.75 133.763C939.957 133.315 940.211 132.966 940.513 132.716C940.815 132.462 941.183 132.335 941.619 132.335C941.757 132.335 941.888 132.35 942.013 132.38C942.142 132.41 942.256 132.458 942.356 132.522L942.272 133.382C942.246 133.49 942.181 133.544 942.078 133.544C942.017 133.544 941.929 133.531 941.813 133.505C941.696 133.479 941.565 133.466 941.418 133.466C941.211 133.466 941.026 133.496 940.862 133.557C940.703 133.617 940.558 133.707 940.429 133.828C940.304 133.944 940.19 134.091 940.086 134.268C939.987 134.44 939.897 134.638 939.815 134.862V139H938.658V132.451H939.317C939.442 132.451 939.528 132.475 939.576 132.522C939.623 132.57 939.655 132.651 939.673 132.768L939.75 133.763Z" fill="black"/>
<line x1="866" y1="68.5382" x2="878.93" y2="68.5382" stroke="black" stroke-width="0.923557"/>
<line x1="866" y1="122.538" x2="878.93" y2="122.538" stroke="black" stroke-width="0.923557"/>
<line x1="878.468" y1="123" x2="878.468" y2="69.0002" stroke="black" stroke-width="0.923557"/>
<line x1="866" y1="122.538" x2="878.93" y2="122.538" stroke="black" stroke-width="0.923557"/>
<line x1="866" y1="143.538" x2="878.93" y2="143.538" stroke="black" stroke-width="0.923557"/>
<line x1="878.468" y1="144" x2="878.468" y2="123" stroke="black" stroke-width="0.923557"/>
<path d="M895.581 193.121V194H890.616V193.121H892.601V186.805C892.601 186.615 892.607 186.423 892.62 186.229L890.972 187.645C890.916 187.692 890.86 187.723 890.804 187.736C890.748 187.744 890.696 187.744 890.649 187.736C890.601 187.727 890.556 187.71 890.513 187.684C890.474 187.658 890.444 187.63 890.422 187.6L890.06 187.102L892.821 184.716H893.758V193.121H895.581ZM899.118 188.233C899.6 188.13 900.044 188.078 900.449 188.078C900.932 188.078 901.359 188.149 901.729 188.291C902.1 188.434 902.408 188.63 902.654 188.88C902.904 189.13 903.091 189.425 903.216 189.765C903.346 190.106 903.41 190.477 903.41 190.877C903.41 191.369 903.324 191.813 903.152 192.209C902.984 192.606 902.749 192.946 902.447 193.231C902.15 193.511 901.798 193.726 901.393 193.877C900.988 194.028 900.551 194.103 900.081 194.103C899.809 194.103 899.549 194.075 899.299 194.019C899.049 193.968 898.814 193.897 898.594 193.806C898.378 193.716 898.178 193.612 897.993 193.496C897.807 193.379 897.644 193.257 897.501 193.127L897.857 192.636C897.935 192.524 898.036 192.468 898.161 192.468C898.247 192.468 898.344 192.502 898.452 192.571C898.56 192.636 898.691 192.709 898.846 192.791C899.001 192.873 899.182 192.948 899.389 193.017C899.6 193.082 899.85 193.114 900.139 193.114C900.462 193.114 900.753 193.063 901.012 192.959C901.27 192.856 901.492 192.709 901.678 192.52C901.863 192.326 902.005 192.095 902.104 191.828C902.204 191.561 902.253 191.261 902.253 190.929C902.253 190.64 902.21 190.38 902.124 190.147C902.042 189.914 901.915 189.716 901.742 189.552C901.574 189.388 901.363 189.261 901.109 189.171C900.855 189.08 900.557 189.035 900.217 189.035C899.984 189.035 899.74 189.054 899.486 189.093C899.236 189.132 898.98 189.194 898.717 189.281L897.993 189.067L898.736 184.736H903.126V185.24C903.126 185.404 903.074 185.54 902.971 185.647C902.872 185.751 902.699 185.803 902.454 185.803H899.544L899.118 188.233ZM909.222 186.973C909.222 187.335 909.166 187.66 909.054 187.949C908.942 188.233 908.791 188.475 908.602 188.673C908.416 188.867 908.199 189.016 907.949 189.119C907.703 189.222 907.442 189.274 907.167 189.274C906.878 189.274 906.608 189.222 906.358 189.119C906.108 189.016 905.891 188.867 905.705 188.673C905.524 188.475 905.382 188.233 905.279 187.949C905.175 187.66 905.124 187.335 905.124 186.973C905.124 186.602 905.175 186.272 905.279 185.984C905.382 185.695 905.524 185.451 905.705 185.253C905.891 185.055 906.108 184.904 906.358 184.8C906.608 184.697 906.878 184.645 907.167 184.645C907.46 184.645 907.731 184.697 907.981 184.8C908.231 184.904 908.449 185.055 908.634 185.253C908.819 185.451 908.964 185.695 909.067 185.984C909.171 186.272 909.222 186.602 909.222 186.973ZM908.33 186.973C908.33 186.688 908.3 186.447 908.24 186.249C908.179 186.05 908.095 185.889 907.988 185.764C907.884 185.634 907.761 185.542 907.619 185.486C907.477 185.43 907.326 185.402 907.167 185.402C907.007 185.402 906.858 185.43 906.72 185.486C906.583 185.542 906.462 185.634 906.358 185.764C906.255 185.889 906.173 186.05 906.113 186.249C906.052 186.447 906.022 186.688 906.022 186.973C906.022 187.253 906.052 187.492 906.113 187.69C906.173 187.884 906.255 188.044 906.358 188.169C906.462 188.289 906.583 188.378 906.72 188.434C906.858 188.485 907.007 188.511 907.167 188.511C907.326 188.511 907.477 188.485 907.619 188.434C907.761 188.378 907.884 188.289 907.988 188.169C908.095 188.044 908.179 187.884 908.24 187.69C908.3 187.492 908.33 187.253 908.33 186.973ZM912.5 184.93C912.543 184.878 912.593 184.833 912.649 184.794C912.709 184.755 912.789 184.736 912.888 184.736H913.722L906.947 193.813C906.908 193.869 906.858 193.914 906.798 193.948C906.738 193.983 906.664 194 906.578 194H905.731L912.5 184.93ZM914.349 191.815C914.349 192.177 914.293 192.5 914.181 192.785C914.069 193.069 913.918 193.31 913.728 193.509C913.543 193.703 913.325 193.851 913.075 193.955C912.83 194.058 912.569 194.11 912.293 194.11C912 194.11 911.729 194.058 911.479 193.955C911.233 193.851 911.017 193.703 910.832 193.509C910.651 193.31 910.509 193.069 910.405 192.785C910.302 192.5 910.25 192.177 910.25 191.815C910.25 191.444 910.302 191.115 910.405 190.826C910.509 190.533 910.651 190.287 910.832 190.089C911.017 189.89 911.233 189.74 911.479 189.636C911.729 189.533 912 189.481 912.293 189.481C912.582 189.481 912.851 189.533 913.101 189.636C913.356 189.74 913.573 189.89 913.754 190.089C913.94 190.287 914.084 190.533 914.187 190.826C914.295 191.115 914.349 191.444 914.349 191.815ZM913.457 191.815C913.457 191.53 913.427 191.289 913.366 191.091C913.306 190.888 913.222 190.724 913.114 190.599C913.011 190.474 912.888 190.384 912.746 190.328C912.604 190.272 912.453 190.244 912.293 190.244C912.134 190.244 911.983 190.272 911.841 190.328C911.703 190.384 911.582 190.474 911.479 190.599C911.375 190.724 911.293 190.888 911.233 191.091C911.177 191.289 911.149 191.53 911.149 191.815C911.149 192.095 911.177 192.332 911.233 192.526C911.293 192.72 911.375 192.879 911.479 193.004C911.582 193.125 911.703 193.213 911.841 193.269C911.983 193.321 912.134 193.347 912.293 193.347C912.453 193.347 912.604 193.321 912.746 193.269C912.888 193.213 913.011 193.125 913.114 193.004C913.222 192.879 913.306 192.72 913.366 192.526C913.427 192.332 913.457 192.095 913.457 191.815ZM922.456 187.348C922.934 187.348 923.365 187.427 923.749 187.587C924.132 187.746 924.46 187.973 924.731 188.266C925.003 188.559 925.21 188.914 925.352 189.332C925.499 189.746 925.572 190.209 925.572 190.722C925.572 191.239 925.499 191.705 925.352 192.119C925.21 192.532 925.003 192.886 924.731 193.179C924.46 193.472 924.132 193.698 923.749 193.858C923.365 194.013 922.934 194.091 922.456 194.091C921.973 194.091 921.538 194.013 921.15 193.858C920.766 193.698 920.439 193.472 920.167 193.179C919.896 192.886 919.687 192.532 919.54 192.119C919.398 191.705 919.327 191.239 919.327 190.722C919.327 190.209 919.398 189.746 919.54 189.332C919.687 188.914 919.896 188.559 920.167 188.266C920.439 187.973 920.766 187.746 921.15 187.587C921.538 187.427 921.973 187.348 922.456 187.348ZM922.456 193.192C923.102 193.192 923.585 192.976 923.904 192.545C924.223 192.11 924.382 191.505 924.382 190.729C924.382 189.949 924.223 189.341 923.904 188.906C923.585 188.47 923.102 188.253 922.456 188.253C922.128 188.253 921.842 188.309 921.596 188.421C921.355 188.533 921.152 188.694 920.988 188.906C920.829 189.117 920.708 189.378 920.626 189.688C920.549 189.994 920.51 190.341 920.51 190.729C920.51 191.505 920.669 192.11 920.988 192.545C921.311 192.976 921.801 193.192 922.456 193.192ZM927.596 194V188.434L926.872 188.35C926.782 188.328 926.706 188.296 926.646 188.253C926.59 188.205 926.562 188.138 926.562 188.052V187.58H927.596V186.947C927.596 186.572 927.648 186.24 927.751 185.951C927.859 185.658 928.01 185.412 928.204 185.214C928.402 185.012 928.639 184.859 928.915 184.755C929.191 184.652 929.501 184.6 929.846 184.6C930.139 184.6 930.408 184.643 930.654 184.729L930.628 185.305C930.62 185.408 930.561 185.464 930.454 185.473C930.35 185.481 930.21 185.486 930.033 185.486C929.835 185.486 929.654 185.512 929.49 185.563C929.331 185.615 929.193 185.699 929.077 185.815C928.96 185.932 928.87 186.085 928.805 186.274C928.745 186.464 928.715 186.699 928.715 186.979V187.58H930.602V188.414H928.753V194H927.596ZM936.418 188.763C936.624 188.315 936.879 187.966 937.18 187.716C937.482 187.462 937.851 187.335 938.286 187.335C938.424 187.335 938.555 187.35 938.68 187.38C938.81 187.41 938.924 187.458 939.023 187.522L938.939 188.382C938.913 188.49 938.848 188.544 938.745 188.544C938.685 188.544 938.596 188.531 938.48 188.505C938.363 188.479 938.232 188.466 938.085 188.466C937.879 188.466 937.693 188.496 937.529 188.557C937.37 188.617 937.226 188.707 937.096 188.828C936.971 188.944 936.857 189.091 936.754 189.268C936.655 189.44 936.564 189.638 936.482 189.862V194H935.325V187.451H935.984C936.109 187.451 936.196 187.475 936.243 187.522C936.29 187.57 936.323 187.651 936.34 187.768L936.418 188.763Z" fill="black"/>
<line x1="866" y1="143.538" x2="878.93" y2="143.538" stroke="black" stroke-width="0.923557"/>
<line x1="866" y1="232.538" x2="878.93" y2="232.538" stroke="black" stroke-width="0.923557"/>
<line x1="878.468" y1="233" x2="878.468" y2="144" stroke="black" stroke-width="0.923557"/>
<line x1="256.462" y1="119.719" x2="256.462" y2="554.714" stroke="#D8D8D8" stroke-width="0.923557"/>
<g clip-path="url(#clip0_904:374)">
<path fill-rule="evenodd" clip-rule="evenodd" d="M489.704 123.107C488.394 123.107 487.593 123.798 487.593 125.209V136.564H487.531L479.858 124.243C479.38 123.445 478.579 123.092 477.67 123.092C475.806 123.092 474.912 123.844 474.912 125.639V140.83C474.912 142.241 475.713 142.932 477.023 142.932C478.333 142.932 479.134 142.241 479.134 140.83V129.797H479.18L486.792 141.766C487.346 142.64 487.809 142.932 489.195 142.932C491.044 142.932 491.784 141.95 491.784 140.216V125.194C491.815 123.798 491.013 123.107 489.704 123.107Z" fill="white"/>
<path fill-rule="evenodd" clip-rule="evenodd" d="M506.637 123.107C505.728 123.107 505.25 123.43 504.742 124.381L500.952 131.378L497.13 124.381C496.684 123.537 496.191 123.107 495.158 123.107C494.311 123.107 492.939 123.614 492.939 125.102C492.939 125.501 493.094 125.9 493.309 126.253L498.671 135.137V140.784C498.671 142.088 499.519 142.963 500.859 142.963C502.2 142.963 503.047 142.088 503.047 140.784V135.137L508.409 126.253C508.625 125.9 508.779 125.501 508.779 125.102C508.794 123.614 507.438 123.107 506.637 123.107Z" fill="white"/>
<path fill-rule="evenodd" clip-rule="evenodd" d="M526.114 125.056C526.114 123.598 524.99 123.107 523.896 123.107C522.879 123.107 522.247 123.721 521.846 125.025L517.733 138.053H517.686L513.726 125.025C513.326 123.721 512.679 123.107 511.508 123.107C510.414 123.107 509.289 123.583 509.289 125.056C509.289 125.409 509.366 125.823 509.551 126.33L514.944 141.444C515.39 142.687 516.253 142.963 517.609 142.963C518.965 142.963 519.828 142.702 520.275 141.444L525.837 126.33C526.037 125.823 526.114 125.394 526.114 125.056Z" fill="white"/>
<path fill-rule="evenodd" clip-rule="evenodd" d="M534.557 124.703C534.079 123.353 533.201 123.107 532.199 123.107H531.151C530.088 123.107 529.395 123.46 529.01 124.442L523.34 139.372C523.186 139.802 522.908 140.569 522.908 141.045C522.908 142.211 523.74 142.963 524.942 142.963C525.99 142.963 526.591 142.61 526.899 141.766L528.054 138.574H535.111L536.236 141.766C536.56 142.61 537.253 142.963 538.208 142.963C539.333 142.963 540.273 142.119 540.273 141.045C540.273 140.569 540.011 139.802 539.842 139.372L534.557 124.703ZM529.025 135.536L531.614 127.849H531.66L534.141 135.536H529.025Z" fill="white"/>
<path fill-rule="evenodd" clip-rule="evenodd" d="M556.159 123.107C554.849 123.107 554.048 123.798 554.048 125.209V136.564H554.002L546.329 124.243C545.851 123.445 545.05 123.092 544.141 123.092C542.277 123.092 541.383 123.844 541.383 125.639V140.83C541.383 142.241 542.184 142.932 543.494 142.932C544.803 142.932 545.605 142.241 545.605 140.83V129.797H545.651L553.262 141.766C553.817 142.64 554.279 142.932 555.666 142.932C557.515 142.932 558.254 141.95 558.254 140.216V125.194C558.27 123.798 557.469 123.107 556.159 123.107Z" fill="white"/>
<path d="M450.507 141.628C451.783 141.628 452.818 140.597 452.818 139.326C452.818 138.055 451.783 137.024 450.507 137.024C449.23 137.024 448.195 138.055 448.195 139.326C448.195 140.597 449.23 141.628 450.507 141.628Z" fill="white"/>
<path fill-rule="evenodd" clip-rule="evenodd" d="M468.627 124.703C468.149 123.353 467.271 123.107 466.269 123.107H465.222C465.129 123.107 465.037 123.107 464.944 123.123H443.497C442.141 123.123 441.031 124.228 441.031 125.578V140.508C441.031 141.858 442.141 142.963 443.497 142.963H458.997V142.947H459.043C460.091 142.947 460.692 142.595 461 141.751L462.155 138.559H469.212L470.337 141.751C470.661 142.595 471.354 142.947 472.309 142.947C473.434 142.947 474.359 142.104 474.359 141.029C474.359 140.554 474.097 139.787 473.927 139.357L468.627 124.703ZM450.507 142.15C448.951 142.15 447.672 140.891 447.672 139.326C447.672 137.776 448.936 136.503 450.507 136.503C452.063 136.503 453.342 137.761 453.342 139.326C453.327 140.891 452.063 142.15 450.507 142.15ZM456.501 139.541H453.897C453.897 138.989 453.666 135.92 450.43 135.92C447.194 135.92 447.056 139.572 447.056 139.572H446.362C446.362 139.572 444.344 138.758 443.928 138.544C443.512 138.313 443.466 137.178 443.466 137.178V136.181H443.82V135.168C443.99 133.02 449.274 131.086 449.274 131.086C449.274 131.086 453.712 126.729 454.405 126.115C455.9 124.811 461.955 125.102 461.955 125.102L456.501 139.541ZM463.095 135.536L465.684 127.849H465.73L468.211 135.536H463.095Z" fill="white"/>
<path fill-rule="evenodd" clip-rule="evenodd" d="M447.394 133.68C447.209 133.634 446.531 133.634 446.238 133.618C446.146 133.618 446.054 133.649 445.992 133.71C445.853 133.818 445.637 134.032 445.437 134.293C445.206 134.6 445.037 134.984 444.929 135.229C444.852 135.429 445.067 135.444 445.067 135.444L445.576 135.552C445.637 135.567 445.699 135.552 445.745 135.505L447.44 134.032C447.425 134.032 447.671 133.741 447.394 133.68Z" fill="white"/>
<path fill-rule="evenodd" clip-rule="evenodd" d="M458.843 126.391C458.612 126.391 456.47 126.621 456.054 126.698C455.638 126.774 455.021 127.25 455.021 127.25L452.387 130.15V131.7L457.964 130.626C457.964 130.626 458.689 130.488 458.796 129.567C458.904 128.646 459.135 126.682 459.135 126.682C459.135 126.682 459.074 126.391 458.843 126.391Z" fill="white"/>
</g>
<path d="M468.246 271.888C468.523 271.888 468.762 271.996 468.962 272.212L470.902 274.336C469.547 275.937 467.892 277.176 465.937 278.053C463.998 278.931 461.658 279.369 458.918 279.369C456.516 279.369 454.338 278.954 452.383 278.123C450.444 277.291 448.781 276.129 447.396 274.636C446.026 273.143 444.964 271.357 444.21 269.279C443.455 267.201 443.078 264.915 443.078 262.421C443.078 259.928 443.471 257.642 444.256 255.564C445.056 253.486 446.172 251.7 447.604 250.207C449.035 248.714 450.744 247.551 452.73 246.72C454.731 245.889 456.94 245.473 459.357 245.473C461.712 245.473 463.805 245.858 465.637 246.628C467.469 247.397 469.062 248.421 470.417 249.699L468.8 251.985C468.693 252.154 468.554 252.293 468.385 252.4C468.231 252.508 468.023 252.562 467.761 252.562C467.469 252.562 467.122 252.416 466.722 252.123C466.337 251.831 465.822 251.508 465.175 251.153C464.544 250.784 463.759 250.453 462.82 250.161C461.881 249.868 460.711 249.722 459.31 249.722C457.663 249.722 456.155 250.014 454.785 250.599C453.415 251.169 452.229 252 451.229 253.093C450.244 254.171 449.474 255.502 448.92 257.088C448.381 258.658 448.112 260.436 448.112 262.421C448.112 264.438 448.396 266.231 448.966 267.801C449.536 269.371 450.321 270.703 451.321 271.796C452.322 272.889 453.499 273.72 454.854 274.29C456.209 274.859 457.671 275.144 459.241 275.144C460.195 275.144 461.05 275.09 461.804 274.982C462.574 274.859 463.274 274.682 463.905 274.451C464.552 274.22 465.16 273.928 465.729 273.574C466.299 273.204 466.861 272.766 467.415 272.258C467.538 272.15 467.669 272.065 467.807 272.004C467.946 271.927 468.092 271.888 468.246 271.888ZM484.767 255.171C486.491 255.171 488.046 255.456 489.431 256.025C490.832 256.58 492.017 257.388 492.987 258.45C493.972 259.497 494.726 260.767 495.25 262.26C495.773 263.738 496.035 265.4 496.035 267.247C496.035 269.094 495.773 270.765 495.25 272.258C494.726 273.751 493.972 275.021 492.987 276.068C492.017 277.114 490.832 277.922 489.431 278.492C488.046 279.046 486.491 279.323 484.767 279.323C483.027 279.323 481.457 279.046 480.057 278.492C478.671 277.922 477.486 277.114 476.501 276.068C475.516 275.021 474.754 273.751 474.215 272.258C473.691 270.765 473.43 269.094 473.43 267.247C473.43 265.4 473.691 263.738 474.215 262.26C474.754 260.767 475.516 259.497 476.501 258.45C477.486 257.388 478.671 256.58 480.057 256.025C481.457 255.456 483.027 255.171 484.767 255.171ZM484.767 275.814C486.984 275.814 488.638 275.067 489.731 273.574C490.824 272.081 491.371 269.98 491.371 267.27C491.371 264.561 490.824 262.46 489.731 260.967C488.638 259.458 486.984 258.704 484.767 258.704C482.519 258.704 480.842 259.458 479.733 260.967C478.64 262.46 478.094 264.561 478.094 267.27C478.094 269.98 478.64 272.081 479.733 273.574C480.842 275.067 482.519 275.814 484.767 275.814ZM505.586 258.796C506.094 258.257 506.625 257.765 507.18 257.318C507.734 256.872 508.319 256.495 508.934 256.187C509.566 255.864 510.235 255.618 510.943 255.448C511.667 255.263 512.436 255.171 513.252 255.171C514.545 255.171 515.677 255.387 516.646 255.818C517.632 256.249 518.455 256.857 519.117 257.642C519.779 258.411 520.279 259.343 520.618 260.436C520.957 261.529 521.126 262.737 521.126 264.061V279H516.6V264.061C516.6 262.383 516.215 261.082 515.446 260.159C514.676 259.22 513.499 258.75 511.913 258.75C510.759 258.75 509.673 259.027 508.657 259.581C507.657 260.12 506.725 260.859 505.863 261.798V279H501.361V255.541H504.062C504.694 255.541 505.086 255.841 505.24 256.441L505.586 258.796ZM534.529 279.369C532.635 279.369 531.173 278.838 530.142 277.776C529.126 276.714 528.618 275.198 528.618 273.227V259.189H525.893C525.631 259.189 525.408 259.112 525.224 258.958C525.054 258.789 524.97 258.542 524.97 258.219V256.395L528.779 255.864L529.795 248.868C529.857 248.606 529.972 248.406 530.142 248.267C530.326 248.113 530.557 248.036 530.834 248.036H533.12V255.91H539.77V259.189H533.12V272.927C533.12 273.851 533.343 274.544 533.79 275.005C534.252 275.452 534.837 275.675 535.545 275.675C535.96 275.675 536.314 275.621 536.607 275.513C536.915 275.406 537.176 275.29 537.392 275.167C537.607 275.029 537.792 274.905 537.946 274.798C538.1 274.69 538.239 274.636 538.362 274.636C538.516 274.636 538.631 274.674 538.708 274.751C538.8 274.813 538.893 274.921 538.985 275.075L540.324 277.245C539.585 277.922 538.708 278.446 537.692 278.815C536.676 279.185 535.622 279.369 534.529 279.369ZM559.622 264.661C559.622 263.768 559.491 262.945 559.229 262.19C558.983 261.436 558.613 260.782 558.121 260.228C557.628 259.674 557.028 259.243 556.32 258.935C555.612 258.627 554.796 258.473 553.872 258.473C551.979 258.473 550.486 259.019 549.393 260.112C548.315 261.205 547.63 262.722 547.338 264.661H559.622ZM563.339 275.652C562.785 276.298 562.146 276.86 561.423 277.338C560.699 277.799 559.93 278.176 559.114 278.469C558.298 278.761 557.451 278.977 556.574 279.115C555.712 279.254 554.857 279.323 554.011 279.323C552.395 279.323 550.894 279.054 549.508 278.515C548.138 277.961 546.945 277.16 545.929 276.114C544.929 275.052 544.144 273.743 543.574 272.188C543.02 270.618 542.743 268.817 542.743 266.785C542.743 265.154 542.997 263.637 543.505 262.237C544.013 260.82 544.736 259.589 545.675 258.542C546.63 257.496 547.792 256.672 549.162 256.072C550.532 255.471 552.071 255.171 553.78 255.171C555.211 255.171 556.528 255.41 557.728 255.887C558.944 256.349 559.991 257.026 560.869 257.919C561.746 258.812 562.431 259.912 562.924 261.221C563.432 262.529 563.686 264.022 563.686 265.7C563.686 266.393 563.609 266.862 563.455 267.109C563.301 267.34 563.016 267.455 562.6 267.455H547.222C547.269 268.856 547.469 270.08 547.823 271.126C548.177 272.158 548.662 273.02 549.277 273.712C549.908 274.405 550.655 274.921 551.517 275.259C552.379 275.598 553.341 275.767 554.403 275.767C555.404 275.767 556.266 275.652 556.989 275.421C557.728 275.19 558.359 274.944 558.883 274.682C559.422 274.405 559.868 274.151 560.222 273.92C560.591 273.689 560.915 273.574 561.192 273.574C561.561 273.574 561.846 273.712 562.046 273.989L563.339 275.652ZM573.051 258.796C573.558 258.257 574.09 257.765 574.644 257.318C575.198 256.872 575.783 256.495 576.399 256.187C577.03 255.864 577.699 255.618 578.407 255.448C579.131 255.263 579.901 255.171 580.716 255.171C582.009 255.171 583.141 255.387 584.111 255.818C585.096 256.249 585.919 256.857 586.581 257.642C587.243 258.411 587.743 259.343 588.082 260.436C588.421 261.529 588.59 262.737 588.59 264.061V279H584.064V264.061C584.064 262.383 583.68 261.082 582.91 260.159C582.14 259.22 580.963 258.75 579.377 258.75C578.223 258.75 577.137 259.027 576.121 259.581C575.121 260.12 574.19 260.859 573.328 261.798V279H568.825V255.541H571.527C572.158 255.541 572.55 255.841 572.704 256.441L573.051 258.796ZM601.993 279.369C600.1 279.369 598.637 278.838 597.606 277.776C596.59 276.714 596.082 275.198 596.082 273.227V259.189H593.357C593.096 259.189 592.872 259.112 592.688 258.958C592.518 258.789 592.434 258.542 592.434 258.219V256.395L596.244 255.864L597.259 248.868C597.321 248.606 597.436 248.406 597.606 248.267C597.791 248.113 598.021 248.036 598.299 248.036H600.584V255.91H607.234V259.189H600.584V272.927C600.584 273.851 600.808 274.544 601.254 275.005C601.716 275.452 602.301 275.675 603.009 275.675C603.424 275.675 603.779 275.621 604.071 275.513C604.379 275.406 604.641 275.29 604.856 275.167C605.072 275.029 605.256 274.905 605.41 274.798C605.564 274.69 605.703 274.636 605.826 274.636C605.98 274.636 606.095 274.674 606.172 274.751C606.265 274.813 606.357 274.921 606.449 275.075L607.789 277.245C607.05 277.922 606.172 278.446 605.156 278.815C604.14 279.185 603.086 279.369 601.993 279.369ZM631.905 267.293C632.705 267.293 633.406 267.186 634.006 266.97C634.622 266.755 635.13 266.454 635.53 266.07C635.946 265.669 636.254 265.192 636.454 264.638C636.669 264.084 636.777 263.476 636.777 262.814C636.777 261.459 636.361 260.382 635.53 259.581C634.714 258.765 633.506 258.358 631.905 258.358C630.319 258.358 629.111 258.765 628.28 259.581C627.464 260.382 627.056 261.459 627.056 262.814C627.056 263.476 627.156 264.084 627.356 264.638C627.572 265.177 627.88 265.646 628.28 266.047C628.695 266.431 629.203 266.739 629.804 266.97C630.42 267.186 631.12 267.293 631.905 267.293ZM639.086 280.224C639.086 279.67 638.932 279.231 638.624 278.908C638.316 278.569 637.893 278.307 637.354 278.123C636.831 277.922 636.215 277.784 635.507 277.707C634.799 277.615 634.052 277.545 633.267 277.499C632.498 277.453 631.705 277.414 630.889 277.384C630.073 277.338 629.288 277.261 628.534 277.153C627.733 277.553 627.071 278.038 626.548 278.607C626.04 279.177 625.786 279.847 625.786 280.616C625.786 281.109 625.909 281.571 626.156 282.002C626.417 282.433 626.81 282.802 627.333 283.11C627.872 283.433 628.542 283.68 629.342 283.849C630.158 284.034 631.128 284.126 632.251 284.126C633.36 284.126 634.337 284.026 635.184 283.826C636.03 283.641 636.738 283.372 637.308 283.018C637.893 282.679 638.332 282.271 638.624 281.794C638.932 281.317 639.086 280.793 639.086 280.224ZM643.658 256.418V258.104C643.658 258.658 643.311 259.004 642.619 259.143L640.102 259.512C640.317 259.989 640.487 260.497 640.61 261.036C640.733 261.559 640.795 262.114 640.795 262.698C640.795 263.853 640.571 264.9 640.125 265.839C639.679 266.762 639.063 267.555 638.278 268.217C637.493 268.879 636.554 269.387 635.461 269.741C634.383 270.095 633.198 270.272 631.905 270.272C630.843 270.272 629.85 270.157 628.926 269.926C628.465 270.203 628.111 270.511 627.864 270.849C627.633 271.172 627.518 271.496 627.518 271.819C627.518 272.358 627.741 272.758 628.187 273.02C628.649 273.281 629.242 273.474 629.965 273.597C630.704 273.705 631.543 273.774 632.482 273.805C633.437 273.836 634.399 273.889 635.368 273.966C636.354 274.028 637.316 274.151 638.255 274.336C639.209 274.505 640.048 274.79 640.772 275.19C641.51 275.575 642.103 276.114 642.549 276.806C643.011 277.484 643.242 278.369 643.242 279.462C643.242 280.478 642.988 281.463 642.48 282.417C641.988 283.372 641.264 284.218 640.31 284.957C639.355 285.696 638.193 286.289 636.823 286.735C635.453 287.182 633.898 287.405 632.159 287.405C630.42 287.405 628.903 287.235 627.61 286.897C626.333 286.558 625.263 286.104 624.401 285.534C623.554 284.965 622.915 284.303 622.484 283.549C622.069 282.794 621.861 282.009 621.861 281.194C621.861 280.054 622.215 279.092 622.923 278.307C623.631 277.507 624.609 276.883 625.855 276.437C625.178 276.129 624.639 275.714 624.239 275.19C623.839 274.651 623.639 273.943 623.639 273.066C623.639 272.727 623.7 272.381 623.823 272.027C623.947 271.657 624.131 271.296 624.378 270.942C624.639 270.572 624.955 270.226 625.324 269.903C625.709 269.579 626.148 269.287 626.64 269.025C625.486 268.379 624.578 267.524 623.916 266.462C623.254 265.385 622.923 264.13 622.923 262.698C622.923 261.544 623.146 260.505 623.593 259.581C624.039 258.658 624.655 257.865 625.44 257.203C626.24 256.541 627.187 256.033 628.28 255.679C629.388 255.325 630.597 255.148 631.905 255.148C633.937 255.148 635.684 255.571 637.146 256.418H643.658ZM657.726 255.171C659.45 255.171 661.005 255.456 662.39 256.025C663.791 256.58 664.977 257.388 665.946 258.45C666.931 259.497 667.686 260.767 668.209 262.26C668.732 263.738 668.994 265.4 668.994 267.247C668.994 269.094 668.732 270.765 668.209 272.258C667.686 273.751 666.931 275.021 665.946 276.068C664.977 277.114 663.791 277.922 662.39 278.492C661.005 279.046 659.45 279.323 657.726 279.323C655.987 279.323 654.417 279.046 653.016 278.492C651.63 277.922 650.445 277.114 649.46 276.068C648.475 275.021 647.713 273.751 647.174 272.258C646.651 270.765 646.389 269.094 646.389 267.247C646.389 265.4 646.651 263.738 647.174 262.26C647.713 260.767 648.475 259.497 649.46 258.45C650.445 257.388 651.63 256.58 653.016 256.025C654.417 255.456 655.987 255.171 657.726 255.171ZM657.726 275.814C659.943 275.814 661.598 275.067 662.691 273.574C663.784 272.081 664.33 269.98 664.33 267.27C664.33 264.561 663.784 262.46 662.691 260.967C661.598 259.458 659.943 258.704 657.726 258.704C655.479 258.704 653.801 259.458 652.693 260.967C651.6 262.46 651.053 264.561 651.053 267.27C651.053 269.98 651.6 272.081 652.693 273.574C653.801 275.067 655.479 275.814 657.726 275.814ZM689.86 264.661C689.86 263.768 689.729 262.945 689.467 262.19C689.221 261.436 688.852 260.782 688.359 260.228C687.866 259.674 687.266 259.243 686.558 258.935C685.85 258.627 685.034 258.473 684.11 258.473C682.217 258.473 680.724 259.019 679.631 260.112C678.553 261.205 677.868 262.722 677.576 264.661H689.86ZM693.577 275.652C693.023 276.298 692.384 276.86 691.661 277.338C690.937 277.799 690.168 278.176 689.352 278.469C688.536 278.761 687.689 278.977 686.812 279.115C685.95 279.254 685.096 279.323 684.249 279.323C682.633 279.323 681.132 279.054 679.746 278.515C678.376 277.961 677.183 277.16 676.167 276.114C675.167 275.052 674.382 273.743 673.812 272.188C673.258 270.618 672.981 268.817 672.981 266.785C672.981 265.154 673.235 263.637 673.743 262.237C674.251 260.82 674.974 259.589 675.913 258.542C676.868 257.496 678.03 256.672 679.4 256.072C680.77 255.471 682.309 255.171 684.018 255.171C685.45 255.171 686.766 255.41 687.966 255.887C689.182 256.349 690.229 257.026 691.107 257.919C691.984 258.812 692.669 259.912 693.162 261.221C693.67 262.529 693.924 264.022 693.924 265.7C693.924 266.393 693.847 266.862 693.693 267.109C693.539 267.34 693.254 267.455 692.838 267.455H677.46C677.507 268.856 677.707 270.08 678.061 271.126C678.415 272.158 678.9 273.02 679.515 273.712C680.147 274.405 680.893 274.921 681.755 275.259C682.617 275.598 683.579 275.767 684.641 275.767C685.642 275.767 686.504 275.652 687.228 275.421C687.966 275.19 688.598 274.944 689.121 274.682C689.66 274.405 690.106 274.151 690.46 273.92C690.83 273.689 691.153 273.574 691.43 273.574C691.799 273.574 692.084 273.712 692.284 273.989L693.577 275.652ZM712.894 259.581C712.771 259.781 712.64 259.928 712.502 260.02C712.363 260.097 712.186 260.135 711.97 260.135C711.724 260.135 711.447 260.051 711.139 259.881C710.847 259.712 710.485 259.527 710.054 259.327C709.638 259.127 709.146 258.942 708.576 258.773C708.007 258.604 707.329 258.519 706.544 258.519C705.898 258.519 705.305 258.604 704.766 258.773C704.243 258.927 703.797 259.15 703.427 259.443C703.058 259.72 702.773 260.059 702.573 260.459C702.373 260.844 702.273 261.259 702.273 261.706C702.273 262.291 702.442 262.775 702.781 263.16C703.135 263.545 703.589 263.876 704.143 264.153C704.713 264.43 705.351 264.684 706.059 264.915C706.783 265.131 707.514 265.362 708.253 265.608C709.007 265.854 709.738 266.139 710.447 266.462C711.17 266.77 711.809 267.163 712.363 267.64C712.933 268.102 713.387 268.663 713.725 269.325C714.079 269.987 714.256 270.795 714.256 271.75C714.256 272.843 714.056 273.859 713.656 274.798C713.271 275.721 712.694 276.522 711.924 277.199C711.17 277.876 710.231 278.407 709.107 278.792C707.984 279.177 706.698 279.369 705.251 279.369C703.635 279.369 702.142 279.1 700.772 278.561C699.402 278.023 698.255 277.338 697.331 276.506L698.394 274.775C698.517 274.559 698.671 274.397 698.855 274.29C699.04 274.166 699.286 274.105 699.594 274.105C699.887 274.105 700.187 274.213 700.495 274.428C700.803 274.644 701.172 274.882 701.603 275.144C702.034 275.39 702.557 275.621 703.173 275.837C703.789 276.037 704.559 276.137 705.482 276.137C706.252 276.137 706.921 276.044 707.491 275.86C708.061 275.66 708.53 275.398 708.899 275.075C709.284 274.736 709.569 274.351 709.754 273.92C709.939 273.489 710.031 273.035 710.031 272.558C710.031 271.942 709.854 271.434 709.5 271.034C709.161 270.618 708.707 270.264 708.138 269.972C707.583 269.679 706.945 269.425 706.221 269.21C705.498 268.994 704.759 268.763 704.004 268.517C703.25 268.271 702.511 267.986 701.788 267.663C701.064 267.34 700.418 266.932 699.848 266.439C699.294 265.946 698.84 265.346 698.486 264.638C698.147 263.93 697.978 263.068 697.978 262.052C697.978 261.144 698.163 260.274 698.532 259.443C698.917 258.612 699.463 257.88 700.171 257.249C700.895 256.618 701.78 256.118 702.827 255.748C703.889 255.364 705.097 255.171 706.452 255.171C708.007 255.171 709.407 255.417 710.654 255.91C711.917 256.403 712.994 257.08 713.887 257.942L712.894 259.581ZM448.666 314.519C449.651 313.519 450.736 312.71 451.922 312.095C453.122 311.479 454.5 311.171 456.055 311.171C457.348 311.171 458.479 311.387 459.449 311.818C460.434 312.249 461.258 312.857 461.92 313.642C462.581 314.411 463.082 315.343 463.42 316.436C463.759 317.529 463.928 318.737 463.928 320.061V335H459.403V320.061C459.403 318.383 459.018 317.082 458.248 316.159C457.479 315.22 456.301 314.75 454.715 314.75C453.561 314.75 452.476 315.027 451.46 315.581C450.459 316.12 449.528 316.859 448.666 317.798V335H444.163V300.919H448.666V314.519ZM485.844 320.661C485.844 319.768 485.713 318.945 485.451 318.19C485.205 317.436 484.836 316.782 484.343 316.228C483.85 315.674 483.25 315.243 482.542 314.935C481.834 314.627 481.018 314.473 480.094 314.473C478.201 314.473 476.708 315.019 475.615 316.112C474.537 317.205 473.852 318.722 473.56 320.661H485.844ZM489.561 331.652C489.007 332.298 488.368 332.86 487.645 333.338C486.921 333.799 486.152 334.176 485.336 334.469C484.52 334.761 483.673 334.977 482.796 335.115C481.934 335.254 481.08 335.323 480.233 335.323C478.617 335.323 477.116 335.054 475.73 334.515C474.36 333.961 473.167 333.16 472.151 332.114C471.151 331.052 470.366 329.743 469.796 328.188C469.242 326.618 468.965 324.817 468.965 322.785C468.965 321.154 469.219 319.637 469.727 318.237C470.235 316.82 470.959 315.589 471.897 314.542C472.852 313.496 474.014 312.672 475.384 312.072C476.754 311.471 478.293 311.171 480.002 311.171C481.434 311.171 482.75 311.41 483.95 311.887C485.167 312.349 486.213 313.026 487.091 313.919C487.968 314.812 488.653 315.912 489.146 317.221C489.654 318.529 489.908 320.022 489.908 321.7C489.908 322.393 489.831 322.862 489.677 323.109C489.523 323.34 489.238 323.455 488.822 323.455H473.445C473.491 324.856 473.691 326.08 474.045 327.126C474.399 328.158 474.884 329.02 475.5 329.712C476.131 330.405 476.877 330.921 477.739 331.259C478.601 331.598 479.563 331.767 480.626 331.767C481.626 331.767 482.488 331.652 483.212 331.421C483.95 331.19 484.582 330.944 485.105 330.682C485.644 330.405 486.09 330.151 486.444 329.92C486.814 329.689 487.137 329.574 487.414 329.574C487.783 329.574 488.068 329.712 488.268 329.989L489.561 331.652ZM499.296 316.043C500.05 314.504 500.958 313.295 502.02 312.418C503.083 311.541 504.36 311.102 505.853 311.102C506.361 311.102 506.839 311.163 507.285 311.287C507.747 311.394 508.147 311.564 508.486 311.795L508.185 315.189C508.078 315.604 507.824 315.812 507.423 315.812C507.208 315.812 506.885 315.774 506.454 315.697C506.023 315.604 505.561 315.558 505.068 315.558C504.345 315.558 503.706 315.666 503.152 315.881C502.598 316.082 502.097 316.389 501.651 316.805C501.22 317.205 500.835 317.706 500.496 318.306C500.158 318.891 499.842 319.56 499.55 320.315V335H495.047V311.541H497.633C498.126 311.541 498.457 311.633 498.626 311.818C498.811 311.987 498.942 312.295 499.019 312.741L499.296 316.043ZM526.942 320.661C526.942 319.768 526.811 318.945 526.549 318.19C526.303 317.436 525.933 316.782 525.441 316.228C524.948 315.674 524.348 315.243 523.64 314.935C522.932 314.627 522.116 314.473 521.192 314.473C519.299 314.473 517.806 315.019 516.713 316.112C515.635 317.205 514.95 318.722 514.658 320.661H526.942ZM530.659 331.652C530.105 332.298 529.466 332.86 528.743 333.338C528.019 333.799 527.249 334.176 526.434 334.469C525.618 334.761 524.771 334.977 523.894 335.115C523.032 335.254 522.177 335.323 521.331 335.323C519.714 335.323 518.214 335.054 516.828 334.515C515.458 333.961 514.265 333.16 513.249 332.114C512.249 331.052 511.464 329.743 510.894 328.188C510.34 326.618 510.063 324.817 510.063 322.785C510.063 321.154 510.317 319.637 510.825 318.237C511.333 316.82 512.056 315.589 512.995 314.542C513.95 313.496 515.112 312.672 516.482 312.072C517.852 311.471 519.391 311.171 521.1 311.171C522.531 311.171 523.847 311.41 525.048 311.887C526.264 312.349 527.311 313.026 528.188 313.919C529.066 314.812 529.751 315.912 530.243 317.221C530.751 318.529 531.005 320.022 531.005 321.7C531.005 322.393 530.928 322.862 530.774 323.109C530.621 323.34 530.336 323.455 529.92 323.455H514.542C514.588 324.856 514.789 326.08 515.143 327.126C515.497 328.158 515.982 329.02 516.597 329.712C517.228 330.405 517.975 330.921 518.837 331.259C519.699 331.598 520.661 331.767 521.723 331.767C522.724 331.767 523.586 331.652 524.309 331.421C525.048 331.19 525.679 330.944 526.203 330.682C526.741 330.405 527.188 330.151 527.542 329.92C527.911 329.689 528.235 329.574 528.512 329.574C528.881 329.574 529.166 329.712 529.366 329.989L530.659 331.652Z" fill="white"/>
<defs>
<clipPath id="clip0_904:374">
<rect width="117.255" height="20" fill="white" transform="translate(441 123)"/>
</clipPath>
</defs>
</svg>
