<svg width="1204" height="678" viewBox="0 0 1204 678" fill="none" xmlns="http://www.w3.org/2000/svg">
<rect width="1204" height="677.25" fill="white"/>
<path d="M882.794 624.65L359.259 522.171C329.643 516.373 310.113 487.941 315.331 458.217L383.435 70.2354H882.794V624.65Z" fill="#76C7F2"/>
<path d="M387.381 494.764V495.432H383.61V494.764H385.117V489.967C385.117 489.823 385.122 489.678 385.132 489.531L383.88 490.606C383.838 490.642 383.795 490.665 383.753 490.674C383.71 490.681 383.671 490.681 383.635 490.674C383.599 490.668 383.564 490.655 383.532 490.635C383.502 490.615 383.479 490.594 383.463 490.571L383.188 490.193L385.284 488.382H385.996V494.764H387.381ZM393.689 491.916C393.689 492.532 393.622 493.065 393.488 493.517C393.357 493.965 393.177 494.337 392.948 494.631C392.719 494.926 392.447 495.145 392.133 495.289C391.822 495.433 391.488 495.505 391.131 495.505C390.771 495.505 390.436 495.433 390.125 495.289C389.817 495.145 389.549 494.926 389.32 494.631C389.091 494.337 388.911 493.965 388.78 493.517C388.649 493.065 388.583 492.532 388.583 491.916C388.583 491.301 388.649 490.768 388.78 490.316C388.911 489.864 389.091 489.491 389.32 489.197C389.549 488.899 389.817 488.678 390.125 488.534C390.436 488.39 390.771 488.318 391.131 488.318C391.488 488.318 391.822 488.39 392.133 488.534C392.447 488.678 392.719 488.899 392.948 489.197C393.177 489.491 393.357 489.864 393.488 490.316C393.622 490.768 393.689 491.301 393.689 491.916ZM392.781 491.916C392.781 491.38 392.735 490.93 392.644 490.566C392.555 490.2 392.434 489.905 392.28 489.683C392.13 489.46 391.955 489.301 391.755 489.206C391.555 489.108 391.347 489.059 391.131 489.059C390.915 489.059 390.708 489.108 390.508 489.206C390.308 489.301 390.133 489.46 389.983 489.683C389.832 489.905 389.711 490.2 389.619 490.566C389.531 490.93 389.487 491.38 389.487 491.916C389.487 492.453 389.531 492.903 389.619 493.267C389.711 493.63 389.832 493.923 389.983 494.145C390.133 494.368 390.308 494.528 390.508 494.626C390.708 494.721 390.915 494.769 391.131 494.769C391.347 494.769 391.555 494.721 391.755 494.626C391.955 494.528 392.13 494.368 392.28 494.145C392.434 493.923 392.555 493.63 392.644 493.267C392.735 492.903 392.781 492.453 392.781 491.916ZM397.74 490.095C397.74 490.37 397.697 490.617 397.612 490.836C397.527 491.052 397.412 491.236 397.268 491.386C397.128 491.534 396.962 491.646 396.772 491.725C396.586 491.804 396.388 491.843 396.178 491.843C395.959 491.843 395.755 491.804 395.565 491.725C395.375 491.646 395.21 491.534 395.069 491.386C394.931 491.236 394.823 491.052 394.745 490.836C394.666 490.617 394.627 490.37 394.627 490.095C394.627 489.814 394.666 489.563 394.745 489.344C394.823 489.125 394.931 488.94 395.069 488.789C395.21 488.639 395.375 488.524 395.565 488.446C395.755 488.367 395.959 488.328 396.178 488.328C396.401 488.328 396.607 488.367 396.797 488.446C396.987 488.524 397.152 488.639 397.293 488.789C397.434 488.94 397.543 489.125 397.622 489.344C397.7 489.563 397.74 489.814 397.74 490.095ZM397.062 490.095C397.062 489.879 397.039 489.696 396.993 489.545C396.948 489.395 396.884 489.272 396.802 489.177C396.723 489.079 396.63 489.008 396.522 488.966C396.414 488.923 396.3 488.902 396.178 488.902C396.057 488.902 395.944 488.923 395.84 488.966C395.735 489.008 395.643 489.079 395.565 489.177C395.486 489.272 395.424 489.395 395.378 489.545C395.332 489.696 395.309 489.879 395.309 490.095C395.309 490.308 395.332 490.489 395.378 490.64C395.424 490.787 395.486 490.908 395.565 491.003C395.643 491.095 395.735 491.162 395.84 491.205C395.944 491.244 396.057 491.264 396.178 491.264C396.3 491.264 396.414 491.244 396.522 491.205C396.63 491.162 396.723 491.095 396.802 491.003C396.884 490.908 396.948 490.787 396.993 490.64C397.039 490.489 397.062 490.308 397.062 490.095ZM400.229 488.544C400.261 488.504 400.299 488.47 400.342 488.441C400.387 488.411 400.448 488.396 400.523 488.396H401.157L396.012 495.289C395.982 495.332 395.944 495.366 395.899 495.392C395.853 495.419 395.797 495.432 395.732 495.432H395.089L400.229 488.544ZM401.633 493.772C401.633 494.047 401.59 494.293 401.505 494.509C401.42 494.725 401.306 494.908 401.161 495.059C401.021 495.206 400.855 495.319 400.666 495.397C400.479 495.476 400.281 495.515 400.072 495.515C399.849 495.515 399.643 495.476 399.453 495.397C399.266 495.319 399.103 495.206 398.962 495.059C398.825 494.908 398.717 494.725 398.638 494.509C398.559 494.293 398.52 494.047 398.52 493.772C398.52 493.491 398.559 493.24 398.638 493.021C398.717 492.799 398.825 492.612 398.962 492.461C399.103 492.311 399.266 492.196 399.453 492.118C399.643 492.039 399.849 492 400.072 492C400.291 492 400.495 492.039 400.685 492.118C400.878 492.196 401.044 492.311 401.181 492.461C401.322 492.612 401.432 492.799 401.51 493.021C401.592 493.24 401.633 493.491 401.633 493.772ZM400.955 493.772C400.955 493.556 400.932 493.373 400.887 493.222C400.841 493.069 400.777 492.944 400.695 492.849C400.617 492.754 400.523 492.686 400.415 492.643C400.307 492.601 400.193 492.579 400.072 492.579C399.951 492.579 399.836 492.601 399.728 492.643C399.623 492.686 399.532 492.754 399.453 492.849C399.374 492.944 399.312 493.069 399.266 493.222C399.224 493.373 399.203 493.556 399.203 493.772C399.203 493.985 399.224 494.165 399.266 494.312C399.312 494.46 399.374 494.581 399.453 494.676C399.532 494.767 399.623 494.834 399.728 494.877C399.836 494.916 399.951 494.936 400.072 494.936C400.193 494.936 400.307 494.916 400.415 494.877C400.523 494.834 400.617 494.767 400.695 494.676C400.777 494.581 400.841 494.46 400.887 494.312C400.932 494.165 400.955 493.985 400.955 493.772ZM407.789 490.38C408.152 490.38 408.48 490.44 408.771 490.561C409.062 490.683 409.311 490.854 409.517 491.077C409.723 491.3 409.88 491.57 409.988 491.887C410.1 492.201 410.155 492.553 410.155 492.943C410.155 493.335 410.1 493.689 409.988 494.003C409.88 494.317 409.723 494.586 409.517 494.808C409.311 495.031 409.062 495.203 408.771 495.324C408.48 495.441 408.152 495.5 407.789 495.5C407.422 495.5 407.092 495.441 406.797 495.324C406.506 495.203 406.257 495.031 406.051 494.808C405.845 494.586 405.686 494.317 405.575 494.003C405.467 493.689 405.413 493.335 405.413 492.943C405.413 492.553 405.467 492.201 405.575 491.887C405.686 491.57 405.845 491.3 406.051 491.077C406.257 490.854 406.506 490.683 406.797 490.561C407.092 490.44 407.422 490.38 407.789 490.38ZM407.789 494.818C408.28 494.818 408.646 494.654 408.889 494.327C409.131 493.996 409.252 493.537 409.252 492.947C409.252 492.355 409.131 491.894 408.889 491.563C408.646 491.232 408.28 491.067 407.789 491.067C407.54 491.067 407.323 491.11 407.136 491.195C406.953 491.28 406.799 491.403 406.675 491.563C406.553 491.723 406.462 491.921 406.4 492.157C406.341 492.389 406.311 492.653 406.311 492.947C406.311 493.537 406.432 493.996 406.675 494.327C406.92 494.654 407.291 494.818 407.789 494.818ZM411.693 495.432V491.205L411.143 491.141C411.074 491.124 411.017 491.1 410.971 491.067C410.928 491.031 410.907 490.98 410.907 490.915V490.557H411.693V490.075C411.693 489.791 411.732 489.539 411.81 489.319C411.892 489.097 412.007 488.91 412.154 488.76C412.305 488.606 412.485 488.49 412.694 488.411C412.904 488.333 413.139 488.293 413.401 488.293C413.624 488.293 413.828 488.326 414.015 488.392L413.995 488.828C413.989 488.907 413.944 488.95 413.863 488.956C413.784 488.963 413.678 488.966 413.543 488.966C413.393 488.966 413.255 488.986 413.131 489.025C413.01 489.064 412.905 489.128 412.817 489.216C412.729 489.305 412.66 489.421 412.611 489.565C412.565 489.709 412.542 489.887 412.542 490.1V490.557H413.976V491.19H412.571V495.432H411.693ZM418.441 494.234C418.601 494.45 418.776 494.602 418.966 494.69C419.156 494.779 419.368 494.823 419.604 494.823C420.069 494.823 420.426 494.658 420.674 494.327C420.923 493.996 421.048 493.525 421.048 492.913C421.048 492.589 421.018 492.311 420.959 492.079C420.904 491.846 420.822 491.656 420.714 491.509C420.606 491.358 420.473 491.249 420.316 491.18C420.159 491.111 419.981 491.077 419.781 491.077C419.496 491.077 419.246 491.142 419.03 491.273C418.817 491.404 418.621 491.589 418.441 491.828V494.234ZM418.396 491.229C418.606 490.971 418.848 490.763 419.123 490.606C419.398 490.449 419.712 490.37 420.066 490.37C420.354 490.37 420.614 490.426 420.846 490.537C421.079 490.645 421.277 490.807 421.44 491.023C421.604 491.236 421.73 491.501 421.818 491.818C421.907 492.136 421.951 492.501 421.951 492.913C421.951 493.28 421.902 493.622 421.804 493.939C421.705 494.253 421.563 494.527 421.376 494.759C421.193 494.988 420.967 495.17 420.699 495.304C420.434 495.435 420.134 495.5 419.801 495.5C419.496 495.5 419.234 495.45 419.015 495.348C418.799 495.243 418.608 495.099 418.441 494.916V497.116H417.562V490.458H418.087C418.212 490.458 418.288 490.519 418.318 490.64L418.396 491.229Z" fill="#292929"/>
<circle cx="331.185" cy="491.043" r="43.8341" stroke="#292929" stroke-width="0.701346"/>
<path d="M913.47 350.458C913.631 350.674 913.806 350.827 913.996 350.915C914.186 351.003 914.398 351.047 914.634 351.047C915.099 351.047 915.455 350.882 915.704 350.552C915.953 350.221 916.077 349.75 916.077 349.138C916.077 348.814 916.048 348.535 915.989 348.303C915.933 348.071 915.852 347.881 915.743 347.734C915.635 347.583 915.503 347.473 915.346 347.405C915.189 347.336 915.01 347.302 914.811 347.302C914.526 347.302 914.276 347.367 914.06 347.498C913.847 347.629 913.65 347.814 913.47 348.053V350.458ZM913.426 347.454C913.636 347.195 913.878 346.987 914.153 346.83C914.428 346.673 914.742 346.595 915.095 346.595C915.383 346.595 915.644 346.65 915.876 346.762C916.108 346.87 916.306 347.032 916.47 347.248C916.634 347.46 916.76 347.725 916.848 348.043C916.936 348.36 916.981 348.725 916.981 349.138C916.981 349.504 916.932 349.846 916.833 350.164C916.735 350.478 916.593 350.751 916.406 350.984C916.223 351.213 915.997 351.394 915.729 351.529C915.464 351.66 915.164 351.725 914.83 351.725C914.526 351.725 914.264 351.674 914.045 351.573C913.829 351.468 913.637 351.324 913.47 351.141V353.34H912.592V346.683H913.117C913.241 346.683 913.318 346.744 913.348 346.865L913.426 347.454Z" fill="#292929"/>
<line y1="-0.5" x2="9.81885" y2="-0.5" transform="matrix(1 4.61826e-06 -1.6549e-09 1 890.157 70.2354)" stroke="#292929"/>
<line x1="890.157" y1="623.799" x2="899.976" y2="623.799" stroke="#292929"/>
<line x1="899.477" y1="624.299" x2="899.477" y2="70.2352" stroke="#292929"/>
<line x1="305.437" y1="509.979" x2="305.437" y2="70.2353" stroke="#D8D8D8"/>
<line x1="305.937" y1="624.5" x2="883.145" y2="624.5" stroke="#D8D8D8"/>
<path d="M384.279 70.3218C384.327 70.0499 384.145 69.7904 383.873 69.7423C383.602 69.6941 383.342 69.8755 383.294 70.1474L384.279 70.3218ZM306.074 511.819L384.279 70.3218L383.294 70.1474L305.09 511.644L306.074 511.819Z" fill="#D8D8D8"/>
<path d="M305.72 511.242C305.449 511.189 305.187 511.366 305.134 511.637C305.081 511.908 305.258 512.171 305.529 512.223L305.72 511.242ZM882.394 624.791C882.665 624.844 882.927 624.667 882.98 624.396C883.033 624.125 882.856 623.862 882.585 623.809L882.394 624.791ZM305.529 512.223L882.394 624.791L882.585 623.809L305.72 511.242L305.529 512.223Z" fill="#D8D8D8"/>
<path d="M339.674 61.268C356.652 52.3609 365.351 61.2022 365.351 61.2022" stroke="#292929" stroke-width="0.701346" stroke-miterlimit="10" stroke-linecap="round" stroke-linejoin="round"/>
<path d="M361.688 62.0079L365.755 61.6862L365.716 57.2705" stroke="#292929" stroke-width="0.701346" stroke-linecap="round" stroke-linejoin="round"/>
<path d="M326.364 64.8392V65.5068H322.594V64.8392H324.101V60.0426C324.101 59.8986 324.106 59.753 324.115 59.6057L322.864 60.6809C322.821 60.7169 322.778 60.7398 322.736 60.7496C322.693 60.7561 322.654 60.7561 322.618 60.7496C322.582 60.7431 322.548 60.73 322.515 60.7103C322.486 60.6907 322.463 60.6694 322.446 60.6465L322.171 60.2685L324.268 58.4569H324.98V64.8392H326.364ZM332.673 61.9917C332.673 62.607 332.606 63.1405 332.471 63.5922C332.34 64.0406 332.16 64.412 331.931 64.7066C331.702 65.0012 331.431 65.2205 331.116 65.3645C330.805 65.5085 330.472 65.5805 330.115 65.5805C329.755 65.5805 329.419 65.5085 329.108 65.3645C328.801 65.2205 328.532 65.0012 328.303 64.7066C328.074 64.412 327.894 64.0406 327.763 63.5922C327.632 63.1405 327.567 62.607 327.567 61.9917C327.567 61.3764 327.632 60.8429 327.763 60.3912C327.894 59.9395 328.074 59.5664 328.303 59.2719C328.532 58.974 328.801 58.7531 329.108 58.6091C329.419 58.4651 329.755 58.3931 330.115 58.3931C330.472 58.3931 330.805 58.4651 331.116 58.6091C331.431 58.7531 331.702 58.974 331.931 59.2719C332.16 59.5664 332.34 59.9395 332.471 60.3912C332.606 60.8429 332.673 61.3764 332.673 61.9917ZM331.764 61.9917C331.764 61.4549 331.719 61.0049 331.627 60.6416C331.539 60.275 331.418 59.9805 331.264 59.7579C331.113 59.5353 330.938 59.3766 330.738 59.2817C330.539 59.1835 330.331 59.1344 330.115 59.1344C329.899 59.1344 329.691 59.1835 329.491 59.2817C329.292 59.3766 329.117 59.5353 328.966 59.7579C328.816 59.9805 328.694 60.275 328.603 60.6416C328.514 61.0049 328.47 61.4549 328.47 61.9917C328.47 62.5285 328.514 62.9785 328.603 63.3418C328.694 63.7051 328.816 63.998 328.966 64.2206C329.117 64.4431 329.292 64.6035 329.491 64.7017C329.691 64.7966 329.899 64.8441 330.115 64.8441C330.331 64.8441 330.539 64.7966 330.738 64.7017C330.938 64.6035 331.113 64.4431 331.264 64.2206C331.418 63.998 331.539 63.7051 331.627 63.3418C331.719 62.9785 331.764 62.5285 331.764 61.9917ZM333.615 59.969C333.615 59.7497 333.656 59.5435 333.738 59.3504C333.82 59.1573 333.933 58.9904 334.077 58.8497C334.221 58.7056 334.389 58.5927 334.583 58.5109C334.776 58.4291 334.985 58.3882 335.211 58.3882C335.437 58.3882 335.646 58.4291 335.839 58.5109C336.036 58.5927 336.206 58.7056 336.35 58.8497C336.494 58.9904 336.607 59.1573 336.689 59.3504C336.774 59.5435 336.816 59.7497 336.816 59.969C336.816 60.185 336.774 60.3896 336.689 60.5827C336.607 60.7725 336.494 60.9394 336.35 61.0834C336.206 61.2242 336.036 61.3371 335.839 61.4222C335.646 61.504 335.437 61.5449 335.211 61.5449C334.985 61.5449 334.776 61.504 334.583 61.4222C334.389 61.3371 334.221 61.2242 334.077 61.0834C333.933 60.9394 333.82 60.7725 333.738 60.5827C333.656 60.3896 333.615 60.185 333.615 59.969ZM334.234 59.9739C334.234 60.1114 334.258 60.2407 334.308 60.3618C334.357 60.4796 334.425 60.5827 334.514 60.6711C334.602 60.7594 334.705 60.8298 334.823 60.8822C334.944 60.9313 335.073 60.9558 335.211 60.9558C335.348 60.9558 335.476 60.9313 335.594 60.8822C335.715 60.8298 335.82 60.7594 335.908 60.6711C335.996 60.5827 336.065 60.4796 336.114 60.3618C336.163 60.2407 336.188 60.1114 336.188 59.9739C336.188 59.8365 336.163 59.7072 336.114 59.5861C336.065 59.465 335.996 59.3602 335.908 59.2719C335.82 59.1802 335.715 59.1099 335.594 59.0608C335.476 59.0084 335.348 58.9822 335.211 58.9822C335.073 58.9822 334.944 59.0084 334.823 59.0608C334.705 59.1099 334.602 59.1802 334.514 59.2719C334.425 59.3602 334.357 59.465 334.308 59.5861C334.258 59.7072 334.234 59.8365 334.234 59.9739Z" fill="#292929"/>
<path d="M315.205 575.132C306.297 558.154 315.139 549.456 315.139 549.456" stroke="#292929" stroke-width="0.701346" stroke-miterlimit="10" stroke-linecap="round" stroke-linejoin="round"/>
<path d="M315.944 553.119L315.623 549.052L311.207 549.09" stroke="#292929" stroke-width="0.701346" stroke-linecap="round" stroke-linejoin="round"/>
<path d="M308.831 587.343V588.011H305.06V587.343H306.568V582.547C306.568 582.403 306.572 582.257 306.582 582.11L305.33 583.185C305.288 583.221 305.245 583.244 305.203 583.254C305.16 583.26 305.121 583.26 305.085 583.254C305.049 583.247 305.015 583.234 304.982 583.214C304.952 583.195 304.929 583.173 304.913 583.15L304.638 582.772L306.734 580.961H307.446V587.343H308.831ZM315.139 584.496C315.139 585.111 315.072 585.644 314.938 586.096C314.807 586.544 314.627 586.916 314.398 587.211C314.169 587.505 313.897 587.724 313.583 587.868C313.272 588.012 312.938 588.084 312.582 588.084C312.222 588.084 311.886 588.012 311.575 587.868C311.268 587.724 310.999 587.505 310.77 587.211C310.541 586.916 310.361 586.544 310.23 586.096C310.099 585.644 310.034 585.111 310.034 584.496C310.034 583.88 310.099 583.347 310.23 582.895C310.361 582.443 310.541 582.07 310.77 581.776C310.999 581.478 311.268 581.257 311.575 581.113C311.886 580.969 312.222 580.897 312.582 580.897C312.938 580.897 313.272 580.969 313.583 581.113C313.897 581.257 314.169 581.478 314.398 581.776C314.627 582.07 314.807 582.443 314.938 582.895C315.072 583.347 315.139 583.88 315.139 584.496ZM314.231 584.496C314.231 583.959 314.185 583.509 314.094 583.146C314.005 582.779 313.884 582.484 313.73 582.262C313.58 582.039 313.405 581.881 313.205 581.786C313.006 581.687 312.798 581.638 312.582 581.638C312.366 581.638 312.158 581.687 311.958 581.786C311.759 581.881 311.583 582.039 311.433 582.262C311.282 582.484 311.161 582.779 311.07 583.146C310.981 583.509 310.937 583.959 310.937 584.496C310.937 585.032 310.981 585.482 311.07 585.846C311.161 586.209 311.282 586.502 311.433 586.724C311.583 586.947 311.759 587.107 311.958 587.206C312.158 587.301 312.366 587.348 312.582 587.348C312.798 587.348 313.006 587.301 313.205 587.206C313.405 587.107 313.58 586.947 313.73 586.724C313.884 586.502 314.005 586.209 314.094 585.846C314.185 585.482 314.231 585.032 314.231 584.496ZM321.046 584.496C321.046 585.111 320.978 585.644 320.844 586.096C320.713 586.544 320.533 586.916 320.304 587.211C320.075 587.505 319.803 587.724 319.489 587.868C319.178 588.012 318.845 588.084 318.488 588.084C318.128 588.084 317.792 588.012 317.481 587.868C317.174 587.724 316.905 587.505 316.676 587.211C316.447 586.916 316.267 586.544 316.136 586.096C316.005 585.644 315.94 585.111 315.94 584.496C315.94 583.88 316.005 583.347 316.136 582.895C316.267 582.443 316.447 582.07 316.676 581.776C316.905 581.478 317.174 581.257 317.481 581.113C317.792 580.969 318.128 580.897 318.488 580.897C318.845 580.897 319.178 580.969 319.489 581.113C319.803 581.257 320.075 581.478 320.304 581.776C320.533 582.07 320.713 582.443 320.844 582.895C320.978 583.347 321.046 583.88 321.046 584.496ZM320.137 584.496C320.137 583.959 320.092 583.509 320 583.146C319.912 582.779 319.79 582.484 319.637 582.262C319.486 582.039 319.311 581.881 319.111 581.786C318.912 581.687 318.704 581.638 318.488 581.638C318.272 581.638 318.064 581.687 317.864 581.786C317.665 581.881 317.49 582.039 317.339 582.262C317.188 582.484 317.067 582.779 316.976 583.146C316.887 583.509 316.843 583.959 316.843 584.496C316.843 585.032 316.887 585.482 316.976 585.846C317.067 586.209 317.188 586.502 317.339 586.724C317.49 586.947 317.665 587.107 317.864 587.206C318.064 587.301 318.272 587.348 318.488 587.348C318.704 587.348 318.912 587.301 319.111 587.206C319.311 587.107 319.486 586.947 319.637 586.724C319.79 586.502 319.912 586.209 320 585.846C320.092 585.482 320.137 585.032 320.137 584.496ZM321.988 582.473C321.988 582.254 322.029 582.047 322.111 581.854C322.193 581.661 322.306 581.494 322.45 581.354C322.594 581.21 322.762 581.097 322.955 581.015C323.149 580.933 323.358 580.892 323.584 580.892C323.81 580.892 324.019 580.933 324.212 581.015C324.409 581.097 324.579 581.21 324.723 581.354C324.867 581.494 324.98 581.661 325.062 581.854C325.147 582.047 325.189 582.254 325.189 582.473C325.189 582.689 325.147 582.893 325.062 583.087C324.98 583.276 324.867 583.443 324.723 583.587C324.579 583.728 324.409 583.841 324.212 583.926C324.019 584.008 323.81 584.049 323.584 584.049C323.358 584.049 323.149 584.008 322.955 583.926C322.762 583.841 322.594 583.728 322.45 583.587C322.306 583.443 322.193 583.276 322.111 583.087C322.029 582.893 321.988 582.689 321.988 582.473ZM322.607 582.478C322.607 582.615 322.631 582.745 322.68 582.866C322.73 582.983 322.798 583.087 322.887 583.175C322.975 583.263 323.078 583.334 323.196 583.386C323.317 583.435 323.446 583.46 323.584 583.46C323.721 583.46 323.849 583.435 323.967 583.386C324.088 583.334 324.193 583.263 324.281 583.175C324.369 583.087 324.438 582.983 324.487 582.866C324.536 582.745 324.561 582.615 324.561 582.478C324.561 582.34 324.536 582.211 324.487 582.09C324.438 581.969 324.369 581.864 324.281 581.776C324.193 581.684 324.088 581.614 323.967 581.565C323.849 581.512 323.721 581.486 323.584 581.486C323.446 581.486 323.317 581.512 323.196 581.565C323.078 581.614 322.975 581.684 322.887 581.776C322.798 581.864 322.73 581.969 322.68 582.09C322.631 582.211 322.607 582.34 322.607 582.478Z" fill="#292929"/>
</svg>
