<svg width="1204" height="678" viewBox="0 0 1204 678" fill="none" xmlns="http://www.w3.org/2000/svg">
<rect width="1204" height="677.25" fill="white"/>
<rect x="30" y="635" width="1144" height="5" fill="#F74F64"/>
<path d="M43.8214 618.085C43.8214 619.098 43.6524 620.029 43.3145 620.877C42.9765 621.726 42.5015 622.456 41.8893 623.068C41.2771 623.68 40.5406 624.155 39.6798 624.493C38.8189 624.831 37.8624 625 36.8103 625H31.54V611.169H36.8103C37.8624 611.169 38.8189 611.341 39.6798 611.686C40.5406 612.023 41.2771 612.499 41.8893 613.111C42.5015 613.716 42.9765 614.443 43.3145 615.292C43.6524 616.14 43.8214 617.071 43.8214 618.085ZM41.1815 618.085C41.1815 617.326 41.0795 616.647 40.8754 616.047C40.6777 615.441 40.3876 614.931 40.005 614.517C39.6288 614.096 39.1696 613.774 38.6276 613.551C38.092 613.328 37.4862 613.216 36.8103 613.216H34.1225V622.953H36.8103C37.4862 622.953 38.092 622.841 38.6276 622.618C39.1696 622.395 39.6288 622.076 40.005 621.662C40.3876 621.241 40.6777 620.731 40.8754 620.131C41.0795 619.526 41.1815 618.843 41.1815 618.085ZM50.5317 615.033C51.2586 615.033 51.9186 615.151 52.5116 615.387C53.111 615.623 53.6212 615.958 54.042 616.392C54.4693 616.825 54.7977 617.354 55.0272 617.979C55.2568 618.604 55.3716 619.302 55.3716 620.074C55.3716 620.852 55.2568 621.553 55.0272 622.178C54.7977 622.803 54.4693 623.336 54.042 623.776C53.6212 624.216 53.111 624.554 52.5116 624.79C51.9186 625.026 51.2586 625.143 50.5317 625.143C49.7983 625.143 49.132 625.026 48.5326 624.79C47.9332 624.554 47.4199 624.216 46.9926 623.776C46.5718 623.336 46.2434 622.803 46.0074 622.178C45.7779 621.553 45.6631 620.852 45.6631 620.074C45.6631 619.302 45.7779 618.604 46.0074 617.979C46.2434 617.354 46.5718 616.825 46.9926 616.392C47.4199 615.958 47.9332 615.623 48.5326 615.387C49.132 615.151 49.7983 615.033 50.5317 615.033ZM50.5317 623.326C51.3479 623.326 51.9505 623.052 52.3395 622.504C52.7348 621.955 52.9325 621.152 52.9325 620.093C52.9325 619.035 52.7348 618.228 52.3395 617.673C51.9505 617.118 51.3479 616.841 50.5317 616.841C49.7027 616.841 49.0874 617.122 48.6856 617.683C48.2903 618.238 48.0926 619.041 48.0926 620.093C48.0926 621.145 48.2903 621.949 48.6856 622.504C49.0874 623.052 49.7027 623.326 50.5317 623.326ZM59.9835 616.392C60.1812 616.194 60.3884 616.012 60.6052 615.846C60.8284 615.674 61.0611 615.531 61.3034 615.416C61.5521 615.295 61.8168 615.202 62.0973 615.138C62.3779 615.068 62.684 615.033 63.0156 615.033C63.5512 615.033 64.0263 615.126 64.4408 615.311C64.8552 615.489 65.1996 615.744 65.4738 616.076C65.7544 616.401 65.9648 616.793 66.1051 617.252C66.2517 617.705 66.3251 618.206 66.3251 618.754V625H63.9625V618.754C63.9625 618.155 63.8254 617.692 63.5512 617.367C63.277 617.036 62.8594 616.87 62.2982 616.87C61.8901 616.87 61.5075 616.962 61.1504 617.147C60.7933 617.332 60.4553 617.584 60.1365 617.903V625H57.774V615.186H59.2183C59.5244 615.186 59.7252 615.33 59.8209 615.617L59.9835 616.392ZM70.4986 610.241C70.8047 610.745 71.012 611.271 71.1204 611.819C71.2288 612.361 71.2383 612.9 71.1491 613.436C71.0598 613.965 70.8717 614.475 70.5847 614.966C70.3042 615.451 69.9247 615.888 69.4465 616.277L68.7004 615.827C68.6367 615.789 68.592 615.744 68.5665 615.693C68.541 615.636 68.5283 615.582 68.5283 615.531C68.5346 615.473 68.5474 615.419 68.5665 615.368C68.592 615.317 68.6239 615.272 68.6622 615.234C68.7961 615.075 68.9236 614.864 69.0448 614.603C69.1659 614.341 69.2488 614.048 69.2935 613.723C69.3445 613.398 69.3381 613.05 69.2743 612.68C69.2169 612.31 69.0735 611.941 68.8439 611.571C68.7355 611.386 68.7036 611.226 68.7482 611.092C68.7993 610.952 68.9045 610.853 69.0639 610.796L70.4986 610.241ZM76.985 625.153C76.1305 625.153 75.4737 624.914 75.0146 624.436C74.5619 623.951 74.3355 623.285 74.3355 622.437V616.956H73.3312C73.2036 616.956 73.0952 616.914 73.006 616.831C72.9167 616.749 72.8721 616.624 72.8721 616.458V615.521L74.4503 615.263L74.9477 612.585C74.9795 612.457 75.0401 612.358 75.1294 612.288C75.2187 612.218 75.3334 612.183 75.4737 612.183H76.6981V615.272H79.3189V616.956H76.6981V622.274C76.6981 622.58 76.7714 622.819 76.918 622.991C77.0711 623.164 77.2783 623.25 77.5398 623.25C77.6864 623.25 77.8076 623.234 77.9032 623.202C78.0053 623.164 78.0914 623.125 78.1615 623.087C78.238 623.049 78.305 623.014 78.3624 622.982C78.4198 622.944 78.4771 622.924 78.5345 622.924C78.6047 622.924 78.6621 622.944 78.7067 622.982C78.7513 623.014 78.7992 623.065 78.8502 623.135L79.558 624.283C79.2136 624.57 78.8183 624.786 78.3719 624.933C77.9256 625.08 77.4633 625.153 76.985 625.153Z" fill="#F74F64"/>
<rect x="30.5" y="87.5" width="519" height="428" stroke="#D9D9D9"/>
<path d="M503 496L130.344 423.131C100.719 417.338 81.1828 388.896 86.407 359.165L134.232 87H503V496Z" fill="#76C7F2"/>
<rect x="654.5" y="87.5" width="519" height="428" stroke="#D9D9D9"/>
<path d="M1090 470L792.344 411.795C762.719 406.002 743.183 377.56 748.407 347.83L786.156 133H1090V470Z" fill="#76C7F2"/>
</svg>
