<svg width="1204" height="678" viewBox="0 0 1204 678" fill="none" xmlns="http://www.w3.org/2000/svg">
<rect width="1204" height="677.25" fill="white"/>
<rect x="30" y="635" width="1144" height="5" fill="#70C216"/>
<path d="M43.005 614.493C43.005 615.447 42.846 616.323 42.528 617.121C42.21 617.919 41.763 618.606 41.187 619.182C40.611 619.758 39.918 620.205 39.108 620.523C38.298 620.841 37.398 621 36.408 621H31.449V607.986H36.408C37.398 607.986 38.298 608.148 39.108 608.472C39.918 608.79 40.611 609.237 41.187 609.813C41.763 610.383 42.21 611.067 42.528 611.865C42.846 612.663 43.005 613.539 43.005 614.493ZM40.521 614.493C40.521 613.779 40.425 613.14 40.233 612.576C40.047 612.006 39.774 611.526 39.414 611.136C39.06 610.74 38.628 610.437 38.118 610.227C37.614 610.017 37.044 609.912 36.408 609.912H33.879V619.074H36.408C37.044 619.074 37.614 618.969 38.118 618.759C38.628 618.549 39.06 618.249 39.414 617.859C39.774 617.463 40.047 616.983 40.233 616.419C40.425 615.849 40.521 615.207 40.521 614.493ZM49.0543 611.622C49.7383 611.622 50.3593 611.733 50.9173 611.955C51.4813 612.177 51.9613 612.492 52.3573 612.9C52.7593 613.308 53.0683 613.806 53.2843 614.394C53.5003 614.982 53.6083 615.639 53.6083 616.365C53.6083 617.097 53.5003 617.757 53.2843 618.345C53.0683 618.933 52.7593 619.434 52.3573 619.848C51.9613 620.262 51.4813 620.58 50.9173 620.802C50.3593 621.024 49.7383 621.135 49.0543 621.135C48.3643 621.135 47.7373 621.024 47.1733 620.802C46.6093 620.58 46.1263 620.262 45.7243 619.848C45.3283 619.434 45.0193 618.933 44.7973 618.345C44.5813 617.757 44.4733 617.097 44.4733 616.365C44.4733 615.639 44.5813 614.982 44.7973 614.394C45.0193 613.806 45.3283 613.308 45.7243 612.9C46.1263 612.492 46.6093 612.177 47.1733 611.955C47.7373 611.733 48.3643 611.622 49.0543 611.622ZM49.0543 619.425C49.8223 619.425 50.3893 619.167 50.7553 618.651C51.1273 618.135 51.3133 617.379 51.3133 616.383C51.3133 615.387 51.1273 614.628 50.7553 614.106C50.3893 613.584 49.8223 613.323 49.0543 613.323C48.2743 613.323 47.6953 613.587 47.3173 614.115C46.9453 614.637 46.7593 615.393 46.7593 616.383C46.7593 617.373 46.9453 618.129 47.3173 618.651C47.6953 619.167 48.2743 619.425 49.0543 619.425Z" fill="#70C216"/>
<rect x="40.5" y="128.5" width="521.825" height="316" stroke="#D9D9D9"/>
<path d="M308.281 326.313H40V128H277.8L331.851 294.144C336.911 310.044 325.064 326.313 308.281 326.313Z" fill="#41A5DD"/>
<rect x="642.5" y="128.5" width="521.825" height="316" stroke="#D9D9D9"/>
<path d="M843.565 144L1165 144V382L901.672 382C888.809 382 877.572 373.717 873.58 361.587L815.473 182.755C809.263 163.525 823.457 144 843.565 144Z" fill="#41A5DD"/>
</svg>
