<svg width="1204" height="678" viewBox="0 0 1204 678" fill="none" xmlns="http://www.w3.org/2000/svg">
<rect width="1204" height="677.25" fill="white"/>
<rect x="30" y="635" width="1144" height="5" fill="#F74F64"/>
<path d="M43.005 614.493C43.005 615.447 42.846 616.323 42.528 617.121C42.21 617.919 41.763 618.606 41.187 619.182C40.611 619.758 39.918 620.205 39.108 620.523C38.298 620.841 37.398 621 36.408 621H31.449V607.986H36.408C37.398 607.986 38.298 608.148 39.108 608.472C39.918 608.79 40.611 609.237 41.187 609.813C41.763 610.383 42.21 611.067 42.528 611.865C42.846 612.663 43.005 613.539 43.005 614.493ZM40.521 614.493C40.521 613.779 40.425 613.14 40.233 612.576C40.047 612.006 39.774 611.526 39.414 611.136C39.06 610.74 38.628 610.437 38.118 610.227C37.614 610.017 37.044 609.912 36.408 609.912H33.879V619.074H36.408C37.044 619.074 37.614 618.969 38.118 618.759C38.628 618.549 39.06 618.249 39.414 617.859C39.774 617.463 40.047 616.983 40.233 616.419C40.425 615.849 40.521 615.207 40.521 614.493ZM49.0543 611.622C49.7383 611.622 50.3593 611.733 50.9173 611.955C51.4813 612.177 51.9613 612.492 52.3573 612.9C52.7593 613.308 53.0683 613.806 53.2843 614.394C53.5003 614.982 53.6083 615.639 53.6083 616.365C53.6083 617.097 53.5003 617.757 53.2843 618.345C53.0683 618.933 52.7593 619.434 52.3573 619.848C51.9613 620.262 51.4813 620.58 50.9173 620.802C50.3593 621.024 49.7383 621.135 49.0543 621.135C48.3643 621.135 47.7373 621.024 47.1733 620.802C46.6093 620.58 46.1263 620.262 45.7243 619.848C45.3283 619.434 45.0193 618.933 44.7973 618.345C44.5813 617.757 44.4733 617.097 44.4733 616.365C44.4733 615.639 44.5813 614.982 44.7973 614.394C45.0193 613.806 45.3283 613.308 45.7243 612.9C46.1263 612.492 46.6093 612.177 47.1733 611.955C47.7373 611.733 48.3643 611.622 49.0543 611.622ZM49.0543 619.425C49.8223 619.425 50.3893 619.167 50.7553 618.651C51.1273 618.135 51.3133 617.379 51.3133 616.383C51.3133 615.387 51.1273 614.628 50.7553 614.106C50.3893 613.584 49.8223 613.323 49.0543 613.323C48.2743 613.323 47.6953 613.587 47.3173 614.115C46.9453 614.637 46.7593 615.393 46.7593 616.383C46.7593 617.373 46.9453 618.129 47.3173 618.651C47.6953 619.167 48.2743 619.425 49.0543 619.425ZM57.6833 612.9C57.8693 612.714 58.0643 612.543 58.2683 612.387C58.4783 612.225 58.6973 612.09 58.9253 611.982C59.1593 611.868 59.4083 611.781 59.6723 611.721C59.9363 611.655 60.2243 611.622 60.5363 611.622C61.0403 611.622 61.4873 611.709 61.8773 611.883C62.2673 612.051 62.5913 612.291 62.8493 612.603C63.1133 612.909 63.3113 613.278 63.4433 613.71C63.5813 614.136 63.6503 614.607 63.6503 615.123V621H61.4273V615.123C61.4273 614.559 61.2983 614.124 61.0403 613.818C60.7823 613.506 60.3893 613.35 59.8613 613.35C59.4773 613.35 59.1173 613.437 58.7813 613.611C58.4453 613.785 58.1273 614.022 57.8273 614.322V621H55.6043V611.766H56.9633C57.2513 611.766 57.4403 611.901 57.5303 612.171L57.6833 612.9ZM67.3127 607.113C67.6007 607.587 67.7957 608.082 67.8977 608.598C67.9997 609.108 68.0087 609.615 67.9247 610.119C67.8407 610.617 67.6637 611.097 67.3937 611.559C67.1297 612.015 66.7727 612.426 66.3227 612.792L65.6207 612.369C65.5607 612.333 65.5187 612.291 65.4947 612.243C65.4707 612.189 65.4587 612.138 65.4587 612.09C65.4647 612.036 65.4767 611.985 65.4947 611.937C65.5187 611.889 65.5487 611.847 65.5847 611.811C65.7107 611.661 65.8307 611.463 65.9447 611.217C66.0587 610.971 66.1367 610.695 66.1787 610.389C66.2267 610.083 66.2207 609.756 66.1607 609.408C66.1067 609.06 65.9717 608.712 65.7557 608.364C65.6537 608.19 65.6237 608.04 65.6657 607.914C65.7137 607.782 65.8127 607.689 65.9627 607.635L67.3127 607.113ZM73.1514 621.144C72.3474 621.144 71.7294 620.919 71.2974 620.469C70.8714 620.013 70.6584 619.386 70.6584 618.588V613.431H69.7134C69.5934 613.431 69.4914 613.392 69.4074 613.314C69.3234 613.236 69.2814 613.119 69.2814 612.963V612.081L70.7664 611.838L71.2344 609.318C71.2644 609.198 71.3214 609.105 71.4054 609.039C71.4894 608.973 71.5974 608.94 71.7294 608.94H72.8814V611.847H75.3474V613.431H72.8814V618.435C72.8814 618.723 72.9504 618.948 73.0884 619.11C73.2324 619.272 73.4274 619.353 73.6734 619.353C73.8114 619.353 73.9254 619.338 74.0154 619.308C74.1114 619.272 74.1924 619.236 74.2584 619.2C74.3304 619.164 74.3934 619.131 74.4474 619.101C74.5014 619.065 74.5554 619.047 74.6094 619.047C74.6754 619.047 74.7294 619.065 74.7714 619.101C74.8134 619.131 74.8584 619.179 74.9064 619.245L75.5724 620.325C75.2484 620.595 74.8764 620.799 74.4564 620.937C74.0364 621.075 73.6014 621.144 73.1514 621.144Z" fill="#F74F64"/>
<path d="M461.151 192.884L391.938 576.969L881.388 490.666L812.449 99.6969L499.146 154.941C479.729 158.364 464.625 173.525 461.151 192.884Z" fill="#41A5DD"/>
</svg>
