<svg width="1204" height="678" viewBox="0 0 1204 678" fill="none" xmlns="http://www.w3.org/2000/svg">
<rect width="1204" height="677.25" fill="white"/>
<line y1="-0.5" x2="14" y2="-0.5" transform="matrix(-1 -3.01064e-06 2.53858e-09 -1 309 571)" stroke="black"/>
<line x1="309" y1="56.5" x2="295" y2="56.5" stroke="black"/>
<line x1="295.5" y1="56" x2="295.5" y2="571" stroke="black"/>
<line x1="373.5" y1="581" x2="373.5" y2="595" stroke="black"/>
<line x1="320.5" y1="581" x2="320.5" y2="595" stroke="black"/>
<line x1="320" y1="594.5" x2="373" y2="594.5" stroke="black"/>
<path d="M326.126 618.048V619H320.75V618.048H322.899V611.209C322.899 611.004 322.906 610.796 322.92 610.586L321.135 612.119C321.074 612.17 321.014 612.203 320.953 612.217C320.892 612.226 320.836 612.226 320.785 612.217C320.734 612.208 320.685 612.189 320.638 612.161C320.596 612.133 320.563 612.103 320.54 612.07L320.148 611.531L323.137 608.948H324.152V618.048H326.126ZM335.121 613.988C335.121 614.865 335.025 615.626 334.834 616.27C334.647 616.909 334.391 617.439 334.064 617.859C333.737 618.279 333.35 618.592 332.902 618.797C332.459 619.002 331.983 619.105 331.474 619.105C330.961 619.105 330.482 619.002 330.039 618.797C329.6 618.592 329.218 618.279 328.891 617.859C328.564 617.439 328.308 616.909 328.121 616.27C327.934 615.626 327.841 614.865 327.841 613.988C327.841 613.111 327.934 612.35 328.121 611.706C328.308 611.062 328.564 610.53 328.891 610.11C329.218 609.685 329.6 609.37 330.039 609.165C330.482 608.96 330.961 608.857 331.474 608.857C331.983 608.857 332.459 608.96 332.902 609.165C333.35 609.37 333.737 609.685 334.064 610.11C334.391 610.53 334.647 611.062 334.834 611.706C335.025 612.35 335.121 613.111 335.121 613.988ZM333.826 613.988C333.826 613.223 333.761 612.581 333.63 612.063C333.504 611.54 333.331 611.12 333.112 610.803C332.897 610.486 332.648 610.259 332.363 610.124C332.078 609.984 331.782 609.914 331.474 609.914C331.166 609.914 330.87 609.984 330.585 610.124C330.3 610.259 330.051 610.486 329.836 610.803C329.621 611.12 329.449 611.54 329.318 612.063C329.192 612.581 329.129 613.223 329.129 613.988C329.129 614.753 329.192 615.395 329.318 615.913C329.449 616.431 329.621 616.849 329.836 617.166C330.051 617.483 330.3 617.712 330.585 617.852C330.87 617.987 331.166 618.055 331.474 618.055C331.782 618.055 332.078 617.987 332.363 617.852C332.648 617.712 332.897 617.483 333.112 617.166C333.331 616.849 333.504 616.431 333.63 615.913C333.761 615.395 333.826 614.753 333.826 613.988ZM340.896 611.391C340.896 611.783 340.836 612.135 340.714 612.448C340.593 612.756 340.43 613.017 340.224 613.232C340.024 613.442 339.788 613.603 339.517 613.715C339.251 613.827 338.969 613.883 338.67 613.883C338.358 613.883 338.066 613.827 337.795 613.715C337.525 613.603 337.289 613.442 337.088 613.232C336.892 613.017 336.738 612.756 336.626 612.448C336.514 612.135 336.458 611.783 336.458 611.391C336.458 610.99 336.514 610.633 336.626 610.32C336.738 610.007 336.892 609.744 337.088 609.529C337.289 609.314 337.525 609.151 337.795 609.039C338.066 608.927 338.358 608.871 338.67 608.871C338.988 608.871 339.282 608.927 339.552 609.039C339.823 609.151 340.059 609.314 340.259 609.529C340.46 609.744 340.616 610.007 340.728 610.32C340.84 610.633 340.896 610.99 340.896 611.391ZM339.93 611.391C339.93 611.083 339.898 610.822 339.832 610.607C339.767 610.392 339.676 610.217 339.559 610.082C339.447 609.942 339.314 609.842 339.16 609.781C339.006 609.72 338.843 609.69 338.67 609.69C338.498 609.69 338.337 609.72 338.187 609.781C338.038 609.842 337.907 609.942 337.795 610.082C337.683 610.217 337.595 610.392 337.529 610.607C337.464 610.822 337.431 611.083 337.431 611.391C337.431 611.694 337.464 611.953 337.529 612.168C337.595 612.378 337.683 612.551 337.795 612.686C337.907 612.817 338.038 612.912 338.187 612.973C338.337 613.029 338.498 613.057 338.67 613.057C338.843 613.057 339.006 613.029 339.16 612.973C339.314 612.912 339.447 612.817 339.559 612.686C339.676 612.551 339.767 612.378 339.832 612.168C339.898 611.953 339.93 611.694 339.93 611.391ZM344.445 609.179C344.492 609.123 344.546 609.074 344.606 609.032C344.672 608.99 344.758 608.969 344.865 608.969H345.768L338.432 618.797C338.39 618.858 338.337 618.907 338.271 618.944C338.206 618.981 338.127 619 338.033 619H337.116L344.445 609.179ZM346.447 616.634C346.447 617.026 346.387 617.376 346.265 617.684C346.144 617.992 345.981 618.253 345.775 618.468C345.575 618.678 345.339 618.839 345.068 618.951C344.802 619.063 344.52 619.119 344.221 619.119C343.904 619.119 343.61 619.063 343.339 618.951C343.073 618.839 342.84 618.678 342.639 618.468C342.443 618.253 342.289 617.992 342.177 617.684C342.065 617.376 342.009 617.026 342.009 616.634C342.009 616.233 342.065 615.876 342.177 615.563C342.289 615.246 342.443 614.98 342.639 614.765C342.84 614.55 343.073 614.387 343.339 614.275C343.61 614.163 343.904 614.107 344.221 614.107C344.534 614.107 344.826 614.163 345.096 614.275C345.372 614.387 345.607 614.55 345.803 614.765C346.004 614.98 346.16 615.246 346.272 615.563C346.389 615.876 346.447 616.233 346.447 616.634ZM345.481 616.634C345.481 616.326 345.449 616.065 345.383 615.85C345.318 615.631 345.227 615.453 345.11 615.318C344.998 615.183 344.865 615.085 344.711 615.024C344.557 614.963 344.394 614.933 344.221 614.933C344.049 614.933 343.885 614.963 343.731 615.024C343.582 615.085 343.451 615.183 343.339 615.318C343.227 615.453 343.139 615.631 343.073 615.85C343.013 616.065 342.982 616.326 342.982 616.634C342.982 616.937 343.013 617.194 343.073 617.404C343.139 617.614 343.227 617.787 343.339 617.922C343.451 618.053 343.582 618.148 343.731 618.209C343.885 618.265 344.049 618.293 344.221 618.293C344.394 618.293 344.557 618.265 344.711 618.209C344.865 618.148 344.998 618.053 345.11 617.922C345.227 617.787 345.318 617.614 345.383 617.404C345.449 617.194 345.481 616.937 345.481 616.634ZM355.225 611.797C355.743 611.797 356.209 611.883 356.625 612.056C357.04 612.229 357.395 612.474 357.689 612.791C357.983 613.108 358.207 613.493 358.361 613.946C358.519 614.394 358.599 614.896 358.599 615.451C358.599 616.011 358.519 616.515 358.361 616.963C358.207 617.411 357.983 617.794 357.689 618.111C357.395 618.428 357.04 618.673 356.625 618.846C356.209 619.014 355.743 619.098 355.225 619.098C354.702 619.098 354.231 619.014 353.811 618.846C353.395 618.673 353.041 618.428 352.747 618.111C352.453 617.794 352.226 617.411 352.068 616.963C351.914 616.515 351.837 616.011 351.837 615.451C351.837 614.896 351.914 614.394 352.068 613.946C352.226 613.493 352.453 613.108 352.747 612.791C353.041 612.474 353.395 612.229 353.811 612.056C354.231 611.883 354.702 611.797 355.225 611.797ZM355.225 618.125C355.925 618.125 356.447 617.892 356.793 617.425C357.138 616.954 357.311 616.298 357.311 615.458C357.311 614.613 357.138 613.955 356.793 613.484C356.447 613.013 355.925 612.777 355.225 612.777C354.87 612.777 354.56 612.838 354.294 612.959C354.032 613.08 353.813 613.255 353.636 613.484C353.463 613.713 353.332 613.995 353.244 614.331C353.16 614.662 353.118 615.038 353.118 615.458C353.118 616.298 353.29 616.954 353.636 617.425C353.986 617.892 354.515 618.125 355.225 618.125ZM360.791 619V612.973L360.007 612.882C359.909 612.859 359.827 612.824 359.762 612.777C359.701 612.726 359.671 612.653 359.671 612.56V612.049H360.791V611.363C360.791 610.957 360.847 610.598 360.959 610.285C361.075 609.968 361.239 609.702 361.449 609.487C361.663 609.268 361.92 609.102 362.219 608.99C362.517 608.878 362.853 608.822 363.227 608.822C363.544 608.822 363.836 608.869 364.102 608.962L364.074 609.585C364.064 609.697 364.001 609.758 363.885 609.767C363.773 609.776 363.621 609.781 363.43 609.781C363.215 609.781 363.019 609.809 362.842 609.865C362.669 609.921 362.52 610.012 362.394 610.138C362.268 610.264 362.17 610.43 362.1 610.635C362.034 610.84 362.002 611.095 362.002 611.398V612.049H364.046V612.952H362.044V619H360.791ZM374.922 611.909L370.967 621.093C370.925 621.186 370.871 621.261 370.806 621.317C370.745 621.373 370.649 621.401 370.519 621.401H369.595L370.89 618.587L367.964 611.909H369.042C369.149 611.909 369.233 611.937 369.294 611.993C369.359 612.044 369.403 612.103 369.427 612.168L371.324 616.634C371.398 616.83 371.461 617.035 371.513 617.25C371.578 617.031 371.648 616.823 371.723 616.627L373.564 612.168C373.592 612.093 373.638 612.033 373.704 611.986C373.774 611.935 373.851 611.909 373.935 611.909H374.922Z" fill="black"/>
<path d="M286.105 311.909L282.15 321.093C282.108 321.186 282.054 321.261 281.989 321.317C281.928 321.373 281.833 321.401 281.702 321.401H280.778L282.073 318.587L279.147 311.909H280.225C280.332 311.909 280.416 311.937 280.477 311.993C280.542 312.044 280.587 312.103 280.61 312.168L282.507 316.634C282.582 316.83 282.645 317.035 282.696 317.25C282.761 317.031 282.831 316.823 282.906 316.627L284.747 312.168C284.775 312.093 284.822 312.033 284.887 311.986C284.957 311.935 285.034 311.909 285.118 311.909H286.105Z" fill="black"/>
<rect x="319.5" y="570.5" width="514" height="51" transform="rotate(-90 319.5 570.5)" stroke="#D8D8D8"/>
<rect x="782.5" y="570.5" width="514" height="51" transform="rotate(-90 782.5 570.5)" stroke="#D8D8D8"/>
<rect x="319.5" y="519.5" width="514" height="51" stroke="#D8D8D8"/>
<rect x="319.5" y="56.5" width="514" height="51" stroke="#D8D8D8"/>
<line x1="844" y1="519.5" x2="858" y2="519.5" stroke="black"/>
<line x1="844" y1="570.5" x2="858" y2="570.5" stroke="black"/>
<line x1="857.5" y1="571" x2="857.5" y2="520" stroke="black"/>
<path d="M875.126 550.048V551H869.75V550.048H871.899V543.209C871.899 543.004 871.906 542.796 871.92 542.586L870.135 544.119C870.074 544.17 870.014 544.203 869.953 544.217C869.892 544.226 869.836 544.226 869.785 544.217C869.734 544.208 869.685 544.189 869.638 544.161C869.596 544.133 869.563 544.103 869.54 544.07L869.148 543.531L872.137 540.948H873.152V550.048H875.126ZM884.121 545.988C884.121 546.865 884.025 547.626 883.834 548.27C883.647 548.909 883.391 549.439 883.064 549.859C882.737 550.279 882.35 550.592 881.902 550.797C881.459 551.002 880.983 551.105 880.474 551.105C879.961 551.105 879.482 551.002 879.039 550.797C878.6 550.592 878.218 550.279 877.891 549.859C877.564 549.439 877.308 548.909 877.121 548.27C876.934 547.626 876.841 546.865 876.841 545.988C876.841 545.111 876.934 544.35 877.121 543.706C877.308 543.062 877.564 542.53 877.891 542.11C878.218 541.685 878.6 541.37 879.039 541.165C879.482 540.96 879.961 540.857 880.474 540.857C880.983 540.857 881.459 540.96 881.902 541.165C882.35 541.37 882.737 541.685 883.064 542.11C883.391 542.53 883.647 543.062 883.834 543.706C884.025 544.35 884.121 545.111 884.121 545.988ZM882.826 545.988C882.826 545.223 882.761 544.581 882.63 544.063C882.504 543.54 882.331 543.12 882.112 542.803C881.897 542.486 881.648 542.259 881.363 542.124C881.078 541.984 880.782 541.914 880.474 541.914C880.166 541.914 879.87 541.984 879.585 542.124C879.3 542.259 879.051 542.486 878.836 542.803C878.621 543.12 878.449 543.54 878.318 544.063C878.192 544.581 878.129 545.223 878.129 545.988C878.129 546.753 878.192 547.395 878.318 547.913C878.449 548.431 878.621 548.849 878.836 549.166C879.051 549.483 879.3 549.712 879.585 549.852C879.87 549.987 880.166 550.055 880.474 550.055C880.782 550.055 881.078 549.987 881.363 549.852C881.648 549.712 881.897 549.483 882.112 549.166C882.331 548.849 882.504 548.431 882.63 547.913C882.761 547.395 882.826 546.753 882.826 545.988ZM889.896 543.391C889.896 543.783 889.836 544.135 889.714 544.448C889.593 544.756 889.43 545.017 889.224 545.232C889.024 545.442 888.788 545.603 888.517 545.715C888.251 545.827 887.969 545.883 887.67 545.883C887.358 545.883 887.066 545.827 886.795 545.715C886.525 545.603 886.289 545.442 886.088 545.232C885.892 545.017 885.738 544.756 885.626 544.448C885.514 544.135 885.458 543.783 885.458 543.391C885.458 542.99 885.514 542.633 885.626 542.32C885.738 542.007 885.892 541.744 886.088 541.529C886.289 541.314 886.525 541.151 886.795 541.039C887.066 540.927 887.358 540.871 887.67 540.871C887.988 540.871 888.282 540.927 888.552 541.039C888.823 541.151 889.059 541.314 889.259 541.529C889.46 541.744 889.616 542.007 889.728 542.32C889.84 542.633 889.896 542.99 889.896 543.391ZM888.93 543.391C888.93 543.083 888.898 542.822 888.832 542.607C888.767 542.392 888.676 542.217 888.559 542.082C888.447 541.942 888.314 541.842 888.16 541.781C888.006 541.72 887.843 541.69 887.67 541.69C887.498 541.69 887.337 541.72 887.187 541.781C887.038 541.842 886.907 541.942 886.795 542.082C886.683 542.217 886.595 542.392 886.529 542.607C886.464 542.822 886.431 543.083 886.431 543.391C886.431 543.694 886.464 543.953 886.529 544.168C886.595 544.378 886.683 544.551 886.795 544.686C886.907 544.817 887.038 544.912 887.187 544.973C887.337 545.029 887.498 545.057 887.67 545.057C887.843 545.057 888.006 545.029 888.16 544.973C888.314 544.912 888.447 544.817 888.559 544.686C888.676 544.551 888.767 544.378 888.832 544.168C888.898 543.953 888.93 543.694 888.93 543.391ZM893.445 541.179C893.492 541.123 893.546 541.074 893.606 541.032C893.672 540.99 893.758 540.969 893.865 540.969H894.768L887.432 550.797C887.39 550.858 887.337 550.907 887.271 550.944C887.206 550.981 887.127 551 887.033 551H886.116L893.445 541.179ZM895.447 548.634C895.447 549.026 895.387 549.376 895.265 549.684C895.144 549.992 894.981 550.253 894.775 550.468C894.575 550.678 894.339 550.839 894.068 550.951C893.802 551.063 893.52 551.119 893.221 551.119C892.904 551.119 892.61 551.063 892.339 550.951C892.073 550.839 891.84 550.678 891.639 550.468C891.443 550.253 891.289 549.992 891.177 549.684C891.065 549.376 891.009 549.026 891.009 548.634C891.009 548.233 891.065 547.876 891.177 547.563C891.289 547.246 891.443 546.98 891.639 546.765C891.84 546.55 892.073 546.387 892.339 546.275C892.61 546.163 892.904 546.107 893.221 546.107C893.534 546.107 893.826 546.163 894.096 546.275C894.372 546.387 894.607 546.55 894.803 546.765C895.004 546.98 895.16 547.246 895.272 547.563C895.389 547.876 895.447 548.233 895.447 548.634ZM894.481 548.634C894.481 548.326 894.449 548.065 894.383 547.85C894.318 547.631 894.227 547.453 894.11 547.318C893.998 547.183 893.865 547.085 893.711 547.024C893.557 546.963 893.394 546.933 893.221 546.933C893.049 546.933 892.885 546.963 892.731 547.024C892.582 547.085 892.451 547.183 892.339 547.318C892.227 547.453 892.139 547.631 892.073 547.85C892.013 548.065 891.982 548.326 891.982 548.634C891.982 548.937 892.013 549.194 892.073 549.404C892.139 549.614 892.227 549.787 892.339 549.922C892.451 550.053 892.582 550.148 892.731 550.209C892.885 550.265 893.049 550.293 893.221 550.293C893.394 550.293 893.557 550.265 893.711 550.209C893.865 550.148 893.998 550.053 894.11 549.922C894.227 549.787 894.318 549.614 894.383 549.404C894.449 549.194 894.481 548.937 894.481 548.634ZM904.225 543.797C904.743 543.797 905.209 543.883 905.625 544.056C906.04 544.229 906.395 544.474 906.689 544.791C906.983 545.108 907.207 545.493 907.361 545.946C907.519 546.394 907.599 546.896 907.599 547.451C907.599 548.011 907.519 548.515 907.361 548.963C907.207 549.411 906.983 549.794 906.689 550.111C906.395 550.428 906.04 550.673 905.625 550.846C905.209 551.014 904.743 551.098 904.225 551.098C903.702 551.098 903.231 551.014 902.811 550.846C902.395 550.673 902.041 550.428 901.747 550.111C901.453 549.794 901.226 549.411 901.068 548.963C900.914 548.515 900.837 548.011 900.837 547.451C900.837 546.896 900.914 546.394 901.068 545.946C901.226 545.493 901.453 545.108 901.747 544.791C902.041 544.474 902.395 544.229 902.811 544.056C903.231 543.883 903.702 543.797 904.225 543.797ZM904.225 550.125C904.925 550.125 905.447 549.892 905.793 549.425C906.138 548.954 906.311 548.298 906.311 547.458C906.311 546.613 906.138 545.955 905.793 545.484C905.447 545.013 904.925 544.777 904.225 544.777C903.87 544.777 903.56 544.838 903.294 544.959C903.032 545.08 902.813 545.255 902.636 545.484C902.463 545.713 902.332 545.995 902.244 546.331C902.16 546.662 902.118 547.038 902.118 547.458C902.118 548.298 902.29 548.954 902.636 549.425C902.986 549.892 903.515 550.125 904.225 550.125ZM909.791 551V544.973L909.007 544.882C908.909 544.859 908.827 544.824 908.762 544.777C908.701 544.726 908.671 544.653 908.671 544.56V544.049H909.791V543.363C909.791 542.957 909.847 542.598 909.959 542.285C910.075 541.968 910.239 541.702 910.449 541.487C910.663 541.268 910.92 541.102 911.219 540.99C911.517 540.878 911.853 540.822 912.227 540.822C912.544 540.822 912.836 540.869 913.102 540.962L913.074 541.585C913.064 541.697 913.001 541.758 912.885 541.767C912.773 541.776 912.621 541.781 912.43 541.781C912.215 541.781 912.019 541.809 911.842 541.865C911.669 541.921 911.52 542.012 911.394 542.138C911.268 542.264 911.17 542.43 911.1 542.635C911.034 542.84 911.002 543.095 911.002 543.398V544.049H913.046V544.952H911.044V551H909.791ZM923.922 543.909L919.967 553.093C919.925 553.186 919.871 553.261 919.806 553.317C919.745 553.373 919.649 553.401 919.519 553.401H918.595L919.89 550.587L916.964 543.909H918.042C918.149 543.909 918.233 543.937 918.294 543.993C918.359 544.044 918.403 544.103 918.427 544.168L920.324 548.634C920.398 548.83 920.461 549.035 920.513 549.25C920.578 549.031 920.648 548.823 920.723 548.627L922.564 544.168C922.592 544.093 922.638 544.033 922.704 543.986C922.774 543.935 922.851 543.909 922.935 543.909H923.922Z" fill="black"/>
</svg>
