<svg width="142" height="24" viewBox="0 0 142 24" fill="none" xmlns="http://www.w3.org/2000/svg">
<path fill-rule="evenodd" clip-rule="evenodd" d="M58.7885 0.0185328C57.2067 0.0185328 56.239 0.852509 56.239 2.55753V16.2718H56.1646L46.8969 1.38996C46.3199 0.426255 45.3522 0 44.2543 0C42.0025 0 40.9231 0.908108 40.9231 3.07645V21.4239C40.9231 23.129 41.8908 23.9629 43.4726 23.9629C45.0545 23.9629 46.0222 23.129 46.0222 21.4239V8.09884H46.078L55.2713 22.5544C55.9412 23.6108 56.4995 23.9629 58.1744 23.9629C60.4076 23.9629 61.3009 22.7768 61.3009 20.6826V2.539C61.3381 0.85251 60.3704 0.0185328 58.7885 0.0185328Z" fill="white"/>
<path fill-rule="evenodd" clip-rule="evenodd" d="M79.2407 0.0185547C78.1427 0.0185547 77.5658 0.407744 76.9517 1.55678L72.3737 10.0077L67.7584 1.55678C67.2187 0.537474 66.6232 0.0185547 65.3764 0.0185547C64.3528 0.0185547 62.6965 0.630138 62.6965 2.42782C62.6965 2.90967 62.8826 3.39153 63.1432 3.81778L69.6194 14.5483V21.3684C69.6194 22.9437 70.6429 24 72.262 24C73.8811 24 74.9046 22.9437 74.9046 21.3684V14.5483L81.3808 3.81778C81.6414 3.39153 81.8274 2.90967 81.8274 2.42782C81.8461 0.630138 80.2084 0.0185547 79.2407 0.0185547Z" fill="white"/>
<path fill-rule="evenodd" clip-rule="evenodd" d="M102.764 2.37222C102.764 0.611605 101.405 0.0185547 100.084 0.0185547C98.8555 0.0185547 98.0925 0.759868 97.6087 2.33516L92.6398 18.0695H92.584L87.8013 2.33516C87.3174 0.759868 86.5358 0.0185547 85.1215 0.0185547C83.8002 0.0185547 82.4417 0.593072 82.4417 2.37222C82.4417 2.79848 82.5347 3.29886 82.758 3.91045L89.2715 22.1653C89.8111 23.6664 90.8533 24 92.491 24C94.1286 24 95.1708 23.685 95.7105 22.1653L102.429 3.91045C102.671 3.29886 102.764 2.77995 102.764 2.37222Z" fill="white"/>
<path fill-rule="evenodd" clip-rule="evenodd" d="M112.962 1.94597C112.385 0.31508 111.324 0.0185547 110.115 0.0185547H108.849C107.565 0.0185547 106.728 0.44481 106.262 1.63091L99.4139 19.6633C99.2278 20.1823 98.8928 21.1089 98.8928 21.6834C98.8928 23.0919 99.8978 24 101.349 24C102.615 24 103.341 23.5738 103.713 22.5545L105.109 18.6996H113.632L114.99 22.5545C115.381 23.5738 116.219 24 117.372 24C118.731 24 119.866 22.9807 119.866 21.6834C119.866 21.1089 119.55 20.1823 119.345 19.6633L112.962 1.94597ZM106.281 15.0301L109.407 5.7452H109.463L112.459 15.0301H106.281Z" fill="white"/>
<path fill-rule="evenodd" clip-rule="evenodd" d="M139.053 0.0185328C137.471 0.0185328 136.503 0.852509 136.503 2.55753V16.2718H136.448L127.18 1.38996C126.603 0.426255 125.635 0 124.537 0C122.285 0 121.206 0.908108 121.206 3.07645V21.4239C121.206 23.129 122.174 23.9629 123.756 23.9629C125.337 23.9629 126.305 23.129 126.305 21.4239V8.09884H126.361L135.554 22.5544C136.224 23.6108 136.782 23.9629 138.457 23.9629C140.691 23.9629 141.584 22.7768 141.584 20.6826V2.539C141.602 0.85251 140.635 0.0185328 139.053 0.0185328Z" fill="white"/>
<path d="M11.445 22.3877C12.9867 22.3877 14.2365 21.1431 14.2365 19.6078C14.2365 18.0725 12.9867 16.8279 11.445 16.8279C9.90335 16.8279 8.65356 18.0725 8.65356 19.6078C8.65356 21.1431 9.90335 22.3877 11.445 22.3877Z" fill="white"/>
<path fill-rule="evenodd" clip-rule="evenodd" d="M33.3302 1.94524C32.7533 0.314347 31.6926 0.0178223 30.4829 0.0178223H29.2175C29.1058 0.0178223 28.9941 0.0178223 28.8825 0.0363551H2.97757C1.33991 0.0363551 0 1.37072 0 3.00161V21.034C0 22.6649 1.33991 23.9993 2.97757 23.9993H21.6991V23.9808H21.7549C23.0204 23.9808 23.7462 23.5545 24.1184 22.5352L25.5141 18.6804H34.0374L35.3959 22.5352C35.7867 23.5545 36.6242 23.9808 37.778 23.9808C39.1365 23.9808 40.2531 22.9615 40.2531 21.6642C40.2531 21.0896 39.9367 20.163 39.732 19.6441L33.3302 1.94524ZM11.4451 23.0171C9.56546 23.0171 8.02084 21.4974 8.02084 19.607C8.02084 17.7352 9.54685 16.197 11.4451 16.197C13.3246 16.197 14.8693 17.7167 14.8693 19.607C14.8507 21.4974 13.3246 23.0171 11.4451 23.0171ZM18.6843 19.8665H15.5392C15.5392 19.1993 15.2601 15.4927 11.352 15.4927C7.44394 15.4927 7.27645 19.9035 7.27645 19.9035H6.43901C6.43901 19.9035 4.00112 18.9213 3.49865 18.6618C2.99618 18.3838 2.94036 17.0124 2.94036 17.0124V15.8078H3.36838V14.5846C3.57309 11.99 9.95627 9.65489 9.95627 9.65489C9.95627 9.65489 15.3159 4.39157 16.1533 3.65026C17.9585 2.07497 25.2722 2.42709 25.2722 2.42709L18.6843 19.8665ZM26.6493 15.0294L29.7757 5.74446H29.8316L32.8278 15.0294H26.6493Z" fill="white"/>
<path d="M11.445 22.3877C12.9867 22.3877 14.2365 21.1431 14.2365 19.6078C14.2365 18.0725 12.9867 16.8279 11.445 16.8279C9.90335 16.8279 8.65356 18.0725 8.65356 19.6078C8.65356 21.1431 9.90335 22.3877 11.445 22.3877Z" fill="white"/>
<path fill-rule="evenodd" clip-rule="evenodd" d="M33.3302 1.94524C32.7533 0.314347 31.6926 0.0178223 30.4829 0.0178223H29.2175C29.1058 0.0178223 28.9941 0.0178223 28.8825 0.0363551H2.97757C1.33991 0.0363551 0 1.37072 0 3.00161V21.034C0 22.6649 1.33991 23.9993 2.97757 23.9993H21.6991V23.9808H21.7549C23.0204 23.9808 23.7462 23.5545 24.1184 22.5352L25.5141 18.6804H34.0374L35.3959 22.5352C35.7867 23.5545 36.6242 23.9808 37.778 23.9808C39.1365 23.9808 40.2531 22.9615 40.2531 21.6642C40.2531 21.0896 39.9367 20.163 39.732 19.6441L33.3302 1.94524ZM11.4451 23.0171C9.56546 23.0171 8.02084 21.4974 8.02084 19.607C8.02084 17.7352 9.54685 16.197 11.4451 16.197C13.3246 16.197 14.8693 17.7167 14.8693 19.607C14.8507 21.4974 13.3246 23.0171 11.4451 23.0171ZM18.6843 19.8665H15.5392C15.5392 19.1993 15.2601 15.4927 11.352 15.4927C7.44394 15.4927 7.27645 19.9035 7.27645 19.9035H6.43901C6.43901 19.9035 4.00112 18.9213 3.49865 18.6618C2.99618 18.3838 2.94036 17.0124 2.94036 17.0124V15.8078H3.36838V14.5846C3.57309 11.99 9.95627 9.65489 9.95627 9.65489C9.95627 9.65489 15.3159 4.39157 16.1533 3.65026C17.9585 2.07497 25.2722 2.42709 25.2722 2.42709L18.6843 19.8665ZM26.6493 15.0294L29.7757 5.74446H29.8316L32.8278 15.0294H26.6493Z" fill="white"/>
<path fill-rule="evenodd" clip-rule="evenodd" d="M7.68589 12.7875C7.46257 12.7319 6.64374 12.7319 6.29015 12.7134C6.17849 12.7134 6.06683 12.7504 5.99239 12.8246C5.8249 12.9543 5.56436 13.2138 5.32244 13.5288C5.04329 13.8995 4.83858 14.3628 4.70831 14.6593C4.61526 14.9003 4.8758 14.9188 4.8758 14.9188L5.48993 15.0485C5.56436 15.067 5.6388 15.0485 5.69463 14.9929L7.74172 13.2138C7.72311 13.2138 8.02086 12.8616 7.68589 12.7875Z" fill="white"/>
<path fill-rule="evenodd" clip-rule="evenodd" d="M21.5131 3.98462C21.234 3.98462 18.6472 4.26261 18.1447 4.35528C17.6423 4.44794 16.8979 5.02246 16.8979 5.02246L13.7156 8.52516V10.397L20.4523 9.09968C20.4523 9.09968 21.327 8.93288 21.4573 7.82091C21.5875 6.70894 21.8667 4.33674 21.8667 4.33674C21.8667 4.33674 21.7922 3.98462 21.5131 3.98462Z" fill="white"/>
</svg>
