<svg width="1204" height="678" viewBox="0 0 1204 678" fill="none" xmlns="http://www.w3.org/2000/svg">
<rect width="1204" height="677.25" fill="white"/>
<path d="M502.464 176L975 176V526H587.885C568.975 526 552.456 513.819 546.587 495.981L461.166 232.992C452.037 204.714 472.903 176 502.464 176Z" fill="#41A5DD"/>
<rect x="176.5" y="126.5" width="799" height="449" stroke="#D8D8D8"/>
<rect x="176.5" y="575.5" width="449" height="49" transform="rotate(-90 176.5 575.5)" stroke="#D8D8D8"/>
<rect x="458.5" y="575.5" width="449" height="103" transform="rotate(-90 458.5 575.5)" stroke="#D8D8D8"/>
<rect x="926.5" y="575.5" width="449" height="49" transform="rotate(-90 926.5 575.5)" stroke="#D8D8D8"/>
<rect x="176.5" y="126.5" width="799" height="49" stroke="#D8D8D8"/>
<rect x="176.5" y="175.5" width="799" height="49" stroke="#D8D8D8"/>
<rect x="176.5" y="255.5" width="799" height="49" stroke="#D8D8D8"/>
<rect x="176.5" y="526.5" width="799" height="49" stroke="#D8D8D8"/>
<line x1="176.5" y1="116" x2="176.5" y2="102" stroke="black"/>
<line x1="225.5" y1="116" x2="225.5" y2="102" stroke="black"/>
<line x1="226" y1="102.5" x2="177" y2="102.5" stroke="black"/>
<path d="M182.046 88.076C182.382 88.076 182.685 88.0223 182.956 87.915C183.231 87.8077 183.465 87.6583 183.656 87.467C183.852 87.2757 184.001 87.0493 184.104 86.788C184.211 86.5267 184.265 86.242 184.265 85.934C184.265 85.6073 184.214 85.3133 184.111 85.052C184.008 84.786 183.861 84.562 183.67 84.38C183.483 84.1933 183.259 84.051 182.998 83.953C182.737 83.855 182.45 83.806 182.137 83.806C181.801 83.806 181.498 83.8643 181.227 83.981C180.956 84.093 180.725 84.247 180.534 84.443C180.347 84.6343 180.203 84.8583 180.1 85.115C180.002 85.367 179.953 85.6307 179.953 85.906C179.953 86.228 180 86.522 180.093 86.788C180.186 87.054 180.322 87.2827 180.499 87.474C180.681 87.6653 180.9 87.8147 181.157 87.922C181.418 88.0247 181.715 88.076 182.046 88.076ZM181.318 82.728C181.229 82.84 181.143 82.9497 181.059 83.057C180.98 83.1597 180.903 83.2623 180.828 83.365C181.066 83.2017 181.327 83.0757 181.612 82.987C181.897 82.8983 182.207 82.854 182.543 82.854C182.949 82.854 183.332 82.9217 183.691 83.057C184.05 83.1877 184.363 83.3813 184.629 83.638C184.9 83.89 185.114 84.2027 185.273 84.576C185.432 84.9447 185.511 85.367 185.511 85.843C185.511 86.305 185.427 86.7343 185.259 87.131C185.091 87.5277 184.855 87.873 184.552 88.167C184.253 88.461 183.892 88.692 183.467 88.86C183.047 89.028 182.583 89.112 182.074 89.112C181.57 89.112 181.113 89.0327 180.702 88.874C180.291 88.7107 179.941 88.482 179.652 88.188C179.367 87.8893 179.146 87.53 178.987 87.11C178.833 86.6853 178.756 86.2117 178.756 85.689C178.756 85.2503 178.852 84.7837 179.043 84.289C179.239 83.7897 179.549 83.2577 179.974 82.693L182.522 79.27C182.587 79.186 182.676 79.116 182.788 79.06C182.905 78.9993 183.038 78.969 183.187 78.969H184.293L181.318 82.728ZM191.475 81.391C191.475 81.783 191.414 82.1353 191.293 82.448C191.172 82.756 191.008 83.0173 190.803 83.232C190.602 83.442 190.367 83.603 190.096 83.715C189.83 83.827 189.548 83.883 189.249 83.883C188.936 83.883 188.645 83.827 188.374 83.715C188.103 83.603 187.868 83.442 187.667 83.232C187.471 83.0173 187.317 82.756 187.205 82.448C187.093 82.1353 187.037 81.783 187.037 81.391C187.037 80.9897 187.093 80.6327 187.205 80.32C187.317 80.0073 187.471 79.7437 187.667 79.529C187.868 79.3143 188.103 79.151 188.374 79.039C188.645 78.927 188.936 78.871 189.249 78.871C189.566 78.871 189.86 78.927 190.131 79.039C190.402 79.151 190.637 79.3143 190.838 79.529C191.039 79.7437 191.195 80.0073 191.307 80.32C191.419 80.6327 191.475 80.9897 191.475 81.391ZM190.509 81.391C190.509 81.083 190.476 80.8217 190.411 80.607C190.346 80.3923 190.255 80.2173 190.138 80.082C190.026 79.942 189.893 79.8417 189.739 79.781C189.585 79.7203 189.422 79.69 189.249 79.69C189.076 79.69 188.915 79.7203 188.766 79.781C188.617 79.8417 188.486 79.942 188.374 80.082C188.262 80.2173 188.173 80.3923 188.108 80.607C188.043 80.8217 188.01 81.083 188.01 81.391C188.01 81.6943 188.043 81.9533 188.108 82.168C188.173 82.378 188.262 82.5507 188.374 82.686C188.486 82.8167 188.617 82.9123 188.766 82.973C188.915 83.029 189.076 83.057 189.249 83.057C189.422 83.057 189.585 83.029 189.739 82.973C189.893 82.9123 190.026 82.8167 190.138 82.686C190.255 82.5507 190.346 82.378 190.411 82.168C190.476 81.9533 190.509 81.6943 190.509 81.391ZM195.024 79.179C195.071 79.123 195.124 79.074 195.185 79.032C195.25 78.99 195.337 78.969 195.444 78.969H196.347L189.011 88.797C188.969 88.8577 188.915 88.9067 188.85 88.944C188.785 88.9813 188.705 89 188.612 89H187.695L195.024 79.179ZM197.026 86.634C197.026 87.026 196.965 87.376 196.844 87.684C196.723 87.992 196.559 88.2533 196.354 88.468C196.153 88.678 195.918 88.839 195.647 88.951C195.381 89.063 195.099 89.119 194.8 89.119C194.483 89.119 194.189 89.063 193.918 88.951C193.652 88.839 193.419 88.678 193.218 88.468C193.022 88.2533 192.868 87.992 192.756 87.684C192.644 87.376 192.588 87.026 192.588 86.634C192.588 86.2327 192.644 85.8757 192.756 85.563C192.868 85.2457 193.022 84.9797 193.218 84.765C193.419 84.5503 193.652 84.387 193.918 84.275C194.189 84.163 194.483 84.107 194.8 84.107C195.113 84.107 195.404 84.163 195.675 84.275C195.95 84.387 196.186 84.5503 196.382 84.765C196.583 84.9797 196.739 85.2457 196.851 85.563C196.968 85.8757 197.026 86.2327 197.026 86.634ZM196.06 86.634C196.06 86.326 196.027 86.0647 195.962 85.85C195.897 85.6307 195.806 85.4533 195.689 85.318C195.577 85.1827 195.444 85.0847 195.29 85.024C195.136 84.9633 194.973 84.933 194.8 84.933C194.627 84.933 194.464 84.9633 194.31 85.024C194.161 85.0847 194.03 85.1827 193.918 85.318C193.806 85.4533 193.717 85.6307 193.652 85.85C193.591 86.0647 193.561 86.326 193.561 86.634C193.561 86.9373 193.591 87.194 193.652 87.404C193.717 87.614 193.806 87.7867 193.918 87.922C194.03 88.0527 194.161 88.1483 194.31 88.209C194.464 88.265 194.627 88.293 194.8 88.293C194.973 88.293 195.136 88.265 195.29 88.209C195.444 88.1483 195.577 88.0527 195.689 87.922C195.806 87.7867 195.897 87.614 195.962 87.404C196.027 87.194 196.06 86.9373 196.06 86.634ZM205.804 81.797C206.322 81.797 206.788 81.8833 207.204 82.056C207.619 82.2287 207.974 82.4737 208.268 82.791C208.562 83.1083 208.786 83.4933 208.94 83.946C209.098 84.394 209.178 84.8957 209.178 85.451C209.178 86.011 209.098 86.515 208.94 86.963C208.786 87.411 208.562 87.7937 208.268 88.111C207.974 88.4283 207.619 88.6733 207.204 88.846C206.788 89.014 206.322 89.098 205.804 89.098C205.281 89.098 204.81 89.014 204.39 88.846C203.974 88.6733 203.62 88.4283 203.326 88.111C203.032 87.7937 202.805 87.411 202.647 86.963C202.493 86.515 202.416 86.011 202.416 85.451C202.416 84.8957 202.493 84.394 202.647 83.946C202.805 83.4933 203.032 83.1083 203.326 82.791C203.62 82.4737 203.974 82.2287 204.39 82.056C204.81 81.8833 205.281 81.797 205.804 81.797ZM205.804 88.125C206.504 88.125 207.026 87.8917 207.372 87.425C207.717 86.9537 207.89 86.298 207.89 85.458C207.89 84.6133 207.717 83.9553 207.372 83.484C207.026 83.0127 206.504 82.777 205.804 82.777C205.449 82.777 205.139 82.8377 204.873 82.959C204.611 83.0803 204.392 83.2553 204.215 83.484C204.042 83.7127 203.911 83.995 203.823 84.331C203.739 84.6623 203.697 85.038 203.697 85.458C203.697 86.298 203.869 86.9537 204.215 87.425C204.565 87.8917 205.094 88.125 205.804 88.125ZM211.37 89V82.973L210.586 82.882C210.488 82.8587 210.406 82.8237 210.341 82.777C210.28 82.7257 210.25 82.6533 210.25 82.56V82.049H211.37V81.363C211.37 80.957 211.426 80.5977 211.538 80.285C211.654 79.9677 211.818 79.7017 212.028 79.487C212.242 79.2677 212.499 79.102 212.798 78.99C213.096 78.878 213.432 78.822 213.806 78.822C214.123 78.822 214.415 78.8687 214.681 78.962L214.653 79.585C214.643 79.697 214.58 79.7577 214.464 79.767C214.352 79.7763 214.2 79.781 214.009 79.781C213.794 79.781 213.598 79.809 213.421 79.865C213.248 79.921 213.099 80.012 212.973 80.138C212.847 80.264 212.749 80.4297 212.679 80.635C212.613 80.8403 212.581 81.0947 212.581 81.398V82.049H214.625V82.952H212.623V89H211.37ZM220.921 83.33C221.145 82.8447 221.421 82.4667 221.747 82.196C222.074 81.9207 222.473 81.783 222.944 81.783C223.094 81.783 223.236 81.7993 223.371 81.832C223.511 81.8647 223.635 81.916 223.742 81.986L223.651 82.917C223.623 83.0337 223.553 83.092 223.441 83.092C223.376 83.092 223.28 83.078 223.154 83.05C223.028 83.022 222.886 83.008 222.727 83.008C222.503 83.008 222.303 83.0407 222.125 83.106C221.953 83.1713 221.796 83.2693 221.656 83.4C221.521 83.526 221.397 83.6847 221.285 83.876C221.178 84.0627 221.08 84.2773 220.991 84.52V89H219.738V81.909H220.452C220.588 81.909 220.681 81.9347 220.732 81.986C220.784 82.0373 220.819 82.126 220.837 82.252L220.921 83.33Z" fill="black"/>
<path d="M491.126 64.048V65H485.75V64.048H487.899V57.209C487.899 57.0037 487.906 56.796 487.92 56.586L486.135 58.119C486.074 58.1703 486.014 58.203 485.953 58.217C485.892 58.2263 485.836 58.2263 485.785 58.217C485.734 58.2077 485.685 58.189 485.638 58.161C485.596 58.133 485.563 58.1027 485.54 58.07L485.148 57.531L488.137 54.948H489.152V64.048H491.126ZM493.331 57.685C493.396 57.2277 493.522 56.824 493.709 56.474C493.896 56.1193 494.131 55.823 494.416 55.585C494.705 55.347 495.034 55.1673 495.403 55.046C495.776 54.92 496.178 54.857 496.607 54.857C497.032 54.857 497.424 54.9177 497.783 55.039C498.142 55.1603 498.45 55.333 498.707 55.557C498.968 55.781 499.171 56.0517 499.316 56.369C499.461 56.6863 499.533 57.0387 499.533 57.426C499.533 57.7433 499.491 58.028 499.407 58.28C499.328 58.5273 499.211 58.7443 499.057 58.931C498.908 59.1177 498.726 59.2763 498.511 59.407C498.296 59.5377 498.056 59.645 497.79 59.729C498.443 59.897 498.933 60.1863 499.26 60.597C499.591 61.003 499.757 61.5117 499.757 62.123C499.757 62.585 499.668 63.0003 499.491 63.369C499.318 63.7377 499.08 64.0527 498.777 64.314C498.474 64.5707 498.119 64.769 497.713 64.909C497.312 65.0443 496.88 65.112 496.418 65.112C495.886 65.112 495.431 65.0467 495.053 64.916C494.675 64.7807 494.355 64.5963 494.094 64.363C493.833 64.1297 493.618 63.8543 493.45 63.537C493.282 63.215 493.14 62.8673 493.023 62.494L493.562 62.27C493.702 62.2093 493.837 62.193 493.968 62.221C494.103 62.249 494.201 62.326 494.262 62.452C494.323 62.5827 494.397 62.739 494.486 62.921C494.579 63.103 494.705 63.278 494.864 63.446C495.023 63.614 495.223 63.7563 495.466 63.873C495.713 63.9897 496.026 64.048 496.404 64.048C496.754 64.048 497.06 63.992 497.321 63.88C497.587 63.7633 497.806 63.614 497.979 63.432C498.156 63.25 498.289 63.047 498.378 62.823C498.467 62.599 498.511 62.3773 498.511 62.158C498.511 61.8873 498.476 61.64 498.406 61.416C498.336 61.192 498.205 60.9983 498.014 60.835C497.823 60.6717 497.559 60.5433 497.223 60.45C496.892 60.3567 496.465 60.31 495.942 60.31V59.407C496.371 59.4023 496.735 59.3557 497.034 59.267C497.337 59.1783 497.582 59.057 497.769 58.903C497.96 58.749 498.098 58.5647 498.182 58.35C498.271 58.1353 498.315 57.8973 498.315 57.636C498.315 57.3467 498.268 57.0947 498.175 56.88C498.086 56.6653 497.963 56.488 497.804 56.348C497.645 56.208 497.456 56.103 497.237 56.033C497.022 55.963 496.789 55.928 496.537 55.928C496.285 55.928 496.049 55.9653 495.83 56.04C495.615 56.1147 495.424 56.2197 495.256 56.355C495.093 56.4857 494.955 56.642 494.843 56.824C494.731 57.006 494.652 57.2067 494.605 57.426C494.544 57.5893 494.467 57.699 494.374 57.755C494.285 57.8063 494.155 57.8203 493.982 57.797L493.331 57.685ZM505.896 57.391C505.896 57.783 505.836 58.1353 505.714 58.448C505.593 58.756 505.43 59.0173 505.224 59.232C505.024 59.442 504.788 59.603 504.517 59.715C504.251 59.827 503.969 59.883 503.67 59.883C503.358 59.883 503.066 59.827 502.795 59.715C502.525 59.603 502.289 59.442 502.088 59.232C501.892 59.0173 501.738 58.756 501.626 58.448C501.514 58.1353 501.458 57.783 501.458 57.391C501.458 56.9897 501.514 56.6327 501.626 56.32C501.738 56.0073 501.892 55.7437 502.088 55.529C502.289 55.3143 502.525 55.151 502.795 55.039C503.066 54.927 503.358 54.871 503.67 54.871C503.988 54.871 504.282 54.927 504.552 55.039C504.823 55.151 505.059 55.3143 505.259 55.529C505.46 55.7437 505.616 56.0073 505.728 56.32C505.84 56.6327 505.896 56.9897 505.896 57.391ZM504.93 57.391C504.93 57.083 504.898 56.8217 504.832 56.607C504.767 56.3923 504.676 56.2173 504.559 56.082C504.447 55.942 504.314 55.8417 504.16 55.781C504.006 55.7203 503.843 55.69 503.67 55.69C503.498 55.69 503.337 55.7203 503.187 55.781C503.038 55.8417 502.907 55.942 502.795 56.082C502.683 56.2173 502.595 56.3923 502.529 56.607C502.464 56.8217 502.431 57.083 502.431 57.391C502.431 57.6943 502.464 57.9533 502.529 58.168C502.595 58.378 502.683 58.5507 502.795 58.686C502.907 58.8167 503.038 58.9123 503.187 58.973C503.337 59.029 503.498 59.057 503.67 59.057C503.843 59.057 504.006 59.029 504.16 58.973C504.314 58.9123 504.447 58.8167 504.559 58.686C504.676 58.5507 504.767 58.378 504.832 58.168C504.898 57.9533 504.93 57.6943 504.93 57.391ZM509.445 55.179C509.492 55.123 509.546 55.074 509.606 55.032C509.672 54.99 509.758 54.969 509.865 54.969H510.768L503.432 64.797C503.39 64.8577 503.337 64.9067 503.271 64.944C503.206 64.9813 503.127 65 503.033 65H502.116L509.445 55.179ZM511.447 62.634C511.447 63.026 511.387 63.376 511.265 63.684C511.144 63.992 510.981 64.2533 510.775 64.468C510.575 64.678 510.339 64.839 510.068 64.951C509.802 65.063 509.52 65.119 509.221 65.119C508.904 65.119 508.61 65.063 508.339 64.951C508.073 64.839 507.84 64.678 507.639 64.468C507.443 64.2533 507.289 63.992 507.177 63.684C507.065 63.376 507.009 63.026 507.009 62.634C507.009 62.2327 507.065 61.8757 507.177 61.563C507.289 61.2457 507.443 60.9797 507.639 60.765C507.84 60.5503 508.073 60.387 508.339 60.275C508.61 60.163 508.904 60.107 509.221 60.107C509.534 60.107 509.826 60.163 510.096 60.275C510.372 60.387 510.607 60.5503 510.803 60.765C511.004 60.9797 511.16 61.2457 511.272 61.563C511.389 61.8757 511.447 62.2327 511.447 62.634ZM510.481 62.634C510.481 62.326 510.449 62.0647 510.383 61.85C510.318 61.6307 510.227 61.4533 510.11 61.318C509.998 61.1827 509.865 61.0847 509.711 61.024C509.557 60.9633 509.394 60.933 509.221 60.933C509.049 60.933 508.885 60.9633 508.731 61.024C508.582 61.0847 508.451 61.1827 508.339 61.318C508.227 61.4533 508.139 61.6307 508.073 61.85C508.013 62.0647 507.982 62.326 507.982 62.634C507.982 62.9373 508.013 63.194 508.073 63.404C508.139 63.614 508.227 63.7867 508.339 63.922C508.451 64.0527 508.582 64.1483 508.731 64.209C508.885 64.265 509.049 64.293 509.221 64.293C509.394 64.293 509.557 64.265 509.711 64.209C509.865 64.1483 509.998 64.0527 510.11 63.922C510.227 63.7867 510.318 63.614 510.383 63.404C510.449 63.194 510.481 62.9373 510.481 62.634ZM520.225 57.797C520.743 57.797 521.209 57.8833 521.625 58.056C522.04 58.2287 522.395 58.4737 522.689 58.791C522.983 59.1083 523.207 59.4933 523.361 59.946C523.519 60.394 523.599 60.8957 523.599 61.451C523.599 62.011 523.519 62.515 523.361 62.963C523.207 63.411 522.983 63.7937 522.689 64.111C522.395 64.4283 522.04 64.6733 521.625 64.846C521.209 65.014 520.743 65.098 520.225 65.098C519.702 65.098 519.231 65.014 518.811 64.846C518.395 64.6733 518.041 64.4283 517.747 64.111C517.453 63.7937 517.226 63.411 517.068 62.963C516.914 62.515 516.837 62.011 516.837 61.451C516.837 60.8957 516.914 60.394 517.068 59.946C517.226 59.4933 517.453 59.1083 517.747 58.791C518.041 58.4737 518.395 58.2287 518.811 58.056C519.231 57.8833 519.702 57.797 520.225 57.797ZM520.225 64.125C520.925 64.125 521.447 63.8917 521.793 63.425C522.138 62.9537 522.311 62.298 522.311 61.458C522.311 60.6133 522.138 59.9553 521.793 59.484C521.447 59.0127 520.925 58.777 520.225 58.777C519.87 58.777 519.56 58.8377 519.294 58.959C519.032 59.0803 518.813 59.2553 518.636 59.484C518.463 59.7127 518.332 59.995 518.244 60.331C518.16 60.6623 518.118 61.038 518.118 61.458C518.118 62.298 518.29 62.9537 518.636 63.425C518.986 63.8917 519.515 64.125 520.225 64.125ZM525.791 65V58.973L525.007 58.882C524.909 58.8587 524.827 58.8237 524.762 58.777C524.701 58.7257 524.671 58.6533 524.671 58.56V58.049H525.791V57.363C525.791 56.957 525.847 56.5977 525.959 56.285C526.075 55.9677 526.239 55.7017 526.449 55.487C526.663 55.2677 526.92 55.102 527.219 54.99C527.517 54.878 527.853 54.822 528.227 54.822C528.544 54.822 528.836 54.8687 529.102 54.962L529.074 55.585C529.064 55.697 529.001 55.7577 528.885 55.767C528.773 55.7763 528.621 55.781 528.43 55.781C528.215 55.781 528.019 55.809 527.842 55.865C527.669 55.921 527.52 56.012 527.394 56.138C527.268 56.264 527.17 56.4297 527.1 56.635C527.034 56.8403 527.002 57.0947 527.002 57.398V58.049H529.046V58.952H527.044V65H525.791ZM535.342 59.33C535.566 58.8447 535.842 58.4667 536.168 58.196C536.495 57.9207 536.894 57.783 537.365 57.783C537.515 57.783 537.657 57.7993 537.792 57.832C537.932 57.8647 538.056 57.916 538.163 57.986L538.072 58.917C538.044 59.0337 537.974 59.092 537.862 59.092C537.797 59.092 537.701 59.078 537.575 59.05C537.449 59.022 537.307 59.008 537.148 59.008C536.924 59.008 536.724 59.0407 536.546 59.106C536.374 59.1713 536.217 59.2693 536.077 59.4C535.942 59.526 535.818 59.6847 535.706 59.876C535.599 60.0627 535.501 60.2773 535.412 60.52V65H534.159V57.909H534.873C535.009 57.909 535.102 57.9347 535.153 57.986C535.205 58.0373 535.24 58.126 535.258 58.252L535.342 59.33Z" fill="black"/>
<path d="M694.046 88.076C694.382 88.076 694.685 88.0223 694.956 87.915C695.231 87.8077 695.465 87.6583 695.656 87.467C695.852 87.2757 696.001 87.0493 696.104 86.788C696.211 86.5267 696.265 86.242 696.265 85.934C696.265 85.6073 696.214 85.3133 696.111 85.052C696.008 84.786 695.861 84.562 695.67 84.38C695.483 84.1933 695.259 84.051 694.998 83.953C694.737 83.855 694.45 83.806 694.137 83.806C693.801 83.806 693.498 83.8643 693.227 83.981C692.956 84.093 692.725 84.247 692.534 84.443C692.347 84.6343 692.203 84.8583 692.1 85.115C692.002 85.367 691.953 85.6307 691.953 85.906C691.953 86.228 692 86.522 692.093 86.788C692.186 87.054 692.322 87.2827 692.499 87.474C692.681 87.6653 692.9 87.8147 693.157 87.922C693.418 88.0247 693.715 88.076 694.046 88.076ZM693.318 82.728C693.229 82.84 693.143 82.9497 693.059 83.057C692.98 83.1597 692.903 83.2623 692.828 83.365C693.066 83.2017 693.327 83.0757 693.612 82.987C693.897 82.8983 694.207 82.854 694.543 82.854C694.949 82.854 695.332 82.9217 695.691 83.057C696.05 83.1877 696.363 83.3813 696.629 83.638C696.9 83.89 697.114 84.2027 697.273 84.576C697.432 84.9447 697.511 85.367 697.511 85.843C697.511 86.305 697.427 86.7343 697.259 87.131C697.091 87.5277 696.855 87.873 696.552 88.167C696.253 88.461 695.892 88.692 695.467 88.86C695.047 89.028 694.583 89.112 694.074 89.112C693.57 89.112 693.113 89.0327 692.702 88.874C692.291 88.7107 691.941 88.482 691.652 88.188C691.367 87.8893 691.146 87.53 690.987 87.11C690.833 86.6853 690.756 86.2117 690.756 85.689C690.756 85.2503 690.852 84.7837 691.043 84.289C691.239 83.7897 691.549 83.2577 691.974 82.693L694.522 79.27C694.587 79.186 694.676 79.116 694.788 79.06C694.905 78.9993 695.038 78.969 695.187 78.969H696.293L693.318 82.728ZM706.121 83.988C706.121 84.8653 706.025 85.626 705.834 86.27C705.647 86.9093 705.391 87.439 705.064 87.859C704.737 88.279 704.35 88.5917 703.902 88.797C703.459 89.0023 702.983 89.105 702.474 89.105C701.961 89.105 701.482 89.0023 701.039 88.797C700.6 88.5917 700.218 88.279 699.891 87.859C699.564 87.439 699.308 86.9093 699.121 86.27C698.934 85.626 698.841 84.8653 698.841 83.988C698.841 83.1107 698.934 82.35 699.121 81.706C699.308 81.062 699.564 80.53 699.891 80.11C700.218 79.6853 700.6 79.3703 701.039 79.165C701.482 78.9597 701.961 78.857 702.474 78.857C702.983 78.857 703.459 78.9597 703.902 79.165C704.35 79.3703 704.737 79.6853 705.064 80.11C705.391 80.53 705.647 81.062 705.834 81.706C706.025 82.35 706.121 83.1107 706.121 83.988ZM704.826 83.988C704.826 83.2227 704.761 82.581 704.63 82.063C704.504 81.5403 704.331 81.1203 704.112 80.803C703.897 80.4857 703.648 80.2593 703.363 80.124C703.078 79.984 702.782 79.914 702.474 79.914C702.166 79.914 701.87 79.984 701.585 80.124C701.3 80.2593 701.051 80.4857 700.836 80.803C700.621 81.1203 700.449 81.5403 700.318 82.063C700.192 82.581 700.129 83.2227 700.129 83.988C700.129 84.7533 700.192 85.395 700.318 85.913C700.449 86.431 700.621 86.8487 700.836 87.166C701.051 87.4833 701.3 87.712 701.585 87.852C701.87 87.9873 702.166 88.055 702.474 88.055C702.782 88.055 703.078 87.9873 703.363 87.852C703.648 87.712 703.897 87.4833 704.112 87.166C704.331 86.8487 704.504 86.431 704.63 85.913C704.761 85.395 704.826 84.7533 704.826 83.988ZM711.896 81.391C711.896 81.783 711.836 82.1353 711.714 82.448C711.593 82.756 711.43 83.0173 711.224 83.232C711.024 83.442 710.788 83.603 710.517 83.715C710.251 83.827 709.969 83.883 709.67 83.883C709.358 83.883 709.066 83.827 708.795 83.715C708.525 83.603 708.289 83.442 708.088 83.232C707.892 83.0173 707.738 82.756 707.626 82.448C707.514 82.1353 707.458 81.783 707.458 81.391C707.458 80.9897 707.514 80.6327 707.626 80.32C707.738 80.0073 707.892 79.7437 708.088 79.529C708.289 79.3143 708.525 79.151 708.795 79.039C709.066 78.927 709.358 78.871 709.67 78.871C709.988 78.871 710.282 78.927 710.552 79.039C710.823 79.151 711.059 79.3143 711.259 79.529C711.46 79.7437 711.616 80.0073 711.728 80.32C711.84 80.6327 711.896 80.9897 711.896 81.391ZM710.93 81.391C710.93 81.083 710.898 80.8217 710.832 80.607C710.767 80.3923 710.676 80.2173 710.559 80.082C710.447 79.942 710.314 79.8417 710.16 79.781C710.006 79.7203 709.843 79.69 709.67 79.69C709.498 79.69 709.337 79.7203 709.187 79.781C709.038 79.8417 708.907 79.942 708.795 80.082C708.683 80.2173 708.595 80.3923 708.529 80.607C708.464 80.8217 708.431 81.083 708.431 81.391C708.431 81.6943 708.464 81.9533 708.529 82.168C708.595 82.378 708.683 82.5507 708.795 82.686C708.907 82.8167 709.038 82.9123 709.187 82.973C709.337 83.029 709.498 83.057 709.67 83.057C709.843 83.057 710.006 83.029 710.16 82.973C710.314 82.9123 710.447 82.8167 710.559 82.686C710.676 82.5507 710.767 82.378 710.832 82.168C710.898 81.9533 710.93 81.6943 710.93 81.391ZM715.445 79.179C715.492 79.123 715.546 79.074 715.606 79.032C715.672 78.99 715.758 78.969 715.865 78.969H716.768L709.432 88.797C709.39 88.8577 709.337 88.9067 709.271 88.944C709.206 88.9813 709.127 89 709.033 89H708.116L715.445 79.179ZM717.447 86.634C717.447 87.026 717.387 87.376 717.265 87.684C717.144 87.992 716.981 88.2533 716.775 88.468C716.575 88.678 716.339 88.839 716.068 88.951C715.802 89.063 715.52 89.119 715.221 89.119C714.904 89.119 714.61 89.063 714.339 88.951C714.073 88.839 713.84 88.678 713.639 88.468C713.443 88.2533 713.289 87.992 713.177 87.684C713.065 87.376 713.009 87.026 713.009 86.634C713.009 86.2327 713.065 85.8757 713.177 85.563C713.289 85.2457 713.443 84.9797 713.639 84.765C713.84 84.5503 714.073 84.387 714.339 84.275C714.61 84.163 714.904 84.107 715.221 84.107C715.534 84.107 715.826 84.163 716.096 84.275C716.372 84.387 716.607 84.5503 716.803 84.765C717.004 84.9797 717.16 85.2457 717.272 85.563C717.389 85.8757 717.447 86.2327 717.447 86.634ZM716.481 86.634C716.481 86.326 716.449 86.0647 716.383 85.85C716.318 85.6307 716.227 85.4533 716.11 85.318C715.998 85.1827 715.865 85.0847 715.711 85.024C715.557 84.9633 715.394 84.933 715.221 84.933C715.049 84.933 714.885 84.9633 714.731 85.024C714.582 85.0847 714.451 85.1827 714.339 85.318C714.227 85.4533 714.139 85.6307 714.073 85.85C714.013 86.0647 713.982 86.326 713.982 86.634C713.982 86.9373 714.013 87.194 714.073 87.404C714.139 87.614 714.227 87.7867 714.339 87.922C714.451 88.0527 714.582 88.1483 714.731 88.209C714.885 88.265 715.049 88.293 715.221 88.293C715.394 88.293 715.557 88.265 715.711 88.209C715.865 88.1483 715.998 88.0527 716.11 87.922C716.227 87.7867 716.318 87.614 716.383 87.404C716.449 87.194 716.481 86.9373 716.481 86.634ZM726.225 81.797C726.743 81.797 727.209 81.8833 727.625 82.056C728.04 82.2287 728.395 82.4737 728.689 82.791C728.983 83.1083 729.207 83.4933 729.361 83.946C729.519 84.394 729.599 84.8957 729.599 85.451C729.599 86.011 729.519 86.515 729.361 86.963C729.207 87.411 728.983 87.7937 728.689 88.111C728.395 88.4283 728.04 88.6733 727.625 88.846C727.209 89.014 726.743 89.098 726.225 89.098C725.702 89.098 725.231 89.014 724.811 88.846C724.395 88.6733 724.041 88.4283 723.747 88.111C723.453 87.7937 723.226 87.411 723.068 86.963C722.914 86.515 722.837 86.011 722.837 85.451C722.837 84.8957 722.914 84.394 723.068 83.946C723.226 83.4933 723.453 83.1083 723.747 82.791C724.041 82.4737 724.395 82.2287 724.811 82.056C725.231 81.8833 725.702 81.797 726.225 81.797ZM726.225 88.125C726.925 88.125 727.447 87.8917 727.793 87.425C728.138 86.9537 728.311 86.298 728.311 85.458C728.311 84.6133 728.138 83.9553 727.793 83.484C727.447 83.0127 726.925 82.777 726.225 82.777C725.87 82.777 725.56 82.8377 725.294 82.959C725.032 83.0803 724.813 83.2553 724.636 83.484C724.463 83.7127 724.332 83.995 724.244 84.331C724.16 84.6623 724.118 85.038 724.118 85.458C724.118 86.298 724.29 86.9537 724.636 87.425C724.986 87.8917 725.515 88.125 726.225 88.125ZM731.791 89V82.973L731.007 82.882C730.909 82.8587 730.827 82.8237 730.762 82.777C730.701 82.7257 730.671 82.6533 730.671 82.56V82.049H731.791V81.363C731.791 80.957 731.847 80.5977 731.959 80.285C732.075 79.9677 732.239 79.7017 732.449 79.487C732.663 79.2677 732.92 79.102 733.219 78.99C733.517 78.878 733.853 78.822 734.227 78.822C734.544 78.822 734.836 78.8687 735.102 78.962L735.074 79.585C735.064 79.697 735.001 79.7577 734.885 79.767C734.773 79.7763 734.621 79.781 734.43 79.781C734.215 79.781 734.019 79.809 733.842 79.865C733.669 79.921 733.52 80.012 733.394 80.138C733.268 80.264 733.17 80.4297 733.1 80.635C733.034 80.8403 733.002 81.0947 733.002 81.398V82.049H735.046V82.952H733.044V89H731.791ZM741.342 83.33C741.566 82.8447 741.842 82.4667 742.168 82.196C742.495 81.9207 742.894 81.783 743.365 81.783C743.515 81.783 743.657 81.7993 743.792 81.832C743.932 81.8647 744.056 81.916 744.163 81.986L744.072 82.917C744.044 83.0337 743.974 83.092 743.862 83.092C743.797 83.092 743.701 83.078 743.575 83.05C743.449 83.022 743.307 83.008 743.148 83.008C742.924 83.008 742.724 83.0407 742.546 83.106C742.374 83.1713 742.217 83.2693 742.077 83.4C741.942 83.526 741.818 83.6847 741.706 83.876C741.599 84.0627 741.501 84.2773 741.412 84.52V89H740.159V81.909H740.873C741.009 81.909 741.102 81.9347 741.153 81.986C741.205 82.0373 741.24 82.126 741.258 82.252L741.342 83.33Z" fill="black"/>
<line x1="986" y1="126.5" x2="1000" y2="126.5" stroke="black"/>
<line x1="986" y1="175.5" x2="1000" y2="175.5" stroke="black"/>
<line x1="999.5" y1="176" x2="999.5" y2="127" stroke="black"/>
<line x1="986" y1="175.5" x2="1000" y2="175.5" stroke="black"/>
<line x1="986" y1="224.5" x2="1000" y2="224.5" stroke="black"/>
<line x1="999.5" y1="225" x2="999.5" y2="176" stroke="black"/>
<line x1="986" y1="224.5" x2="1000" y2="224.5" stroke="black"/>
<line x1="986" y1="254.5" x2="1000" y2="254.5" stroke="black"/>
<line x1="999.5" y1="255" x2="999.5" y2="225" stroke="black"/>
<path d="M1014.05 156.076C1014.38 156.076 1014.69 156.022 1014.96 155.915C1015.23 155.808 1015.46 155.658 1015.66 155.467C1015.85 155.276 1016 155.049 1016.1 154.788C1016.21 154.527 1016.27 154.242 1016.27 153.934C1016.27 153.607 1016.21 153.313 1016.11 153.052C1016.01 152.786 1015.86 152.562 1015.67 152.38C1015.48 152.193 1015.26 152.051 1015 151.953C1014.74 151.855 1014.45 151.806 1014.14 151.806C1013.8 151.806 1013.5 151.864 1013.23 151.981C1012.96 152.093 1012.73 152.247 1012.53 152.443C1012.35 152.634 1012.2 152.858 1012.1 153.115C1012 153.367 1011.95 153.631 1011.95 153.906C1011.95 154.228 1012 154.522 1012.09 154.788C1012.19 155.054 1012.32 155.283 1012.5 155.474C1012.68 155.665 1012.9 155.815 1013.16 155.922C1013.42 156.025 1013.71 156.076 1014.05 156.076ZM1013.32 150.728C1013.23 150.84 1013.14 150.95 1013.06 151.057C1012.98 151.16 1012.9 151.262 1012.83 151.365C1013.07 151.202 1013.33 151.076 1013.61 150.987C1013.9 150.898 1014.21 150.854 1014.54 150.854C1014.95 150.854 1015.33 150.922 1015.69 151.057C1016.05 151.188 1016.36 151.381 1016.63 151.638C1016.9 151.89 1017.11 152.203 1017.27 152.576C1017.43 152.945 1017.51 153.367 1017.51 153.843C1017.51 154.305 1017.43 154.734 1017.26 155.131C1017.09 155.528 1016.86 155.873 1016.55 156.167C1016.25 156.461 1015.89 156.692 1015.47 156.86C1015.05 157.028 1014.58 157.112 1014.07 157.112C1013.57 157.112 1013.11 157.033 1012.7 156.874C1012.29 156.711 1011.94 156.482 1011.65 156.188C1011.37 155.889 1011.15 155.53 1010.99 155.11C1010.83 154.685 1010.76 154.212 1010.76 153.689C1010.76 153.25 1010.85 152.784 1011.04 152.289C1011.24 151.79 1011.55 151.258 1011.97 150.693L1014.52 147.27C1014.59 147.186 1014.68 147.116 1014.79 147.06C1014.9 146.999 1015.04 146.969 1015.19 146.969H1016.29L1013.32 150.728ZM1023.48 149.391C1023.48 149.783 1023.41 150.135 1023.29 150.448C1023.17 150.756 1023.01 151.017 1022.8 151.232C1022.6 151.442 1022.37 151.603 1022.1 151.715C1021.83 151.827 1021.55 151.883 1021.25 151.883C1020.94 151.883 1020.64 151.827 1020.37 151.715C1020.1 151.603 1019.87 151.442 1019.67 151.232C1019.47 151.017 1019.32 150.756 1019.21 150.448C1019.09 150.135 1019.04 149.783 1019.04 149.391C1019.04 148.99 1019.09 148.633 1019.21 148.32C1019.32 148.007 1019.47 147.744 1019.67 147.529C1019.87 147.314 1020.1 147.151 1020.37 147.039C1020.64 146.927 1020.94 146.871 1021.25 146.871C1021.57 146.871 1021.86 146.927 1022.13 147.039C1022.4 147.151 1022.64 147.314 1022.84 147.529C1023.04 147.744 1023.2 148.007 1023.31 148.32C1023.42 148.633 1023.48 148.99 1023.48 149.391ZM1022.51 149.391C1022.51 149.083 1022.48 148.822 1022.41 148.607C1022.35 148.392 1022.25 148.217 1022.14 148.082C1022.03 147.942 1021.89 147.842 1021.74 147.781C1021.59 147.72 1021.42 147.69 1021.25 147.69C1021.08 147.69 1020.92 147.72 1020.77 147.781C1020.62 147.842 1020.49 147.942 1020.37 148.082C1020.26 148.217 1020.17 148.392 1020.11 148.607C1020.04 148.822 1020.01 149.083 1020.01 149.391C1020.01 149.694 1020.04 149.953 1020.11 150.168C1020.17 150.378 1020.26 150.551 1020.37 150.686C1020.49 150.817 1020.62 150.912 1020.77 150.973C1020.92 151.029 1021.08 151.057 1021.25 151.057C1021.42 151.057 1021.59 151.029 1021.74 150.973C1021.89 150.912 1022.03 150.817 1022.14 150.686C1022.25 150.551 1022.35 150.378 1022.41 150.168C1022.48 149.953 1022.51 149.694 1022.51 149.391ZM1027.02 147.179C1027.07 147.123 1027.12 147.074 1027.19 147.032C1027.25 146.99 1027.34 146.969 1027.44 146.969H1028.35L1021.01 156.797C1020.97 156.858 1020.92 156.907 1020.85 156.944C1020.78 156.981 1020.71 157 1020.61 157H1019.7L1027.02 147.179ZM1029.03 154.634C1029.03 155.026 1028.97 155.376 1028.84 155.684C1028.72 155.992 1028.56 156.253 1028.35 156.468C1028.15 156.678 1027.92 156.839 1027.65 156.951C1027.38 157.063 1027.1 157.119 1026.8 157.119C1026.48 157.119 1026.19 157.063 1025.92 156.951C1025.65 156.839 1025.42 156.678 1025.22 156.468C1025.02 156.253 1024.87 155.992 1024.76 155.684C1024.64 155.376 1024.59 155.026 1024.59 154.634C1024.59 154.233 1024.64 153.876 1024.76 153.563C1024.87 153.246 1025.02 152.98 1025.22 152.765C1025.42 152.55 1025.65 152.387 1025.92 152.275C1026.19 152.163 1026.48 152.107 1026.8 152.107C1027.11 152.107 1027.4 152.163 1027.68 152.275C1027.95 152.387 1028.19 152.55 1028.38 152.765C1028.58 152.98 1028.74 153.246 1028.85 153.563C1028.97 153.876 1029.03 154.233 1029.03 154.634ZM1028.06 154.634C1028.06 154.326 1028.03 154.065 1027.96 153.85C1027.9 153.631 1027.81 153.453 1027.69 153.318C1027.58 153.183 1027.44 153.085 1027.29 153.024C1027.14 152.963 1026.97 152.933 1026.8 152.933C1026.63 152.933 1026.46 152.963 1026.31 153.024C1026.16 153.085 1026.03 153.183 1025.92 153.318C1025.81 153.453 1025.72 153.631 1025.65 153.85C1025.59 154.065 1025.56 154.326 1025.56 154.634C1025.56 154.937 1025.59 155.194 1025.65 155.404C1025.72 155.614 1025.81 155.787 1025.92 155.922C1026.03 156.053 1026.16 156.148 1026.31 156.209C1026.46 156.265 1026.63 156.293 1026.8 156.293C1026.97 156.293 1027.14 156.265 1027.29 156.209C1027.44 156.148 1027.58 156.053 1027.69 155.922C1027.81 155.787 1027.9 155.614 1027.96 155.404C1028.03 155.194 1028.06 154.937 1028.06 154.634ZM1037.8 149.797C1038.32 149.797 1038.79 149.883 1039.2 150.056C1039.62 150.229 1039.97 150.474 1040.27 150.791C1040.56 151.108 1040.79 151.493 1040.94 151.946C1041.1 152.394 1041.18 152.896 1041.18 153.451C1041.18 154.011 1041.1 154.515 1040.94 154.963C1040.79 155.411 1040.56 155.794 1040.27 156.111C1039.97 156.428 1039.62 156.673 1039.2 156.846C1038.79 157.014 1038.32 157.098 1037.8 157.098C1037.28 157.098 1036.81 157.014 1036.39 156.846C1035.97 156.673 1035.62 156.428 1035.33 156.111C1035.03 155.794 1034.81 155.411 1034.65 154.963C1034.49 154.515 1034.42 154.011 1034.42 153.451C1034.42 152.896 1034.49 152.394 1034.65 151.946C1034.81 151.493 1035.03 151.108 1035.33 150.791C1035.62 150.474 1035.97 150.229 1036.39 150.056C1036.81 149.883 1037.28 149.797 1037.8 149.797ZM1037.8 156.125C1038.5 156.125 1039.03 155.892 1039.37 155.425C1039.72 154.954 1039.89 154.298 1039.89 153.458C1039.89 152.613 1039.72 151.955 1039.37 151.484C1039.03 151.013 1038.5 150.777 1037.8 150.777C1037.45 150.777 1037.14 150.838 1036.87 150.959C1036.61 151.08 1036.39 151.255 1036.21 151.484C1036.04 151.713 1035.91 151.995 1035.82 152.331C1035.74 152.662 1035.7 153.038 1035.7 153.458C1035.7 154.298 1035.87 154.954 1036.21 155.425C1036.56 155.892 1037.09 156.125 1037.8 156.125ZM1043.37 157V150.973L1042.59 150.882C1042.49 150.859 1042.41 150.824 1042.34 150.777C1042.28 150.726 1042.25 150.653 1042.25 150.56V150.049H1043.37V149.363C1043.37 148.957 1043.43 148.598 1043.54 148.285C1043.65 147.968 1043.82 147.702 1044.03 147.487C1044.24 147.268 1044.5 147.102 1044.8 146.99C1045.1 146.878 1045.43 146.822 1045.81 146.822C1046.12 146.822 1046.41 146.869 1046.68 146.962L1046.65 147.585C1046.64 147.697 1046.58 147.758 1046.46 147.767C1046.35 147.776 1046.2 147.781 1046.01 147.781C1045.79 147.781 1045.6 147.809 1045.42 147.865C1045.25 147.921 1045.1 148.012 1044.97 148.138C1044.85 148.264 1044.75 148.43 1044.68 148.635C1044.61 148.84 1044.58 149.095 1044.58 149.398V150.049H1046.62V150.952H1044.62V157H1043.37ZM1052.92 151.33C1053.15 150.845 1053.42 150.467 1053.75 150.196C1054.07 149.921 1054.47 149.783 1054.94 149.783C1055.09 149.783 1055.24 149.799 1055.37 149.832C1055.51 149.865 1055.63 149.916 1055.74 149.986L1055.65 150.917C1055.62 151.034 1055.55 151.092 1055.44 151.092C1055.38 151.092 1055.28 151.078 1055.15 151.05C1055.03 151.022 1054.89 151.008 1054.73 151.008C1054.5 151.008 1054.3 151.041 1054.13 151.106C1053.95 151.171 1053.8 151.269 1053.66 151.4C1053.52 151.526 1053.4 151.685 1053.29 151.876C1053.18 152.063 1053.08 152.277 1052.99 152.52V157H1051.74V149.909H1052.45C1052.59 149.909 1052.68 149.935 1052.73 149.986C1052.78 150.037 1052.82 150.126 1052.84 150.252L1052.92 151.33Z" fill="black"/>
<path d="M1014.05 205.076C1014.38 205.076 1014.69 205.022 1014.96 204.915C1015.23 204.808 1015.46 204.658 1015.66 204.467C1015.85 204.276 1016 204.049 1016.1 203.788C1016.21 203.527 1016.27 203.242 1016.27 202.934C1016.27 202.607 1016.21 202.313 1016.11 202.052C1016.01 201.786 1015.86 201.562 1015.67 201.38C1015.48 201.193 1015.26 201.051 1015 200.953C1014.74 200.855 1014.45 200.806 1014.14 200.806C1013.8 200.806 1013.5 200.864 1013.23 200.981C1012.96 201.093 1012.73 201.247 1012.53 201.443C1012.35 201.634 1012.2 201.858 1012.1 202.115C1012 202.367 1011.95 202.631 1011.95 202.906C1011.95 203.228 1012 203.522 1012.09 203.788C1012.19 204.054 1012.32 204.283 1012.5 204.474C1012.68 204.665 1012.9 204.815 1013.16 204.922C1013.42 205.025 1013.71 205.076 1014.05 205.076ZM1013.32 199.728C1013.23 199.84 1013.14 199.95 1013.06 200.057C1012.98 200.16 1012.9 200.262 1012.83 200.365C1013.07 200.202 1013.33 200.076 1013.61 199.987C1013.9 199.898 1014.21 199.854 1014.54 199.854C1014.95 199.854 1015.33 199.922 1015.69 200.057C1016.05 200.188 1016.36 200.381 1016.63 200.638C1016.9 200.89 1017.11 201.203 1017.27 201.576C1017.43 201.945 1017.51 202.367 1017.51 202.843C1017.51 203.305 1017.43 203.734 1017.26 204.131C1017.09 204.528 1016.86 204.873 1016.55 205.167C1016.25 205.461 1015.89 205.692 1015.47 205.86C1015.05 206.028 1014.58 206.112 1014.07 206.112C1013.57 206.112 1013.11 206.033 1012.7 205.874C1012.29 205.711 1011.94 205.482 1011.65 205.188C1011.37 204.889 1011.15 204.53 1010.99 204.11C1010.83 203.685 1010.76 203.212 1010.76 202.689C1010.76 202.25 1010.85 201.784 1011.04 201.289C1011.24 200.79 1011.55 200.258 1011.97 199.693L1014.52 196.27C1014.59 196.186 1014.68 196.116 1014.79 196.06C1014.9 195.999 1015.04 195.969 1015.19 195.969H1016.29L1013.32 199.728ZM1023.48 198.391C1023.48 198.783 1023.41 199.135 1023.29 199.448C1023.17 199.756 1023.01 200.017 1022.8 200.232C1022.6 200.442 1022.37 200.603 1022.1 200.715C1021.83 200.827 1021.55 200.883 1021.25 200.883C1020.94 200.883 1020.64 200.827 1020.37 200.715C1020.1 200.603 1019.87 200.442 1019.67 200.232C1019.47 200.017 1019.32 199.756 1019.21 199.448C1019.09 199.135 1019.04 198.783 1019.04 198.391C1019.04 197.99 1019.09 197.633 1019.21 197.32C1019.32 197.007 1019.47 196.744 1019.67 196.529C1019.87 196.314 1020.1 196.151 1020.37 196.039C1020.64 195.927 1020.94 195.871 1021.25 195.871C1021.57 195.871 1021.86 195.927 1022.13 196.039C1022.4 196.151 1022.64 196.314 1022.84 196.529C1023.04 196.744 1023.2 197.007 1023.31 197.32C1023.42 197.633 1023.48 197.99 1023.48 198.391ZM1022.51 198.391C1022.51 198.083 1022.48 197.822 1022.41 197.607C1022.35 197.392 1022.25 197.217 1022.14 197.082C1022.03 196.942 1021.89 196.842 1021.74 196.781C1021.59 196.72 1021.42 196.69 1021.25 196.69C1021.08 196.69 1020.92 196.72 1020.77 196.781C1020.62 196.842 1020.49 196.942 1020.37 197.082C1020.26 197.217 1020.17 197.392 1020.11 197.607C1020.04 197.822 1020.01 198.083 1020.01 198.391C1020.01 198.694 1020.04 198.953 1020.11 199.168C1020.17 199.378 1020.26 199.551 1020.37 199.686C1020.49 199.817 1020.62 199.912 1020.77 199.973C1020.92 200.029 1021.08 200.057 1021.25 200.057C1021.42 200.057 1021.59 200.029 1021.74 199.973C1021.89 199.912 1022.03 199.817 1022.14 199.686C1022.25 199.551 1022.35 199.378 1022.41 199.168C1022.48 198.953 1022.51 198.694 1022.51 198.391ZM1027.02 196.179C1027.07 196.123 1027.12 196.074 1027.19 196.032C1027.25 195.99 1027.34 195.969 1027.44 195.969H1028.35L1021.01 205.797C1020.97 205.858 1020.92 205.907 1020.85 205.944C1020.78 205.981 1020.71 206 1020.61 206H1019.7L1027.02 196.179ZM1029.03 203.634C1029.03 204.026 1028.97 204.376 1028.84 204.684C1028.72 204.992 1028.56 205.253 1028.35 205.468C1028.15 205.678 1027.92 205.839 1027.65 205.951C1027.38 206.063 1027.1 206.119 1026.8 206.119C1026.48 206.119 1026.19 206.063 1025.92 205.951C1025.65 205.839 1025.42 205.678 1025.22 205.468C1025.02 205.253 1024.87 204.992 1024.76 204.684C1024.64 204.376 1024.59 204.026 1024.59 203.634C1024.59 203.233 1024.64 202.876 1024.76 202.563C1024.87 202.246 1025.02 201.98 1025.22 201.765C1025.42 201.55 1025.65 201.387 1025.92 201.275C1026.19 201.163 1026.48 201.107 1026.8 201.107C1027.11 201.107 1027.4 201.163 1027.68 201.275C1027.95 201.387 1028.19 201.55 1028.38 201.765C1028.58 201.98 1028.74 202.246 1028.85 202.563C1028.97 202.876 1029.03 203.233 1029.03 203.634ZM1028.06 203.634C1028.06 203.326 1028.03 203.065 1027.96 202.85C1027.9 202.631 1027.81 202.453 1027.69 202.318C1027.58 202.183 1027.44 202.085 1027.29 202.024C1027.14 201.963 1026.97 201.933 1026.8 201.933C1026.63 201.933 1026.46 201.963 1026.31 202.024C1026.16 202.085 1026.03 202.183 1025.92 202.318C1025.81 202.453 1025.72 202.631 1025.65 202.85C1025.59 203.065 1025.56 203.326 1025.56 203.634C1025.56 203.937 1025.59 204.194 1025.65 204.404C1025.72 204.614 1025.81 204.787 1025.92 204.922C1026.03 205.053 1026.16 205.148 1026.31 205.209C1026.46 205.265 1026.63 205.293 1026.8 205.293C1026.97 205.293 1027.14 205.265 1027.29 205.209C1027.44 205.148 1027.58 205.053 1027.69 204.922C1027.81 204.787 1027.9 204.614 1027.96 204.404C1028.03 204.194 1028.06 203.937 1028.06 203.634ZM1037.8 198.797C1038.32 198.797 1038.79 198.883 1039.2 199.056C1039.62 199.229 1039.97 199.474 1040.27 199.791C1040.56 200.108 1040.79 200.493 1040.94 200.946C1041.1 201.394 1041.18 201.896 1041.18 202.451C1041.18 203.011 1041.1 203.515 1040.94 203.963C1040.79 204.411 1040.56 204.794 1040.27 205.111C1039.97 205.428 1039.62 205.673 1039.2 205.846C1038.79 206.014 1038.32 206.098 1037.8 206.098C1037.28 206.098 1036.81 206.014 1036.39 205.846C1035.97 205.673 1035.62 205.428 1035.33 205.111C1035.03 204.794 1034.81 204.411 1034.65 203.963C1034.49 203.515 1034.42 203.011 1034.42 202.451C1034.42 201.896 1034.49 201.394 1034.65 200.946C1034.81 200.493 1035.03 200.108 1035.33 199.791C1035.62 199.474 1035.97 199.229 1036.39 199.056C1036.81 198.883 1037.28 198.797 1037.8 198.797ZM1037.8 205.125C1038.5 205.125 1039.03 204.892 1039.37 204.425C1039.72 203.954 1039.89 203.298 1039.89 202.458C1039.89 201.613 1039.72 200.955 1039.37 200.484C1039.03 200.013 1038.5 199.777 1037.8 199.777C1037.45 199.777 1037.14 199.838 1036.87 199.959C1036.61 200.08 1036.39 200.255 1036.21 200.484C1036.04 200.713 1035.91 200.995 1035.82 201.331C1035.74 201.662 1035.7 202.038 1035.7 202.458C1035.7 203.298 1035.87 203.954 1036.21 204.425C1036.56 204.892 1037.09 205.125 1037.8 205.125ZM1043.37 206V199.973L1042.59 199.882C1042.49 199.859 1042.41 199.824 1042.34 199.777C1042.28 199.726 1042.25 199.653 1042.25 199.56V199.049H1043.37V198.363C1043.37 197.957 1043.43 197.598 1043.54 197.285C1043.65 196.968 1043.82 196.702 1044.03 196.487C1044.24 196.268 1044.5 196.102 1044.8 195.99C1045.1 195.878 1045.43 195.822 1045.81 195.822C1046.12 195.822 1046.41 195.869 1046.68 195.962L1046.65 196.585C1046.64 196.697 1046.58 196.758 1046.46 196.767C1046.35 196.776 1046.2 196.781 1046.01 196.781C1045.79 196.781 1045.6 196.809 1045.42 196.865C1045.25 196.921 1045.1 197.012 1044.97 197.138C1044.85 197.264 1044.75 197.43 1044.68 197.635C1044.61 197.84 1044.58 198.095 1044.58 198.398V199.049H1046.62V199.952H1044.62V206H1043.37ZM1052.92 200.33C1053.15 199.845 1053.42 199.467 1053.75 199.196C1054.07 198.921 1054.47 198.783 1054.94 198.783C1055.09 198.783 1055.24 198.799 1055.37 198.832C1055.51 198.865 1055.63 198.916 1055.74 198.986L1055.65 199.917C1055.62 200.034 1055.55 200.092 1055.44 200.092C1055.38 200.092 1055.28 200.078 1055.15 200.05C1055.03 200.022 1054.89 200.008 1054.73 200.008C1054.5 200.008 1054.3 200.041 1054.13 200.106C1053.95 200.171 1053.8 200.269 1053.66 200.4C1053.52 200.526 1053.4 200.685 1053.29 200.876C1053.18 201.063 1053.08 201.277 1052.99 201.52V206H1051.74V198.909H1052.45C1052.59 198.909 1052.68 198.935 1052.73 198.986C1052.78 199.037 1052.82 199.126 1052.84 199.252L1052.92 200.33Z" fill="black"/>
<line x1="986" y1="254.5" x2="1000" y2="254.5" stroke="black"/>
<line x1="986" y1="303.5" x2="1000" y2="303.5" stroke="black"/>
<line x1="999.5" y1="304" x2="999.5" y2="255" stroke="black"/>
<path d="M1014.05 284.076C1014.38 284.076 1014.69 284.022 1014.96 283.915C1015.23 283.808 1015.46 283.658 1015.66 283.467C1015.85 283.276 1016 283.049 1016.1 282.788C1016.21 282.527 1016.27 282.242 1016.27 281.934C1016.27 281.607 1016.21 281.313 1016.11 281.052C1016.01 280.786 1015.86 280.562 1015.67 280.38C1015.48 280.193 1015.26 280.051 1015 279.953C1014.74 279.855 1014.45 279.806 1014.14 279.806C1013.8 279.806 1013.5 279.864 1013.23 279.981C1012.96 280.093 1012.73 280.247 1012.53 280.443C1012.35 280.634 1012.2 280.858 1012.1 281.115C1012 281.367 1011.95 281.631 1011.95 281.906C1011.95 282.228 1012 282.522 1012.09 282.788C1012.19 283.054 1012.32 283.283 1012.5 283.474C1012.68 283.665 1012.9 283.815 1013.16 283.922C1013.42 284.025 1013.71 284.076 1014.05 284.076ZM1013.32 278.728C1013.23 278.84 1013.14 278.95 1013.06 279.057C1012.98 279.16 1012.9 279.262 1012.83 279.365C1013.07 279.202 1013.33 279.076 1013.61 278.987C1013.9 278.898 1014.21 278.854 1014.54 278.854C1014.95 278.854 1015.33 278.922 1015.69 279.057C1016.05 279.188 1016.36 279.381 1016.63 279.638C1016.9 279.89 1017.11 280.203 1017.27 280.576C1017.43 280.945 1017.51 281.367 1017.51 281.843C1017.51 282.305 1017.43 282.734 1017.26 283.131C1017.09 283.528 1016.86 283.873 1016.55 284.167C1016.25 284.461 1015.89 284.692 1015.47 284.86C1015.05 285.028 1014.58 285.112 1014.07 285.112C1013.57 285.112 1013.11 285.033 1012.7 284.874C1012.29 284.711 1011.94 284.482 1011.65 284.188C1011.37 283.889 1011.15 283.53 1010.99 283.11C1010.83 282.685 1010.76 282.212 1010.76 281.689C1010.76 281.25 1010.85 280.784 1011.04 280.289C1011.24 279.79 1011.55 279.258 1011.97 278.693L1014.52 275.27C1014.59 275.186 1014.68 275.116 1014.79 275.06C1014.9 274.999 1015.04 274.969 1015.19 274.969H1016.29L1013.32 278.728ZM1023.48 277.391C1023.48 277.783 1023.41 278.135 1023.29 278.448C1023.17 278.756 1023.01 279.017 1022.8 279.232C1022.6 279.442 1022.37 279.603 1022.1 279.715C1021.83 279.827 1021.55 279.883 1021.25 279.883C1020.94 279.883 1020.64 279.827 1020.37 279.715C1020.1 279.603 1019.87 279.442 1019.67 279.232C1019.47 279.017 1019.32 278.756 1019.21 278.448C1019.09 278.135 1019.04 277.783 1019.04 277.391C1019.04 276.99 1019.09 276.633 1019.21 276.32C1019.32 276.007 1019.47 275.744 1019.67 275.529C1019.87 275.314 1020.1 275.151 1020.37 275.039C1020.64 274.927 1020.94 274.871 1021.25 274.871C1021.57 274.871 1021.86 274.927 1022.13 275.039C1022.4 275.151 1022.64 275.314 1022.84 275.529C1023.04 275.744 1023.2 276.007 1023.31 276.32C1023.42 276.633 1023.48 276.99 1023.48 277.391ZM1022.51 277.391C1022.51 277.083 1022.48 276.822 1022.41 276.607C1022.35 276.392 1022.25 276.217 1022.14 276.082C1022.03 275.942 1021.89 275.842 1021.74 275.781C1021.59 275.72 1021.42 275.69 1021.25 275.69C1021.08 275.69 1020.92 275.72 1020.77 275.781C1020.62 275.842 1020.49 275.942 1020.37 276.082C1020.26 276.217 1020.17 276.392 1020.11 276.607C1020.04 276.822 1020.01 277.083 1020.01 277.391C1020.01 277.694 1020.04 277.953 1020.11 278.168C1020.17 278.378 1020.26 278.551 1020.37 278.686C1020.49 278.817 1020.62 278.912 1020.77 278.973C1020.92 279.029 1021.08 279.057 1021.25 279.057C1021.42 279.057 1021.59 279.029 1021.74 278.973C1021.89 278.912 1022.03 278.817 1022.14 278.686C1022.25 278.551 1022.35 278.378 1022.41 278.168C1022.48 277.953 1022.51 277.694 1022.51 277.391ZM1027.02 275.179C1027.07 275.123 1027.12 275.074 1027.19 275.032C1027.25 274.99 1027.34 274.969 1027.44 274.969H1028.35L1021.01 284.797C1020.97 284.858 1020.92 284.907 1020.85 284.944C1020.78 284.981 1020.71 285 1020.61 285H1019.7L1027.02 275.179ZM1029.03 282.634C1029.03 283.026 1028.97 283.376 1028.84 283.684C1028.72 283.992 1028.56 284.253 1028.35 284.468C1028.15 284.678 1027.92 284.839 1027.65 284.951C1027.38 285.063 1027.1 285.119 1026.8 285.119C1026.48 285.119 1026.19 285.063 1025.92 284.951C1025.65 284.839 1025.42 284.678 1025.22 284.468C1025.02 284.253 1024.87 283.992 1024.76 283.684C1024.64 283.376 1024.59 283.026 1024.59 282.634C1024.59 282.233 1024.64 281.876 1024.76 281.563C1024.87 281.246 1025.02 280.98 1025.22 280.765C1025.42 280.55 1025.65 280.387 1025.92 280.275C1026.19 280.163 1026.48 280.107 1026.8 280.107C1027.11 280.107 1027.4 280.163 1027.68 280.275C1027.95 280.387 1028.19 280.55 1028.38 280.765C1028.58 280.98 1028.74 281.246 1028.85 281.563C1028.97 281.876 1029.03 282.233 1029.03 282.634ZM1028.06 282.634C1028.06 282.326 1028.03 282.065 1027.96 281.85C1027.9 281.631 1027.81 281.453 1027.69 281.318C1027.58 281.183 1027.44 281.085 1027.29 281.024C1027.14 280.963 1026.97 280.933 1026.8 280.933C1026.63 280.933 1026.46 280.963 1026.31 281.024C1026.16 281.085 1026.03 281.183 1025.92 281.318C1025.81 281.453 1025.72 281.631 1025.65 281.85C1025.59 282.065 1025.56 282.326 1025.56 282.634C1025.56 282.937 1025.59 283.194 1025.65 283.404C1025.72 283.614 1025.81 283.787 1025.92 283.922C1026.03 284.053 1026.16 284.148 1026.31 284.209C1026.46 284.265 1026.63 284.293 1026.8 284.293C1026.97 284.293 1027.14 284.265 1027.29 284.209C1027.44 284.148 1027.58 284.053 1027.69 283.922C1027.81 283.787 1027.9 283.614 1027.96 283.404C1028.03 283.194 1028.06 282.937 1028.06 282.634ZM1037.8 277.797C1038.32 277.797 1038.79 277.883 1039.2 278.056C1039.62 278.229 1039.97 278.474 1040.27 278.791C1040.56 279.108 1040.79 279.493 1040.94 279.946C1041.1 280.394 1041.18 280.896 1041.18 281.451C1041.18 282.011 1041.1 282.515 1040.94 282.963C1040.79 283.411 1040.56 283.794 1040.27 284.111C1039.97 284.428 1039.62 284.673 1039.2 284.846C1038.79 285.014 1038.32 285.098 1037.8 285.098C1037.28 285.098 1036.81 285.014 1036.39 284.846C1035.97 284.673 1035.62 284.428 1035.33 284.111C1035.03 283.794 1034.81 283.411 1034.65 282.963C1034.49 282.515 1034.42 282.011 1034.42 281.451C1034.42 280.896 1034.49 280.394 1034.65 279.946C1034.81 279.493 1035.03 279.108 1035.33 278.791C1035.62 278.474 1035.97 278.229 1036.39 278.056C1036.81 277.883 1037.28 277.797 1037.8 277.797ZM1037.8 284.125C1038.5 284.125 1039.03 283.892 1039.37 283.425C1039.72 282.954 1039.89 282.298 1039.89 281.458C1039.89 280.613 1039.72 279.955 1039.37 279.484C1039.03 279.013 1038.5 278.777 1037.8 278.777C1037.45 278.777 1037.14 278.838 1036.87 278.959C1036.61 279.08 1036.39 279.255 1036.21 279.484C1036.04 279.713 1035.91 279.995 1035.82 280.331C1035.74 280.662 1035.7 281.038 1035.7 281.458C1035.7 282.298 1035.87 282.954 1036.21 283.425C1036.56 283.892 1037.09 284.125 1037.8 284.125ZM1043.37 285V278.973L1042.59 278.882C1042.49 278.859 1042.41 278.824 1042.34 278.777C1042.28 278.726 1042.25 278.653 1042.25 278.56V278.049H1043.37V277.363C1043.37 276.957 1043.43 276.598 1043.54 276.285C1043.65 275.968 1043.82 275.702 1044.03 275.487C1044.24 275.268 1044.5 275.102 1044.8 274.99C1045.1 274.878 1045.43 274.822 1045.81 274.822C1046.12 274.822 1046.41 274.869 1046.68 274.962L1046.65 275.585C1046.64 275.697 1046.58 275.758 1046.46 275.767C1046.35 275.776 1046.2 275.781 1046.01 275.781C1045.79 275.781 1045.6 275.809 1045.42 275.865C1045.25 275.921 1045.1 276.012 1044.97 276.138C1044.85 276.264 1044.75 276.43 1044.68 276.635C1044.61 276.84 1044.58 277.095 1044.58 277.398V278.049H1046.62V278.952H1044.62V285H1043.37ZM1052.92 279.33C1053.15 278.845 1053.42 278.467 1053.75 278.196C1054.07 277.921 1054.47 277.783 1054.94 277.783C1055.09 277.783 1055.24 277.799 1055.37 277.832C1055.51 277.865 1055.63 277.916 1055.74 277.986L1055.65 278.917C1055.62 279.034 1055.55 279.092 1055.44 279.092C1055.38 279.092 1055.28 279.078 1055.15 279.05C1055.03 279.022 1054.89 279.008 1054.73 279.008C1054.5 279.008 1054.3 279.041 1054.13 279.106C1053.95 279.171 1053.8 279.269 1053.66 279.4C1053.52 279.526 1053.4 279.685 1053.29 279.876C1053.18 280.063 1053.08 280.277 1052.99 280.52V285H1051.74V277.909H1052.45C1052.59 277.909 1052.68 277.935 1052.73 277.986C1052.78 278.037 1052.82 278.126 1052.84 278.252L1052.92 279.33Z" fill="black"/>
<path d="M1012.53 239.756C1013.06 239.644 1013.54 239.588 1013.98 239.588C1014.5 239.588 1014.96 239.665 1015.36 239.819C1015.76 239.973 1016.1 240.185 1016.36 240.456C1016.63 240.727 1016.84 241.046 1016.97 241.415C1017.11 241.784 1017.18 242.185 1017.18 242.619C1017.18 243.151 1017.09 243.632 1016.9 244.061C1016.72 244.49 1016.47 244.859 1016.14 245.167C1015.82 245.47 1015.44 245.704 1015 245.867C1014.56 246.03 1014.09 246.112 1013.58 246.112C1013.28 246.112 1013 246.082 1012.73 246.021C1012.46 245.965 1012.21 245.888 1011.97 245.79C1011.73 245.692 1011.52 245.58 1011.32 245.454C1011.12 245.328 1010.94 245.195 1010.78 245.055L1011.17 244.523C1011.25 244.402 1011.36 244.341 1011.5 244.341C1011.59 244.341 1011.7 244.378 1011.81 244.453C1011.93 244.523 1012.07 244.602 1012.24 244.691C1012.41 244.78 1012.6 244.861 1012.83 244.936C1013.06 245.006 1013.33 245.041 1013.64 245.041C1013.99 245.041 1014.31 244.985 1014.59 244.873C1014.87 244.761 1015.11 244.602 1015.31 244.397C1015.51 244.187 1015.66 243.937 1015.77 243.648C1015.88 243.359 1015.93 243.034 1015.93 242.675C1015.93 242.362 1015.88 242.08 1015.79 241.828C1015.7 241.576 1015.56 241.361 1015.38 241.184C1015.19 241.007 1014.97 240.869 1014.69 240.771C1014.41 240.673 1014.09 240.624 1013.72 240.624C1013.47 240.624 1013.21 240.645 1012.93 240.687C1012.66 240.729 1012.38 240.797 1012.1 240.89L1011.32 240.659L1012.12 235.969H1016.87V236.515C1016.87 236.692 1016.82 236.839 1016.71 236.956C1016.6 237.068 1016.41 237.124 1016.15 237.124H1013L1012.53 239.756ZM1019.2 245.23C1019.2 245.109 1019.22 244.994 1019.26 244.887C1019.31 244.78 1019.37 244.686 1019.44 244.607C1019.52 244.528 1019.62 244.465 1019.72 244.418C1019.83 244.371 1019.94 244.348 1020.07 244.348C1020.19 244.348 1020.3 244.371 1020.41 244.418C1020.52 244.465 1020.61 244.528 1020.69 244.607C1020.77 244.686 1020.83 244.78 1020.88 244.887C1020.92 244.994 1020.95 245.109 1020.95 245.23C1020.95 245.356 1020.92 245.473 1020.88 245.58C1020.83 245.683 1020.77 245.774 1020.69 245.853C1020.61 245.932 1020.52 245.993 1020.41 246.035C1020.3 246.082 1020.19 246.105 1020.07 246.105C1019.94 246.105 1019.83 246.082 1019.72 246.035C1019.62 245.993 1019.52 245.932 1019.44 245.853C1019.37 245.774 1019.31 245.683 1019.26 245.58C1019.22 245.473 1019.2 245.356 1019.2 245.23ZM1029.6 235.969V236.529C1029.6 236.688 1029.58 236.818 1029.54 236.921C1029.51 237.024 1029.48 237.11 1029.44 237.18L1025.28 245.559C1025.22 245.68 1025.14 245.785 1025.03 245.874C1024.93 245.958 1024.78 246 1024.61 246H1023.71L1027.92 237.726C1027.98 237.609 1028.05 237.502 1028.11 237.404C1028.18 237.306 1028.25 237.213 1028.32 237.124H1023.09C1023.01 237.124 1022.94 237.094 1022.88 237.033C1022.82 236.968 1022.79 236.895 1022.79 236.816V235.969H1029.6ZM1035.5 238.391C1035.5 238.783 1035.44 239.135 1035.32 239.448C1035.2 239.756 1035.04 240.017 1034.83 240.232C1034.63 240.442 1034.4 240.603 1034.13 240.715C1033.86 240.827 1033.58 240.883 1033.28 240.883C1032.97 240.883 1032.67 240.827 1032.4 240.715C1032.13 240.603 1031.9 240.442 1031.7 240.232C1031.5 240.017 1031.35 239.756 1031.23 239.448C1031.12 239.135 1031.07 238.783 1031.07 238.391C1031.07 237.99 1031.12 237.633 1031.23 237.32C1031.35 237.007 1031.5 236.744 1031.7 236.529C1031.9 236.314 1032.13 236.151 1032.4 236.039C1032.67 235.927 1032.97 235.871 1033.28 235.871C1033.6 235.871 1033.89 235.927 1034.16 236.039C1034.43 236.151 1034.67 236.314 1034.87 236.529C1035.07 236.744 1035.22 237.007 1035.34 237.32C1035.45 237.633 1035.5 237.99 1035.5 238.391ZM1034.54 238.391C1034.54 238.083 1034.51 237.822 1034.44 237.607C1034.38 237.392 1034.28 237.217 1034.17 237.082C1034.06 236.942 1033.92 236.842 1033.77 236.781C1033.61 236.72 1033.45 236.69 1033.28 236.69C1033.11 236.69 1032.95 236.72 1032.8 236.781C1032.65 236.842 1032.52 236.942 1032.4 237.082C1032.29 237.217 1032.2 237.392 1032.14 237.607C1032.07 237.822 1032.04 238.083 1032.04 238.391C1032.04 238.694 1032.07 238.953 1032.14 239.168C1032.2 239.378 1032.29 239.551 1032.4 239.686C1032.52 239.817 1032.65 239.912 1032.8 239.973C1032.95 240.029 1033.11 240.057 1033.28 240.057C1033.45 240.057 1033.61 240.029 1033.77 239.973C1033.92 239.912 1034.06 239.817 1034.17 239.686C1034.28 239.551 1034.38 239.378 1034.44 239.168C1034.51 238.953 1034.54 238.694 1034.54 238.391ZM1039.05 236.179C1039.1 236.123 1039.15 236.074 1039.21 236.032C1039.28 235.99 1039.37 235.969 1039.47 235.969H1040.38L1033.04 245.797C1033 245.858 1032.95 245.907 1032.88 245.944C1032.81 245.981 1032.74 246 1032.64 246H1031.72L1039.05 236.179ZM1041.06 243.634C1041.06 244.026 1041 244.376 1040.87 244.684C1040.75 244.992 1040.59 245.253 1040.38 245.468C1040.18 245.678 1039.95 245.839 1039.68 245.951C1039.41 246.063 1039.13 246.119 1038.83 246.119C1038.51 246.119 1038.22 246.063 1037.95 245.951C1037.68 245.839 1037.45 245.678 1037.25 245.468C1037.05 245.253 1036.9 244.992 1036.79 244.684C1036.67 244.376 1036.62 244.026 1036.62 243.634C1036.62 243.233 1036.67 242.876 1036.79 242.563C1036.9 242.246 1037.05 241.98 1037.25 241.765C1037.45 241.55 1037.68 241.387 1037.95 241.275C1038.22 241.163 1038.51 241.107 1038.83 241.107C1039.14 241.107 1039.43 241.163 1039.7 241.275C1039.98 241.387 1040.22 241.55 1040.41 241.765C1040.61 241.98 1040.77 242.246 1040.88 242.563C1041 242.876 1041.06 243.233 1041.06 243.634ZM1040.09 243.634C1040.09 243.326 1040.06 243.065 1039.99 242.85C1039.93 242.631 1039.84 242.453 1039.72 242.318C1039.61 242.183 1039.47 242.085 1039.32 242.024C1039.17 241.963 1039 241.933 1038.83 241.933C1038.66 241.933 1038.49 241.963 1038.34 242.024C1038.19 242.085 1038.06 242.183 1037.95 242.318C1037.84 242.453 1037.75 242.631 1037.68 242.85C1037.62 243.065 1037.59 243.326 1037.59 243.634C1037.59 243.937 1037.62 244.194 1037.68 244.404C1037.75 244.614 1037.84 244.787 1037.95 244.922C1038.06 245.053 1038.19 245.148 1038.34 245.209C1038.49 245.265 1038.66 245.293 1038.83 245.293C1039 245.293 1039.17 245.265 1039.32 245.209C1039.47 245.148 1039.61 245.053 1039.72 244.922C1039.84 244.787 1039.93 244.614 1039.99 244.404C1040.06 244.194 1040.09 243.937 1040.09 243.634ZM1049.83 238.797C1050.35 238.797 1050.82 238.883 1051.23 239.056C1051.65 239.229 1052 239.474 1052.3 239.791C1052.59 240.108 1052.82 240.493 1052.97 240.946C1053.13 241.394 1053.21 241.896 1053.21 242.451C1053.21 243.011 1053.13 243.515 1052.97 243.963C1052.82 244.411 1052.59 244.794 1052.3 245.111C1052 245.428 1051.65 245.673 1051.23 245.846C1050.82 246.014 1050.35 246.098 1049.83 246.098C1049.31 246.098 1048.84 246.014 1048.42 245.846C1048 245.673 1047.65 245.428 1047.36 245.111C1047.06 244.794 1046.84 244.411 1046.68 243.963C1046.52 243.515 1046.45 243.011 1046.45 242.451C1046.45 241.896 1046.52 241.394 1046.68 240.946C1046.84 240.493 1047.06 240.108 1047.36 239.791C1047.65 239.474 1048 239.229 1048.42 239.056C1048.84 238.883 1049.31 238.797 1049.83 238.797ZM1049.83 245.125C1050.53 245.125 1051.06 244.892 1051.4 244.425C1051.75 243.954 1051.92 243.298 1051.92 242.458C1051.92 241.613 1051.75 240.955 1051.4 240.484C1051.06 240.013 1050.53 239.777 1049.83 239.777C1049.48 239.777 1049.17 239.838 1048.9 239.959C1048.64 240.08 1048.42 240.255 1048.24 240.484C1048.07 240.713 1047.94 240.995 1047.85 241.331C1047.77 241.662 1047.73 242.038 1047.73 242.458C1047.73 243.298 1047.9 243.954 1048.24 244.425C1048.59 244.892 1049.12 245.125 1049.83 245.125ZM1055.4 246V239.973L1054.62 239.882C1054.52 239.859 1054.44 239.824 1054.37 239.777C1054.31 239.726 1054.28 239.653 1054.28 239.56V239.049H1055.4V238.363C1055.4 237.957 1055.46 237.598 1055.57 237.285C1055.68 236.968 1055.85 236.702 1056.06 236.487C1056.27 236.268 1056.53 236.102 1056.83 235.99C1057.13 235.878 1057.46 235.822 1057.84 235.822C1058.15 235.822 1058.44 235.869 1058.71 235.962L1058.68 236.585C1058.67 236.697 1058.61 236.758 1058.49 236.767C1058.38 236.776 1058.23 236.781 1058.04 236.781C1057.82 236.781 1057.63 236.809 1057.45 236.865C1057.28 236.921 1057.13 237.012 1057 237.138C1056.88 237.264 1056.78 237.43 1056.71 237.635C1056.64 237.84 1056.61 238.095 1056.61 238.398V239.049H1058.65V239.952H1056.65V246H1055.4ZM1066.76 238.797C1067.27 238.797 1067.74 238.883 1068.16 239.056C1068.57 239.229 1068.93 239.474 1069.22 239.791C1069.51 240.108 1069.74 240.493 1069.89 240.946C1070.05 241.394 1070.13 241.896 1070.13 242.451C1070.13 243.011 1070.05 243.515 1069.89 243.963C1069.74 244.411 1069.51 244.794 1069.22 245.111C1068.93 245.428 1068.57 245.673 1068.16 245.846C1067.74 246.014 1067.27 246.098 1066.76 246.098C1066.23 246.098 1065.76 246.014 1065.34 245.846C1064.93 245.673 1064.57 245.428 1064.28 245.111C1063.98 244.794 1063.76 244.411 1063.6 243.963C1063.45 243.515 1063.37 243.011 1063.37 242.451C1063.37 241.896 1063.45 241.394 1063.6 240.946C1063.76 240.493 1063.98 240.108 1064.28 239.791C1064.57 239.474 1064.93 239.229 1065.34 239.056C1065.76 238.883 1066.23 238.797 1066.76 238.797ZM1066.76 245.125C1067.46 245.125 1067.98 244.892 1068.32 244.425C1068.67 243.954 1068.84 243.298 1068.84 242.458C1068.84 241.613 1068.67 240.955 1068.32 240.484C1067.98 240.013 1067.46 239.777 1066.76 239.777C1066.4 239.777 1066.09 239.838 1065.83 239.959C1065.56 240.08 1065.35 240.255 1065.17 240.484C1065 240.713 1064.86 240.995 1064.78 241.331C1064.69 241.662 1064.65 242.038 1064.65 242.458C1064.65 243.298 1064.82 243.954 1065.17 244.425C1065.52 244.892 1066.05 245.125 1066.76 245.125Z" fill="black"/>
<line y1="-0.5" x2="14" y2="-0.5" transform="matrix(-4.67672e-06 1 -1 -1.63421e-09 976 586)" stroke="black"/>
<line x1="176.5" y1="586" x2="176.5" y2="600" stroke="black"/>
<line x1="176" y1="599.5" x2="976" y2="599.5" stroke="black"/>
<line y1="-0.5" x2="14" y2="-0.5" transform="matrix(3.02233e-06 -1 1 2.52876e-09 459 116)" stroke="black"/>
<line x1="975.5" y1="116" x2="975.5" y2="102" stroke="black"/>
<line x1="976" y1="102.5" x2="459" y2="102.5" stroke="black"/>
<line x1="458.5" y1="92" x2="458.5" y2="78" stroke="black"/>
<line x1="562.5" y1="92" x2="562.5" y2="78" stroke="black"/>
<line x1="563" y1="78.5" x2="459" y2="78.5" stroke="black"/>
<path d="M575.17 618.33C575.394 617.845 575.669 617.467 575.996 617.196C576.323 616.921 576.722 616.783 577.193 616.783C577.342 616.783 577.485 616.799 577.62 616.832C577.76 616.865 577.884 616.916 577.991 616.986L577.9 617.917C577.872 618.034 577.802 618.092 577.69 618.092C577.625 618.092 577.529 618.078 577.403 618.05C577.277 618.022 577.135 618.008 576.976 618.008C576.752 618.008 576.551 618.041 576.374 618.106C576.201 618.171 576.045 618.269 575.905 618.4C575.77 618.526 575.646 618.685 575.534 618.876C575.427 619.063 575.329 619.277 575.24 619.52V624H573.987V616.909H574.701C574.836 616.909 574.93 616.935 574.981 616.986C575.032 617.037 575.067 617.126 575.086 617.252L575.17 618.33Z" fill="black"/>
<g clip-path="url(#clip0)">
<path fill-rule="evenodd" clip-rule="evenodd" d="M635.057 225.161C633.092 225.161 631.89 226.197 631.89 228.314V245.346H631.798L620.288 226.864C619.572 225.668 618.37 225.138 617.006 225.138C614.21 225.138 612.869 226.266 612.869 228.959V251.745C612.869 253.862 614.071 254.898 616.035 254.898C618 254.898 619.202 253.862 619.202 251.745V235.196H619.271L630.688 253.149C631.521 254.461 632.214 254.898 634.294 254.898C637.067 254.898 638.177 253.425 638.177 250.824V228.291C638.223 226.197 637.021 225.161 635.057 225.161Z" fill="white"/>
<path fill-rule="evenodd" clip-rule="evenodd" d="M660.457 225.161C659.093 225.161 658.376 225.644 657.614 227.071L651.928 237.567L646.197 227.071C645.526 225.806 644.787 225.161 643.238 225.161C641.967 225.161 639.91 225.921 639.91 228.153C639.91 228.752 640.141 229.35 640.465 229.879L648.508 243.206V251.676C648.508 253.632 649.779 254.944 651.79 254.944C653.8 254.944 655.072 253.632 655.072 251.676V243.206L663.114 229.879C663.438 229.35 663.669 228.752 663.669 228.153C663.692 225.921 661.658 225.161 660.457 225.161Z" fill="white"/>
<path fill-rule="evenodd" clip-rule="evenodd" d="M689.67 228.084C689.67 225.898 687.983 225.161 686.342 225.161C684.816 225.161 683.869 226.082 683.268 228.038L677.097 247.579H677.028L671.088 228.038C670.487 226.082 669.516 225.161 667.76 225.161C666.119 225.161 664.432 225.875 664.432 228.084C664.432 228.614 664.547 229.235 664.824 229.995L672.914 252.665C673.584 254.53 674.878 254.944 676.912 254.944C678.946 254.944 680.24 254.553 680.91 252.665L689.254 229.995C689.554 229.235 689.67 228.591 689.67 228.084Z" fill="white"/>
<path fill-rule="evenodd" clip-rule="evenodd" d="M702.335 227.555C701.618 225.529 700.301 225.161 698.799 225.161H697.227C695.633 225.161 694.593 225.691 694.015 227.164L685.51 249.558C685.278 250.203 684.862 251.354 684.862 252.067C684.862 253.816 686.11 254.944 687.913 254.944C689.485 254.944 690.386 254.415 690.848 253.149L692.582 248.362H703.167L704.854 253.149C705.34 254.415 706.38 254.944 707.813 254.944C709.5 254.944 710.909 253.678 710.909 252.067C710.909 251.354 710.517 250.203 710.262 249.558L702.335 227.555ZM694.038 243.804L697.921 232.273H697.99L701.711 243.804H694.038Z" fill="white"/>
<path fill-rule="evenodd" clip-rule="evenodd" d="M734.739 225.161C732.774 225.161 731.572 226.197 731.572 228.314V245.346H731.503L719.993 226.864C719.277 225.668 718.075 225.138 716.711 225.138C713.915 225.138 712.574 226.266 712.574 228.959V251.745C712.574 253.862 713.776 254.898 715.74 254.898C717.705 254.898 718.907 253.862 718.907 251.745V235.196H718.976L730.393 253.149C731.226 254.461 731.919 254.898 733.999 254.898C736.772 254.898 737.882 253.425 737.882 250.824V228.291C737.905 226.197 736.703 225.161 734.739 225.161Z" fill="white"/>
<path d="M576.26 252.942C578.174 252.942 579.727 251.396 579.727 249.489C579.727 247.582 578.174 246.037 576.26 246.037C574.345 246.037 572.793 247.582 572.793 249.489C572.793 251.396 574.345 252.942 576.26 252.942Z" fill="white"/>
<path fill-rule="evenodd" clip-rule="evenodd" d="M603.439 227.555C602.723 225.529 601.405 225.161 599.903 225.161H598.332C598.193 225.161 598.054 225.161 597.916 225.184H565.744C563.71 225.184 562.046 226.841 562.046 228.867V251.262C562.046 253.287 563.71 254.944 565.744 254.944H588.994V254.921H589.064C590.635 254.921 591.537 254.392 591.999 253.126L593.732 248.338H604.318L606.005 253.126C606.49 254.392 607.53 254.921 608.963 254.921C610.65 254.921 612.037 253.655 612.037 252.044C612.037 251.331 611.644 250.18 611.39 249.535L603.439 227.555ZM576.26 253.724C573.925 253.724 572.007 251.837 572.007 249.489C572.007 247.165 573.902 245.254 576.26 245.254C578.594 245.254 580.512 247.142 580.512 249.489C580.489 251.837 578.594 253.724 576.26 253.724ZM585.25 249.812H581.344C581.344 248.983 580.998 244.38 576.144 244.38C571.291 244.38 571.083 249.857 571.083 249.857H570.043C570.043 249.857 567.015 248.638 566.391 248.315C565.767 247.97 565.698 246.267 565.698 246.267V244.771H566.229V243.252C566.483 240.03 574.411 237.13 574.411 237.13C574.411 237.13 581.067 230.593 582.107 229.672C584.349 227.716 593.432 228.153 593.432 228.153L585.25 249.812ZM595.142 243.804L599.025 232.273H599.094L602.815 243.804H595.142Z" fill="white"/>
<path fill-rule="evenodd" clip-rule="evenodd" d="M571.591 241.019C571.314 240.95 570.297 240.95 569.858 240.927C569.719 240.927 569.58 240.973 569.488 241.065C569.28 241.226 568.956 241.549 568.656 241.94C568.309 242.4 568.055 242.976 567.893 243.344C567.778 243.643 568.101 243.666 568.101 243.666L568.864 243.827C568.956 243.85 569.049 243.827 569.118 243.758L571.66 241.549C571.637 241.549 572.007 241.111 571.591 241.019Z" fill="white"/>
<path fill-rule="evenodd" clip-rule="evenodd" d="M588.763 230.087C588.416 230.087 585.204 230.432 584.58 230.547C583.956 230.662 583.031 231.376 583.031 231.376L579.079 235.726V238.051L587.446 236.439C587.446 236.439 588.532 236.232 588.694 234.851C588.856 233.47 589.202 230.524 589.202 230.524C589.202 230.524 589.11 230.087 588.763 230.087Z" fill="white"/>
</g>
<path d="M137.976 349.797C138.494 349.797 138.961 349.883 139.376 350.056C139.791 350.229 140.146 350.474 140.44 350.791C140.734 351.108 140.958 351.493 141.112 351.946C141.271 352.394 141.35 352.896 141.35 353.451C141.35 354.011 141.271 354.515 141.112 354.963C140.958 355.411 140.734 355.794 140.44 356.111C140.146 356.428 139.791 356.673 139.376 356.846C138.961 357.014 138.494 357.098 137.976 357.098C137.453 357.098 136.982 357.014 136.562 356.846C136.147 356.673 135.792 356.428 135.498 356.111C135.204 355.794 134.978 355.411 134.819 354.963C134.665 354.515 134.588 354.011 134.588 353.451C134.588 352.896 134.665 352.394 134.819 351.946C134.978 351.493 135.204 351.108 135.498 350.791C135.792 350.474 136.147 350.229 136.562 350.056C136.982 349.883 137.453 349.797 137.976 349.797ZM137.976 356.125C138.676 356.125 139.199 355.892 139.544 355.425C139.889 354.954 140.062 354.298 140.062 353.458C140.062 352.613 139.889 351.955 139.544 351.484C139.199 351.013 138.676 350.777 137.976 350.777C137.621 350.777 137.311 350.838 137.045 350.959C136.784 351.08 136.564 351.255 136.387 351.484C136.214 351.713 136.084 351.995 135.995 352.331C135.911 352.662 135.869 353.038 135.869 353.458C135.869 354.298 136.042 354.954 136.387 355.425C136.737 355.892 137.267 356.125 137.976 356.125Z" fill="black"/>
<line y1="-0.5" x2="14" y2="-0.5" transform="matrix(-1 -2.63065e-06 2.90526e-09 -1 166 576)" stroke="black"/>
<line x1="166" y1="126.5" x2="152" y2="126.5" stroke="black"/>
<line x1="152.5" y1="126" x2="152.5" y2="576" stroke="black"/>
<defs>
<clipPath id="clip0">
<rect width="175.882" height="30" fill="white" transform="translate(562 225)"/>
</clipPath>
</defs>
</svg>
