<svg width="1204" height="678" viewBox="0 0 1204 678" fill="none" xmlns="http://www.w3.org/2000/svg">
<rect width="1204" height="677.25" fill="white"/>
<rect x="176.5" y="126.5" width="799" height="449" stroke="#D8D8D8"/>
<path d="M649.418 476.21H177V127H595.744L690.923 419.564C699.833 447.562 678.972 476.21 649.418 476.21Z" fill="#41A5DD"/>
<rect x="176.5" y="575.5" width="449" height="49" transform="rotate(-90 176.5 575.5)" stroke="#D8D8D8"/>
<rect x="589.5" y="575.5" width="449" height="103" transform="rotate(-90 589.5 575.5)" stroke="#D8D8D8"/>
<rect x="926.5" y="575.5" width="449" height="49" transform="rotate(-90 926.5 575.5)" stroke="#D8D8D8"/>
<rect x="176.5" y="126.5" width="799" height="49" stroke="#D8D8D8"/>
<rect x="176.5" y="206.5" width="799" height="49" stroke="#D8D8D8"/>
<rect x="176.5" y="526.5" width="799" height="49" stroke="#D8D8D8"/>
<line x1="176.5" y1="84" x2="176.5" y2="70" stroke="black"/>
<line x1="225.5" y1="84" x2="225.5" y2="70" stroke="black"/>
<line x1="226" y1="70.5" x2="177" y2="70.5" stroke="black"/>
<path d="M182.046 56.076C182.382 56.076 182.685 56.0223 182.956 55.915C183.231 55.8077 183.465 55.6583 183.656 55.467C183.852 55.2757 184.001 55.0493 184.104 54.788C184.211 54.5267 184.265 54.242 184.265 53.934C184.265 53.6073 184.214 53.3133 184.111 53.052C184.008 52.786 183.861 52.562 183.67 52.38C183.483 52.1933 183.259 52.051 182.998 51.953C182.737 51.855 182.45 51.806 182.137 51.806C181.801 51.806 181.498 51.8643 181.227 51.981C180.956 52.093 180.725 52.247 180.534 52.443C180.347 52.6343 180.203 52.8583 180.1 53.115C180.002 53.367 179.953 53.6307 179.953 53.906C179.953 54.228 180 54.522 180.093 54.788C180.186 55.054 180.322 55.2827 180.499 55.474C180.681 55.6653 180.9 55.8147 181.157 55.922C181.418 56.0247 181.715 56.076 182.046 56.076ZM181.318 50.728C181.229 50.84 181.143 50.9497 181.059 51.057C180.98 51.1597 180.903 51.2623 180.828 51.365C181.066 51.2017 181.327 51.0757 181.612 50.987C181.897 50.8983 182.207 50.854 182.543 50.854C182.949 50.854 183.332 50.9217 183.691 51.057C184.05 51.1877 184.363 51.3813 184.629 51.638C184.9 51.89 185.114 52.2027 185.273 52.576C185.432 52.9447 185.511 53.367 185.511 53.843C185.511 54.305 185.427 54.7343 185.259 55.131C185.091 55.5277 184.855 55.873 184.552 56.167C184.253 56.461 183.892 56.692 183.467 56.86C183.047 57.028 182.583 57.112 182.074 57.112C181.57 57.112 181.113 57.0327 180.702 56.874C180.291 56.7107 179.941 56.482 179.652 56.188C179.367 55.8893 179.146 55.53 178.987 55.11C178.833 54.6853 178.756 54.2117 178.756 53.689C178.756 53.2503 178.852 52.7837 179.043 52.289C179.239 51.7897 179.549 51.2577 179.974 50.693L182.522 47.27C182.587 47.186 182.676 47.116 182.788 47.06C182.905 46.9993 183.038 46.969 183.187 46.969H184.293L181.318 50.728ZM191.475 49.391C191.475 49.783 191.414 50.1353 191.293 50.448C191.172 50.756 191.008 51.0173 190.803 51.232C190.602 51.442 190.367 51.603 190.096 51.715C189.83 51.827 189.548 51.883 189.249 51.883C188.936 51.883 188.645 51.827 188.374 51.715C188.103 51.603 187.868 51.442 187.667 51.232C187.471 51.0173 187.317 50.756 187.205 50.448C187.093 50.1353 187.037 49.783 187.037 49.391C187.037 48.9897 187.093 48.6327 187.205 48.32C187.317 48.0073 187.471 47.7437 187.667 47.529C187.868 47.3143 188.103 47.151 188.374 47.039C188.645 46.927 188.936 46.871 189.249 46.871C189.566 46.871 189.86 46.927 190.131 47.039C190.402 47.151 190.637 47.3143 190.838 47.529C191.039 47.7437 191.195 48.0073 191.307 48.32C191.419 48.6327 191.475 48.9897 191.475 49.391ZM190.509 49.391C190.509 49.083 190.476 48.8217 190.411 48.607C190.346 48.3923 190.255 48.2173 190.138 48.082C190.026 47.942 189.893 47.8417 189.739 47.781C189.585 47.7203 189.422 47.69 189.249 47.69C189.076 47.69 188.915 47.7203 188.766 47.781C188.617 47.8417 188.486 47.942 188.374 48.082C188.262 48.2173 188.173 48.3923 188.108 48.607C188.043 48.8217 188.01 49.083 188.01 49.391C188.01 49.6943 188.043 49.9533 188.108 50.168C188.173 50.378 188.262 50.5507 188.374 50.686C188.486 50.8167 188.617 50.9123 188.766 50.973C188.915 51.029 189.076 51.057 189.249 51.057C189.422 51.057 189.585 51.029 189.739 50.973C189.893 50.9123 190.026 50.8167 190.138 50.686C190.255 50.5507 190.346 50.378 190.411 50.168C190.476 49.9533 190.509 49.6943 190.509 49.391ZM195.024 47.179C195.071 47.123 195.124 47.074 195.185 47.032C195.25 46.99 195.337 46.969 195.444 46.969H196.347L189.011 56.797C188.969 56.8577 188.915 56.9067 188.85 56.944C188.785 56.9813 188.705 57 188.612 57H187.695L195.024 47.179ZM197.026 54.634C197.026 55.026 196.965 55.376 196.844 55.684C196.723 55.992 196.559 56.2533 196.354 56.468C196.153 56.678 195.918 56.839 195.647 56.951C195.381 57.063 195.099 57.119 194.8 57.119C194.483 57.119 194.189 57.063 193.918 56.951C193.652 56.839 193.419 56.678 193.218 56.468C193.022 56.2533 192.868 55.992 192.756 55.684C192.644 55.376 192.588 55.026 192.588 54.634C192.588 54.2327 192.644 53.8757 192.756 53.563C192.868 53.2457 193.022 52.9797 193.218 52.765C193.419 52.5503 193.652 52.387 193.918 52.275C194.189 52.163 194.483 52.107 194.8 52.107C195.113 52.107 195.404 52.163 195.675 52.275C195.95 52.387 196.186 52.5503 196.382 52.765C196.583 52.9797 196.739 53.2457 196.851 53.563C196.968 53.8757 197.026 54.2327 197.026 54.634ZM196.06 54.634C196.06 54.326 196.027 54.0647 195.962 53.85C195.897 53.6307 195.806 53.4533 195.689 53.318C195.577 53.1827 195.444 53.0847 195.29 53.024C195.136 52.9633 194.973 52.933 194.8 52.933C194.627 52.933 194.464 52.9633 194.31 53.024C194.161 53.0847 194.03 53.1827 193.918 53.318C193.806 53.4533 193.717 53.6307 193.652 53.85C193.591 54.0647 193.561 54.326 193.561 54.634C193.561 54.9373 193.591 55.194 193.652 55.404C193.717 55.614 193.806 55.7867 193.918 55.922C194.03 56.0527 194.161 56.1483 194.31 56.209C194.464 56.265 194.627 56.293 194.8 56.293C194.973 56.293 195.136 56.265 195.29 56.209C195.444 56.1483 195.577 56.0527 195.689 55.922C195.806 55.7867 195.897 55.614 195.962 55.404C196.027 55.194 196.06 54.9373 196.06 54.634ZM205.804 49.797C206.322 49.797 206.788 49.8833 207.204 50.056C207.619 50.2287 207.974 50.4737 208.268 50.791C208.562 51.1083 208.786 51.4933 208.94 51.946C209.098 52.394 209.178 52.8957 209.178 53.451C209.178 54.011 209.098 54.515 208.94 54.963C208.786 55.411 208.562 55.7937 208.268 56.111C207.974 56.4283 207.619 56.6733 207.204 56.846C206.788 57.014 206.322 57.098 205.804 57.098C205.281 57.098 204.81 57.014 204.39 56.846C203.974 56.6733 203.62 56.4283 203.326 56.111C203.032 55.7937 202.805 55.411 202.647 54.963C202.493 54.515 202.416 54.011 202.416 53.451C202.416 52.8957 202.493 52.394 202.647 51.946C202.805 51.4933 203.032 51.1083 203.326 50.791C203.62 50.4737 203.974 50.2287 204.39 50.056C204.81 49.8833 205.281 49.797 205.804 49.797ZM205.804 56.125C206.504 56.125 207.026 55.8917 207.372 55.425C207.717 54.9537 207.89 54.298 207.89 53.458C207.89 52.6133 207.717 51.9553 207.372 51.484C207.026 51.0127 206.504 50.777 205.804 50.777C205.449 50.777 205.139 50.8377 204.873 50.959C204.611 51.0803 204.392 51.2553 204.215 51.484C204.042 51.7127 203.911 51.995 203.823 52.331C203.739 52.6623 203.697 53.038 203.697 53.458C203.697 54.298 203.869 54.9537 204.215 55.425C204.565 55.8917 205.094 56.125 205.804 56.125ZM211.37 57V50.973L210.586 50.882C210.488 50.8587 210.406 50.8237 210.341 50.777C210.28 50.7257 210.25 50.6533 210.25 50.56V50.049H211.37V49.363C211.37 48.957 211.426 48.5977 211.538 48.285C211.654 47.9677 211.818 47.7017 212.028 47.487C212.242 47.2677 212.499 47.102 212.798 46.99C213.096 46.878 213.432 46.822 213.806 46.822C214.123 46.822 214.415 46.8687 214.681 46.962L214.653 47.585C214.643 47.697 214.58 47.7577 214.464 47.767C214.352 47.7763 214.2 47.781 214.009 47.781C213.794 47.781 213.598 47.809 213.421 47.865C213.248 47.921 213.099 48.012 212.973 48.138C212.847 48.264 212.749 48.4297 212.679 48.635C212.613 48.8403 212.581 49.0947 212.581 49.398V50.049H214.625V50.952H212.623V57H211.37ZM220.921 51.33C221.145 50.8447 221.421 50.4667 221.747 50.196C222.074 49.9207 222.473 49.783 222.944 49.783C223.094 49.783 223.236 49.7993 223.371 49.832C223.511 49.8647 223.635 49.916 223.742 49.986L223.651 50.917C223.623 51.0337 223.553 51.092 223.441 51.092C223.376 51.092 223.28 51.078 223.154 51.05C223.028 51.022 222.886 51.008 222.727 51.008C222.503 51.008 222.303 51.0407 222.125 51.106C221.953 51.1713 221.796 51.2693 221.656 51.4C221.521 51.526 221.397 51.6847 221.285 51.876C221.178 52.0627 221.08 52.2773 220.991 52.52V57H219.738V49.909H220.452C220.588 49.909 220.681 49.9347 220.732 49.986C220.784 50.0373 220.819 50.126 220.837 50.252L220.921 51.33Z" fill="black"/>
<path d="M621.126 56.048V57H615.75V56.048H617.899V49.209C617.899 49.0037 617.906 48.796 617.92 48.586L616.135 50.119C616.074 50.1703 616.014 50.203 615.953 50.217C615.892 50.2263 615.836 50.2263 615.785 50.217C615.734 50.2077 615.685 50.189 615.638 50.161C615.596 50.133 615.563 50.1027 615.54 50.07L615.148 49.531L618.137 46.948H619.152V56.048H621.126ZM623.331 49.685C623.396 49.2277 623.522 48.824 623.709 48.474C623.896 48.1193 624.131 47.823 624.416 47.585C624.705 47.347 625.034 47.1673 625.403 47.046C625.776 46.92 626.178 46.857 626.607 46.857C627.032 46.857 627.424 46.9177 627.783 47.039C628.142 47.1603 628.45 47.333 628.707 47.557C628.968 47.781 629.171 48.0517 629.316 48.369C629.461 48.6863 629.533 49.0387 629.533 49.426C629.533 49.7433 629.491 50.028 629.407 50.28C629.328 50.5273 629.211 50.7443 629.057 50.931C628.908 51.1177 628.726 51.2763 628.511 51.407C628.296 51.5377 628.056 51.645 627.79 51.729C628.443 51.897 628.933 52.1863 629.26 52.597C629.591 53.003 629.757 53.5117 629.757 54.123C629.757 54.585 629.668 55.0003 629.491 55.369C629.318 55.7377 629.08 56.0527 628.777 56.314C628.474 56.5707 628.119 56.769 627.713 56.909C627.312 57.0443 626.88 57.112 626.418 57.112C625.886 57.112 625.431 57.0467 625.053 56.916C624.675 56.7807 624.355 56.5963 624.094 56.363C623.833 56.1297 623.618 55.8543 623.45 55.537C623.282 55.215 623.14 54.8673 623.023 54.494L623.562 54.27C623.702 54.2093 623.837 54.193 623.968 54.221C624.103 54.249 624.201 54.326 624.262 54.452C624.323 54.5827 624.397 54.739 624.486 54.921C624.579 55.103 624.705 55.278 624.864 55.446C625.023 55.614 625.223 55.7563 625.466 55.873C625.713 55.9897 626.026 56.048 626.404 56.048C626.754 56.048 627.06 55.992 627.321 55.88C627.587 55.7633 627.806 55.614 627.979 55.432C628.156 55.25 628.289 55.047 628.378 54.823C628.467 54.599 628.511 54.3773 628.511 54.158C628.511 53.8873 628.476 53.64 628.406 53.416C628.336 53.192 628.205 52.9983 628.014 52.835C627.823 52.6717 627.559 52.5433 627.223 52.45C626.892 52.3567 626.465 52.31 625.942 52.31V51.407C626.371 51.4023 626.735 51.3557 627.034 51.267C627.337 51.1783 627.582 51.057 627.769 50.903C627.96 50.749 628.098 50.5647 628.182 50.35C628.271 50.1353 628.315 49.8973 628.315 49.636C628.315 49.3467 628.268 49.0947 628.175 48.88C628.086 48.6653 627.963 48.488 627.804 48.348C627.645 48.208 627.456 48.103 627.237 48.033C627.022 47.963 626.789 47.928 626.537 47.928C626.285 47.928 626.049 47.9653 625.83 48.04C625.615 48.1147 625.424 48.2197 625.256 48.355C625.093 48.4857 624.955 48.642 624.843 48.824C624.731 49.006 624.652 49.2067 624.605 49.426C624.544 49.5893 624.467 49.699 624.374 49.755C624.285 49.8063 624.155 49.8203 623.982 49.797L623.331 49.685ZM635.896 49.391C635.896 49.783 635.836 50.1353 635.714 50.448C635.593 50.756 635.43 51.0173 635.224 51.232C635.024 51.442 634.788 51.603 634.517 51.715C634.251 51.827 633.969 51.883 633.67 51.883C633.358 51.883 633.066 51.827 632.795 51.715C632.525 51.603 632.289 51.442 632.088 51.232C631.892 51.0173 631.738 50.756 631.626 50.448C631.514 50.1353 631.458 49.783 631.458 49.391C631.458 48.9897 631.514 48.6327 631.626 48.32C631.738 48.0073 631.892 47.7437 632.088 47.529C632.289 47.3143 632.525 47.151 632.795 47.039C633.066 46.927 633.358 46.871 633.67 46.871C633.988 46.871 634.282 46.927 634.552 47.039C634.823 47.151 635.059 47.3143 635.259 47.529C635.46 47.7437 635.616 48.0073 635.728 48.32C635.84 48.6327 635.896 48.9897 635.896 49.391ZM634.93 49.391C634.93 49.083 634.898 48.8217 634.832 48.607C634.767 48.3923 634.676 48.2173 634.559 48.082C634.447 47.942 634.314 47.8417 634.16 47.781C634.006 47.7203 633.843 47.69 633.67 47.69C633.498 47.69 633.337 47.7203 633.187 47.781C633.038 47.8417 632.907 47.942 632.795 48.082C632.683 48.2173 632.595 48.3923 632.529 48.607C632.464 48.8217 632.431 49.083 632.431 49.391C632.431 49.6943 632.464 49.9533 632.529 50.168C632.595 50.378 632.683 50.5507 632.795 50.686C632.907 50.8167 633.038 50.9123 633.187 50.973C633.337 51.029 633.498 51.057 633.67 51.057C633.843 51.057 634.006 51.029 634.16 50.973C634.314 50.9123 634.447 50.8167 634.559 50.686C634.676 50.5507 634.767 50.378 634.832 50.168C634.898 49.9533 634.93 49.6943 634.93 49.391ZM639.445 47.179C639.492 47.123 639.546 47.074 639.606 47.032C639.672 46.99 639.758 46.969 639.865 46.969H640.768L633.432 56.797C633.39 56.8577 633.337 56.9067 633.271 56.944C633.206 56.9813 633.127 57 633.033 57H632.116L639.445 47.179ZM641.447 54.634C641.447 55.026 641.387 55.376 641.265 55.684C641.144 55.992 640.981 56.2533 640.775 56.468C640.575 56.678 640.339 56.839 640.068 56.951C639.802 57.063 639.52 57.119 639.221 57.119C638.904 57.119 638.61 57.063 638.339 56.951C638.073 56.839 637.84 56.678 637.639 56.468C637.443 56.2533 637.289 55.992 637.177 55.684C637.065 55.376 637.009 55.026 637.009 54.634C637.009 54.2327 637.065 53.8757 637.177 53.563C637.289 53.2457 637.443 52.9797 637.639 52.765C637.84 52.5503 638.073 52.387 638.339 52.275C638.61 52.163 638.904 52.107 639.221 52.107C639.534 52.107 639.826 52.163 640.096 52.275C640.372 52.387 640.607 52.5503 640.803 52.765C641.004 52.9797 641.16 53.2457 641.272 53.563C641.389 53.8757 641.447 54.2327 641.447 54.634ZM640.481 54.634C640.481 54.326 640.449 54.0647 640.383 53.85C640.318 53.6307 640.227 53.4533 640.11 53.318C639.998 53.1827 639.865 53.0847 639.711 53.024C639.557 52.9633 639.394 52.933 639.221 52.933C639.049 52.933 638.885 52.9633 638.731 53.024C638.582 53.0847 638.451 53.1827 638.339 53.318C638.227 53.4533 638.139 53.6307 638.073 53.85C638.013 54.0647 637.982 54.326 637.982 54.634C637.982 54.9373 638.013 55.194 638.073 55.404C638.139 55.614 638.227 55.7867 638.339 55.922C638.451 56.0527 638.582 56.1483 638.731 56.209C638.885 56.265 639.049 56.293 639.221 56.293C639.394 56.293 639.557 56.265 639.711 56.209C639.865 56.1483 639.998 56.0527 640.11 55.922C640.227 55.7867 640.318 55.614 640.383 55.404C640.449 55.194 640.481 54.9373 640.481 54.634ZM650.225 49.797C650.743 49.797 651.209 49.8833 651.625 50.056C652.04 50.2287 652.395 50.4737 652.689 50.791C652.983 51.1083 653.207 51.4933 653.361 51.946C653.519 52.394 653.599 52.8957 653.599 53.451C653.599 54.011 653.519 54.515 653.361 54.963C653.207 55.411 652.983 55.7937 652.689 56.111C652.395 56.4283 652.04 56.6733 651.625 56.846C651.209 57.014 650.743 57.098 650.225 57.098C649.702 57.098 649.231 57.014 648.811 56.846C648.395 56.6733 648.041 56.4283 647.747 56.111C647.453 55.7937 647.226 55.411 647.068 54.963C646.914 54.515 646.837 54.011 646.837 53.451C646.837 52.8957 646.914 52.394 647.068 51.946C647.226 51.4933 647.453 51.1083 647.747 50.791C648.041 50.4737 648.395 50.2287 648.811 50.056C649.231 49.8833 649.702 49.797 650.225 49.797ZM650.225 56.125C650.925 56.125 651.447 55.8917 651.793 55.425C652.138 54.9537 652.311 54.298 652.311 53.458C652.311 52.6133 652.138 51.9553 651.793 51.484C651.447 51.0127 650.925 50.777 650.225 50.777C649.87 50.777 649.56 50.8377 649.294 50.959C649.032 51.0803 648.813 51.2553 648.636 51.484C648.463 51.7127 648.332 51.995 648.244 52.331C648.16 52.6623 648.118 53.038 648.118 53.458C648.118 54.298 648.29 54.9537 648.636 55.425C648.986 55.8917 649.515 56.125 650.225 56.125ZM655.791 57V50.973L655.007 50.882C654.909 50.8587 654.827 50.8237 654.762 50.777C654.701 50.7257 654.671 50.6533 654.671 50.56V50.049H655.791V49.363C655.791 48.957 655.847 48.5977 655.959 48.285C656.075 47.9677 656.239 47.7017 656.449 47.487C656.663 47.2677 656.92 47.102 657.219 46.99C657.517 46.878 657.853 46.822 658.227 46.822C658.544 46.822 658.836 46.8687 659.102 46.962L659.074 47.585C659.064 47.697 659.001 47.7577 658.885 47.767C658.773 47.7763 658.621 47.781 658.43 47.781C658.215 47.781 658.019 47.809 657.842 47.865C657.669 47.921 657.52 48.012 657.394 48.138C657.268 48.264 657.17 48.4297 657.1 48.635C657.034 48.8403 657.002 49.0947 657.002 49.398V50.049H659.046V50.952H657.044V57H655.791ZM665.342 51.33C665.566 50.8447 665.842 50.4667 666.168 50.196C666.495 49.9207 666.894 49.783 667.365 49.783C667.515 49.783 667.657 49.7993 667.792 49.832C667.932 49.8647 668.056 49.916 668.163 49.986L668.072 50.917C668.044 51.0337 667.974 51.092 667.862 51.092C667.797 51.092 667.701 51.078 667.575 51.05C667.449 51.022 667.307 51.008 667.148 51.008C666.924 51.008 666.724 51.0407 666.546 51.106C666.374 51.1713 666.217 51.2693 666.077 51.4C665.942 51.526 665.818 51.6847 665.706 51.876C665.599 52.0627 665.501 52.2773 665.412 52.52V57H664.159V49.909H664.873C665.009 49.909 665.102 49.9347 665.153 49.986C665.205 50.0373 665.24 50.126 665.258 50.252L665.342 51.33Z" fill="black"/>
<path d="M411.046 88.076C411.382 88.076 411.685 88.0223 411.956 87.915C412.231 87.8077 412.465 87.6583 412.656 87.467C412.852 87.2757 413.001 87.0493 413.104 86.788C413.211 86.5267 413.265 86.242 413.265 85.934C413.265 85.6073 413.214 85.3133 413.111 85.052C413.008 84.786 412.861 84.562 412.67 84.38C412.483 84.1933 412.259 84.051 411.998 83.953C411.737 83.855 411.45 83.806 411.137 83.806C410.801 83.806 410.498 83.8643 410.227 83.981C409.956 84.093 409.725 84.247 409.534 84.443C409.347 84.6343 409.203 84.8583 409.1 85.115C409.002 85.367 408.953 85.6307 408.953 85.906C408.953 86.228 409 86.522 409.093 86.788C409.186 87.054 409.322 87.2827 409.499 87.474C409.681 87.6653 409.9 87.8147 410.157 87.922C410.418 88.0247 410.715 88.076 411.046 88.076ZM410.318 82.728C410.229 82.84 410.143 82.9497 410.059 83.057C409.98 83.1597 409.903 83.2623 409.828 83.365C410.066 83.2017 410.327 83.0757 410.612 82.987C410.897 82.8983 411.207 82.854 411.543 82.854C411.949 82.854 412.332 82.9217 412.691 83.057C413.05 83.1877 413.363 83.3813 413.629 83.638C413.9 83.89 414.114 84.2027 414.273 84.576C414.432 84.9447 414.511 85.367 414.511 85.843C414.511 86.305 414.427 86.7343 414.259 87.131C414.091 87.5277 413.855 87.873 413.552 88.167C413.253 88.461 412.892 88.692 412.467 88.86C412.047 89.028 411.583 89.112 411.074 89.112C410.57 89.112 410.113 89.0327 409.702 88.874C409.291 88.7107 408.941 88.482 408.652 88.188C408.367 87.8893 408.146 87.53 407.987 87.11C407.833 86.6853 407.756 86.2117 407.756 85.689C407.756 85.2503 407.852 84.7837 408.043 84.289C408.239 83.7897 408.549 83.2577 408.974 82.693L411.522 79.27C411.587 79.186 411.676 79.116 411.788 79.06C411.905 78.9993 412.038 78.969 412.187 78.969H413.293L410.318 82.728ZM423.121 83.988C423.121 84.8653 423.025 85.626 422.834 86.27C422.647 86.9093 422.391 87.439 422.064 87.859C421.737 88.279 421.35 88.5917 420.902 88.797C420.459 89.0023 419.983 89.105 419.474 89.105C418.961 89.105 418.482 89.0023 418.039 88.797C417.6 88.5917 417.218 88.279 416.891 87.859C416.564 87.439 416.308 86.9093 416.121 86.27C415.934 85.626 415.841 84.8653 415.841 83.988C415.841 83.1107 415.934 82.35 416.121 81.706C416.308 81.062 416.564 80.53 416.891 80.11C417.218 79.6853 417.6 79.3703 418.039 79.165C418.482 78.9597 418.961 78.857 419.474 78.857C419.983 78.857 420.459 78.9597 420.902 79.165C421.35 79.3703 421.737 79.6853 422.064 80.11C422.391 80.53 422.647 81.062 422.834 81.706C423.025 82.35 423.121 83.1107 423.121 83.988ZM421.826 83.988C421.826 83.2227 421.761 82.581 421.63 82.063C421.504 81.5403 421.331 81.1203 421.112 80.803C420.897 80.4857 420.648 80.2593 420.363 80.124C420.078 79.984 419.782 79.914 419.474 79.914C419.166 79.914 418.87 79.984 418.585 80.124C418.3 80.2593 418.051 80.4857 417.836 80.803C417.621 81.1203 417.449 81.5403 417.318 82.063C417.192 82.581 417.129 83.2227 417.129 83.988C417.129 84.7533 417.192 85.395 417.318 85.913C417.449 86.431 417.621 86.8487 417.836 87.166C418.051 87.4833 418.3 87.712 418.585 87.852C418.87 87.9873 419.166 88.055 419.474 88.055C419.782 88.055 420.078 87.9873 420.363 87.852C420.648 87.712 420.897 87.4833 421.112 87.166C421.331 86.8487 421.504 86.431 421.63 85.913C421.761 85.395 421.826 84.7533 421.826 83.988ZM428.896 81.391C428.896 81.783 428.836 82.1353 428.714 82.448C428.593 82.756 428.43 83.0173 428.224 83.232C428.024 83.442 427.788 83.603 427.517 83.715C427.251 83.827 426.969 83.883 426.67 83.883C426.358 83.883 426.066 83.827 425.795 83.715C425.525 83.603 425.289 83.442 425.088 83.232C424.892 83.0173 424.738 82.756 424.626 82.448C424.514 82.1353 424.458 81.783 424.458 81.391C424.458 80.9897 424.514 80.6327 424.626 80.32C424.738 80.0073 424.892 79.7437 425.088 79.529C425.289 79.3143 425.525 79.151 425.795 79.039C426.066 78.927 426.358 78.871 426.67 78.871C426.988 78.871 427.282 78.927 427.552 79.039C427.823 79.151 428.059 79.3143 428.259 79.529C428.46 79.7437 428.616 80.0073 428.728 80.32C428.84 80.6327 428.896 80.9897 428.896 81.391ZM427.93 81.391C427.93 81.083 427.898 80.8217 427.832 80.607C427.767 80.3923 427.676 80.2173 427.559 80.082C427.447 79.942 427.314 79.8417 427.16 79.781C427.006 79.7203 426.843 79.69 426.67 79.69C426.498 79.69 426.337 79.7203 426.187 79.781C426.038 79.8417 425.907 79.942 425.795 80.082C425.683 80.2173 425.595 80.3923 425.529 80.607C425.464 80.8217 425.431 81.083 425.431 81.391C425.431 81.6943 425.464 81.9533 425.529 82.168C425.595 82.378 425.683 82.5507 425.795 82.686C425.907 82.8167 426.038 82.9123 426.187 82.973C426.337 83.029 426.498 83.057 426.67 83.057C426.843 83.057 427.006 83.029 427.16 82.973C427.314 82.9123 427.447 82.8167 427.559 82.686C427.676 82.5507 427.767 82.378 427.832 82.168C427.898 81.9533 427.93 81.6943 427.93 81.391ZM432.445 79.179C432.492 79.123 432.546 79.074 432.606 79.032C432.672 78.99 432.758 78.969 432.865 78.969H433.768L426.432 88.797C426.39 88.8577 426.337 88.9067 426.271 88.944C426.206 88.9813 426.127 89 426.033 89H425.116L432.445 79.179ZM434.447 86.634C434.447 87.026 434.387 87.376 434.265 87.684C434.144 87.992 433.981 88.2533 433.775 88.468C433.575 88.678 433.339 88.839 433.068 88.951C432.802 89.063 432.52 89.119 432.221 89.119C431.904 89.119 431.61 89.063 431.339 88.951C431.073 88.839 430.84 88.678 430.639 88.468C430.443 88.2533 430.289 87.992 430.177 87.684C430.065 87.376 430.009 87.026 430.009 86.634C430.009 86.2327 430.065 85.8757 430.177 85.563C430.289 85.2457 430.443 84.9797 430.639 84.765C430.84 84.5503 431.073 84.387 431.339 84.275C431.61 84.163 431.904 84.107 432.221 84.107C432.534 84.107 432.826 84.163 433.096 84.275C433.372 84.387 433.607 84.5503 433.803 84.765C434.004 84.9797 434.16 85.2457 434.272 85.563C434.389 85.8757 434.447 86.2327 434.447 86.634ZM433.481 86.634C433.481 86.326 433.449 86.0647 433.383 85.85C433.318 85.6307 433.227 85.4533 433.11 85.318C432.998 85.1827 432.865 85.0847 432.711 85.024C432.557 84.9633 432.394 84.933 432.221 84.933C432.049 84.933 431.885 84.9633 431.731 85.024C431.582 85.0847 431.451 85.1827 431.339 85.318C431.227 85.4533 431.139 85.6307 431.073 85.85C431.013 86.0647 430.982 86.326 430.982 86.634C430.982 86.9373 431.013 87.194 431.073 87.404C431.139 87.614 431.227 87.7867 431.339 87.922C431.451 88.0527 431.582 88.1483 431.731 88.209C431.885 88.265 432.049 88.293 432.221 88.293C432.394 88.293 432.557 88.265 432.711 88.209C432.865 88.1483 432.998 88.0527 433.11 87.922C433.227 87.7867 433.318 87.614 433.383 87.404C433.449 87.194 433.481 86.9373 433.481 86.634ZM443.225 81.797C443.743 81.797 444.209 81.8833 444.625 82.056C445.04 82.2287 445.395 82.4737 445.689 82.791C445.983 83.1083 446.207 83.4933 446.361 83.946C446.519 84.394 446.599 84.8957 446.599 85.451C446.599 86.011 446.519 86.515 446.361 86.963C446.207 87.411 445.983 87.7937 445.689 88.111C445.395 88.4283 445.04 88.6733 444.625 88.846C444.209 89.014 443.743 89.098 443.225 89.098C442.702 89.098 442.231 89.014 441.811 88.846C441.395 88.6733 441.041 88.4283 440.747 88.111C440.453 87.7937 440.226 87.411 440.068 86.963C439.914 86.515 439.837 86.011 439.837 85.451C439.837 84.8957 439.914 84.394 440.068 83.946C440.226 83.4933 440.453 83.1083 440.747 82.791C441.041 82.4737 441.395 82.2287 441.811 82.056C442.231 81.8833 442.702 81.797 443.225 81.797ZM443.225 88.125C443.925 88.125 444.447 87.8917 444.793 87.425C445.138 86.9537 445.311 86.298 445.311 85.458C445.311 84.6133 445.138 83.9553 444.793 83.484C444.447 83.0127 443.925 82.777 443.225 82.777C442.87 82.777 442.56 82.8377 442.294 82.959C442.032 83.0803 441.813 83.2553 441.636 83.484C441.463 83.7127 441.332 83.995 441.244 84.331C441.16 84.6623 441.118 85.038 441.118 85.458C441.118 86.298 441.29 86.9537 441.636 87.425C441.986 87.8917 442.515 88.125 443.225 88.125ZM448.791 89V82.973L448.007 82.882C447.909 82.8587 447.827 82.8237 447.762 82.777C447.701 82.7257 447.671 82.6533 447.671 82.56V82.049H448.791V81.363C448.791 80.957 448.847 80.5977 448.959 80.285C449.075 79.9677 449.239 79.7017 449.449 79.487C449.663 79.2677 449.92 79.102 450.219 78.99C450.517 78.878 450.853 78.822 451.227 78.822C451.544 78.822 451.836 78.8687 452.102 78.962L452.074 79.585C452.064 79.697 452.001 79.7577 451.885 79.767C451.773 79.7763 451.621 79.781 451.43 79.781C451.215 79.781 451.019 79.809 450.842 79.865C450.669 79.921 450.52 80.012 450.394 80.138C450.268 80.264 450.17 80.4297 450.1 80.635C450.034 80.8403 450.002 81.0947 450.002 81.398V82.049H452.046V82.952H450.044V89H448.791ZM458.342 83.33C458.566 82.8447 458.842 82.4667 459.168 82.196C459.495 81.9207 459.894 81.783 460.365 81.783C460.515 81.783 460.657 81.7993 460.792 81.832C460.932 81.8647 461.056 81.916 461.163 81.986L461.072 82.917C461.044 83.0337 460.974 83.092 460.862 83.092C460.797 83.092 460.701 83.078 460.575 83.05C460.449 83.022 460.307 83.008 460.148 83.008C459.924 83.008 459.724 83.0407 459.546 83.106C459.374 83.1713 459.217 83.2693 459.077 83.4C458.942 83.526 458.818 83.6847 458.706 83.876C458.599 84.0627 458.501 84.2773 458.412 84.52V89H457.159V81.909H457.873C458.009 81.909 458.102 81.9347 458.153 81.986C458.205 82.0373 458.24 82.126 458.258 82.252L458.342 83.33Z" fill="black"/>
<line x1="986" y1="126.5" x2="1000" y2="126.5" stroke="black"/>
<line x1="986" y1="175.5" x2="1000" y2="175.5" stroke="black"/>
<line x1="999.5" y1="176" x2="999.5" y2="127" stroke="black"/>
<line x1="986" y1="175.5" x2="1000" y2="175.5" stroke="black"/>
<line x1="986" y1="205.5" x2="1000" y2="205.5" stroke="black"/>
<line x1="999.5" y1="206" x2="999.5" y2="176" stroke="black"/>
<path d="M1014.05 156.076C1014.38 156.076 1014.69 156.022 1014.96 155.915C1015.23 155.808 1015.46 155.658 1015.66 155.467C1015.85 155.276 1016 155.049 1016.1 154.788C1016.21 154.527 1016.27 154.242 1016.27 153.934C1016.27 153.607 1016.21 153.313 1016.11 153.052C1016.01 152.786 1015.86 152.562 1015.67 152.38C1015.48 152.193 1015.26 152.051 1015 151.953C1014.74 151.855 1014.45 151.806 1014.14 151.806C1013.8 151.806 1013.5 151.864 1013.23 151.981C1012.96 152.093 1012.73 152.247 1012.53 152.443C1012.35 152.634 1012.2 152.858 1012.1 153.115C1012 153.367 1011.95 153.631 1011.95 153.906C1011.95 154.228 1012 154.522 1012.09 154.788C1012.19 155.054 1012.32 155.283 1012.5 155.474C1012.68 155.665 1012.9 155.815 1013.16 155.922C1013.42 156.025 1013.71 156.076 1014.05 156.076ZM1013.32 150.728C1013.23 150.84 1013.14 150.95 1013.06 151.057C1012.98 151.16 1012.9 151.262 1012.83 151.365C1013.07 151.202 1013.33 151.076 1013.61 150.987C1013.9 150.898 1014.21 150.854 1014.54 150.854C1014.95 150.854 1015.33 150.922 1015.69 151.057C1016.05 151.188 1016.36 151.381 1016.63 151.638C1016.9 151.89 1017.11 152.203 1017.27 152.576C1017.43 152.945 1017.51 153.367 1017.51 153.843C1017.51 154.305 1017.43 154.734 1017.26 155.131C1017.09 155.528 1016.86 155.873 1016.55 156.167C1016.25 156.461 1015.89 156.692 1015.47 156.86C1015.05 157.028 1014.58 157.112 1014.07 157.112C1013.57 157.112 1013.11 157.033 1012.7 156.874C1012.29 156.711 1011.94 156.482 1011.65 156.188C1011.37 155.889 1011.15 155.53 1010.99 155.11C1010.83 154.685 1010.76 154.212 1010.76 153.689C1010.76 153.25 1010.85 152.784 1011.04 152.289C1011.24 151.79 1011.55 151.258 1011.97 150.693L1014.52 147.27C1014.59 147.186 1014.68 147.116 1014.79 147.06C1014.9 146.999 1015.04 146.969 1015.19 146.969H1016.29L1013.32 150.728ZM1023.48 149.391C1023.48 149.783 1023.41 150.135 1023.29 150.448C1023.17 150.756 1023.01 151.017 1022.8 151.232C1022.6 151.442 1022.37 151.603 1022.1 151.715C1021.83 151.827 1021.55 151.883 1021.25 151.883C1020.94 151.883 1020.64 151.827 1020.37 151.715C1020.1 151.603 1019.87 151.442 1019.67 151.232C1019.47 151.017 1019.32 150.756 1019.21 150.448C1019.09 150.135 1019.04 149.783 1019.04 149.391C1019.04 148.99 1019.09 148.633 1019.21 148.32C1019.32 148.007 1019.47 147.744 1019.67 147.529C1019.87 147.314 1020.1 147.151 1020.37 147.039C1020.64 146.927 1020.94 146.871 1021.25 146.871C1021.57 146.871 1021.86 146.927 1022.13 147.039C1022.4 147.151 1022.64 147.314 1022.84 147.529C1023.04 147.744 1023.2 148.007 1023.31 148.32C1023.42 148.633 1023.48 148.99 1023.48 149.391ZM1022.51 149.391C1022.51 149.083 1022.48 148.822 1022.41 148.607C1022.35 148.392 1022.25 148.217 1022.14 148.082C1022.03 147.942 1021.89 147.842 1021.74 147.781C1021.59 147.72 1021.42 147.69 1021.25 147.69C1021.08 147.69 1020.92 147.72 1020.77 147.781C1020.62 147.842 1020.49 147.942 1020.37 148.082C1020.26 148.217 1020.17 148.392 1020.11 148.607C1020.04 148.822 1020.01 149.083 1020.01 149.391C1020.01 149.694 1020.04 149.953 1020.11 150.168C1020.17 150.378 1020.26 150.551 1020.37 150.686C1020.49 150.817 1020.62 150.912 1020.77 150.973C1020.92 151.029 1021.08 151.057 1021.25 151.057C1021.42 151.057 1021.59 151.029 1021.74 150.973C1021.89 150.912 1022.03 150.817 1022.14 150.686C1022.25 150.551 1022.35 150.378 1022.41 150.168C1022.48 149.953 1022.51 149.694 1022.51 149.391ZM1027.02 147.179C1027.07 147.123 1027.12 147.074 1027.19 147.032C1027.25 146.99 1027.34 146.969 1027.44 146.969H1028.35L1021.01 156.797C1020.97 156.858 1020.92 156.907 1020.85 156.944C1020.78 156.981 1020.71 157 1020.61 157H1019.7L1027.02 147.179ZM1029.03 154.634C1029.03 155.026 1028.97 155.376 1028.84 155.684C1028.72 155.992 1028.56 156.253 1028.35 156.468C1028.15 156.678 1027.92 156.839 1027.65 156.951C1027.38 157.063 1027.1 157.119 1026.8 157.119C1026.48 157.119 1026.19 157.063 1025.92 156.951C1025.65 156.839 1025.42 156.678 1025.22 156.468C1025.02 156.253 1024.87 155.992 1024.76 155.684C1024.64 155.376 1024.59 155.026 1024.59 154.634C1024.59 154.233 1024.64 153.876 1024.76 153.563C1024.87 153.246 1025.02 152.98 1025.22 152.765C1025.42 152.55 1025.65 152.387 1025.92 152.275C1026.19 152.163 1026.48 152.107 1026.8 152.107C1027.11 152.107 1027.4 152.163 1027.68 152.275C1027.95 152.387 1028.19 152.55 1028.38 152.765C1028.58 152.98 1028.74 153.246 1028.85 153.563C1028.97 153.876 1029.03 154.233 1029.03 154.634ZM1028.06 154.634C1028.06 154.326 1028.03 154.065 1027.96 153.85C1027.9 153.631 1027.81 153.453 1027.69 153.318C1027.58 153.183 1027.44 153.085 1027.29 153.024C1027.14 152.963 1026.97 152.933 1026.8 152.933C1026.63 152.933 1026.46 152.963 1026.31 153.024C1026.16 153.085 1026.03 153.183 1025.92 153.318C1025.81 153.453 1025.72 153.631 1025.65 153.85C1025.59 154.065 1025.56 154.326 1025.56 154.634C1025.56 154.937 1025.59 155.194 1025.65 155.404C1025.72 155.614 1025.81 155.787 1025.92 155.922C1026.03 156.053 1026.16 156.148 1026.31 156.209C1026.46 156.265 1026.63 156.293 1026.8 156.293C1026.97 156.293 1027.14 156.265 1027.29 156.209C1027.44 156.148 1027.58 156.053 1027.69 155.922C1027.81 155.787 1027.9 155.614 1027.96 155.404C1028.03 155.194 1028.06 154.937 1028.06 154.634ZM1037.8 149.797C1038.32 149.797 1038.79 149.883 1039.2 150.056C1039.62 150.229 1039.97 150.474 1040.27 150.791C1040.56 151.108 1040.79 151.493 1040.94 151.946C1041.1 152.394 1041.18 152.896 1041.18 153.451C1041.18 154.011 1041.1 154.515 1040.94 154.963C1040.79 155.411 1040.56 155.794 1040.27 156.111C1039.97 156.428 1039.62 156.673 1039.2 156.846C1038.79 157.014 1038.32 157.098 1037.8 157.098C1037.28 157.098 1036.81 157.014 1036.39 156.846C1035.97 156.673 1035.62 156.428 1035.33 156.111C1035.03 155.794 1034.81 155.411 1034.65 154.963C1034.49 154.515 1034.42 154.011 1034.42 153.451C1034.42 152.896 1034.49 152.394 1034.65 151.946C1034.81 151.493 1035.03 151.108 1035.33 150.791C1035.62 150.474 1035.97 150.229 1036.39 150.056C1036.81 149.883 1037.28 149.797 1037.8 149.797ZM1037.8 156.125C1038.5 156.125 1039.03 155.892 1039.37 155.425C1039.72 154.954 1039.89 154.298 1039.89 153.458C1039.89 152.613 1039.72 151.955 1039.37 151.484C1039.03 151.013 1038.5 150.777 1037.8 150.777C1037.45 150.777 1037.14 150.838 1036.87 150.959C1036.61 151.08 1036.39 151.255 1036.21 151.484C1036.04 151.713 1035.91 151.995 1035.82 152.331C1035.74 152.662 1035.7 153.038 1035.7 153.458C1035.7 154.298 1035.87 154.954 1036.21 155.425C1036.56 155.892 1037.09 156.125 1037.8 156.125ZM1043.37 157V150.973L1042.59 150.882C1042.49 150.859 1042.41 150.824 1042.34 150.777C1042.28 150.726 1042.25 150.653 1042.25 150.56V150.049H1043.37V149.363C1043.37 148.957 1043.43 148.598 1043.54 148.285C1043.65 147.968 1043.82 147.702 1044.03 147.487C1044.24 147.268 1044.5 147.102 1044.8 146.99C1045.1 146.878 1045.43 146.822 1045.81 146.822C1046.12 146.822 1046.41 146.869 1046.68 146.962L1046.65 147.585C1046.64 147.697 1046.58 147.758 1046.46 147.767C1046.35 147.776 1046.2 147.781 1046.01 147.781C1045.79 147.781 1045.6 147.809 1045.42 147.865C1045.25 147.921 1045.1 148.012 1044.97 148.138C1044.85 148.264 1044.75 148.43 1044.68 148.635C1044.61 148.84 1044.58 149.095 1044.58 149.398V150.049H1046.62V150.952H1044.62V157H1043.37ZM1052.92 151.33C1053.15 150.845 1053.42 150.467 1053.75 150.196C1054.07 149.921 1054.47 149.783 1054.94 149.783C1055.09 149.783 1055.24 149.799 1055.37 149.832C1055.51 149.865 1055.63 149.916 1055.74 149.986L1055.65 150.917C1055.62 151.034 1055.55 151.092 1055.44 151.092C1055.38 151.092 1055.28 151.078 1055.15 151.05C1055.03 151.022 1054.89 151.008 1054.73 151.008C1054.5 151.008 1054.3 151.041 1054.13 151.106C1053.95 151.171 1053.8 151.269 1053.66 151.4C1053.52 151.526 1053.4 151.685 1053.29 151.876C1053.18 152.063 1053.08 152.277 1052.99 152.52V157H1051.74V149.909H1052.45C1052.59 149.909 1052.68 149.935 1052.73 149.986C1052.78 150.037 1052.82 150.126 1052.84 150.252L1052.92 151.33Z" fill="black"/>
<line x1="986" y1="205.5" x2="1000" y2="205.5" stroke="black"/>
<line x1="986" y1="254.5" x2="1000" y2="254.5" stroke="black"/>
<line x1="999.5" y1="255" x2="999.5" y2="206" stroke="black"/>
<path d="M1014.05 235.076C1014.38 235.076 1014.69 235.022 1014.96 234.915C1015.23 234.808 1015.46 234.658 1015.66 234.467C1015.85 234.276 1016 234.049 1016.1 233.788C1016.21 233.527 1016.27 233.242 1016.27 232.934C1016.27 232.607 1016.21 232.313 1016.11 232.052C1016.01 231.786 1015.86 231.562 1015.67 231.38C1015.48 231.193 1015.26 231.051 1015 230.953C1014.74 230.855 1014.45 230.806 1014.14 230.806C1013.8 230.806 1013.5 230.864 1013.23 230.981C1012.96 231.093 1012.73 231.247 1012.53 231.443C1012.35 231.634 1012.2 231.858 1012.1 232.115C1012 232.367 1011.95 232.631 1011.95 232.906C1011.95 233.228 1012 233.522 1012.09 233.788C1012.19 234.054 1012.32 234.283 1012.5 234.474C1012.68 234.665 1012.9 234.815 1013.16 234.922C1013.42 235.025 1013.71 235.076 1014.05 235.076ZM1013.32 229.728C1013.23 229.84 1013.14 229.95 1013.06 230.057C1012.98 230.16 1012.9 230.262 1012.83 230.365C1013.07 230.202 1013.33 230.076 1013.61 229.987C1013.9 229.898 1014.21 229.854 1014.54 229.854C1014.95 229.854 1015.33 229.922 1015.69 230.057C1016.05 230.188 1016.36 230.381 1016.63 230.638C1016.9 230.89 1017.11 231.203 1017.27 231.576C1017.43 231.945 1017.51 232.367 1017.51 232.843C1017.51 233.305 1017.43 233.734 1017.26 234.131C1017.09 234.528 1016.86 234.873 1016.55 235.167C1016.25 235.461 1015.89 235.692 1015.47 235.86C1015.05 236.028 1014.58 236.112 1014.07 236.112C1013.57 236.112 1013.11 236.033 1012.7 235.874C1012.29 235.711 1011.94 235.482 1011.65 235.188C1011.37 234.889 1011.15 234.53 1010.99 234.11C1010.83 233.685 1010.76 233.212 1010.76 232.689C1010.76 232.25 1010.85 231.784 1011.04 231.289C1011.24 230.79 1011.55 230.258 1011.97 229.693L1014.52 226.27C1014.59 226.186 1014.68 226.116 1014.79 226.06C1014.9 225.999 1015.04 225.969 1015.19 225.969H1016.29L1013.32 229.728ZM1023.48 228.391C1023.48 228.783 1023.41 229.135 1023.29 229.448C1023.17 229.756 1023.01 230.017 1022.8 230.232C1022.6 230.442 1022.37 230.603 1022.1 230.715C1021.83 230.827 1021.55 230.883 1021.25 230.883C1020.94 230.883 1020.64 230.827 1020.37 230.715C1020.1 230.603 1019.87 230.442 1019.67 230.232C1019.47 230.017 1019.32 229.756 1019.21 229.448C1019.09 229.135 1019.04 228.783 1019.04 228.391C1019.04 227.99 1019.09 227.633 1019.21 227.32C1019.32 227.007 1019.47 226.744 1019.67 226.529C1019.87 226.314 1020.1 226.151 1020.37 226.039C1020.64 225.927 1020.94 225.871 1021.25 225.871C1021.57 225.871 1021.86 225.927 1022.13 226.039C1022.4 226.151 1022.64 226.314 1022.84 226.529C1023.04 226.744 1023.2 227.007 1023.31 227.32C1023.42 227.633 1023.48 227.99 1023.48 228.391ZM1022.51 228.391C1022.51 228.083 1022.48 227.822 1022.41 227.607C1022.35 227.392 1022.25 227.217 1022.14 227.082C1022.03 226.942 1021.89 226.842 1021.74 226.781C1021.59 226.72 1021.42 226.69 1021.25 226.69C1021.08 226.69 1020.92 226.72 1020.77 226.781C1020.62 226.842 1020.49 226.942 1020.37 227.082C1020.26 227.217 1020.17 227.392 1020.11 227.607C1020.04 227.822 1020.01 228.083 1020.01 228.391C1020.01 228.694 1020.04 228.953 1020.11 229.168C1020.17 229.378 1020.26 229.551 1020.37 229.686C1020.49 229.817 1020.62 229.912 1020.77 229.973C1020.92 230.029 1021.08 230.057 1021.25 230.057C1021.42 230.057 1021.59 230.029 1021.74 229.973C1021.89 229.912 1022.03 229.817 1022.14 229.686C1022.25 229.551 1022.35 229.378 1022.41 229.168C1022.48 228.953 1022.51 228.694 1022.51 228.391ZM1027.02 226.179C1027.07 226.123 1027.12 226.074 1027.19 226.032C1027.25 225.99 1027.34 225.969 1027.44 225.969H1028.35L1021.01 235.797C1020.97 235.858 1020.92 235.907 1020.85 235.944C1020.78 235.981 1020.71 236 1020.61 236H1019.7L1027.02 226.179ZM1029.03 233.634C1029.03 234.026 1028.97 234.376 1028.84 234.684C1028.72 234.992 1028.56 235.253 1028.35 235.468C1028.15 235.678 1027.92 235.839 1027.65 235.951C1027.38 236.063 1027.1 236.119 1026.8 236.119C1026.48 236.119 1026.19 236.063 1025.92 235.951C1025.65 235.839 1025.42 235.678 1025.22 235.468C1025.02 235.253 1024.87 234.992 1024.76 234.684C1024.64 234.376 1024.59 234.026 1024.59 233.634C1024.59 233.233 1024.64 232.876 1024.76 232.563C1024.87 232.246 1025.02 231.98 1025.22 231.765C1025.42 231.55 1025.65 231.387 1025.92 231.275C1026.19 231.163 1026.48 231.107 1026.8 231.107C1027.11 231.107 1027.4 231.163 1027.68 231.275C1027.95 231.387 1028.19 231.55 1028.38 231.765C1028.58 231.98 1028.74 232.246 1028.85 232.563C1028.97 232.876 1029.03 233.233 1029.03 233.634ZM1028.06 233.634C1028.06 233.326 1028.03 233.065 1027.96 232.85C1027.9 232.631 1027.81 232.453 1027.69 232.318C1027.58 232.183 1027.44 232.085 1027.29 232.024C1027.14 231.963 1026.97 231.933 1026.8 231.933C1026.63 231.933 1026.46 231.963 1026.31 232.024C1026.16 232.085 1026.03 232.183 1025.92 232.318C1025.81 232.453 1025.72 232.631 1025.65 232.85C1025.59 233.065 1025.56 233.326 1025.56 233.634C1025.56 233.937 1025.59 234.194 1025.65 234.404C1025.72 234.614 1025.81 234.787 1025.92 234.922C1026.03 235.053 1026.16 235.148 1026.31 235.209C1026.46 235.265 1026.63 235.293 1026.8 235.293C1026.97 235.293 1027.14 235.265 1027.29 235.209C1027.44 235.148 1027.58 235.053 1027.69 234.922C1027.81 234.787 1027.9 234.614 1027.96 234.404C1028.03 234.194 1028.06 233.937 1028.06 233.634ZM1037.8 228.797C1038.32 228.797 1038.79 228.883 1039.2 229.056C1039.62 229.229 1039.97 229.474 1040.27 229.791C1040.56 230.108 1040.79 230.493 1040.94 230.946C1041.1 231.394 1041.18 231.896 1041.18 232.451C1041.18 233.011 1041.1 233.515 1040.94 233.963C1040.79 234.411 1040.56 234.794 1040.27 235.111C1039.97 235.428 1039.62 235.673 1039.2 235.846C1038.79 236.014 1038.32 236.098 1037.8 236.098C1037.28 236.098 1036.81 236.014 1036.39 235.846C1035.97 235.673 1035.62 235.428 1035.33 235.111C1035.03 234.794 1034.81 234.411 1034.65 233.963C1034.49 233.515 1034.42 233.011 1034.42 232.451C1034.42 231.896 1034.49 231.394 1034.65 230.946C1034.81 230.493 1035.03 230.108 1035.33 229.791C1035.62 229.474 1035.97 229.229 1036.39 229.056C1036.81 228.883 1037.28 228.797 1037.8 228.797ZM1037.8 235.125C1038.5 235.125 1039.03 234.892 1039.37 234.425C1039.72 233.954 1039.89 233.298 1039.89 232.458C1039.89 231.613 1039.72 230.955 1039.37 230.484C1039.03 230.013 1038.5 229.777 1037.8 229.777C1037.45 229.777 1037.14 229.838 1036.87 229.959C1036.61 230.08 1036.39 230.255 1036.21 230.484C1036.04 230.713 1035.91 230.995 1035.82 231.331C1035.74 231.662 1035.7 232.038 1035.7 232.458C1035.7 233.298 1035.87 233.954 1036.21 234.425C1036.56 234.892 1037.09 235.125 1037.8 235.125ZM1043.37 236V229.973L1042.59 229.882C1042.49 229.859 1042.41 229.824 1042.34 229.777C1042.28 229.726 1042.25 229.653 1042.25 229.56V229.049H1043.37V228.363C1043.37 227.957 1043.43 227.598 1043.54 227.285C1043.65 226.968 1043.82 226.702 1044.03 226.487C1044.24 226.268 1044.5 226.102 1044.8 225.99C1045.1 225.878 1045.43 225.822 1045.81 225.822C1046.12 225.822 1046.41 225.869 1046.68 225.962L1046.65 226.585C1046.64 226.697 1046.58 226.758 1046.46 226.767C1046.35 226.776 1046.2 226.781 1046.01 226.781C1045.79 226.781 1045.6 226.809 1045.42 226.865C1045.25 226.921 1045.1 227.012 1044.97 227.138C1044.85 227.264 1044.75 227.43 1044.68 227.635C1044.61 227.84 1044.58 228.095 1044.58 228.398V229.049H1046.62V229.952H1044.62V236H1043.37ZM1052.92 230.33C1053.15 229.845 1053.42 229.467 1053.75 229.196C1054.07 228.921 1054.47 228.783 1054.94 228.783C1055.09 228.783 1055.24 228.799 1055.37 228.832C1055.51 228.865 1055.63 228.916 1055.74 228.986L1055.65 229.917C1055.62 230.034 1055.55 230.092 1055.44 230.092C1055.38 230.092 1055.28 230.078 1055.15 230.05C1055.03 230.022 1054.89 230.008 1054.73 230.008C1054.5 230.008 1054.3 230.041 1054.13 230.106C1053.95 230.171 1053.8 230.269 1053.66 230.4C1053.52 230.526 1053.4 230.685 1053.29 230.876C1053.18 231.063 1053.08 231.277 1052.99 231.52V236H1051.74V228.909H1052.45C1052.59 228.909 1052.68 228.935 1052.73 228.986C1052.78 229.037 1052.82 229.126 1052.84 229.252L1052.92 230.33Z" fill="black"/>
<path d="M1012.53 190.756C1013.06 190.644 1013.54 190.588 1013.98 190.588C1014.5 190.588 1014.96 190.665 1015.36 190.819C1015.76 190.973 1016.1 191.185 1016.36 191.456C1016.63 191.727 1016.84 192.046 1016.97 192.415C1017.11 192.784 1017.18 193.185 1017.18 193.619C1017.18 194.151 1017.09 194.632 1016.9 195.061C1016.72 195.49 1016.47 195.859 1016.14 196.167C1015.82 196.47 1015.44 196.704 1015 196.867C1014.56 197.03 1014.09 197.112 1013.58 197.112C1013.28 197.112 1013 197.082 1012.73 197.021C1012.46 196.965 1012.21 196.888 1011.97 196.79C1011.73 196.692 1011.52 196.58 1011.32 196.454C1011.12 196.328 1010.94 196.195 1010.78 196.055L1011.17 195.523C1011.25 195.402 1011.36 195.341 1011.5 195.341C1011.59 195.341 1011.7 195.378 1011.81 195.453C1011.93 195.523 1012.07 195.602 1012.24 195.691C1012.41 195.78 1012.6 195.861 1012.83 195.936C1013.06 196.006 1013.33 196.041 1013.64 196.041C1013.99 196.041 1014.31 195.985 1014.59 195.873C1014.87 195.761 1015.11 195.602 1015.31 195.397C1015.51 195.187 1015.66 194.937 1015.77 194.648C1015.88 194.359 1015.93 194.034 1015.93 193.675C1015.93 193.362 1015.88 193.08 1015.79 192.828C1015.7 192.576 1015.56 192.361 1015.38 192.184C1015.19 192.007 1014.97 191.869 1014.69 191.771C1014.41 191.673 1014.09 191.624 1013.72 191.624C1013.47 191.624 1013.21 191.645 1012.93 191.687C1012.66 191.729 1012.38 191.797 1012.1 191.89L1011.32 191.659L1012.12 186.969H1016.87V187.515C1016.87 187.692 1016.82 187.839 1016.71 187.956C1016.6 188.068 1016.41 188.124 1016.15 188.124H1013L1012.53 190.756ZM1019.2 196.23C1019.2 196.109 1019.22 195.994 1019.26 195.887C1019.31 195.78 1019.37 195.686 1019.44 195.607C1019.52 195.528 1019.62 195.465 1019.72 195.418C1019.83 195.371 1019.94 195.348 1020.07 195.348C1020.19 195.348 1020.3 195.371 1020.41 195.418C1020.52 195.465 1020.61 195.528 1020.69 195.607C1020.77 195.686 1020.83 195.78 1020.88 195.887C1020.92 195.994 1020.95 196.109 1020.95 196.23C1020.95 196.356 1020.92 196.473 1020.88 196.58C1020.83 196.683 1020.77 196.774 1020.69 196.853C1020.61 196.932 1020.52 196.993 1020.41 197.035C1020.3 197.082 1020.19 197.105 1020.07 197.105C1019.94 197.105 1019.83 197.082 1019.72 197.035C1019.62 196.993 1019.52 196.932 1019.44 196.853C1019.37 196.774 1019.31 196.683 1019.26 196.58C1019.22 196.473 1019.2 196.356 1019.2 196.23ZM1029.6 186.969V187.529C1029.6 187.688 1029.58 187.818 1029.54 187.921C1029.51 188.024 1029.48 188.11 1029.44 188.18L1025.28 196.559C1025.22 196.68 1025.14 196.785 1025.03 196.874C1024.93 196.958 1024.78 197 1024.61 197H1023.71L1027.92 188.726C1027.98 188.609 1028.05 188.502 1028.11 188.404C1028.18 188.306 1028.25 188.213 1028.32 188.124H1023.09C1023.01 188.124 1022.94 188.094 1022.88 188.033C1022.82 187.968 1022.79 187.895 1022.79 187.816V186.969H1029.6ZM1035.5 189.391C1035.5 189.783 1035.44 190.135 1035.32 190.448C1035.2 190.756 1035.04 191.017 1034.83 191.232C1034.63 191.442 1034.4 191.603 1034.13 191.715C1033.86 191.827 1033.58 191.883 1033.28 191.883C1032.97 191.883 1032.67 191.827 1032.4 191.715C1032.13 191.603 1031.9 191.442 1031.7 191.232C1031.5 191.017 1031.35 190.756 1031.23 190.448C1031.12 190.135 1031.07 189.783 1031.07 189.391C1031.07 188.99 1031.12 188.633 1031.23 188.32C1031.35 188.007 1031.5 187.744 1031.7 187.529C1031.9 187.314 1032.13 187.151 1032.4 187.039C1032.67 186.927 1032.97 186.871 1033.28 186.871C1033.6 186.871 1033.89 186.927 1034.16 187.039C1034.43 187.151 1034.67 187.314 1034.87 187.529C1035.07 187.744 1035.22 188.007 1035.34 188.32C1035.45 188.633 1035.5 188.99 1035.5 189.391ZM1034.54 189.391C1034.54 189.083 1034.51 188.822 1034.44 188.607C1034.38 188.392 1034.28 188.217 1034.17 188.082C1034.06 187.942 1033.92 187.842 1033.77 187.781C1033.61 187.72 1033.45 187.69 1033.28 187.69C1033.11 187.69 1032.95 187.72 1032.8 187.781C1032.65 187.842 1032.52 187.942 1032.4 188.082C1032.29 188.217 1032.2 188.392 1032.14 188.607C1032.07 188.822 1032.04 189.083 1032.04 189.391C1032.04 189.694 1032.07 189.953 1032.14 190.168C1032.2 190.378 1032.29 190.551 1032.4 190.686C1032.52 190.817 1032.65 190.912 1032.8 190.973C1032.95 191.029 1033.11 191.057 1033.28 191.057C1033.45 191.057 1033.61 191.029 1033.77 190.973C1033.92 190.912 1034.06 190.817 1034.17 190.686C1034.28 190.551 1034.38 190.378 1034.44 190.168C1034.51 189.953 1034.54 189.694 1034.54 189.391ZM1039.05 187.179C1039.1 187.123 1039.15 187.074 1039.21 187.032C1039.28 186.99 1039.37 186.969 1039.47 186.969H1040.38L1033.04 196.797C1033 196.858 1032.95 196.907 1032.88 196.944C1032.81 196.981 1032.74 197 1032.64 197H1031.72L1039.05 187.179ZM1041.06 194.634C1041.06 195.026 1041 195.376 1040.87 195.684C1040.75 195.992 1040.59 196.253 1040.38 196.468C1040.18 196.678 1039.95 196.839 1039.68 196.951C1039.41 197.063 1039.13 197.119 1038.83 197.119C1038.51 197.119 1038.22 197.063 1037.95 196.951C1037.68 196.839 1037.45 196.678 1037.25 196.468C1037.05 196.253 1036.9 195.992 1036.79 195.684C1036.67 195.376 1036.62 195.026 1036.62 194.634C1036.62 194.233 1036.67 193.876 1036.79 193.563C1036.9 193.246 1037.05 192.98 1037.25 192.765C1037.45 192.55 1037.68 192.387 1037.95 192.275C1038.22 192.163 1038.51 192.107 1038.83 192.107C1039.14 192.107 1039.43 192.163 1039.7 192.275C1039.98 192.387 1040.22 192.55 1040.41 192.765C1040.61 192.98 1040.77 193.246 1040.88 193.563C1041 193.876 1041.06 194.233 1041.06 194.634ZM1040.09 194.634C1040.09 194.326 1040.06 194.065 1039.99 193.85C1039.93 193.631 1039.84 193.453 1039.72 193.318C1039.61 193.183 1039.47 193.085 1039.32 193.024C1039.17 192.963 1039 192.933 1038.83 192.933C1038.66 192.933 1038.49 192.963 1038.34 193.024C1038.19 193.085 1038.06 193.183 1037.95 193.318C1037.84 193.453 1037.75 193.631 1037.68 193.85C1037.62 194.065 1037.59 194.326 1037.59 194.634C1037.59 194.937 1037.62 195.194 1037.68 195.404C1037.75 195.614 1037.84 195.787 1037.95 195.922C1038.06 196.053 1038.19 196.148 1038.34 196.209C1038.49 196.265 1038.66 196.293 1038.83 196.293C1039 196.293 1039.17 196.265 1039.32 196.209C1039.47 196.148 1039.61 196.053 1039.72 195.922C1039.84 195.787 1039.93 195.614 1039.99 195.404C1040.06 195.194 1040.09 194.937 1040.09 194.634ZM1049.83 189.797C1050.35 189.797 1050.82 189.883 1051.23 190.056C1051.65 190.229 1052 190.474 1052.3 190.791C1052.59 191.108 1052.82 191.493 1052.97 191.946C1053.13 192.394 1053.21 192.896 1053.21 193.451C1053.21 194.011 1053.13 194.515 1052.97 194.963C1052.82 195.411 1052.59 195.794 1052.3 196.111C1052 196.428 1051.65 196.673 1051.23 196.846C1050.82 197.014 1050.35 197.098 1049.83 197.098C1049.31 197.098 1048.84 197.014 1048.42 196.846C1048 196.673 1047.65 196.428 1047.36 196.111C1047.06 195.794 1046.84 195.411 1046.68 194.963C1046.52 194.515 1046.45 194.011 1046.45 193.451C1046.45 192.896 1046.52 192.394 1046.68 191.946C1046.84 191.493 1047.06 191.108 1047.36 190.791C1047.65 190.474 1048 190.229 1048.42 190.056C1048.84 189.883 1049.31 189.797 1049.83 189.797ZM1049.83 196.125C1050.53 196.125 1051.06 195.892 1051.4 195.425C1051.75 194.954 1051.92 194.298 1051.92 193.458C1051.92 192.613 1051.75 191.955 1051.4 191.484C1051.06 191.013 1050.53 190.777 1049.83 190.777C1049.48 190.777 1049.17 190.838 1048.9 190.959C1048.64 191.08 1048.42 191.255 1048.24 191.484C1048.07 191.713 1047.94 191.995 1047.85 192.331C1047.77 192.662 1047.73 193.038 1047.73 193.458C1047.73 194.298 1047.9 194.954 1048.24 195.425C1048.59 195.892 1049.12 196.125 1049.83 196.125ZM1055.4 197V190.973L1054.62 190.882C1054.52 190.859 1054.44 190.824 1054.37 190.777C1054.31 190.726 1054.28 190.653 1054.28 190.56V190.049H1055.4V189.363C1055.4 188.957 1055.46 188.598 1055.57 188.285C1055.68 187.968 1055.85 187.702 1056.06 187.487C1056.27 187.268 1056.53 187.102 1056.83 186.99C1057.13 186.878 1057.46 186.822 1057.84 186.822C1058.15 186.822 1058.44 186.869 1058.71 186.962L1058.68 187.585C1058.67 187.697 1058.61 187.758 1058.49 187.767C1058.38 187.776 1058.23 187.781 1058.04 187.781C1057.82 187.781 1057.63 187.809 1057.45 187.865C1057.28 187.921 1057.13 188.012 1057 188.138C1056.88 188.264 1056.78 188.43 1056.71 188.635C1056.64 188.84 1056.61 189.095 1056.61 189.398V190.049H1058.65V190.952H1056.65V197H1055.4ZM1066.76 189.797C1067.27 189.797 1067.74 189.883 1068.16 190.056C1068.57 190.229 1068.93 190.474 1069.22 190.791C1069.51 191.108 1069.74 191.493 1069.89 191.946C1070.05 192.394 1070.13 192.896 1070.13 193.451C1070.13 194.011 1070.05 194.515 1069.89 194.963C1069.74 195.411 1069.51 195.794 1069.22 196.111C1068.93 196.428 1068.57 196.673 1068.16 196.846C1067.74 197.014 1067.27 197.098 1066.76 197.098C1066.23 197.098 1065.76 197.014 1065.34 196.846C1064.93 196.673 1064.57 196.428 1064.28 196.111C1063.98 195.794 1063.76 195.411 1063.6 194.963C1063.45 194.515 1063.37 194.011 1063.37 193.451C1063.37 192.896 1063.45 192.394 1063.6 191.946C1063.76 191.493 1063.98 191.108 1064.28 190.791C1064.57 190.474 1064.93 190.229 1065.34 190.056C1065.76 189.883 1066.23 189.797 1066.76 189.797ZM1066.76 196.125C1067.46 196.125 1067.98 195.892 1068.32 195.425C1068.67 194.954 1068.84 194.298 1068.84 193.458C1068.84 192.613 1068.67 191.955 1068.32 191.484C1067.98 191.013 1067.46 190.777 1066.76 190.777C1066.4 190.777 1066.09 190.838 1065.83 190.959C1065.56 191.08 1065.35 191.255 1065.17 191.484C1065 191.713 1064.86 191.995 1064.78 192.331C1064.69 192.662 1064.65 193.038 1064.65 193.458C1064.65 194.298 1064.82 194.954 1065.17 195.425C1065.52 195.892 1066.05 196.125 1066.76 196.125Z" fill="black"/>
<line y1="-0.5" x2="14" y2="-0.5" transform="matrix(-4.67672e-06 1 -1 -1.63421e-09 976 586)" stroke="black"/>
<line x1="176.5" y1="586" x2="176.5" y2="600" stroke="black"/>
<line x1="176" y1="599.5" x2="976" y2="599.5" stroke="black"/>
<line y1="-0.5" x2="14" y2="-0.5" transform="matrix(3.02233e-06 -1 1 2.52876e-09 176 116)" stroke="black"/>
<line x1="692.5" y1="116" x2="692.5" y2="102" stroke="black"/>
<line x1="693" y1="102.5" x2="176" y2="102.5" stroke="black"/>
<line x1="588.5" y1="84" x2="588.5" y2="70" stroke="black"/>
<line x1="692.5" y1="84" x2="692.5" y2="70" stroke="black"/>
<line x1="693" y1="70.5" x2="589" y2="70.5" stroke="black"/>
<path d="M575.17 618.33C575.394 617.845 575.669 617.467 575.996 617.196C576.323 616.921 576.722 616.783 577.193 616.783C577.342 616.783 577.485 616.799 577.62 616.832C577.76 616.865 577.884 616.916 577.991 616.986L577.9 617.917C577.872 618.034 577.802 618.092 577.69 618.092C577.625 618.092 577.529 618.078 577.403 618.05C577.277 618.022 577.135 618.008 576.976 618.008C576.752 618.008 576.551 618.041 576.374 618.106C576.201 618.171 576.045 618.269 575.905 618.4C575.77 618.526 575.646 618.685 575.534 618.876C575.427 619.063 575.329 619.277 575.24 619.52V624H573.987V616.909H574.701C574.836 616.909 574.93 616.935 574.981 616.986C575.032 617.037 575.067 617.126 575.086 617.252L575.17 618.33Z" fill="black"/>
<g clip-path="url(#clip0)">
<path fill-rule="evenodd" clip-rule="evenodd" d="M299.057 176.161C297.092 176.161 295.89 177.197 295.89 179.314V196.346H295.798L284.288 177.864C283.572 176.668 282.37 176.138 281.006 176.138C278.21 176.138 276.869 177.266 276.869 179.959V202.745C276.869 204.862 278.071 205.898 280.035 205.898C282 205.898 283.202 204.862 283.202 202.745V186.196H283.271L294.688 204.149C295.521 205.461 296.214 205.898 298.294 205.898C301.067 205.898 302.177 204.425 302.177 201.824V179.291C302.223 177.197 301.021 176.161 299.057 176.161Z" fill="white"/>
<path fill-rule="evenodd" clip-rule="evenodd" d="M324.457 176.161C323.093 176.161 322.376 176.644 321.614 178.071L315.928 188.567L310.197 178.071C309.526 176.806 308.787 176.161 307.238 176.161C305.967 176.161 303.91 176.921 303.91 179.153C303.91 179.752 304.141 180.35 304.465 180.879L312.508 194.206V202.676C312.508 204.632 313.779 205.944 315.79 205.944C317.8 205.944 319.072 204.632 319.072 202.676V194.206L327.114 180.879C327.438 180.35 327.669 179.752 327.669 179.153C327.692 176.921 325.658 176.161 324.457 176.161Z" fill="white"/>
<path fill-rule="evenodd" clip-rule="evenodd" d="M353.67 179.084C353.67 176.898 351.983 176.161 350.342 176.161C348.816 176.161 347.869 177.082 347.268 179.038L341.097 198.579H341.028L335.088 179.038C334.487 177.082 333.516 176.161 331.76 176.161C330.119 176.161 328.432 176.875 328.432 179.084C328.432 179.614 328.547 180.235 328.824 180.995L336.914 203.665C337.584 205.53 338.878 205.944 340.912 205.944C342.946 205.944 344.24 205.553 344.91 203.665L353.254 180.995C353.554 180.235 353.67 179.591 353.67 179.084Z" fill="white"/>
<path fill-rule="evenodd" clip-rule="evenodd" d="M366.335 178.555C365.618 176.529 364.301 176.161 362.799 176.161H361.227C359.633 176.161 358.593 176.691 358.015 178.164L349.51 200.558C349.278 201.203 348.862 202.354 348.862 203.067C348.862 204.816 350.11 205.944 351.913 205.944C353.485 205.944 354.386 205.415 354.848 204.149L356.582 199.362H367.167L368.854 204.149C369.34 205.415 370.38 205.944 371.813 205.944C373.5 205.944 374.909 204.678 374.909 203.067C374.909 202.354 374.517 201.203 374.262 200.558L366.335 178.555ZM358.038 194.804L361.921 183.273H361.99L365.711 194.804H358.038Z" fill="white"/>
<path fill-rule="evenodd" clip-rule="evenodd" d="M398.739 176.161C396.774 176.161 395.572 177.197 395.572 179.314V196.346H395.503L383.993 177.864C383.277 176.668 382.075 176.138 380.711 176.138C377.915 176.138 376.574 177.266 376.574 179.959V202.745C376.574 204.862 377.776 205.898 379.74 205.898C381.705 205.898 382.907 204.862 382.907 202.745V186.196H382.976L394.393 204.149C395.226 205.461 395.919 205.898 397.999 205.898C400.772 205.898 401.882 204.425 401.882 201.824V179.291C401.905 177.197 400.703 176.161 398.739 176.161Z" fill="white"/>
<path d="M240.26 203.942C242.174 203.942 243.727 202.396 243.727 200.489C243.727 198.582 242.174 197.037 240.26 197.037C238.345 197.037 236.793 198.582 236.793 200.489C236.793 202.396 238.345 203.942 240.26 203.942Z" fill="white"/>
<path fill-rule="evenodd" clip-rule="evenodd" d="M267.439 178.555C266.723 176.529 265.405 176.161 263.903 176.161H262.332C262.193 176.161 262.054 176.161 261.916 176.184H229.744C227.71 176.184 226.046 177.841 226.046 179.867V202.262C226.046 204.287 227.71 205.944 229.744 205.944H252.994V205.921H253.064C254.635 205.921 255.537 205.392 255.999 204.126L257.732 199.338H268.318L270.005 204.126C270.49 205.392 271.53 205.921 272.963 205.921C274.65 205.921 276.037 204.655 276.037 203.044C276.037 202.331 275.644 201.18 275.39 200.535L267.439 178.555ZM240.26 204.724C237.925 204.724 236.007 202.837 236.007 200.489C236.007 198.165 237.902 196.254 240.26 196.254C242.594 196.254 244.512 198.142 244.512 200.489C244.489 202.837 242.594 204.724 240.26 204.724ZM249.25 200.812H245.344C245.344 199.983 244.998 195.38 240.144 195.38C235.291 195.38 235.083 200.857 235.083 200.857H234.043C234.043 200.857 231.015 199.638 230.391 199.315C229.767 198.97 229.698 197.267 229.698 197.267V195.771H230.229V194.252C230.483 191.03 238.411 188.13 238.411 188.13C238.411 188.13 245.067 181.593 246.107 180.672C248.349 178.716 257.432 179.153 257.432 179.153L249.25 200.812ZM259.142 194.804L263.025 183.273H263.094L266.815 194.804H259.142Z" fill="white"/>
<path fill-rule="evenodd" clip-rule="evenodd" d="M235.591 192.019C235.314 191.95 234.297 191.95 233.858 191.927C233.719 191.927 233.58 191.973 233.488 192.065C233.28 192.226 232.956 192.549 232.656 192.94C232.309 193.4 232.055 193.976 231.893 194.344C231.778 194.643 232.101 194.666 232.101 194.666L232.864 194.827C232.956 194.85 233.049 194.827 233.118 194.758L235.66 192.549C235.637 192.549 236.007 192.111 235.591 192.019Z" fill="white"/>
<path fill-rule="evenodd" clip-rule="evenodd" d="M252.763 181.087C252.416 181.087 249.204 181.432 248.58 181.547C247.956 181.662 247.031 182.376 247.031 182.376L243.079 186.726V189.051L251.446 187.439C251.446 187.439 252.532 187.232 252.694 185.851C252.856 184.47 253.202 181.524 253.202 181.524C253.202 181.524 253.11 181.087 252.763 181.087Z" fill="white"/>
</g>
<path d="M137.976 349.797C138.494 349.797 138.961 349.883 139.376 350.056C139.791 350.229 140.146 350.474 140.44 350.791C140.734 351.108 140.958 351.493 141.112 351.946C141.271 352.394 141.35 352.896 141.35 353.451C141.35 354.011 141.271 354.515 141.112 354.963C140.958 355.411 140.734 355.794 140.44 356.111C140.146 356.428 139.791 356.673 139.376 356.846C138.961 357.014 138.494 357.098 137.976 357.098C137.453 357.098 136.982 357.014 136.562 356.846C136.147 356.673 135.792 356.428 135.498 356.111C135.204 355.794 134.978 355.411 134.819 354.963C134.665 354.515 134.588 354.011 134.588 353.451C134.588 352.896 134.665 352.394 134.819 351.946C134.978 351.493 135.204 351.108 135.498 350.791C135.792 350.474 136.147 350.229 136.562 350.056C136.982 349.883 137.453 349.797 137.976 349.797ZM137.976 356.125C138.676 356.125 139.199 355.892 139.544 355.425C139.889 354.954 140.062 354.298 140.062 353.458C140.062 352.613 139.889 351.955 139.544 351.484C139.199 351.013 138.676 350.777 137.976 350.777C137.621 350.777 137.311 350.838 137.045 350.959C136.784 351.08 136.564 351.255 136.387 351.484C136.214 351.713 136.084 351.995 135.995 352.331C135.911 352.662 135.869 353.038 135.869 353.458C135.869 354.298 136.042 354.954 136.387 355.425C136.737 355.892 137.267 356.125 137.976 356.125Z" fill="black"/>
<line y1="-0.5" x2="14" y2="-0.5" transform="matrix(-1 -2.63065e-06 2.90526e-09 -1 166 576)" stroke="black"/>
<line x1="166" y1="126.5" x2="152" y2="126.5" stroke="black"/>
<line x1="152.5" y1="126" x2="152.5" y2="576" stroke="black"/>
<defs>
<clipPath id="clip0">
<rect width="175.882" height="30" fill="white" transform="translate(226 176)"/>
</clipPath>
</defs>
</svg>
