<svg width="1204" height="678" viewBox="0 0 1204 678" fill="none" xmlns="http://www.w3.org/2000/svg">
<rect width="1204" height="677.25" fill="white"/>
<rect x="162.5" y="114.5" width="799" height="449" stroke="#D8D8D8"/>
<rect x="162.5" y="563.5" width="449" height="49" transform="rotate(-90 162.5 563.5)" stroke="#D8D8D8"/>
<rect x="912.5" y="563.5" width="449" height="49" transform="rotate(-90 912.5 563.5)" stroke="#D8D8D8"/>
<rect x="162.5" y="114.5" width="799" height="49" stroke="#D8D8D8"/>
<rect x="162.5" y="434.5" width="799" height="49" stroke="#D8D8D8"/>
<rect x="162.5" y="194.5" width="799" height="49" stroke="#D8D8D8"/>
<rect x="162.5" y="514.5" width="799" height="49" stroke="#D8D8D8"/>
<line x1="162.5" y1="104" x2="162.5" y2="90" stroke="black"/>
<line x1="211.5" y1="104" x2="211.5" y2="90" stroke="black"/>
<line x1="212" y1="90.5" x2="163" y2="90.5" stroke="black"/>
<path d="M168.046 76.076C168.382 76.076 168.685 76.0223 168.956 75.915C169.231 75.8077 169.465 75.6583 169.656 75.467C169.852 75.2757 170.001 75.0493 170.104 74.788C170.211 74.5267 170.265 74.242 170.265 73.934C170.265 73.6073 170.214 73.3133 170.111 73.052C170.008 72.786 169.861 72.562 169.67 72.38C169.483 72.1933 169.259 72.051 168.998 71.953C168.737 71.855 168.45 71.806 168.137 71.806C167.801 71.806 167.498 71.8643 167.227 71.981C166.956 72.093 166.725 72.247 166.534 72.443C166.347 72.6343 166.203 72.8583 166.1 73.115C166.002 73.367 165.953 73.6307 165.953 73.906C165.953 74.228 166 74.522 166.093 74.788C166.186 75.054 166.322 75.2827 166.499 75.474C166.681 75.6653 166.9 75.8147 167.157 75.922C167.418 76.0247 167.715 76.076 168.046 76.076ZM167.318 70.728C167.229 70.84 167.143 70.9497 167.059 71.057C166.98 71.1597 166.903 71.2623 166.828 71.365C167.066 71.2017 167.327 71.0757 167.612 70.987C167.897 70.8983 168.207 70.854 168.543 70.854C168.949 70.854 169.332 70.9217 169.691 71.057C170.05 71.1877 170.363 71.3813 170.629 71.638C170.9 71.89 171.114 72.2027 171.273 72.576C171.432 72.9447 171.511 73.367 171.511 73.843C171.511 74.305 171.427 74.7343 171.259 75.131C171.091 75.5277 170.855 75.873 170.552 76.167C170.253 76.461 169.892 76.692 169.467 76.86C169.047 77.028 168.583 77.112 168.074 77.112C167.57 77.112 167.113 77.0327 166.702 76.874C166.291 76.7107 165.941 76.482 165.652 76.188C165.367 75.8893 165.146 75.53 164.987 75.11C164.833 74.6853 164.756 74.2117 164.756 73.689C164.756 73.2503 164.852 72.7837 165.043 72.289C165.239 71.7897 165.549 71.2577 165.974 70.693L168.522 67.27C168.587 67.186 168.676 67.116 168.788 67.06C168.905 66.9993 169.038 66.969 169.187 66.969H170.293L167.318 70.728ZM177.475 69.391C177.475 69.783 177.414 70.1353 177.293 70.448C177.172 70.756 177.008 71.0173 176.803 71.232C176.602 71.442 176.367 71.603 176.096 71.715C175.83 71.827 175.548 71.883 175.249 71.883C174.936 71.883 174.645 71.827 174.374 71.715C174.103 71.603 173.868 71.442 173.667 71.232C173.471 71.0173 173.317 70.756 173.205 70.448C173.093 70.1353 173.037 69.783 173.037 69.391C173.037 68.9897 173.093 68.6327 173.205 68.32C173.317 68.0073 173.471 67.7437 173.667 67.529C173.868 67.3143 174.103 67.151 174.374 67.039C174.645 66.927 174.936 66.871 175.249 66.871C175.566 66.871 175.86 66.927 176.131 67.039C176.402 67.151 176.637 67.3143 176.838 67.529C177.039 67.7437 177.195 68.0073 177.307 68.32C177.419 68.6327 177.475 68.9897 177.475 69.391ZM176.509 69.391C176.509 69.083 176.476 68.8217 176.411 68.607C176.346 68.3923 176.255 68.2173 176.138 68.082C176.026 67.942 175.893 67.8417 175.739 67.781C175.585 67.7203 175.422 67.69 175.249 67.69C175.076 67.69 174.915 67.7203 174.766 67.781C174.617 67.8417 174.486 67.942 174.374 68.082C174.262 68.2173 174.173 68.3923 174.108 68.607C174.043 68.8217 174.01 69.083 174.01 69.391C174.01 69.6943 174.043 69.9533 174.108 70.168C174.173 70.378 174.262 70.5507 174.374 70.686C174.486 70.8167 174.617 70.9123 174.766 70.973C174.915 71.029 175.076 71.057 175.249 71.057C175.422 71.057 175.585 71.029 175.739 70.973C175.893 70.9123 176.026 70.8167 176.138 70.686C176.255 70.5507 176.346 70.378 176.411 70.168C176.476 69.9533 176.509 69.6943 176.509 69.391ZM181.024 67.179C181.071 67.123 181.124 67.074 181.185 67.032C181.25 66.99 181.337 66.969 181.444 66.969H182.347L175.011 76.797C174.969 76.8577 174.915 76.9067 174.85 76.944C174.785 76.9813 174.705 77 174.612 77H173.695L181.024 67.179ZM183.026 74.634C183.026 75.026 182.965 75.376 182.844 75.684C182.723 75.992 182.559 76.2533 182.354 76.468C182.153 76.678 181.918 76.839 181.647 76.951C181.381 77.063 181.099 77.119 180.8 77.119C180.483 77.119 180.189 77.063 179.918 76.951C179.652 76.839 179.419 76.678 179.218 76.468C179.022 76.2533 178.868 75.992 178.756 75.684C178.644 75.376 178.588 75.026 178.588 74.634C178.588 74.2327 178.644 73.8757 178.756 73.563C178.868 73.2457 179.022 72.9797 179.218 72.765C179.419 72.5503 179.652 72.387 179.918 72.275C180.189 72.163 180.483 72.107 180.8 72.107C181.113 72.107 181.404 72.163 181.675 72.275C181.95 72.387 182.186 72.5503 182.382 72.765C182.583 72.9797 182.739 73.2457 182.851 73.563C182.968 73.8757 183.026 74.2327 183.026 74.634ZM182.06 74.634C182.06 74.326 182.027 74.0647 181.962 73.85C181.897 73.6307 181.806 73.4533 181.689 73.318C181.577 73.1827 181.444 73.0847 181.29 73.024C181.136 72.9633 180.973 72.933 180.8 72.933C180.627 72.933 180.464 72.9633 180.31 73.024C180.161 73.0847 180.03 73.1827 179.918 73.318C179.806 73.4533 179.717 73.6307 179.652 73.85C179.591 74.0647 179.561 74.326 179.561 74.634C179.561 74.9373 179.591 75.194 179.652 75.404C179.717 75.614 179.806 75.7867 179.918 75.922C180.03 76.0527 180.161 76.1483 180.31 76.209C180.464 76.265 180.627 76.293 180.8 76.293C180.973 76.293 181.136 76.265 181.29 76.209C181.444 76.1483 181.577 76.0527 181.689 75.922C181.806 75.7867 181.897 75.614 181.962 75.404C182.027 75.194 182.06 74.9373 182.06 74.634ZM191.804 69.797C192.322 69.797 192.788 69.8833 193.204 70.056C193.619 70.2287 193.974 70.4737 194.268 70.791C194.562 71.1083 194.786 71.4933 194.94 71.946C195.098 72.394 195.178 72.8957 195.178 73.451C195.178 74.011 195.098 74.515 194.94 74.963C194.786 75.411 194.562 75.7937 194.268 76.111C193.974 76.4283 193.619 76.6733 193.204 76.846C192.788 77.014 192.322 77.098 191.804 77.098C191.281 77.098 190.81 77.014 190.39 76.846C189.974 76.6733 189.62 76.4283 189.326 76.111C189.032 75.7937 188.805 75.411 188.647 74.963C188.493 74.515 188.416 74.011 188.416 73.451C188.416 72.8957 188.493 72.394 188.647 71.946C188.805 71.4933 189.032 71.1083 189.326 70.791C189.62 70.4737 189.974 70.2287 190.39 70.056C190.81 69.8833 191.281 69.797 191.804 69.797ZM191.804 76.125C192.504 76.125 193.026 75.8917 193.372 75.425C193.717 74.9537 193.89 74.298 193.89 73.458C193.89 72.6133 193.717 71.9553 193.372 71.484C193.026 71.0127 192.504 70.777 191.804 70.777C191.449 70.777 191.139 70.8377 190.873 70.959C190.611 71.0803 190.392 71.2553 190.215 71.484C190.042 71.7127 189.911 71.995 189.823 72.331C189.739 72.6623 189.697 73.038 189.697 73.458C189.697 74.298 189.869 74.9537 190.215 75.425C190.565 75.8917 191.094 76.125 191.804 76.125ZM197.37 77V70.973L196.586 70.882C196.488 70.8587 196.406 70.8237 196.341 70.777C196.28 70.7257 196.25 70.6533 196.25 70.56V70.049H197.37V69.363C197.37 68.957 197.426 68.5977 197.538 68.285C197.654 67.9677 197.818 67.7017 198.028 67.487C198.242 67.2677 198.499 67.102 198.798 66.99C199.096 66.878 199.432 66.822 199.806 66.822C200.123 66.822 200.415 66.8687 200.681 66.962L200.653 67.585C200.643 67.697 200.58 67.7577 200.464 67.767C200.352 67.7763 200.2 67.781 200.009 67.781C199.794 67.781 199.598 67.809 199.421 67.865C199.248 67.921 199.099 68.012 198.973 68.138C198.847 68.264 198.749 68.4297 198.679 68.635C198.613 68.8403 198.581 69.0947 198.581 69.398V70.049H200.625V70.952H198.623V77H197.37ZM206.921 71.33C207.145 70.8447 207.421 70.4667 207.747 70.196C208.074 69.9207 208.473 69.783 208.944 69.783C209.094 69.783 209.236 69.7993 209.371 69.832C209.511 69.8647 209.635 69.916 209.742 69.986L209.651 70.917C209.623 71.0337 209.553 71.092 209.441 71.092C209.376 71.092 209.28 71.078 209.154 71.05C209.028 71.022 208.886 71.008 208.727 71.008C208.503 71.008 208.303 71.0407 208.125 71.106C207.953 71.1713 207.796 71.2693 207.656 71.4C207.521 71.526 207.397 71.6847 207.285 71.876C207.178 72.0627 207.08 72.2773 206.991 72.52V77H205.738V69.909H206.452C206.588 69.909 206.681 69.9347 206.732 69.986C206.784 70.0373 206.819 70.126 206.837 70.252L206.921 71.33Z" fill="black"/>
<path d="M123.976 337.797C124.494 337.797 124.961 337.883 125.376 338.056C125.791 338.229 126.146 338.474 126.44 338.791C126.734 339.108 126.958 339.493 127.112 339.946C127.271 340.394 127.35 340.896 127.35 341.451C127.35 342.011 127.271 342.515 127.112 342.963C126.958 343.411 126.734 343.794 126.44 344.111C126.146 344.428 125.791 344.673 125.376 344.846C124.961 345.014 124.494 345.098 123.976 345.098C123.453 345.098 122.982 345.014 122.562 344.846C122.147 344.673 121.792 344.428 121.498 344.111C121.204 343.794 120.978 343.411 120.819 342.963C120.665 342.515 120.588 342.011 120.588 341.451C120.588 340.896 120.665 340.394 120.819 339.946C120.978 339.493 121.204 339.108 121.498 338.791C121.792 338.474 122.147 338.229 122.562 338.056C122.982 337.883 123.453 337.797 123.976 337.797ZM123.976 344.125C124.676 344.125 125.199 343.892 125.544 343.425C125.889 342.954 126.062 342.298 126.062 341.458C126.062 340.613 125.889 339.955 125.544 339.484C125.199 339.013 124.676 338.777 123.976 338.777C123.621 338.777 123.311 338.838 123.045 338.959C122.784 339.08 122.564 339.255 122.387 339.484C122.214 339.713 122.084 339.995 121.995 340.331C121.911 340.662 121.869 341.038 121.869 341.458C121.869 342.298 122.042 342.954 122.387 343.425C122.737 343.892 123.267 344.125 123.976 344.125Z" fill="black"/>
<line x1="972" y1="114.5" x2="986" y2="114.5" stroke="black"/>
<line x1="972" y1="163.5" x2="986" y2="163.5" stroke="black"/>
<line x1="985.5" y1="164" x2="985.5" y2="115" stroke="black"/>
<line x1="972" y1="483.5" x2="986" y2="483.5" stroke="black"/>
<line x1="972" y1="513.5" x2="986" y2="513.5" stroke="black"/>
<line x1="985.5" y1="514" x2="985.5" y2="484" stroke="black"/>
<path d="M1000.05 144.076C1000.38 144.076 1000.69 144.022 1000.96 143.915C1001.23 143.808 1001.46 143.658 1001.66 143.467C1001.85 143.276 1002 143.049 1002.1 142.788C1002.21 142.527 1002.27 142.242 1002.27 141.934C1002.27 141.607 1002.21 141.313 1002.11 141.052C1002.01 140.786 1001.86 140.562 1001.67 140.38C1001.48 140.193 1001.26 140.051 1001 139.953C1000.74 139.855 1000.45 139.806 1000.14 139.806C999.801 139.806 999.498 139.864 999.227 139.981C998.956 140.093 998.725 140.247 998.534 140.443C998.347 140.634 998.203 140.858 998.1 141.115C998.002 141.367 997.953 141.631 997.953 141.906C997.953 142.228 998 142.522 998.093 142.788C998.186 143.054 998.322 143.283 998.499 143.474C998.681 143.665 998.9 143.815 999.157 143.922C999.418 144.025 999.715 144.076 1000.05 144.076ZM999.318 138.728C999.229 138.84 999.143 138.95 999.059 139.057C998.98 139.16 998.903 139.262 998.828 139.365C999.066 139.202 999.327 139.076 999.612 138.987C999.897 138.898 1000.21 138.854 1000.54 138.854C1000.95 138.854 1001.33 138.922 1001.69 139.057C1002.05 139.188 1002.36 139.381 1002.63 139.638C1002.9 139.89 1003.11 140.203 1003.27 140.576C1003.43 140.945 1003.51 141.367 1003.51 141.843C1003.51 142.305 1003.43 142.734 1003.26 143.131C1003.09 143.528 1002.86 143.873 1002.55 144.167C1002.25 144.461 1001.89 144.692 1001.47 144.86C1001.05 145.028 1000.58 145.112 1000.07 145.112C999.57 145.112 999.113 145.033 998.702 144.874C998.291 144.711 997.941 144.482 997.652 144.188C997.367 143.889 997.146 143.53 996.987 143.11C996.833 142.685 996.756 142.212 996.756 141.689C996.756 141.25 996.852 140.784 997.043 140.289C997.239 139.79 997.549 139.258 997.974 138.693L1000.52 135.27C1000.59 135.186 1000.68 135.116 1000.79 135.06C1000.9 134.999 1001.04 134.969 1001.19 134.969H1002.29L999.318 138.728ZM1009.48 137.391C1009.48 137.783 1009.41 138.135 1009.29 138.448C1009.17 138.756 1009.01 139.017 1008.8 139.232C1008.6 139.442 1008.37 139.603 1008.1 139.715C1007.83 139.827 1007.55 139.883 1007.25 139.883C1006.94 139.883 1006.64 139.827 1006.37 139.715C1006.1 139.603 1005.87 139.442 1005.67 139.232C1005.47 139.017 1005.32 138.756 1005.21 138.448C1005.09 138.135 1005.04 137.783 1005.04 137.391C1005.04 136.99 1005.09 136.633 1005.21 136.32C1005.32 136.007 1005.47 135.744 1005.67 135.529C1005.87 135.314 1006.1 135.151 1006.37 135.039C1006.64 134.927 1006.94 134.871 1007.25 134.871C1007.57 134.871 1007.86 134.927 1008.13 135.039C1008.4 135.151 1008.64 135.314 1008.84 135.529C1009.04 135.744 1009.2 136.007 1009.31 136.32C1009.42 136.633 1009.48 136.99 1009.48 137.391ZM1008.51 137.391C1008.51 137.083 1008.48 136.822 1008.41 136.607C1008.35 136.392 1008.25 136.217 1008.14 136.082C1008.03 135.942 1007.89 135.842 1007.74 135.781C1007.59 135.72 1007.42 135.69 1007.25 135.69C1007.08 135.69 1006.92 135.72 1006.77 135.781C1006.62 135.842 1006.49 135.942 1006.37 136.082C1006.26 136.217 1006.17 136.392 1006.11 136.607C1006.04 136.822 1006.01 137.083 1006.01 137.391C1006.01 137.694 1006.04 137.953 1006.11 138.168C1006.17 138.378 1006.26 138.551 1006.37 138.686C1006.49 138.817 1006.62 138.912 1006.77 138.973C1006.92 139.029 1007.08 139.057 1007.25 139.057C1007.42 139.057 1007.59 139.029 1007.74 138.973C1007.89 138.912 1008.03 138.817 1008.14 138.686C1008.25 138.551 1008.35 138.378 1008.41 138.168C1008.48 137.953 1008.51 137.694 1008.51 137.391ZM1013.02 135.179C1013.07 135.123 1013.12 135.074 1013.19 135.032C1013.25 134.99 1013.34 134.969 1013.44 134.969H1014.35L1007.01 144.797C1006.97 144.858 1006.92 144.907 1006.85 144.944C1006.78 144.981 1006.71 145 1006.61 145H1005.7L1013.02 135.179ZM1015.03 142.634C1015.03 143.026 1014.97 143.376 1014.84 143.684C1014.72 143.992 1014.56 144.253 1014.35 144.468C1014.15 144.678 1013.92 144.839 1013.65 144.951C1013.38 145.063 1013.1 145.119 1012.8 145.119C1012.48 145.119 1012.19 145.063 1011.92 144.951C1011.65 144.839 1011.42 144.678 1011.22 144.468C1011.02 144.253 1010.87 143.992 1010.76 143.684C1010.64 143.376 1010.59 143.026 1010.59 142.634C1010.59 142.233 1010.64 141.876 1010.76 141.563C1010.87 141.246 1011.02 140.98 1011.22 140.765C1011.42 140.55 1011.65 140.387 1011.92 140.275C1012.19 140.163 1012.48 140.107 1012.8 140.107C1013.11 140.107 1013.4 140.163 1013.68 140.275C1013.95 140.387 1014.19 140.55 1014.38 140.765C1014.58 140.98 1014.74 141.246 1014.85 141.563C1014.97 141.876 1015.03 142.233 1015.03 142.634ZM1014.06 142.634C1014.06 142.326 1014.03 142.065 1013.96 141.85C1013.9 141.631 1013.81 141.453 1013.69 141.318C1013.58 141.183 1013.44 141.085 1013.29 141.024C1013.14 140.963 1012.97 140.933 1012.8 140.933C1012.63 140.933 1012.46 140.963 1012.31 141.024C1012.16 141.085 1012.03 141.183 1011.92 141.318C1011.81 141.453 1011.72 141.631 1011.65 141.85C1011.59 142.065 1011.56 142.326 1011.56 142.634C1011.56 142.937 1011.59 143.194 1011.65 143.404C1011.72 143.614 1011.81 143.787 1011.92 143.922C1012.03 144.053 1012.16 144.148 1012.31 144.209C1012.46 144.265 1012.63 144.293 1012.8 144.293C1012.97 144.293 1013.14 144.265 1013.29 144.209C1013.44 144.148 1013.58 144.053 1013.69 143.922C1013.81 143.787 1013.9 143.614 1013.96 143.404C1014.03 143.194 1014.06 142.937 1014.06 142.634ZM1023.8 137.797C1024.32 137.797 1024.79 137.883 1025.2 138.056C1025.62 138.229 1025.97 138.474 1026.27 138.791C1026.56 139.108 1026.79 139.493 1026.94 139.946C1027.1 140.394 1027.18 140.896 1027.18 141.451C1027.18 142.011 1027.1 142.515 1026.94 142.963C1026.79 143.411 1026.56 143.794 1026.27 144.111C1025.97 144.428 1025.62 144.673 1025.2 144.846C1024.79 145.014 1024.32 145.098 1023.8 145.098C1023.28 145.098 1022.81 145.014 1022.39 144.846C1021.97 144.673 1021.62 144.428 1021.33 144.111C1021.03 143.794 1020.81 143.411 1020.65 142.963C1020.49 142.515 1020.42 142.011 1020.42 141.451C1020.42 140.896 1020.49 140.394 1020.65 139.946C1020.81 139.493 1021.03 139.108 1021.33 138.791C1021.62 138.474 1021.97 138.229 1022.39 138.056C1022.81 137.883 1023.28 137.797 1023.8 137.797ZM1023.8 144.125C1024.5 144.125 1025.03 143.892 1025.37 143.425C1025.72 142.954 1025.89 142.298 1025.89 141.458C1025.89 140.613 1025.72 139.955 1025.37 139.484C1025.03 139.013 1024.5 138.777 1023.8 138.777C1023.45 138.777 1023.14 138.838 1022.87 138.959C1022.61 139.08 1022.39 139.255 1022.21 139.484C1022.04 139.713 1021.91 139.995 1021.82 140.331C1021.74 140.662 1021.7 141.038 1021.7 141.458C1021.7 142.298 1021.87 142.954 1022.21 143.425C1022.56 143.892 1023.09 144.125 1023.8 144.125ZM1029.37 145V138.973L1028.59 138.882C1028.49 138.859 1028.41 138.824 1028.34 138.777C1028.28 138.726 1028.25 138.653 1028.25 138.56V138.049H1029.37V137.363C1029.37 136.957 1029.43 136.598 1029.54 136.285C1029.65 135.968 1029.82 135.702 1030.03 135.487C1030.24 135.268 1030.5 135.102 1030.8 134.99C1031.1 134.878 1031.43 134.822 1031.81 134.822C1032.12 134.822 1032.41 134.869 1032.68 134.962L1032.65 135.585C1032.64 135.697 1032.58 135.758 1032.46 135.767C1032.35 135.776 1032.2 135.781 1032.01 135.781C1031.79 135.781 1031.6 135.809 1031.42 135.865C1031.25 135.921 1031.1 136.012 1030.97 136.138C1030.85 136.264 1030.75 136.43 1030.68 136.635C1030.61 136.84 1030.58 137.095 1030.58 137.398V138.049H1032.62V138.952H1030.62V145H1029.37ZM1038.92 139.33C1039.15 138.845 1039.42 138.467 1039.75 138.196C1040.07 137.921 1040.47 137.783 1040.94 137.783C1041.09 137.783 1041.24 137.799 1041.37 137.832C1041.51 137.865 1041.63 137.916 1041.74 137.986L1041.65 138.917C1041.62 139.034 1041.55 139.092 1041.44 139.092C1041.38 139.092 1041.28 139.078 1041.15 139.05C1041.03 139.022 1040.89 139.008 1040.73 139.008C1040.5 139.008 1040.3 139.041 1040.13 139.106C1039.95 139.171 1039.8 139.269 1039.66 139.4C1039.52 139.526 1039.4 139.685 1039.29 139.876C1039.18 140.063 1039.08 140.277 1038.99 140.52V145H1037.74V137.909H1038.45C1038.59 137.909 1038.68 137.935 1038.73 137.986C1038.78 138.037 1038.82 138.126 1038.84 138.252L1038.92 139.33Z" fill="black"/>
<line x1="972" y1="194.5" x2="986" y2="194.5" stroke="black"/>
<line x1="972" y1="243.5" x2="986" y2="243.5" stroke="black"/>
<line x1="985.5" y1="244" x2="985.5" y2="195" stroke="black"/>
<path d="M1000.05 224.076C1000.38 224.076 1000.69 224.022 1000.96 223.915C1001.23 223.808 1001.46 223.658 1001.66 223.467C1001.85 223.276 1002 223.049 1002.1 222.788C1002.21 222.527 1002.27 222.242 1002.27 221.934C1002.27 221.607 1002.21 221.313 1002.11 221.052C1002.01 220.786 1001.86 220.562 1001.67 220.38C1001.48 220.193 1001.26 220.051 1001 219.953C1000.74 219.855 1000.45 219.806 1000.14 219.806C999.801 219.806 999.498 219.864 999.227 219.981C998.956 220.093 998.725 220.247 998.534 220.443C998.347 220.634 998.203 220.858 998.1 221.115C998.002 221.367 997.953 221.631 997.953 221.906C997.953 222.228 998 222.522 998.093 222.788C998.186 223.054 998.322 223.283 998.499 223.474C998.681 223.665 998.9 223.815 999.157 223.922C999.418 224.025 999.715 224.076 1000.05 224.076ZM999.318 218.728C999.229 218.84 999.143 218.95 999.059 219.057C998.98 219.16 998.903 219.262 998.828 219.365C999.066 219.202 999.327 219.076 999.612 218.987C999.897 218.898 1000.21 218.854 1000.54 218.854C1000.95 218.854 1001.33 218.922 1001.69 219.057C1002.05 219.188 1002.36 219.381 1002.63 219.638C1002.9 219.89 1003.11 220.203 1003.27 220.576C1003.43 220.945 1003.51 221.367 1003.51 221.843C1003.51 222.305 1003.43 222.734 1003.26 223.131C1003.09 223.528 1002.86 223.873 1002.55 224.167C1002.25 224.461 1001.89 224.692 1001.47 224.86C1001.05 225.028 1000.58 225.112 1000.07 225.112C999.57 225.112 999.113 225.033 998.702 224.874C998.291 224.711 997.941 224.482 997.652 224.188C997.367 223.889 997.146 223.53 996.987 223.11C996.833 222.685 996.756 222.212 996.756 221.689C996.756 221.25 996.852 220.784 997.043 220.289C997.239 219.79 997.549 219.258 997.974 218.693L1000.52 215.27C1000.59 215.186 1000.68 215.116 1000.79 215.06C1000.9 214.999 1001.04 214.969 1001.19 214.969H1002.29L999.318 218.728ZM1009.48 217.391C1009.48 217.783 1009.41 218.135 1009.29 218.448C1009.17 218.756 1009.01 219.017 1008.8 219.232C1008.6 219.442 1008.37 219.603 1008.1 219.715C1007.83 219.827 1007.55 219.883 1007.25 219.883C1006.94 219.883 1006.64 219.827 1006.37 219.715C1006.1 219.603 1005.87 219.442 1005.67 219.232C1005.47 219.017 1005.32 218.756 1005.21 218.448C1005.09 218.135 1005.04 217.783 1005.04 217.391C1005.04 216.99 1005.09 216.633 1005.21 216.32C1005.32 216.007 1005.47 215.744 1005.67 215.529C1005.87 215.314 1006.1 215.151 1006.37 215.039C1006.64 214.927 1006.94 214.871 1007.25 214.871C1007.57 214.871 1007.86 214.927 1008.13 215.039C1008.4 215.151 1008.64 215.314 1008.84 215.529C1009.04 215.744 1009.2 216.007 1009.31 216.32C1009.42 216.633 1009.48 216.99 1009.48 217.391ZM1008.51 217.391C1008.51 217.083 1008.48 216.822 1008.41 216.607C1008.35 216.392 1008.25 216.217 1008.14 216.082C1008.03 215.942 1007.89 215.842 1007.74 215.781C1007.59 215.72 1007.42 215.69 1007.25 215.69C1007.08 215.69 1006.92 215.72 1006.77 215.781C1006.62 215.842 1006.49 215.942 1006.37 216.082C1006.26 216.217 1006.17 216.392 1006.11 216.607C1006.04 216.822 1006.01 217.083 1006.01 217.391C1006.01 217.694 1006.04 217.953 1006.11 218.168C1006.17 218.378 1006.26 218.551 1006.37 218.686C1006.49 218.817 1006.62 218.912 1006.77 218.973C1006.92 219.029 1007.08 219.057 1007.25 219.057C1007.42 219.057 1007.59 219.029 1007.74 218.973C1007.89 218.912 1008.03 218.817 1008.14 218.686C1008.25 218.551 1008.35 218.378 1008.41 218.168C1008.48 217.953 1008.51 217.694 1008.51 217.391ZM1013.02 215.179C1013.07 215.123 1013.12 215.074 1013.19 215.032C1013.25 214.99 1013.34 214.969 1013.44 214.969H1014.35L1007.01 224.797C1006.97 224.858 1006.92 224.907 1006.85 224.944C1006.78 224.981 1006.71 225 1006.61 225H1005.7L1013.02 215.179ZM1015.03 222.634C1015.03 223.026 1014.97 223.376 1014.84 223.684C1014.72 223.992 1014.56 224.253 1014.35 224.468C1014.15 224.678 1013.92 224.839 1013.65 224.951C1013.38 225.063 1013.1 225.119 1012.8 225.119C1012.48 225.119 1012.19 225.063 1011.92 224.951C1011.65 224.839 1011.42 224.678 1011.22 224.468C1011.02 224.253 1010.87 223.992 1010.76 223.684C1010.64 223.376 1010.59 223.026 1010.59 222.634C1010.59 222.233 1010.64 221.876 1010.76 221.563C1010.87 221.246 1011.02 220.98 1011.22 220.765C1011.42 220.55 1011.65 220.387 1011.92 220.275C1012.19 220.163 1012.48 220.107 1012.8 220.107C1013.11 220.107 1013.4 220.163 1013.68 220.275C1013.95 220.387 1014.19 220.55 1014.38 220.765C1014.58 220.98 1014.74 221.246 1014.85 221.563C1014.97 221.876 1015.03 222.233 1015.03 222.634ZM1014.06 222.634C1014.06 222.326 1014.03 222.065 1013.96 221.85C1013.9 221.631 1013.81 221.453 1013.69 221.318C1013.58 221.183 1013.44 221.085 1013.29 221.024C1013.14 220.963 1012.97 220.933 1012.8 220.933C1012.63 220.933 1012.46 220.963 1012.31 221.024C1012.16 221.085 1012.03 221.183 1011.92 221.318C1011.81 221.453 1011.72 221.631 1011.65 221.85C1011.59 222.065 1011.56 222.326 1011.56 222.634C1011.56 222.937 1011.59 223.194 1011.65 223.404C1011.72 223.614 1011.81 223.787 1011.92 223.922C1012.03 224.053 1012.16 224.148 1012.31 224.209C1012.46 224.265 1012.63 224.293 1012.8 224.293C1012.97 224.293 1013.14 224.265 1013.29 224.209C1013.44 224.148 1013.58 224.053 1013.69 223.922C1013.81 223.787 1013.9 223.614 1013.96 223.404C1014.03 223.194 1014.06 222.937 1014.06 222.634ZM1023.8 217.797C1024.32 217.797 1024.79 217.883 1025.2 218.056C1025.62 218.229 1025.97 218.474 1026.27 218.791C1026.56 219.108 1026.79 219.493 1026.94 219.946C1027.1 220.394 1027.18 220.896 1027.18 221.451C1027.18 222.011 1027.1 222.515 1026.94 222.963C1026.79 223.411 1026.56 223.794 1026.27 224.111C1025.97 224.428 1025.62 224.673 1025.2 224.846C1024.79 225.014 1024.32 225.098 1023.8 225.098C1023.28 225.098 1022.81 225.014 1022.39 224.846C1021.97 224.673 1021.62 224.428 1021.33 224.111C1021.03 223.794 1020.81 223.411 1020.65 222.963C1020.49 222.515 1020.42 222.011 1020.42 221.451C1020.42 220.896 1020.49 220.394 1020.65 219.946C1020.81 219.493 1021.03 219.108 1021.33 218.791C1021.62 218.474 1021.97 218.229 1022.39 218.056C1022.81 217.883 1023.28 217.797 1023.8 217.797ZM1023.8 224.125C1024.5 224.125 1025.03 223.892 1025.37 223.425C1025.72 222.954 1025.89 222.298 1025.89 221.458C1025.89 220.613 1025.72 219.955 1025.37 219.484C1025.03 219.013 1024.5 218.777 1023.8 218.777C1023.45 218.777 1023.14 218.838 1022.87 218.959C1022.61 219.08 1022.39 219.255 1022.21 219.484C1022.04 219.713 1021.91 219.995 1021.82 220.331C1021.74 220.662 1021.7 221.038 1021.7 221.458C1021.7 222.298 1021.87 222.954 1022.21 223.425C1022.56 223.892 1023.09 224.125 1023.8 224.125ZM1029.37 225V218.973L1028.59 218.882C1028.49 218.859 1028.41 218.824 1028.34 218.777C1028.28 218.726 1028.25 218.653 1028.25 218.56V218.049H1029.37V217.363C1029.37 216.957 1029.43 216.598 1029.54 216.285C1029.65 215.968 1029.82 215.702 1030.03 215.487C1030.24 215.268 1030.5 215.102 1030.8 214.99C1031.1 214.878 1031.43 214.822 1031.81 214.822C1032.12 214.822 1032.41 214.869 1032.68 214.962L1032.65 215.585C1032.64 215.697 1032.58 215.758 1032.46 215.767C1032.35 215.776 1032.2 215.781 1032.01 215.781C1031.79 215.781 1031.6 215.809 1031.42 215.865C1031.25 215.921 1031.1 216.012 1030.97 216.138C1030.85 216.264 1030.75 216.43 1030.68 216.635C1030.61 216.84 1030.58 217.095 1030.58 217.398V218.049H1032.62V218.952H1030.62V225H1029.37ZM1038.92 219.33C1039.15 218.845 1039.42 218.467 1039.75 218.196C1040.07 217.921 1040.47 217.783 1040.94 217.783C1041.09 217.783 1041.24 217.799 1041.37 217.832C1041.51 217.865 1041.63 217.916 1041.74 217.986L1041.65 218.917C1041.62 219.034 1041.55 219.092 1041.44 219.092C1041.38 219.092 1041.28 219.078 1041.15 219.05C1041.03 219.022 1040.89 219.008 1040.73 219.008C1040.5 219.008 1040.3 219.041 1040.13 219.106C1039.95 219.171 1039.8 219.269 1039.66 219.4C1039.52 219.526 1039.4 219.685 1039.29 219.876C1039.18 220.063 1039.08 220.277 1038.99 220.52V225H1037.74V217.909H1038.45C1038.59 217.909 1038.68 217.935 1038.73 217.986C1038.78 218.037 1038.82 218.126 1038.84 218.252L1038.92 219.33Z" fill="black"/>
<line x1="972" y1="434.5" x2="986" y2="434.5" stroke="black"/>
<line x1="972" y1="483.5" x2="986" y2="483.5" stroke="black"/>
<line x1="985.5" y1="484" x2="985.5" y2="435" stroke="black"/>
<path d="M1000.05 464.076C1000.38 464.076 1000.69 464.022 1000.96 463.915C1001.23 463.808 1001.46 463.658 1001.66 463.467C1001.85 463.276 1002 463.049 1002.1 462.788C1002.21 462.527 1002.27 462.242 1002.27 461.934C1002.27 461.607 1002.21 461.313 1002.11 461.052C1002.01 460.786 1001.86 460.562 1001.67 460.38C1001.48 460.193 1001.26 460.051 1001 459.953C1000.74 459.855 1000.45 459.806 1000.14 459.806C999.801 459.806 999.498 459.864 999.227 459.981C998.956 460.093 998.725 460.247 998.534 460.443C998.347 460.634 998.203 460.858 998.1 461.115C998.002 461.367 997.953 461.631 997.953 461.906C997.953 462.228 998 462.522 998.093 462.788C998.186 463.054 998.322 463.283 998.499 463.474C998.681 463.665 998.9 463.815 999.157 463.922C999.418 464.025 999.715 464.076 1000.05 464.076ZM999.318 458.728C999.229 458.84 999.143 458.95 999.059 459.057C998.98 459.16 998.903 459.262 998.828 459.365C999.066 459.202 999.327 459.076 999.612 458.987C999.897 458.898 1000.21 458.854 1000.54 458.854C1000.95 458.854 1001.33 458.922 1001.69 459.057C1002.05 459.188 1002.36 459.381 1002.63 459.638C1002.9 459.89 1003.11 460.203 1003.27 460.576C1003.43 460.945 1003.51 461.367 1003.51 461.843C1003.51 462.305 1003.43 462.734 1003.26 463.131C1003.09 463.528 1002.86 463.873 1002.55 464.167C1002.25 464.461 1001.89 464.692 1001.47 464.86C1001.05 465.028 1000.58 465.112 1000.07 465.112C999.57 465.112 999.113 465.033 998.702 464.874C998.291 464.711 997.941 464.482 997.652 464.188C997.367 463.889 997.146 463.53 996.987 463.11C996.833 462.685 996.756 462.212 996.756 461.689C996.756 461.25 996.852 460.784 997.043 460.289C997.239 459.79 997.549 459.258 997.974 458.693L1000.52 455.27C1000.59 455.186 1000.68 455.116 1000.79 455.06C1000.9 454.999 1001.04 454.969 1001.19 454.969H1002.29L999.318 458.728ZM1009.48 457.391C1009.48 457.783 1009.41 458.135 1009.29 458.448C1009.17 458.756 1009.01 459.017 1008.8 459.232C1008.6 459.442 1008.37 459.603 1008.1 459.715C1007.83 459.827 1007.55 459.883 1007.25 459.883C1006.94 459.883 1006.64 459.827 1006.37 459.715C1006.1 459.603 1005.87 459.442 1005.67 459.232C1005.47 459.017 1005.32 458.756 1005.21 458.448C1005.09 458.135 1005.04 457.783 1005.04 457.391C1005.04 456.99 1005.09 456.633 1005.21 456.32C1005.32 456.007 1005.47 455.744 1005.67 455.529C1005.87 455.314 1006.1 455.151 1006.37 455.039C1006.64 454.927 1006.94 454.871 1007.25 454.871C1007.57 454.871 1007.86 454.927 1008.13 455.039C1008.4 455.151 1008.64 455.314 1008.84 455.529C1009.04 455.744 1009.2 456.007 1009.31 456.32C1009.42 456.633 1009.48 456.99 1009.48 457.391ZM1008.51 457.391C1008.51 457.083 1008.48 456.822 1008.41 456.607C1008.35 456.392 1008.25 456.217 1008.14 456.082C1008.03 455.942 1007.89 455.842 1007.74 455.781C1007.59 455.72 1007.42 455.69 1007.25 455.69C1007.08 455.69 1006.92 455.72 1006.77 455.781C1006.62 455.842 1006.49 455.942 1006.37 456.082C1006.26 456.217 1006.17 456.392 1006.11 456.607C1006.04 456.822 1006.01 457.083 1006.01 457.391C1006.01 457.694 1006.04 457.953 1006.11 458.168C1006.17 458.378 1006.26 458.551 1006.37 458.686C1006.49 458.817 1006.62 458.912 1006.77 458.973C1006.92 459.029 1007.08 459.057 1007.25 459.057C1007.42 459.057 1007.59 459.029 1007.74 458.973C1007.89 458.912 1008.03 458.817 1008.14 458.686C1008.25 458.551 1008.35 458.378 1008.41 458.168C1008.48 457.953 1008.51 457.694 1008.51 457.391ZM1013.02 455.179C1013.07 455.123 1013.12 455.074 1013.19 455.032C1013.25 454.99 1013.34 454.969 1013.44 454.969H1014.35L1007.01 464.797C1006.97 464.858 1006.92 464.907 1006.85 464.944C1006.78 464.981 1006.71 465 1006.61 465H1005.7L1013.02 455.179ZM1015.03 462.634C1015.03 463.026 1014.97 463.376 1014.84 463.684C1014.72 463.992 1014.56 464.253 1014.35 464.468C1014.15 464.678 1013.92 464.839 1013.65 464.951C1013.38 465.063 1013.1 465.119 1012.8 465.119C1012.48 465.119 1012.19 465.063 1011.92 464.951C1011.65 464.839 1011.42 464.678 1011.22 464.468C1011.02 464.253 1010.87 463.992 1010.76 463.684C1010.64 463.376 1010.59 463.026 1010.59 462.634C1010.59 462.233 1010.64 461.876 1010.76 461.563C1010.87 461.246 1011.02 460.98 1011.22 460.765C1011.42 460.55 1011.65 460.387 1011.92 460.275C1012.19 460.163 1012.48 460.107 1012.8 460.107C1013.11 460.107 1013.4 460.163 1013.68 460.275C1013.95 460.387 1014.19 460.55 1014.38 460.765C1014.58 460.98 1014.74 461.246 1014.85 461.563C1014.97 461.876 1015.03 462.233 1015.03 462.634ZM1014.06 462.634C1014.06 462.326 1014.03 462.065 1013.96 461.85C1013.9 461.631 1013.81 461.453 1013.69 461.318C1013.58 461.183 1013.44 461.085 1013.29 461.024C1013.14 460.963 1012.97 460.933 1012.8 460.933C1012.63 460.933 1012.46 460.963 1012.31 461.024C1012.16 461.085 1012.03 461.183 1011.92 461.318C1011.81 461.453 1011.72 461.631 1011.65 461.85C1011.59 462.065 1011.56 462.326 1011.56 462.634C1011.56 462.937 1011.59 463.194 1011.65 463.404C1011.72 463.614 1011.81 463.787 1011.92 463.922C1012.03 464.053 1012.16 464.148 1012.31 464.209C1012.46 464.265 1012.63 464.293 1012.8 464.293C1012.97 464.293 1013.14 464.265 1013.29 464.209C1013.44 464.148 1013.58 464.053 1013.69 463.922C1013.81 463.787 1013.9 463.614 1013.96 463.404C1014.03 463.194 1014.06 462.937 1014.06 462.634ZM1023.8 457.797C1024.32 457.797 1024.79 457.883 1025.2 458.056C1025.62 458.229 1025.97 458.474 1026.27 458.791C1026.56 459.108 1026.79 459.493 1026.94 459.946C1027.1 460.394 1027.18 460.896 1027.18 461.451C1027.18 462.011 1027.1 462.515 1026.94 462.963C1026.79 463.411 1026.56 463.794 1026.27 464.111C1025.97 464.428 1025.62 464.673 1025.2 464.846C1024.79 465.014 1024.32 465.098 1023.8 465.098C1023.28 465.098 1022.81 465.014 1022.39 464.846C1021.97 464.673 1021.62 464.428 1021.33 464.111C1021.03 463.794 1020.81 463.411 1020.65 462.963C1020.49 462.515 1020.42 462.011 1020.42 461.451C1020.42 460.896 1020.49 460.394 1020.65 459.946C1020.81 459.493 1021.03 459.108 1021.33 458.791C1021.62 458.474 1021.97 458.229 1022.39 458.056C1022.81 457.883 1023.28 457.797 1023.8 457.797ZM1023.8 464.125C1024.5 464.125 1025.03 463.892 1025.37 463.425C1025.72 462.954 1025.89 462.298 1025.89 461.458C1025.89 460.613 1025.72 459.955 1025.37 459.484C1025.03 459.013 1024.5 458.777 1023.8 458.777C1023.45 458.777 1023.14 458.838 1022.87 458.959C1022.61 459.08 1022.39 459.255 1022.21 459.484C1022.04 459.713 1021.91 459.995 1021.82 460.331C1021.74 460.662 1021.7 461.038 1021.7 461.458C1021.7 462.298 1021.87 462.954 1022.21 463.425C1022.56 463.892 1023.09 464.125 1023.8 464.125ZM1029.37 465V458.973L1028.59 458.882C1028.49 458.859 1028.41 458.824 1028.34 458.777C1028.28 458.726 1028.25 458.653 1028.25 458.56V458.049H1029.37V457.363C1029.37 456.957 1029.43 456.598 1029.54 456.285C1029.65 455.968 1029.82 455.702 1030.03 455.487C1030.24 455.268 1030.5 455.102 1030.8 454.99C1031.1 454.878 1031.43 454.822 1031.81 454.822C1032.12 454.822 1032.41 454.869 1032.68 454.962L1032.65 455.585C1032.64 455.697 1032.58 455.758 1032.46 455.767C1032.35 455.776 1032.2 455.781 1032.01 455.781C1031.79 455.781 1031.6 455.809 1031.42 455.865C1031.25 455.921 1031.1 456.012 1030.97 456.138C1030.85 456.264 1030.75 456.43 1030.68 456.635C1030.61 456.84 1030.58 457.095 1030.58 457.398V458.049H1032.62V458.952H1030.62V465H1029.37ZM1038.92 459.33C1039.15 458.845 1039.42 458.467 1039.75 458.196C1040.07 457.921 1040.47 457.783 1040.94 457.783C1041.09 457.783 1041.24 457.799 1041.37 457.832C1041.51 457.865 1041.63 457.916 1041.74 457.986L1041.65 458.917C1041.62 459.034 1041.55 459.092 1041.44 459.092C1041.38 459.092 1041.28 459.078 1041.15 459.05C1041.03 459.022 1040.89 459.008 1040.73 459.008C1040.5 459.008 1040.3 459.041 1040.13 459.106C1039.95 459.171 1039.8 459.269 1039.66 459.4C1039.52 459.526 1039.4 459.685 1039.29 459.876C1039.18 460.063 1039.08 460.277 1038.99 460.52V465H1037.74V457.909H1038.45C1038.59 457.909 1038.68 457.935 1038.73 457.986C1038.78 458.037 1038.82 458.126 1038.84 458.252L1038.92 459.33Z" fill="black"/>
<path d="M998.534 498.756C999.057 498.644 999.537 498.588 999.976 498.588C1000.5 498.588 1000.96 498.665 1001.36 498.819C1001.76 498.973 1002.1 499.185 1002.36 499.456C1002.63 499.727 1002.84 500.046 1002.97 500.415C1003.11 500.784 1003.18 501.185 1003.18 501.619C1003.18 502.151 1003.09 502.632 1002.9 503.061C1002.72 503.49 1002.47 503.859 1002.14 504.167C1001.82 504.47 1001.44 504.704 1001 504.867C1000.56 505.03 1000.09 505.112 999.577 505.112C999.283 505.112 999.001 505.082 998.73 505.021C998.459 504.965 998.205 504.888 997.967 504.79C997.734 504.692 997.517 504.58 997.316 504.454C997.115 504.328 996.938 504.195 996.784 504.055L997.169 503.523C997.253 503.402 997.363 503.341 997.498 503.341C997.591 503.341 997.696 503.378 997.813 503.453C997.93 503.523 998.072 503.602 998.24 503.691C998.408 503.78 998.604 503.861 998.828 503.936C999.057 504.006 999.327 504.041 999.64 504.041C999.99 504.041 1000.31 503.985 1000.59 503.873C1000.87 503.761 1001.11 503.602 1001.31 503.397C1001.51 503.187 1001.66 502.937 1001.77 502.648C1001.88 502.359 1001.93 502.034 1001.93 501.675C1001.93 501.362 1001.88 501.08 1001.79 500.828C1001.7 500.576 1001.56 500.361 1001.38 500.184C1001.19 500.007 1000.97 499.869 1000.69 499.771C1000.41 499.673 1000.09 499.624 999.724 499.624C999.472 499.624 999.208 499.645 998.933 499.687C998.662 499.729 998.385 499.797 998.1 499.89L997.316 499.659L998.121 494.969H1002.87V495.515C1002.87 495.692 1002.82 495.839 1002.71 495.956C1002.6 496.068 1002.41 496.124 1002.15 496.124H998.996L998.534 498.756ZM1005.2 504.23C1005.2 504.109 1005.22 503.994 1005.26 503.887C1005.31 503.78 1005.37 503.686 1005.44 503.607C1005.52 503.528 1005.62 503.465 1005.72 503.418C1005.83 503.371 1005.94 503.348 1006.07 503.348C1006.19 503.348 1006.3 503.371 1006.41 503.418C1006.52 503.465 1006.61 503.528 1006.69 503.607C1006.77 503.686 1006.83 503.78 1006.88 503.887C1006.92 503.994 1006.95 504.109 1006.95 504.23C1006.95 504.356 1006.92 504.473 1006.88 504.58C1006.83 504.683 1006.77 504.774 1006.69 504.853C1006.61 504.932 1006.52 504.993 1006.41 505.035C1006.3 505.082 1006.19 505.105 1006.07 505.105C1005.94 505.105 1005.83 505.082 1005.72 505.035C1005.62 504.993 1005.52 504.932 1005.44 504.853C1005.37 504.774 1005.31 504.683 1005.26 504.58C1005.22 504.473 1005.2 504.356 1005.2 504.23ZM1015.6 494.969V495.529C1015.6 495.688 1015.58 495.818 1015.54 495.921C1015.51 496.024 1015.48 496.11 1015.44 496.18L1011.28 504.559C1011.22 504.68 1011.14 504.785 1011.03 504.874C1010.93 504.958 1010.78 505 1010.61 505H1009.71L1013.92 496.726C1013.98 496.609 1014.05 496.502 1014.11 496.404C1014.18 496.306 1014.25 496.213 1014.32 496.124H1009.09C1009.01 496.124 1008.94 496.094 1008.88 496.033C1008.82 495.968 1008.79 495.895 1008.79 495.816V494.969H1015.6ZM1021.5 497.391C1021.5 497.783 1021.44 498.135 1021.32 498.448C1021.2 498.756 1021.04 499.017 1020.83 499.232C1020.63 499.442 1020.4 499.603 1020.13 499.715C1019.86 499.827 1019.58 499.883 1019.28 499.883C1018.97 499.883 1018.67 499.827 1018.4 499.715C1018.13 499.603 1017.9 499.442 1017.7 499.232C1017.5 499.017 1017.35 498.756 1017.23 498.448C1017.12 498.135 1017.07 497.783 1017.07 497.391C1017.07 496.99 1017.12 496.633 1017.23 496.32C1017.35 496.007 1017.5 495.744 1017.7 495.529C1017.9 495.314 1018.13 495.151 1018.4 495.039C1018.67 494.927 1018.97 494.871 1019.28 494.871C1019.6 494.871 1019.89 494.927 1020.16 495.039C1020.43 495.151 1020.67 495.314 1020.87 495.529C1021.07 495.744 1021.22 496.007 1021.34 496.32C1021.45 496.633 1021.5 496.99 1021.5 497.391ZM1020.54 497.391C1020.54 497.083 1020.51 496.822 1020.44 496.607C1020.38 496.392 1020.28 496.217 1020.17 496.082C1020.06 495.942 1019.92 495.842 1019.77 495.781C1019.61 495.72 1019.45 495.69 1019.28 495.69C1019.11 495.69 1018.95 495.72 1018.8 495.781C1018.65 495.842 1018.52 495.942 1018.4 496.082C1018.29 496.217 1018.2 496.392 1018.14 496.607C1018.07 496.822 1018.04 497.083 1018.04 497.391C1018.04 497.694 1018.07 497.953 1018.14 498.168C1018.2 498.378 1018.29 498.551 1018.4 498.686C1018.52 498.817 1018.65 498.912 1018.8 498.973C1018.95 499.029 1019.11 499.057 1019.28 499.057C1019.45 499.057 1019.61 499.029 1019.77 498.973C1019.92 498.912 1020.06 498.817 1020.17 498.686C1020.28 498.551 1020.38 498.378 1020.44 498.168C1020.51 497.953 1020.54 497.694 1020.54 497.391ZM1025.05 495.179C1025.1 495.123 1025.15 495.074 1025.21 495.032C1025.28 494.99 1025.37 494.969 1025.47 494.969H1026.38L1019.04 504.797C1019 504.858 1018.95 504.907 1018.88 504.944C1018.81 504.981 1018.74 505 1018.64 505H1017.72L1025.05 495.179ZM1027.06 502.634C1027.06 503.026 1027 503.376 1026.87 503.684C1026.75 503.992 1026.59 504.253 1026.38 504.468C1026.18 504.678 1025.95 504.839 1025.68 504.951C1025.41 505.063 1025.13 505.119 1024.83 505.119C1024.51 505.119 1024.22 505.063 1023.95 504.951C1023.68 504.839 1023.45 504.678 1023.25 504.468C1023.05 504.253 1022.9 503.992 1022.79 503.684C1022.67 503.376 1022.62 503.026 1022.62 502.634C1022.62 502.233 1022.67 501.876 1022.79 501.563C1022.9 501.246 1023.05 500.98 1023.25 500.765C1023.45 500.55 1023.68 500.387 1023.95 500.275C1024.22 500.163 1024.51 500.107 1024.83 500.107C1025.14 500.107 1025.43 500.163 1025.7 500.275C1025.98 500.387 1026.22 500.55 1026.41 500.765C1026.61 500.98 1026.77 501.246 1026.88 501.563C1027 501.876 1027.06 502.233 1027.06 502.634ZM1026.09 502.634C1026.09 502.326 1026.06 502.065 1025.99 501.85C1025.93 501.631 1025.84 501.453 1025.72 501.318C1025.61 501.183 1025.47 501.085 1025.32 501.024C1025.17 500.963 1025 500.933 1024.83 500.933C1024.66 500.933 1024.49 500.963 1024.34 501.024C1024.19 501.085 1024.06 501.183 1023.95 501.318C1023.84 501.453 1023.75 501.631 1023.68 501.85C1023.62 502.065 1023.59 502.326 1023.59 502.634C1023.59 502.937 1023.62 503.194 1023.68 503.404C1023.75 503.614 1023.84 503.787 1023.95 503.922C1024.06 504.053 1024.19 504.148 1024.34 504.209C1024.49 504.265 1024.66 504.293 1024.83 504.293C1025 504.293 1025.17 504.265 1025.32 504.209C1025.47 504.148 1025.61 504.053 1025.72 503.922C1025.84 503.787 1025.93 503.614 1025.99 503.404C1026.06 503.194 1026.09 502.937 1026.09 502.634ZM1035.83 497.797C1036.35 497.797 1036.82 497.883 1037.23 498.056C1037.65 498.229 1038 498.474 1038.3 498.791C1038.59 499.108 1038.82 499.493 1038.97 499.946C1039.13 500.394 1039.21 500.896 1039.21 501.451C1039.21 502.011 1039.13 502.515 1038.97 502.963C1038.82 503.411 1038.59 503.794 1038.3 504.111C1038 504.428 1037.65 504.673 1037.23 504.846C1036.82 505.014 1036.35 505.098 1035.83 505.098C1035.31 505.098 1034.84 505.014 1034.42 504.846C1034 504.673 1033.65 504.428 1033.36 504.111C1033.06 503.794 1032.84 503.411 1032.68 502.963C1032.52 502.515 1032.45 502.011 1032.45 501.451C1032.45 500.896 1032.52 500.394 1032.68 499.946C1032.84 499.493 1033.06 499.108 1033.36 498.791C1033.65 498.474 1034 498.229 1034.42 498.056C1034.84 497.883 1035.31 497.797 1035.83 497.797ZM1035.83 504.125C1036.53 504.125 1037.06 503.892 1037.4 503.425C1037.75 502.954 1037.92 502.298 1037.92 501.458C1037.92 500.613 1037.75 499.955 1037.4 499.484C1037.06 499.013 1036.53 498.777 1035.83 498.777C1035.48 498.777 1035.17 498.838 1034.9 498.959C1034.64 499.08 1034.42 499.255 1034.24 499.484C1034.07 499.713 1033.94 499.995 1033.85 500.331C1033.77 500.662 1033.73 501.038 1033.73 501.458C1033.73 502.298 1033.9 502.954 1034.24 503.425C1034.59 503.892 1035.12 504.125 1035.83 504.125ZM1041.4 505V498.973L1040.62 498.882C1040.52 498.859 1040.44 498.824 1040.37 498.777C1040.31 498.726 1040.28 498.653 1040.28 498.56V498.049H1041.4V497.363C1041.4 496.957 1041.46 496.598 1041.57 496.285C1041.68 495.968 1041.85 495.702 1042.06 495.487C1042.27 495.268 1042.53 495.102 1042.83 494.99C1043.13 494.878 1043.46 494.822 1043.84 494.822C1044.15 494.822 1044.44 494.869 1044.71 494.962L1044.68 495.585C1044.67 495.697 1044.61 495.758 1044.49 495.767C1044.38 495.776 1044.23 495.781 1044.04 495.781C1043.82 495.781 1043.63 495.809 1043.45 495.865C1043.28 495.921 1043.13 496.012 1043 496.138C1042.88 496.264 1042.78 496.43 1042.71 496.635C1042.64 496.84 1042.61 497.095 1042.61 497.398V498.049H1044.65V498.952H1042.65V505H1041.4ZM1052.76 497.797C1053.27 497.797 1053.74 497.883 1054.16 498.056C1054.57 498.229 1054.93 498.474 1055.22 498.791C1055.51 499.108 1055.74 499.493 1055.89 499.946C1056.05 500.394 1056.13 500.896 1056.13 501.451C1056.13 502.011 1056.05 502.515 1055.89 502.963C1055.74 503.411 1055.51 503.794 1055.22 504.111C1054.93 504.428 1054.57 504.673 1054.16 504.846C1053.74 505.014 1053.27 505.098 1052.76 505.098C1052.23 505.098 1051.76 505.014 1051.34 504.846C1050.93 504.673 1050.57 504.428 1050.28 504.111C1049.98 503.794 1049.76 503.411 1049.6 502.963C1049.45 502.515 1049.37 502.011 1049.37 501.451C1049.37 500.896 1049.45 500.394 1049.6 499.946C1049.76 499.493 1049.98 499.108 1050.28 498.791C1050.57 498.474 1050.93 498.229 1051.34 498.056C1051.76 497.883 1052.23 497.797 1052.76 497.797ZM1052.76 504.125C1053.46 504.125 1053.98 503.892 1054.32 503.425C1054.67 502.954 1054.84 502.298 1054.84 501.458C1054.84 500.613 1054.67 499.955 1054.32 499.484C1053.98 499.013 1053.46 498.777 1052.76 498.777C1052.4 498.777 1052.09 498.838 1051.83 498.959C1051.56 499.08 1051.35 499.255 1051.17 499.484C1051 499.713 1050.86 499.995 1050.78 500.331C1050.69 500.662 1050.65 501.038 1050.65 501.458C1050.65 502.298 1050.82 502.954 1051.17 503.425C1051.52 503.892 1052.05 504.125 1052.76 504.125Z" fill="black"/>
<line y1="-0.5" x2="14" y2="-0.5" transform="matrix(-4.67672e-06 1 -1 -1.63421e-09 962 574)" stroke="black"/>
<line x1="162.5" y1="574" x2="162.5" y2="588" stroke="black"/>
<line x1="162" y1="587.5" x2="962" y2="587.5" stroke="black"/>
<line y1="-0.5" x2="14" y2="-0.5" transform="matrix(-1 -2.63065e-06 2.90526e-09 -1 152 564)" stroke="black"/>
<line x1="152" y1="114.5" x2="138" y2="114.5" stroke="black"/>
<line x1="138.5" y1="114" x2="138.5" y2="564" stroke="black"/>
<path d="M561.17 606.33C561.394 605.845 561.669 605.467 561.996 605.196C562.323 604.921 562.722 604.783 563.193 604.783C563.342 604.783 563.485 604.799 563.62 604.832C563.76 604.865 563.884 604.916 563.991 604.986L563.9 605.917C563.872 606.034 563.802 606.092 563.69 606.092C563.625 606.092 563.529 606.078 563.403 606.05C563.277 606.022 563.135 606.008 562.976 606.008C562.752 606.008 562.551 606.041 562.374 606.106C562.201 606.171 562.045 606.269 561.905 606.4C561.77 606.526 561.646 606.685 561.534 606.876C561.427 607.063 561.329 607.277 561.24 607.52V612H559.987V604.909H560.701C560.836 604.909 560.93 604.935 560.981 604.986C561.032 605.037 561.067 605.126 561.086 605.252L561.17 606.33Z" fill="black"/>
<g clip-path="url(#clip0)">
<path fill-rule="evenodd" clip-rule="evenodd" d="M285.057 484.161C283.092 484.161 281.89 485.197 281.89 487.314V504.346H281.798L270.288 485.864C269.572 484.668 268.37 484.138 267.006 484.138C264.21 484.138 262.869 485.266 262.869 487.959V510.745C262.869 512.862 264.071 513.898 266.035 513.898C268 513.898 269.202 512.862 269.202 510.745V494.196H269.271L280.688 512.149C281.521 513.461 282.214 513.898 284.294 513.898C287.067 513.898 288.177 512.425 288.177 509.824V487.291C288.223 485.197 287.021 484.161 285.057 484.161Z" fill="#243741"/>
<path fill-rule="evenodd" clip-rule="evenodd" d="M310.457 484.161C309.093 484.161 308.376 484.644 307.614 486.071L301.928 496.567L296.197 486.071C295.526 484.806 294.787 484.161 293.238 484.161C291.967 484.161 289.91 484.921 289.91 487.153C289.91 487.752 290.141 488.35 290.465 488.879L298.508 502.206V510.676C298.508 512.632 299.779 513.944 301.79 513.944C303.8 513.944 305.072 512.632 305.072 510.676V502.206L313.114 488.879C313.438 488.35 313.669 487.752 313.669 487.153C313.692 484.921 311.658 484.161 310.457 484.161Z" fill="#243741"/>
<path fill-rule="evenodd" clip-rule="evenodd" d="M339.67 487.084C339.67 484.898 337.983 484.161 336.342 484.161C334.816 484.161 333.869 485.082 333.268 487.038L327.097 506.579H327.028L321.088 487.038C320.487 485.082 319.516 484.161 317.76 484.161C316.119 484.161 314.432 484.875 314.432 487.084C314.432 487.614 314.547 488.235 314.824 488.995L322.914 511.665C323.584 513.53 324.878 513.944 326.912 513.944C328.946 513.944 330.24 513.553 330.91 511.665L339.254 488.995C339.554 488.235 339.67 487.591 339.67 487.084Z" fill="#243741"/>
<path fill-rule="evenodd" clip-rule="evenodd" d="M352.335 486.555C351.618 484.529 350.301 484.161 348.799 484.161H347.227C345.633 484.161 344.593 484.691 344.015 486.164L335.51 508.558C335.278 509.203 334.862 510.354 334.862 511.067C334.862 512.816 336.11 513.944 337.913 513.944C339.485 513.944 340.386 513.415 340.848 512.149L342.582 507.362H353.167L354.854 512.149C355.34 513.415 356.38 513.944 357.813 513.944C359.5 513.944 360.909 512.678 360.909 511.067C360.909 510.354 360.517 509.203 360.262 508.558L352.335 486.555ZM344.038 502.804L347.921 491.273H347.99L351.711 502.804H344.038Z" fill="#243741"/>
<path fill-rule="evenodd" clip-rule="evenodd" d="M384.739 484.161C382.774 484.161 381.572 485.197 381.572 487.314V504.346H381.503L369.993 485.864C369.277 484.668 368.075 484.138 366.711 484.138C363.915 484.138 362.574 485.266 362.574 487.959V510.745C362.574 512.862 363.776 513.898 365.74 513.898C367.705 513.898 368.907 512.862 368.907 510.745V494.196H368.976L380.393 512.149C381.226 513.461 381.919 513.898 383.999 513.898C386.772 513.898 387.882 512.425 387.882 509.824V487.291C387.905 485.197 386.703 484.161 384.739 484.161Z" fill="#243741"/>
<path d="M226.26 511.942C228.174 511.942 229.727 510.396 229.727 508.489C229.727 506.582 228.174 505.037 226.26 505.037C224.345 505.037 222.793 506.582 222.793 508.489C222.793 510.396 224.345 511.942 226.26 511.942Z" fill="#243741"/>
<path fill-rule="evenodd" clip-rule="evenodd" d="M253.439 486.555C252.723 484.529 251.405 484.161 249.903 484.161H248.332C248.193 484.161 248.054 484.161 247.916 484.184H215.744C213.71 484.184 212.046 485.841 212.046 487.867V510.262C212.046 512.287 213.71 513.944 215.744 513.944H238.994V513.921H239.064C240.635 513.921 241.537 513.392 241.999 512.126L243.732 507.338H254.318L256.005 512.126C256.49 513.392 257.53 513.921 258.963 513.921C260.65 513.921 262.037 512.655 262.037 511.044C262.037 510.331 261.644 509.18 261.39 508.535L253.439 486.555ZM226.26 512.724C223.925 512.724 222.007 510.837 222.007 508.489C222.007 506.165 223.902 504.254 226.26 504.254C228.594 504.254 230.512 506.142 230.512 508.489C230.489 510.837 228.594 512.724 226.26 512.724ZM235.25 508.812H231.344C231.344 507.983 230.998 503.38 226.144 503.38C221.291 503.38 221.083 508.857 221.083 508.857H220.043C220.043 508.857 217.015 507.638 216.391 507.315C215.767 506.97 215.698 505.267 215.698 505.267V503.771H216.229V502.252C216.483 499.03 224.411 496.13 224.411 496.13C224.411 496.13 231.067 489.593 232.107 488.672C234.349 486.716 243.432 487.153 243.432 487.153L235.25 508.812ZM245.142 502.804L249.025 491.273H249.094L252.815 502.804H245.142Z" fill="#243741"/>
<path fill-rule="evenodd" clip-rule="evenodd" d="M221.591 500.019C221.314 499.95 220.297 499.95 219.858 499.927C219.719 499.927 219.58 499.973 219.488 500.065C219.28 500.226 218.956 500.549 218.656 500.94C218.309 501.4 218.055 501.976 217.893 502.344C217.778 502.643 218.101 502.666 218.101 502.666L218.864 502.827C218.956 502.85 219.049 502.827 219.118 502.758L221.66 500.549C221.637 500.549 222.007 500.111 221.591 500.019Z" fill="#243741"/>
<path fill-rule="evenodd" clip-rule="evenodd" d="M238.763 489.087C238.416 489.087 235.204 489.432 234.58 489.547C233.956 489.662 233.031 490.376 233.031 490.376L229.079 494.726V497.051L237.446 495.439C237.446 495.439 238.532 495.232 238.694 493.851C238.856 492.47 239.202 489.524 239.202 489.524C239.202 489.524 239.11 489.087 238.763 489.087Z" fill="#243741"/>
</g>
<g opacity="0.3" clip-path="url(#clip1)">
<path fill-rule="evenodd" clip-rule="evenodd" d="M285.057 164.161C283.092 164.161 281.89 165.197 281.89 167.314V184.346H281.798L270.288 165.864C269.572 164.668 268.37 164.138 267.006 164.138C264.21 164.138 262.869 165.266 262.869 167.959V190.745C262.869 192.862 264.071 193.898 266.035 193.898C268 193.898 269.202 192.862 269.202 190.745V174.196H269.271L280.688 192.149C281.521 193.461 282.214 193.898 284.294 193.898C287.067 193.898 288.177 192.425 288.177 189.824V167.291C288.223 165.197 287.021 164.161 285.057 164.161Z" fill="#243741"/>
<path fill-rule="evenodd" clip-rule="evenodd" d="M310.457 164.161C309.093 164.161 308.376 164.644 307.614 166.071L301.928 176.567L296.197 166.071C295.526 164.806 294.787 164.161 293.238 164.161C291.967 164.161 289.91 164.921 289.91 167.153C289.91 167.752 290.141 168.35 290.465 168.879L298.508 182.206V190.676C298.508 192.632 299.779 193.944 301.79 193.944C303.8 193.944 305.072 192.632 305.072 190.676V182.206L313.114 168.879C313.438 168.35 313.669 167.752 313.669 167.153C313.692 164.921 311.658 164.161 310.457 164.161Z" fill="#243741"/>
<path fill-rule="evenodd" clip-rule="evenodd" d="M339.67 167.084C339.67 164.898 337.983 164.161 336.342 164.161C334.816 164.161 333.869 165.082 333.268 167.038L327.097 186.579H327.028L321.088 167.038C320.487 165.082 319.516 164.161 317.76 164.161C316.119 164.161 314.432 164.875 314.432 167.084C314.432 167.614 314.547 168.235 314.824 168.995L322.914 191.665C323.584 193.53 324.878 193.944 326.912 193.944C328.946 193.944 330.24 193.553 330.91 191.665L339.254 168.995C339.554 168.235 339.67 167.591 339.67 167.084Z" fill="#243741"/>
<path fill-rule="evenodd" clip-rule="evenodd" d="M352.335 166.555C351.618 164.529 350.301 164.161 348.799 164.161H347.227C345.633 164.161 344.593 164.691 344.015 166.164L335.51 188.558C335.278 189.203 334.862 190.354 334.862 191.067C334.862 192.816 336.11 193.944 337.913 193.944C339.485 193.944 340.386 193.415 340.848 192.149L342.582 187.362H353.167L354.854 192.149C355.34 193.415 356.38 193.944 357.813 193.944C359.5 193.944 360.909 192.678 360.909 191.067C360.909 190.354 360.517 189.203 360.262 188.558L352.335 166.555ZM344.038 182.804L347.921 171.273H347.99L351.711 182.804H344.038Z" fill="#243741"/>
<path fill-rule="evenodd" clip-rule="evenodd" d="M384.739 164.161C382.774 164.161 381.572 165.197 381.572 167.314V184.346H381.503L369.993 165.864C369.277 164.668 368.075 164.138 366.711 164.138C363.915 164.138 362.574 165.266 362.574 167.959V190.745C362.574 192.862 363.776 193.898 365.74 193.898C367.705 193.898 368.907 192.862 368.907 190.745V174.196H368.976L380.393 192.149C381.226 193.461 381.919 193.898 383.999 193.898C386.772 193.898 387.882 192.425 387.882 189.824V167.291C387.905 165.197 386.703 164.161 384.739 164.161Z" fill="#243741"/>
<path d="M226.26 191.942C228.174 191.942 229.727 190.396 229.727 188.489C229.727 186.582 228.174 185.037 226.26 185.037C224.345 185.037 222.793 186.582 222.793 188.489C222.793 190.396 224.345 191.942 226.26 191.942Z" fill="#243741"/>
<path fill-rule="evenodd" clip-rule="evenodd" d="M253.439 166.555C252.723 164.529 251.405 164.161 249.903 164.161H248.332C248.193 164.161 248.054 164.161 247.916 164.184H215.744C213.71 164.184 212.046 165.841 212.046 167.867V190.262C212.046 192.287 213.71 193.944 215.744 193.944H238.994V193.921H239.064C240.635 193.921 241.537 193.392 241.999 192.126L243.732 187.338H254.318L256.005 192.126C256.49 193.392 257.53 193.921 258.963 193.921C260.65 193.921 262.037 192.655 262.037 191.044C262.037 190.331 261.644 189.18 261.39 188.535L253.439 166.555ZM226.26 192.724C223.925 192.724 222.007 190.837 222.007 188.489C222.007 186.165 223.902 184.254 226.26 184.254C228.594 184.254 230.512 186.142 230.512 188.489C230.489 190.837 228.594 192.724 226.26 192.724ZM235.25 188.812H231.344C231.344 187.983 230.998 183.38 226.144 183.38C221.291 183.38 221.083 188.857 221.083 188.857H220.043C220.043 188.857 217.015 187.638 216.391 187.315C215.767 186.97 215.698 185.267 215.698 185.267V183.771H216.229V182.252C216.483 179.03 224.411 176.13 224.411 176.13C224.411 176.13 231.067 169.593 232.107 168.672C234.349 166.716 243.432 167.153 243.432 167.153L235.25 188.812ZM245.142 182.804L249.025 171.273H249.094L252.815 182.804H245.142Z" fill="#243741"/>
<path fill-rule="evenodd" clip-rule="evenodd" d="M221.591 180.019C221.314 179.95 220.297 179.95 219.858 179.927C219.719 179.927 219.58 179.973 219.488 180.065C219.28 180.226 218.956 180.549 218.656 180.94C218.309 181.4 218.055 181.976 217.893 182.344C217.778 182.643 218.101 182.666 218.101 182.666L218.864 182.827C218.956 182.85 219.049 182.827 219.118 182.758L221.66 180.549C221.637 180.549 222.007 180.111 221.591 180.019Z" fill="#243741"/>
<path fill-rule="evenodd" clip-rule="evenodd" d="M238.763 169.087C238.416 169.087 235.204 169.432 234.58 169.547C233.956 169.662 233.031 170.376 233.031 170.376L229.079 174.726V177.051L237.446 175.439C237.446 175.439 238.532 175.232 238.694 173.851C238.856 172.47 239.202 169.524 239.202 169.524C239.202 169.524 239.11 169.087 238.763 169.087Z" fill="#243741"/>
</g>
<defs>
<clipPath id="clip0">
<rect width="175.882" height="30" fill="white" transform="translate(212 484)"/>
</clipPath>
<clipPath id="clip1">
<rect width="175.882" height="30" fill="white" transform="translate(212 164)"/>
</clipPath>
</defs>
</svg>
