<svg width="1204" height="678" viewBox="0 0 1204 678" fill="none" xmlns="http://www.w3.org/2000/svg">
<rect width="1204" height="677.25" fill="white"/>
<rect x="183.5" y="132.5" width="799" height="449" stroke="#D8D8D8"/>
<path d="M582.126 108.048V109H576.75V108.048H578.899V101.209C578.899 101.004 578.906 100.796 578.92 100.586L577.135 102.119C577.074 102.17 577.014 102.203 576.953 102.217C576.892 102.226 576.836 102.226 576.785 102.217C576.734 102.208 576.685 102.189 576.638 102.161C576.596 102.133 576.563 102.103 576.54 102.07L576.148 101.531L579.137 98.948H580.152V108.048H582.126ZM587.467 108.076C587.803 108.076 588.106 108.022 588.377 107.915C588.652 107.808 588.886 107.658 589.077 107.467C589.273 107.276 589.422 107.049 589.525 106.788C589.632 106.527 589.686 106.242 589.686 105.934C589.686 105.607 589.635 105.313 589.532 105.052C589.429 104.786 589.282 104.562 589.091 104.38C588.904 104.193 588.68 104.051 588.419 103.953C588.158 103.855 587.871 103.806 587.558 103.806C587.222 103.806 586.919 103.864 586.648 103.981C586.377 104.093 586.146 104.247 585.955 104.443C585.768 104.634 585.624 104.858 585.521 105.115C585.423 105.367 585.374 105.631 585.374 105.906C585.374 106.228 585.421 106.522 585.514 106.788C585.607 107.054 585.743 107.283 585.92 107.474C586.102 107.665 586.321 107.815 586.578 107.922C586.839 108.025 587.136 108.076 587.467 108.076ZM586.739 102.728C586.65 102.84 586.564 102.95 586.48 103.057C586.401 103.16 586.324 103.262 586.249 103.365C586.487 103.202 586.748 103.076 587.033 102.987C587.318 102.898 587.628 102.854 587.964 102.854C588.37 102.854 588.753 102.922 589.112 103.057C589.471 103.188 589.784 103.381 590.05 103.638C590.321 103.89 590.535 104.203 590.694 104.576C590.853 104.945 590.932 105.367 590.932 105.843C590.932 106.305 590.848 106.734 590.68 107.131C590.512 107.528 590.276 107.873 589.973 108.167C589.674 108.461 589.313 108.692 588.888 108.86C588.468 109.028 588.004 109.112 587.495 109.112C586.991 109.112 586.534 109.033 586.123 108.874C585.712 108.711 585.362 108.482 585.073 108.188C584.788 107.889 584.567 107.53 584.408 107.11C584.254 106.685 584.177 106.212 584.177 105.689C584.177 105.25 584.273 104.784 584.464 104.289C584.66 103.79 584.97 103.258 585.395 102.693L587.943 99.27C588.008 99.186 588.097 99.116 588.209 99.06C588.326 98.9993 588.459 98.969 588.608 98.969H589.714L586.739 102.728Z" fill="black"/>
<path d="M1014.98 355.916C1014.98 356.233 1015.03 356.518 1015.11 356.77C1015.21 357.017 1015.34 357.227 1015.51 357.4C1015.68 357.573 1015.89 357.703 1016.13 357.792C1016.38 357.881 1016.65 357.925 1016.95 357.925C1017.29 357.925 1017.59 357.871 1017.84 357.764C1018.11 357.652 1018.32 357.505 1018.5 357.323C1018.68 357.141 1018.81 356.931 1018.91 356.693C1019 356.455 1019.05 356.208 1019.05 355.951C1019.05 355.638 1019 355.356 1018.89 355.104C1018.8 354.847 1018.66 354.63 1018.48 354.453C1018.3 354.276 1018.09 354.14 1017.84 354.047C1017.6 353.949 1017.33 353.9 1017.04 353.9C1016.73 353.9 1016.45 353.951 1016.2 354.054C1015.95 354.152 1015.73 354.29 1015.55 354.467C1015.37 354.644 1015.23 354.857 1015.13 355.104C1015.03 355.351 1014.98 355.622 1014.98 355.916ZM1017.89 359.003C1018 358.868 1018.09 358.739 1018.18 358.618C1018.27 358.497 1018.35 358.375 1018.43 358.254C1018.18 358.459 1017.89 358.616 1017.56 358.723C1017.24 358.83 1016.9 358.884 1016.54 358.884C1016.16 358.884 1015.8 358.821 1015.46 358.695C1015.13 358.569 1014.83 358.385 1014.58 358.142C1014.32 357.895 1014.11 357.594 1013.96 357.239C1013.81 356.88 1013.74 356.469 1013.74 356.007C1013.74 355.568 1013.82 355.158 1013.98 354.775C1014.14 354.392 1014.37 354.059 1014.67 353.774C1014.96 353.489 1015.31 353.265 1015.72 353.102C1016.12 352.939 1016.57 352.857 1017.05 352.857C1017.53 352.857 1017.97 352.936 1018.36 353.095C1018.75 353.254 1019.09 353.475 1019.37 353.76C1019.65 354.045 1019.86 354.385 1020.01 354.782C1020.17 355.179 1020.25 355.617 1020.25 356.098C1020.25 356.387 1020.22 356.663 1020.16 356.924C1020.11 357.181 1020.03 357.435 1019.93 357.687C1019.83 357.934 1019.71 358.182 1019.57 358.429C1019.42 358.672 1019.26 358.921 1019.08 359.178L1016.63 362.706C1016.57 362.795 1016.49 362.867 1016.37 362.923C1016.26 362.974 1016.13 363 1015.99 363H1014.84L1017.89 359.003Z" fill="black"/>
</svg>
