<svg width="1204" height="678" viewBox="0 0 1204 678" fill="none" xmlns="http://www.w3.org/2000/svg">
<rect width="1204" height="677.25" fill="white"/>
<rect x="162.5" y="114.5" width="799" height="449" stroke="#D8D8D8"/>
<rect x="162.5" y="563.5" width="449" height="49" transform="rotate(-90 162.5 563.5)" stroke="#D8D8D8"/>
<rect x="912.5" y="563.5" width="449" height="49" transform="rotate(-90 912.5 563.5)" stroke="#D8D8D8"/>
<rect x="162.5" y="114.5" width="799" height="49" stroke="#D8D8D8"/>
<rect x="162.5" y="439.5" width="799" height="49" stroke="#D8D8D8"/>
<rect x="162.5" y="514.5" width="799" height="49" stroke="#D8D8D8"/>
<line x1="162.5" y1="104" x2="162.5" y2="90" stroke="black"/>
<line x1="211.5" y1="104" x2="211.5" y2="90" stroke="black"/>
<line x1="212" y1="90.5" x2="163" y2="90.5" stroke="black"/>
<path d="M168.046 76.076C168.382 76.076 168.685 76.0223 168.956 75.915C169.231 75.8077 169.465 75.6583 169.656 75.467C169.852 75.2757 170.001 75.0493 170.104 74.788C170.211 74.5267 170.265 74.242 170.265 73.934C170.265 73.6073 170.214 73.3133 170.111 73.052C170.008 72.786 169.861 72.562 169.67 72.38C169.483 72.1933 169.259 72.051 168.998 71.953C168.737 71.855 168.45 71.806 168.137 71.806C167.801 71.806 167.498 71.8643 167.227 71.981C166.956 72.093 166.725 72.247 166.534 72.443C166.347 72.6343 166.203 72.8583 166.1 73.115C166.002 73.367 165.953 73.6307 165.953 73.906C165.953 74.228 166 74.522 166.093 74.788C166.186 75.054 166.322 75.2827 166.499 75.474C166.681 75.6653 166.9 75.8147 167.157 75.922C167.418 76.0247 167.715 76.076 168.046 76.076ZM167.318 70.728C167.229 70.84 167.143 70.9497 167.059 71.057C166.98 71.1597 166.903 71.2623 166.828 71.365C167.066 71.2017 167.327 71.0757 167.612 70.987C167.897 70.8983 168.207 70.854 168.543 70.854C168.949 70.854 169.332 70.9217 169.691 71.057C170.05 71.1877 170.363 71.3813 170.629 71.638C170.9 71.89 171.114 72.2027 171.273 72.576C171.432 72.9447 171.511 73.367 171.511 73.843C171.511 74.305 171.427 74.7343 171.259 75.131C171.091 75.5277 170.855 75.873 170.552 76.167C170.253 76.461 169.892 76.692 169.467 76.86C169.047 77.028 168.583 77.112 168.074 77.112C167.57 77.112 167.113 77.0327 166.702 76.874C166.291 76.7107 165.941 76.482 165.652 76.188C165.367 75.8893 165.146 75.53 164.987 75.11C164.833 74.6853 164.756 74.2117 164.756 73.689C164.756 73.2503 164.852 72.7837 165.043 72.289C165.239 71.7897 165.549 71.2577 165.974 70.693L168.522 67.27C168.587 67.186 168.676 67.116 168.788 67.06C168.905 66.9993 169.038 66.969 169.187 66.969H170.293L167.318 70.728ZM177.475 69.391C177.475 69.783 177.414 70.1353 177.293 70.448C177.172 70.756 177.008 71.0173 176.803 71.232C176.602 71.442 176.367 71.603 176.096 71.715C175.83 71.827 175.548 71.883 175.249 71.883C174.936 71.883 174.645 71.827 174.374 71.715C174.103 71.603 173.868 71.442 173.667 71.232C173.471 71.0173 173.317 70.756 173.205 70.448C173.093 70.1353 173.037 69.783 173.037 69.391C173.037 68.9897 173.093 68.6327 173.205 68.32C173.317 68.0073 173.471 67.7437 173.667 67.529C173.868 67.3143 174.103 67.151 174.374 67.039C174.645 66.927 174.936 66.871 175.249 66.871C175.566 66.871 175.86 66.927 176.131 67.039C176.402 67.151 176.637 67.3143 176.838 67.529C177.039 67.7437 177.195 68.0073 177.307 68.32C177.419 68.6327 177.475 68.9897 177.475 69.391ZM176.509 69.391C176.509 69.083 176.476 68.8217 176.411 68.607C176.346 68.3923 176.255 68.2173 176.138 68.082C176.026 67.942 175.893 67.8417 175.739 67.781C175.585 67.7203 175.422 67.69 175.249 67.69C175.076 67.69 174.915 67.7203 174.766 67.781C174.617 67.8417 174.486 67.942 174.374 68.082C174.262 68.2173 174.173 68.3923 174.108 68.607C174.043 68.8217 174.01 69.083 174.01 69.391C174.01 69.6943 174.043 69.9533 174.108 70.168C174.173 70.378 174.262 70.5507 174.374 70.686C174.486 70.8167 174.617 70.9123 174.766 70.973C174.915 71.029 175.076 71.057 175.249 71.057C175.422 71.057 175.585 71.029 175.739 70.973C175.893 70.9123 176.026 70.8167 176.138 70.686C176.255 70.5507 176.346 70.378 176.411 70.168C176.476 69.9533 176.509 69.6943 176.509 69.391ZM181.024 67.179C181.071 67.123 181.124 67.074 181.185 67.032C181.25 66.99 181.337 66.969 181.444 66.969H182.347L175.011 76.797C174.969 76.8577 174.915 76.9067 174.85 76.944C174.785 76.9813 174.705 77 174.612 77H173.695L181.024 67.179ZM183.026 74.634C183.026 75.026 182.965 75.376 182.844 75.684C182.723 75.992 182.559 76.2533 182.354 76.468C182.153 76.678 181.918 76.839 181.647 76.951C181.381 77.063 181.099 77.119 180.8 77.119C180.483 77.119 180.189 77.063 179.918 76.951C179.652 76.839 179.419 76.678 179.218 76.468C179.022 76.2533 178.868 75.992 178.756 75.684C178.644 75.376 178.588 75.026 178.588 74.634C178.588 74.2327 178.644 73.8757 178.756 73.563C178.868 73.2457 179.022 72.9797 179.218 72.765C179.419 72.5503 179.652 72.387 179.918 72.275C180.189 72.163 180.483 72.107 180.8 72.107C181.113 72.107 181.404 72.163 181.675 72.275C181.95 72.387 182.186 72.5503 182.382 72.765C182.583 72.9797 182.739 73.2457 182.851 73.563C182.968 73.8757 183.026 74.2327 183.026 74.634ZM182.06 74.634C182.06 74.326 182.027 74.0647 181.962 73.85C181.897 73.6307 181.806 73.4533 181.689 73.318C181.577 73.1827 181.444 73.0847 181.29 73.024C181.136 72.9633 180.973 72.933 180.8 72.933C180.627 72.933 180.464 72.9633 180.31 73.024C180.161 73.0847 180.03 73.1827 179.918 73.318C179.806 73.4533 179.717 73.6307 179.652 73.85C179.591 74.0647 179.561 74.326 179.561 74.634C179.561 74.9373 179.591 75.194 179.652 75.404C179.717 75.614 179.806 75.7867 179.918 75.922C180.03 76.0527 180.161 76.1483 180.31 76.209C180.464 76.265 180.627 76.293 180.8 76.293C180.973 76.293 181.136 76.265 181.29 76.209C181.444 76.1483 181.577 76.0527 181.689 75.922C181.806 75.7867 181.897 75.614 181.962 75.404C182.027 75.194 182.06 74.9373 182.06 74.634ZM191.804 69.797C192.322 69.797 192.788 69.8833 193.204 70.056C193.619 70.2287 193.974 70.4737 194.268 70.791C194.562 71.1083 194.786 71.4933 194.94 71.946C195.098 72.394 195.178 72.8957 195.178 73.451C195.178 74.011 195.098 74.515 194.94 74.963C194.786 75.411 194.562 75.7937 194.268 76.111C193.974 76.4283 193.619 76.6733 193.204 76.846C192.788 77.014 192.322 77.098 191.804 77.098C191.281 77.098 190.81 77.014 190.39 76.846C189.974 76.6733 189.62 76.4283 189.326 76.111C189.032 75.7937 188.805 75.411 188.647 74.963C188.493 74.515 188.416 74.011 188.416 73.451C188.416 72.8957 188.493 72.394 188.647 71.946C188.805 71.4933 189.032 71.1083 189.326 70.791C189.62 70.4737 189.974 70.2287 190.39 70.056C190.81 69.8833 191.281 69.797 191.804 69.797ZM191.804 76.125C192.504 76.125 193.026 75.8917 193.372 75.425C193.717 74.9537 193.89 74.298 193.89 73.458C193.89 72.6133 193.717 71.9553 193.372 71.484C193.026 71.0127 192.504 70.777 191.804 70.777C191.449 70.777 191.139 70.8377 190.873 70.959C190.611 71.0803 190.392 71.2553 190.215 71.484C190.042 71.7127 189.911 71.995 189.823 72.331C189.739 72.6623 189.697 73.038 189.697 73.458C189.697 74.298 189.869 74.9537 190.215 75.425C190.565 75.8917 191.094 76.125 191.804 76.125ZM197.37 77V70.973L196.586 70.882C196.488 70.8587 196.406 70.8237 196.341 70.777C196.28 70.7257 196.25 70.6533 196.25 70.56V70.049H197.37V69.363C197.37 68.957 197.426 68.5977 197.538 68.285C197.654 67.9677 197.818 67.7017 198.028 67.487C198.242 67.2677 198.499 67.102 198.798 66.99C199.096 66.878 199.432 66.822 199.806 66.822C200.123 66.822 200.415 66.8687 200.681 66.962L200.653 67.585C200.643 67.697 200.58 67.7577 200.464 67.767C200.352 67.7763 200.2 67.781 200.009 67.781C199.794 67.781 199.598 67.809 199.421 67.865C199.248 67.921 199.099 68.012 198.973 68.138C198.847 68.264 198.749 68.4297 198.679 68.635C198.613 68.8403 198.581 69.0947 198.581 69.398V70.049H200.625V70.952H198.623V77H197.37ZM206.921 71.33C207.145 70.8447 207.421 70.4667 207.747 70.196C208.074 69.9207 208.473 69.783 208.944 69.783C209.094 69.783 209.236 69.7993 209.371 69.832C209.511 69.8647 209.635 69.916 209.742 69.986L209.651 70.917C209.623 71.0337 209.553 71.092 209.441 71.092C209.376 71.092 209.28 71.078 209.154 71.05C209.028 71.022 208.886 71.008 208.727 71.008C208.503 71.008 208.303 71.0407 208.125 71.106C207.953 71.1713 207.796 71.2693 207.656 71.4C207.521 71.526 207.397 71.6847 207.285 71.876C207.178 72.0627 207.08 72.2773 206.991 72.52V77H205.738V69.909H206.452C206.588 69.909 206.681 69.9347 206.732 69.986C206.784 70.0373 206.819 70.126 206.837 70.252L206.921 71.33Z" fill="black"/>
<path d="M123.976 337.797C124.494 337.797 124.961 337.883 125.376 338.056C125.791 338.229 126.146 338.474 126.44 338.791C126.734 339.108 126.958 339.493 127.112 339.946C127.271 340.394 127.35 340.896 127.35 341.451C127.35 342.011 127.271 342.515 127.112 342.963C126.958 343.411 126.734 343.794 126.44 344.111C126.146 344.428 125.791 344.673 125.376 344.846C124.961 345.014 124.494 345.098 123.976 345.098C123.453 345.098 122.982 345.014 122.562 344.846C122.147 344.673 121.792 344.428 121.498 344.111C121.204 343.794 120.978 343.411 120.819 342.963C120.665 342.515 120.588 342.011 120.588 341.451C120.588 340.896 120.665 340.394 120.819 339.946C120.978 339.493 121.204 339.108 121.498 338.791C121.792 338.474 122.147 338.229 122.562 338.056C122.982 337.883 123.453 337.797 123.976 337.797ZM123.976 344.125C124.676 344.125 125.199 343.892 125.544 343.425C125.889 342.954 126.062 342.298 126.062 341.458C126.062 340.613 125.889 339.955 125.544 339.484C125.199 339.013 124.676 338.777 123.976 338.777C123.621 338.777 123.311 338.838 123.045 338.959C122.784 339.08 122.564 339.255 122.387 339.484C122.214 339.713 122.084 339.995 121.995 340.331C121.911 340.662 121.869 341.038 121.869 341.458C121.869 342.298 122.042 342.954 122.387 343.425C122.737 343.892 123.267 344.125 123.976 344.125Z" fill="black"/>
<line x1="972" y1="114.5" x2="986" y2="114.5" stroke="black"/>
<line x1="972" y1="163.5" x2="986" y2="163.5" stroke="black"/>
<line x1="985.5" y1="164" x2="985.5" y2="115" stroke="black"/>
<line x1="972" y1="487.5" x2="986" y2="487.5" stroke="black"/>
<line x1="972" y1="513.5" x2="986" y2="513.5" stroke="black"/>
<line x1="985.5" y1="514" x2="985.5" y2="488" stroke="black"/>
<path d="M1000.05 144.076C1000.38 144.076 1000.69 144.022 1000.96 143.915C1001.23 143.808 1001.46 143.658 1001.66 143.467C1001.85 143.276 1002 143.049 1002.1 142.788C1002.21 142.527 1002.27 142.242 1002.27 141.934C1002.27 141.607 1002.21 141.313 1002.11 141.052C1002.01 140.786 1001.86 140.562 1001.67 140.38C1001.48 140.193 1001.26 140.051 1001 139.953C1000.74 139.855 1000.45 139.806 1000.14 139.806C999.801 139.806 999.498 139.864 999.227 139.981C998.956 140.093 998.725 140.247 998.534 140.443C998.347 140.634 998.203 140.858 998.1 141.115C998.002 141.367 997.953 141.631 997.953 141.906C997.953 142.228 998 142.522 998.093 142.788C998.186 143.054 998.322 143.283 998.499 143.474C998.681 143.665 998.9 143.815 999.157 143.922C999.418 144.025 999.715 144.076 1000.05 144.076ZM999.318 138.728C999.229 138.84 999.143 138.95 999.059 139.057C998.98 139.16 998.903 139.262 998.828 139.365C999.066 139.202 999.327 139.076 999.612 138.987C999.897 138.898 1000.21 138.854 1000.54 138.854C1000.95 138.854 1001.33 138.922 1001.69 139.057C1002.05 139.188 1002.36 139.381 1002.63 139.638C1002.9 139.89 1003.11 140.203 1003.27 140.576C1003.43 140.945 1003.51 141.367 1003.51 141.843C1003.51 142.305 1003.43 142.734 1003.26 143.131C1003.09 143.528 1002.86 143.873 1002.55 144.167C1002.25 144.461 1001.89 144.692 1001.47 144.86C1001.05 145.028 1000.58 145.112 1000.07 145.112C999.57 145.112 999.113 145.033 998.702 144.874C998.291 144.711 997.941 144.482 997.652 144.188C997.367 143.889 997.146 143.53 996.987 143.11C996.833 142.685 996.756 142.212 996.756 141.689C996.756 141.25 996.852 140.784 997.043 140.289C997.239 139.79 997.549 139.258 997.974 138.693L1000.52 135.27C1000.59 135.186 1000.68 135.116 1000.79 135.06C1000.9 134.999 1001.04 134.969 1001.19 134.969H1002.29L999.318 138.728ZM1009.48 137.391C1009.48 137.783 1009.41 138.135 1009.29 138.448C1009.17 138.756 1009.01 139.017 1008.8 139.232C1008.6 139.442 1008.37 139.603 1008.1 139.715C1007.83 139.827 1007.55 139.883 1007.25 139.883C1006.94 139.883 1006.64 139.827 1006.37 139.715C1006.1 139.603 1005.87 139.442 1005.67 139.232C1005.47 139.017 1005.32 138.756 1005.21 138.448C1005.09 138.135 1005.04 137.783 1005.04 137.391C1005.04 136.99 1005.09 136.633 1005.21 136.32C1005.32 136.007 1005.47 135.744 1005.67 135.529C1005.87 135.314 1006.1 135.151 1006.37 135.039C1006.64 134.927 1006.94 134.871 1007.25 134.871C1007.57 134.871 1007.86 134.927 1008.13 135.039C1008.4 135.151 1008.64 135.314 1008.84 135.529C1009.04 135.744 1009.2 136.007 1009.31 136.32C1009.42 136.633 1009.48 136.99 1009.48 137.391ZM1008.51 137.391C1008.51 137.083 1008.48 136.822 1008.41 136.607C1008.35 136.392 1008.25 136.217 1008.14 136.082C1008.03 135.942 1007.89 135.842 1007.74 135.781C1007.59 135.72 1007.42 135.69 1007.25 135.69C1007.08 135.69 1006.92 135.72 1006.77 135.781C1006.62 135.842 1006.49 135.942 1006.37 136.082C1006.26 136.217 1006.17 136.392 1006.11 136.607C1006.04 136.822 1006.01 137.083 1006.01 137.391C1006.01 137.694 1006.04 137.953 1006.11 138.168C1006.17 138.378 1006.26 138.551 1006.37 138.686C1006.49 138.817 1006.62 138.912 1006.77 138.973C1006.92 139.029 1007.08 139.057 1007.25 139.057C1007.42 139.057 1007.59 139.029 1007.74 138.973C1007.89 138.912 1008.03 138.817 1008.14 138.686C1008.25 138.551 1008.35 138.378 1008.41 138.168C1008.48 137.953 1008.51 137.694 1008.51 137.391ZM1013.02 135.179C1013.07 135.123 1013.12 135.074 1013.19 135.032C1013.25 134.99 1013.34 134.969 1013.44 134.969H1014.35L1007.01 144.797C1006.97 144.858 1006.92 144.907 1006.85 144.944C1006.78 144.981 1006.71 145 1006.61 145H1005.7L1013.02 135.179ZM1015.03 142.634C1015.03 143.026 1014.97 143.376 1014.84 143.684C1014.72 143.992 1014.56 144.253 1014.35 144.468C1014.15 144.678 1013.92 144.839 1013.65 144.951C1013.38 145.063 1013.1 145.119 1012.8 145.119C1012.48 145.119 1012.19 145.063 1011.92 144.951C1011.65 144.839 1011.42 144.678 1011.22 144.468C1011.02 144.253 1010.87 143.992 1010.76 143.684C1010.64 143.376 1010.59 143.026 1010.59 142.634C1010.59 142.233 1010.64 141.876 1010.76 141.563C1010.87 141.246 1011.02 140.98 1011.22 140.765C1011.42 140.55 1011.65 140.387 1011.92 140.275C1012.19 140.163 1012.48 140.107 1012.8 140.107C1013.11 140.107 1013.4 140.163 1013.68 140.275C1013.95 140.387 1014.19 140.55 1014.38 140.765C1014.58 140.98 1014.74 141.246 1014.85 141.563C1014.97 141.876 1015.03 142.233 1015.03 142.634ZM1014.06 142.634C1014.06 142.326 1014.03 142.065 1013.96 141.85C1013.9 141.631 1013.81 141.453 1013.69 141.318C1013.58 141.183 1013.44 141.085 1013.29 141.024C1013.14 140.963 1012.97 140.933 1012.8 140.933C1012.63 140.933 1012.46 140.963 1012.31 141.024C1012.16 141.085 1012.03 141.183 1011.92 141.318C1011.81 141.453 1011.72 141.631 1011.65 141.85C1011.59 142.065 1011.56 142.326 1011.56 142.634C1011.56 142.937 1011.59 143.194 1011.65 143.404C1011.72 143.614 1011.81 143.787 1011.92 143.922C1012.03 144.053 1012.16 144.148 1012.31 144.209C1012.46 144.265 1012.63 144.293 1012.8 144.293C1012.97 144.293 1013.14 144.265 1013.29 144.209C1013.44 144.148 1013.58 144.053 1013.69 143.922C1013.81 143.787 1013.9 143.614 1013.96 143.404C1014.03 143.194 1014.06 142.937 1014.06 142.634ZM1023.8 137.797C1024.32 137.797 1024.79 137.883 1025.2 138.056C1025.62 138.229 1025.97 138.474 1026.27 138.791C1026.56 139.108 1026.79 139.493 1026.94 139.946C1027.1 140.394 1027.18 140.896 1027.18 141.451C1027.18 142.011 1027.1 142.515 1026.94 142.963C1026.79 143.411 1026.56 143.794 1026.27 144.111C1025.97 144.428 1025.62 144.673 1025.2 144.846C1024.79 145.014 1024.32 145.098 1023.8 145.098C1023.28 145.098 1022.81 145.014 1022.39 144.846C1021.97 144.673 1021.62 144.428 1021.33 144.111C1021.03 143.794 1020.81 143.411 1020.65 142.963C1020.49 142.515 1020.42 142.011 1020.42 141.451C1020.42 140.896 1020.49 140.394 1020.65 139.946C1020.81 139.493 1021.03 139.108 1021.33 138.791C1021.62 138.474 1021.97 138.229 1022.39 138.056C1022.81 137.883 1023.28 137.797 1023.8 137.797ZM1023.8 144.125C1024.5 144.125 1025.03 143.892 1025.37 143.425C1025.72 142.954 1025.89 142.298 1025.89 141.458C1025.89 140.613 1025.72 139.955 1025.37 139.484C1025.03 139.013 1024.5 138.777 1023.8 138.777C1023.45 138.777 1023.14 138.838 1022.87 138.959C1022.61 139.08 1022.39 139.255 1022.21 139.484C1022.04 139.713 1021.91 139.995 1021.82 140.331C1021.74 140.662 1021.7 141.038 1021.7 141.458C1021.7 142.298 1021.87 142.954 1022.21 143.425C1022.56 143.892 1023.09 144.125 1023.8 144.125ZM1029.37 145V138.973L1028.59 138.882C1028.49 138.859 1028.41 138.824 1028.34 138.777C1028.28 138.726 1028.25 138.653 1028.25 138.56V138.049H1029.37V137.363C1029.37 136.957 1029.43 136.598 1029.54 136.285C1029.65 135.968 1029.82 135.702 1030.03 135.487C1030.24 135.268 1030.5 135.102 1030.8 134.99C1031.1 134.878 1031.43 134.822 1031.81 134.822C1032.12 134.822 1032.41 134.869 1032.68 134.962L1032.65 135.585C1032.64 135.697 1032.58 135.758 1032.46 135.767C1032.35 135.776 1032.2 135.781 1032.01 135.781C1031.79 135.781 1031.6 135.809 1031.42 135.865C1031.25 135.921 1031.1 136.012 1030.97 136.138C1030.85 136.264 1030.75 136.43 1030.68 136.635C1030.61 136.84 1030.58 137.095 1030.58 137.398V138.049H1032.62V138.952H1030.62V145H1029.37ZM1038.92 139.33C1039.15 138.845 1039.42 138.467 1039.75 138.196C1040.07 137.921 1040.47 137.783 1040.94 137.783C1041.09 137.783 1041.24 137.799 1041.37 137.832C1041.51 137.865 1041.63 137.916 1041.74 137.986L1041.65 138.917C1041.62 139.034 1041.55 139.092 1041.44 139.092C1041.38 139.092 1041.28 139.078 1041.15 139.05C1041.03 139.022 1040.89 139.008 1040.73 139.008C1040.5 139.008 1040.3 139.041 1040.13 139.106C1039.95 139.171 1039.8 139.269 1039.66 139.4C1039.52 139.526 1039.4 139.685 1039.29 139.876C1039.18 140.063 1039.08 140.277 1038.99 140.52V145H1037.74V137.909H1038.45C1038.59 137.909 1038.68 137.935 1038.73 137.986C1038.78 138.037 1038.82 138.126 1038.84 138.252L1038.92 139.33Z" fill="black"/>
<line x1="972" y1="438.5" x2="986" y2="438.5" stroke="black"/>
<line x1="972" y1="487.5" x2="986" y2="487.5" stroke="black"/>
<line x1="985.5" y1="488" x2="985.5" y2="439" stroke="black"/>
<path d="M1000.05 468.076C1000.38 468.076 1000.69 468.022 1000.96 467.915C1001.23 467.808 1001.46 467.658 1001.66 467.467C1001.85 467.276 1002 467.049 1002.1 466.788C1002.21 466.527 1002.27 466.242 1002.27 465.934C1002.27 465.607 1002.21 465.313 1002.11 465.052C1002.01 464.786 1001.86 464.562 1001.67 464.38C1001.48 464.193 1001.26 464.051 1001 463.953C1000.74 463.855 1000.45 463.806 1000.14 463.806C999.801 463.806 999.498 463.864 999.227 463.981C998.956 464.093 998.725 464.247 998.534 464.443C998.347 464.634 998.203 464.858 998.1 465.115C998.002 465.367 997.953 465.631 997.953 465.906C997.953 466.228 998 466.522 998.093 466.788C998.186 467.054 998.322 467.283 998.499 467.474C998.681 467.665 998.9 467.815 999.157 467.922C999.418 468.025 999.715 468.076 1000.05 468.076ZM999.318 462.728C999.229 462.84 999.143 462.95 999.059 463.057C998.98 463.16 998.903 463.262 998.828 463.365C999.066 463.202 999.327 463.076 999.612 462.987C999.897 462.898 1000.21 462.854 1000.54 462.854C1000.95 462.854 1001.33 462.922 1001.69 463.057C1002.05 463.188 1002.36 463.381 1002.63 463.638C1002.9 463.89 1003.11 464.203 1003.27 464.576C1003.43 464.945 1003.51 465.367 1003.51 465.843C1003.51 466.305 1003.43 466.734 1003.26 467.131C1003.09 467.528 1002.86 467.873 1002.55 468.167C1002.25 468.461 1001.89 468.692 1001.47 468.86C1001.05 469.028 1000.58 469.112 1000.07 469.112C999.57 469.112 999.113 469.033 998.702 468.874C998.291 468.711 997.941 468.482 997.652 468.188C997.367 467.889 997.146 467.53 996.987 467.11C996.833 466.685 996.756 466.212 996.756 465.689C996.756 465.25 996.852 464.784 997.043 464.289C997.239 463.79 997.549 463.258 997.974 462.693L1000.52 459.27C1000.59 459.186 1000.68 459.116 1000.79 459.06C1000.9 458.999 1001.04 458.969 1001.19 458.969H1002.29L999.318 462.728ZM1009.48 461.391C1009.48 461.783 1009.41 462.135 1009.29 462.448C1009.17 462.756 1009.01 463.017 1008.8 463.232C1008.6 463.442 1008.37 463.603 1008.1 463.715C1007.83 463.827 1007.55 463.883 1007.25 463.883C1006.94 463.883 1006.64 463.827 1006.37 463.715C1006.1 463.603 1005.87 463.442 1005.67 463.232C1005.47 463.017 1005.32 462.756 1005.21 462.448C1005.09 462.135 1005.04 461.783 1005.04 461.391C1005.04 460.99 1005.09 460.633 1005.21 460.32C1005.32 460.007 1005.47 459.744 1005.67 459.529C1005.87 459.314 1006.1 459.151 1006.37 459.039C1006.64 458.927 1006.94 458.871 1007.25 458.871C1007.57 458.871 1007.86 458.927 1008.13 459.039C1008.4 459.151 1008.64 459.314 1008.84 459.529C1009.04 459.744 1009.2 460.007 1009.31 460.32C1009.42 460.633 1009.48 460.99 1009.48 461.391ZM1008.51 461.391C1008.51 461.083 1008.48 460.822 1008.41 460.607C1008.35 460.392 1008.25 460.217 1008.14 460.082C1008.03 459.942 1007.89 459.842 1007.74 459.781C1007.59 459.72 1007.42 459.69 1007.25 459.69C1007.08 459.69 1006.92 459.72 1006.77 459.781C1006.62 459.842 1006.49 459.942 1006.37 460.082C1006.26 460.217 1006.17 460.392 1006.11 460.607C1006.04 460.822 1006.01 461.083 1006.01 461.391C1006.01 461.694 1006.04 461.953 1006.11 462.168C1006.17 462.378 1006.26 462.551 1006.37 462.686C1006.49 462.817 1006.62 462.912 1006.77 462.973C1006.92 463.029 1007.08 463.057 1007.25 463.057C1007.42 463.057 1007.59 463.029 1007.74 462.973C1007.89 462.912 1008.03 462.817 1008.14 462.686C1008.25 462.551 1008.35 462.378 1008.41 462.168C1008.48 461.953 1008.51 461.694 1008.51 461.391ZM1013.02 459.179C1013.07 459.123 1013.12 459.074 1013.19 459.032C1013.25 458.99 1013.34 458.969 1013.44 458.969H1014.35L1007.01 468.797C1006.97 468.858 1006.92 468.907 1006.85 468.944C1006.78 468.981 1006.71 469 1006.61 469H1005.7L1013.02 459.179ZM1015.03 466.634C1015.03 467.026 1014.97 467.376 1014.84 467.684C1014.72 467.992 1014.56 468.253 1014.35 468.468C1014.15 468.678 1013.92 468.839 1013.65 468.951C1013.38 469.063 1013.1 469.119 1012.8 469.119C1012.48 469.119 1012.19 469.063 1011.92 468.951C1011.65 468.839 1011.42 468.678 1011.22 468.468C1011.02 468.253 1010.87 467.992 1010.76 467.684C1010.64 467.376 1010.59 467.026 1010.59 466.634C1010.59 466.233 1010.64 465.876 1010.76 465.563C1010.87 465.246 1011.02 464.98 1011.22 464.765C1011.42 464.55 1011.65 464.387 1011.92 464.275C1012.19 464.163 1012.48 464.107 1012.8 464.107C1013.11 464.107 1013.4 464.163 1013.68 464.275C1013.95 464.387 1014.19 464.55 1014.38 464.765C1014.58 464.98 1014.74 465.246 1014.85 465.563C1014.97 465.876 1015.03 466.233 1015.03 466.634ZM1014.06 466.634C1014.06 466.326 1014.03 466.065 1013.96 465.85C1013.9 465.631 1013.81 465.453 1013.69 465.318C1013.58 465.183 1013.44 465.085 1013.29 465.024C1013.14 464.963 1012.97 464.933 1012.8 464.933C1012.63 464.933 1012.46 464.963 1012.31 465.024C1012.16 465.085 1012.03 465.183 1011.92 465.318C1011.81 465.453 1011.72 465.631 1011.65 465.85C1011.59 466.065 1011.56 466.326 1011.56 466.634C1011.56 466.937 1011.59 467.194 1011.65 467.404C1011.72 467.614 1011.81 467.787 1011.92 467.922C1012.03 468.053 1012.16 468.148 1012.31 468.209C1012.46 468.265 1012.63 468.293 1012.8 468.293C1012.97 468.293 1013.14 468.265 1013.29 468.209C1013.44 468.148 1013.58 468.053 1013.69 467.922C1013.81 467.787 1013.9 467.614 1013.96 467.404C1014.03 467.194 1014.06 466.937 1014.06 466.634ZM1023.8 461.797C1024.32 461.797 1024.79 461.883 1025.2 462.056C1025.62 462.229 1025.97 462.474 1026.27 462.791C1026.56 463.108 1026.79 463.493 1026.94 463.946C1027.1 464.394 1027.18 464.896 1027.18 465.451C1027.18 466.011 1027.1 466.515 1026.94 466.963C1026.79 467.411 1026.56 467.794 1026.27 468.111C1025.97 468.428 1025.62 468.673 1025.2 468.846C1024.79 469.014 1024.32 469.098 1023.8 469.098C1023.28 469.098 1022.81 469.014 1022.39 468.846C1021.97 468.673 1021.62 468.428 1021.33 468.111C1021.03 467.794 1020.81 467.411 1020.65 466.963C1020.49 466.515 1020.42 466.011 1020.42 465.451C1020.42 464.896 1020.49 464.394 1020.65 463.946C1020.81 463.493 1021.03 463.108 1021.33 462.791C1021.62 462.474 1021.97 462.229 1022.39 462.056C1022.81 461.883 1023.28 461.797 1023.8 461.797ZM1023.8 468.125C1024.5 468.125 1025.03 467.892 1025.37 467.425C1025.72 466.954 1025.89 466.298 1025.89 465.458C1025.89 464.613 1025.72 463.955 1025.37 463.484C1025.03 463.013 1024.5 462.777 1023.8 462.777C1023.45 462.777 1023.14 462.838 1022.87 462.959C1022.61 463.08 1022.39 463.255 1022.21 463.484C1022.04 463.713 1021.91 463.995 1021.82 464.331C1021.74 464.662 1021.7 465.038 1021.7 465.458C1021.7 466.298 1021.87 466.954 1022.21 467.425C1022.56 467.892 1023.09 468.125 1023.8 468.125ZM1029.37 469V462.973L1028.59 462.882C1028.49 462.859 1028.41 462.824 1028.34 462.777C1028.28 462.726 1028.25 462.653 1028.25 462.56V462.049H1029.37V461.363C1029.37 460.957 1029.43 460.598 1029.54 460.285C1029.65 459.968 1029.82 459.702 1030.03 459.487C1030.24 459.268 1030.5 459.102 1030.8 458.99C1031.1 458.878 1031.43 458.822 1031.81 458.822C1032.12 458.822 1032.41 458.869 1032.68 458.962L1032.65 459.585C1032.64 459.697 1032.58 459.758 1032.46 459.767C1032.35 459.776 1032.2 459.781 1032.01 459.781C1031.79 459.781 1031.6 459.809 1031.42 459.865C1031.25 459.921 1031.1 460.012 1030.97 460.138C1030.85 460.264 1030.75 460.43 1030.68 460.635C1030.61 460.84 1030.58 461.095 1030.58 461.398V462.049H1032.62V462.952H1030.62V469H1029.37ZM1038.92 463.33C1039.15 462.845 1039.42 462.467 1039.75 462.196C1040.07 461.921 1040.47 461.783 1040.94 461.783C1041.09 461.783 1041.24 461.799 1041.37 461.832C1041.51 461.865 1041.63 461.916 1041.74 461.986L1041.65 462.917C1041.62 463.034 1041.55 463.092 1041.44 463.092C1041.38 463.092 1041.28 463.078 1041.15 463.05C1041.03 463.022 1040.89 463.008 1040.73 463.008C1040.5 463.008 1040.3 463.041 1040.13 463.106C1039.95 463.171 1039.8 463.269 1039.66 463.4C1039.52 463.526 1039.4 463.685 1039.29 463.876C1039.18 464.063 1039.08 464.277 1038.99 464.52V469H1037.74V461.909H1038.45C1038.59 461.909 1038.68 461.935 1038.73 461.986C1038.78 462.037 1038.82 462.126 1038.84 462.252L1038.92 463.33Z" fill="black"/>
<path d="M1002.91 505.817C1003.04 505.817 1003.15 505.857 1003.23 505.936C1003.31 506.015 1003.35 506.118 1003.35 506.244V507H996.658V506.573C996.658 506.484 996.677 506.393 996.714 506.3C996.751 506.207 996.81 506.12 996.889 506.041L1000.1 502.814C1000.37 502.543 1000.61 502.284 1000.83 502.037C1001.05 501.785 1001.24 501.533 1001.39 501.281C1001.54 501.029 1001.66 500.775 1001.75 500.518C1001.83 500.257 1001.87 499.979 1001.87 499.685C1001.87 499.391 1001.83 499.134 1001.73 498.915C1001.64 498.691 1001.51 498.507 1001.35 498.362C1001.19 498.217 1001 498.11 1000.78 498.04C1000.56 497.965 1000.33 497.928 1000.07 497.928C999.817 497.928 999.582 497.965 999.367 498.04C999.152 498.115 998.961 498.22 998.793 498.355C998.63 498.486 998.492 498.642 998.38 498.824C998.268 499.006 998.189 499.207 998.142 499.426C998.086 499.589 998.009 499.699 997.911 499.755C997.818 499.806 997.685 499.82 997.512 499.797L996.861 499.685C996.926 499.228 997.052 498.824 997.239 498.474C997.43 498.119 997.668 497.823 997.953 497.585C998.242 497.347 998.571 497.167 998.94 497.046C999.309 496.92 999.708 496.857 1000.14 496.857C1000.56 496.857 1000.96 496.92 1001.33 497.046C1001.7 497.172 1002.02 497.356 1002.29 497.599C1002.56 497.837 1002.77 498.129 1002.92 498.474C1003.08 498.819 1003.15 499.211 1003.15 499.65C1003.15 500.023 1003.1 500.371 1002.99 500.693C1002.87 501.01 1002.72 501.314 1002.53 501.603C1002.34 501.892 1002.12 502.175 1001.87 502.45C1001.62 502.725 1001.36 503.003 1001.08 503.283L998.429 505.985C998.616 505.934 998.805 505.894 998.996 505.866C999.187 505.833 999.372 505.817 999.549 505.817H1002.91ZM1006.96 500.756C1007.48 500.644 1007.96 500.588 1008.4 500.588C1008.92 500.588 1009.38 500.665 1009.78 500.819C1010.18 500.973 1010.52 501.185 1010.78 501.456C1011.05 501.727 1011.26 502.046 1011.39 502.415C1011.53 502.784 1011.6 503.185 1011.6 503.619C1011.6 504.151 1011.51 504.632 1011.32 505.061C1011.14 505.49 1010.89 505.859 1010.56 506.167C1010.24 506.47 1009.86 506.704 1009.42 506.867C1008.98 507.03 1008.51 507.112 1008 507.112C1007.7 507.112 1007.42 507.082 1007.15 507.021C1006.88 506.965 1006.63 506.888 1006.39 506.79C1006.15 506.692 1005.94 506.58 1005.74 506.454C1005.54 506.328 1005.36 506.195 1005.21 506.055L1005.59 505.523C1005.67 505.402 1005.78 505.341 1005.92 505.341C1006.01 505.341 1006.12 505.378 1006.23 505.453C1006.35 505.523 1006.49 505.602 1006.66 505.691C1006.83 505.78 1007.03 505.861 1007.25 505.936C1007.48 506.006 1007.75 506.041 1008.06 506.041C1008.41 506.041 1008.73 505.985 1009.01 505.873C1009.29 505.761 1009.53 505.602 1009.73 505.397C1009.93 505.187 1010.08 504.937 1010.19 504.648C1010.3 504.359 1010.35 504.034 1010.35 503.675C1010.35 503.362 1010.3 503.08 1010.21 502.828C1010.12 502.576 1009.98 502.361 1009.8 502.184C1009.62 502.007 1009.39 501.869 1009.11 501.771C1008.84 501.673 1008.51 501.624 1008.15 501.624C1007.89 501.624 1007.63 501.645 1007.35 501.687C1007.08 501.729 1006.81 501.797 1006.52 501.89L1005.74 501.659L1006.54 496.969H1011.3V497.515C1011.3 497.692 1011.24 497.839 1011.13 497.956C1011.02 498.068 1010.83 498.124 1010.57 498.124H1007.42L1006.96 500.756ZM1015.08 505.292C1015.31 505.6 1015.56 505.817 1015.83 505.943C1016.1 506.069 1016.41 506.132 1016.74 506.132C1017.4 506.132 1017.91 505.896 1018.27 505.425C1018.62 504.954 1018.8 504.282 1018.8 503.409C1018.8 502.947 1018.76 502.55 1018.67 502.219C1018.59 501.888 1018.48 501.617 1018.32 501.407C1018.17 501.192 1017.98 501.036 1017.76 500.938C1017.53 500.84 1017.28 500.791 1016.99 500.791C1016.59 500.791 1016.23 500.884 1015.92 501.071C1015.62 501.258 1015.34 501.521 1015.08 501.862V505.292ZM1015.02 501.008C1015.32 500.639 1015.66 500.343 1016.06 500.119C1016.45 499.895 1016.9 499.783 1017.4 499.783C1017.81 499.783 1018.18 499.862 1018.51 500.021C1018.84 500.175 1019.13 500.406 1019.36 500.714C1019.59 501.017 1019.77 501.395 1019.9 501.848C1020.02 502.301 1020.09 502.821 1020.09 503.409C1020.09 503.932 1020.02 504.419 1019.88 504.872C1019.74 505.32 1019.53 505.71 1019.27 506.041C1019.01 506.368 1018.68 506.627 1018.3 506.818C1017.92 507.005 1017.5 507.098 1017.02 507.098C1016.59 507.098 1016.21 507.026 1015.9 506.881C1015.59 506.732 1015.32 506.526 1015.08 506.265V509.401H1013.83V499.909H1014.58C1014.76 499.909 1014.87 499.995 1014.91 500.168L1015.02 501.008ZM1027.53 507H1026.33C1026.23 507 1026.15 506.974 1026.09 506.923C1026.03 506.867 1025.98 506.806 1025.95 506.741L1024.16 503.962C1024.14 504.027 1024.12 504.093 1024.1 504.158C1024.08 504.219 1024.05 504.275 1024.01 504.326L1022.36 506.741C1022.31 506.806 1022.26 506.867 1022.21 506.923C1022.16 506.974 1022.08 507 1021.99 507H1020.88L1023.36 503.36L1020.98 499.909H1022.17C1022.28 499.909 1022.35 499.925 1022.4 499.958C1022.44 499.991 1022.49 500.037 1022.52 500.098L1024.27 502.758C1024.3 502.623 1024.36 502.492 1024.44 502.366L1025.97 500.126C1026.01 500.061 1026.05 500.009 1026.1 499.972C1026.15 499.93 1026.21 499.909 1026.28 499.909H1027.43L1025.04 503.297L1027.53 507Z" fill="black"/>
<line y1="-0.5" x2="14" y2="-0.5" transform="matrix(-4.67672e-06 1 -1 -1.63421e-09 962 574)" stroke="black"/>
<line x1="162.5" y1="574" x2="162.5" y2="588" stroke="black"/>
<line x1="162" y1="587.5" x2="962" y2="587.5" stroke="black"/>
<line y1="-0.5" x2="14" y2="-0.5" transform="matrix(-1 -2.63065e-06 2.90526e-09 -1 152 564)" stroke="black"/>
<line x1="152" y1="114.5" x2="138" y2="114.5" stroke="black"/>
<line x1="138.5" y1="114" x2="138.5" y2="564" stroke="black"/>
<path d="M561.17 606.33C561.394 605.845 561.669 605.467 561.996 605.196C562.323 604.921 562.722 604.783 563.193 604.783C563.342 604.783 563.485 604.799 563.62 604.832C563.76 604.865 563.884 604.916 563.991 604.986L563.9 605.917C563.872 606.034 563.802 606.092 563.69 606.092C563.625 606.092 563.529 606.078 563.403 606.05C563.277 606.022 563.135 606.008 562.976 606.008C562.752 606.008 562.551 606.041 562.374 606.106C562.201 606.171 562.045 606.269 561.905 606.4C561.77 606.526 561.646 606.685 561.534 606.876C561.427 607.063 561.329 607.277 561.24 607.52V612H559.987V604.909H560.701C560.836 604.909 560.93 604.935 560.981 604.986C561.032 605.037 561.067 605.126 561.086 605.252L561.17 606.33Z" fill="black"/>
<path d="M223.883 512.285C225.479 512.285 226.772 510.997 226.772 509.408C226.772 507.819 225.479 506.531 223.883 506.531C222.288 506.531 220.994 507.819 220.994 509.408C220.994 510.997 222.288 512.285 223.883 512.285Z" fill="#41A5DD"/>
<path fill-rule="evenodd" clip-rule="evenodd" d="M246.533 491.129C245.936 489.441 244.838 489.134 243.586 489.134H242.276C242.161 489.134 242.045 489.134 241.929 489.153H215.12C213.425 489.153 212.038 490.534 212.038 492.222V510.885C212.038 512.573 213.425 513.953 215.12 513.953H234.495V513.934H234.553C235.863 513.934 236.614 513.493 236.999 512.438L238.443 508.449H247.264L248.67 512.438C249.075 513.493 249.942 513.934 251.136 513.934C252.542 513.934 253.697 512.879 253.697 511.537C253.697 510.942 253.37 509.983 253.158 509.446L246.533 491.129ZM223.883 512.937C221.938 512.937 220.339 511.364 220.339 509.408C220.339 507.471 221.918 505.879 223.883 505.879C225.828 505.879 227.427 507.451 227.427 509.408C227.407 511.364 225.828 512.937 223.883 512.937ZM231.375 509.676H228.12C228.12 508.986 227.831 505.15 223.787 505.15C219.742 505.15 219.569 509.715 219.569 509.715H218.702C218.702 509.715 216.179 508.698 215.659 508.43C215.139 508.142 215.081 506.723 215.081 506.723V505.476H215.524V504.21C215.736 501.525 222.342 499.108 222.342 499.108C222.342 499.108 227.889 493.661 228.756 492.894C230.624 491.263 238.193 491.628 238.193 491.628L231.375 509.676ZM239.618 504.67L242.854 495.061H242.912L246.012 504.67H239.618Z" fill="#41A5DD"/>
<path fill-rule="evenodd" clip-rule="evenodd" d="M219.993 502.35C219.762 502.292 218.914 502.292 218.549 502.273C218.433 502.273 218.317 502.311 218.24 502.388C218.067 502.522 217.797 502.791 217.547 503.117C217.258 503.5 217.046 503.98 216.911 504.287C216.815 504.536 217.085 504.555 217.085 504.555L217.72 504.69C217.797 504.709 217.874 504.69 217.932 504.632L220.051 502.791C220.032 502.791 220.34 502.426 219.993 502.35Z" fill="#41A5DD"/>
<path fill-rule="evenodd" clip-rule="evenodd" d="M234.303 493.239C234.014 493.239 231.337 493.526 230.817 493.622C230.297 493.718 229.527 494.313 229.527 494.313L226.233 497.938V499.875L233.205 498.532C233.205 498.532 234.111 498.36 234.246 497.209C234.38 496.058 234.669 493.603 234.669 493.603C234.669 493.603 234.592 493.239 234.303 493.239Z" fill="#41A5DD"/>
</svg>
