<svg width="1204" height="678" viewBox="0 0 1204 678" fill="none" xmlns="http://www.w3.org/2000/svg">
<rect width="1204" height="677.25" fill="white"/>
<g clip-path="url(#clip0_923:325)">
<path fill-rule="evenodd" clip-rule="evenodd" d="M820.057 295.161C818.092 295.161 816.89 296.197 816.89 298.314V315.346H816.798L805.288 296.864C804.572 295.667 803.37 295.138 802.006 295.138C799.21 295.138 797.869 296.266 797.869 298.959V321.745C797.869 323.862 799.071 324.898 801.035 324.898C803 324.898 804.202 323.862 804.202 321.745V305.196H804.271L815.688 323.149C816.521 324.461 817.214 324.898 819.294 324.898C822.067 324.898 823.177 323.425 823.177 320.824V298.291C823.223 296.197 822.021 295.161 820.057 295.161Z" fill="#41A5DD"/>
<path fill-rule="evenodd" clip-rule="evenodd" d="M845.457 295.161C844.093 295.161 843.376 295.644 842.614 297.071L836.928 307.567L831.197 297.071C830.526 295.806 829.787 295.161 828.238 295.161C826.967 295.161 824.91 295.921 824.91 298.153C824.91 298.752 825.141 299.35 825.465 299.879L833.508 313.206V321.676C833.508 323.632 834.779 324.944 836.79 324.944C838.8 324.944 840.072 323.632 840.072 321.676V313.206L848.114 299.879C848.438 299.35 848.669 298.752 848.669 298.153C848.692 295.921 846.658 295.161 845.457 295.161Z" fill="#41A5DD"/>
<path fill-rule="evenodd" clip-rule="evenodd" d="M874.67 298.084C874.67 295.898 872.983 295.161 871.342 295.161C869.816 295.161 868.869 296.082 868.268 298.038L862.097 317.579H862.028L856.088 298.038C855.487 296.082 854.516 295.161 852.76 295.161C851.119 295.161 849.432 295.875 849.432 298.084C849.432 298.614 849.547 299.235 849.825 299.995L857.914 322.665C858.584 324.53 859.878 324.944 861.912 324.944C863.946 324.944 865.24 324.553 865.91 322.665L874.254 299.995C874.554 299.235 874.67 298.591 874.67 298.084Z" fill="#41A5DD"/>
<path fill-rule="evenodd" clip-rule="evenodd" d="M887.335 297.555C886.619 295.529 885.302 295.161 883.799 295.161H882.228C880.633 295.161 879.593 295.691 879.015 297.164L870.51 319.558C870.279 320.203 869.863 321.354 869.863 322.067C869.863 323.816 871.111 324.944 872.914 324.944C874.485 324.944 875.387 324.415 875.849 323.149L877.582 318.362H888.168L889.855 323.149C890.34 324.415 891.38 324.944 892.813 324.944C894.5 324.944 895.91 323.678 895.91 322.067C895.91 321.354 895.517 320.203 895.263 319.558L887.335 297.555ZM879.038 313.804L882.921 302.273H882.99L886.711 313.804H879.038Z" fill="#41A5DD"/>
<path fill-rule="evenodd" clip-rule="evenodd" d="M919.738 295.161C917.774 295.161 916.572 296.197 916.572 298.314V315.346H916.503L904.993 296.864C904.277 295.667 903.075 295.138 901.711 295.138C898.915 295.138 897.574 296.266 897.574 298.959V321.745C897.574 323.862 898.776 324.898 900.74 324.898C902.705 324.898 903.907 323.862 903.907 321.745V305.196H903.976L915.393 323.149C916.225 324.461 916.919 324.898 918.999 324.898C921.772 324.898 922.881 323.425 922.881 320.824V298.291C922.905 296.197 921.703 295.161 919.738 295.161Z" fill="#41A5DD"/>
<path d="M761.26 322.942C763.175 322.942 764.727 321.396 764.727 319.489C764.727 317.582 763.175 316.037 761.26 316.037C759.345 316.037 757.793 317.582 757.793 319.489C757.793 321.396 759.345 322.942 761.26 322.942Z" fill="#41A5DD"/>
<path fill-rule="evenodd" clip-rule="evenodd" d="M788.44 297.555C787.723 295.529 786.406 295.161 784.903 295.161H783.332C783.193 295.161 783.054 295.161 782.916 295.184H750.744C748.71 295.184 747.046 296.841 747.046 298.867V321.262C747.046 323.287 748.71 324.944 750.744 324.944H773.995V324.921H774.064C775.636 324.921 776.537 324.392 776.999 323.126L778.732 318.338H789.318L791.005 323.126C791.49 324.392 792.53 324.921 793.963 324.921C795.651 324.921 797.037 323.655 797.037 322.044C797.037 321.331 796.644 320.18 796.39 319.535L788.44 297.555ZM761.26 323.724C758.926 323.724 757.007 321.837 757.007 319.489C757.007 317.165 758.903 315.254 761.26 315.254C763.594 315.254 765.513 317.142 765.513 319.489C765.489 321.837 763.594 323.724 761.26 323.724ZM770.251 319.812H766.345C766.345 318.983 765.998 314.38 761.144 314.38C756.291 314.38 756.083 319.857 756.083 319.857H755.043C755.043 319.857 752.015 318.638 751.391 318.315C750.767 317.97 750.698 316.267 750.698 316.267V314.771H751.229V313.252C751.484 310.03 759.411 307.13 759.411 307.13C759.411 307.13 766.067 300.593 767.107 299.672C769.349 297.716 778.432 298.153 778.432 298.153L770.251 319.812ZM780.142 313.804L784.025 302.273H784.094L787.815 313.804H780.142Z" fill="#41A5DD"/>
<path fill-rule="evenodd" clip-rule="evenodd" d="M756.591 311.019C756.314 310.95 755.297 310.95 754.858 310.927C754.719 310.927 754.581 310.973 754.488 311.065C754.28 311.226 753.957 311.549 753.656 311.94C753.31 312.4 753.055 312.976 752.894 313.344C752.778 313.643 753.102 313.666 753.102 313.666L753.864 313.827C753.957 313.85 754.049 313.827 754.119 313.758L756.661 311.549C756.638 311.549 757.008 311.111 756.591 311.019Z" fill="#41A5DD"/>
<path fill-rule="evenodd" clip-rule="evenodd" d="M773.763 300.087C773.417 300.087 770.204 300.432 769.58 300.547C768.956 300.662 768.032 301.376 768.032 301.376L764.08 305.726V308.05L772.446 306.439C772.446 306.439 773.532 306.232 773.694 304.851C773.856 303.47 774.203 300.524 774.203 300.524C774.203 300.524 774.11 300.087 773.763 300.087Z" fill="#41A5DD"/>
</g>
<line x1="962" y1="294.5" x2="976" y2="294.5" stroke="black"/>
<line x1="962" y1="324.5" x2="976" y2="324.5" stroke="black"/>
<line x1="975.5" y1="325" x2="975.5" y2="295" stroke="black"/>
<path d="M988.17 309.33C988.394 308.845 988.669 308.467 988.996 308.196C989.323 307.921 989.722 307.783 990.193 307.783C990.342 307.783 990.485 307.799 990.62 307.832C990.76 307.865 990.884 307.916 990.991 307.986L990.9 308.917C990.872 309.034 990.802 309.092 990.69 309.092C990.625 309.092 990.529 309.078 990.403 309.05C990.277 309.022 990.135 309.008 989.976 309.008C989.752 309.008 989.551 309.041 989.374 309.106C989.201 309.171 989.045 309.269 988.905 309.4C988.77 309.526 988.646 309.685 988.534 309.876C988.427 310.063 988.329 310.277 988.24 310.52V315H986.987V307.909H987.701C987.836 307.909 987.93 307.935 987.981 307.986C988.032 308.037 988.067 308.126 988.086 308.252L988.17 309.33Z" fill="black"/>
<path d="M341.696 298.522V317.252H339.27V303.922C339.27 303.722 339.274 303.509 339.283 303.283C339.3 303.057 339.317 302.826 339.335 302.591L333.1 314.03C332.883 314.457 332.548 314.67 332.096 314.67H331.704C331.252 314.67 330.922 314.457 330.713 314.03L324.361 302.552C324.413 303.039 324.439 303.496 324.439 303.922V317.252H322V298.522H324.061C324.304 298.522 324.491 298.548 324.622 298.6C324.761 298.643 324.891 298.774 325.013 298.991L331.274 310.209C331.396 310.435 331.509 310.674 331.613 310.926C331.717 311.178 331.817 311.43 331.913 311.683C332.096 311.17 332.309 310.674 332.552 310.196L338.696 298.991C338.809 298.774 338.93 298.643 339.061 298.6C339.2 298.548 339.391 298.522 339.635 298.522H341.696Z" fill="#41A5DD"/>
<path d="M351.569 303.791C352.543 303.791 353.422 303.952 354.204 304.274C354.995 304.587 355.665 305.043 356.213 305.643C356.769 306.235 357.195 306.952 357.491 307.796C357.787 308.63 357.935 309.57 357.935 310.613C357.935 311.657 357.787 312.6 357.491 313.443C357.195 314.287 356.769 315.004 356.213 315.596C355.665 316.187 354.995 316.643 354.204 316.965C353.422 317.278 352.543 317.435 351.569 317.435C350.587 317.435 349.7 317.278 348.908 316.965C348.126 316.643 347.456 316.187 346.9 315.596C346.343 315.004 345.913 314.287 345.608 313.443C345.313 312.6 345.165 311.657 345.165 310.613C345.165 309.57 345.313 308.63 345.608 307.796C345.913 306.952 346.343 306.235 346.9 305.643C347.456 305.043 348.126 304.587 348.908 304.274C349.7 303.952 350.587 303.791 351.569 303.791ZM351.569 315.452C352.822 315.452 353.756 315.03 354.374 314.187C354.991 313.343 355.3 312.157 355.3 310.626C355.3 309.096 354.991 307.909 354.374 307.065C353.756 306.213 352.822 305.787 351.569 305.787C350.3 305.787 349.352 306.213 348.726 307.065C348.108 307.909 347.8 309.096 347.8 310.626C347.8 312.157 348.108 313.343 348.726 314.187C349.352 315.03 350.3 315.452 351.569 315.452Z" fill="#41A5DD"/>
<path d="M372.418 304L367.044 317.252H364.748L359.374 304H361.474C361.674 304 361.839 304.048 361.97 304.143C362.1 304.239 362.187 304.361 362.231 304.509L365.4 312.648C365.513 312.987 365.609 313.326 365.687 313.665C365.774 313.996 365.853 314.326 365.922 314.657C365.992 314.326 366.07 313.996 366.157 313.665C366.244 313.335 366.348 312.996 366.47 312.648L369.679 304.509C369.731 304.361 369.822 304.239 369.953 304.143C370.083 304.048 370.239 304 370.422 304H372.418Z" fill="#41A5DD"/>
<path d="M383.359 309.152C383.359 308.648 383.285 308.183 383.137 307.757C382.998 307.33 382.789 306.961 382.511 306.648C382.233 306.335 381.894 306.091 381.494 305.917C381.094 305.743 380.633 305.657 380.111 305.657C379.041 305.657 378.198 305.965 377.58 306.583C376.972 307.2 376.585 308.057 376.42 309.152H383.359ZM385.459 315.361C385.146 315.726 384.785 316.043 384.376 316.313C383.967 316.574 383.533 316.787 383.072 316.952C382.611 317.117 382.133 317.239 381.637 317.317C381.15 317.396 380.667 317.435 380.189 317.435C379.276 317.435 378.428 317.283 377.646 316.978C376.872 316.665 376.198 316.213 375.624 315.622C375.059 315.022 374.615 314.283 374.294 313.404C373.98 312.517 373.824 311.5 373.824 310.352C373.824 309.43 373.967 308.574 374.254 307.783C374.541 306.983 374.95 306.287 375.48 305.696C376.02 305.104 376.676 304.639 377.45 304.3C378.224 303.961 379.094 303.791 380.059 303.791C380.867 303.791 381.611 303.926 382.289 304.196C382.976 304.457 383.567 304.839 384.063 305.343C384.559 305.848 384.946 306.47 385.224 307.209C385.511 307.948 385.654 308.791 385.654 309.739C385.654 310.13 385.611 310.396 385.524 310.535C385.437 310.665 385.276 310.73 385.041 310.73H376.354C376.38 311.522 376.494 312.213 376.694 312.804C376.894 313.387 377.167 313.874 377.515 314.265C377.872 314.657 378.294 314.948 378.78 315.139C379.267 315.33 379.811 315.426 380.411 315.426C380.976 315.426 381.463 315.361 381.872 315.23C382.289 315.1 382.646 314.961 382.941 314.813C383.246 314.657 383.498 314.513 383.698 314.383C383.907 314.252 384.089 314.187 384.246 314.187C384.454 314.187 384.615 314.265 384.728 314.422L385.459 315.361Z" fill="#41A5DD"/>
<path d="M403.152 311.37C402.117 311.404 401.239 311.487 400.517 311.617C399.795 311.739 399.208 311.904 398.756 312.113C398.304 312.322 397.978 312.57 397.778 312.857C397.578 313.135 397.478 313.448 397.478 313.796C397.478 314.126 397.53 314.413 397.634 314.657C397.747 314.891 397.895 315.087 398.078 315.243C398.269 315.391 398.491 315.5 398.743 315.57C398.995 315.639 399.269 315.674 399.565 315.674C399.956 315.674 400.312 315.635 400.634 315.557C400.965 315.478 401.273 315.37 401.56 315.23C401.847 315.083 402.121 314.904 402.382 314.696C402.643 314.487 402.899 314.248 403.152 313.978V311.37ZM395.691 305.852C396.43 305.148 397.23 304.622 398.091 304.274C398.96 303.926 399.912 303.752 400.947 303.752C401.704 303.752 402.373 303.878 402.956 304.13C403.539 304.374 404.03 304.717 404.43 305.161C404.83 305.604 405.13 306.135 405.33 306.752C405.539 307.37 405.643 308.052 405.643 308.8V317.252H404.508C404.256 317.252 404.065 317.213 403.934 317.135C403.804 317.048 403.699 316.891 403.621 316.665L403.347 315.504C403.008 315.817 402.673 316.096 402.343 316.339C402.012 316.574 401.665 316.778 401.299 316.952C400.943 317.117 400.56 317.243 400.152 317.33C399.743 317.417 399.291 317.461 398.795 317.461C398.273 317.461 397.782 317.391 397.321 317.252C396.869 317.104 396.473 316.883 396.134 316.587C395.795 316.291 395.526 315.922 395.326 315.478C395.134 315.035 395.039 314.517 395.039 313.926C395.039 313.404 395.178 312.904 395.456 312.426C395.743 311.939 396.204 311.504 396.839 311.122C397.482 310.739 398.317 310.426 399.343 310.183C400.378 309.939 401.647 309.8 403.152 309.765V308.8C403.152 307.8 402.939 307.052 402.512 306.557C402.086 306.061 401.46 305.813 400.634 305.813C400.078 305.813 399.608 305.883 399.226 306.022C398.852 306.161 398.526 306.317 398.247 306.491C397.978 306.657 397.739 306.809 397.53 306.948C397.33 307.087 397.121 307.157 396.904 307.157C396.73 307.157 396.578 307.109 396.447 307.013C396.326 306.917 396.226 306.804 396.147 306.674L395.691 305.852Z" fill="#41A5DD"/>
<path d="M411.957 305.839C412.244 305.535 412.544 305.257 412.857 305.004C413.17 304.752 413.5 304.539 413.848 304.365C414.204 304.183 414.583 304.043 414.983 303.948C415.391 303.843 415.826 303.791 416.287 303.791C417.017 303.791 417.657 303.913 418.204 304.157C418.761 304.4 419.226 304.743 419.6 305.187C419.974 305.622 420.257 306.148 420.448 306.765C420.639 307.383 420.735 308.065 420.735 308.813V317.252H418.178V308.813C418.178 307.865 417.961 307.13 417.526 306.609C417.091 306.078 416.426 305.813 415.531 305.813C414.878 305.813 414.265 305.97 413.691 306.283C413.126 306.587 412.6 307.004 412.113 307.535V317.252H409.57V304H411.096C411.452 304 411.674 304.17 411.761 304.509L411.957 305.839Z" fill="#41A5DD"/>
<path d="M435.94 304L428.584 321.1C428.506 321.291 428.401 321.439 428.271 321.543C428.14 321.648 427.949 321.7 427.697 321.7H425.805L428.232 316.417L422.792 304H425.01C425.227 304 425.397 304.052 425.519 304.157C425.64 304.261 425.727 304.378 425.779 304.509L429.145 312.465C429.214 312.665 429.279 312.87 429.34 313.078C429.41 313.278 429.466 313.478 429.51 313.678C429.571 313.47 429.636 313.265 429.705 313.065C429.775 312.857 429.849 312.652 429.927 312.452L433.175 304.509C433.236 304.361 433.332 304.239 433.462 304.143C433.592 304.048 433.74 304 433.905 304H435.94Z" fill="#41A5DD"/>
<path d="M442.555 317.461C441.485 317.461 440.659 317.161 440.076 316.561C439.503 315.961 439.216 315.104 439.216 313.991V306.061H437.676C437.529 306.061 437.403 306.017 437.298 305.93C437.203 305.835 437.155 305.696 437.155 305.513V304.483L439.307 304.183L439.881 300.23C439.916 300.083 439.981 299.97 440.076 299.891C440.181 299.804 440.311 299.761 440.468 299.761H441.759V304.209H445.516V306.061H441.759V313.822C441.759 314.343 441.885 314.735 442.137 314.996C442.398 315.248 442.729 315.374 443.129 315.374C443.363 315.374 443.563 315.343 443.729 315.283C443.903 315.222 444.05 315.157 444.172 315.087C444.294 315.009 444.398 314.939 444.485 314.878C444.572 314.817 444.65 314.787 444.72 314.787C444.807 314.787 444.872 314.809 444.916 314.852C444.968 314.887 445.02 314.948 445.072 315.035L445.829 316.261C445.411 316.643 444.916 316.939 444.342 317.148C443.768 317.357 443.172 317.461 442.555 317.461Z" fill="#41A5DD"/>
<path d="M450.924 305.683C451.48 305.117 452.093 304.661 452.763 304.313C453.441 303.965 454.219 303.791 455.097 303.791C455.828 303.791 456.467 303.913 457.015 304.157C457.571 304.4 458.037 304.743 458.411 305.187C458.784 305.622 459.067 306.148 459.258 306.765C459.45 307.383 459.545 308.065 459.545 308.813V317.252H456.989V308.813C456.989 307.865 456.771 307.13 456.337 306.609C455.902 306.078 455.237 305.813 454.341 305.813C453.689 305.813 453.076 305.97 452.502 306.283C451.937 306.587 451.411 307.004 450.924 307.535V317.252H448.38V298H450.924V305.683Z" fill="#41A5DD"/>
<path d="M466.16 304V317.252H463.617V304H466.16ZM466.643 299.904C466.643 300.139 466.595 300.365 466.499 300.583C466.404 300.791 466.273 300.978 466.108 301.143C465.951 301.3 465.765 301.426 465.547 301.522C465.33 301.609 465.104 301.652 464.869 301.652C464.634 301.652 464.412 301.609 464.204 301.522C463.995 301.426 463.808 301.3 463.643 301.143C463.486 300.978 463.36 300.791 463.265 300.583C463.178 300.365 463.134 300.139 463.134 299.904C463.134 299.661 463.178 299.435 463.265 299.226C463.36 299.009 463.486 298.822 463.643 298.665C463.808 298.5 463.995 298.374 464.204 298.287C464.412 298.191 464.634 298.143 464.869 298.143C465.104 298.143 465.33 298.191 465.547 298.287C465.765 298.374 465.951 298.5 466.108 298.665C466.273 298.822 466.404 299.009 466.499 299.226C466.595 299.435 466.643 299.661 466.643 299.904Z" fill="#41A5DD"/>
<path d="M472.751 305.839C473.038 305.535 473.338 305.257 473.651 305.004C473.964 304.752 474.295 304.539 474.643 304.365C474.999 304.183 475.378 304.043 475.778 303.948C476.186 303.843 476.621 303.791 477.082 303.791C477.812 303.791 478.451 303.913 478.999 304.157C479.556 304.4 480.021 304.743 480.395 305.187C480.769 305.622 481.051 306.148 481.243 306.765C481.434 307.383 481.53 308.065 481.53 308.813V317.252H478.973V308.813C478.973 307.865 478.756 307.13 478.321 306.609C477.886 306.078 477.221 305.813 476.325 305.813C475.673 305.813 475.06 305.97 474.486 306.283C473.921 306.587 473.395 307.004 472.908 307.535V317.252H470.364V304H471.891C472.247 304 472.469 304.17 472.556 304.509L472.751 305.839Z" fill="#41A5DD"/>
<path d="M490.14 310.639C490.592 310.639 490.988 310.578 491.327 310.457C491.675 310.335 491.962 310.165 492.188 309.948C492.423 309.722 492.597 309.452 492.71 309.139C492.832 308.826 492.892 308.483 492.892 308.109C492.892 307.343 492.658 306.735 492.188 306.283C491.727 305.822 491.045 305.591 490.14 305.591C489.245 305.591 488.562 305.822 488.092 306.283C487.632 306.735 487.401 307.343 487.401 308.109C487.401 308.483 487.458 308.826 487.571 309.139C487.692 309.443 487.866 309.709 488.092 309.935C488.327 310.152 488.614 310.326 488.953 310.457C489.301 310.578 489.697 310.639 490.14 310.639ZM494.197 317.943C494.197 317.63 494.11 317.383 493.936 317.2C493.762 317.009 493.523 316.861 493.218 316.757C492.923 316.643 492.575 316.565 492.175 316.522C491.775 316.47 491.353 316.43 490.91 316.404C490.475 316.378 490.027 316.357 489.566 316.339C489.105 316.313 488.662 316.27 488.236 316.209C487.784 316.435 487.41 316.709 487.114 317.03C486.827 317.352 486.684 317.73 486.684 318.165C486.684 318.443 486.753 318.704 486.892 318.948C487.04 319.191 487.262 319.4 487.558 319.574C487.862 319.757 488.24 319.896 488.692 319.991C489.153 320.096 489.701 320.148 490.336 320.148C490.962 320.148 491.514 320.091 491.992 319.978C492.471 319.874 492.871 319.722 493.192 319.522C493.523 319.33 493.771 319.1 493.936 318.83C494.11 318.561 494.197 318.265 494.197 317.943ZM496.779 304.496V305.448C496.779 305.761 496.584 305.957 496.192 306.035L494.771 306.243C494.892 306.513 494.988 306.8 495.058 307.104C495.127 307.4 495.162 307.713 495.162 308.043C495.162 308.696 495.036 309.287 494.784 309.817C494.532 310.339 494.184 310.787 493.74 311.161C493.297 311.535 492.766 311.822 492.149 312.022C491.54 312.222 490.871 312.322 490.14 312.322C489.54 312.322 488.979 312.257 488.458 312.126C488.197 312.283 487.997 312.457 487.858 312.648C487.727 312.83 487.662 313.013 487.662 313.196C487.662 313.5 487.788 313.726 488.04 313.874C488.301 314.022 488.636 314.13 489.045 314.2C489.462 314.261 489.936 314.3 490.466 314.317C491.005 314.335 491.549 314.365 492.097 314.409C492.653 314.443 493.197 314.513 493.727 314.617C494.266 314.713 494.74 314.874 495.149 315.1C495.566 315.317 495.901 315.622 496.153 316.013C496.414 316.396 496.545 316.896 496.545 317.513C496.545 318.087 496.401 318.643 496.114 319.183C495.836 319.722 495.427 320.2 494.888 320.617C494.349 321.035 493.692 321.37 492.918 321.622C492.145 321.874 491.266 322 490.284 322C489.301 322 488.445 321.904 487.714 321.713C486.992 321.522 486.388 321.265 485.901 320.943C485.423 320.622 485.062 320.248 484.818 319.822C484.584 319.396 484.466 318.952 484.466 318.491C484.466 317.848 484.666 317.304 485.066 316.861C485.466 316.409 486.018 316.057 486.723 315.804C486.34 315.63 486.036 315.396 485.81 315.1C485.584 314.796 485.471 314.396 485.471 313.9C485.471 313.709 485.505 313.513 485.575 313.313C485.645 313.104 485.749 312.9 485.888 312.7C486.036 312.491 486.214 312.296 486.423 312.113C486.64 311.93 486.888 311.765 487.166 311.617C486.514 311.252 486.001 310.77 485.627 310.17C485.253 309.561 485.066 308.852 485.066 308.043C485.066 307.391 485.192 306.804 485.445 306.283C485.697 305.761 486.045 305.313 486.488 304.939C486.94 304.565 487.475 304.278 488.092 304.078C488.718 303.878 489.401 303.778 490.14 303.778C491.288 303.778 492.275 304.017 493.101 304.496H496.779Z" fill="#41A5DD"/>
<path d="M500.783 317.252C500.548 317.252 500.33 317.209 500.13 317.122C499.939 317.035 499.77 316.917 499.622 316.77C499.483 316.613 499.374 316.43 499.296 316.222C499.217 316.013 499.178 315.787 499.178 315.543C499.178 315.335 499.217 315.139 499.296 314.957C499.374 314.765 499.483 314.6 499.622 314.461C499.77 314.322 499.944 314.213 500.144 314.135C500.344 314.048 500.565 314.004 500.809 314.004C501.087 314.004 501.33 314.057 501.539 314.161C501.757 314.257 501.935 314.396 502.074 314.578C502.222 314.752 502.33 314.957 502.4 315.191C502.47 315.426 502.504 315.678 502.504 315.948C502.504 316.339 502.448 316.752 502.335 317.187C502.222 317.622 502.057 318.052 501.839 318.478C501.622 318.904 501.352 319.317 501.03 319.717C500.709 320.117 500.344 320.487 499.935 320.826L499.504 320.422C499.374 320.3 499.309 320.165 499.309 320.017C499.309 319.957 499.326 319.891 499.361 319.822C499.404 319.761 499.457 319.7 499.517 319.639C499.604 319.543 499.717 319.417 499.857 319.261C499.996 319.104 500.13 318.922 500.261 318.713C500.4 318.513 500.526 318.287 500.639 318.035C500.761 317.791 500.848 317.53 500.9 317.252H500.783Z" fill="#41A5DD"/>
<path d="M520.36 311.37C519.325 311.404 518.446 311.487 517.725 311.617C517.003 311.739 516.416 311.904 515.964 312.113C515.512 312.322 515.186 312.57 514.986 312.857C514.786 313.135 514.686 313.448 514.686 313.796C514.686 314.126 514.738 314.413 514.842 314.657C514.955 314.891 515.103 315.087 515.286 315.243C515.477 315.391 515.699 315.5 515.951 315.57C516.203 315.639 516.477 315.674 516.773 315.674C517.164 315.674 517.52 315.635 517.842 315.557C518.173 315.478 518.481 315.37 518.768 315.23C519.055 315.083 519.329 314.904 519.59 314.696C519.851 314.487 520.107 314.248 520.36 313.978V311.37ZM512.899 305.852C513.638 305.148 514.438 304.622 515.299 304.274C516.168 303.926 517.12 303.752 518.155 303.752C518.912 303.752 519.581 303.878 520.164 304.13C520.746 304.374 521.238 304.717 521.638 305.161C522.038 305.604 522.338 306.135 522.538 306.752C522.746 307.37 522.851 308.052 522.851 308.8V317.252H521.716C521.464 317.252 521.273 317.213 521.142 317.135C521.012 317.048 520.907 316.891 520.829 316.665L520.555 315.504C520.216 315.817 519.881 316.096 519.551 316.339C519.22 316.574 518.873 316.778 518.507 316.952C518.151 317.117 517.768 317.243 517.36 317.33C516.951 317.417 516.499 317.461 516.003 317.461C515.481 317.461 514.99 317.391 514.529 317.252C514.077 317.104 513.681 316.883 513.342 316.587C513.003 316.291 512.733 315.922 512.533 315.478C512.342 315.035 512.246 314.517 512.246 313.926C512.246 313.404 512.386 312.904 512.664 312.426C512.951 311.939 513.412 311.504 514.046 311.122C514.69 310.739 515.525 310.426 516.551 310.183C517.586 309.939 518.855 309.8 520.36 309.765V308.8C520.36 307.8 520.146 307.052 519.72 306.557C519.294 306.061 518.668 305.813 517.842 305.813C517.286 305.813 516.816 305.883 516.433 306.022C516.06 306.161 515.733 306.317 515.455 306.491C515.186 306.657 514.946 306.809 514.738 306.948C514.538 307.087 514.329 307.157 514.112 307.157C513.938 307.157 513.786 307.109 513.655 307.013C513.533 306.917 513.433 306.804 513.355 306.674L512.899 305.852Z" fill="#41A5DD"/>
<path d="M529.164 305.839C529.451 305.535 529.751 305.257 530.064 305.004C530.378 304.752 530.708 304.539 531.056 304.365C531.412 304.183 531.791 304.043 532.191 303.948C532.599 303.843 533.034 303.791 533.495 303.791C534.225 303.791 534.864 303.913 535.412 304.157C535.969 304.4 536.434 304.743 536.808 305.187C537.182 305.622 537.464 306.148 537.656 306.765C537.847 307.383 537.943 308.065 537.943 308.813V317.252H535.386V308.813C535.386 307.865 535.169 307.13 534.734 306.609C534.299 306.078 533.634 305.813 532.738 305.813C532.086 305.813 531.473 305.97 530.899 306.283C530.334 306.587 529.808 307.004 529.321 307.535V317.252H526.778V304H528.304C528.66 304 528.882 304.17 528.969 304.509L529.164 305.839Z" fill="#41A5DD"/>
<path d="M553.148 304L545.792 321.1C545.713 321.291 545.609 321.439 545.479 321.543C545.348 321.648 545.157 321.7 544.905 321.7H543.013L545.439 316.417L540 304H542.218C542.435 304 542.605 304.052 542.726 304.157C542.848 304.261 542.935 304.378 542.987 304.509L546.352 312.465C546.422 312.665 546.487 312.87 546.548 313.078C546.618 313.278 546.674 313.478 546.718 313.678C546.779 313.47 546.844 313.265 546.913 313.065C546.983 312.857 547.057 312.652 547.135 312.452L550.383 304.509C550.444 304.361 550.539 304.239 550.67 304.143C550.8 304.048 550.948 304 551.113 304H553.148Z" fill="#41A5DD"/>
<path d="M574.045 304L569.78 317.252H567.745C567.502 317.252 567.337 317.091 567.25 316.77L564.458 308.135C564.389 307.917 564.328 307.704 564.276 307.496C564.224 307.278 564.176 307.061 564.132 306.843C564.054 307.296 563.945 307.735 563.806 308.161L560.976 316.77C560.889 317.091 560.702 317.252 560.415 317.252H558.484L554.206 304H556.215C556.415 304 556.58 304.048 556.71 304.143C556.85 304.239 556.941 304.361 556.984 304.509L559.371 312.648C559.45 312.978 559.519 313.3 559.58 313.613C559.641 313.926 559.697 314.239 559.75 314.552C559.828 314.239 559.91 313.926 559.997 313.613C560.093 313.3 560.189 312.978 560.284 312.648L562.932 304.457C562.976 304.309 563.058 304.191 563.18 304.104C563.302 304.009 563.45 303.961 563.624 303.961H564.732C564.923 303.961 565.08 304.009 565.202 304.104C565.332 304.191 565.419 304.309 565.463 304.457L568.045 312.648C568.141 312.978 568.232 313.304 568.319 313.626C568.406 313.939 568.484 314.257 568.554 314.578C568.606 314.265 568.667 313.952 568.737 313.639C568.806 313.317 568.884 312.987 568.971 312.648L571.397 304.509C571.441 304.361 571.528 304.239 571.658 304.143C571.797 304.048 571.954 304 572.128 304H574.045Z" fill="#41A5DD"/>
<path d="M579.264 305.683C579.821 305.117 580.434 304.661 581.103 304.313C581.782 303.965 582.56 303.791 583.438 303.791C584.169 303.791 584.808 303.913 585.356 304.157C585.912 304.4 586.377 304.743 586.751 305.187C587.125 305.622 587.408 306.148 587.599 306.765C587.79 307.383 587.886 308.065 587.886 308.813V317.252H585.329V308.813C585.329 307.865 585.112 307.13 584.677 306.609C584.243 306.078 583.577 305.813 582.682 305.813C582.029 305.813 581.416 305.97 580.843 306.283C580.277 306.587 579.751 307.004 579.264 307.535V317.252H576.721V298H579.264V305.683Z" fill="#41A5DD"/>
<path d="M600.618 309.152C600.618 308.648 600.544 308.183 600.397 307.757C600.257 307.33 600.049 306.961 599.77 306.648C599.492 306.335 599.153 306.091 598.753 305.917C598.353 305.743 597.892 305.657 597.37 305.657C596.301 305.657 595.457 305.965 594.84 306.583C594.231 307.2 593.844 308.057 593.679 309.152H600.618ZM602.718 315.361C602.405 315.726 602.044 316.043 601.636 316.313C601.227 316.574 600.792 316.787 600.331 316.952C599.87 317.117 599.392 317.239 598.897 317.317C598.41 317.396 597.927 317.435 597.449 317.435C596.536 317.435 595.688 317.283 594.905 316.978C594.131 316.665 593.457 316.213 592.883 315.622C592.318 315.022 591.875 314.283 591.553 313.404C591.24 312.517 591.083 311.5 591.083 310.352C591.083 309.43 591.227 308.574 591.514 307.783C591.801 306.983 592.21 306.287 592.74 305.696C593.279 305.104 593.936 304.639 594.71 304.3C595.483 303.961 596.353 303.791 597.318 303.791C598.127 303.791 598.87 303.926 599.549 304.196C600.236 304.457 600.827 304.839 601.323 305.343C601.818 305.848 602.205 306.47 602.483 307.209C602.77 307.948 602.914 308.791 602.914 309.739C602.914 310.13 602.87 310.396 602.783 310.535C602.697 310.665 602.536 310.73 602.301 310.73H593.614C593.64 311.522 593.753 312.213 593.953 312.804C594.153 313.387 594.427 313.874 594.775 314.265C595.131 314.657 595.553 314.948 596.04 315.139C596.527 315.33 597.07 315.426 597.67 315.426C598.236 315.426 598.723 315.361 599.131 315.23C599.549 315.1 599.905 314.961 600.201 314.813C600.505 314.657 600.757 314.513 600.957 314.383C601.166 314.252 601.349 314.187 601.505 314.187C601.714 314.187 601.875 314.265 601.988 314.422L602.718 315.361Z" fill="#41A5DD"/>
<path d="M608.569 306.543C608.996 305.674 609.509 304.991 610.109 304.496C610.709 304 611.43 303.752 612.274 303.752C612.561 303.752 612.83 303.787 613.083 303.857C613.343 303.917 613.569 304.013 613.761 304.143L613.591 306.061C613.53 306.296 613.387 306.413 613.161 306.413C613.039 306.413 612.856 306.391 612.613 306.348C612.369 306.296 612.109 306.27 611.83 306.27C611.422 306.27 611.061 306.33 610.748 306.452C610.435 306.565 610.152 306.739 609.9 306.974C609.656 307.2 609.439 307.483 609.248 307.822C609.056 308.152 608.878 308.53 608.713 308.957V317.252H606.169V304H607.63C607.909 304 608.096 304.052 608.191 304.157C608.296 304.252 608.369 304.426 608.413 304.678L608.569 306.543Z" fill="#41A5DD"/>
<path d="M624.539 309.152C624.539 308.648 624.465 308.183 624.317 307.757C624.178 307.33 623.969 306.961 623.691 306.648C623.413 306.335 623.074 306.091 622.674 305.917C622.274 305.743 621.813 305.657 621.291 305.657C620.221 305.657 619.378 305.965 618.761 306.583C618.152 307.2 617.765 308.057 617.6 309.152H624.539ZM626.639 315.361C626.326 315.726 625.965 316.043 625.556 316.313C625.147 316.574 624.713 316.787 624.252 316.952C623.791 317.117 623.313 317.239 622.817 317.317C622.33 317.396 621.847 317.435 621.369 317.435C620.456 317.435 619.608 317.283 618.826 316.978C618.052 316.665 617.378 316.213 616.804 315.622C616.239 315.022 615.795 314.283 615.474 313.404C615.16 312.517 615.004 311.5 615.004 310.352C615.004 309.43 615.147 308.574 615.434 307.783C615.721 306.983 616.13 306.287 616.661 305.696C617.2 305.104 617.856 304.639 618.63 304.3C619.404 303.961 620.274 303.791 621.239 303.791C622.047 303.791 622.791 303.926 623.469 304.196C624.156 304.457 624.747 304.839 625.243 305.343C625.739 305.848 626.126 306.47 626.404 307.209C626.691 307.948 626.834 308.791 626.834 309.739C626.834 310.13 626.791 310.396 626.704 310.535C626.617 310.665 626.456 310.73 626.221 310.73H617.534C617.561 311.522 617.674 312.213 617.874 312.804C618.074 313.387 618.347 313.874 618.695 314.265C619.052 314.657 619.474 314.948 619.96 315.139C620.447 315.33 620.991 315.426 621.591 315.426C622.156 315.426 622.643 315.361 623.052 315.23C623.469 315.1 623.826 314.961 624.121 314.813C624.426 314.657 624.678 314.513 624.878 314.383C625.087 314.252 625.269 314.187 625.426 314.187C625.634 314.187 625.795 314.265 625.908 314.422L626.639 315.361Z" fill="#41A5DD"/>
<line x1="292" y1="322.5" x2="278" y2="322.5" stroke="black"/>
<line x1="292" y1="297.5" x2="278" y2="297.5" stroke="black"/>
<line x1="278.5" y1="297" x2="278.5" y2="322" stroke="black"/>
<path d="M217.06 314.118C217.387 314.118 217.678 314.074 217.935 313.985C218.196 313.892 218.416 313.763 218.593 313.6C218.775 313.432 218.913 313.234 219.006 313.005C219.104 312.772 219.153 312.515 219.153 312.235C219.153 311.89 219.095 311.596 218.978 311.353C218.866 311.106 218.712 310.905 218.516 310.751C218.325 310.597 218.103 310.485 217.851 310.415C217.599 310.34 217.335 310.303 217.06 310.303C216.785 310.303 216.521 310.34 216.269 310.415C216.017 310.485 215.793 310.597 215.597 310.751C215.406 310.905 215.252 311.106 215.135 311.353C215.023 311.596 214.967 311.89 214.967 312.235C214.967 312.515 215.014 312.772 215.107 313.005C215.205 313.234 215.343 313.432 215.52 313.6C215.702 313.763 215.921 313.892 216.178 313.985C216.439 314.074 216.733 314.118 217.06 314.118ZM217.06 305.823C216.761 305.823 216.498 305.867 216.269 305.956C216.045 306.045 215.856 306.166 215.702 306.32C215.553 306.474 215.438 306.654 215.359 306.859C215.284 307.064 215.247 307.284 215.247 307.517C215.247 307.746 215.28 307.967 215.345 308.182C215.41 308.397 215.515 308.588 215.66 308.756C215.805 308.919 215.991 309.052 216.22 309.155C216.453 309.253 216.733 309.302 217.06 309.302C217.387 309.302 217.664 309.253 217.893 309.155C218.126 309.052 218.315 308.919 218.46 308.756C218.605 308.588 218.71 308.397 218.775 308.182C218.84 307.967 218.873 307.746 218.873 307.517C218.873 307.284 218.833 307.064 218.754 306.859C218.679 306.654 218.565 306.474 218.411 306.32C218.262 306.166 218.073 306.045 217.844 305.956C217.62 305.867 217.359 305.823 217.06 305.823ZM218.495 309.771C219.12 309.948 219.601 310.245 219.937 310.66C220.273 311.075 220.441 311.607 220.441 312.256C220.441 312.695 220.357 313.091 220.189 313.446C220.026 313.796 219.795 314.095 219.496 314.342C219.202 314.589 218.847 314.781 218.432 314.916C218.017 315.047 217.559 315.112 217.06 315.112C216.561 315.112 216.103 315.047 215.688 314.916C215.273 314.781 214.916 314.589 214.617 314.342C214.318 314.095 214.087 313.796 213.924 313.446C213.761 313.091 213.679 312.695 213.679 312.256C213.679 311.607 213.847 311.075 214.183 310.66C214.519 310.245 215 309.948 215.625 309.771C215.098 309.575 214.699 309.283 214.428 308.896C214.162 308.504 214.029 308.037 214.029 307.496C214.029 307.127 214.101 306.782 214.246 306.46C214.391 306.138 214.596 305.858 214.862 305.62C215.128 305.382 215.445 305.195 215.814 305.06C216.187 304.925 216.603 304.857 217.06 304.857C217.513 304.857 217.926 304.925 218.299 305.06C218.672 305.195 218.992 305.382 219.258 305.62C219.524 305.858 219.729 306.138 219.874 306.46C220.019 306.782 220.091 307.127 220.091 307.496C220.091 308.037 219.956 308.504 219.685 308.896C219.419 309.283 219.022 309.575 218.495 309.771ZM229.121 309.988C229.121 310.865 229.025 311.626 228.834 312.27C228.647 312.909 228.391 313.439 228.064 313.859C227.737 314.279 227.35 314.592 226.902 314.797C226.459 315.002 225.983 315.105 225.474 315.105C224.961 315.105 224.482 315.002 224.039 314.797C223.6 314.592 223.218 314.279 222.891 313.859C222.564 313.439 222.308 312.909 222.121 312.27C221.934 311.626 221.841 310.865 221.841 309.988C221.841 309.111 221.934 308.35 222.121 307.706C222.308 307.062 222.564 306.53 222.891 306.11C223.218 305.685 223.6 305.37 224.039 305.165C224.482 304.96 224.961 304.857 225.474 304.857C225.983 304.857 226.459 304.96 226.902 305.165C227.35 305.37 227.737 305.685 228.064 306.11C228.391 306.53 228.647 307.062 228.834 307.706C229.025 308.35 229.121 309.111 229.121 309.988ZM227.826 309.988C227.826 309.223 227.761 308.581 227.63 308.063C227.504 307.54 227.331 307.12 227.112 306.803C226.897 306.486 226.648 306.259 226.363 306.124C226.078 305.984 225.782 305.914 225.474 305.914C225.166 305.914 224.87 305.984 224.585 306.124C224.3 306.259 224.051 306.486 223.836 306.803C223.621 307.12 223.449 307.54 223.318 308.063C223.192 308.581 223.129 309.223 223.129 309.988C223.129 310.753 223.192 311.395 223.318 311.913C223.449 312.431 223.621 312.849 223.836 313.166C224.051 313.483 224.3 313.712 224.585 313.852C224.87 313.987 225.166 314.055 225.474 314.055C225.782 314.055 226.078 313.987 226.363 313.852C226.648 313.712 226.897 313.483 227.112 313.166C227.331 312.849 227.504 312.431 227.63 311.913C227.761 311.395 227.826 310.753 227.826 309.988ZM234.896 307.391C234.896 307.783 234.836 308.135 234.714 308.448C234.593 308.756 234.43 309.017 234.224 309.232C234.024 309.442 233.788 309.603 233.517 309.715C233.251 309.827 232.969 309.883 232.67 309.883C232.358 309.883 232.066 309.827 231.795 309.715C231.525 309.603 231.289 309.442 231.088 309.232C230.892 309.017 230.738 308.756 230.626 308.448C230.514 308.135 230.458 307.783 230.458 307.391C230.458 306.99 230.514 306.633 230.626 306.32C230.738 306.007 230.892 305.744 231.088 305.529C231.289 305.314 231.525 305.151 231.795 305.039C232.066 304.927 232.358 304.871 232.67 304.871C232.988 304.871 233.282 304.927 233.552 305.039C233.823 305.151 234.059 305.314 234.259 305.529C234.46 305.744 234.616 306.007 234.728 306.32C234.84 306.633 234.896 306.99 234.896 307.391ZM233.93 307.391C233.93 307.083 233.898 306.822 233.832 306.607C233.767 306.392 233.676 306.217 233.559 306.082C233.447 305.942 233.314 305.842 233.16 305.781C233.006 305.72 232.843 305.69 232.67 305.69C232.498 305.69 232.337 305.72 232.187 305.781C232.038 305.842 231.907 305.942 231.795 306.082C231.683 306.217 231.595 306.392 231.529 306.607C231.464 306.822 231.431 307.083 231.431 307.391C231.431 307.694 231.464 307.953 231.529 308.168C231.595 308.378 231.683 308.551 231.795 308.686C231.907 308.817 232.038 308.912 232.187 308.973C232.337 309.029 232.498 309.057 232.67 309.057C232.843 309.057 233.006 309.029 233.16 308.973C233.314 308.912 233.447 308.817 233.559 308.686C233.676 308.551 233.767 308.378 233.832 308.168C233.898 307.953 233.93 307.694 233.93 307.391ZM238.445 305.179C238.492 305.123 238.546 305.074 238.606 305.032C238.672 304.99 238.758 304.969 238.865 304.969H239.768L232.432 314.797C232.39 314.858 232.337 314.907 232.271 314.944C232.206 314.981 232.127 315 232.033 315H231.116L238.445 305.179ZM240.447 312.634C240.447 313.026 240.387 313.376 240.265 313.684C240.144 313.992 239.981 314.253 239.775 314.468C239.575 314.678 239.339 314.839 239.068 314.951C238.802 315.063 238.52 315.119 238.221 315.119C237.904 315.119 237.61 315.063 237.339 314.951C237.073 314.839 236.84 314.678 236.639 314.468C236.443 314.253 236.289 313.992 236.177 313.684C236.065 313.376 236.009 313.026 236.009 312.634C236.009 312.233 236.065 311.876 236.177 311.563C236.289 311.246 236.443 310.98 236.639 310.765C236.84 310.55 237.073 310.387 237.339 310.275C237.61 310.163 237.904 310.107 238.221 310.107C238.534 310.107 238.826 310.163 239.096 310.275C239.372 310.387 239.607 310.55 239.803 310.765C240.004 310.98 240.16 311.246 240.272 311.563C240.389 311.876 240.447 312.233 240.447 312.634ZM239.481 312.634C239.481 312.326 239.449 312.065 239.383 311.85C239.318 311.631 239.227 311.453 239.11 311.318C238.998 311.183 238.865 311.085 238.711 311.024C238.557 310.963 238.394 310.933 238.221 310.933C238.049 310.933 237.885 310.963 237.731 311.024C237.582 311.085 237.451 311.183 237.339 311.318C237.227 311.453 237.139 311.631 237.073 311.85C237.013 312.065 236.982 312.326 236.982 312.634C236.982 312.937 237.013 313.194 237.073 313.404C237.139 313.614 237.227 313.787 237.339 313.922C237.451 314.053 237.582 314.148 237.731 314.209C237.885 314.265 238.049 314.293 238.221 314.293C238.394 314.293 238.557 314.265 238.711 314.209C238.865 314.148 238.998 314.053 239.11 313.922C239.227 313.787 239.318 313.614 239.383 313.404C239.449 313.194 239.481 312.937 239.481 312.634ZM249.225 307.797C249.743 307.797 250.209 307.883 250.625 308.056C251.04 308.229 251.395 308.474 251.689 308.791C251.983 309.108 252.207 309.493 252.361 309.946C252.519 310.394 252.599 310.896 252.599 311.451C252.599 312.011 252.519 312.515 252.361 312.963C252.207 313.411 251.983 313.794 251.689 314.111C251.395 314.428 251.04 314.673 250.625 314.846C250.209 315.014 249.743 315.098 249.225 315.098C248.702 315.098 248.231 315.014 247.811 314.846C247.395 314.673 247.041 314.428 246.747 314.111C246.453 313.794 246.226 313.411 246.068 312.963C245.914 312.515 245.837 312.011 245.837 311.451C245.837 310.896 245.914 310.394 246.068 309.946C246.226 309.493 246.453 309.108 246.747 308.791C247.041 308.474 247.395 308.229 247.811 308.056C248.231 307.883 248.702 307.797 249.225 307.797ZM249.225 314.125C249.925 314.125 250.447 313.892 250.793 313.425C251.138 312.954 251.311 312.298 251.311 311.458C251.311 310.613 251.138 309.955 250.793 309.484C250.447 309.013 249.925 308.777 249.225 308.777C248.87 308.777 248.56 308.838 248.294 308.959C248.032 309.08 247.813 309.255 247.636 309.484C247.463 309.713 247.332 309.995 247.244 310.331C247.16 310.662 247.118 311.038 247.118 311.458C247.118 312.298 247.29 312.954 247.636 313.425C247.986 313.892 248.515 314.125 249.225 314.125ZM254.791 315V308.973L254.007 308.882C253.909 308.859 253.827 308.824 253.762 308.777C253.701 308.726 253.671 308.653 253.671 308.56V308.049H254.791V307.363C254.791 306.957 254.847 306.598 254.959 306.285C255.075 305.968 255.239 305.702 255.449 305.487C255.663 305.268 255.92 305.102 256.219 304.99C256.517 304.878 256.853 304.822 257.227 304.822C257.544 304.822 257.836 304.869 258.102 304.962L258.074 305.585C258.064 305.697 258.001 305.758 257.885 305.767C257.773 305.776 257.621 305.781 257.43 305.781C257.215 305.781 257.019 305.809 256.842 305.865C256.669 305.921 256.52 306.012 256.394 306.138C256.268 306.264 256.17 306.43 256.1 306.635C256.034 306.84 256.002 307.095 256.002 307.398V308.049H258.046V308.952H256.044V315H254.791ZM264.342 309.33C264.566 308.845 264.842 308.467 265.168 308.196C265.495 307.921 265.894 307.783 266.365 307.783C266.515 307.783 266.657 307.799 266.792 307.832C266.932 307.865 267.056 307.916 267.163 307.986L267.072 308.917C267.044 309.034 266.974 309.092 266.862 309.092C266.797 309.092 266.701 309.078 266.575 309.05C266.449 309.022 266.307 309.008 266.148 309.008C265.924 309.008 265.724 309.041 265.546 309.106C265.374 309.171 265.217 309.269 265.077 309.4C264.942 309.526 264.818 309.685 264.706 309.876C264.599 310.063 264.501 310.277 264.412 310.52V315H263.159V307.909H263.873C264.009 307.909 264.102 307.935 264.153 307.986C264.205 308.037 264.24 308.126 264.258 308.252L264.342 309.33Z" fill="black"/>
<line x1="747.5" y1="365" x2="747.5" y2="379" stroke="black"/>
<line x1="627.5" y1="365" x2="627.5" y2="379" stroke="black"/>
<line x1="627" y1="378.5" x2="747" y2="378.5" stroke="black"/>
<rect x="292.5" y="265.5" width="659" height="29" stroke="#D8D8D8"/>
<rect x="627.5" y="265.5" width="119" height="89" stroke="#D8D8D8"/>
<rect x="922.5" y="265.5" width="29" height="89" stroke="#D8D8D8"/>
<rect x="292.5" y="265.5" width="29" height="89" stroke="#D8D8D8"/>
<rect x="292.5" y="325.5" width="659" height="29" stroke="#D8D8D8"/>
<path d="M626.791 395.969V406H625.601V398.629C625.601 398.531 625.603 398.426 625.608 398.314C625.617 398.202 625.627 398.088 625.636 397.971L622.192 404.243C622.085 404.453 621.921 404.558 621.702 404.558H621.506C621.287 404.558 621.123 404.453 621.016 404.243L617.502 397.943C617.53 398.19 617.544 398.419 617.544 398.629V406H616.354V395.969H617.355C617.476 395.969 617.57 395.981 617.635 396.004C617.7 396.027 617.763 396.093 617.824 396.2L621.289 402.374C621.345 402.486 621.399 402.603 621.45 402.724C621.506 402.845 621.557 402.969 621.604 403.095C621.651 402.969 621.7 402.845 621.751 402.724C621.802 402.598 621.858 402.479 621.919 402.367L625.321 396.2C625.377 396.093 625.438 396.027 625.503 396.004C625.573 395.981 625.669 395.969 625.79 395.969H626.791ZM630.568 398.909V406H629.322V398.909H630.568ZM630.834 396.683C630.834 396.804 630.809 396.919 630.757 397.026C630.711 397.129 630.645 397.222 630.561 397.306C630.482 397.385 630.386 397.448 630.274 397.495C630.167 397.542 630.053 397.565 629.931 397.565C629.81 397.565 629.696 397.542 629.588 397.495C629.486 397.448 629.395 397.385 629.315 397.306C629.236 397.222 629.173 397.129 629.126 397.026C629.08 396.919 629.056 396.804 629.056 396.683C629.056 396.562 629.08 396.447 629.126 396.34C629.173 396.228 629.236 396.132 629.315 396.053C629.395 395.969 629.486 395.904 629.588 395.857C629.696 395.81 629.81 395.787 629.931 395.787C630.053 395.787 630.167 395.81 630.274 395.857C630.386 395.904 630.482 395.969 630.561 396.053C630.645 396.132 630.711 396.228 630.757 396.34C630.809 396.447 630.834 396.562 630.834 396.683ZM634.092 399.938C634.246 399.765 634.409 399.609 634.582 399.469C634.754 399.329 634.936 399.21 635.128 399.112C635.324 399.009 635.529 398.932 635.744 398.881C635.963 398.825 636.199 398.797 636.451 398.797C636.838 398.797 637.179 398.862 637.473 398.993C637.771 399.119 638.019 399.301 638.215 399.539C638.415 399.772 638.567 400.055 638.67 400.386C638.772 400.717 638.824 401.084 638.824 401.485V406H637.571V401.485C637.571 400.948 637.447 400.533 637.2 400.239C636.957 399.94 636.586 399.791 636.087 399.791C635.718 399.791 635.373 399.88 635.051 400.057C634.733 400.234 634.439 400.475 634.169 400.778V406H632.916V398.909H633.665C633.842 398.909 633.952 398.995 633.994 399.168L634.092 399.938ZM642.338 398.909V406H641.092V398.909H642.338ZM642.604 396.683C642.604 396.804 642.579 396.919 642.527 397.026C642.481 397.129 642.415 397.222 642.331 397.306C642.252 397.385 642.156 397.448 642.044 397.495C641.937 397.542 641.823 397.565 641.701 397.565C641.58 397.565 641.466 397.542 641.358 397.495C641.256 397.448 641.165 397.385 641.085 397.306C641.006 397.222 640.943 397.129 640.896 397.026C640.85 396.919 640.826 396.804 640.826 396.683C640.826 396.562 640.85 396.447 640.896 396.34C640.943 396.228 641.006 396.132 641.085 396.053C641.165 395.969 641.256 395.904 641.358 395.857C641.466 395.81 641.58 395.787 641.701 395.787C641.823 395.787 641.937 395.81 642.044 395.857C642.156 395.904 642.252 395.969 642.331 396.053C642.415 396.132 642.481 396.228 642.527 396.34C642.579 396.447 642.604 396.562 642.604 396.683ZM644.686 406V398.909H645.435C645.612 398.909 645.722 398.995 645.764 399.168L645.855 399.896C646.116 399.574 646.41 399.31 646.737 399.105C647.063 398.9 647.441 398.797 647.871 398.797C648.347 398.797 648.732 398.93 649.026 399.196C649.324 399.462 649.539 399.821 649.67 400.274C649.772 400.017 649.903 399.796 650.062 399.609C650.225 399.422 650.407 399.268 650.608 399.147C650.808 399.026 651.021 398.937 651.245 398.881C651.473 398.825 651.704 398.797 651.938 398.797C652.311 398.797 652.642 398.858 652.932 398.979C653.226 399.096 653.473 399.268 653.674 399.497C653.879 399.726 654.035 400.008 654.143 400.344C654.25 400.675 654.304 401.056 654.304 401.485V406H653.051V401.485C653.051 400.93 652.929 400.51 652.687 400.225C652.444 399.936 652.094 399.791 651.637 399.791C651.431 399.791 651.235 399.828 651.049 399.903C650.867 399.973 650.706 400.078 650.566 400.218C650.426 400.358 650.314 400.535 650.23 400.75C650.15 400.96 650.111 401.205 650.111 401.485V406H648.858V401.485C648.858 400.916 648.743 400.491 648.515 400.211C648.286 399.931 647.952 399.791 647.514 399.791C647.206 399.791 646.921 399.875 646.66 400.043C646.398 400.206 646.158 400.43 645.939 400.715V406H644.686ZM662.328 398.909V406H661.586C661.409 406 661.297 405.914 661.25 405.741L661.152 404.978C660.844 405.319 660.499 405.594 660.116 405.804C659.734 406.009 659.295 406.112 658.8 406.112C658.413 406.112 658.07 406.049 657.771 405.923C657.477 405.792 657.23 405.61 657.029 405.377C656.829 405.144 656.677 404.861 656.574 404.53C656.476 404.199 656.427 403.832 656.427 403.431V398.909H657.673V403.431C657.673 403.968 657.795 404.383 658.037 404.677C658.285 404.971 658.66 405.118 659.164 405.118C659.533 405.118 659.876 405.032 660.193 404.859C660.515 404.682 660.812 404.439 661.082 404.131V398.909H662.328ZM664.604 406V398.909H665.353C665.53 398.909 665.64 398.995 665.682 399.168L665.773 399.896C666.034 399.574 666.328 399.31 666.655 399.105C666.982 398.9 667.36 398.797 667.789 398.797C668.265 398.797 668.65 398.93 668.944 399.196C669.243 399.462 669.457 399.821 669.588 400.274C669.691 400.017 669.821 399.796 669.98 399.609C670.143 399.422 670.325 399.268 670.526 399.147C670.727 399.026 670.939 398.937 671.163 398.881C671.392 398.825 671.623 398.797 671.856 398.797C672.229 398.797 672.561 398.858 672.85 398.979C673.144 399.096 673.391 399.268 673.592 399.497C673.797 399.726 673.954 400.008 674.061 400.344C674.168 400.675 674.222 401.056 674.222 401.485V406H672.969V401.485C672.969 400.93 672.848 400.51 672.605 400.225C672.362 399.936 672.012 399.791 671.555 399.791C671.35 399.791 671.154 399.828 670.967 399.903C670.785 399.973 670.624 400.078 670.484 400.218C670.344 400.358 670.232 400.535 670.148 400.75C670.069 400.96 670.029 401.205 670.029 401.485V406H668.776V401.485C668.776 400.916 668.662 400.491 668.433 400.211C668.204 399.931 667.871 399.791 667.432 399.791C667.124 399.791 666.839 399.875 666.578 400.043C666.317 400.206 666.076 400.43 665.857 400.715V406H664.604ZM683.287 398.797C683.805 398.797 684.271 398.883 684.687 399.056C685.102 399.229 685.457 399.474 685.751 399.791C686.045 400.108 686.269 400.493 686.423 400.946C686.581 401.394 686.661 401.896 686.661 402.451C686.661 403.011 686.581 403.515 686.423 403.963C686.269 404.411 686.045 404.794 685.751 405.111C685.457 405.428 685.102 405.673 684.687 405.846C684.271 406.014 683.805 406.098 683.287 406.098C682.764 406.098 682.293 406.014 681.873 405.846C681.457 405.673 681.103 405.428 680.809 405.111C680.515 404.794 680.288 404.411 680.13 403.963C679.976 403.515 679.899 403.011 679.899 402.451C679.899 401.896 679.976 401.394 680.13 400.946C680.288 400.493 680.515 400.108 680.809 399.791C681.103 399.474 681.457 399.229 681.873 399.056C682.293 398.883 682.764 398.797 683.287 398.797ZM683.287 405.125C683.987 405.125 684.509 404.892 684.855 404.425C685.2 403.954 685.373 403.298 685.373 402.458C685.373 401.613 685.2 400.955 684.855 400.484C684.509 400.013 683.987 399.777 683.287 399.777C682.932 399.777 682.622 399.838 682.356 399.959C682.094 400.08 681.875 400.255 681.698 400.484C681.525 400.713 681.394 400.995 681.306 401.331C681.222 401.662 681.18 402.038 681.18 402.458C681.18 403.298 681.352 403.954 681.698 404.425C682.048 404.892 682.577 405.125 683.287 405.125ZM688.853 406V399.973L688.069 399.882C687.971 399.859 687.889 399.824 687.824 399.777C687.763 399.726 687.733 399.653 687.733 399.56V399.049H688.853V398.363C688.853 397.957 688.909 397.598 689.021 397.285C689.137 396.968 689.301 396.702 689.511 396.487C689.725 396.268 689.982 396.102 690.281 395.99C690.579 395.878 690.915 395.822 691.289 395.822C691.606 395.822 691.898 395.869 692.164 395.962L692.136 396.585C692.126 396.697 692.063 396.758 691.947 396.767C691.835 396.776 691.683 396.781 691.492 396.781C691.277 396.781 691.081 396.809 690.904 396.865C690.731 396.921 690.582 397.012 690.456 397.138C690.33 397.264 690.232 397.43 690.162 397.635C690.096 397.84 690.064 398.095 690.064 398.398V399.049H692.108V399.952H690.106V406H688.853ZM701.344 402.381V398.244C701.344 398.123 701.349 397.99 701.358 397.845C701.368 397.7 701.382 397.553 701.4 397.404L697.746 402.381H701.344ZM703.955 402.381V403.095C703.955 403.17 703.932 403.233 703.885 403.284C703.843 403.335 703.776 403.361 703.682 403.361H702.436V406H701.344V403.361H696.892C696.799 403.361 696.717 403.335 696.647 403.284C696.582 403.228 696.54 403.16 696.521 403.081L696.395 402.444L701.274 395.969H702.436V402.381H703.955ZM712.355 400.988C712.355 401.865 712.26 402.626 712.068 403.27C711.882 403.909 711.625 404.439 711.298 404.859C710.972 405.279 710.584 405.592 710.136 405.797C709.693 406.002 709.217 406.105 708.708 406.105C708.195 406.105 707.717 406.002 707.273 405.797C706.835 405.592 706.452 405.279 706.125 404.859C705.799 404.439 705.542 403.909 705.355 403.27C705.169 402.626 705.075 401.865 705.075 400.988C705.075 400.111 705.169 399.35 705.355 398.706C705.542 398.062 705.799 397.53 706.125 397.11C706.452 396.685 706.835 396.37 707.273 396.165C707.717 395.96 708.195 395.857 708.708 395.857C709.217 395.857 709.693 395.96 710.136 396.165C710.584 396.37 710.972 396.685 711.298 397.11C711.625 397.53 711.882 398.062 712.068 398.706C712.26 399.35 712.355 400.111 712.355 400.988ZM711.06 400.988C711.06 400.223 710.995 399.581 710.864 399.063C710.738 398.54 710.566 398.12 710.346 397.803C710.132 397.486 709.882 397.259 709.597 397.124C709.313 396.984 709.016 396.914 708.708 396.914C708.4 396.914 708.104 396.984 707.819 397.124C707.535 397.259 707.285 397.486 707.07 397.803C706.856 398.12 706.683 398.54 706.552 399.063C706.426 399.581 706.363 400.223 706.363 400.988C706.363 401.753 706.426 402.395 706.552 402.913C706.683 403.431 706.856 403.849 707.07 404.166C707.285 404.483 707.535 404.712 707.819 404.852C708.104 404.987 708.4 405.055 708.708 405.055C709.016 405.055 709.313 404.987 709.597 404.852C709.882 404.712 710.132 404.483 710.346 404.166C710.566 403.849 710.738 403.431 710.864 402.913C710.995 402.395 711.06 401.753 711.06 400.988ZM720.776 400.988C720.776 401.865 720.681 402.626 720.489 403.27C720.303 403.909 720.046 404.439 719.719 404.859C719.393 405.279 719.005 405.592 718.557 405.797C718.114 406.002 717.638 406.105 717.129 406.105C716.616 406.105 716.138 406.002 715.694 405.797C715.256 405.592 714.873 405.279 714.546 404.859C714.22 404.439 713.963 403.909 713.776 403.27C713.59 402.626 713.496 401.865 713.496 400.988C713.496 400.111 713.59 399.35 713.776 398.706C713.963 398.062 714.22 397.53 714.546 397.11C714.873 396.685 715.256 396.37 715.694 396.165C716.138 395.96 716.616 395.857 717.129 395.857C717.638 395.857 718.114 395.96 718.557 396.165C719.005 396.37 719.393 396.685 719.719 397.11C720.046 397.53 720.303 398.062 720.489 398.706C720.681 399.35 720.776 400.111 720.776 400.988ZM719.481 400.988C719.481 400.223 719.416 399.581 719.285 399.063C719.159 398.54 718.987 398.12 718.767 397.803C718.553 397.486 718.303 397.259 718.018 397.124C717.734 396.984 717.437 396.914 717.129 396.914C716.821 396.914 716.525 396.984 716.24 397.124C715.956 397.259 715.706 397.486 715.491 397.803C715.277 398.12 715.104 398.54 714.973 399.063C714.847 399.581 714.784 400.223 714.784 400.988C714.784 401.753 714.847 402.395 714.973 402.913C715.104 403.431 715.277 403.849 715.491 404.166C715.706 404.483 715.956 404.712 716.24 404.852C716.525 404.987 716.821 405.055 717.129 405.055C717.437 405.055 717.734 404.987 718.018 404.852C718.303 404.712 718.553 404.483 718.767 404.166C718.987 403.849 719.159 403.431 719.285 402.913C719.416 402.395 719.481 401.753 719.481 400.988ZM726.551 398.391C726.551 398.783 726.491 399.135 726.369 399.448C726.248 399.756 726.085 400.017 725.879 400.232C725.679 400.442 725.443 400.603 725.172 400.715C724.906 400.827 724.624 400.883 724.325 400.883C724.013 400.883 723.721 400.827 723.45 400.715C723.18 400.603 722.944 400.442 722.743 400.232C722.547 400.017 722.393 399.756 722.281 399.448C722.169 399.135 722.113 398.783 722.113 398.391C722.113 397.99 722.169 397.633 722.281 397.32C722.393 397.007 722.547 396.744 722.743 396.529C722.944 396.314 723.18 396.151 723.45 396.039C723.721 395.927 724.013 395.871 724.325 395.871C724.643 395.871 724.937 395.927 725.207 396.039C725.478 396.151 725.714 396.314 725.914 396.529C726.115 396.744 726.271 397.007 726.383 397.32C726.495 397.633 726.551 397.99 726.551 398.391ZM725.585 398.391C725.585 398.083 725.553 397.822 725.487 397.607C725.422 397.392 725.331 397.217 725.214 397.082C725.102 396.942 724.969 396.842 724.815 396.781C724.661 396.72 724.498 396.69 724.325 396.69C724.153 396.69 723.992 396.72 723.842 396.781C723.693 396.842 723.562 396.942 723.45 397.082C723.338 397.217 723.25 397.392 723.184 397.607C723.119 397.822 723.086 398.083 723.086 398.391C723.086 398.694 723.119 398.953 723.184 399.168C723.25 399.378 723.338 399.551 723.45 399.686C723.562 399.817 723.693 399.912 723.842 399.973C723.992 400.029 724.153 400.057 724.325 400.057C724.498 400.057 724.661 400.029 724.815 399.973C724.969 399.912 725.102 399.817 725.214 399.686C725.331 399.551 725.422 399.378 725.487 399.168C725.553 398.953 725.585 398.694 725.585 398.391ZM730.1 396.179C730.147 396.123 730.201 396.074 730.261 396.032C730.327 395.99 730.413 395.969 730.52 395.969H731.423L724.087 405.797C724.045 405.858 723.992 405.907 723.926 405.944C723.861 405.981 723.782 406 723.688 406H722.771L730.1 396.179ZM732.102 403.634C732.102 404.026 732.042 404.376 731.92 404.684C731.799 404.992 731.636 405.253 731.43 405.468C731.23 405.678 730.994 405.839 730.723 405.951C730.457 406.063 730.175 406.119 729.876 406.119C729.559 406.119 729.265 406.063 728.994 405.951C728.728 405.839 728.495 405.678 728.294 405.468C728.098 405.253 727.944 404.992 727.832 404.684C727.72 404.376 727.664 404.026 727.664 403.634C727.664 403.233 727.72 402.876 727.832 402.563C727.944 402.246 728.098 401.98 728.294 401.765C728.495 401.55 728.728 401.387 728.994 401.275C729.265 401.163 729.559 401.107 729.876 401.107C730.189 401.107 730.481 401.163 730.751 401.275C731.027 401.387 731.262 401.55 731.458 401.765C731.659 401.98 731.815 402.246 731.927 402.563C732.044 402.876 732.102 403.233 732.102 403.634ZM731.136 403.634C731.136 403.326 731.104 403.065 731.038 402.85C730.973 402.631 730.882 402.453 730.765 402.318C730.653 402.183 730.52 402.085 730.366 402.024C730.212 401.963 730.049 401.933 729.876 401.933C729.704 401.933 729.54 401.963 729.386 402.024C729.237 402.085 729.106 402.183 728.994 402.318C728.882 402.453 728.794 402.631 728.728 402.85C728.668 403.065 728.637 403.326 728.637 403.634C728.637 403.937 728.668 404.194 728.728 404.404C728.794 404.614 728.882 404.787 728.994 404.922C729.106 405.053 729.237 405.148 729.386 405.209C729.54 405.265 729.704 405.293 729.876 405.293C730.049 405.293 730.212 405.265 730.366 405.209C730.52 405.148 730.653 405.053 730.765 404.922C730.882 404.787 730.973 404.614 731.038 404.404C731.104 404.194 731.136 403.937 731.136 403.634ZM740.88 398.797C741.398 398.797 741.865 398.883 742.28 399.056C742.695 399.229 743.05 399.474 743.344 399.791C743.638 400.108 743.862 400.493 744.016 400.946C744.175 401.394 744.254 401.896 744.254 402.451C744.254 403.011 744.175 403.515 744.016 403.963C743.862 404.411 743.638 404.794 743.344 405.111C743.05 405.428 742.695 405.673 742.28 405.846C741.865 406.014 741.398 406.098 740.88 406.098C740.357 406.098 739.886 406.014 739.466 405.846C739.051 405.673 738.696 405.428 738.402 405.111C738.108 404.794 737.882 404.411 737.723 403.963C737.569 403.515 737.492 403.011 737.492 402.451C737.492 401.896 737.569 401.394 737.723 400.946C737.882 400.493 738.108 400.108 738.402 399.791C738.696 399.474 739.051 399.229 739.466 399.056C739.886 398.883 740.357 398.797 740.88 398.797ZM740.88 405.125C741.58 405.125 742.103 404.892 742.448 404.425C742.793 403.954 742.966 403.298 742.966 402.458C742.966 401.613 742.793 400.955 742.448 400.484C742.103 400.013 741.58 399.777 740.88 399.777C740.525 399.777 740.215 399.838 739.949 399.959C739.688 400.08 739.468 400.255 739.291 400.484C739.118 400.713 738.988 400.995 738.899 401.331C738.815 401.662 738.773 402.038 738.773 402.458C738.773 403.298 738.946 403.954 739.291 404.425C739.641 404.892 740.171 405.125 740.88 405.125ZM746.446 406V399.973L745.662 399.882C745.564 399.859 745.482 399.824 745.417 399.777C745.356 399.726 745.326 399.653 745.326 399.56V399.049H746.446V398.363C746.446 397.957 746.502 397.598 746.614 397.285C746.731 396.968 746.894 396.702 747.104 396.487C747.319 396.268 747.575 396.102 747.874 395.99C748.173 395.878 748.509 395.822 748.882 395.822C749.199 395.822 749.491 395.869 749.757 395.962L749.729 396.585C749.72 396.697 749.657 396.758 749.54 396.767C749.428 396.776 749.276 396.781 749.085 396.781C748.87 396.781 748.674 396.809 748.497 396.865C748.324 396.921 748.175 397.012 748.049 397.138C747.923 397.264 747.825 397.43 747.755 397.635C747.69 397.84 747.657 398.095 747.657 398.398V399.049H749.701V399.952H747.699V406H746.446ZM755.998 400.33C756.222 399.845 756.497 399.467 756.824 399.196C757.15 398.921 757.549 398.783 758.021 398.783C758.17 398.783 758.312 398.799 758.448 398.832C758.588 398.865 758.711 398.916 758.819 398.986L758.728 399.917C758.7 400.034 758.63 400.092 758.518 400.092C758.452 400.092 758.357 400.078 758.231 400.05C758.105 400.022 757.962 400.008 757.804 400.008C757.58 400.008 757.379 400.041 757.202 400.106C757.029 400.171 756.873 400.269 756.733 400.4C756.597 400.526 756.474 400.685 756.362 400.876C756.254 401.063 756.156 401.277 756.068 401.52V406H754.815V398.909H755.529C755.664 398.909 755.757 398.935 755.809 398.986C755.86 399.037 755.895 399.126 755.914 399.252L755.998 400.33Z" fill="black"/>
<line x1="952.5" y1="365" x2="952.5" y2="379" stroke="black"/>
<line x1="923.5" y1="365" x2="923.5" y2="379" stroke="black"/>
<line x1="923" y1="378.5" x2="952" y2="378.5" stroke="black"/>
<path d="M913.78 405.048V406H908.404V405.048H910.553V398.209C910.553 398.004 910.56 397.796 910.574 397.586L908.789 399.119C908.728 399.17 908.667 399.203 908.607 399.217C908.546 399.226 908.49 399.226 908.439 399.217C908.387 399.208 908.338 399.189 908.292 399.161C908.25 399.133 908.217 399.103 908.194 399.07L907.802 398.531L910.791 395.948H911.806V405.048H913.78ZM922.775 400.988C922.775 401.865 922.679 402.626 922.488 403.27C922.301 403.909 922.044 404.439 921.718 404.859C921.391 405.279 921.004 405.592 920.556 405.797C920.112 406.002 919.636 406.105 919.128 406.105C918.614 406.105 918.136 406.002 917.693 405.797C917.254 405.592 916.871 405.279 916.545 404.859C916.218 404.439 915.961 403.909 915.775 403.27C915.588 402.626 915.495 401.865 915.495 400.988C915.495 400.111 915.588 399.35 915.775 398.706C915.961 398.062 916.218 397.53 916.545 397.11C916.871 396.685 917.254 396.37 917.693 396.165C918.136 395.96 918.614 395.857 919.128 395.857C919.636 395.857 920.112 395.96 920.556 396.165C921.004 396.37 921.391 396.685 921.718 397.11C922.044 397.53 922.301 398.062 922.488 398.706C922.679 399.35 922.775 400.111 922.775 400.988ZM921.48 400.988C921.48 400.223 921.414 399.581 921.284 399.063C921.158 398.54 920.985 398.12 920.766 397.803C920.551 397.486 920.301 397.259 920.017 397.124C919.732 396.984 919.436 396.914 919.128 396.914C918.82 396.914 918.523 396.984 918.239 397.124C917.954 397.259 917.704 397.486 917.49 397.803C917.275 398.12 917.102 398.54 916.972 399.063C916.846 399.581 916.783 400.223 916.783 400.988C916.783 401.753 916.846 402.395 916.972 402.913C917.102 403.431 917.275 403.849 917.49 404.166C917.704 404.483 917.954 404.712 918.239 404.852C918.523 404.987 918.82 405.055 919.128 405.055C919.436 405.055 919.732 404.987 920.017 404.852C920.301 404.712 920.551 404.483 920.766 404.166C920.985 403.849 921.158 403.431 921.284 402.913C921.414 402.395 921.48 401.753 921.48 400.988ZM931.196 400.988C931.196 401.865 931.1 402.626 930.909 403.27C930.722 403.909 930.465 404.439 930.139 404.859C929.812 405.279 929.425 405.592 928.977 405.797C928.533 406.002 928.057 406.105 927.549 406.105C927.035 406.105 926.557 406.002 926.114 405.797C925.675 405.592 925.292 405.279 924.966 404.859C924.639 404.439 924.382 403.909 924.196 403.27C924.009 402.626 923.916 401.865 923.916 400.988C923.916 400.111 924.009 399.35 924.196 398.706C924.382 398.062 924.639 397.53 924.966 397.11C925.292 396.685 925.675 396.37 926.114 396.165C926.557 395.96 927.035 395.857 927.549 395.857C928.057 395.857 928.533 395.96 928.977 396.165C929.425 396.37 929.812 396.685 930.139 397.11C930.465 397.53 930.722 398.062 930.909 398.706C931.1 399.35 931.196 400.111 931.196 400.988ZM929.901 400.988C929.901 400.223 929.835 399.581 929.705 399.063C929.579 398.54 929.406 398.12 929.187 397.803C928.972 397.486 928.722 397.259 928.438 397.124C928.153 396.984 927.857 396.914 927.549 396.914C927.241 396.914 926.944 396.984 926.66 397.124C926.375 397.259 926.125 397.486 925.911 397.803C925.696 398.12 925.523 398.54 925.393 399.063C925.267 399.581 925.204 400.223 925.204 400.988C925.204 401.753 925.267 402.395 925.393 402.913C925.523 403.431 925.696 403.849 925.911 404.166C926.125 404.483 926.375 404.712 926.66 404.852C926.944 404.987 927.241 405.055 927.549 405.055C927.857 405.055 928.153 404.987 928.438 404.852C928.722 404.712 928.972 404.483 929.187 404.166C929.406 403.849 929.579 403.431 929.705 402.913C929.835 402.395 929.901 401.753 929.901 400.988ZM936.971 398.391C936.971 398.783 936.91 399.135 936.789 399.448C936.667 399.756 936.504 400.017 936.299 400.232C936.098 400.442 935.862 400.603 935.592 400.715C935.326 400.827 935.043 400.883 934.745 400.883C934.432 400.883 934.14 400.827 933.87 400.715C933.599 400.603 933.363 400.442 933.163 400.232C932.967 400.017 932.813 399.756 932.701 399.448C932.589 399.135 932.533 398.783 932.533 398.391C932.533 397.99 932.589 397.633 932.701 397.32C932.813 397.007 932.967 396.744 933.163 396.529C933.363 396.314 933.599 396.151 933.87 396.039C934.14 395.927 934.432 395.871 934.745 395.871C935.062 395.871 935.356 395.927 935.627 396.039C935.897 396.151 936.133 396.314 936.334 396.529C936.534 396.744 936.691 397.007 936.803 397.32C936.915 397.633 936.971 397.99 936.971 398.391ZM936.005 398.391C936.005 398.083 935.972 397.822 935.907 397.607C935.841 397.392 935.75 397.217 935.634 397.082C935.522 396.942 935.389 396.842 935.235 396.781C935.081 396.72 934.917 396.69 934.745 396.69C934.572 396.69 934.411 396.72 934.262 396.781C934.112 396.842 933.982 396.942 933.87 397.082C933.758 397.217 933.669 397.392 933.604 397.607C933.538 397.822 933.506 398.083 933.506 398.391C933.506 398.694 933.538 398.953 933.604 399.168C933.669 399.378 933.758 399.551 933.87 399.686C933.982 399.817 934.112 399.912 934.262 399.973C934.411 400.029 934.572 400.057 934.745 400.057C934.917 400.057 935.081 400.029 935.235 399.973C935.389 399.912 935.522 399.817 935.634 399.686C935.75 399.551 935.841 399.378 935.907 399.168C935.972 398.953 936.005 398.694 936.005 398.391ZM940.52 396.179C940.566 396.123 940.62 396.074 940.681 396.032C940.746 395.99 940.832 395.969 940.94 395.969H941.843L934.507 405.797C934.465 405.858 934.411 405.907 934.346 405.944C934.28 405.981 934.201 406 934.108 406H933.191L940.52 396.179ZM942.522 403.634C942.522 404.026 942.461 404.376 942.34 404.684C942.218 404.992 942.055 405.253 941.85 405.468C941.649 405.678 941.413 405.839 941.143 405.951C940.877 406.063 940.594 406.119 940.296 406.119C939.978 406.119 939.684 406.063 939.414 405.951C939.148 405.839 938.914 405.678 938.714 405.468C938.518 405.253 938.364 404.992 938.252 404.684C938.14 404.376 938.084 404.026 938.084 403.634C938.084 403.233 938.14 402.876 938.252 402.563C938.364 402.246 938.518 401.98 938.714 401.765C938.914 401.55 939.148 401.387 939.414 401.275C939.684 401.163 939.978 401.107 940.296 401.107C940.608 401.107 940.9 401.163 941.171 401.275C941.446 401.387 941.682 401.55 941.878 401.765C942.078 401.98 942.235 402.246 942.347 402.563C942.463 402.876 942.522 403.233 942.522 403.634ZM941.556 403.634C941.556 403.326 941.523 403.065 941.458 402.85C941.392 402.631 941.301 402.453 941.185 402.318C941.073 402.183 940.94 402.085 940.786 402.024C940.632 401.963 940.468 401.933 940.296 401.933C940.123 401.933 939.96 401.963 939.806 402.024C939.656 402.085 939.526 402.183 939.414 402.318C939.302 402.453 939.213 402.631 939.148 402.85C939.087 403.065 939.057 403.326 939.057 403.634C939.057 403.937 939.087 404.194 939.148 404.404C939.213 404.614 939.302 404.787 939.414 404.922C939.526 405.053 939.656 405.148 939.806 405.209C939.96 405.265 940.123 405.293 940.296 405.293C940.468 405.293 940.632 405.265 940.786 405.209C940.94 405.148 941.073 405.053 941.185 404.922C941.301 404.787 941.392 404.614 941.458 404.404C941.523 404.194 941.556 403.937 941.556 403.634ZM951.299 398.797C951.817 398.797 952.284 398.883 952.699 399.056C953.115 399.229 953.469 399.474 953.763 399.791C954.057 400.108 954.281 400.493 954.435 400.946C954.594 401.394 954.673 401.896 954.673 402.451C954.673 403.011 954.594 403.515 954.435 403.963C954.281 404.411 954.057 404.794 953.763 405.111C953.469 405.428 953.115 405.673 952.699 405.846C952.284 406.014 951.817 406.098 951.299 406.098C950.777 406.098 950.305 406.014 949.885 405.846C949.47 405.673 949.115 405.428 948.821 405.111C948.527 404.794 948.301 404.411 948.142 403.963C947.988 403.515 947.911 403.011 947.911 402.451C947.911 401.896 947.988 401.394 948.142 400.946C948.301 400.493 948.527 400.108 948.821 399.791C949.115 399.474 949.47 399.229 949.885 399.056C950.305 398.883 950.777 398.797 951.299 398.797ZM951.299 405.125C951.999 405.125 952.522 404.892 952.867 404.425C953.213 403.954 953.385 403.298 953.385 402.458C953.385 401.613 953.213 400.955 952.867 400.484C952.522 400.013 951.999 399.777 951.299 399.777C950.945 399.777 950.634 399.838 950.368 399.959C950.107 400.08 949.888 400.255 949.71 400.484C949.538 400.713 949.407 400.995 949.318 401.331C949.234 401.662 949.192 402.038 949.192 402.458C949.192 403.298 949.365 403.954 949.71 404.425C950.06 404.892 950.59 405.125 951.299 405.125ZM956.865 406V399.973L956.081 399.882C955.983 399.859 955.902 399.824 955.836 399.777C955.776 399.726 955.745 399.653 955.745 399.56V399.049H956.865V398.363C956.865 397.957 956.921 397.598 957.033 397.285C957.15 396.968 957.313 396.702 957.523 396.487C957.738 396.268 957.995 396.102 958.293 395.99C958.592 395.878 958.928 395.822 959.301 395.822C959.619 395.822 959.91 395.869 960.176 395.962L960.148 396.585C960.139 396.697 960.076 396.758 959.959 396.767C959.847 396.776 959.696 396.781 959.504 396.781C959.29 396.781 959.094 396.809 958.916 396.865C958.744 396.921 958.594 397.012 958.468 397.138C958.342 397.264 958.244 397.43 958.174 397.635C958.109 397.84 958.076 398.095 958.076 398.398V399.049H960.12V399.952H958.118V406H956.865ZM966.417 400.33C966.641 399.845 966.916 399.467 967.243 399.196C967.57 398.921 967.969 398.783 968.44 398.783C968.589 398.783 968.732 398.799 968.867 398.832C969.007 398.865 969.131 398.916 969.238 398.986L969.147 399.917C969.119 400.034 969.049 400.092 968.937 400.092C968.872 400.092 968.776 400.078 968.65 400.05C968.524 400.022 968.382 400.008 968.223 400.008C967.999 400.008 967.798 400.041 967.621 400.106C967.448 400.171 967.292 400.269 967.152 400.4C967.017 400.526 966.893 400.685 966.781 400.876C966.674 401.063 966.576 401.277 966.487 401.52V406H965.234V398.909H965.948C966.083 398.909 966.177 398.935 966.228 398.986C966.279 399.037 966.314 399.126 966.333 399.252L966.417 400.33Z" fill="black"/>
<line x1="322.5" y1="365" x2="322.5" y2="379" stroke="black"/>
<line x1="293.5" y1="365" x2="293.5" y2="379" stroke="black"/>
<line x1="293" y1="378.5" x2="322" y2="378.5" stroke="black"/>
<path d="M282.78 405.048V406H277.404V405.048H279.553V398.209C279.553 398.004 279.56 397.796 279.574 397.586L277.789 399.119C277.728 399.17 277.667 399.203 277.607 399.217C277.546 399.226 277.49 399.226 277.439 399.217C277.387 399.208 277.338 399.189 277.292 399.161C277.25 399.133 277.217 399.103 277.194 399.07L276.802 398.531L279.791 395.948H280.806V405.048H282.78ZM291.775 400.988C291.775 401.865 291.679 402.626 291.488 403.27C291.301 403.909 291.044 404.439 290.718 404.859C290.391 405.279 290.004 405.592 289.556 405.797C289.112 406.002 288.636 406.105 288.128 406.105C287.614 406.105 287.136 406.002 286.693 405.797C286.254 405.592 285.871 405.279 285.545 404.859C285.218 404.439 284.961 403.909 284.775 403.27C284.588 402.626 284.495 401.865 284.495 400.988C284.495 400.111 284.588 399.35 284.775 398.706C284.961 398.062 285.218 397.53 285.545 397.11C285.871 396.685 286.254 396.37 286.693 396.165C287.136 395.96 287.614 395.857 288.128 395.857C288.636 395.857 289.112 395.96 289.556 396.165C290.004 396.37 290.391 396.685 290.718 397.11C291.044 397.53 291.301 398.062 291.488 398.706C291.679 399.35 291.775 400.111 291.775 400.988ZM290.48 400.988C290.48 400.223 290.414 399.581 290.284 399.063C290.158 398.54 289.985 398.12 289.766 397.803C289.551 397.486 289.301 397.259 289.017 397.124C288.732 396.984 288.436 396.914 288.128 396.914C287.82 396.914 287.523 396.984 287.239 397.124C286.954 397.259 286.704 397.486 286.49 397.803C286.275 398.12 286.102 398.54 285.972 399.063C285.846 399.581 285.783 400.223 285.783 400.988C285.783 401.753 285.846 402.395 285.972 402.913C286.102 403.431 286.275 403.849 286.49 404.166C286.704 404.483 286.954 404.712 287.239 404.852C287.523 404.987 287.82 405.055 288.128 405.055C288.436 405.055 288.732 404.987 289.017 404.852C289.301 404.712 289.551 404.483 289.766 404.166C289.985 403.849 290.158 403.431 290.284 402.913C290.414 402.395 290.48 401.753 290.48 400.988ZM300.196 400.988C300.196 401.865 300.1 402.626 299.909 403.27C299.722 403.909 299.465 404.439 299.139 404.859C298.812 405.279 298.425 405.592 297.977 405.797C297.533 406.002 297.057 406.105 296.549 406.105C296.035 406.105 295.557 406.002 295.114 405.797C294.675 405.592 294.292 405.279 293.966 404.859C293.639 404.439 293.382 403.909 293.196 403.27C293.009 402.626 292.916 401.865 292.916 400.988C292.916 400.111 293.009 399.35 293.196 398.706C293.382 398.062 293.639 397.53 293.966 397.11C294.292 396.685 294.675 396.37 295.114 396.165C295.557 395.96 296.035 395.857 296.549 395.857C297.057 395.857 297.533 395.96 297.977 396.165C298.425 396.37 298.812 396.685 299.139 397.11C299.465 397.53 299.722 398.062 299.909 398.706C300.1 399.35 300.196 400.111 300.196 400.988ZM298.901 400.988C298.901 400.223 298.835 399.581 298.705 399.063C298.579 398.54 298.406 398.12 298.187 397.803C297.972 397.486 297.722 397.259 297.438 397.124C297.153 396.984 296.857 396.914 296.549 396.914C296.241 396.914 295.944 396.984 295.66 397.124C295.375 397.259 295.125 397.486 294.911 397.803C294.696 398.12 294.523 398.54 294.393 399.063C294.267 399.581 294.204 400.223 294.204 400.988C294.204 401.753 294.267 402.395 294.393 402.913C294.523 403.431 294.696 403.849 294.911 404.166C295.125 404.483 295.375 404.712 295.66 404.852C295.944 404.987 296.241 405.055 296.549 405.055C296.857 405.055 297.153 404.987 297.438 404.852C297.722 404.712 297.972 404.483 298.187 404.166C298.406 403.849 298.579 403.431 298.705 402.913C298.835 402.395 298.901 401.753 298.901 400.988ZM305.971 398.391C305.971 398.783 305.91 399.135 305.789 399.448C305.667 399.756 305.504 400.017 305.299 400.232C305.098 400.442 304.862 400.603 304.592 400.715C304.326 400.827 304.043 400.883 303.745 400.883C303.432 400.883 303.14 400.827 302.87 400.715C302.599 400.603 302.363 400.442 302.163 400.232C301.967 400.017 301.813 399.756 301.701 399.448C301.589 399.135 301.533 398.783 301.533 398.391C301.533 397.99 301.589 397.633 301.701 397.32C301.813 397.007 301.967 396.744 302.163 396.529C302.363 396.314 302.599 396.151 302.87 396.039C303.14 395.927 303.432 395.871 303.745 395.871C304.062 395.871 304.356 395.927 304.627 396.039C304.897 396.151 305.133 396.314 305.334 396.529C305.534 396.744 305.691 397.007 305.803 397.32C305.915 397.633 305.971 397.99 305.971 398.391ZM305.005 398.391C305.005 398.083 304.972 397.822 304.907 397.607C304.841 397.392 304.75 397.217 304.634 397.082C304.522 396.942 304.389 396.842 304.235 396.781C304.081 396.72 303.917 396.69 303.745 396.69C303.572 396.69 303.411 396.72 303.262 396.781C303.112 396.842 302.982 396.942 302.87 397.082C302.758 397.217 302.669 397.392 302.604 397.607C302.538 397.822 302.506 398.083 302.506 398.391C302.506 398.694 302.538 398.953 302.604 399.168C302.669 399.378 302.758 399.551 302.87 399.686C302.982 399.817 303.112 399.912 303.262 399.973C303.411 400.029 303.572 400.057 303.745 400.057C303.917 400.057 304.081 400.029 304.235 399.973C304.389 399.912 304.522 399.817 304.634 399.686C304.75 399.551 304.841 399.378 304.907 399.168C304.972 398.953 305.005 398.694 305.005 398.391ZM309.52 396.179C309.566 396.123 309.62 396.074 309.681 396.032C309.746 395.99 309.832 395.969 309.94 395.969H310.843L303.507 405.797C303.465 405.858 303.411 405.907 303.346 405.944C303.28 405.981 303.201 406 303.108 406H302.191L309.52 396.179ZM311.522 403.634C311.522 404.026 311.461 404.376 311.34 404.684C311.218 404.992 311.055 405.253 310.85 405.468C310.649 405.678 310.413 405.839 310.143 405.951C309.877 406.063 309.594 406.119 309.296 406.119C308.978 406.119 308.684 406.063 308.414 405.951C308.148 405.839 307.914 405.678 307.714 405.468C307.518 405.253 307.364 404.992 307.252 404.684C307.14 404.376 307.084 404.026 307.084 403.634C307.084 403.233 307.14 402.876 307.252 402.563C307.364 402.246 307.518 401.98 307.714 401.765C307.914 401.55 308.148 401.387 308.414 401.275C308.684 401.163 308.978 401.107 309.296 401.107C309.608 401.107 309.9 401.163 310.171 401.275C310.446 401.387 310.682 401.55 310.878 401.765C311.078 401.98 311.235 402.246 311.347 402.563C311.463 402.876 311.522 403.233 311.522 403.634ZM310.556 403.634C310.556 403.326 310.523 403.065 310.458 402.85C310.392 402.631 310.301 402.453 310.185 402.318C310.073 402.183 309.94 402.085 309.786 402.024C309.632 401.963 309.468 401.933 309.296 401.933C309.123 401.933 308.96 401.963 308.806 402.024C308.656 402.085 308.526 402.183 308.414 402.318C308.302 402.453 308.213 402.631 308.148 402.85C308.087 403.065 308.057 403.326 308.057 403.634C308.057 403.937 308.087 404.194 308.148 404.404C308.213 404.614 308.302 404.787 308.414 404.922C308.526 405.053 308.656 405.148 308.806 405.209C308.96 405.265 309.123 405.293 309.296 405.293C309.468 405.293 309.632 405.265 309.786 405.209C309.94 405.148 310.073 405.053 310.185 404.922C310.301 404.787 310.392 404.614 310.458 404.404C310.523 404.194 310.556 403.937 310.556 403.634ZM320.299 398.797C320.817 398.797 321.284 398.883 321.699 399.056C322.115 399.229 322.469 399.474 322.763 399.791C323.057 400.108 323.281 400.493 323.435 400.946C323.594 401.394 323.673 401.896 323.673 402.451C323.673 403.011 323.594 403.515 323.435 403.963C323.281 404.411 323.057 404.794 322.763 405.111C322.469 405.428 322.115 405.673 321.699 405.846C321.284 406.014 320.817 406.098 320.299 406.098C319.777 406.098 319.305 406.014 318.885 405.846C318.47 405.673 318.115 405.428 317.821 405.111C317.527 404.794 317.301 404.411 317.142 403.963C316.988 403.515 316.911 403.011 316.911 402.451C316.911 401.896 316.988 401.394 317.142 400.946C317.301 400.493 317.527 400.108 317.821 399.791C318.115 399.474 318.47 399.229 318.885 399.056C319.305 398.883 319.777 398.797 320.299 398.797ZM320.299 405.125C320.999 405.125 321.522 404.892 321.867 404.425C322.213 403.954 322.385 403.298 322.385 402.458C322.385 401.613 322.213 400.955 321.867 400.484C321.522 400.013 320.999 399.777 320.299 399.777C319.945 399.777 319.634 399.838 319.368 399.959C319.107 400.08 318.888 400.255 318.71 400.484C318.538 400.713 318.407 400.995 318.318 401.331C318.234 401.662 318.192 402.038 318.192 402.458C318.192 403.298 318.365 403.954 318.71 404.425C319.06 404.892 319.59 405.125 320.299 405.125ZM325.865 406V399.973L325.081 399.882C324.983 399.859 324.902 399.824 324.836 399.777C324.776 399.726 324.745 399.653 324.745 399.56V399.049H325.865V398.363C325.865 397.957 325.921 397.598 326.033 397.285C326.15 396.968 326.313 396.702 326.523 396.487C326.738 396.268 326.995 396.102 327.293 395.99C327.592 395.878 327.928 395.822 328.301 395.822C328.619 395.822 328.91 395.869 329.176 395.962L329.148 396.585C329.139 396.697 329.076 396.758 328.959 396.767C328.847 396.776 328.696 396.781 328.504 396.781C328.29 396.781 328.094 396.809 327.916 396.865C327.744 396.921 327.594 397.012 327.468 397.138C327.342 397.264 327.244 397.43 327.174 397.635C327.109 397.84 327.076 398.095 327.076 398.398V399.049H329.12V399.952H327.118V406H325.865ZM335.417 400.33C335.641 399.845 335.916 399.467 336.243 399.196C336.57 398.921 336.969 398.783 337.44 398.783C337.589 398.783 337.732 398.799 337.867 398.832C338.007 398.865 338.131 398.916 338.238 398.986L338.147 399.917C338.119 400.034 338.049 400.092 337.937 400.092C337.872 400.092 337.776 400.078 337.65 400.05C337.524 400.022 337.382 400.008 337.223 400.008C336.999 400.008 336.798 400.041 336.621 400.106C336.448 400.171 336.292 400.269 336.152 400.4C336.017 400.526 335.893 400.685 335.781 400.876C335.674 401.063 335.576 401.277 335.487 401.52V406H334.234V398.909H334.948C335.083 398.909 335.177 398.935 335.228 398.986C335.279 399.037 335.314 399.126 335.333 399.252L335.417 400.33Z" fill="black"/>
<line x1="293" y1="297.5" x2="747" y2="297.5" stroke="#D8D8D8"/>
<line x1="293" y1="322.5" x2="747" y2="322.5" stroke="#D8D8D8"/>
<defs>
<clipPath id="clip0_923:325">
<rect width="175.882" height="30" fill="white" transform="translate(747 295)"/>
</clipPath>
</defs>
</svg>
