<svg width="1204" height="678" viewBox="0 0 1204 678" fill="none" xmlns="http://www.w3.org/2000/svg">
<rect width="1204" height="677.25" fill="white"/>
<rect x="213.5" y="188.5" width="835" height="99" stroke="#D8D8D8"/>
<rect x="213.5" y="338.5" width="835" height="99" stroke="#D8D8D8"/>
<rect x="213.5" y="437.5" width="249" height="99" transform="rotate(-90 213.5 437.5)" stroke="#D8D8D8"/>
<rect x="949.5" y="437.5" width="249" height="99" transform="rotate(-90 949.5 437.5)" stroke="#D8D8D8"/>
<line x1="203" y1="288.5" x2="189" y2="288.5" stroke="black"/>
<line x1="203" y1="188.5" x2="189" y2="188.5" stroke="black"/>
<line x1="189.5" y1="188" x2="189.5" y2="288" stroke="black"/>
<line x1="313.5" y1="448" x2="313.5" y2="462" stroke="black"/>
<line x1="213.5" y1="448" x2="213.5" y2="462" stroke="black"/>
<line x1="213" y1="461.5" x2="313" y2="461.5" stroke="black"/>
<path d="M124.909 242.817C125.044 242.817 125.152 242.857 125.231 242.936C125.31 243.015 125.35 243.118 125.35 243.244V244H118.658V243.573C118.658 243.484 118.677 243.393 118.714 243.3C118.751 243.207 118.81 243.12 118.889 243.041L122.102 239.814C122.368 239.543 122.611 239.284 122.83 239.037C123.049 238.785 123.236 238.533 123.39 238.281C123.544 238.029 123.663 237.775 123.747 237.518C123.831 237.257 123.873 236.979 123.873 236.685C123.873 236.391 123.826 236.134 123.733 235.915C123.64 235.691 123.511 235.507 123.348 235.362C123.189 235.217 123 235.11 122.781 235.04C122.562 234.965 122.326 234.928 122.074 234.928C121.817 234.928 121.582 234.965 121.367 235.04C121.152 235.115 120.961 235.22 120.793 235.355C120.63 235.486 120.492 235.642 120.38 235.824C120.268 236.006 120.189 236.207 120.142 236.426C120.086 236.589 120.009 236.699 119.911 236.755C119.818 236.806 119.685 236.82 119.512 236.797L118.861 236.685C118.926 236.228 119.052 235.824 119.239 235.474C119.43 235.119 119.668 234.823 119.953 234.585C120.242 234.347 120.571 234.167 120.94 234.046C121.309 233.92 121.708 233.857 122.137 233.857C122.562 233.857 122.958 233.92 123.327 234.046C123.696 234.172 124.015 234.356 124.286 234.599C124.557 234.837 124.769 235.129 124.923 235.474C125.077 235.819 125.154 236.211 125.154 236.65C125.154 237.023 125.098 237.371 124.986 237.693C124.874 238.01 124.722 238.314 124.531 238.603C124.34 238.892 124.118 239.175 123.866 239.45C123.619 239.725 123.355 240.003 123.075 240.283L120.429 242.985C120.616 242.934 120.805 242.894 120.996 242.866C121.187 242.833 121.372 242.817 121.549 242.817H124.909ZM134.121 238.988C134.121 239.865 134.025 240.626 133.834 241.27C133.647 241.909 133.391 242.439 133.064 242.859C132.737 243.279 132.35 243.592 131.902 243.797C131.459 244.002 130.983 244.105 130.474 244.105C129.961 244.105 129.482 244.002 129.039 243.797C128.6 243.592 128.218 243.279 127.891 242.859C127.564 242.439 127.308 241.909 127.121 241.27C126.934 240.626 126.841 239.865 126.841 238.988C126.841 238.111 126.934 237.35 127.121 236.706C127.308 236.062 127.564 235.53 127.891 235.11C128.218 234.685 128.6 234.37 129.039 234.165C129.482 233.96 129.961 233.857 130.474 233.857C130.983 233.857 131.459 233.96 131.902 234.165C132.35 234.37 132.737 234.685 133.064 235.11C133.391 235.53 133.647 236.062 133.834 236.706C134.025 237.35 134.121 238.111 134.121 238.988ZM132.826 238.988C132.826 238.223 132.761 237.581 132.63 237.063C132.504 236.54 132.331 236.12 132.112 235.803C131.897 235.486 131.648 235.259 131.363 235.124C131.078 234.984 130.782 234.914 130.474 234.914C130.166 234.914 129.87 234.984 129.585 235.124C129.3 235.259 129.051 235.486 128.836 235.803C128.621 236.12 128.449 236.54 128.318 237.063C128.192 237.581 128.129 238.223 128.129 238.988C128.129 239.753 128.192 240.395 128.318 240.913C128.449 241.431 128.621 241.849 128.836 242.166C129.051 242.483 129.3 242.712 129.585 242.852C129.87 242.987 130.166 243.055 130.474 243.055C130.782 243.055 131.078 242.987 131.363 242.852C131.648 242.712 131.897 242.483 132.112 242.166C132.331 241.849 132.504 241.431 132.63 240.913C132.761 240.395 132.826 239.753 132.826 238.988ZM142.542 238.988C142.542 239.865 142.447 240.626 142.255 241.27C142.069 241.909 141.812 242.439 141.485 242.859C141.159 243.279 140.771 243.592 140.323 243.797C139.88 244.002 139.404 244.105 138.895 244.105C138.382 244.105 137.904 244.002 137.46 243.797C137.022 243.592 136.639 243.279 136.312 242.859C135.986 242.439 135.729 241.909 135.542 241.27C135.356 240.626 135.262 239.865 135.262 238.988C135.262 238.111 135.356 237.35 135.542 236.706C135.729 236.062 135.986 235.53 136.312 235.11C136.639 234.685 137.022 234.37 137.46 234.165C137.904 233.96 138.382 233.857 138.895 233.857C139.404 233.857 139.88 233.96 140.323 234.165C140.771 234.37 141.159 234.685 141.485 235.11C141.812 235.53 142.069 236.062 142.255 236.706C142.447 237.35 142.542 238.111 142.542 238.988ZM141.247 238.988C141.247 238.223 141.182 237.581 141.051 237.063C140.925 236.54 140.753 236.12 140.533 235.803C140.319 235.486 140.069 235.259 139.784 235.124C139.5 234.984 139.203 234.914 138.895 234.914C138.587 234.914 138.291 234.984 138.006 235.124C137.722 235.259 137.472 235.486 137.257 235.803C137.043 236.12 136.87 236.54 136.739 237.063C136.613 237.581 136.55 238.223 136.55 238.988C136.55 239.753 136.613 240.395 136.739 240.913C136.87 241.431 137.043 241.849 137.257 242.166C137.472 242.483 137.722 242.712 138.006 242.852C138.291 242.987 138.587 243.055 138.895 243.055C139.203 243.055 139.5 242.987 139.784 242.852C140.069 242.712 140.319 242.483 140.533 242.166C140.753 241.849 140.925 241.431 141.051 240.913C141.182 240.395 141.247 239.753 141.247 238.988ZM148.317 236.391C148.317 236.783 148.257 237.135 148.135 237.448C148.014 237.756 147.851 238.017 147.645 238.232C147.445 238.442 147.209 238.603 146.938 238.715C146.672 238.827 146.39 238.883 146.091 238.883C145.779 238.883 145.487 238.827 145.216 238.715C144.946 238.603 144.71 238.442 144.509 238.232C144.313 238.017 144.159 237.756 144.047 237.448C143.935 237.135 143.879 236.783 143.879 236.391C143.879 235.99 143.935 235.633 144.047 235.32C144.159 235.007 144.313 234.744 144.509 234.529C144.71 234.314 144.946 234.151 145.216 234.039C145.487 233.927 145.779 233.871 146.091 233.871C146.409 233.871 146.703 233.927 146.973 234.039C147.244 234.151 147.48 234.314 147.68 234.529C147.881 234.744 148.037 235.007 148.149 235.32C148.261 235.633 148.317 235.99 148.317 236.391ZM147.351 236.391C147.351 236.083 147.319 235.822 147.253 235.607C147.188 235.392 147.097 235.217 146.98 235.082C146.868 234.942 146.735 234.842 146.581 234.781C146.427 234.72 146.264 234.69 146.091 234.69C145.919 234.69 145.758 234.72 145.608 234.781C145.459 234.842 145.328 234.942 145.216 235.082C145.104 235.217 145.016 235.392 144.95 235.607C144.885 235.822 144.852 236.083 144.852 236.391C144.852 236.694 144.885 236.953 144.95 237.168C145.016 237.378 145.104 237.551 145.216 237.686C145.328 237.817 145.459 237.912 145.608 237.973C145.758 238.029 145.919 238.057 146.091 238.057C146.264 238.057 146.427 238.029 146.581 237.973C146.735 237.912 146.868 237.817 146.98 237.686C147.097 237.551 147.188 237.378 147.253 237.168C147.319 236.953 147.351 236.694 147.351 236.391ZM151.866 234.179C151.913 234.123 151.967 234.074 152.027 234.032C152.093 233.99 152.179 233.969 152.286 233.969H153.189L145.853 243.797C145.811 243.858 145.758 243.907 145.692 243.944C145.627 243.981 145.548 244 145.454 244H144.537L151.866 234.179ZM153.868 241.634C153.868 242.026 153.808 242.376 153.686 242.684C153.565 242.992 153.402 243.253 153.196 243.468C152.996 243.678 152.76 243.839 152.489 243.951C152.223 244.063 151.941 244.119 151.642 244.119C151.325 244.119 151.031 244.063 150.76 243.951C150.494 243.839 150.261 243.678 150.06 243.468C149.864 243.253 149.71 242.992 149.598 242.684C149.486 242.376 149.43 242.026 149.43 241.634C149.43 241.233 149.486 240.876 149.598 240.563C149.71 240.246 149.864 239.98 150.06 239.765C150.261 239.55 150.494 239.387 150.76 239.275C151.031 239.163 151.325 239.107 151.642 239.107C151.955 239.107 152.247 239.163 152.517 239.275C152.793 239.387 153.028 239.55 153.224 239.765C153.425 239.98 153.581 240.246 153.693 240.563C153.81 240.876 153.868 241.233 153.868 241.634ZM152.902 241.634C152.902 241.326 152.87 241.065 152.804 240.85C152.739 240.631 152.648 240.453 152.531 240.318C152.419 240.183 152.286 240.085 152.132 240.024C151.978 239.963 151.815 239.933 151.642 239.933C151.47 239.933 151.306 239.963 151.152 240.024C151.003 240.085 150.872 240.183 150.76 240.318C150.648 240.453 150.56 240.631 150.494 240.85C150.434 241.065 150.403 241.326 150.403 241.634C150.403 241.937 150.434 242.194 150.494 242.404C150.56 242.614 150.648 242.787 150.76 242.922C150.872 243.053 151.003 243.148 151.152 243.209C151.306 243.265 151.47 243.293 151.642 243.293C151.815 243.293 151.978 243.265 152.132 243.209C152.286 243.148 152.419 243.053 152.531 242.922C152.648 242.787 152.739 242.614 152.804 242.404C152.87 242.194 152.902 241.937 152.902 241.634ZM162.646 236.797C163.164 236.797 163.631 236.883 164.046 237.056C164.461 237.229 164.816 237.474 165.11 237.791C165.404 238.108 165.628 238.493 165.782 238.946C165.941 239.394 166.02 239.896 166.02 240.451C166.02 241.011 165.941 241.515 165.782 241.963C165.628 242.411 165.404 242.794 165.11 243.111C164.816 243.428 164.461 243.673 164.046 243.846C163.631 244.014 163.164 244.098 162.646 244.098C162.123 244.098 161.652 244.014 161.232 243.846C160.817 243.673 160.462 243.428 160.168 243.111C159.874 242.794 159.648 242.411 159.489 241.963C159.335 241.515 159.258 241.011 159.258 240.451C159.258 239.896 159.335 239.394 159.489 238.946C159.648 238.493 159.874 238.108 160.168 237.791C160.462 237.474 160.817 237.229 161.232 237.056C161.652 236.883 162.123 236.797 162.646 236.797ZM162.646 243.125C163.346 243.125 163.869 242.892 164.214 242.425C164.559 241.954 164.732 241.298 164.732 240.458C164.732 239.613 164.559 238.955 164.214 238.484C163.869 238.013 163.346 237.777 162.646 237.777C162.291 237.777 161.981 237.838 161.715 237.959C161.454 238.08 161.234 238.255 161.057 238.484C160.884 238.713 160.754 238.995 160.665 239.331C160.581 239.662 160.539 240.038 160.539 240.458C160.539 241.298 160.712 241.954 161.057 242.425C161.407 242.892 161.937 243.125 162.646 243.125ZM168.212 244V237.973L167.428 237.882C167.33 237.859 167.248 237.824 167.183 237.777C167.122 237.726 167.092 237.653 167.092 237.56V237.049H168.212V236.363C168.212 235.957 168.268 235.598 168.38 235.285C168.497 234.968 168.66 234.702 168.87 234.487C169.085 234.268 169.341 234.102 169.64 233.99C169.939 233.878 170.275 233.822 170.648 233.822C170.965 233.822 171.257 233.869 171.523 233.962L171.495 234.585C171.486 234.697 171.423 234.758 171.306 234.767C171.194 234.776 171.042 234.781 170.851 234.781C170.636 234.781 170.44 234.809 170.263 234.865C170.09 234.921 169.941 235.012 169.815 235.138C169.689 235.264 169.591 235.43 169.521 235.635C169.456 235.84 169.423 236.095 169.423 236.398V237.049H171.467V237.952H169.465V244H168.212ZM177.896 236.909V244.525C177.896 244.81 177.859 245.073 177.784 245.316C177.71 245.563 177.591 245.778 177.427 245.96C177.264 246.142 177.054 246.284 176.797 246.387C176.545 246.494 176.242 246.548 175.887 246.548C175.738 246.548 175.6 246.536 175.474 246.513C175.348 246.49 175.222 246.455 175.096 246.408L175.145 245.736C175.155 245.694 175.171 245.661 175.194 245.638C175.213 245.619 175.241 245.608 175.278 245.603C175.316 245.598 175.365 245.596 175.425 245.596C175.481 245.601 175.554 245.603 175.642 245.603C176.006 245.603 176.265 245.517 176.419 245.344C176.573 245.176 176.65 244.903 176.65 244.525V236.909H177.896ZM178.155 234.683C178.155 234.804 178.13 234.919 178.078 235.026C178.032 235.129 177.966 235.222 177.882 235.306C177.803 235.385 177.71 235.448 177.602 235.495C177.495 235.542 177.381 235.565 177.259 235.565C177.138 235.565 177.024 235.542 176.916 235.495C176.814 235.448 176.723 235.385 176.643 235.306C176.564 235.222 176.501 235.129 176.454 235.026C176.408 234.919 176.384 234.804 176.384 234.683C176.384 234.562 176.408 234.447 176.454 234.34C176.501 234.228 176.564 234.132 176.643 234.053C176.723 233.969 176.814 233.904 176.916 233.857C177.024 233.81 177.138 233.787 177.259 233.787C177.381 233.787 177.495 233.81 177.602 233.857C177.71 233.904 177.803 233.969 177.882 234.053C177.966 234.132 178.032 234.228 178.078 234.34C178.13 234.447 178.155 234.562 178.155 234.683Z" fill="black"/>
<path d="M239.909 484.817C240.044 484.817 240.152 484.857 240.231 484.936C240.31 485.015 240.35 485.118 240.35 485.244V486H233.658V485.573C233.658 485.484 233.677 485.393 233.714 485.3C233.751 485.207 233.81 485.12 233.889 485.041L237.102 481.814C237.368 481.543 237.611 481.284 237.83 481.037C238.049 480.785 238.236 480.533 238.39 480.281C238.544 480.029 238.663 479.775 238.747 479.518C238.831 479.257 238.873 478.979 238.873 478.685C238.873 478.391 238.826 478.134 238.733 477.915C238.64 477.691 238.511 477.507 238.348 477.362C238.189 477.217 238 477.11 237.781 477.04C237.562 476.965 237.326 476.928 237.074 476.928C236.817 476.928 236.582 476.965 236.367 477.04C236.152 477.115 235.961 477.22 235.793 477.355C235.63 477.486 235.492 477.642 235.38 477.824C235.268 478.006 235.189 478.207 235.142 478.426C235.086 478.589 235.009 478.699 234.911 478.755C234.818 478.806 234.685 478.82 234.512 478.797L233.861 478.685C233.926 478.228 234.052 477.824 234.239 477.474C234.43 477.119 234.668 476.823 234.953 476.585C235.242 476.347 235.571 476.167 235.94 476.046C236.309 475.92 236.708 475.857 237.137 475.857C237.562 475.857 237.958 475.92 238.327 476.046C238.696 476.172 239.015 476.356 239.286 476.599C239.557 476.837 239.769 477.129 239.923 477.474C240.077 477.819 240.154 478.211 240.154 478.65C240.154 479.023 240.098 479.371 239.986 479.693C239.874 480.01 239.722 480.314 239.531 480.603C239.34 480.892 239.118 481.175 238.866 481.45C238.619 481.725 238.355 482.003 238.075 482.283L235.429 484.985C235.616 484.934 235.805 484.894 235.996 484.866C236.187 484.833 236.372 484.817 236.549 484.817H239.909ZM249.121 480.988C249.121 481.865 249.025 482.626 248.834 483.27C248.647 483.909 248.391 484.439 248.064 484.859C247.737 485.279 247.35 485.592 246.902 485.797C246.459 486.002 245.983 486.105 245.474 486.105C244.961 486.105 244.482 486.002 244.039 485.797C243.6 485.592 243.218 485.279 242.891 484.859C242.564 484.439 242.308 483.909 242.121 483.27C241.934 482.626 241.841 481.865 241.841 480.988C241.841 480.111 241.934 479.35 242.121 478.706C242.308 478.062 242.564 477.53 242.891 477.11C243.218 476.685 243.6 476.37 244.039 476.165C244.482 475.96 244.961 475.857 245.474 475.857C245.983 475.857 246.459 475.96 246.902 476.165C247.35 476.37 247.737 476.685 248.064 477.11C248.391 477.53 248.647 478.062 248.834 478.706C249.025 479.35 249.121 480.111 249.121 480.988ZM247.826 480.988C247.826 480.223 247.761 479.581 247.63 479.063C247.504 478.54 247.331 478.12 247.112 477.803C246.897 477.486 246.648 477.259 246.363 477.124C246.078 476.984 245.782 476.914 245.474 476.914C245.166 476.914 244.87 476.984 244.585 477.124C244.3 477.259 244.051 477.486 243.836 477.803C243.621 478.12 243.449 478.54 243.318 479.063C243.192 479.581 243.129 480.223 243.129 480.988C243.129 481.753 243.192 482.395 243.318 482.913C243.449 483.431 243.621 483.849 243.836 484.166C244.051 484.483 244.3 484.712 244.585 484.852C244.87 484.987 245.166 485.055 245.474 485.055C245.782 485.055 246.078 484.987 246.363 484.852C246.648 484.712 246.897 484.483 247.112 484.166C247.331 483.849 247.504 483.431 247.63 482.913C247.761 482.395 247.826 481.753 247.826 480.988ZM257.542 480.988C257.542 481.865 257.447 482.626 257.255 483.27C257.069 483.909 256.812 484.439 256.485 484.859C256.159 485.279 255.771 485.592 255.323 485.797C254.88 486.002 254.404 486.105 253.895 486.105C253.382 486.105 252.904 486.002 252.46 485.797C252.022 485.592 251.639 485.279 251.312 484.859C250.986 484.439 250.729 483.909 250.542 483.27C250.356 482.626 250.262 481.865 250.262 480.988C250.262 480.111 250.356 479.35 250.542 478.706C250.729 478.062 250.986 477.53 251.312 477.11C251.639 476.685 252.022 476.37 252.46 476.165C252.904 475.96 253.382 475.857 253.895 475.857C254.404 475.857 254.88 475.96 255.323 476.165C255.771 476.37 256.159 476.685 256.485 477.11C256.812 477.53 257.069 478.062 257.255 478.706C257.447 479.35 257.542 480.111 257.542 480.988ZM256.247 480.988C256.247 480.223 256.182 479.581 256.051 479.063C255.925 478.54 255.753 478.12 255.533 477.803C255.319 477.486 255.069 477.259 254.784 477.124C254.5 476.984 254.203 476.914 253.895 476.914C253.587 476.914 253.291 476.984 253.006 477.124C252.722 477.259 252.472 477.486 252.257 477.803C252.043 478.12 251.87 478.54 251.739 479.063C251.613 479.581 251.55 480.223 251.55 480.988C251.55 481.753 251.613 482.395 251.739 482.913C251.87 483.431 252.043 483.849 252.257 484.166C252.472 484.483 252.722 484.712 253.006 484.852C253.291 484.987 253.587 485.055 253.895 485.055C254.203 485.055 254.5 484.987 254.784 484.852C255.069 484.712 255.319 484.483 255.533 484.166C255.753 483.849 255.925 483.431 256.051 482.913C256.182 482.395 256.247 481.753 256.247 480.988ZM263.317 478.391C263.317 478.783 263.257 479.135 263.135 479.448C263.014 479.756 262.851 480.017 262.645 480.232C262.445 480.442 262.209 480.603 261.938 480.715C261.672 480.827 261.39 480.883 261.091 480.883C260.779 480.883 260.487 480.827 260.216 480.715C259.946 480.603 259.71 480.442 259.509 480.232C259.313 480.017 259.159 479.756 259.047 479.448C258.935 479.135 258.879 478.783 258.879 478.391C258.879 477.99 258.935 477.633 259.047 477.32C259.159 477.007 259.313 476.744 259.509 476.529C259.71 476.314 259.946 476.151 260.216 476.039C260.487 475.927 260.779 475.871 261.091 475.871C261.409 475.871 261.703 475.927 261.973 476.039C262.244 476.151 262.48 476.314 262.68 476.529C262.881 476.744 263.037 477.007 263.149 477.32C263.261 477.633 263.317 477.99 263.317 478.391ZM262.351 478.391C262.351 478.083 262.319 477.822 262.253 477.607C262.188 477.392 262.097 477.217 261.98 477.082C261.868 476.942 261.735 476.842 261.581 476.781C261.427 476.72 261.264 476.69 261.091 476.69C260.919 476.69 260.758 476.72 260.608 476.781C260.459 476.842 260.328 476.942 260.216 477.082C260.104 477.217 260.016 477.392 259.95 477.607C259.885 477.822 259.852 478.083 259.852 478.391C259.852 478.694 259.885 478.953 259.95 479.168C260.016 479.378 260.104 479.551 260.216 479.686C260.328 479.817 260.459 479.912 260.608 479.973C260.758 480.029 260.919 480.057 261.091 480.057C261.264 480.057 261.427 480.029 261.581 479.973C261.735 479.912 261.868 479.817 261.98 479.686C262.097 479.551 262.188 479.378 262.253 479.168C262.319 478.953 262.351 478.694 262.351 478.391ZM266.866 476.179C266.913 476.123 266.967 476.074 267.027 476.032C267.093 475.99 267.179 475.969 267.286 475.969H268.189L260.853 485.797C260.811 485.858 260.758 485.907 260.692 485.944C260.627 485.981 260.548 486 260.454 486H259.537L266.866 476.179ZM268.868 483.634C268.868 484.026 268.808 484.376 268.686 484.684C268.565 484.992 268.402 485.253 268.196 485.468C267.996 485.678 267.76 485.839 267.489 485.951C267.223 486.063 266.941 486.119 266.642 486.119C266.325 486.119 266.031 486.063 265.76 485.951C265.494 485.839 265.261 485.678 265.06 485.468C264.864 485.253 264.71 484.992 264.598 484.684C264.486 484.376 264.43 484.026 264.43 483.634C264.43 483.233 264.486 482.876 264.598 482.563C264.71 482.246 264.864 481.98 265.06 481.765C265.261 481.55 265.494 481.387 265.76 481.275C266.031 481.163 266.325 481.107 266.642 481.107C266.955 481.107 267.247 481.163 267.517 481.275C267.793 481.387 268.028 481.55 268.224 481.765C268.425 481.98 268.581 482.246 268.693 482.563C268.81 482.876 268.868 483.233 268.868 483.634ZM267.902 483.634C267.902 483.326 267.87 483.065 267.804 482.85C267.739 482.631 267.648 482.453 267.531 482.318C267.419 482.183 267.286 482.085 267.132 482.024C266.978 481.963 266.815 481.933 266.642 481.933C266.47 481.933 266.306 481.963 266.152 482.024C266.003 482.085 265.872 482.183 265.76 482.318C265.648 482.453 265.56 482.631 265.494 482.85C265.434 483.065 265.403 483.326 265.403 483.634C265.403 483.937 265.434 484.194 265.494 484.404C265.56 484.614 265.648 484.787 265.76 484.922C265.872 485.053 266.003 485.148 266.152 485.209C266.306 485.265 266.47 485.293 266.642 485.293C266.815 485.293 266.978 485.265 267.132 485.209C267.286 485.148 267.419 485.053 267.531 484.922C267.648 484.787 267.739 484.614 267.804 484.404C267.87 484.194 267.902 483.937 267.902 483.634ZM277.646 478.797C278.164 478.797 278.631 478.883 279.046 479.056C279.461 479.229 279.816 479.474 280.11 479.791C280.404 480.108 280.628 480.493 280.782 480.946C280.941 481.394 281.02 481.896 281.02 482.451C281.02 483.011 280.941 483.515 280.782 483.963C280.628 484.411 280.404 484.794 280.11 485.111C279.816 485.428 279.461 485.673 279.046 485.846C278.631 486.014 278.164 486.098 277.646 486.098C277.123 486.098 276.652 486.014 276.232 485.846C275.817 485.673 275.462 485.428 275.168 485.111C274.874 484.794 274.648 484.411 274.489 483.963C274.335 483.515 274.258 483.011 274.258 482.451C274.258 481.896 274.335 481.394 274.489 480.946C274.648 480.493 274.874 480.108 275.168 479.791C275.462 479.474 275.817 479.229 276.232 479.056C276.652 478.883 277.123 478.797 277.646 478.797ZM277.646 485.125C278.346 485.125 278.869 484.892 279.214 484.425C279.559 483.954 279.732 483.298 279.732 482.458C279.732 481.613 279.559 480.955 279.214 480.484C278.869 480.013 278.346 479.777 277.646 479.777C277.291 479.777 276.981 479.838 276.715 479.959C276.454 480.08 276.234 480.255 276.057 480.484C275.884 480.713 275.754 480.995 275.665 481.331C275.581 481.662 275.539 482.038 275.539 482.458C275.539 483.298 275.712 483.954 276.057 484.425C276.407 484.892 276.937 485.125 277.646 485.125ZM283.212 486V479.973L282.428 479.882C282.33 479.859 282.248 479.824 282.183 479.777C282.122 479.726 282.092 479.653 282.092 479.56V479.049H283.212V478.363C283.212 477.957 283.268 477.598 283.38 477.285C283.497 476.968 283.66 476.702 283.87 476.487C284.085 476.268 284.341 476.102 284.64 475.99C284.939 475.878 285.275 475.822 285.648 475.822C285.965 475.822 286.257 475.869 286.523 475.962L286.495 476.585C286.486 476.697 286.423 476.758 286.306 476.767C286.194 476.776 286.042 476.781 285.851 476.781C285.636 476.781 285.44 476.809 285.263 476.865C285.09 476.921 284.941 477.012 284.815 477.138C284.689 477.264 284.591 477.43 284.521 477.635C284.456 477.84 284.423 478.095 284.423 478.398V479.049H286.467V479.952H284.465V486H283.212ZM292.896 478.909V486.525C292.896 486.81 292.859 487.073 292.784 487.316C292.71 487.563 292.591 487.778 292.427 487.96C292.264 488.142 292.054 488.284 291.797 488.387C291.545 488.494 291.242 488.548 290.887 488.548C290.738 488.548 290.6 488.536 290.474 488.513C290.348 488.49 290.222 488.455 290.096 488.408L290.145 487.736C290.155 487.694 290.171 487.661 290.194 487.638C290.213 487.619 290.241 487.608 290.278 487.603C290.316 487.598 290.365 487.596 290.425 487.596C290.481 487.601 290.554 487.603 290.642 487.603C291.006 487.603 291.265 487.517 291.419 487.344C291.573 487.176 291.65 486.903 291.65 486.525V478.909H292.896ZM293.155 476.683C293.155 476.804 293.13 476.919 293.078 477.026C293.032 477.129 292.966 477.222 292.882 477.306C292.803 477.385 292.71 477.448 292.602 477.495C292.495 477.542 292.381 477.565 292.259 477.565C292.138 477.565 292.024 477.542 291.916 477.495C291.814 477.448 291.723 477.385 291.643 477.306C291.564 477.222 291.501 477.129 291.454 477.026C291.408 476.919 291.384 476.804 291.384 476.683C291.384 476.562 291.408 476.447 291.454 476.34C291.501 476.228 291.564 476.132 291.643 476.053C291.723 475.969 291.814 475.904 291.916 475.857C292.024 475.81 292.138 475.787 292.259 475.787C292.381 475.787 292.495 475.81 292.602 475.857C292.71 475.904 292.803 475.969 292.882 476.053C292.966 476.132 293.032 476.228 293.078 476.34C293.13 476.447 293.155 476.562 293.155 476.683Z" fill="black"/>
<line x1="1059" y1="287.5" x2="1073" y2="287.5" stroke="black"/>
<line x1="1059" y1="337.5" x2="1073" y2="337.5" stroke="black"/>
<line x1="1072.5" y1="338" x2="1072.5" y2="288" stroke="black"/>
<path d="M1085.3 311.909V319.525C1085.3 319.81 1085.27 320.073 1085.19 320.316C1085.12 320.563 1085 320.778 1084.83 320.96C1084.67 321.142 1084.46 321.284 1084.2 321.387C1083.95 321.494 1083.65 321.548 1083.29 321.548C1083.14 321.548 1083.01 321.536 1082.88 321.513C1082.75 321.49 1082.63 321.455 1082.5 321.408L1082.55 320.736C1082.56 320.694 1082.58 320.661 1082.6 320.638C1082.62 320.619 1082.65 320.608 1082.68 320.603C1082.72 320.598 1082.77 320.596 1082.83 320.596C1082.89 320.601 1082.96 320.603 1083.05 320.603C1083.41 320.603 1083.67 320.517 1083.83 320.344C1083.98 320.176 1084.06 319.903 1084.06 319.525V311.909H1085.3ZM1085.56 309.683C1085.56 309.804 1085.54 309.919 1085.49 310.026C1085.44 310.129 1085.37 310.222 1085.29 310.306C1085.21 310.385 1085.12 310.448 1085.01 310.495C1084.9 310.542 1084.79 310.565 1084.67 310.565C1084.54 310.565 1084.43 310.542 1084.32 310.495C1084.22 310.448 1084.13 310.385 1084.05 310.306C1083.97 310.222 1083.91 310.129 1083.86 310.026C1083.81 309.919 1083.79 309.804 1083.79 309.683C1083.79 309.562 1083.81 309.447 1083.86 309.34C1083.91 309.228 1083.97 309.132 1084.05 309.053C1084.13 308.969 1084.22 308.904 1084.32 308.857C1084.43 308.81 1084.54 308.787 1084.67 308.787C1084.79 308.787 1084.9 308.81 1085.01 308.857C1085.12 308.904 1085.21 308.969 1085.29 309.053C1085.37 309.132 1085.44 309.228 1085.49 309.34C1085.54 309.447 1085.56 309.562 1085.56 309.683Z" fill="black"/>
<path d="M354.093 289.087V328.109H349.031V300.337C349.031 299.92 349.04 299.476 349.058 299.005C349.094 298.534 349.131 298.054 349.167 297.565L336.159 321.397C335.705 322.284 335.007 322.728 334.063 322.728H333.247C332.304 322.728 331.614 322.284 331.179 321.397L317.926 297.484C318.035 298.498 318.089 299.449 318.089 300.337V328.109H313V289.087H317.3C317.808 289.087 318.198 289.141 318.47 289.25C318.76 289.341 319.032 289.612 319.286 290.065L332.349 313.435C332.603 313.906 332.839 314.404 333.056 314.929C333.274 315.455 333.483 315.98 333.682 316.505C334.063 315.437 334.508 314.404 335.016 313.408L347.833 290.065C348.069 289.612 348.323 289.341 348.595 289.25C348.886 289.141 349.285 289.087 349.793 289.087H354.093Z" fill="#41A5DD"/>
<path d="M374.693 300.065C376.725 300.065 378.557 300.4 380.19 301.071C381.841 301.723 383.238 302.674 384.381 303.924C385.542 305.156 386.431 306.65 387.048 308.408C387.665 310.147 387.973 312.103 387.973 314.277C387.973 316.451 387.665 318.417 387.048 320.174C386.431 321.931 385.542 323.426 384.381 324.658C383.238 325.889 381.841 326.841 380.19 327.511C378.557 328.163 376.725 328.489 374.693 328.489C372.643 328.489 370.792 328.163 369.141 327.511C367.508 326.841 366.112 325.889 364.95 324.658C363.789 323.426 362.891 321.931 362.256 320.174C361.639 318.417 361.331 316.451 361.331 314.277C361.331 312.103 361.639 310.147 362.256 308.408C362.891 306.65 363.789 305.156 364.95 303.924C366.112 302.674 367.508 301.723 369.141 301.071C370.792 300.4 372.643 300.065 374.693 300.065ZM374.693 324.359C377.305 324.359 379.256 323.48 380.544 321.723C381.832 319.966 382.476 317.493 382.476 314.304C382.476 311.116 381.832 308.643 380.544 306.886C379.256 305.111 377.305 304.223 374.693 304.223C372.044 304.223 370.067 305.111 368.76 306.886C367.472 308.643 366.828 311.116 366.828 314.304C366.828 317.493 367.472 319.966 368.76 321.723C370.067 323.48 372.044 324.359 374.693 324.359Z" fill="#41A5DD"/>
<path d="M418.19 300.5L406.978 328.109H402.189L390.977 300.5H395.358C395.776 300.5 396.12 300.6 396.392 300.799C396.664 300.998 396.846 301.252 396.937 301.56L403.55 318.516C403.785 319.223 403.985 319.929 404.148 320.636C404.33 321.324 404.493 322.013 404.638 322.701C404.783 322.013 404.947 321.324 405.128 320.636C405.309 319.947 405.527 319.241 405.781 318.516L412.476 301.56C412.584 301.252 412.775 300.998 413.047 300.799C413.319 300.6 413.646 300.5 414.027 300.5H418.19Z" fill="#41A5DD"/>
<path d="M441.018 311.234C441.018 310.183 440.863 309.214 440.555 308.326C440.265 307.438 439.829 306.668 439.249 306.016C438.668 305.364 437.961 304.857 437.126 304.495C436.292 304.132 435.33 303.951 434.241 303.951C432.01 303.951 430.25 304.594 428.962 305.88C427.692 307.167 426.885 308.951 426.54 311.234H441.018ZM445.399 324.168C444.746 324.929 443.993 325.591 443.14 326.152C442.288 326.696 441.38 327.139 440.419 327.484C439.457 327.828 438.46 328.082 437.425 328.245C436.409 328.408 435.403 328.489 434.405 328.489C432.5 328.489 430.731 328.172 429.098 327.538C427.483 326.886 426.077 325.944 424.88 324.712C423.701 323.462 422.775 321.922 422.104 320.092C421.451 318.245 421.124 316.125 421.124 313.734C421.124 311.813 421.424 310.029 422.022 308.38C422.621 306.714 423.474 305.264 424.581 304.033C425.705 302.801 427.075 301.832 428.69 301.125C430.305 300.418 432.119 300.065 434.133 300.065C435.82 300.065 437.371 300.346 438.786 300.908C440.219 301.451 441.453 302.248 442.487 303.299C443.521 304.35 444.329 305.645 444.909 307.185C445.508 308.725 445.807 310.482 445.807 312.457C445.807 313.272 445.716 313.824 445.535 314.114C445.354 314.386 445.018 314.522 444.528 314.522H426.404C426.458 316.17 426.694 317.611 427.111 318.842C427.529 320.056 428.1 321.071 428.826 321.886C429.57 322.701 430.45 323.308 431.466 323.707C432.482 324.105 433.616 324.304 434.867 324.304C436.047 324.304 437.063 324.168 437.915 323.897C438.786 323.625 439.53 323.335 440.147 323.027C440.782 322.701 441.308 322.402 441.725 322.13C442.161 321.859 442.542 321.723 442.868 321.723C443.304 321.723 443.639 321.886 443.875 322.212L445.399 324.168Z" fill="#41A5DD"/>
<path d="M482.313 315.853C480.154 315.926 478.322 316.098 476.816 316.37C475.31 316.623 474.085 316.967 473.142 317.402C472.199 317.837 471.518 318.353 471.101 318.951C470.684 319.531 470.475 320.183 470.475 320.908C470.475 321.596 470.584 322.194 470.802 322.701C471.038 323.19 471.346 323.598 471.727 323.924C472.126 324.232 472.589 324.458 473.115 324.603C473.641 324.748 474.212 324.821 474.829 324.821C475.646 324.821 476.39 324.739 477.061 324.576C477.75 324.413 478.394 324.187 478.993 323.897C479.592 323.589 480.163 323.217 480.707 322.783C481.252 322.348 481.787 321.85 482.313 321.288V315.853ZM466.747 304.359C468.289 302.891 469.958 301.795 471.754 301.071C473.568 300.346 475.555 299.984 477.714 299.984C479.292 299.984 480.689 300.246 481.905 300.772C483.12 301.279 484.145 301.995 484.98 302.918C485.815 303.842 486.44 304.947 486.858 306.234C487.293 307.52 487.511 308.942 487.511 310.5V328.109H485.143C484.617 328.109 484.218 328.027 483.946 327.864C483.674 327.683 483.456 327.357 483.293 326.886L482.721 324.467C482.014 325.12 481.315 325.699 480.626 326.207C479.936 326.696 479.211 327.121 478.449 327.484C477.705 327.828 476.907 328.091 476.054 328.272C475.201 328.453 474.258 328.543 473.224 328.543C472.135 328.543 471.11 328.399 470.149 328.109C469.205 327.801 468.38 327.339 467.672 326.723C466.965 326.107 466.402 325.337 465.985 324.413C465.586 323.489 465.386 322.411 465.386 321.179C465.386 320.092 465.676 319.051 466.257 318.054C466.856 317.04 467.817 316.134 469.142 315.337C470.484 314.54 472.226 313.888 474.367 313.38C476.526 312.873 479.174 312.583 482.313 312.511V310.5C482.313 308.417 481.869 306.859 480.98 305.826C480.091 304.793 478.784 304.277 477.061 304.277C475.9 304.277 474.92 304.422 474.122 304.712C473.342 305.002 472.661 305.328 472.081 305.69C471.518 306.034 471.019 306.351 470.584 306.641C470.167 306.931 469.731 307.076 469.278 307.076C468.915 307.076 468.597 306.976 468.325 306.777C468.071 306.578 467.863 306.342 467.699 306.071L466.747 304.359Z" fill="#41A5DD"/>
<path d="M500.684 304.332C501.282 303.697 501.908 303.118 502.561 302.592C503.214 302.067 503.904 301.623 504.629 301.261C505.373 300.88 506.163 300.591 506.997 300.391C507.85 300.174 508.757 300.065 509.718 300.065C511.242 300.065 512.576 300.319 513.719 300.826C514.88 301.333 515.851 302.049 516.631 302.973C517.411 303.879 518 304.975 518.4 306.261C518.799 307.547 518.998 308.969 518.998 310.527V328.109H513.664V310.527C513.664 308.553 513.211 307.022 512.304 305.935C511.397 304.83 510.009 304.277 508.14 304.277C506.779 304.277 505.5 304.603 504.303 305.255C503.124 305.889 502.026 306.759 501.01 307.864V328.109H495.703V300.5H498.887C499.631 300.5 500.094 300.853 500.275 301.56L500.684 304.332Z" fill="#41A5DD"/>
<path d="M550.723 300.5L535.374 336.125C535.211 336.524 534.993 336.832 534.721 337.049C534.449 337.266 534.05 337.375 533.524 337.375H529.578L534.639 326.37L523.291 300.5H527.918C528.371 300.5 528.725 300.609 528.979 300.826C529.233 301.043 529.414 301.288 529.523 301.56L536.544 318.136C536.689 318.553 536.825 318.978 536.952 319.413C537.098 319.83 537.216 320.246 537.306 320.663C537.433 320.228 537.569 319.803 537.714 319.386C537.86 318.951 538.014 318.525 538.177 318.109L544.953 301.56C545.08 301.252 545.28 300.998 545.552 300.799C545.824 300.6 546.133 300.5 546.477 300.5H550.723Z" fill="#41A5DD"/>
<path d="M564.523 328.543C562.291 328.543 560.568 327.918 559.352 326.668C558.155 325.418 557.556 323.634 557.556 321.315V304.793H554.345C554.037 304.793 553.773 304.703 553.556 304.522C553.356 304.322 553.256 304.033 553.256 303.652V301.505L557.747 300.88L558.944 292.647C559.017 292.339 559.153 292.103 559.352 291.94C559.57 291.759 559.842 291.668 560.169 291.668H562.863V300.935H570.7V304.793H562.863V320.962C562.863 322.049 563.126 322.864 563.652 323.408C564.196 323.933 564.886 324.196 565.72 324.196C566.21 324.196 566.627 324.132 566.972 324.005C567.335 323.879 567.643 323.743 567.897 323.598C568.151 323.435 568.369 323.29 568.55 323.163C568.732 323.036 568.895 322.973 569.04 322.973C569.222 322.973 569.358 323.018 569.449 323.109C569.557 323.181 569.666 323.308 569.775 323.489L571.353 326.043C570.483 326.841 569.449 327.457 568.251 327.891C567.054 328.326 565.811 328.543 564.523 328.543Z" fill="#41A5DD"/>
<path d="M581.983 304.005C583.145 302.828 584.424 301.877 585.82 301.152C587.236 300.428 588.859 300.065 590.692 300.065C592.216 300.065 593.549 300.319 594.692 300.826C595.853 301.333 596.824 302.049 597.604 302.973C598.384 303.879 598.974 304.975 599.373 306.261C599.772 307.547 599.972 308.969 599.972 310.527V328.109H594.638V310.527C594.638 308.553 594.184 307.022 593.277 305.935C592.37 304.83 590.982 304.277 589.113 304.277C587.753 304.277 586.474 304.603 585.276 305.255C584.097 305.889 582.999 306.759 581.983 307.864V328.109H576.677V288H581.983V304.005Z" fill="#41A5DD"/>
<path d="M613.773 300.5V328.109H608.466V300.5H613.773ZM614.78 291.967C614.78 292.457 614.68 292.928 614.48 293.38C614.281 293.815 614.009 294.205 613.664 294.549C613.337 294.875 612.947 295.138 612.494 295.337C612.04 295.518 611.568 295.609 611.079 295.609C610.589 295.609 610.126 295.518 609.691 295.337C609.255 295.138 608.865 294.875 608.521 294.549C608.194 294.205 607.931 293.815 607.731 293.38C607.55 292.928 607.459 292.457 607.459 291.967C607.459 291.46 607.55 290.989 607.731 290.554C607.931 290.101 608.194 289.712 608.521 289.386C608.865 289.042 609.255 288.779 609.691 288.598C610.126 288.399 610.589 288.299 611.079 288.299C611.568 288.299 612.04 288.399 612.494 288.598C612.947 288.779 613.337 289.042 613.664 289.386C614.009 289.712 614.281 290.101 614.48 290.554C614.68 290.989 614.78 291.46 614.78 291.967Z" fill="#41A5DD"/>
<path d="M627.525 304.332C628.123 303.697 628.749 303.118 629.402 302.592C630.055 302.067 630.745 301.623 631.471 301.261C632.214 300.88 633.004 300.591 633.838 300.391C634.691 300.174 635.598 300.065 636.559 300.065C638.083 300.065 639.417 300.319 640.56 300.826C641.721 301.333 642.692 302.049 643.472 302.973C644.252 303.879 644.841 304.975 645.241 306.261C645.64 307.547 645.839 308.969 645.839 310.527V328.109H640.505V310.527C640.505 308.553 640.052 307.022 639.145 305.935C638.238 304.83 636.85 304.277 634.981 304.277C633.62 304.277 632.341 304.603 631.144 305.255C629.965 305.889 628.867 306.759 627.851 307.864V328.109H622.544V300.5H625.728C626.472 300.5 626.935 300.853 627.116 301.56L627.525 304.332Z" fill="#41A5DD"/>
<path d="M663.804 314.332C664.748 314.332 665.573 314.205 666.281 313.951C667.006 313.697 667.605 313.344 668.077 312.891C668.567 312.42 668.929 311.859 669.165 311.207C669.419 310.554 669.546 309.839 669.546 309.06C669.546 307.466 669.056 306.197 668.077 305.255C667.115 304.295 665.691 303.815 663.804 303.815C661.935 303.815 660.511 304.295 659.532 305.255C658.57 306.197 658.089 307.466 658.089 309.06C658.089 309.839 658.207 310.554 658.443 311.207C658.697 311.841 659.06 312.393 659.532 312.864C660.021 313.317 660.62 313.679 661.328 313.951C662.053 314.205 662.879 314.332 663.804 314.332ZM672.268 329.549C672.268 328.897 672.086 328.38 671.723 328C671.36 327.601 670.862 327.293 670.227 327.076C669.61 326.841 668.884 326.678 668.049 326.587C667.215 326.478 666.335 326.397 665.41 326.342C664.503 326.288 663.568 326.243 662.607 326.207C661.645 326.152 660.72 326.062 659.831 325.935C658.888 326.406 658.107 326.976 657.491 327.647C656.892 328.317 656.593 329.105 656.593 330.011C656.593 330.591 656.738 331.134 657.028 331.641C657.336 332.149 657.799 332.583 658.416 332.946C659.051 333.326 659.84 333.616 660.783 333.815C661.745 334.033 662.888 334.141 664.212 334.141C665.519 334.141 666.671 334.024 667.668 333.788C668.666 333.571 669.501 333.254 670.172 332.837C670.862 332.438 671.379 331.958 671.723 331.397C672.086 330.835 672.268 330.219 672.268 329.549ZM677.656 301.533V303.516C677.656 304.168 677.248 304.576 676.431 304.739L673.465 305.174C673.719 305.736 673.919 306.333 674.064 306.967C674.209 307.583 674.281 308.236 674.281 308.924C674.281 310.283 674.018 311.514 673.492 312.62C672.966 313.707 672.24 314.639 671.315 315.418C670.39 316.197 669.283 316.795 667.995 317.212C666.725 317.629 665.328 317.837 663.804 317.837C662.552 317.837 661.382 317.701 660.294 317.429C659.749 317.755 659.332 318.118 659.042 318.516C658.77 318.897 658.634 319.277 658.634 319.658C658.634 320.292 658.897 320.763 659.423 321.071C659.967 321.379 660.666 321.605 661.518 321.75C662.389 321.877 663.378 321.958 664.484 321.995C665.609 322.031 666.743 322.094 667.886 322.185C669.047 322.257 670.181 322.402 671.288 322.62C672.413 322.819 673.401 323.154 674.254 323.625C675.125 324.078 675.824 324.712 676.35 325.527C676.894 326.324 677.166 327.366 677.166 328.652C677.166 329.848 676.867 331.007 676.268 332.13C675.687 333.254 674.835 334.25 673.71 335.12C672.585 335.989 671.215 336.687 669.601 337.212C667.986 337.737 666.154 338 664.104 338C662.053 338 660.266 337.801 658.742 337.402C657.237 337.004 655.976 336.469 654.96 335.799C653.962 335.129 653.209 334.35 652.701 333.462C652.211 332.574 651.966 331.65 651.966 330.69C651.966 329.35 652.383 328.217 653.218 327.293C654.053 326.351 655.205 325.618 656.674 325.092C655.876 324.73 655.241 324.241 654.769 323.625C654.298 322.991 654.062 322.158 654.062 321.125C654.062 320.726 654.134 320.319 654.279 319.902C654.424 319.467 654.642 319.042 654.932 318.625C655.241 318.19 655.613 317.783 656.048 317.402C656.502 317.022 657.019 316.678 657.599 316.37C656.239 315.609 655.168 314.603 654.388 313.353C653.608 312.085 653.218 310.609 653.218 308.924C653.218 307.565 653.481 306.342 654.007 305.255C654.533 304.168 655.259 303.236 656.184 302.457C657.128 301.678 658.243 301.08 659.532 300.663C660.838 300.246 662.262 300.038 663.804 300.038C666.199 300.038 668.258 300.536 669.982 301.533H677.656Z" fill="#41A5DD"/>
<path d="M686.008 328.109C685.518 328.109 685.065 328.018 684.648 327.837C684.249 327.656 683.895 327.411 683.586 327.103C683.296 326.777 683.069 326.397 682.906 325.962C682.743 325.527 682.661 325.056 682.661 324.549C682.661 324.114 682.743 323.707 682.906 323.326C683.069 322.928 683.296 322.583 683.586 322.293C683.895 322.004 684.258 321.777 684.675 321.614C685.092 321.433 685.555 321.342 686.063 321.342C686.643 321.342 687.151 321.451 687.587 321.668C688.04 321.868 688.412 322.158 688.702 322.538C689.011 322.9 689.238 323.326 689.383 323.815C689.528 324.304 689.601 324.83 689.601 325.391C689.601 326.207 689.483 327.067 689.247 327.973C689.011 328.879 688.666 329.775 688.213 330.663C687.759 331.551 687.197 332.411 686.525 333.245C685.854 334.078 685.092 334.848 684.239 335.554L683.341 334.712C683.069 334.458 682.933 334.178 682.933 333.87C682.933 333.743 682.969 333.607 683.042 333.462C683.133 333.335 683.242 333.208 683.369 333.082C683.55 332.882 683.786 332.62 684.076 332.293C684.366 331.967 684.648 331.587 684.92 331.152C685.21 330.736 685.473 330.264 685.709 329.739C685.963 329.232 686.144 328.688 686.253 328.109H686.008Z" fill="#41A5DD"/>
<path d="M726.853 315.853C724.694 315.926 722.862 316.098 721.356 316.37C719.85 316.623 718.625 316.967 717.682 317.402C716.739 317.837 716.058 318.353 715.641 318.951C715.224 319.531 715.015 320.183 715.015 320.908C715.015 321.596 715.124 322.194 715.342 322.701C715.578 323.19 715.886 323.598 716.267 323.924C716.666 324.232 717.129 324.458 717.655 324.603C718.181 324.748 718.752 324.821 719.369 324.821C720.186 324.821 720.93 324.739 721.601 324.576C722.29 324.413 722.934 324.187 723.533 323.897C724.132 323.589 724.703 323.217 725.247 322.783C725.792 322.348 726.327 321.85 726.853 321.288V315.853ZM711.287 304.359C712.829 302.891 714.498 301.795 716.294 301.071C718.108 300.346 720.095 299.984 722.254 299.984C723.832 299.984 725.229 300.246 726.445 300.772C727.66 301.279 728.685 301.995 729.52 302.918C730.355 303.842 730.98 304.947 731.398 306.234C731.833 307.52 732.051 308.942 732.051 310.5V328.109H729.683C729.157 328.109 728.758 328.027 728.486 327.864C728.214 327.683 727.996 327.357 727.833 326.886L727.261 324.467C726.554 325.12 725.855 325.699 725.166 326.207C724.476 326.696 723.751 327.121 722.989 327.484C722.245 327.828 721.447 328.091 720.594 328.272C719.741 328.453 718.798 328.543 717.764 328.543C716.675 328.543 715.65 328.399 714.689 328.109C713.745 327.801 712.92 327.339 712.212 326.723C711.505 326.107 710.942 325.337 710.525 324.413C710.126 323.489 709.926 322.411 709.926 321.179C709.926 320.092 710.216 319.051 710.797 318.054C711.396 317.04 712.357 316.134 713.682 315.337C715.024 314.54 716.766 313.888 718.907 313.38C721.066 312.873 723.714 312.583 726.853 312.511V310.5C726.853 308.417 726.409 306.859 725.52 305.826C724.631 304.793 723.324 304.277 721.601 304.277C720.44 304.277 719.46 304.422 718.662 304.712C717.882 305.002 717.201 305.328 716.621 305.69C716.058 306.034 715.559 306.351 715.124 306.641C714.707 306.931 714.271 307.076 713.818 307.076C713.455 307.076 713.137 306.976 712.865 306.777C712.611 306.578 712.403 306.342 712.239 306.071L711.287 304.359Z" fill="#41A5DD"/>
<path d="M745.224 304.332C745.822 303.697 746.448 303.118 747.101 302.592C747.754 302.067 748.444 301.623 749.169 301.261C749.913 300.88 750.703 300.591 751.537 300.391C752.39 300.174 753.297 300.065 754.258 300.065C755.782 300.065 757.116 300.319 758.259 300.826C759.42 301.333 760.391 302.049 761.171 302.973C761.951 303.879 762.54 304.975 762.94 306.261C763.339 307.547 763.538 308.969 763.538 310.527V328.109H758.204V310.527C758.204 308.553 757.751 307.022 756.844 305.935C755.937 304.83 754.549 304.277 752.68 304.277C751.319 304.277 750.04 304.603 748.843 305.255C747.664 305.889 746.566 306.759 745.55 307.864V328.109H740.243V300.5H743.427C744.171 300.5 744.634 300.853 744.815 301.56L745.224 304.332Z" fill="#41A5DD"/>
<path d="M795.263 300.5L779.914 336.125C779.751 336.524 779.533 336.832 779.261 337.049C778.989 337.266 778.59 337.375 778.064 337.375H774.118L779.179 326.37L767.831 300.5H772.458C772.911 300.5 773.265 300.609 773.519 300.826C773.773 301.043 773.954 301.288 774.063 301.56L781.084 318.136C781.229 318.553 781.365 318.978 781.492 319.413C781.638 319.83 781.755 320.246 781.846 320.663C781.973 320.228 782.109 319.803 782.254 319.386C782.4 318.951 782.554 318.525 782.717 318.109L789.493 301.56C789.62 301.252 789.82 300.998 790.092 300.799C790.364 300.6 790.673 300.5 791.017 300.5H795.263Z" fill="#41A5DD"/>
<path d="M838.862 300.5L829.963 328.109H825.718C825.21 328.109 824.865 327.774 824.684 327.103L818.86 309.114C818.715 308.661 818.588 308.217 818.479 307.783C818.37 307.33 818.27 306.877 818.179 306.424C818.016 307.366 817.789 308.281 817.499 309.168L811.594 327.103C811.412 327.774 811.022 328.109 810.424 328.109H806.396L797.47 300.5H801.661C802.078 300.5 802.423 300.6 802.695 300.799C802.985 300.998 803.176 301.252 803.266 301.56L808.246 318.516C808.41 319.205 808.555 319.875 808.682 320.527C808.809 321.179 808.927 321.832 809.036 322.484C809.199 321.832 809.371 321.179 809.553 320.527C809.752 319.875 809.952 319.205 810.151 318.516L815.676 301.451C815.767 301.143 815.939 300.899 816.193 300.717C816.447 300.518 816.755 300.418 817.118 300.418H819.431C819.83 300.418 820.157 300.518 820.411 300.717C820.683 300.899 820.865 301.143 820.955 301.451L826.344 318.516C826.543 319.205 826.734 319.884 826.915 320.554C827.096 321.207 827.26 321.868 827.405 322.538C827.514 321.886 827.641 321.234 827.786 320.582C827.931 319.911 828.094 319.223 828.276 318.516L833.337 301.56C833.428 301.252 833.61 300.998 833.882 300.799C834.172 300.6 834.499 300.5 834.861 300.5H838.862Z" fill="#41A5DD"/>
<path d="M849.751 304.005C850.912 302.828 852.191 301.877 853.588 301.152C855.003 300.428 856.627 300.065 858.459 300.065C859.983 300.065 861.316 300.319 862.459 300.826C863.621 301.333 864.591 302.049 865.371 302.973C866.151 303.879 866.741 304.975 867.14 306.261C867.539 307.547 867.739 308.969 867.739 310.527V328.109H862.405V310.527C862.405 308.553 861.951 307.022 861.044 305.935C860.137 304.83 858.749 304.277 856.881 304.277C855.52 304.277 854.241 304.603 853.043 305.255C851.864 305.889 850.767 306.759 849.751 307.864V328.109H844.444V288H849.751V304.005Z" fill="#41A5DD"/>
<path d="M894.303 311.234C894.303 310.183 894.149 309.214 893.841 308.326C893.55 307.438 893.115 306.668 892.534 306.016C891.954 305.364 891.246 304.857 890.412 304.495C889.577 304.132 888.616 303.951 887.527 303.951C885.295 303.951 883.536 304.594 882.248 305.88C880.978 307.167 880.17 308.951 879.826 311.234H894.303ZM898.685 324.168C898.031 324.929 897.279 325.591 896.426 326.152C895.573 326.696 894.666 327.139 893.704 327.484C892.743 327.828 891.745 328.082 890.711 328.245C889.695 328.408 888.688 328.489 887.69 328.489C885.785 328.489 884.016 328.172 882.384 327.538C880.769 326.886 879.363 325.944 878.165 324.712C876.986 323.462 876.061 321.922 875.39 320.092C874.737 318.245 874.41 316.125 874.41 313.734C874.41 311.813 874.709 310.029 875.308 308.38C875.907 306.714 876.759 305.264 877.866 304.033C878.991 302.801 880.361 301.832 881.975 301.125C883.59 300.418 885.404 300.065 887.418 300.065C889.105 300.065 890.657 300.346 892.072 300.908C893.505 301.451 894.739 302.248 895.773 303.299C896.807 304.35 897.614 305.645 898.195 307.185C898.793 308.725 899.093 310.482 899.093 312.457C899.093 313.272 899.002 313.824 898.821 314.114C898.639 314.386 898.304 314.522 897.814 314.522H879.689C879.744 316.17 879.98 317.611 880.397 318.842C880.814 320.056 881.386 321.071 882.112 321.886C882.855 322.701 883.735 323.308 884.751 323.707C885.767 324.105 886.901 324.304 888.153 324.304C889.332 324.304 890.348 324.168 891.201 323.897C892.072 323.625 892.816 323.335 893.432 323.027C894.067 322.701 894.593 322.402 895.011 322.13C895.446 321.859 895.827 321.723 896.154 321.723C896.589 321.723 896.925 321.886 897.161 322.212L898.685 324.168Z" fill="#41A5DD"/>
<path d="M910.892 305.799C911.781 303.987 912.852 302.565 914.104 301.533C915.355 300.5 916.861 299.984 918.621 299.984C919.22 299.984 919.782 300.056 920.308 300.201C920.853 300.328 921.324 300.527 921.723 300.799L921.37 304.793C921.243 305.283 920.943 305.527 920.472 305.527C920.218 305.527 919.837 305.482 919.329 305.391C918.821 305.283 918.276 305.228 917.696 305.228C916.843 305.228 916.09 305.355 915.437 305.609C914.784 305.844 914.194 306.207 913.668 306.696C913.16 307.167 912.707 307.755 912.308 308.462C911.908 309.15 911.536 309.938 911.192 310.826V328.109H905.885V300.5H908.933C909.514 300.5 909.904 300.609 910.103 300.826C910.321 301.025 910.475 301.388 910.566 301.913L910.892 305.799Z" fill="#41A5DD"/>
<path d="M944.21 311.234C944.21 310.183 944.056 309.214 943.748 308.326C943.458 307.438 943.022 306.668 942.442 306.016C941.861 305.364 941.153 304.857 940.319 304.495C939.484 304.132 938.523 303.951 937.434 303.951C935.203 303.951 933.443 304.594 932.155 305.88C930.885 307.167 930.077 308.951 929.733 311.234H944.21ZM948.592 324.168C947.939 324.929 947.186 325.591 946.333 326.152C945.48 326.696 944.573 327.139 943.612 327.484C942.65 327.828 941.652 328.082 940.618 328.245C939.602 328.408 938.595 328.489 937.597 328.489C935.693 328.489 933.924 328.172 932.291 327.538C930.676 326.886 929.27 325.944 928.073 324.712C926.893 323.462 925.968 321.922 925.297 320.092C924.644 318.245 924.317 316.125 924.317 313.734C924.317 311.813 924.617 310.029 925.215 308.38C925.814 306.714 926.667 305.264 927.773 304.033C928.898 302.801 930.268 301.832 931.883 301.125C933.497 300.418 935.312 300.065 937.325 300.065C939.013 300.065 940.564 300.346 941.979 300.908C943.412 301.451 944.646 302.248 945.68 303.299C946.714 304.35 947.521 305.645 948.102 307.185C948.701 308.725 949 310.482 949 312.457C949 313.272 948.909 313.824 948.728 314.114C948.547 314.386 948.211 314.522 947.721 314.522H929.597C929.651 316.17 929.887 317.611 930.304 318.842C930.722 320.056 931.293 321.071 932.019 321.886C932.763 322.701 933.642 323.308 934.658 323.707C935.674 324.105 936.808 324.304 938.06 324.304C939.239 324.304 940.255 324.168 941.108 323.897C941.979 323.625 942.723 323.335 943.34 323.027C943.975 322.701 944.501 322.402 944.918 322.13C945.353 321.859 945.734 321.723 946.061 321.723C946.496 321.723 946.832 321.886 947.068 322.212L948.592 324.168Z" fill="#41A5DD"/>
</svg>
