<svg width="1204" height="678" viewBox="0 0 1204 678" fill="none" xmlns="http://www.w3.org/2000/svg">
<rect width="1204" height="677.25" fill="white"/>
<line x1="530" y1="346.5" x2="516" y2="346.5" stroke="black"/>
<line x1="530" y1="331.5" x2="516" y2="331.5" stroke="black"/>
<line x1="516.5" y1="331" x2="516.5" y2="346" stroke="black"/>
<path d="M481.126 343.048V344H475.75V343.048H477.899V336.209C477.899 336.004 477.906 335.796 477.92 335.586L476.135 337.119C476.074 337.17 476.014 337.203 475.953 337.217C475.892 337.226 475.836 337.226 475.785 337.217C475.734 337.208 475.685 337.189 475.638 337.161C475.596 337.133 475.563 337.103 475.54 337.07L475.148 336.531L478.137 333.948H479.152V343.048H481.126ZM484.955 337.756C485.478 337.644 485.958 337.588 486.397 337.588C486.92 337.588 487.382 337.665 487.783 337.819C488.184 337.973 488.518 338.185 488.784 338.456C489.055 338.727 489.258 339.046 489.393 339.415C489.533 339.784 489.603 340.185 489.603 340.619C489.603 341.151 489.51 341.632 489.323 342.061C489.141 342.49 488.887 342.859 488.56 343.167C488.238 343.47 487.858 343.704 487.419 343.867C486.98 344.03 486.507 344.112 485.998 344.112C485.704 344.112 485.422 344.082 485.151 344.021C484.88 343.965 484.626 343.888 484.388 343.79C484.155 343.692 483.938 343.58 483.737 343.454C483.536 343.328 483.359 343.195 483.205 343.055L483.59 342.523C483.674 342.402 483.784 342.341 483.919 342.341C484.012 342.341 484.117 342.378 484.234 342.453C484.351 342.523 484.493 342.602 484.661 342.691C484.829 342.78 485.025 342.861 485.249 342.936C485.478 343.006 485.748 343.041 486.061 343.041C486.411 343.041 486.726 342.985 487.006 342.873C487.286 342.761 487.526 342.602 487.727 342.397C487.928 342.187 488.082 341.937 488.189 341.648C488.296 341.359 488.35 341.034 488.35 340.675C488.35 340.362 488.303 340.08 488.21 339.828C488.121 339.576 487.984 339.361 487.797 339.184C487.615 339.007 487.386 338.869 487.111 338.771C486.836 338.673 486.514 338.624 486.145 338.624C485.893 338.624 485.629 338.645 485.354 338.687C485.083 338.729 484.806 338.797 484.521 338.89L483.737 338.659L484.542 333.969H489.295V334.515C489.295 334.692 489.239 334.839 489.127 334.956C489.02 335.068 488.833 335.124 488.567 335.124H485.417L484.955 337.756ZM493.082 342.292C493.311 342.6 493.561 342.817 493.831 342.943C494.102 343.069 494.405 343.132 494.741 343.132C495.404 343.132 495.913 342.896 496.267 342.425C496.622 341.954 496.799 341.282 496.799 340.409C496.799 339.947 496.757 339.55 496.673 339.219C496.594 338.888 496.477 338.617 496.323 338.407C496.169 338.192 495.98 338.036 495.756 337.938C495.532 337.84 495.278 337.791 494.993 337.791C494.587 337.791 494.23 337.884 493.922 338.071C493.619 338.258 493.339 338.521 493.082 338.862V342.292ZM493.019 338.008C493.318 337.639 493.663 337.343 494.055 337.119C494.447 336.895 494.895 336.783 495.399 336.783C495.81 336.783 496.181 336.862 496.512 337.021C496.844 337.175 497.126 337.406 497.359 337.714C497.593 338.017 497.772 338.395 497.898 338.848C498.024 339.301 498.087 339.821 498.087 340.409C498.087 340.932 498.017 341.419 497.877 341.872C497.737 342.32 497.534 342.71 497.268 343.041C497.007 343.368 496.685 343.627 496.302 343.818C495.924 344.005 495.497 344.098 495.021 344.098C494.587 344.098 494.214 344.026 493.901 343.881C493.593 343.732 493.32 343.526 493.082 343.265V346.401H491.829V336.909H492.578C492.756 336.909 492.865 336.995 492.907 337.168L493.019 338.008ZM505.527 344H504.33C504.228 344 504.146 343.974 504.085 343.923C504.029 343.867 503.983 343.806 503.945 343.741L502.16 340.962C502.142 341.027 502.121 341.093 502.097 341.158C502.079 341.219 502.051 341.275 502.013 341.326L500.361 343.741C500.315 343.806 500.263 343.867 500.207 343.923C500.156 343.974 500.084 344 499.99 344H498.877L501.362 340.36L498.975 336.909H500.172C500.275 336.909 500.35 336.925 500.396 336.958C500.443 336.991 500.485 337.037 500.522 337.098L502.265 339.758C502.303 339.623 502.361 339.492 502.44 339.366L503.966 337.126C504.008 337.061 504.053 337.009 504.099 336.972C504.151 336.93 504.211 336.909 504.281 336.909H505.429L503.042 340.297L505.527 344Z" fill="black"/>
<path d="M552.31 331.326V343.033H550.793V334.701C550.793 334.576 550.796 334.443 550.802 334.302C550.812 334.16 550.823 334.016 550.834 333.87L546.937 341.019C546.802 341.285 546.592 341.418 546.31 341.418H546.065C545.783 341.418 545.576 341.285 545.446 341.019L541.476 333.845C541.508 334.149 541.524 334.435 541.524 334.701V343.033H540V331.326H541.288C541.44 331.326 541.557 331.342 541.639 331.375C541.726 331.402 541.807 331.484 541.883 331.62L545.796 338.63C545.872 338.772 545.943 338.921 546.008 339.079C546.073 339.236 546.136 339.394 546.196 339.552C546.31 339.231 546.443 338.921 546.595 338.622L550.435 331.62C550.505 331.484 550.582 331.402 550.663 331.375C550.75 331.342 550.87 331.326 551.022 331.326H552.31Z" fill="#41A5DD"/>
<path d="M558.481 334.62C559.09 334.62 559.638 334.72 560.128 334.921C560.622 335.117 561.041 335.402 561.383 335.777C561.731 336.147 561.997 336.595 562.182 337.122C562.367 337.644 562.459 338.231 562.459 338.883C562.459 339.535 562.367 340.125 562.182 340.652C561.997 341.179 561.731 341.628 561.383 341.997C561.041 342.367 560.622 342.652 560.128 342.853C559.638 343.049 559.09 343.147 558.481 343.147C557.867 343.147 557.312 343.049 556.818 342.853C556.329 342.652 555.91 342.367 555.562 341.997C555.215 341.628 554.946 341.179 554.755 340.652C554.571 340.125 554.478 339.535 554.478 338.883C554.478 338.231 554.571 337.644 554.755 337.122C554.946 336.595 555.215 336.147 555.562 335.777C555.91 335.402 556.329 335.117 556.818 334.921C557.312 334.72 557.867 334.62 558.481 334.62ZM558.481 341.908C559.263 341.908 559.848 341.644 560.234 341.117C560.619 340.59 560.812 339.848 560.812 338.891C560.812 337.935 560.619 337.193 560.234 336.666C559.848 336.133 559.263 335.867 558.481 335.867C557.687 335.867 557.095 336.133 556.704 336.666C556.318 337.193 556.125 337.935 556.125 338.891C556.125 339.848 556.318 340.59 556.704 341.117C557.095 341.644 557.687 341.908 558.481 341.908Z" fill="#41A5DD"/>
<path d="M571.511 334.75L568.152 343.033H566.718L563.359 334.75H564.671C564.796 334.75 564.9 334.78 564.981 334.84C565.063 334.899 565.117 334.976 565.144 335.068L567.125 340.155C567.196 340.367 567.256 340.579 567.305 340.791C567.359 340.997 567.408 341.204 567.451 341.41C567.495 341.204 567.544 340.997 567.598 340.791C567.652 340.584 567.718 340.372 567.794 340.155L569.799 335.068C569.832 334.976 569.889 334.899 569.97 334.84C570.052 334.78 570.15 334.75 570.264 334.75H571.511Z" fill="#41A5DD"/>
<path d="M578.349 337.97C578.349 337.655 578.303 337.364 578.211 337.098C578.124 336.832 577.993 336.601 577.819 336.405C577.645 336.209 577.433 336.057 577.183 335.948C576.933 335.84 576.645 335.785 576.319 335.785C575.651 335.785 575.124 335.978 574.738 336.364C574.357 336.75 574.116 337.285 574.012 337.97H578.349ZM579.662 341.851C579.466 342.079 579.241 342.277 578.985 342.446C578.73 342.609 578.458 342.742 578.17 342.845C577.882 342.948 577.583 343.024 577.273 343.073C576.969 343.122 576.667 343.147 576.368 343.147C575.798 343.147 575.268 343.052 574.779 342.861C574.295 342.666 573.874 342.383 573.515 342.014C573.162 341.639 572.885 341.177 572.683 340.628C572.488 340.073 572.39 339.438 572.39 338.72C572.39 338.144 572.48 337.609 572.659 337.114C572.838 336.614 573.094 336.179 573.425 335.81C573.762 335.44 574.173 335.149 574.656 334.938C575.14 334.726 575.683 334.62 576.287 334.62C576.792 334.62 577.257 334.704 577.681 334.872C578.11 335.035 578.48 335.274 578.789 335.59C579.099 335.905 579.341 336.293 579.515 336.755C579.694 337.217 579.784 337.745 579.784 338.337C579.784 338.582 579.757 338.747 579.702 338.834C579.648 338.916 579.548 338.957 579.401 338.957H573.972C573.988 339.451 574.058 339.883 574.183 340.253C574.308 340.617 574.48 340.921 574.697 341.166C574.92 341.41 575.183 341.592 575.488 341.712C575.792 341.832 576.132 341.891 576.507 341.891C576.86 341.891 577.164 341.851 577.42 341.769C577.681 341.688 577.904 341.601 578.088 341.508C578.279 341.41 578.436 341.321 578.561 341.239C578.692 341.158 578.806 341.117 578.904 341.117C579.034 341.117 579.135 341.166 579.205 341.264L579.662 341.851Z" fill="#41A5DD"/>
<path d="M590.72 339.356C590.073 339.378 589.524 339.429 589.073 339.511C588.622 339.587 588.255 339.69 587.972 339.821C587.69 339.951 587.486 340.106 587.361 340.285C587.236 340.459 587.174 340.655 587.174 340.872C587.174 341.079 587.206 341.258 587.271 341.41C587.342 341.557 587.434 341.679 587.549 341.777C587.668 341.87 587.807 341.937 587.964 341.981C588.122 342.024 588.293 342.046 588.478 342.046C588.722 342.046 588.945 342.022 589.146 341.973C589.353 341.924 589.546 341.856 589.725 341.769C589.905 341.677 590.076 341.565 590.239 341.435C590.402 341.304 590.562 341.155 590.72 340.986V339.356ZM586.057 335.908C586.519 335.467 587.019 335.139 587.557 334.921C588.1 334.704 588.695 334.595 589.342 334.595C589.815 334.595 590.233 334.674 590.597 334.832C590.962 334.984 591.269 335.198 591.519 335.476C591.769 335.753 591.956 336.084 592.081 336.47C592.212 336.856 592.277 337.283 592.277 337.75V343.033H591.568C591.41 343.033 591.29 343.008 591.209 342.959C591.127 342.905 591.062 342.807 591.013 342.666L590.842 341.94C590.63 342.136 590.421 342.31 590.214 342.462C590.008 342.609 589.79 342.736 589.562 342.845C589.339 342.948 589.1 343.027 588.845 343.082C588.589 343.136 588.307 343.163 587.997 343.163C587.671 343.163 587.364 343.12 587.076 343.033C586.793 342.94 586.546 342.802 586.334 342.617C586.122 342.432 585.953 342.201 585.828 341.924C585.709 341.647 585.649 341.323 585.649 340.954C585.649 340.628 585.736 340.315 585.91 340.016C586.089 339.712 586.377 339.44 586.774 339.201C587.176 338.962 587.698 338.766 588.339 338.614C588.986 338.462 589.78 338.375 590.72 338.353V337.75C590.72 337.125 590.587 336.658 590.32 336.348C590.054 336.038 589.663 335.883 589.146 335.883C588.799 335.883 588.505 335.927 588.266 336.014C588.032 336.101 587.828 336.198 587.655 336.307C587.486 336.41 587.337 336.505 587.206 336.592C587.081 336.679 586.951 336.723 586.815 336.723C586.706 336.723 586.611 336.693 586.53 336.633C586.453 336.573 586.391 336.503 586.342 336.421L586.057 335.908Z" fill="#41A5DD"/>
<path d="M596.223 335.899C596.402 335.709 596.59 335.535 596.785 335.378C596.981 335.22 597.188 335.087 597.405 334.978C597.628 334.864 597.864 334.777 598.114 334.717C598.37 334.652 598.641 334.62 598.929 334.62C599.386 334.62 599.785 334.696 600.128 334.848C600.476 335 600.766 335.215 601 335.492C601.234 335.764 601.41 336.092 601.53 336.478C601.649 336.864 601.709 337.291 601.709 337.758V343.033H600.111V337.758C600.111 337.166 599.976 336.707 599.704 336.38C599.432 336.049 599.016 335.883 598.457 335.883C598.049 335.883 597.666 335.981 597.307 336.177C596.954 336.367 596.625 336.628 596.321 336.959V343.033H594.731V334.75H595.685C595.908 334.75 596.046 334.856 596.101 335.068L596.223 335.899Z" fill="#41A5DD"/>
<path d="M611.213 334.75L606.615 345.438C606.566 345.557 606.501 345.649 606.419 345.715C606.338 345.78 606.218 345.812 606.061 345.812H604.878L606.395 342.511L602.995 334.75H604.381C604.517 334.75 604.623 334.783 604.699 334.848C604.775 334.913 604.83 334.986 604.862 335.068L606.965 340.041C607.009 340.166 607.05 340.293 607.088 340.424C607.131 340.549 607.166 340.674 607.194 340.799C607.232 340.668 607.272 340.541 607.316 340.416C607.359 340.285 607.406 340.158 607.455 340.033L609.484 335.068C609.522 334.976 609.582 334.899 609.664 334.84C609.745 334.78 609.838 334.75 609.941 334.75H611.213Z" fill="#41A5DD"/>
<path d="M615.347 343.163C614.678 343.163 614.162 342.976 613.798 342.601C613.439 342.226 613.26 341.69 613.26 340.995V336.038H612.298C612.205 336.038 612.127 336.011 612.061 335.957C612.002 335.897 611.972 335.81 611.972 335.696V335.052L613.317 334.864L613.676 332.394C613.697 332.302 613.738 332.231 613.798 332.182C613.863 332.128 613.945 332.101 614.042 332.101H614.849V334.88H617.197V336.038H614.849V340.889C614.849 341.215 614.928 341.459 615.086 341.622C615.249 341.78 615.455 341.859 615.705 341.859C615.852 341.859 615.977 341.84 616.08 341.802C616.189 341.764 616.282 341.723 616.358 341.679C616.434 341.63 616.499 341.587 616.553 341.549C616.608 341.511 616.656 341.492 616.7 341.492C616.754 341.492 616.795 341.505 616.822 341.533C616.855 341.554 616.887 341.592 616.92 341.647L617.393 342.413C617.132 342.652 616.822 342.837 616.464 342.967C616.105 343.098 615.733 343.163 615.347 343.163Z" fill="#41A5DD"/>
<path d="M620.577 335.802C620.925 335.448 621.308 335.163 621.727 334.946C622.151 334.728 622.637 334.62 623.186 334.62C623.642 334.62 624.042 334.696 624.384 334.848C624.732 335 625.023 335.215 625.257 335.492C625.49 335.764 625.667 336.092 625.786 336.478C625.906 336.864 625.966 337.291 625.966 337.758V343.033H624.368V337.758C624.368 337.166 624.232 336.707 623.96 336.38C623.689 336.049 623.273 335.883 622.713 335.883C622.305 335.883 621.922 335.981 621.564 336.177C621.21 336.367 620.882 336.628 620.577 336.959V343.033H618.988V331H620.577V335.802Z" fill="#41A5DD"/>
<path d="M630.1 334.75V343.033H628.51V334.75H630.1ZM630.402 332.19C630.402 332.337 630.372 332.478 630.312 332.614C630.252 332.745 630.171 332.861 630.068 332.965C629.97 333.063 629.853 333.141 629.717 333.201C629.581 333.255 629.44 333.283 629.293 333.283C629.146 333.283 629.008 333.255 628.877 333.201C628.747 333.141 628.63 333.063 628.527 332.965C628.429 332.861 628.35 332.745 628.29 332.614C628.236 332.478 628.209 332.337 628.209 332.19C628.209 332.038 628.236 331.897 628.29 331.766C628.35 331.63 628.429 331.514 628.527 331.416C628.63 331.312 628.747 331.234 628.877 331.179C629.008 331.12 629.146 331.09 629.293 331.09C629.44 331.09 629.581 331.12 629.717 331.179C629.853 331.234 629.97 331.312 630.068 331.416C630.171 331.514 630.252 331.63 630.312 331.766C630.372 331.897 630.402 332.038 630.402 332.19Z" fill="#41A5DD"/>
<path d="M634.22 335.899C634.399 335.709 634.586 335.535 634.782 335.378C634.978 335.22 635.184 335.087 635.402 334.978C635.625 334.864 635.861 334.777 636.111 334.717C636.366 334.652 636.638 334.62 636.926 334.62C637.383 334.62 637.782 334.696 638.125 334.848C638.472 335 638.763 335.215 638.997 335.492C639.231 335.764 639.407 336.092 639.527 336.478C639.646 336.864 639.706 337.291 639.706 337.758V343.033H638.108V337.758C638.108 337.166 637.972 336.707 637.701 336.38C637.429 336.049 637.013 335.883 636.453 335.883C636.046 335.883 635.663 335.981 635.304 336.177C634.951 336.367 634.622 336.628 634.317 336.959V343.033H632.728V334.75H633.682C633.904 334.75 634.043 334.856 634.097 335.068L634.22 335.899Z" fill="#41A5DD"/>
<path d="M645.088 338.899C645.37 338.899 645.618 338.861 645.829 338.785C646.047 338.709 646.226 338.603 646.368 338.467C646.514 338.326 646.623 338.158 646.694 337.962C646.77 337.766 646.808 337.552 646.808 337.318C646.808 336.84 646.661 336.459 646.368 336.177C646.079 335.889 645.653 335.745 645.088 335.745C644.528 335.745 644.101 335.889 643.808 336.177C643.52 336.459 643.376 336.84 643.376 337.318C643.376 337.552 643.411 337.766 643.482 337.962C643.558 338.152 643.666 338.318 643.808 338.459C643.954 338.595 644.134 338.704 644.346 338.785C644.563 338.861 644.81 338.899 645.088 338.899ZM647.623 343.465C647.623 343.269 647.569 343.114 647.46 343C647.351 342.88 647.202 342.788 647.012 342.723C646.827 342.652 646.609 342.603 646.359 342.576C646.109 342.543 645.846 342.519 645.569 342.503C645.297 342.486 645.017 342.473 644.729 342.462C644.441 342.446 644.164 342.418 643.897 342.38C643.615 342.522 643.381 342.693 643.196 342.894C643.017 343.095 642.927 343.332 642.927 343.603C642.927 343.777 642.971 343.94 643.058 344.092C643.15 344.245 643.289 344.375 643.473 344.484C643.664 344.598 643.9 344.685 644.183 344.745C644.471 344.81 644.813 344.842 645.21 344.842C645.601 344.842 645.946 344.807 646.245 344.736C646.544 344.671 646.794 344.576 646.995 344.451C647.202 344.332 647.357 344.188 647.46 344.019C647.569 343.851 647.623 343.666 647.623 343.465ZM649.237 335.06V335.655C649.237 335.851 649.115 335.973 648.87 336.022L647.982 336.152C648.058 336.321 648.118 336.5 648.161 336.69C648.204 336.875 648.226 337.071 648.226 337.277C648.226 337.685 648.147 338.054 647.99 338.386C647.832 338.712 647.615 338.992 647.338 339.226C647.06 339.459 646.729 339.639 646.343 339.764C645.963 339.889 645.544 339.951 645.088 339.951C644.713 339.951 644.362 339.91 644.036 339.829C643.873 339.927 643.748 340.035 643.661 340.155C643.579 340.269 643.539 340.383 643.539 340.497C643.539 340.688 643.618 340.829 643.775 340.921C643.938 341.014 644.147 341.082 644.403 341.125C644.664 341.163 644.96 341.188 645.291 341.198C645.628 341.209 645.968 341.228 646.31 341.255C646.658 341.277 646.998 341.321 647.329 341.386C647.666 341.446 647.963 341.546 648.218 341.688C648.479 341.823 648.688 342.014 648.846 342.258C649.009 342.497 649.09 342.81 649.09 343.196C649.09 343.554 649.001 343.902 648.821 344.239C648.647 344.576 648.392 344.875 648.055 345.136C647.718 345.397 647.308 345.606 646.824 345.764C646.34 345.921 645.791 346 645.177 346C644.563 346 644.028 345.94 643.571 345.821C643.12 345.701 642.743 345.541 642.438 345.34C642.139 345.139 641.914 344.905 641.762 344.639C641.615 344.372 641.541 344.095 641.541 343.807C641.541 343.405 641.666 343.065 641.916 342.788C642.166 342.505 642.512 342.285 642.952 342.128C642.713 342.019 642.522 341.872 642.381 341.688C642.24 341.497 642.169 341.247 642.169 340.938C642.169 340.818 642.191 340.696 642.234 340.571C642.278 340.44 642.343 340.312 642.43 340.188C642.522 340.057 642.634 339.935 642.764 339.821C642.9 339.707 643.055 339.603 643.229 339.511C642.821 339.283 642.501 338.981 642.267 338.606C642.033 338.226 641.916 337.783 641.916 337.277C641.916 336.87 641.995 336.503 642.153 336.177C642.31 335.851 642.528 335.571 642.805 335.337C643.088 335.103 643.422 334.924 643.808 334.799C644.199 334.674 644.626 334.611 645.088 334.611C645.805 334.611 646.422 334.761 646.938 335.06H649.237Z" fill="#41A5DD"/>
<path d="M651.739 343.033C651.592 343.033 651.457 343.005 651.332 342.951C651.212 342.897 651.106 342.823 651.014 342.731C650.927 342.633 650.859 342.519 650.81 342.389C650.761 342.258 650.736 342.117 650.736 341.965C650.736 341.834 650.761 341.712 650.81 341.598C650.859 341.478 650.927 341.375 651.014 341.288C651.106 341.201 651.215 341.133 651.34 341.084C651.465 341.03 651.603 341.003 651.755 341.003C651.929 341.003 652.082 341.035 652.212 341.101C652.348 341.16 652.459 341.247 652.546 341.361C652.639 341.47 652.707 341.598 652.75 341.745C652.794 341.891 652.815 342.049 652.815 342.217C652.815 342.462 652.78 342.72 652.709 342.992C652.639 343.264 652.535 343.533 652.399 343.799C652.264 344.065 652.095 344.323 651.894 344.573C651.693 344.823 651.465 345.054 651.209 345.266L650.94 345.014C650.859 344.938 650.818 344.853 650.818 344.761C650.818 344.723 650.829 344.682 650.851 344.639C650.878 344.601 650.91 344.562 650.948 344.524C651.003 344.465 651.073 344.386 651.16 344.288C651.247 344.19 651.332 344.076 651.413 343.946C651.5 343.821 651.579 343.679 651.649 343.522C651.726 343.37 651.78 343.207 651.813 343.033H651.739Z" fill="#41A5DD"/>
<path d="M663.975 339.356C663.328 339.378 662.779 339.429 662.328 339.511C661.877 339.587 661.51 339.69 661.227 339.821C660.945 339.951 660.741 340.106 660.616 340.285C660.491 340.459 660.428 340.655 660.428 340.872C660.428 341.079 660.461 341.258 660.526 341.41C660.597 341.557 660.689 341.679 660.803 341.777C660.923 341.87 661.062 341.937 661.219 341.981C661.377 342.024 661.548 342.046 661.733 342.046C661.977 342.046 662.2 342.022 662.401 341.973C662.608 341.924 662.801 341.856 662.98 341.769C663.159 341.677 663.331 341.565 663.494 341.435C663.657 341.304 663.817 341.155 663.975 340.986V339.356ZM659.312 335.908C659.774 335.467 660.274 335.139 660.812 334.921C661.355 334.704 661.95 334.595 662.597 334.595C663.07 334.595 663.488 334.674 663.852 334.832C664.217 334.984 664.524 335.198 664.774 335.476C665.024 335.753 665.211 336.084 665.336 336.47C665.467 336.856 665.532 337.283 665.532 337.75V343.033H664.823C664.665 343.033 664.545 343.008 664.464 342.959C664.382 342.905 664.317 342.807 664.268 342.666L664.097 341.94C663.885 342.136 663.676 342.31 663.469 342.462C663.263 342.609 663.045 342.736 662.817 342.845C662.594 342.948 662.355 343.027 662.1 343.082C661.844 343.136 661.562 343.163 661.252 343.163C660.926 343.163 660.619 343.12 660.331 343.033C660.048 342.94 659.801 342.802 659.589 342.617C659.377 342.432 659.208 342.201 659.083 341.924C658.964 341.647 658.904 341.323 658.904 340.954C658.904 340.628 658.991 340.315 659.165 340.016C659.344 339.712 659.632 339.44 660.029 339.201C660.431 338.962 660.953 338.766 661.594 338.614C662.241 338.462 663.034 338.375 663.975 338.353V337.75C663.975 337.125 663.842 336.658 663.575 336.348C663.309 336.038 662.918 335.883 662.401 335.883C662.053 335.883 661.76 335.927 661.521 336.014C661.287 336.101 661.083 336.198 660.909 336.307C660.741 336.41 660.592 336.505 660.461 336.592C660.336 336.679 660.206 336.723 660.07 336.723C659.961 336.723 659.866 336.693 659.784 336.633C659.708 336.573 659.646 336.503 659.597 336.421L659.312 335.908Z" fill="#41A5DD"/>
<path d="M669.478 335.899C669.657 335.709 669.845 335.535 670.04 335.378C670.236 335.22 670.442 335.087 670.66 334.978C670.883 334.864 671.119 334.777 671.369 334.717C671.625 334.652 671.896 334.62 672.184 334.62C672.641 334.62 673.04 334.696 673.383 334.848C673.73 335 674.021 335.215 674.255 335.492C674.489 335.764 674.665 336.092 674.785 336.478C674.904 336.864 674.964 337.291 674.964 337.758V343.033H673.366V337.758C673.366 337.166 673.23 336.707 672.959 336.38C672.687 336.049 672.271 335.883 671.711 335.883C671.304 335.883 670.921 335.981 670.562 336.177C670.209 336.367 669.88 336.628 669.576 336.959V343.033H667.986V334.75H668.94C669.163 334.75 669.301 334.856 669.355 335.068L669.478 335.899Z" fill="#41A5DD"/>
<path d="M684.468 334.75L679.87 345.438C679.821 345.557 679.756 345.649 679.674 345.715C679.593 345.78 679.473 345.812 679.315 345.812H678.133L679.65 342.511L676.25 334.75H677.636C677.772 334.75 677.878 334.783 677.954 334.848C678.03 334.913 678.084 334.986 678.117 335.068L680.22 340.041C680.264 340.166 680.305 340.293 680.343 340.424C680.386 340.549 680.421 340.674 680.449 340.799C680.487 340.668 680.527 340.541 680.571 340.416C680.614 340.285 680.661 340.158 680.709 340.033L682.739 335.068C682.777 334.976 682.837 334.899 682.919 334.84C683 334.78 683.093 334.75 683.196 334.75H684.468Z" fill="#41A5DD"/>
<path d="M697.528 334.75L694.863 343.033H693.591C693.439 343.033 693.335 342.932 693.281 342.731L691.536 337.334C691.493 337.198 691.455 337.065 691.422 336.935C691.39 336.799 691.36 336.663 691.333 336.527C691.284 336.81 691.216 337.084 691.129 337.351L689.36 342.731C689.305 342.932 689.189 343.033 689.009 343.033H687.803L685.129 334.75H686.384C686.509 334.75 686.613 334.78 686.694 334.84C686.781 334.899 686.838 334.976 686.865 335.068L688.357 340.155C688.406 340.361 688.449 340.562 688.488 340.758C688.526 340.954 688.561 341.149 688.593 341.345C688.642 341.149 688.694 340.954 688.748 340.758C688.808 340.562 688.868 340.361 688.928 340.155L690.583 335.035C690.61 334.943 690.661 334.87 690.738 334.815C690.814 334.755 690.906 334.726 691.015 334.726H691.708C691.827 334.726 691.925 334.755 692.001 334.815C692.083 334.87 692.137 334.943 692.164 335.035L693.778 340.155C693.838 340.361 693.895 340.565 693.949 340.766C694.004 340.962 694.053 341.16 694.096 341.361C694.129 341.166 694.167 340.97 694.21 340.774C694.254 340.573 694.303 340.367 694.357 340.155L695.873 335.068C695.901 334.976 695.955 334.899 696.036 334.84C696.123 334.78 696.221 334.75 696.33 334.75H697.528Z" fill="#41A5DD"/>
<path d="M700.79 335.802C701.138 335.448 701.521 335.163 701.94 334.946C702.364 334.728 702.85 334.62 703.399 334.62C703.855 334.62 704.255 334.696 704.597 334.848C704.945 335 705.236 335.215 705.47 335.492C705.703 335.764 705.88 336.092 705.999 336.478C706.119 336.864 706.179 337.291 706.179 337.758V343.033H704.581V337.758C704.581 337.166 704.445 336.707 704.173 336.38C703.902 336.049 703.486 335.883 702.926 335.883C702.518 335.883 702.135 335.981 701.777 336.177C701.423 336.367 701.094 336.628 700.79 336.959V343.033H699.2V331H700.79V335.802Z" fill="#41A5DD"/>
<path d="M714.136 337.97C714.136 337.655 714.09 337.364 713.998 337.098C713.911 336.832 713.78 336.601 713.607 336.405C713.433 336.209 713.221 336.057 712.971 335.948C712.721 335.84 712.433 335.785 712.107 335.785C711.438 335.785 710.911 335.978 710.525 336.364C710.145 336.75 709.903 337.285 709.799 337.97H714.136ZM715.449 341.851C715.253 342.079 715.028 342.277 714.772 342.446C714.517 342.609 714.245 342.742 713.957 342.845C713.669 342.948 713.37 343.024 713.06 343.073C712.756 343.122 712.454 343.147 712.155 343.147C711.585 343.147 711.055 343.052 710.566 342.861C710.082 342.666 709.661 342.383 709.302 342.014C708.949 341.639 708.672 341.177 708.471 340.628C708.275 340.073 708.177 339.438 708.177 338.72C708.177 338.144 708.267 337.609 708.446 337.114C708.626 336.614 708.881 336.179 709.212 335.81C709.549 335.44 709.96 335.149 710.443 334.938C710.927 334.726 711.471 334.62 712.074 334.62C712.579 334.62 713.044 334.704 713.468 334.872C713.897 335.035 714.267 335.274 714.577 335.59C714.886 335.905 715.128 336.293 715.302 336.755C715.482 337.217 715.571 337.745 715.571 338.337C715.571 338.582 715.544 338.747 715.49 338.834C715.435 338.916 715.335 338.957 715.188 338.957H709.759C709.775 339.451 709.846 339.883 709.971 340.253C710.096 340.617 710.267 340.921 710.484 341.166C710.707 341.41 710.971 341.592 711.275 341.712C711.579 341.832 711.919 341.891 712.294 341.891C712.647 341.891 712.952 341.851 713.207 341.769C713.468 341.688 713.691 341.601 713.876 341.508C714.066 341.41 714.223 341.321 714.348 341.239C714.479 341.158 714.593 341.117 714.691 341.117C714.821 341.117 714.922 341.166 714.992 341.264L715.449 341.851Z" fill="#41A5DD"/>
<path d="M719.106 336.34C719.372 335.796 719.693 335.37 720.068 335.06C720.443 334.75 720.894 334.595 721.421 334.595C721.6 334.595 721.769 334.617 721.927 334.66C722.09 334.698 722.231 334.758 722.35 334.84L722.245 336.038C722.206 336.185 722.117 336.258 721.975 336.258C721.899 336.258 721.785 336.245 721.633 336.217C721.481 336.185 721.318 336.168 721.144 336.168C720.889 336.168 720.663 336.207 720.467 336.283C720.272 336.353 720.095 336.462 719.937 336.609C719.785 336.75 719.649 336.927 719.53 337.139C719.41 337.345 719.299 337.582 719.196 337.848V343.033H717.606V334.75H718.519C718.693 334.75 718.81 334.783 718.87 334.848C718.935 334.908 718.981 335.016 719.008 335.174L719.106 336.34Z" fill="#41A5DD"/>
<path d="M729.087 337.97C729.087 337.655 729.041 337.364 728.948 337.098C728.861 336.832 728.731 336.601 728.557 336.405C728.383 336.209 728.171 336.057 727.921 335.948C727.671 335.84 727.383 335.785 727.057 335.785C726.388 335.785 725.861 335.978 725.475 336.364C725.095 336.75 724.853 337.285 724.75 337.97H729.087ZM730.399 341.851C730.204 342.079 729.978 342.277 729.723 342.446C729.467 342.609 729.195 342.742 728.907 342.845C728.619 342.948 728.32 343.024 728.011 343.073C727.706 343.122 727.405 343.147 727.106 343.147C726.535 343.147 726.005 343.052 725.516 342.861C725.032 342.666 724.611 342.383 724.252 342.014C723.899 341.639 723.622 341.177 723.421 340.628C723.225 340.073 723.127 339.438 723.127 338.72C723.127 338.144 723.217 337.609 723.397 337.114C723.576 336.614 723.831 336.179 724.163 335.81C724.5 335.44 724.91 335.149 725.394 334.938C725.877 334.726 726.421 334.62 727.024 334.62C727.53 334.62 727.994 334.704 728.418 334.872C728.848 335.035 729.217 335.274 729.527 335.59C729.837 335.905 730.079 336.293 730.252 336.755C730.432 337.217 730.521 337.745 730.521 338.337C730.521 338.582 730.494 338.747 730.44 338.834C730.386 338.916 730.285 338.957 730.138 338.957H724.709C724.725 339.451 724.796 339.883 724.921 340.253C725.046 340.617 725.217 340.921 725.435 341.166C725.657 341.41 725.921 341.592 726.225 341.712C726.53 341.832 726.869 341.891 727.244 341.891C727.598 341.891 727.902 341.851 728.157 341.769C728.418 341.688 728.641 341.601 728.826 341.508C729.016 341.41 729.174 341.321 729.299 341.239C729.429 341.158 729.543 341.117 729.641 341.117C729.771 341.117 729.872 341.166 729.943 341.264L730.399 341.851Z" fill="#41A5DD"/>
</svg>
