<svg width="1204" height="678" viewBox="0 0 1204 678" fill="none" xmlns="http://www.w3.org/2000/svg">
<rect width="1204" height="677.25" fill="white"/>
<rect x="421.5" y="218.5" width="353" height="49" stroke="#D8D8D8"/>
<rect x="421.5" y="318.5" width="353" height="19" stroke="#D8D8D8"/>
<rect x="421.5" y="358.5" width="353" height="49" stroke="#D8D8D8"/>
<rect x="421.5" y="407.5" width="189" height="49" transform="rotate(-90 421.5 407.5)" stroke="#D8D8D8"/>
<rect x="725.5" y="407.5" width="189" height="49" transform="rotate(-90 725.5 407.5)" stroke="#D8D8D8"/>
<path d="M579.862 314.176C583.076 314.176 585.682 311.581 585.682 308.379C585.682 305.178 583.076 302.583 579.862 302.583C576.648 302.583 574.042 305.178 574.042 308.379C574.042 311.581 576.648 314.176 579.862 314.176Z" fill="#41A5DD"/>
<path fill-rule="evenodd" clip-rule="evenodd" d="M625.492 271.556C624.289 268.155 622.077 267.537 619.555 267.537H616.917C616.684 267.537 616.451 267.537 616.218 267.576H562.208C558.794 267.576 556 270.358 556 273.758V311.355C556 314.755 558.794 317.537 562.208 317.537H601.241V317.499H601.358C603.996 317.499 605.51 316.61 606.285 314.485L609.195 306.447H626.966L629.799 314.485C630.613 316.61 632.359 317.499 634.765 317.499C637.598 317.499 639.926 315.373 639.926 312.669C639.926 311.471 639.266 309.539 638.839 308.457L625.492 271.556ZM579.862 315.489C575.943 315.489 572.723 312.321 572.723 308.379C572.723 304.477 575.905 301.27 579.862 301.27C583.781 301.27 587.002 304.438 587.002 308.379C586.963 312.321 583.781 315.489 579.862 315.489ZM594.956 308.921H588.398C588.398 307.529 587.816 299.801 579.668 299.801C571.52 299.801 571.171 308.998 571.171 308.998H569.425C569.425 308.998 564.342 306.95 563.294 306.409C562.247 305.829 562.13 302.97 562.13 302.97V300.458H563.023V297.908C563.45 292.498 576.758 287.63 576.758 287.63C576.758 287.63 587.933 276.656 589.679 275.111C593.443 271.826 608.691 272.56 608.691 272.56L594.956 308.921ZM611.562 298.835L618.081 279.477H618.197L624.444 298.835H611.562Z" fill="#41A5DD"/>
<path fill-rule="evenodd" clip-rule="evenodd" d="M572.025 294.16C571.559 294.044 569.852 294.044 569.115 294.005C568.882 294.005 568.649 294.083 568.494 294.237C568.145 294.508 567.602 295.049 567.097 295.706C566.515 296.478 566.088 297.444 565.817 298.063C565.623 298.565 566.166 298.604 566.166 298.604L567.446 298.874C567.602 298.913 567.757 298.874 567.873 298.758L572.141 295.049C572.102 295.049 572.723 294.315 572.025 294.16Z" fill="#41A5DD"/>
<path fill-rule="evenodd" clip-rule="evenodd" d="M600.854 275.806C600.272 275.806 594.878 276.386 593.831 276.579C592.783 276.772 591.231 277.97 591.231 277.97L584.596 285.273V289.175L598.642 286.471C598.642 286.471 600.465 286.123 600.737 283.804C601.009 281.486 601.591 276.54 601.591 276.54C601.591 276.54 601.436 275.806 600.854 275.806Z" fill="#41A5DD"/>
<line x1="785" y1="217.5" x2="799" y2="217.5" stroke="black"/>
<line x1="785" y1="267.5" x2="799" y2="267.5" stroke="black"/>
<line x1="798.5" y1="268" x2="798.5" y2="218" stroke="black"/>
<line x1="471.5" y1="418" x2="471.5" y2="432" stroke="black"/>
<line x1="421.5" y1="418" x2="421.5" y2="432" stroke="black"/>
<line x1="421" y1="431.5" x2="471" y2="431.5" stroke="black"/>
<path d="M816.126 248.048V249H810.75V248.048H812.899V241.209C812.899 241.004 812.906 240.796 812.92 240.586L811.135 242.119C811.074 242.17 811.014 242.203 810.953 242.217C810.892 242.226 810.836 242.226 810.785 242.217C810.734 242.208 810.685 242.189 810.638 242.161C810.596 242.133 810.563 242.103 810.54 242.07L810.148 241.531L813.137 238.948H814.152V248.048H816.126ZM825.121 243.988C825.121 244.865 825.025 245.626 824.834 246.27C824.647 246.909 824.391 247.439 824.064 247.859C823.737 248.279 823.35 248.592 822.902 248.797C822.459 249.002 821.983 249.105 821.474 249.105C820.961 249.105 820.482 249.002 820.039 248.797C819.6 248.592 819.218 248.279 818.891 247.859C818.564 247.439 818.308 246.909 818.121 246.27C817.934 245.626 817.841 244.865 817.841 243.988C817.841 243.111 817.934 242.35 818.121 241.706C818.308 241.062 818.564 240.53 818.891 240.11C819.218 239.685 819.6 239.37 820.039 239.165C820.482 238.96 820.961 238.857 821.474 238.857C821.983 238.857 822.459 238.96 822.902 239.165C823.35 239.37 823.737 239.685 824.064 240.11C824.391 240.53 824.647 241.062 824.834 241.706C825.025 242.35 825.121 243.111 825.121 243.988ZM823.826 243.988C823.826 243.223 823.761 242.581 823.63 242.063C823.504 241.54 823.331 241.12 823.112 240.803C822.897 240.486 822.648 240.259 822.363 240.124C822.078 239.984 821.782 239.914 821.474 239.914C821.166 239.914 820.87 239.984 820.585 240.124C820.3 240.259 820.051 240.486 819.836 240.803C819.621 241.12 819.449 241.54 819.318 242.063C819.192 242.581 819.129 243.223 819.129 243.988C819.129 244.753 819.192 245.395 819.318 245.913C819.449 246.431 819.621 246.849 819.836 247.166C820.051 247.483 820.3 247.712 820.585 247.852C820.87 247.987 821.166 248.055 821.474 248.055C821.782 248.055 822.078 247.987 822.363 247.852C822.648 247.712 822.897 247.483 823.112 247.166C823.331 246.849 823.504 246.431 823.63 245.913C823.761 245.395 823.826 244.753 823.826 243.988ZM833.542 243.988C833.542 244.865 833.447 245.626 833.255 246.27C833.069 246.909 832.812 247.439 832.485 247.859C832.159 248.279 831.771 248.592 831.323 248.797C830.88 249.002 830.404 249.105 829.895 249.105C829.382 249.105 828.904 249.002 828.46 248.797C828.022 248.592 827.639 248.279 827.312 247.859C826.986 247.439 826.729 246.909 826.542 246.27C826.356 245.626 826.262 244.865 826.262 243.988C826.262 243.111 826.356 242.35 826.542 241.706C826.729 241.062 826.986 240.53 827.312 240.11C827.639 239.685 828.022 239.37 828.46 239.165C828.904 238.96 829.382 238.857 829.895 238.857C830.404 238.857 830.88 238.96 831.323 239.165C831.771 239.37 832.159 239.685 832.485 240.11C832.812 240.53 833.069 241.062 833.255 241.706C833.447 242.35 833.542 243.111 833.542 243.988ZM832.247 243.988C832.247 243.223 832.182 242.581 832.051 242.063C831.925 241.54 831.753 241.12 831.533 240.803C831.319 240.486 831.069 240.259 830.784 240.124C830.5 239.984 830.203 239.914 829.895 239.914C829.587 239.914 829.291 239.984 829.006 240.124C828.722 240.259 828.472 240.486 828.257 240.803C828.043 241.12 827.87 241.54 827.739 242.063C827.613 242.581 827.55 243.223 827.55 243.988C827.55 244.753 827.613 245.395 827.739 245.913C827.87 246.431 828.043 246.849 828.257 247.166C828.472 247.483 828.722 247.712 829.006 247.852C829.291 247.987 829.587 248.055 829.895 248.055C830.203 248.055 830.5 247.987 830.784 247.852C831.069 247.712 831.319 247.483 831.533 247.166C831.753 246.849 831.925 246.431 832.051 245.913C832.182 245.395 832.247 244.753 832.247 243.988ZM839.317 241.391C839.317 241.783 839.257 242.135 839.135 242.448C839.014 242.756 838.851 243.017 838.645 243.232C838.445 243.442 838.209 243.603 837.938 243.715C837.672 243.827 837.39 243.883 837.091 243.883C836.779 243.883 836.487 243.827 836.216 243.715C835.946 243.603 835.71 243.442 835.509 243.232C835.313 243.017 835.159 242.756 835.047 242.448C834.935 242.135 834.879 241.783 834.879 241.391C834.879 240.99 834.935 240.633 835.047 240.32C835.159 240.007 835.313 239.744 835.509 239.529C835.71 239.314 835.946 239.151 836.216 239.039C836.487 238.927 836.779 238.871 837.091 238.871C837.409 238.871 837.703 238.927 837.973 239.039C838.244 239.151 838.48 239.314 838.68 239.529C838.881 239.744 839.037 240.007 839.149 240.32C839.261 240.633 839.317 240.99 839.317 241.391ZM838.351 241.391C838.351 241.083 838.319 240.822 838.253 240.607C838.188 240.392 838.097 240.217 837.98 240.082C837.868 239.942 837.735 239.842 837.581 239.781C837.427 239.72 837.264 239.69 837.091 239.69C836.919 239.69 836.758 239.72 836.608 239.781C836.459 239.842 836.328 239.942 836.216 240.082C836.104 240.217 836.016 240.392 835.95 240.607C835.885 240.822 835.852 241.083 835.852 241.391C835.852 241.694 835.885 241.953 835.95 242.168C836.016 242.378 836.104 242.551 836.216 242.686C836.328 242.817 836.459 242.912 836.608 242.973C836.758 243.029 836.919 243.057 837.091 243.057C837.264 243.057 837.427 243.029 837.581 242.973C837.735 242.912 837.868 242.817 837.98 242.686C838.097 242.551 838.188 242.378 838.253 242.168C838.319 241.953 838.351 241.694 838.351 241.391ZM842.866 239.179C842.913 239.123 842.967 239.074 843.027 239.032C843.093 238.99 843.179 238.969 843.286 238.969H844.189L836.853 248.797C836.811 248.858 836.758 248.907 836.692 248.944C836.627 248.981 836.548 249 836.454 249H835.537L842.866 239.179ZM844.868 246.634C844.868 247.026 844.808 247.376 844.686 247.684C844.565 247.992 844.402 248.253 844.196 248.468C843.996 248.678 843.76 248.839 843.489 248.951C843.223 249.063 842.941 249.119 842.642 249.119C842.325 249.119 842.031 249.063 841.76 248.951C841.494 248.839 841.261 248.678 841.06 248.468C840.864 248.253 840.71 247.992 840.598 247.684C840.486 247.376 840.43 247.026 840.43 246.634C840.43 246.233 840.486 245.876 840.598 245.563C840.71 245.246 840.864 244.98 841.06 244.765C841.261 244.55 841.494 244.387 841.76 244.275C842.031 244.163 842.325 244.107 842.642 244.107C842.955 244.107 843.247 244.163 843.517 244.275C843.793 244.387 844.028 244.55 844.224 244.765C844.425 244.98 844.581 245.246 844.693 245.563C844.81 245.876 844.868 246.233 844.868 246.634ZM843.902 246.634C843.902 246.326 843.87 246.065 843.804 245.85C843.739 245.631 843.648 245.453 843.531 245.318C843.419 245.183 843.286 245.085 843.132 245.024C842.978 244.963 842.815 244.933 842.642 244.933C842.47 244.933 842.306 244.963 842.152 245.024C842.003 245.085 841.872 245.183 841.76 245.318C841.648 245.453 841.56 245.631 841.494 245.85C841.434 246.065 841.403 246.326 841.403 246.634C841.403 246.937 841.434 247.194 841.494 247.404C841.56 247.614 841.648 247.787 841.76 247.922C841.872 248.053 842.003 248.148 842.152 248.209C842.306 248.265 842.47 248.293 842.642 248.293C842.815 248.293 842.978 248.265 843.132 248.209C843.286 248.148 843.419 248.053 843.531 247.922C843.648 247.787 843.739 247.614 843.804 247.404C843.87 247.194 843.902 246.937 843.902 246.634ZM853.646 241.797C854.164 241.797 854.631 241.883 855.046 242.056C855.461 242.229 855.816 242.474 856.11 242.791C856.404 243.108 856.628 243.493 856.782 243.946C856.941 244.394 857.02 244.896 857.02 245.451C857.02 246.011 856.941 246.515 856.782 246.963C856.628 247.411 856.404 247.794 856.11 248.111C855.816 248.428 855.461 248.673 855.046 248.846C854.631 249.014 854.164 249.098 853.646 249.098C853.123 249.098 852.652 249.014 852.232 248.846C851.817 248.673 851.462 248.428 851.168 248.111C850.874 247.794 850.648 247.411 850.489 246.963C850.335 246.515 850.258 246.011 850.258 245.451C850.258 244.896 850.335 244.394 850.489 243.946C850.648 243.493 850.874 243.108 851.168 242.791C851.462 242.474 851.817 242.229 852.232 242.056C852.652 241.883 853.123 241.797 853.646 241.797ZM853.646 248.125C854.346 248.125 854.869 247.892 855.214 247.425C855.559 246.954 855.732 246.298 855.732 245.458C855.732 244.613 855.559 243.955 855.214 243.484C854.869 243.013 854.346 242.777 853.646 242.777C853.291 242.777 852.981 242.838 852.715 242.959C852.454 243.08 852.234 243.255 852.057 243.484C851.884 243.713 851.754 243.995 851.665 244.331C851.581 244.662 851.539 245.038 851.539 245.458C851.539 246.298 851.712 246.954 852.057 247.425C852.407 247.892 852.937 248.125 853.646 248.125ZM859.212 249V242.973L858.428 242.882C858.33 242.859 858.248 242.824 858.183 242.777C858.122 242.726 858.092 242.653 858.092 242.56V242.049H859.212V241.363C859.212 240.957 859.268 240.598 859.38 240.285C859.497 239.968 859.66 239.702 859.87 239.487C860.085 239.268 860.341 239.102 860.64 238.99C860.939 238.878 861.275 238.822 861.648 238.822C861.965 238.822 862.257 238.869 862.523 238.962L862.495 239.585C862.486 239.697 862.423 239.758 862.306 239.767C862.194 239.776 862.042 239.781 861.851 239.781C861.636 239.781 861.44 239.809 861.263 239.865C861.09 239.921 860.941 240.012 860.815 240.138C860.689 240.264 860.591 240.43 860.521 240.635C860.456 240.84 860.423 241.095 860.423 241.398V242.049H862.467V242.952H860.465V249H859.212ZM868.896 241.909V249.525C868.896 249.81 868.859 250.073 868.784 250.316C868.71 250.563 868.591 250.778 868.427 250.96C868.264 251.142 868.054 251.284 867.797 251.387C867.545 251.494 867.242 251.548 866.887 251.548C866.738 251.548 866.6 251.536 866.474 251.513C866.348 251.49 866.222 251.455 866.096 251.408L866.145 250.736C866.155 250.694 866.171 250.661 866.194 250.638C866.213 250.619 866.241 250.608 866.278 250.603C866.316 250.598 866.365 250.596 866.425 250.596C866.481 250.601 866.554 250.603 866.642 250.603C867.006 250.603 867.265 250.517 867.419 250.344C867.573 250.176 867.65 249.903 867.65 249.525V241.909H868.896ZM869.155 239.683C869.155 239.804 869.13 239.919 869.078 240.026C869.032 240.129 868.966 240.222 868.882 240.306C868.803 240.385 868.71 240.448 868.602 240.495C868.495 240.542 868.381 240.565 868.259 240.565C868.138 240.565 868.024 240.542 867.916 240.495C867.814 240.448 867.723 240.385 867.643 240.306C867.564 240.222 867.501 240.129 867.454 240.026C867.408 239.919 867.384 239.804 867.384 239.683C867.384 239.562 867.408 239.447 867.454 239.34C867.501 239.228 867.564 239.132 867.643 239.053C867.723 238.969 867.814 238.904 867.916 238.857C868.024 238.81 868.138 238.787 868.259 238.787C868.381 238.787 868.495 238.81 868.602 238.857C868.71 238.904 868.803 238.969 868.882 239.053C868.966 239.132 869.032 239.228 869.078 239.34C869.13 239.447 869.155 239.562 869.155 239.683Z" fill="black"/>
<line x1="411" y1="317.5" x2="397" y2="317.5" stroke="black"/>
<line x1="411" y1="267.5" x2="397" y2="267.5" stroke="black"/>
<line x1="397.5" y1="267" x2="397.5" y2="317" stroke="black"/>
<path d="M422.126 455.048V456H416.75V455.048H418.899V448.209C418.899 448.004 418.906 447.796 418.92 447.586L417.135 449.119C417.074 449.17 417.014 449.203 416.953 449.217C416.892 449.226 416.836 449.226 416.785 449.217C416.734 449.208 416.685 449.189 416.638 449.161C416.596 449.133 416.563 449.103 416.54 449.07L416.148 448.531L419.137 445.948H420.152V455.048H422.126ZM431.121 450.988C431.121 451.865 431.025 452.626 430.834 453.27C430.647 453.909 430.391 454.439 430.064 454.859C429.737 455.279 429.35 455.592 428.902 455.797C428.459 456.002 427.983 456.105 427.474 456.105C426.961 456.105 426.482 456.002 426.039 455.797C425.6 455.592 425.218 455.279 424.891 454.859C424.564 454.439 424.308 453.909 424.121 453.27C423.934 452.626 423.841 451.865 423.841 450.988C423.841 450.111 423.934 449.35 424.121 448.706C424.308 448.062 424.564 447.53 424.891 447.11C425.218 446.685 425.6 446.37 426.039 446.165C426.482 445.96 426.961 445.857 427.474 445.857C427.983 445.857 428.459 445.96 428.902 446.165C429.35 446.37 429.737 446.685 430.064 447.11C430.391 447.53 430.647 448.062 430.834 448.706C431.025 449.35 431.121 450.111 431.121 450.988ZM429.826 450.988C429.826 450.223 429.761 449.581 429.63 449.063C429.504 448.54 429.331 448.12 429.112 447.803C428.897 447.486 428.648 447.259 428.363 447.124C428.078 446.984 427.782 446.914 427.474 446.914C427.166 446.914 426.87 446.984 426.585 447.124C426.3 447.259 426.051 447.486 425.836 447.803C425.621 448.12 425.449 448.54 425.318 449.063C425.192 449.581 425.129 450.223 425.129 450.988C425.129 451.753 425.192 452.395 425.318 452.913C425.449 453.431 425.621 453.849 425.836 454.166C426.051 454.483 426.3 454.712 426.585 454.852C426.87 454.987 427.166 455.055 427.474 455.055C427.782 455.055 428.078 454.987 428.363 454.852C428.648 454.712 428.897 454.483 429.112 454.166C429.331 453.849 429.504 453.431 429.63 452.913C429.761 452.395 429.826 451.753 429.826 450.988ZM439.542 450.988C439.542 451.865 439.447 452.626 439.255 453.27C439.069 453.909 438.812 454.439 438.485 454.859C438.159 455.279 437.771 455.592 437.323 455.797C436.88 456.002 436.404 456.105 435.895 456.105C435.382 456.105 434.904 456.002 434.46 455.797C434.022 455.592 433.639 455.279 433.312 454.859C432.986 454.439 432.729 453.909 432.542 453.27C432.356 452.626 432.262 451.865 432.262 450.988C432.262 450.111 432.356 449.35 432.542 448.706C432.729 448.062 432.986 447.53 433.312 447.11C433.639 446.685 434.022 446.37 434.46 446.165C434.904 445.96 435.382 445.857 435.895 445.857C436.404 445.857 436.88 445.96 437.323 446.165C437.771 446.37 438.159 446.685 438.485 447.11C438.812 447.53 439.069 448.062 439.255 448.706C439.447 449.35 439.542 450.111 439.542 450.988ZM438.247 450.988C438.247 450.223 438.182 449.581 438.051 449.063C437.925 448.54 437.753 448.12 437.533 447.803C437.319 447.486 437.069 447.259 436.784 447.124C436.5 446.984 436.203 446.914 435.895 446.914C435.587 446.914 435.291 446.984 435.006 447.124C434.722 447.259 434.472 447.486 434.257 447.803C434.043 448.12 433.87 448.54 433.739 449.063C433.613 449.581 433.55 450.223 433.55 450.988C433.55 451.753 433.613 452.395 433.739 452.913C433.87 453.431 434.043 453.849 434.257 454.166C434.472 454.483 434.722 454.712 435.006 454.852C435.291 454.987 435.587 455.055 435.895 455.055C436.203 455.055 436.5 454.987 436.784 454.852C437.069 454.712 437.319 454.483 437.533 454.166C437.753 453.849 437.925 453.431 438.051 452.913C438.182 452.395 438.247 451.753 438.247 450.988ZM445.317 448.391C445.317 448.783 445.257 449.135 445.135 449.448C445.014 449.756 444.851 450.017 444.645 450.232C444.445 450.442 444.209 450.603 443.938 450.715C443.672 450.827 443.39 450.883 443.091 450.883C442.779 450.883 442.487 450.827 442.216 450.715C441.946 450.603 441.71 450.442 441.509 450.232C441.313 450.017 441.159 449.756 441.047 449.448C440.935 449.135 440.879 448.783 440.879 448.391C440.879 447.99 440.935 447.633 441.047 447.32C441.159 447.007 441.313 446.744 441.509 446.529C441.71 446.314 441.946 446.151 442.216 446.039C442.487 445.927 442.779 445.871 443.091 445.871C443.409 445.871 443.703 445.927 443.973 446.039C444.244 446.151 444.48 446.314 444.68 446.529C444.881 446.744 445.037 447.007 445.149 447.32C445.261 447.633 445.317 447.99 445.317 448.391ZM444.351 448.391C444.351 448.083 444.319 447.822 444.253 447.607C444.188 447.392 444.097 447.217 443.98 447.082C443.868 446.942 443.735 446.842 443.581 446.781C443.427 446.72 443.264 446.69 443.091 446.69C442.919 446.69 442.758 446.72 442.608 446.781C442.459 446.842 442.328 446.942 442.216 447.082C442.104 447.217 442.016 447.392 441.95 447.607C441.885 447.822 441.852 448.083 441.852 448.391C441.852 448.694 441.885 448.953 441.95 449.168C442.016 449.378 442.104 449.551 442.216 449.686C442.328 449.817 442.459 449.912 442.608 449.973C442.758 450.029 442.919 450.057 443.091 450.057C443.264 450.057 443.427 450.029 443.581 449.973C443.735 449.912 443.868 449.817 443.98 449.686C444.097 449.551 444.188 449.378 444.253 449.168C444.319 448.953 444.351 448.694 444.351 448.391ZM448.866 446.179C448.913 446.123 448.967 446.074 449.027 446.032C449.093 445.99 449.179 445.969 449.286 445.969H450.189L442.853 455.797C442.811 455.858 442.758 455.907 442.692 455.944C442.627 455.981 442.548 456 442.454 456H441.537L448.866 446.179ZM450.868 453.634C450.868 454.026 450.808 454.376 450.686 454.684C450.565 454.992 450.402 455.253 450.196 455.468C449.996 455.678 449.76 455.839 449.489 455.951C449.223 456.063 448.941 456.119 448.642 456.119C448.325 456.119 448.031 456.063 447.76 455.951C447.494 455.839 447.261 455.678 447.06 455.468C446.864 455.253 446.71 454.992 446.598 454.684C446.486 454.376 446.43 454.026 446.43 453.634C446.43 453.233 446.486 452.876 446.598 452.563C446.71 452.246 446.864 451.98 447.06 451.765C447.261 451.55 447.494 451.387 447.76 451.275C448.031 451.163 448.325 451.107 448.642 451.107C448.955 451.107 449.247 451.163 449.517 451.275C449.793 451.387 450.028 451.55 450.224 451.765C450.425 451.98 450.581 452.246 450.693 452.563C450.81 452.876 450.868 453.233 450.868 453.634ZM449.902 453.634C449.902 453.326 449.87 453.065 449.804 452.85C449.739 452.631 449.648 452.453 449.531 452.318C449.419 452.183 449.286 452.085 449.132 452.024C448.978 451.963 448.815 451.933 448.642 451.933C448.47 451.933 448.306 451.963 448.152 452.024C448.003 452.085 447.872 452.183 447.76 452.318C447.648 452.453 447.56 452.631 447.494 452.85C447.434 453.065 447.403 453.326 447.403 453.634C447.403 453.937 447.434 454.194 447.494 454.404C447.56 454.614 447.648 454.787 447.76 454.922C447.872 455.053 448.003 455.148 448.152 455.209C448.306 455.265 448.47 455.293 448.642 455.293C448.815 455.293 448.978 455.265 449.132 455.209C449.286 455.148 449.419 455.053 449.531 454.922C449.648 454.787 449.739 454.614 449.804 454.404C449.87 454.194 449.902 453.937 449.902 453.634ZM459.646 448.797C460.164 448.797 460.631 448.883 461.046 449.056C461.461 449.229 461.816 449.474 462.11 449.791C462.404 450.108 462.628 450.493 462.782 450.946C462.941 451.394 463.02 451.896 463.02 452.451C463.02 453.011 462.941 453.515 462.782 453.963C462.628 454.411 462.404 454.794 462.11 455.111C461.816 455.428 461.461 455.673 461.046 455.846C460.631 456.014 460.164 456.098 459.646 456.098C459.123 456.098 458.652 456.014 458.232 455.846C457.817 455.673 457.462 455.428 457.168 455.111C456.874 454.794 456.648 454.411 456.489 453.963C456.335 453.515 456.258 453.011 456.258 452.451C456.258 451.896 456.335 451.394 456.489 450.946C456.648 450.493 456.874 450.108 457.168 449.791C457.462 449.474 457.817 449.229 458.232 449.056C458.652 448.883 459.123 448.797 459.646 448.797ZM459.646 455.125C460.346 455.125 460.869 454.892 461.214 454.425C461.559 453.954 461.732 453.298 461.732 452.458C461.732 451.613 461.559 450.955 461.214 450.484C460.869 450.013 460.346 449.777 459.646 449.777C459.291 449.777 458.981 449.838 458.715 449.959C458.454 450.08 458.234 450.255 458.057 450.484C457.884 450.713 457.754 450.995 457.665 451.331C457.581 451.662 457.539 452.038 457.539 452.458C457.539 453.298 457.712 453.954 458.057 454.425C458.407 454.892 458.937 455.125 459.646 455.125ZM465.212 456V449.973L464.428 449.882C464.33 449.859 464.248 449.824 464.183 449.777C464.122 449.726 464.092 449.653 464.092 449.56V449.049H465.212V448.363C465.212 447.957 465.268 447.598 465.38 447.285C465.497 446.968 465.66 446.702 465.87 446.487C466.085 446.268 466.341 446.102 466.64 445.99C466.939 445.878 467.275 445.822 467.648 445.822C467.965 445.822 468.257 445.869 468.523 445.962L468.495 446.585C468.486 446.697 468.423 446.758 468.306 446.767C468.194 446.776 468.042 446.781 467.851 446.781C467.636 446.781 467.44 446.809 467.263 446.865C467.09 446.921 466.941 447.012 466.815 447.138C466.689 447.264 466.591 447.43 466.521 447.635C466.456 447.84 466.423 448.095 466.423 448.398V449.049H468.467V449.952H466.465V456H465.212ZM474.896 448.909V456.525C474.896 456.81 474.859 457.073 474.784 457.316C474.71 457.563 474.591 457.778 474.427 457.96C474.264 458.142 474.054 458.284 473.797 458.387C473.545 458.494 473.242 458.548 472.887 458.548C472.738 458.548 472.6 458.536 472.474 458.513C472.348 458.49 472.222 458.455 472.096 458.408L472.145 457.736C472.155 457.694 472.171 457.661 472.194 457.638C472.213 457.619 472.241 457.608 472.278 457.603C472.316 457.598 472.365 457.596 472.425 457.596C472.481 457.601 472.554 457.603 472.642 457.603C473.006 457.603 473.265 457.517 473.419 457.344C473.573 457.176 473.65 456.903 473.65 456.525V448.909H474.896ZM475.155 446.683C475.155 446.804 475.13 446.919 475.078 447.026C475.032 447.129 474.966 447.222 474.882 447.306C474.803 447.385 474.71 447.448 474.602 447.495C474.495 447.542 474.381 447.565 474.259 447.565C474.138 447.565 474.024 447.542 473.916 447.495C473.814 447.448 473.723 447.385 473.643 447.306C473.564 447.222 473.501 447.129 473.454 447.026C473.408 446.919 473.384 446.804 473.384 446.683C473.384 446.562 473.408 446.447 473.454 446.34C473.501 446.228 473.564 446.132 473.643 446.053C473.723 445.969 473.814 445.904 473.916 445.857C474.024 445.81 474.138 445.787 474.259 445.787C474.381 445.787 474.495 445.81 474.602 445.857C474.71 445.904 474.803 445.969 474.882 446.053C474.966 446.132 475.032 446.228 475.078 446.34C475.13 446.447 475.155 446.562 475.155 446.683Z" fill="black"/>
<path d="M487.413 338.435V354.043H485.391V342.935C485.391 342.768 485.395 342.591 485.402 342.402C485.417 342.214 485.431 342.022 485.446 341.826L480.25 351.359C480.069 351.714 479.79 351.891 479.413 351.891H479.087C478.71 351.891 478.435 351.714 478.261 351.359L472.967 341.793C473.011 342.199 473.033 342.58 473.033 342.935V354.043H471V338.435H472.717C472.92 338.435 473.076 338.457 473.185 338.5C473.301 338.536 473.409 338.645 473.511 338.826L478.728 348.174C478.83 348.362 478.924 348.562 479.011 348.772C479.098 348.982 479.181 349.192 479.261 349.402C479.413 348.975 479.591 348.562 479.793 348.163L484.913 338.826C485.007 338.645 485.109 338.536 485.217 338.5C485.333 338.457 485.493 338.435 485.696 338.435H487.413Z" fill="#41A5DD"/>
<path d="M495.641 342.826C496.453 342.826 497.185 342.96 497.837 343.228C498.496 343.489 499.054 343.87 499.511 344.37C499.974 344.862 500.33 345.46 500.576 346.163C500.822 346.859 500.945 347.641 500.945 348.511C500.945 349.38 500.822 350.167 500.576 350.87C500.33 351.572 499.974 352.17 499.511 352.663C499.054 353.156 498.496 353.536 497.837 353.804C497.185 354.065 496.453 354.196 495.641 354.196C494.822 354.196 494.083 354.065 493.424 353.804C492.772 353.536 492.214 353.156 491.75 352.663C491.286 352.17 490.927 351.572 490.674 350.87C490.427 350.167 490.304 349.38 490.304 348.511C490.304 347.641 490.427 346.859 490.674 346.163C490.927 345.46 491.286 344.862 491.75 344.37C492.214 343.87 492.772 343.489 493.424 343.228C494.083 342.96 494.822 342.826 495.641 342.826ZM495.641 352.543C496.685 352.543 497.464 352.192 497.978 351.489C498.493 350.786 498.75 349.797 498.75 348.522C498.75 347.246 498.493 346.257 497.978 345.554C497.464 344.844 496.685 344.489 495.641 344.489C494.583 344.489 493.793 344.844 493.272 345.554C492.757 346.257 492.5 347.246 492.5 348.522C492.5 349.797 492.757 350.786 493.272 351.489C493.793 352.192 494.583 352.543 495.641 352.543Z" fill="#41A5DD"/>
<path d="M513.015 343L508.537 354.043H506.623L502.145 343H503.895C504.062 343 504.2 343.04 504.308 343.12C504.417 343.199 504.489 343.301 504.526 343.424L507.167 350.207C507.261 350.489 507.341 350.772 507.406 351.054C507.479 351.33 507.544 351.605 507.602 351.88C507.66 351.605 507.725 351.33 507.797 351.054C507.87 350.779 507.957 350.496 508.058 350.207L510.732 343.424C510.776 343.301 510.852 343.199 510.96 343.12C511.069 343.04 511.2 343 511.352 343H513.015Z" fill="#41A5DD"/>
<path d="M522.132 347.293C522.132 346.873 522.071 346.486 521.948 346.13C521.832 345.775 521.658 345.467 521.426 345.207C521.194 344.946 520.911 344.743 520.578 344.598C520.245 344.453 519.861 344.38 519.426 344.38C518.534 344.38 517.832 344.638 517.317 345.152C516.81 345.667 516.487 346.38 516.35 347.293H522.132ZM523.882 352.467C523.621 352.772 523.321 353.036 522.98 353.261C522.64 353.478 522.277 353.656 521.893 353.793C521.509 353.931 521.111 354.033 520.698 354.098C520.292 354.163 519.89 354.196 519.491 354.196C518.73 354.196 518.024 354.069 517.371 353.815C516.726 353.554 516.165 353.178 515.687 352.685C515.216 352.185 514.846 351.569 514.578 350.837C514.317 350.098 514.187 349.25 514.187 348.293C514.187 347.525 514.306 346.812 514.545 346.152C514.784 345.486 515.125 344.906 515.567 344.413C516.016 343.92 516.563 343.533 517.208 343.25C517.853 342.967 518.578 342.826 519.382 342.826C520.056 342.826 520.676 342.938 521.241 343.163C521.813 343.38 522.306 343.699 522.719 344.12C523.132 344.54 523.455 345.058 523.687 345.674C523.926 346.29 524.045 346.993 524.045 347.783C524.045 348.109 524.009 348.33 523.937 348.446C523.864 348.554 523.73 348.609 523.534 348.609H516.295C516.317 349.268 516.411 349.844 516.578 350.337C516.745 350.822 516.973 351.228 517.263 351.554C517.56 351.88 517.911 352.123 518.317 352.283C518.723 352.442 519.176 352.522 519.676 352.522C520.147 352.522 520.553 352.467 520.893 352.359C521.241 352.25 521.538 352.134 521.784 352.011C522.038 351.88 522.248 351.761 522.415 351.652C522.589 351.543 522.741 351.489 522.871 351.489C523.045 351.489 523.179 351.554 523.274 351.685L523.882 352.467Z" fill="#41A5DD"/>
<path d="M538.626 349.141C537.764 349.17 537.032 349.239 536.431 349.348C535.829 349.449 535.34 349.587 534.963 349.761C534.587 349.935 534.315 350.141 534.148 350.38C533.981 350.612 533.898 350.873 533.898 351.163C533.898 351.438 533.942 351.678 534.029 351.88C534.123 352.076 534.246 352.239 534.398 352.37C534.558 352.493 534.742 352.583 534.952 352.641C535.163 352.699 535.391 352.728 535.637 352.728C535.963 352.728 536.26 352.696 536.529 352.63C536.804 352.565 537.061 352.475 537.3 352.359C537.539 352.236 537.768 352.087 537.985 351.913C538.202 351.739 538.416 351.54 538.626 351.315V349.141ZM532.409 344.543C533.025 343.957 533.692 343.518 534.409 343.228C535.134 342.938 535.927 342.793 536.789 342.793C537.42 342.793 537.978 342.899 538.463 343.109C538.949 343.312 539.358 343.598 539.692 343.967C540.025 344.337 540.275 344.779 540.442 345.293C540.615 345.808 540.702 346.377 540.702 347V354.043H539.757C539.547 354.043 539.387 354.011 539.279 353.946C539.17 353.873 539.083 353.743 539.018 353.554L538.789 352.587C538.507 352.848 538.228 353.08 537.952 353.283C537.677 353.478 537.387 353.649 537.083 353.793C536.786 353.931 536.467 354.036 536.126 354.109C535.786 354.181 535.409 354.217 534.996 354.217C534.561 354.217 534.152 354.159 533.768 354.043C533.391 353.92 533.061 353.736 532.779 353.489C532.496 353.243 532.271 352.935 532.105 352.565C531.945 352.196 531.865 351.764 531.865 351.272C531.865 350.837 531.981 350.42 532.213 350.022C532.452 349.616 532.836 349.254 533.365 348.935C533.902 348.616 534.597 348.355 535.452 348.152C536.315 347.949 537.373 347.833 538.626 347.804V347C538.626 346.167 538.449 345.543 538.094 345.13C537.739 344.717 537.217 344.511 536.529 344.511C536.065 344.511 535.673 344.569 535.355 344.685C535.043 344.801 534.771 344.931 534.539 345.076C534.315 345.214 534.115 345.341 533.942 345.457C533.775 345.572 533.601 345.63 533.42 345.63C533.275 345.63 533.148 345.591 533.039 345.511C532.938 345.431 532.855 345.337 532.789 345.228L532.409 344.543Z" fill="#41A5DD"/>
<path d="M545.964 344.533C546.203 344.279 546.453 344.047 546.714 343.837C546.975 343.627 547.25 343.449 547.54 343.304C547.837 343.152 548.152 343.036 548.486 342.957C548.826 342.87 549.188 342.826 549.573 342.826C550.181 342.826 550.714 342.928 551.17 343.13C551.634 343.333 552.022 343.62 552.333 343.989C552.645 344.351 552.88 344.79 553.04 345.304C553.199 345.819 553.279 346.388 553.279 347.011V354.043H551.149V347.011C551.149 346.221 550.967 345.609 550.605 345.174C550.243 344.732 549.688 344.511 548.942 344.511C548.399 344.511 547.888 344.641 547.409 344.902C546.938 345.156 546.5 345.504 546.094 345.946V354.043H543.975V343H545.246C545.544 343 545.728 343.141 545.801 343.424L545.964 344.533Z" fill="#41A5DD"/>
<path d="M565.95 343L559.82 357.25C559.755 357.409 559.668 357.533 559.559 357.62C559.45 357.707 559.291 357.75 559.081 357.75H557.505L559.526 353.348L554.994 343H556.842C557.023 343 557.164 343.043 557.265 343.13C557.367 343.217 557.439 343.315 557.483 343.424L560.287 350.054C560.345 350.221 560.4 350.391 560.45 350.565C560.508 350.732 560.555 350.899 560.592 351.065C560.642 350.891 560.697 350.721 560.755 350.554C560.813 350.38 560.874 350.21 560.939 350.043L563.646 343.424C563.697 343.301 563.776 343.199 563.885 343.12C563.994 343.04 564.117 343 564.255 343H565.95Z" fill="#41A5DD"/>
<path d="M571.462 354.217C570.571 354.217 569.883 353.967 569.397 353.467C568.919 352.967 568.68 352.254 568.68 351.326V344.717H567.397C567.274 344.717 567.169 344.681 567.082 344.609C567.002 344.529 566.962 344.413 566.962 344.261V343.402L568.756 343.152L569.234 339.859C569.263 339.736 569.317 339.641 569.397 339.576C569.484 339.504 569.593 339.467 569.723 339.467H570.799V343.174H573.93V344.717H570.799V351.185C570.799 351.62 570.904 351.946 571.114 352.163C571.332 352.373 571.607 352.478 571.941 352.478C572.136 352.478 572.303 352.453 572.441 352.402C572.585 352.351 572.709 352.297 572.81 352.239C572.912 352.174 572.999 352.116 573.071 352.065C573.143 352.014 573.209 351.989 573.267 351.989C573.339 351.989 573.393 352.007 573.43 352.043C573.473 352.072 573.517 352.123 573.56 352.196L574.191 353.217C573.843 353.536 573.43 353.783 572.951 353.957C572.473 354.13 571.977 354.217 571.462 354.217Z" fill="#41A5DD"/>
<path d="M578.436 344.402C578.9 343.931 579.411 343.551 579.969 343.261C580.534 342.971 581.183 342.826 581.915 342.826C582.523 342.826 583.056 342.928 583.512 343.13C583.976 343.333 584.364 343.62 584.675 343.989C584.987 344.351 585.223 344.79 585.382 345.304C585.541 345.819 585.621 346.388 585.621 347.011V354.043H583.491V347.011C583.491 346.221 583.309 345.609 582.947 345.174C582.585 344.732 582.031 344.511 581.284 344.511C580.741 344.511 580.23 344.641 579.752 344.902C579.281 345.156 578.842 345.504 578.436 345.946V354.043H576.317V338H578.436V344.402Z" fill="#41A5DD"/>
<path d="M591.133 343V354.043H589.014V343H591.133ZM591.536 339.587C591.536 339.783 591.496 339.971 591.416 340.152C591.336 340.326 591.228 340.482 591.09 340.62C590.96 340.75 590.804 340.855 590.623 340.935C590.441 341.007 590.253 341.043 590.057 341.043C589.862 341.043 589.677 341.007 589.503 340.935C589.329 340.855 589.173 340.75 589.036 340.62C588.905 340.482 588.8 340.326 588.72 340.152C588.648 339.971 588.612 339.783 588.612 339.587C588.612 339.384 588.648 339.196 588.72 339.022C588.8 338.841 588.905 338.685 589.036 338.554C589.173 338.417 589.329 338.312 589.503 338.239C589.677 338.159 589.862 338.12 590.057 338.12C590.253 338.12 590.441 338.159 590.623 338.239C590.804 338.312 590.96 338.417 591.09 338.554C591.228 338.685 591.336 338.841 591.416 339.022C591.496 339.196 591.536 339.384 591.536 339.587Z" fill="#41A5DD"/>
<path d="M596.626 344.533C596.865 344.279 597.115 344.047 597.376 343.837C597.637 343.627 597.912 343.449 598.202 343.304C598.499 343.152 598.815 343.036 599.148 342.957C599.488 342.87 599.851 342.826 600.235 342.826C600.844 342.826 601.376 342.928 601.833 343.13C602.296 343.333 602.684 343.62 602.996 343.989C603.307 344.351 603.543 344.79 603.702 345.304C603.862 345.819 603.941 346.388 603.941 347.011V354.043H601.811V347.011C601.811 346.221 601.63 345.609 601.267 345.174C600.905 344.732 600.351 344.511 599.604 344.511C599.061 344.511 598.55 344.641 598.072 344.902C597.601 345.156 597.162 345.504 596.757 345.946V354.043H594.637V343H595.909C596.206 343 596.391 343.141 596.463 343.424L596.626 344.533Z" fill="#41A5DD"/>
<path d="M611.117 348.533C611.494 348.533 611.823 348.482 612.106 348.38C612.396 348.279 612.635 348.138 612.823 347.957C613.019 347.768 613.164 347.543 613.258 347.283C613.36 347.022 613.41 346.736 613.41 346.424C613.41 345.786 613.215 345.279 612.823 344.902C612.439 344.518 611.87 344.326 611.117 344.326C610.37 344.326 609.802 344.518 609.41 344.902C609.026 345.279 608.834 345.786 608.834 346.424C608.834 346.736 608.881 347.022 608.976 347.283C609.077 347.536 609.222 347.757 609.41 347.946C609.606 348.127 609.845 348.272 610.128 348.38C610.418 348.482 610.747 348.533 611.117 348.533ZM614.497 354.62C614.497 354.359 614.425 354.152 614.28 354C614.135 353.841 613.936 353.717 613.682 353.63C613.436 353.536 613.146 353.471 612.812 353.435C612.479 353.391 612.128 353.359 611.758 353.337C611.396 353.315 611.023 353.297 610.639 353.283C610.255 353.261 609.885 353.225 609.53 353.174C609.153 353.362 608.841 353.591 608.595 353.859C608.356 354.127 608.236 354.442 608.236 354.804C608.236 355.036 608.294 355.254 608.41 355.457C608.534 355.659 608.718 355.833 608.965 355.978C609.218 356.13 609.534 356.246 609.91 356.326C610.294 356.413 610.751 356.457 611.28 356.457C611.802 356.457 612.262 356.409 612.66 356.315C613.059 356.228 613.392 356.101 613.66 355.935C613.936 355.775 614.142 355.583 614.28 355.359C614.425 355.134 614.497 354.888 614.497 354.62ZM616.649 343.413V344.207C616.649 344.467 616.486 344.63 616.16 344.696L614.976 344.87C615.077 345.094 615.157 345.333 615.215 345.587C615.273 345.833 615.302 346.094 615.302 346.37C615.302 346.913 615.197 347.406 614.986 347.848C614.776 348.283 614.486 348.656 614.117 348.967C613.747 349.279 613.305 349.518 612.791 349.685C612.284 349.851 611.726 349.935 611.117 349.935C610.617 349.935 610.149 349.88 609.715 349.772C609.497 349.902 609.331 350.047 609.215 350.207C609.106 350.359 609.052 350.511 609.052 350.663C609.052 350.917 609.157 351.105 609.367 351.228C609.584 351.351 609.863 351.442 610.204 351.5C610.552 351.551 610.947 351.583 611.389 351.598C611.838 351.612 612.291 351.638 612.747 351.674C613.211 351.703 613.664 351.761 614.106 351.848C614.555 351.928 614.95 352.062 615.291 352.25C615.639 352.431 615.918 352.685 616.128 353.011C616.345 353.33 616.454 353.746 616.454 354.261C616.454 354.739 616.334 355.203 616.095 355.652C615.863 356.101 615.523 356.5 615.073 356.848C614.624 357.196 614.077 357.475 613.432 357.685C612.787 357.895 612.055 358 611.236 358C610.418 358 609.704 357.92 609.095 357.761C608.494 357.601 607.99 357.388 607.584 357.12C607.186 356.851 606.885 356.54 606.682 356.185C606.486 355.83 606.389 355.46 606.389 355.076C606.389 354.54 606.555 354.087 606.889 353.717C607.222 353.341 607.682 353.047 608.269 352.837C607.95 352.692 607.697 352.496 607.508 352.25C607.32 351.996 607.226 351.663 607.226 351.25C607.226 351.091 607.255 350.928 607.312 350.761C607.37 350.587 607.457 350.417 607.573 350.25C607.697 350.076 607.845 349.913 608.019 349.761C608.2 349.609 608.407 349.471 608.639 349.348C608.095 349.043 607.668 348.641 607.356 348.141C607.044 347.634 606.889 347.043 606.889 346.37C606.889 345.826 606.994 345.337 607.204 344.902C607.414 344.467 607.704 344.094 608.073 343.783C608.45 343.471 608.896 343.232 609.41 343.065C609.932 342.899 610.501 342.815 611.117 342.815C612.073 342.815 612.896 343.014 613.584 343.413H616.649Z" fill="#41A5DD"/>
<path d="M619.986 354.043C619.79 354.043 619.609 354.007 619.442 353.935C619.283 353.862 619.141 353.764 619.018 353.641C618.902 353.511 618.812 353.359 618.746 353.185C618.681 353.011 618.649 352.822 618.649 352.62C618.649 352.446 618.681 352.283 618.746 352.13C618.812 351.971 618.902 351.833 619.018 351.717C619.141 351.601 619.286 351.511 619.453 351.446C619.62 351.373 619.804 351.337 620.007 351.337C620.239 351.337 620.442 351.38 620.616 351.467C620.797 351.547 620.946 351.663 621.062 351.815C621.185 351.96 621.275 352.13 621.333 352.326C621.391 352.522 621.42 352.732 621.42 352.957C621.42 353.283 621.373 353.627 621.279 353.989C621.185 354.351 621.047 354.71 620.866 355.065C620.685 355.42 620.46 355.764 620.192 356.098C619.924 356.431 619.62 356.739 619.279 357.022L618.92 356.685C618.812 356.583 618.757 356.471 618.757 356.348C618.757 356.297 618.772 356.243 618.801 356.185C618.837 356.134 618.88 356.083 618.931 356.033C619.004 355.953 619.098 355.848 619.214 355.717C619.33 355.587 619.442 355.435 619.551 355.261C619.667 355.094 619.772 354.906 619.866 354.696C619.967 354.493 620.04 354.275 620.083 354.043H619.986Z" fill="#41A5DD"/>
<path d="M636.3 349.141C635.437 349.17 634.705 349.239 634.104 349.348C633.502 349.449 633.013 349.587 632.637 349.761C632.26 349.935 631.988 350.141 631.821 350.38C631.655 350.612 631.571 350.873 631.571 351.163C631.571 351.438 631.615 351.678 631.702 351.88C631.796 352.076 631.919 352.239 632.071 352.37C632.231 352.493 632.416 352.583 632.626 352.641C632.836 352.699 633.064 352.728 633.31 352.728C633.637 352.728 633.934 352.696 634.202 352.63C634.477 352.565 634.734 352.475 634.973 352.359C635.213 352.236 635.441 352.087 635.658 351.913C635.876 351.739 636.089 351.54 636.3 351.315V349.141ZM630.082 344.543C630.698 343.957 631.365 343.518 632.082 343.228C632.807 342.938 633.6 342.793 634.463 342.793C635.093 342.793 635.651 342.899 636.137 343.109C636.622 343.312 637.031 343.598 637.365 343.967C637.698 344.337 637.948 344.779 638.115 345.293C638.289 345.808 638.376 346.377 638.376 347V354.043H637.43C637.22 354.043 637.06 354.011 636.952 353.946C636.843 353.873 636.756 353.743 636.691 353.554L636.463 352.587C636.18 352.848 635.901 353.08 635.626 353.283C635.35 353.478 635.06 353.649 634.756 353.793C634.459 353.931 634.14 354.036 633.8 354.109C633.459 354.181 633.082 354.217 632.669 354.217C632.234 354.217 631.825 354.159 631.441 354.043C631.064 353.92 630.734 353.736 630.452 353.489C630.169 353.243 629.945 352.935 629.778 352.565C629.618 352.196 629.539 351.764 629.539 351.272C629.539 350.837 629.655 350.42 629.887 350.022C630.126 349.616 630.51 349.254 631.039 348.935C631.575 348.616 632.271 348.355 633.126 348.152C633.988 347.949 635.046 347.833 636.3 347.804V347C636.3 346.167 636.122 345.543 635.767 345.13C635.412 344.717 634.89 344.511 634.202 344.511C633.738 344.511 633.347 344.569 633.028 344.685C632.716 344.801 632.445 344.931 632.213 345.076C631.988 345.214 631.789 345.341 631.615 345.457C631.448 345.572 631.274 345.63 631.093 345.63C630.948 345.63 630.821 345.591 630.713 345.511C630.611 345.431 630.528 345.337 630.463 345.228L630.082 344.543Z" fill="#41A5DD"/>
<path d="M643.637 344.533C643.876 344.279 644.126 344.047 644.387 343.837C644.648 343.627 644.923 343.449 645.213 343.304C645.51 343.152 645.825 343.036 646.159 342.957C646.499 342.87 646.862 342.826 647.246 342.826C647.854 342.826 648.387 342.928 648.844 343.13C649.307 343.333 649.695 343.62 650.007 343.989C650.318 344.351 650.554 344.79 650.713 345.304C650.873 345.819 650.952 346.388 650.952 347.011V354.043H648.822V347.011C648.822 346.221 648.641 345.609 648.278 345.174C647.916 344.732 647.362 344.511 646.615 344.511C646.072 344.511 645.561 344.641 645.083 344.902C644.612 345.156 644.173 345.504 643.767 345.946V354.043H641.648V343H642.92C643.217 343 643.402 343.141 643.474 343.424L643.637 344.533Z" fill="#41A5DD"/>
<path d="M663.623 343L657.493 357.25C657.428 357.409 657.341 357.533 657.232 357.62C657.123 357.707 656.964 357.75 656.754 357.75H655.178L657.2 353.348L652.667 343H654.515C654.696 343 654.837 343.043 654.939 343.13C655.04 343.217 655.113 343.315 655.156 343.424L657.96 350.054C658.018 350.221 658.073 350.391 658.123 350.565C658.181 350.732 658.229 350.899 658.265 351.065C658.315 350.891 658.37 350.721 658.428 350.554C658.486 350.38 658.547 350.21 658.613 350.043L661.319 343.424C661.37 343.301 661.45 343.199 661.558 343.12C661.667 343.04 661.79 343 661.928 343H663.623Z" fill="#41A5DD"/>
<path d="M681.038 343L677.483 354.043H675.788C675.585 354.043 675.447 353.909 675.375 353.641L673.049 346.446C672.991 346.264 672.94 346.087 672.896 345.913C672.853 345.732 672.813 345.551 672.777 345.37C672.712 345.746 672.621 346.112 672.505 346.467L670.146 353.641C670.074 353.909 669.918 354.043 669.679 354.043H668.07L664.505 343H666.179C666.346 343 666.483 343.04 666.592 343.12C666.708 343.199 666.784 343.301 666.82 343.424L668.809 350.207C668.875 350.482 668.933 350.75 668.983 351.011C669.034 351.272 669.081 351.533 669.125 351.793C669.19 351.533 669.259 351.272 669.331 351.011C669.411 350.75 669.491 350.482 669.57 350.207L671.777 343.38C671.813 343.257 671.882 343.159 671.983 343.087C672.085 343.007 672.208 342.967 672.353 342.967H673.277C673.436 342.967 673.567 343.007 673.668 343.087C673.777 343.159 673.849 343.257 673.886 343.38L676.038 350.207C676.117 350.482 676.193 350.754 676.266 351.022C676.338 351.283 676.404 351.547 676.462 351.815C676.505 351.554 676.556 351.293 676.614 351.033C676.672 350.764 676.737 350.489 676.809 350.207L678.831 343.424C678.867 343.301 678.94 343.199 679.049 343.12C679.164 343.04 679.295 343 679.44 343H681.038Z" fill="#41A5DD"/>
<path d="M685.387 344.402C685.851 343.931 686.362 343.551 686.919 343.261C687.485 342.971 688.133 342.826 688.865 342.826C689.474 342.826 690.006 342.928 690.463 343.13C690.927 343.333 691.314 343.62 691.626 343.989C691.938 344.351 692.173 344.79 692.333 345.304C692.492 345.819 692.572 346.388 692.572 347.011V354.043H690.441V347.011C690.441 346.221 690.26 345.609 689.898 345.174C689.535 344.732 688.981 344.511 688.235 344.511C687.691 344.511 687.18 344.641 686.702 344.902C686.231 345.156 685.793 345.504 685.387 345.946V354.043H683.267V338H685.387V344.402Z" fill="#41A5DD"/>
<path d="M703.182 347.293C703.182 346.873 703.12 346.486 702.997 346.13C702.881 345.775 702.707 345.467 702.475 345.207C702.243 344.946 701.961 344.743 701.628 344.598C701.294 344.453 700.91 344.38 700.475 344.38C699.584 344.38 698.881 344.638 698.367 345.152C697.859 345.667 697.537 346.38 697.399 347.293H703.182ZM704.932 352.467C704.671 352.772 704.37 353.036 704.03 353.261C703.689 353.478 703.327 353.656 702.943 353.793C702.559 353.931 702.16 354.033 701.747 354.098C701.341 354.163 700.939 354.196 700.541 354.196C699.78 354.196 699.073 354.069 698.421 353.815C697.776 353.554 697.214 353.178 696.736 352.685C696.265 352.185 695.896 351.569 695.628 350.837C695.367 350.098 695.236 349.25 695.236 348.293C695.236 347.525 695.356 346.812 695.595 346.152C695.834 345.486 696.175 344.906 696.617 344.413C697.066 343.92 697.613 343.533 698.258 343.25C698.903 342.967 699.628 342.826 700.432 342.826C701.106 342.826 701.725 342.938 702.291 343.163C702.863 343.38 703.356 343.699 703.769 344.12C704.182 344.54 704.504 345.058 704.736 345.674C704.975 346.29 705.095 346.993 705.095 347.783C705.095 348.109 705.059 348.33 704.986 348.446C704.914 348.554 704.78 348.609 704.584 348.609H697.345C697.367 349.268 697.461 349.844 697.628 350.337C697.794 350.822 698.022 351.228 698.312 351.554C698.609 351.88 698.961 352.123 699.367 352.283C699.772 352.442 700.225 352.522 700.725 352.522C701.196 352.522 701.602 352.467 701.943 352.359C702.291 352.25 702.588 352.134 702.834 352.011C703.088 351.88 703.298 351.761 703.464 351.652C703.638 351.543 703.791 351.489 703.921 351.489C704.095 351.489 704.229 351.554 704.323 351.685L704.932 352.467Z" fill="#41A5DD"/>
<path d="M709.808 345.12C710.163 344.395 710.591 343.826 711.091 343.413C711.591 343 712.192 342.793 712.895 342.793C713.134 342.793 713.359 342.822 713.569 342.88C713.786 342.931 713.975 343.011 714.134 343.12L713.993 344.717C713.942 344.913 713.822 345.011 713.634 345.011C713.533 345.011 713.38 344.993 713.177 344.957C712.975 344.913 712.757 344.891 712.525 344.891C712.185 344.891 711.884 344.942 711.623 345.043C711.362 345.138 711.127 345.283 710.917 345.478C710.714 345.667 710.533 345.902 710.373 346.185C710.214 346.46 710.065 346.775 709.927 347.13V354.043H707.808V343H709.025C709.257 343 709.413 343.043 709.493 343.13C709.58 343.21 709.641 343.355 709.677 343.565L709.808 345.12Z" fill="#41A5DD"/>
<path d="M723.116 347.293C723.116 346.873 723.054 346.486 722.931 346.13C722.815 345.775 722.641 345.467 722.409 345.207C722.177 344.946 721.895 344.743 721.561 344.598C721.228 344.453 720.844 344.38 720.409 344.38C719.518 344.38 718.815 344.638 718.3 345.152C717.793 345.667 717.471 346.38 717.333 347.293H723.116ZM724.866 352.467C724.605 352.772 724.304 353.036 723.963 353.261C723.623 353.478 723.261 353.656 722.876 353.793C722.492 353.931 722.094 354.033 721.681 354.098C721.275 354.163 720.873 354.196 720.474 354.196C719.713 354.196 719.007 354.069 718.355 353.815C717.71 353.554 717.148 353.178 716.67 352.685C716.199 352.185 715.829 351.569 715.561 350.837C715.3 350.098 715.17 349.25 715.17 348.293C715.17 347.525 715.29 346.812 715.529 346.152C715.768 345.486 716.108 344.906 716.55 344.413C717 343.92 717.547 343.533 718.192 343.25C718.837 342.967 719.561 342.826 720.366 342.826C721.04 342.826 721.659 342.938 722.224 343.163C722.797 343.38 723.29 343.699 723.703 344.12C724.116 344.54 724.438 345.058 724.67 345.674C724.909 346.29 725.029 346.993 725.029 347.783C725.029 348.109 724.992 348.33 724.92 348.446C724.848 348.554 724.713 348.609 724.518 348.609H717.279C717.3 349.268 717.395 349.844 717.561 350.337C717.728 350.822 717.956 351.228 718.246 351.554C718.543 351.88 718.895 352.123 719.3 352.283C719.706 352.442 720.159 352.522 720.659 352.522C721.13 352.522 721.536 352.467 721.876 352.359C722.224 352.25 722.521 352.134 722.768 352.011C723.021 351.88 723.232 351.761 723.398 351.652C723.572 351.543 723.724 351.489 723.855 351.489C724.029 351.489 724.163 351.554 724.257 351.685L724.866 352.467Z" fill="#41A5DD"/>
<line x1="785" y1="318.5" x2="799" y2="318.5" stroke="black"/>
<line x1="785" y1="337.5" x2="799" y2="337.5" stroke="black"/>
<line x1="798.5" y1="338" x2="798.5" y2="319" stroke="black"/>
<path d="M814.11 329.381V325.244C814.11 325.123 814.115 324.99 814.124 324.845C814.133 324.7 814.147 324.553 814.166 324.404L810.512 329.381H814.11ZM816.721 329.381V330.095C816.721 330.17 816.698 330.233 816.651 330.284C816.609 330.335 816.541 330.361 816.448 330.361H815.202V333H814.11V330.361H809.658C809.565 330.361 809.483 330.335 809.413 330.284C809.348 330.228 809.306 330.16 809.287 330.081L809.161 329.444L814.04 322.969H815.202V329.381H816.721ZM825.121 327.988C825.121 328.865 825.025 329.626 824.834 330.27C824.647 330.909 824.391 331.439 824.064 331.859C823.737 332.279 823.35 332.592 822.902 332.797C822.459 333.002 821.983 333.105 821.474 333.105C820.961 333.105 820.482 333.002 820.039 332.797C819.6 332.592 819.218 332.279 818.891 331.859C818.564 331.439 818.308 330.909 818.121 330.27C817.934 329.626 817.841 328.865 817.841 327.988C817.841 327.111 817.934 326.35 818.121 325.706C818.308 325.062 818.564 324.53 818.891 324.11C819.218 323.685 819.6 323.37 820.039 323.165C820.482 322.96 820.961 322.857 821.474 322.857C821.983 322.857 822.459 322.96 822.902 323.165C823.35 323.37 823.737 323.685 824.064 324.11C824.391 324.53 824.647 325.062 824.834 325.706C825.025 326.35 825.121 327.111 825.121 327.988ZM823.826 327.988C823.826 327.223 823.761 326.581 823.63 326.063C823.504 325.54 823.331 325.12 823.112 324.803C822.897 324.486 822.648 324.259 822.363 324.124C822.078 323.984 821.782 323.914 821.474 323.914C821.166 323.914 820.87 323.984 820.585 324.124C820.3 324.259 820.051 324.486 819.836 324.803C819.621 325.12 819.449 325.54 819.318 326.063C819.192 326.581 819.129 327.223 819.129 327.988C819.129 328.753 819.192 329.395 819.318 329.913C819.449 330.431 819.621 330.849 819.836 331.166C820.051 331.483 820.3 331.712 820.585 331.852C820.87 331.987 821.166 332.055 821.474 332.055C821.782 332.055 822.078 331.987 822.363 331.852C822.648 331.712 822.897 331.483 823.112 331.166C823.331 330.849 823.504 330.431 823.63 329.913C823.761 329.395 823.826 328.753 823.826 327.988ZM830.896 325.391C830.896 325.783 830.836 326.135 830.714 326.448C830.593 326.756 830.43 327.017 830.224 327.232C830.024 327.442 829.788 327.603 829.517 327.715C829.251 327.827 828.969 327.883 828.67 327.883C828.358 327.883 828.066 327.827 827.795 327.715C827.525 327.603 827.289 327.442 827.088 327.232C826.892 327.017 826.738 326.756 826.626 326.448C826.514 326.135 826.458 325.783 826.458 325.391C826.458 324.99 826.514 324.633 826.626 324.32C826.738 324.007 826.892 323.744 827.088 323.529C827.289 323.314 827.525 323.151 827.795 323.039C828.066 322.927 828.358 322.871 828.67 322.871C828.988 322.871 829.282 322.927 829.552 323.039C829.823 323.151 830.059 323.314 830.259 323.529C830.46 323.744 830.616 324.007 830.728 324.32C830.84 324.633 830.896 324.99 830.896 325.391ZM829.93 325.391C829.93 325.083 829.898 324.822 829.832 324.607C829.767 324.392 829.676 324.217 829.559 324.082C829.447 323.942 829.314 323.842 829.16 323.781C829.006 323.72 828.843 323.69 828.67 323.69C828.498 323.69 828.337 323.72 828.187 323.781C828.038 323.842 827.907 323.942 827.795 324.082C827.683 324.217 827.595 324.392 827.529 324.607C827.464 324.822 827.431 325.083 827.431 325.391C827.431 325.694 827.464 325.953 827.529 326.168C827.595 326.378 827.683 326.551 827.795 326.686C827.907 326.817 828.038 326.912 828.187 326.973C828.337 327.029 828.498 327.057 828.67 327.057C828.843 327.057 829.006 327.029 829.16 326.973C829.314 326.912 829.447 326.817 829.559 326.686C829.676 326.551 829.767 326.378 829.832 326.168C829.898 325.953 829.93 325.694 829.93 325.391ZM834.445 323.179C834.492 323.123 834.546 323.074 834.606 323.032C834.672 322.99 834.758 322.969 834.865 322.969H835.768L828.432 332.797C828.39 332.858 828.337 332.907 828.271 332.944C828.206 332.981 828.127 333 828.033 333H827.116L834.445 323.179ZM836.447 330.634C836.447 331.026 836.387 331.376 836.265 331.684C836.144 331.992 835.981 332.253 835.775 332.468C835.575 332.678 835.339 332.839 835.068 332.951C834.802 333.063 834.52 333.119 834.221 333.119C833.904 333.119 833.61 333.063 833.339 332.951C833.073 332.839 832.84 332.678 832.639 332.468C832.443 332.253 832.289 331.992 832.177 331.684C832.065 331.376 832.009 331.026 832.009 330.634C832.009 330.233 832.065 329.876 832.177 329.563C832.289 329.246 832.443 328.98 832.639 328.765C832.84 328.55 833.073 328.387 833.339 328.275C833.61 328.163 833.904 328.107 834.221 328.107C834.534 328.107 834.826 328.163 835.096 328.275C835.372 328.387 835.607 328.55 835.803 328.765C836.004 328.98 836.16 329.246 836.272 329.563C836.389 329.876 836.447 330.233 836.447 330.634ZM835.481 330.634C835.481 330.326 835.449 330.065 835.383 329.85C835.318 329.631 835.227 329.453 835.11 329.318C834.998 329.183 834.865 329.085 834.711 329.024C834.557 328.963 834.394 328.933 834.221 328.933C834.049 328.933 833.885 328.963 833.731 329.024C833.582 329.085 833.451 329.183 833.339 329.318C833.227 329.453 833.139 329.631 833.073 329.85C833.013 330.065 832.982 330.326 832.982 330.634C832.982 330.937 833.013 331.194 833.073 331.404C833.139 331.614 833.227 331.787 833.339 331.922C833.451 332.053 833.582 332.148 833.731 332.209C833.885 332.265 834.049 332.293 834.221 332.293C834.394 332.293 834.557 332.265 834.711 332.209C834.865 332.148 834.998 332.053 835.11 331.922C835.227 331.787 835.318 331.614 835.383 331.404C835.449 331.194 835.481 330.937 835.481 330.634ZM845.225 325.797C845.743 325.797 846.209 325.883 846.625 326.056C847.04 326.229 847.395 326.474 847.689 326.791C847.983 327.108 848.207 327.493 848.361 327.946C848.519 328.394 848.599 328.896 848.599 329.451C848.599 330.011 848.519 330.515 848.361 330.963C848.207 331.411 847.983 331.794 847.689 332.111C847.395 332.428 847.04 332.673 846.625 332.846C846.209 333.014 845.743 333.098 845.225 333.098C844.702 333.098 844.231 333.014 843.811 332.846C843.395 332.673 843.041 332.428 842.747 332.111C842.453 331.794 842.226 331.411 842.068 330.963C841.914 330.515 841.837 330.011 841.837 329.451C841.837 328.896 841.914 328.394 842.068 327.946C842.226 327.493 842.453 327.108 842.747 326.791C843.041 326.474 843.395 326.229 843.811 326.056C844.231 325.883 844.702 325.797 845.225 325.797ZM845.225 332.125C845.925 332.125 846.447 331.892 846.793 331.425C847.138 330.954 847.311 330.298 847.311 329.458C847.311 328.613 847.138 327.955 846.793 327.484C846.447 327.013 845.925 326.777 845.225 326.777C844.87 326.777 844.56 326.838 844.294 326.959C844.032 327.08 843.813 327.255 843.636 327.484C843.463 327.713 843.332 327.995 843.244 328.331C843.16 328.662 843.118 329.038 843.118 329.458C843.118 330.298 843.29 330.954 843.636 331.425C843.986 331.892 844.515 332.125 845.225 332.125ZM850.791 333V326.973L850.007 326.882C849.909 326.859 849.827 326.824 849.762 326.777C849.701 326.726 849.671 326.653 849.671 326.56V326.049H850.791V325.363C850.791 324.957 850.847 324.598 850.959 324.285C851.075 323.968 851.239 323.702 851.449 323.487C851.663 323.268 851.92 323.102 852.219 322.99C852.517 322.878 852.853 322.822 853.227 322.822C853.544 322.822 853.836 322.869 854.102 322.962L854.074 323.585C854.064 323.697 854.001 323.758 853.885 323.767C853.773 323.776 853.621 323.781 853.43 323.781C853.215 323.781 853.019 323.809 852.842 323.865C852.669 323.921 852.52 324.012 852.394 324.138C852.268 324.264 852.17 324.43 852.1 324.635C852.034 324.84 852.002 325.095 852.002 325.398V326.049H854.046V326.952H852.044V333H850.791ZM860.475 325.909V333.525C860.475 333.81 860.438 334.073 860.363 334.316C860.289 334.563 860.17 334.778 860.006 334.96C859.843 335.142 859.633 335.284 859.376 335.387C859.124 335.494 858.821 335.548 858.466 335.548C858.317 335.548 858.179 335.536 858.053 335.513C857.927 335.49 857.801 335.455 857.675 335.408L857.724 334.736C857.734 334.694 857.75 334.661 857.773 334.638C857.792 334.619 857.82 334.608 857.857 334.603C857.895 334.598 857.944 334.596 858.004 334.596C858.06 334.601 858.133 334.603 858.221 334.603C858.585 334.603 858.844 334.517 858.998 334.344C859.152 334.176 859.229 333.903 859.229 333.525V325.909H860.475ZM860.734 323.683C860.734 323.804 860.709 323.919 860.657 324.026C860.611 324.129 860.545 324.222 860.461 324.306C860.382 324.385 860.289 324.448 860.181 324.495C860.074 324.542 859.96 324.565 859.838 324.565C859.717 324.565 859.603 324.542 859.495 324.495C859.393 324.448 859.302 324.385 859.222 324.306C859.143 324.222 859.08 324.129 859.033 324.026C858.987 323.919 858.963 323.804 858.963 323.683C858.963 323.562 858.987 323.447 859.033 323.34C859.08 323.228 859.143 323.132 859.222 323.053C859.302 322.969 859.393 322.904 859.495 322.857C859.603 322.81 859.717 322.787 859.838 322.787C859.96 322.787 860.074 322.81 860.181 322.857C860.289 322.904 860.382 322.969 860.461 323.053C860.545 323.132 860.611 323.228 860.657 323.34C860.709 323.447 860.734 323.562 860.734 323.683Z" fill="black"/>
<path d="M385.303 290.909V298.525C385.303 298.81 385.266 299.073 385.191 299.316C385.116 299.563 384.997 299.778 384.834 299.96C384.671 300.142 384.461 300.284 384.204 300.387C383.952 300.494 383.649 300.548 383.294 300.548C383.145 300.548 383.007 300.536 382.881 300.513C382.755 300.49 382.629 300.455 382.503 300.408L382.552 299.736C382.561 299.694 382.578 299.661 382.601 299.638C382.62 299.619 382.648 299.608 382.685 299.603C382.722 299.598 382.771 299.596 382.832 299.596C382.888 299.601 382.96 299.603 383.049 299.603C383.413 299.603 383.672 299.517 383.826 299.344C383.98 299.176 384.057 298.903 384.057 298.525V290.909H385.303ZM385.562 288.683C385.562 288.804 385.536 288.919 385.485 289.026C385.438 289.129 385.373 289.222 385.289 289.306C385.21 289.385 385.116 289.448 385.009 289.495C384.902 289.542 384.787 289.565 384.666 289.565C384.545 289.565 384.43 289.542 384.323 289.495C384.22 289.448 384.129 289.385 384.05 289.306C383.971 289.222 383.908 289.129 383.861 289.026C383.814 288.919 383.791 288.804 383.791 288.683C383.791 288.562 383.814 288.447 383.861 288.34C383.908 288.228 383.971 288.132 384.05 288.053C384.129 287.969 384.22 287.904 384.323 287.857C384.43 287.81 384.545 287.787 384.666 287.787C384.787 287.787 384.902 287.81 385.009 287.857C385.116 287.904 385.21 287.969 385.289 288.053C385.373 288.132 385.438 288.228 385.485 288.34C385.536 288.447 385.562 288.562 385.562 288.683Z" fill="black"/>
<line x1="411" y1="357.5" x2="397" y2="357.5" stroke="black"/>
<line x1="411" y1="338.5" x2="397" y2="338.5" stroke="black"/>
<line x1="397.5" y1="338" x2="397.5" y2="357" stroke="black"/>
<path d="M339.11 349.381V345.244C339.11 345.123 339.115 344.99 339.124 344.845C339.133 344.7 339.147 344.553 339.166 344.404L335.512 349.381H339.11ZM341.721 349.381V350.095C341.721 350.17 341.698 350.233 341.651 350.284C341.609 350.335 341.541 350.361 341.448 350.361H340.202V353H339.11V350.361H334.658C334.565 350.361 334.483 350.335 334.413 350.284C334.348 350.228 334.306 350.16 334.287 350.081L334.161 349.444L339.04 342.969H340.202V349.381H341.721ZM350.121 347.988C350.121 348.865 350.025 349.626 349.834 350.27C349.647 350.909 349.391 351.439 349.064 351.859C348.737 352.279 348.35 352.592 347.902 352.797C347.459 353.002 346.983 353.105 346.474 353.105C345.961 353.105 345.482 353.002 345.039 352.797C344.6 352.592 344.218 352.279 343.891 351.859C343.564 351.439 343.308 350.909 343.121 350.27C342.934 349.626 342.841 348.865 342.841 347.988C342.841 347.111 342.934 346.35 343.121 345.706C343.308 345.062 343.564 344.53 343.891 344.11C344.218 343.685 344.6 343.37 345.039 343.165C345.482 342.96 345.961 342.857 346.474 342.857C346.983 342.857 347.459 342.96 347.902 343.165C348.35 343.37 348.737 343.685 349.064 344.11C349.391 344.53 349.647 345.062 349.834 345.706C350.025 346.35 350.121 347.111 350.121 347.988ZM348.826 347.988C348.826 347.223 348.761 346.581 348.63 346.063C348.504 345.54 348.331 345.12 348.112 344.803C347.897 344.486 347.648 344.259 347.363 344.124C347.078 343.984 346.782 343.914 346.474 343.914C346.166 343.914 345.87 343.984 345.585 344.124C345.3 344.259 345.051 344.486 344.836 344.803C344.621 345.12 344.449 345.54 344.318 346.063C344.192 346.581 344.129 347.223 344.129 347.988C344.129 348.753 344.192 349.395 344.318 349.913C344.449 350.431 344.621 350.849 344.836 351.166C345.051 351.483 345.3 351.712 345.585 351.852C345.87 351.987 346.166 352.055 346.474 352.055C346.782 352.055 347.078 351.987 347.363 351.852C347.648 351.712 347.897 351.483 348.112 351.166C348.331 350.849 348.504 350.431 348.63 349.913C348.761 349.395 348.826 348.753 348.826 347.988ZM355.896 345.391C355.896 345.783 355.836 346.135 355.714 346.448C355.593 346.756 355.43 347.017 355.224 347.232C355.024 347.442 354.788 347.603 354.517 347.715C354.251 347.827 353.969 347.883 353.67 347.883C353.358 347.883 353.066 347.827 352.795 347.715C352.525 347.603 352.289 347.442 352.088 347.232C351.892 347.017 351.738 346.756 351.626 346.448C351.514 346.135 351.458 345.783 351.458 345.391C351.458 344.99 351.514 344.633 351.626 344.32C351.738 344.007 351.892 343.744 352.088 343.529C352.289 343.314 352.525 343.151 352.795 343.039C353.066 342.927 353.358 342.871 353.67 342.871C353.988 342.871 354.282 342.927 354.552 343.039C354.823 343.151 355.059 343.314 355.259 343.529C355.46 343.744 355.616 344.007 355.728 344.32C355.84 344.633 355.896 344.99 355.896 345.391ZM354.93 345.391C354.93 345.083 354.898 344.822 354.832 344.607C354.767 344.392 354.676 344.217 354.559 344.082C354.447 343.942 354.314 343.842 354.16 343.781C354.006 343.72 353.843 343.69 353.67 343.69C353.498 343.69 353.337 343.72 353.187 343.781C353.038 343.842 352.907 343.942 352.795 344.082C352.683 344.217 352.595 344.392 352.529 344.607C352.464 344.822 352.431 345.083 352.431 345.391C352.431 345.694 352.464 345.953 352.529 346.168C352.595 346.378 352.683 346.551 352.795 346.686C352.907 346.817 353.038 346.912 353.187 346.973C353.337 347.029 353.498 347.057 353.67 347.057C353.843 347.057 354.006 347.029 354.16 346.973C354.314 346.912 354.447 346.817 354.559 346.686C354.676 346.551 354.767 346.378 354.832 346.168C354.898 345.953 354.93 345.694 354.93 345.391ZM359.445 343.179C359.492 343.123 359.546 343.074 359.606 343.032C359.672 342.99 359.758 342.969 359.865 342.969H360.768L353.432 352.797C353.39 352.858 353.337 352.907 353.271 352.944C353.206 352.981 353.127 353 353.033 353H352.116L359.445 343.179ZM361.447 350.634C361.447 351.026 361.387 351.376 361.265 351.684C361.144 351.992 360.981 352.253 360.775 352.468C360.575 352.678 360.339 352.839 360.068 352.951C359.802 353.063 359.52 353.119 359.221 353.119C358.904 353.119 358.61 353.063 358.339 352.951C358.073 352.839 357.84 352.678 357.639 352.468C357.443 352.253 357.289 351.992 357.177 351.684C357.065 351.376 357.009 351.026 357.009 350.634C357.009 350.233 357.065 349.876 357.177 349.563C357.289 349.246 357.443 348.98 357.639 348.765C357.84 348.55 358.073 348.387 358.339 348.275C358.61 348.163 358.904 348.107 359.221 348.107C359.534 348.107 359.826 348.163 360.096 348.275C360.372 348.387 360.607 348.55 360.803 348.765C361.004 348.98 361.16 349.246 361.272 349.563C361.389 349.876 361.447 350.233 361.447 350.634ZM360.481 350.634C360.481 350.326 360.449 350.065 360.383 349.85C360.318 349.631 360.227 349.453 360.11 349.318C359.998 349.183 359.865 349.085 359.711 349.024C359.557 348.963 359.394 348.933 359.221 348.933C359.049 348.933 358.885 348.963 358.731 349.024C358.582 349.085 358.451 349.183 358.339 349.318C358.227 349.453 358.139 349.631 358.073 349.85C358.013 350.065 357.982 350.326 357.982 350.634C357.982 350.937 358.013 351.194 358.073 351.404C358.139 351.614 358.227 351.787 358.339 351.922C358.451 352.053 358.582 352.148 358.731 352.209C358.885 352.265 359.049 352.293 359.221 352.293C359.394 352.293 359.557 352.265 359.711 352.209C359.865 352.148 359.998 352.053 360.11 351.922C360.227 351.787 360.318 351.614 360.383 351.404C360.449 351.194 360.481 350.937 360.481 350.634ZM370.225 345.797C370.743 345.797 371.209 345.883 371.625 346.056C372.04 346.229 372.395 346.474 372.689 346.791C372.983 347.108 373.207 347.493 373.361 347.946C373.519 348.394 373.599 348.896 373.599 349.451C373.599 350.011 373.519 350.515 373.361 350.963C373.207 351.411 372.983 351.794 372.689 352.111C372.395 352.428 372.04 352.673 371.625 352.846C371.209 353.014 370.743 353.098 370.225 353.098C369.702 353.098 369.231 353.014 368.811 352.846C368.395 352.673 368.041 352.428 367.747 352.111C367.453 351.794 367.226 351.411 367.068 350.963C366.914 350.515 366.837 350.011 366.837 349.451C366.837 348.896 366.914 348.394 367.068 347.946C367.226 347.493 367.453 347.108 367.747 346.791C368.041 346.474 368.395 346.229 368.811 346.056C369.231 345.883 369.702 345.797 370.225 345.797ZM370.225 352.125C370.925 352.125 371.447 351.892 371.793 351.425C372.138 350.954 372.311 350.298 372.311 349.458C372.311 348.613 372.138 347.955 371.793 347.484C371.447 347.013 370.925 346.777 370.225 346.777C369.87 346.777 369.56 346.838 369.294 346.959C369.032 347.08 368.813 347.255 368.636 347.484C368.463 347.713 368.332 347.995 368.244 348.331C368.16 348.662 368.118 349.038 368.118 349.458C368.118 350.298 368.29 350.954 368.636 351.425C368.986 351.892 369.515 352.125 370.225 352.125ZM375.791 353V346.973L375.007 346.882C374.909 346.859 374.827 346.824 374.762 346.777C374.701 346.726 374.671 346.653 374.671 346.56V346.049H375.791V345.363C375.791 344.957 375.847 344.598 375.959 344.285C376.075 343.968 376.239 343.702 376.449 343.487C376.663 343.268 376.92 343.102 377.219 342.99C377.517 342.878 377.853 342.822 378.227 342.822C378.544 342.822 378.836 342.869 379.102 342.962L379.074 343.585C379.064 343.697 379.001 343.758 378.885 343.767C378.773 343.776 378.621 343.781 378.43 343.781C378.215 343.781 378.019 343.809 377.842 343.865C377.669 343.921 377.52 344.012 377.394 344.138C377.268 344.264 377.17 344.43 377.1 344.635C377.034 344.84 377.002 345.095 377.002 345.398V346.049H379.046V346.952H377.044V353H375.791ZM385.475 345.909V353.525C385.475 353.81 385.438 354.073 385.363 354.316C385.289 354.563 385.17 354.778 385.006 354.96C384.843 355.142 384.633 355.284 384.376 355.387C384.124 355.494 383.821 355.548 383.466 355.548C383.317 355.548 383.179 355.536 383.053 355.513C382.927 355.49 382.801 355.455 382.675 355.408L382.724 354.736C382.734 354.694 382.75 354.661 382.773 354.638C382.792 354.619 382.82 354.608 382.857 354.603C382.895 354.598 382.944 354.596 383.004 354.596C383.06 354.601 383.133 354.603 383.221 354.603C383.585 354.603 383.844 354.517 383.998 354.344C384.152 354.176 384.229 353.903 384.229 353.525V345.909H385.475ZM385.734 343.683C385.734 343.804 385.709 343.919 385.657 344.026C385.611 344.129 385.545 344.222 385.461 344.306C385.382 344.385 385.289 344.448 385.181 344.495C385.074 344.542 384.96 344.565 384.838 344.565C384.717 344.565 384.603 344.542 384.495 344.495C384.393 344.448 384.302 344.385 384.222 344.306C384.143 344.222 384.08 344.129 384.033 344.026C383.987 343.919 383.963 343.804 383.963 343.683C383.963 343.562 383.987 343.447 384.033 343.34C384.08 343.228 384.143 343.132 384.222 343.053C384.302 342.969 384.393 342.904 384.495 342.857C384.603 342.81 384.717 342.787 384.838 342.787C384.96 342.787 385.074 342.81 385.181 342.857C385.289 342.904 385.382 342.969 385.461 343.053C385.545 343.132 385.611 343.228 385.657 343.34C385.709 343.447 385.734 343.562 385.734 343.683Z" fill="black"/>
</svg>
