<svg width="1204" height="678" viewBox="0 0 1204 678" fill="none" xmlns="http://www.w3.org/2000/svg">
<rect width="1204" height="677.25" fill="white"/>
<rect x="208.5" y="264.5" width="731" height="49" stroke="#D8D8D8"/>
<rect x="412.5" y="319.5" width="527" height="38" stroke="#D8D8D8"/>
<rect x="208.5" y="364.5" width="731" height="49" stroke="#D8D8D8"/>
<rect x="208.5" y="413.5" width="149" height="49" transform="rotate(-90 208.5 413.5)" stroke="#D8D8D8"/>
<rect x="890.5" y="413.5" width="149" height="49" transform="rotate(-90 890.5 413.5)" stroke="#D8D8D8"/>
<rect x="342.5" y="413.5" width="149" height="39" transform="rotate(-90 342.5 413.5)" stroke="#D8D8D8"/>
<path d="M281.862 360.176C285.076 360.176 287.682 357.581 287.682 354.379C287.682 351.178 285.076 348.583 281.862 348.583C278.648 348.583 276.042 351.178 276.042 354.379C276.042 357.581 278.648 360.176 281.862 360.176Z" fill="#41A5DD"/>
<path fill-rule="evenodd" clip-rule="evenodd" d="M327.492 318.019C326.289 314.618 324.077 314 321.555 314H318.917C318.684 314 318.451 314 318.218 314.039H264.208C260.794 314.039 258 316.821 258 320.221V357.818C258 361.218 260.794 364 264.208 364H303.241V363.961H303.358C305.996 363.961 307.51 363.073 308.285 360.948L311.195 352.91H328.966L331.799 360.948C332.613 363.073 334.359 363.961 336.765 363.961C339.598 363.961 341.926 361.836 341.926 359.131C341.926 357.934 341.266 356.002 340.839 354.92L327.492 318.019ZM281.862 361.952C277.943 361.952 274.723 358.784 274.723 354.842C274.723 350.94 277.905 347.733 281.862 347.733C285.781 347.733 289.002 350.901 289.002 354.842C288.963 358.784 285.781 361.952 281.862 361.952ZM296.956 355.383H290.398C290.398 353.992 289.816 346.264 281.668 346.264C273.52 346.264 273.171 355.46 273.171 355.46H271.425C271.425 355.46 266.342 353.413 265.294 352.872C264.247 352.292 264.13 349.433 264.13 349.433V346.921H265.023V344.371C265.45 338.961 278.758 334.093 278.758 334.093C278.758 334.093 289.933 323.119 291.679 321.573C295.443 318.289 310.691 319.023 310.691 319.023L296.956 355.383ZM313.562 345.298L320.081 325.94H320.197L326.444 345.298H313.562Z" fill="#41A5DD"/>
<path fill-rule="evenodd" clip-rule="evenodd" d="M274.025 340.16C273.559 340.044 271.852 340.044 271.115 340.005C270.882 340.005 270.649 340.083 270.494 340.237C270.145 340.508 269.602 341.049 269.097 341.706C268.515 342.478 268.088 343.444 267.817 344.063C267.623 344.565 268.166 344.604 268.166 344.604L269.446 344.874C269.602 344.913 269.757 344.874 269.873 344.758L274.141 341.049C274.102 341.049 274.723 340.315 274.025 340.16Z" fill="#41A5DD"/>
<path fill-rule="evenodd" clip-rule="evenodd" d="M302.854 321.806C302.272 321.806 296.878 322.386 295.831 322.579C294.783 322.772 293.231 323.97 293.231 323.97L286.596 331.273V335.175L300.642 332.471C300.642 332.471 302.465 332.123 302.737 329.804C303.009 327.486 303.591 322.54 303.591 322.54C303.591 322.54 303.436 321.806 302.854 321.806Z" fill="#41A5DD"/>
<line x1="950" y1="264.5" x2="964" y2="264.5" stroke="black"/>
<line x1="950" y1="313.5" x2="964" y2="313.5" stroke="black"/>
<line x1="963.5" y1="314" x2="963.5" y2="265" stroke="black"/>
<line x1="950" y1="318.5" x2="964" y2="318.5" stroke="black"/>
<line x1="950" y1="357.5" x2="964" y2="357.5" stroke="black"/>
<line x1="963.5" y1="358" x2="963.5" y2="319" stroke="black"/>
<line x1="258.5" y1="424" x2="258.5" y2="438" stroke="black"/>
<line x1="208.5" y1="424" x2="208.5" y2="438" stroke="black"/>
<line x1="208" y1="437.5" x2="258" y2="437.5" stroke="black"/>
<path d="M981.126 294.048V295H975.75V294.048H977.899V287.209C977.899 287.004 977.906 286.796 977.92 286.586L976.135 288.119C976.074 288.17 976.014 288.203 975.953 288.217C975.892 288.226 975.836 288.226 975.785 288.217C975.734 288.208 975.685 288.189 975.638 288.161C975.596 288.133 975.563 288.103 975.54 288.07L975.148 287.531L978.137 284.948H979.152V294.048H981.126ZM990.121 289.988C990.121 290.865 990.025 291.626 989.834 292.27C989.647 292.909 989.391 293.439 989.064 293.859C988.737 294.279 988.35 294.592 987.902 294.797C987.459 295.002 986.983 295.105 986.474 295.105C985.961 295.105 985.482 295.002 985.039 294.797C984.6 294.592 984.218 294.279 983.891 293.859C983.564 293.439 983.308 292.909 983.121 292.27C982.934 291.626 982.841 290.865 982.841 289.988C982.841 289.111 982.934 288.35 983.121 287.706C983.308 287.062 983.564 286.53 983.891 286.11C984.218 285.685 984.6 285.37 985.039 285.165C985.482 284.96 985.961 284.857 986.474 284.857C986.983 284.857 987.459 284.96 987.902 285.165C988.35 285.37 988.737 285.685 989.064 286.11C989.391 286.53 989.647 287.062 989.834 287.706C990.025 288.35 990.121 289.111 990.121 289.988ZM988.826 289.988C988.826 289.223 988.761 288.581 988.63 288.063C988.504 287.54 988.331 287.12 988.112 286.803C987.897 286.486 987.648 286.259 987.363 286.124C987.078 285.984 986.782 285.914 986.474 285.914C986.166 285.914 985.87 285.984 985.585 286.124C985.3 286.259 985.051 286.486 984.836 286.803C984.621 287.12 984.449 287.54 984.318 288.063C984.192 288.581 984.129 289.223 984.129 289.988C984.129 290.753 984.192 291.395 984.318 291.913C984.449 292.431 984.621 292.849 984.836 293.166C985.051 293.483 985.3 293.712 985.585 293.852C985.87 293.987 986.166 294.055 986.474 294.055C986.782 294.055 987.078 293.987 987.363 293.852C987.648 293.712 987.897 293.483 988.112 293.166C988.331 292.849 988.504 292.431 988.63 291.913C988.761 291.395 988.826 290.753 988.826 289.988ZM998.542 289.988C998.542 290.865 998.447 291.626 998.255 292.27C998.069 292.909 997.812 293.439 997.485 293.859C997.159 294.279 996.771 294.592 996.323 294.797C995.88 295.002 995.404 295.105 994.895 295.105C994.382 295.105 993.904 295.002 993.46 294.797C993.022 294.592 992.639 294.279 992.312 293.859C991.986 293.439 991.729 292.909 991.542 292.27C991.356 291.626 991.262 290.865 991.262 289.988C991.262 289.111 991.356 288.35 991.542 287.706C991.729 287.062 991.986 286.53 992.312 286.11C992.639 285.685 993.022 285.37 993.46 285.165C993.904 284.96 994.382 284.857 994.895 284.857C995.404 284.857 995.88 284.96 996.323 285.165C996.771 285.37 997.159 285.685 997.485 286.11C997.812 286.53 998.069 287.062 998.255 287.706C998.447 288.35 998.542 289.111 998.542 289.988ZM997.247 289.988C997.247 289.223 997.182 288.581 997.051 288.063C996.925 287.54 996.753 287.12 996.533 286.803C996.319 286.486 996.069 286.259 995.784 286.124C995.5 285.984 995.203 285.914 994.895 285.914C994.587 285.914 994.291 285.984 994.006 286.124C993.722 286.259 993.472 286.486 993.257 286.803C993.043 287.12 992.87 287.54 992.739 288.063C992.613 288.581 992.55 289.223 992.55 289.988C992.55 290.753 992.613 291.395 992.739 291.913C992.87 292.431 993.043 292.849 993.257 293.166C993.472 293.483 993.722 293.712 994.006 293.852C994.291 293.987 994.587 294.055 994.895 294.055C995.203 294.055 995.5 293.987 995.784 293.852C996.069 293.712 996.319 293.483 996.533 293.166C996.753 292.849 996.925 292.431 997.051 291.913C997.182 291.395 997.247 290.753 997.247 289.988ZM1004.32 287.391C1004.32 287.783 1004.26 288.135 1004.14 288.448C1004.01 288.756 1003.85 289.017 1003.65 289.232C1003.44 289.442 1003.21 289.603 1002.94 289.715C1002.67 289.827 1002.39 289.883 1002.09 289.883C1001.78 289.883 1001.49 289.827 1001.22 289.715C1000.95 289.603 1000.71 289.442 1000.51 289.232C1000.31 289.017 1000.16 288.756 1000.05 288.448C999.935 288.135 999.879 287.783 999.879 287.391C999.879 286.99 999.935 286.633 1000.05 286.32C1000.16 286.007 1000.31 285.744 1000.51 285.529C1000.71 285.314 1000.95 285.151 1001.22 285.039C1001.49 284.927 1001.78 284.871 1002.09 284.871C1002.41 284.871 1002.7 284.927 1002.97 285.039C1003.24 285.151 1003.48 285.314 1003.68 285.529C1003.88 285.744 1004.04 286.007 1004.15 286.32C1004.26 286.633 1004.32 286.99 1004.32 287.391ZM1003.35 287.391C1003.35 287.083 1003.32 286.822 1003.25 286.607C1003.19 286.392 1003.1 286.217 1002.98 286.082C1002.87 285.942 1002.74 285.842 1002.58 285.781C1002.43 285.72 1002.26 285.69 1002.09 285.69C1001.92 285.69 1001.76 285.72 1001.61 285.781C1001.46 285.842 1001.33 285.942 1001.22 286.082C1001.1 286.217 1001.02 286.392 1000.95 286.607C1000.88 286.822 1000.85 287.083 1000.85 287.391C1000.85 287.694 1000.88 287.953 1000.95 288.168C1001.02 288.378 1001.1 288.551 1001.22 288.686C1001.33 288.817 1001.46 288.912 1001.61 288.973C1001.76 289.029 1001.92 289.057 1002.09 289.057C1002.26 289.057 1002.43 289.029 1002.58 288.973C1002.74 288.912 1002.87 288.817 1002.98 288.686C1003.1 288.551 1003.19 288.378 1003.25 288.168C1003.32 287.953 1003.35 287.694 1003.35 287.391ZM1007.87 285.179C1007.91 285.123 1007.97 285.074 1008.03 285.032C1008.09 284.99 1008.18 284.969 1008.29 284.969H1009.19L1001.85 294.797C1001.81 294.858 1001.76 294.907 1001.69 294.944C1001.63 294.981 1001.55 295 1001.45 295H1000.54L1007.87 285.179ZM1009.87 292.634C1009.87 293.026 1009.81 293.376 1009.69 293.684C1009.56 293.992 1009.4 294.253 1009.2 294.468C1009 294.678 1008.76 294.839 1008.49 294.951C1008.22 295.063 1007.94 295.119 1007.64 295.119C1007.32 295.119 1007.03 295.063 1006.76 294.951C1006.49 294.839 1006.26 294.678 1006.06 294.468C1005.86 294.253 1005.71 293.992 1005.6 293.684C1005.49 293.376 1005.43 293.026 1005.43 292.634C1005.43 292.233 1005.49 291.876 1005.6 291.563C1005.71 291.246 1005.86 290.98 1006.06 290.765C1006.26 290.55 1006.49 290.387 1006.76 290.275C1007.03 290.163 1007.32 290.107 1007.64 290.107C1007.95 290.107 1008.25 290.163 1008.52 290.275C1008.79 290.387 1009.03 290.55 1009.22 290.765C1009.42 290.98 1009.58 291.246 1009.69 291.563C1009.81 291.876 1009.87 292.233 1009.87 292.634ZM1008.9 292.634C1008.9 292.326 1008.87 292.065 1008.8 291.85C1008.74 291.631 1008.65 291.453 1008.53 291.318C1008.42 291.183 1008.29 291.085 1008.13 291.024C1007.98 290.963 1007.81 290.933 1007.64 290.933C1007.47 290.933 1007.31 290.963 1007.15 291.024C1007 291.085 1006.87 291.183 1006.76 291.318C1006.65 291.453 1006.56 291.631 1006.49 291.85C1006.43 292.065 1006.4 292.326 1006.4 292.634C1006.4 292.937 1006.43 293.194 1006.49 293.404C1006.56 293.614 1006.65 293.787 1006.76 293.922C1006.87 294.053 1007 294.148 1007.15 294.209C1007.31 294.265 1007.47 294.293 1007.64 294.293C1007.81 294.293 1007.98 294.265 1008.13 294.209C1008.29 294.148 1008.42 294.053 1008.53 293.922C1008.65 293.787 1008.74 293.614 1008.8 293.404C1008.87 293.194 1008.9 292.937 1008.9 292.634ZM1018.65 287.797C1019.16 287.797 1019.63 287.883 1020.05 288.056C1020.46 288.229 1020.82 288.474 1021.11 288.791C1021.4 289.108 1021.63 289.493 1021.78 289.946C1021.94 290.394 1022.02 290.896 1022.02 291.451C1022.02 292.011 1021.94 292.515 1021.78 292.963C1021.63 293.411 1021.4 293.794 1021.11 294.111C1020.82 294.428 1020.46 294.673 1020.05 294.846C1019.63 295.014 1019.16 295.098 1018.65 295.098C1018.12 295.098 1017.65 295.014 1017.23 294.846C1016.82 294.673 1016.46 294.428 1016.17 294.111C1015.87 293.794 1015.65 293.411 1015.49 292.963C1015.33 292.515 1015.26 292.011 1015.26 291.451C1015.26 290.896 1015.33 290.394 1015.49 289.946C1015.65 289.493 1015.87 289.108 1016.17 288.791C1016.46 288.474 1016.82 288.229 1017.23 288.056C1017.65 287.883 1018.12 287.797 1018.65 287.797ZM1018.65 294.125C1019.35 294.125 1019.87 293.892 1020.21 293.425C1020.56 292.954 1020.73 292.298 1020.73 291.458C1020.73 290.613 1020.56 289.955 1020.21 289.484C1019.87 289.013 1019.35 288.777 1018.65 288.777C1018.29 288.777 1017.98 288.838 1017.71 288.959C1017.45 289.08 1017.23 289.255 1017.06 289.484C1016.88 289.713 1016.75 289.995 1016.66 290.331C1016.58 290.662 1016.54 291.038 1016.54 291.458C1016.54 292.298 1016.71 292.954 1017.06 293.425C1017.41 293.892 1017.94 294.125 1018.65 294.125ZM1024.21 295V288.973L1023.43 288.882C1023.33 288.859 1023.25 288.824 1023.18 288.777C1023.12 288.726 1023.09 288.653 1023.09 288.56V288.049H1024.21V287.363C1024.21 286.957 1024.27 286.598 1024.38 286.285C1024.5 285.968 1024.66 285.702 1024.87 285.487C1025.08 285.268 1025.34 285.102 1025.64 284.99C1025.94 284.878 1026.27 284.822 1026.65 284.822C1026.97 284.822 1027.26 284.869 1027.52 284.962L1027.49 285.585C1027.49 285.697 1027.42 285.758 1027.31 285.767C1027.19 285.776 1027.04 285.781 1026.85 285.781C1026.64 285.781 1026.44 285.809 1026.26 285.865C1026.09 285.921 1025.94 286.012 1025.81 286.138C1025.69 286.264 1025.59 286.43 1025.52 286.635C1025.46 286.84 1025.42 287.095 1025.42 287.398V288.049H1027.47V288.952H1025.46V295H1024.21ZM1033.9 287.909V295.525C1033.9 295.81 1033.86 296.073 1033.78 296.316C1033.71 296.563 1033.59 296.778 1033.43 296.96C1033.26 297.142 1033.05 297.284 1032.8 297.387C1032.55 297.494 1032.24 297.548 1031.89 297.548C1031.74 297.548 1031.6 297.536 1031.47 297.513C1031.35 297.49 1031.22 297.455 1031.1 297.408L1031.15 296.736C1031.15 296.694 1031.17 296.661 1031.19 296.638C1031.21 296.619 1031.24 296.608 1031.28 296.603C1031.32 296.598 1031.36 296.596 1031.43 296.596C1031.48 296.601 1031.55 296.603 1031.64 296.603C1032.01 296.603 1032.27 296.517 1032.42 296.344C1032.57 296.176 1032.65 295.903 1032.65 295.525V287.909H1033.9ZM1034.16 285.683C1034.16 285.804 1034.13 285.919 1034.08 286.026C1034.03 286.129 1033.97 286.222 1033.88 286.306C1033.8 286.385 1033.71 286.448 1033.6 286.495C1033.5 286.542 1033.38 286.565 1033.26 286.565C1033.14 286.565 1033.02 286.542 1032.92 286.495C1032.81 286.448 1032.72 286.385 1032.64 286.306C1032.56 286.222 1032.5 286.129 1032.45 286.026C1032.41 285.919 1032.38 285.804 1032.38 285.683C1032.38 285.562 1032.41 285.447 1032.45 285.34C1032.5 285.228 1032.56 285.132 1032.64 285.053C1032.72 284.969 1032.81 284.904 1032.92 284.857C1033.02 284.81 1033.14 284.787 1033.26 284.787C1033.38 284.787 1033.5 284.81 1033.6 284.857C1033.71 284.904 1033.8 284.969 1033.88 285.053C1033.97 285.132 1034.03 285.228 1034.08 285.34C1034.13 285.447 1034.16 285.562 1034.16 285.683Z" fill="black"/>
<path d="M978.06 343.118C978.387 343.118 978.678 343.074 978.935 342.985C979.196 342.892 979.416 342.763 979.593 342.6C979.775 342.432 979.913 342.234 980.006 342.005C980.104 341.772 980.153 341.515 980.153 341.235C980.153 340.89 980.095 340.596 979.978 340.353C979.866 340.106 979.712 339.905 979.516 339.751C979.325 339.597 979.103 339.485 978.851 339.415C978.599 339.34 978.335 339.303 978.06 339.303C977.785 339.303 977.521 339.34 977.269 339.415C977.017 339.485 976.793 339.597 976.597 339.751C976.406 339.905 976.252 340.106 976.135 340.353C976.023 340.596 975.967 340.89 975.967 341.235C975.967 341.515 976.014 341.772 976.107 342.005C976.205 342.234 976.343 342.432 976.52 342.6C976.702 342.763 976.921 342.892 977.178 342.985C977.439 343.074 977.733 343.118 978.06 343.118ZM978.06 334.823C977.761 334.823 977.498 334.867 977.269 334.956C977.045 335.045 976.856 335.166 976.702 335.32C976.553 335.474 976.438 335.654 976.359 335.859C976.284 336.064 976.247 336.284 976.247 336.517C976.247 336.746 976.28 336.967 976.345 337.182C976.41 337.397 976.515 337.588 976.66 337.756C976.805 337.919 976.991 338.052 977.22 338.155C977.453 338.253 977.733 338.302 978.06 338.302C978.387 338.302 978.664 338.253 978.893 338.155C979.126 338.052 979.315 337.919 979.46 337.756C979.605 337.588 979.71 337.397 979.775 337.182C979.84 336.967 979.873 336.746 979.873 336.517C979.873 336.284 979.833 336.064 979.754 335.859C979.679 335.654 979.565 335.474 979.411 335.32C979.262 335.166 979.073 335.045 978.844 334.956C978.62 334.867 978.359 334.823 978.06 334.823ZM979.495 338.771C980.12 338.948 980.601 339.245 980.937 339.66C981.273 340.075 981.441 340.607 981.441 341.256C981.441 341.695 981.357 342.091 981.189 342.446C981.026 342.796 980.795 343.095 980.496 343.342C980.202 343.589 979.847 343.781 979.432 343.916C979.017 344.047 978.559 344.112 978.06 344.112C977.561 344.112 977.103 344.047 976.688 343.916C976.273 343.781 975.916 343.589 975.617 343.342C975.318 343.095 975.087 342.796 974.924 342.446C974.761 342.091 974.679 341.695 974.679 341.256C974.679 340.607 974.847 340.075 975.183 339.66C975.519 339.245 976 338.948 976.625 338.771C976.098 338.575 975.699 338.283 975.428 337.896C975.162 337.504 975.029 337.037 975.029 336.496C975.029 336.127 975.101 335.782 975.246 335.46C975.391 335.138 975.596 334.858 975.862 334.62C976.128 334.382 976.445 334.195 976.814 334.06C977.187 333.925 977.603 333.857 978.06 333.857C978.513 333.857 978.926 333.925 979.299 334.06C979.672 334.195 979.992 334.382 980.258 334.62C980.524 334.858 980.729 335.138 980.874 335.46C981.019 335.782 981.091 336.127 981.091 336.496C981.091 337.037 980.956 337.504 980.685 337.896C980.419 338.283 980.022 338.575 979.495 338.771ZM990.121 338.988C990.121 339.865 990.025 340.626 989.834 341.27C989.647 341.909 989.391 342.439 989.064 342.859C988.737 343.279 988.35 343.592 987.902 343.797C987.459 344.002 986.983 344.105 986.474 344.105C985.961 344.105 985.482 344.002 985.039 343.797C984.6 343.592 984.218 343.279 983.891 342.859C983.564 342.439 983.308 341.909 983.121 341.27C982.934 340.626 982.841 339.865 982.841 338.988C982.841 338.111 982.934 337.35 983.121 336.706C983.308 336.062 983.564 335.53 983.891 335.11C984.218 334.685 984.6 334.37 985.039 334.165C985.482 333.96 985.961 333.857 986.474 333.857C986.983 333.857 987.459 333.96 987.902 334.165C988.35 334.37 988.737 334.685 989.064 335.11C989.391 335.53 989.647 336.062 989.834 336.706C990.025 337.35 990.121 338.111 990.121 338.988ZM988.826 338.988C988.826 338.223 988.761 337.581 988.63 337.063C988.504 336.54 988.331 336.12 988.112 335.803C987.897 335.486 987.648 335.259 987.363 335.124C987.078 334.984 986.782 334.914 986.474 334.914C986.166 334.914 985.87 334.984 985.585 335.124C985.3 335.259 985.051 335.486 984.836 335.803C984.621 336.12 984.449 336.54 984.318 337.063C984.192 337.581 984.129 338.223 984.129 338.988C984.129 339.753 984.192 340.395 984.318 340.913C984.449 341.431 984.621 341.849 984.836 342.166C985.051 342.483 985.3 342.712 985.585 342.852C985.87 342.987 986.166 343.055 986.474 343.055C986.782 343.055 987.078 342.987 987.363 342.852C987.648 342.712 987.897 342.483 988.112 342.166C988.331 341.849 988.504 341.431 988.63 340.913C988.761 340.395 988.826 339.753 988.826 338.988ZM995.896 336.391C995.896 336.783 995.836 337.135 995.714 337.448C995.593 337.756 995.43 338.017 995.224 338.232C995.024 338.442 994.788 338.603 994.517 338.715C994.251 338.827 993.969 338.883 993.67 338.883C993.358 338.883 993.066 338.827 992.795 338.715C992.525 338.603 992.289 338.442 992.088 338.232C991.892 338.017 991.738 337.756 991.626 337.448C991.514 337.135 991.458 336.783 991.458 336.391C991.458 335.99 991.514 335.633 991.626 335.32C991.738 335.007 991.892 334.744 992.088 334.529C992.289 334.314 992.525 334.151 992.795 334.039C993.066 333.927 993.358 333.871 993.67 333.871C993.988 333.871 994.282 333.927 994.552 334.039C994.823 334.151 995.059 334.314 995.259 334.529C995.46 334.744 995.616 335.007 995.728 335.32C995.84 335.633 995.896 335.99 995.896 336.391ZM994.93 336.391C994.93 336.083 994.898 335.822 994.832 335.607C994.767 335.392 994.676 335.217 994.559 335.082C994.447 334.942 994.314 334.842 994.16 334.781C994.006 334.72 993.843 334.69 993.67 334.69C993.498 334.69 993.337 334.72 993.187 334.781C993.038 334.842 992.907 334.942 992.795 335.082C992.683 335.217 992.595 335.392 992.529 335.607C992.464 335.822 992.431 336.083 992.431 336.391C992.431 336.694 992.464 336.953 992.529 337.168C992.595 337.378 992.683 337.551 992.795 337.686C992.907 337.817 993.038 337.912 993.187 337.973C993.337 338.029 993.498 338.057 993.67 338.057C993.843 338.057 994.006 338.029 994.16 337.973C994.314 337.912 994.447 337.817 994.559 337.686C994.676 337.551 994.767 337.378 994.832 337.168C994.898 336.953 994.93 336.694 994.93 336.391ZM999.445 334.179C999.492 334.123 999.546 334.074 999.606 334.032C999.672 333.99 999.758 333.969 999.865 333.969H1000.77L993.432 343.797C993.39 343.858 993.337 343.907 993.271 343.944C993.206 343.981 993.127 344 993.033 344H992.116L999.445 334.179ZM1001.45 341.634C1001.45 342.026 1001.39 342.376 1001.27 342.684C1001.14 342.992 1000.98 343.253 1000.78 343.468C1000.57 343.678 1000.34 343.839 1000.07 343.951C999.802 344.063 999.52 344.119 999.221 344.119C998.904 344.119 998.61 344.063 998.339 343.951C998.073 343.839 997.84 343.678 997.639 343.468C997.443 343.253 997.289 342.992 997.177 342.684C997.065 342.376 997.009 342.026 997.009 341.634C997.009 341.233 997.065 340.876 997.177 340.563C997.289 340.246 997.443 339.98 997.639 339.765C997.84 339.55 998.073 339.387 998.339 339.275C998.61 339.163 998.904 339.107 999.221 339.107C999.534 339.107 999.826 339.163 1000.1 339.275C1000.37 339.387 1000.61 339.55 1000.8 339.765C1001 339.98 1001.16 340.246 1001.27 340.563C1001.39 340.876 1001.45 341.233 1001.45 341.634ZM1000.48 341.634C1000.48 341.326 1000.45 341.065 1000.38 340.85C1000.32 340.631 1000.23 340.453 1000.11 340.318C999.998 340.183 999.865 340.085 999.711 340.024C999.557 339.963 999.394 339.933 999.221 339.933C999.049 339.933 998.885 339.963 998.731 340.024C998.582 340.085 998.451 340.183 998.339 340.318C998.227 340.453 998.139 340.631 998.073 340.85C998.013 341.065 997.982 341.326 997.982 341.634C997.982 341.937 998.013 342.194 998.073 342.404C998.139 342.614 998.227 342.787 998.339 342.922C998.451 343.053 998.582 343.148 998.731 343.209C998.885 343.265 999.049 343.293 999.221 343.293C999.394 343.293 999.557 343.265 999.711 343.209C999.865 343.148 999.998 343.053 1000.11 342.922C1000.23 342.787 1000.32 342.614 1000.38 342.404C1000.45 342.194 1000.48 341.937 1000.48 341.634ZM1010.22 336.797C1010.74 336.797 1011.21 336.883 1011.62 337.056C1012.04 337.229 1012.39 337.474 1012.69 337.791C1012.98 338.108 1013.21 338.493 1013.36 338.946C1013.52 339.394 1013.6 339.896 1013.6 340.451C1013.6 341.011 1013.52 341.515 1013.36 341.963C1013.21 342.411 1012.98 342.794 1012.69 343.111C1012.39 343.428 1012.04 343.673 1011.62 343.846C1011.21 344.014 1010.74 344.098 1010.22 344.098C1009.7 344.098 1009.23 344.014 1008.81 343.846C1008.4 343.673 1008.04 343.428 1007.75 343.111C1007.45 342.794 1007.23 342.411 1007.07 341.963C1006.91 341.515 1006.84 341.011 1006.84 340.451C1006.84 339.896 1006.91 339.394 1007.07 338.946C1007.23 338.493 1007.45 338.108 1007.75 337.791C1008.04 337.474 1008.4 337.229 1008.81 337.056C1009.23 336.883 1009.7 336.797 1010.22 336.797ZM1010.22 343.125C1010.92 343.125 1011.45 342.892 1011.79 342.425C1012.14 341.954 1012.31 341.298 1012.31 340.458C1012.31 339.613 1012.14 338.955 1011.79 338.484C1011.45 338.013 1010.92 337.777 1010.22 337.777C1009.87 337.777 1009.56 337.838 1009.29 337.959C1009.03 338.08 1008.81 338.255 1008.64 338.484C1008.46 338.713 1008.33 338.995 1008.24 339.331C1008.16 339.662 1008.12 340.038 1008.12 340.458C1008.12 341.298 1008.29 341.954 1008.64 342.425C1008.99 342.892 1009.52 343.125 1010.22 343.125ZM1015.79 344V337.973L1015.01 337.882C1014.91 337.859 1014.83 337.824 1014.76 337.777C1014.7 337.726 1014.67 337.653 1014.67 337.56V337.049H1015.79V336.363C1015.79 335.957 1015.85 335.598 1015.96 335.285C1016.08 334.968 1016.24 334.702 1016.45 334.487C1016.66 334.268 1016.92 334.102 1017.22 333.99C1017.52 333.878 1017.85 333.822 1018.23 333.822C1018.54 333.822 1018.84 333.869 1019.1 333.962L1019.07 334.585C1019.06 334.697 1019 334.758 1018.88 334.767C1018.77 334.776 1018.62 334.781 1018.43 334.781C1018.22 334.781 1018.02 334.809 1017.84 334.865C1017.67 334.921 1017.52 335.012 1017.39 335.138C1017.27 335.264 1017.17 335.43 1017.1 335.635C1017.03 335.84 1017 336.095 1017 336.398V337.049H1019.05V337.952H1017.04V344H1015.79ZM1025.48 336.909V344.525C1025.48 344.81 1025.44 345.073 1025.36 345.316C1025.29 345.563 1025.17 345.778 1025.01 345.96C1024.84 346.142 1024.63 346.284 1024.38 346.387C1024.12 346.494 1023.82 346.548 1023.47 346.548C1023.32 346.548 1023.18 346.536 1023.05 346.513C1022.93 346.49 1022.8 346.455 1022.68 346.408L1022.72 345.736C1022.73 345.694 1022.75 345.661 1022.77 345.638C1022.79 345.619 1022.82 345.608 1022.86 345.603C1022.89 345.598 1022.94 345.596 1023 345.596C1023.06 345.601 1023.13 345.603 1023.22 345.603C1023.59 345.603 1023.84 345.517 1024 345.344C1024.15 345.176 1024.23 344.903 1024.23 344.525V336.909H1025.48ZM1025.73 334.683C1025.73 334.804 1025.71 334.919 1025.66 335.026C1025.61 335.129 1025.55 335.222 1025.46 335.306C1025.38 335.385 1025.29 335.448 1025.18 335.495C1025.07 335.542 1024.96 335.565 1024.84 335.565C1024.72 335.565 1024.6 335.542 1024.5 335.495C1024.39 335.448 1024.3 335.385 1024.22 335.306C1024.14 335.222 1024.08 335.129 1024.03 335.026C1023.99 334.919 1023.96 334.804 1023.96 334.683C1023.96 334.562 1023.99 334.447 1024.03 334.34C1024.08 334.228 1024.14 334.132 1024.22 334.053C1024.3 333.969 1024.39 333.904 1024.5 333.857C1024.6 333.81 1024.72 333.787 1024.84 333.787C1024.96 333.787 1025.07 333.81 1025.18 333.857C1025.29 333.904 1025.38 333.969 1025.46 334.053C1025.55 334.132 1025.61 334.228 1025.66 334.34C1025.71 334.447 1025.73 334.562 1025.73 334.683Z" fill="black"/>
<line x1="341.5" y1="254" x2="341.5" y2="240" stroke="black"/>
<line x1="381.5" y1="254" x2="381.5" y2="240" stroke="black"/>
<line x1="382" y1="240.5" x2="342" y2="240.5" stroke="black"/>
<path d="M339.06 226.118C339.387 226.118 339.678 226.074 339.935 225.985C340.196 225.892 340.416 225.763 340.593 225.6C340.775 225.432 340.913 225.234 341.006 225.005C341.104 224.772 341.153 224.515 341.153 224.235C341.153 223.89 341.095 223.596 340.978 223.353C340.866 223.106 340.712 222.905 340.516 222.751C340.325 222.597 340.103 222.485 339.851 222.415C339.599 222.34 339.335 222.303 339.06 222.303C338.785 222.303 338.521 222.34 338.269 222.415C338.017 222.485 337.793 222.597 337.597 222.751C337.406 222.905 337.252 223.106 337.135 223.353C337.023 223.596 336.967 223.89 336.967 224.235C336.967 224.515 337.014 224.772 337.107 225.005C337.205 225.234 337.343 225.432 337.52 225.6C337.702 225.763 337.921 225.892 338.178 225.985C338.439 226.074 338.733 226.118 339.06 226.118ZM339.06 217.823C338.761 217.823 338.498 217.867 338.269 217.956C338.045 218.045 337.856 218.166 337.702 218.32C337.553 218.474 337.438 218.654 337.359 218.859C337.284 219.064 337.247 219.284 337.247 219.517C337.247 219.746 337.28 219.967 337.345 220.182C337.41 220.397 337.515 220.588 337.66 220.756C337.805 220.919 337.991 221.052 338.22 221.155C338.453 221.253 338.733 221.302 339.06 221.302C339.387 221.302 339.664 221.253 339.893 221.155C340.126 221.052 340.315 220.919 340.46 220.756C340.605 220.588 340.71 220.397 340.775 220.182C340.84 219.967 340.873 219.746 340.873 219.517C340.873 219.284 340.833 219.064 340.754 218.859C340.679 218.654 340.565 218.474 340.411 218.32C340.262 218.166 340.073 218.045 339.844 217.956C339.62 217.867 339.359 217.823 339.06 217.823ZM340.495 221.771C341.12 221.948 341.601 222.245 341.937 222.66C342.273 223.075 342.441 223.607 342.441 224.256C342.441 224.695 342.357 225.091 342.189 225.446C342.026 225.796 341.795 226.095 341.496 226.342C341.202 226.589 340.847 226.781 340.432 226.916C340.017 227.047 339.559 227.112 339.06 227.112C338.561 227.112 338.103 227.047 337.688 226.916C337.273 226.781 336.916 226.589 336.617 226.342C336.318 226.095 336.087 225.796 335.924 225.446C335.761 225.091 335.679 224.695 335.679 224.256C335.679 223.607 335.847 223.075 336.183 222.66C336.519 222.245 337 221.948 337.625 221.771C337.098 221.575 336.699 221.283 336.428 220.896C336.162 220.504 336.029 220.037 336.029 219.496C336.029 219.127 336.101 218.782 336.246 218.46C336.391 218.138 336.596 217.858 336.862 217.62C337.128 217.382 337.445 217.195 337.814 217.06C338.187 216.925 338.603 216.857 339.06 216.857C339.513 216.857 339.926 216.925 340.299 217.06C340.672 217.195 340.992 217.382 341.258 217.62C341.524 217.858 341.729 218.138 341.874 218.46C342.019 218.782 342.091 219.127 342.091 219.496C342.091 220.037 341.956 220.504 341.685 220.896C341.419 221.283 341.022 221.575 340.495 221.771ZM351.121 221.988C351.121 222.865 351.025 223.626 350.834 224.27C350.647 224.909 350.391 225.439 350.064 225.859C349.737 226.279 349.35 226.592 348.902 226.797C348.459 227.002 347.983 227.105 347.474 227.105C346.961 227.105 346.482 227.002 346.039 226.797C345.6 226.592 345.218 226.279 344.891 225.859C344.564 225.439 344.308 224.909 344.121 224.27C343.934 223.626 343.841 222.865 343.841 221.988C343.841 221.111 343.934 220.35 344.121 219.706C344.308 219.062 344.564 218.53 344.891 218.11C345.218 217.685 345.6 217.37 346.039 217.165C346.482 216.96 346.961 216.857 347.474 216.857C347.983 216.857 348.459 216.96 348.902 217.165C349.35 217.37 349.737 217.685 350.064 218.11C350.391 218.53 350.647 219.062 350.834 219.706C351.025 220.35 351.121 221.111 351.121 221.988ZM349.826 221.988C349.826 221.223 349.761 220.581 349.63 220.063C349.504 219.54 349.331 219.12 349.112 218.803C348.897 218.486 348.648 218.259 348.363 218.124C348.078 217.984 347.782 217.914 347.474 217.914C347.166 217.914 346.87 217.984 346.585 218.124C346.3 218.259 346.051 218.486 345.836 218.803C345.621 219.12 345.449 219.54 345.318 220.063C345.192 220.581 345.129 221.223 345.129 221.988C345.129 222.753 345.192 223.395 345.318 223.913C345.449 224.431 345.621 224.849 345.836 225.166C346.051 225.483 346.3 225.712 346.585 225.852C346.87 225.987 347.166 226.055 347.474 226.055C347.782 226.055 348.078 225.987 348.363 225.852C348.648 225.712 348.897 225.483 349.112 225.166C349.331 224.849 349.504 224.431 349.63 223.913C349.761 223.395 349.826 222.753 349.826 221.988ZM356.896 219.391C356.896 219.783 356.836 220.135 356.714 220.448C356.593 220.756 356.43 221.017 356.224 221.232C356.024 221.442 355.788 221.603 355.517 221.715C355.251 221.827 354.969 221.883 354.67 221.883C354.358 221.883 354.066 221.827 353.795 221.715C353.525 221.603 353.289 221.442 353.088 221.232C352.892 221.017 352.738 220.756 352.626 220.448C352.514 220.135 352.458 219.783 352.458 219.391C352.458 218.99 352.514 218.633 352.626 218.32C352.738 218.007 352.892 217.744 353.088 217.529C353.289 217.314 353.525 217.151 353.795 217.039C354.066 216.927 354.358 216.871 354.67 216.871C354.988 216.871 355.282 216.927 355.552 217.039C355.823 217.151 356.059 217.314 356.259 217.529C356.46 217.744 356.616 218.007 356.728 218.32C356.84 218.633 356.896 218.99 356.896 219.391ZM355.93 219.391C355.93 219.083 355.898 218.822 355.832 218.607C355.767 218.392 355.676 218.217 355.559 218.082C355.447 217.942 355.314 217.842 355.16 217.781C355.006 217.72 354.843 217.69 354.67 217.69C354.498 217.69 354.337 217.72 354.187 217.781C354.038 217.842 353.907 217.942 353.795 218.082C353.683 218.217 353.595 218.392 353.529 218.607C353.464 218.822 353.431 219.083 353.431 219.391C353.431 219.694 353.464 219.953 353.529 220.168C353.595 220.378 353.683 220.551 353.795 220.686C353.907 220.817 354.038 220.912 354.187 220.973C354.337 221.029 354.498 221.057 354.67 221.057C354.843 221.057 355.006 221.029 355.16 220.973C355.314 220.912 355.447 220.817 355.559 220.686C355.676 220.551 355.767 220.378 355.832 220.168C355.898 219.953 355.93 219.694 355.93 219.391ZM360.445 217.179C360.492 217.123 360.546 217.074 360.606 217.032C360.672 216.99 360.758 216.969 360.865 216.969H361.768L354.432 226.797C354.39 226.858 354.337 226.907 354.271 226.944C354.206 226.981 354.127 227 354.033 227H353.116L360.445 217.179ZM362.447 224.634C362.447 225.026 362.387 225.376 362.265 225.684C362.144 225.992 361.981 226.253 361.775 226.468C361.575 226.678 361.339 226.839 361.068 226.951C360.802 227.063 360.52 227.119 360.221 227.119C359.904 227.119 359.61 227.063 359.339 226.951C359.073 226.839 358.84 226.678 358.639 226.468C358.443 226.253 358.289 225.992 358.177 225.684C358.065 225.376 358.009 225.026 358.009 224.634C358.009 224.233 358.065 223.876 358.177 223.563C358.289 223.246 358.443 222.98 358.639 222.765C358.84 222.55 359.073 222.387 359.339 222.275C359.61 222.163 359.904 222.107 360.221 222.107C360.534 222.107 360.826 222.163 361.096 222.275C361.372 222.387 361.607 222.55 361.803 222.765C362.004 222.98 362.16 223.246 362.272 223.563C362.389 223.876 362.447 224.233 362.447 224.634ZM361.481 224.634C361.481 224.326 361.449 224.065 361.383 223.85C361.318 223.631 361.227 223.453 361.11 223.318C360.998 223.183 360.865 223.085 360.711 223.024C360.557 222.963 360.394 222.933 360.221 222.933C360.049 222.933 359.885 222.963 359.731 223.024C359.582 223.085 359.451 223.183 359.339 223.318C359.227 223.453 359.139 223.631 359.073 223.85C359.013 224.065 358.982 224.326 358.982 224.634C358.982 224.937 359.013 225.194 359.073 225.404C359.139 225.614 359.227 225.787 359.339 225.922C359.451 226.053 359.582 226.148 359.731 226.209C359.885 226.265 360.049 226.293 360.221 226.293C360.394 226.293 360.557 226.265 360.711 226.209C360.865 226.148 360.998 226.053 361.11 225.922C361.227 225.787 361.318 225.614 361.383 225.404C361.449 225.194 361.481 224.937 361.481 224.634ZM371.225 219.797C371.743 219.797 372.209 219.883 372.625 220.056C373.04 220.229 373.395 220.474 373.689 220.791C373.983 221.108 374.207 221.493 374.361 221.946C374.519 222.394 374.599 222.896 374.599 223.451C374.599 224.011 374.519 224.515 374.361 224.963C374.207 225.411 373.983 225.794 373.689 226.111C373.395 226.428 373.04 226.673 372.625 226.846C372.209 227.014 371.743 227.098 371.225 227.098C370.702 227.098 370.231 227.014 369.811 226.846C369.395 226.673 369.041 226.428 368.747 226.111C368.453 225.794 368.226 225.411 368.068 224.963C367.914 224.515 367.837 224.011 367.837 223.451C367.837 222.896 367.914 222.394 368.068 221.946C368.226 221.493 368.453 221.108 368.747 220.791C369.041 220.474 369.395 220.229 369.811 220.056C370.231 219.883 370.702 219.797 371.225 219.797ZM371.225 226.125C371.925 226.125 372.447 225.892 372.793 225.425C373.138 224.954 373.311 224.298 373.311 223.458C373.311 222.613 373.138 221.955 372.793 221.484C372.447 221.013 371.925 220.777 371.225 220.777C370.87 220.777 370.56 220.838 370.294 220.959C370.032 221.08 369.813 221.255 369.636 221.484C369.463 221.713 369.332 221.995 369.244 222.331C369.16 222.662 369.118 223.038 369.118 223.458C369.118 224.298 369.29 224.954 369.636 225.425C369.986 225.892 370.515 226.125 371.225 226.125ZM376.791 227V220.973L376.007 220.882C375.909 220.859 375.827 220.824 375.762 220.777C375.701 220.726 375.671 220.653 375.671 220.56V220.049H376.791V219.363C376.791 218.957 376.847 218.598 376.959 218.285C377.075 217.968 377.239 217.702 377.449 217.487C377.663 217.268 377.92 217.102 378.219 216.99C378.517 216.878 378.853 216.822 379.227 216.822C379.544 216.822 379.836 216.869 380.102 216.962L380.074 217.585C380.064 217.697 380.001 217.758 379.885 217.767C379.773 217.776 379.621 217.781 379.43 217.781C379.215 217.781 379.019 217.809 378.842 217.865C378.669 217.921 378.52 218.012 378.394 218.138C378.268 218.264 378.17 218.43 378.1 218.635C378.034 218.84 378.002 219.095 378.002 219.398V220.049H380.046V220.952H378.044V227H376.791ZM386.475 219.909V227.525C386.475 227.81 386.438 228.073 386.363 228.316C386.289 228.563 386.17 228.778 386.006 228.96C385.843 229.142 385.633 229.284 385.376 229.387C385.124 229.494 384.821 229.548 384.466 229.548C384.317 229.548 384.179 229.536 384.053 229.513C383.927 229.49 383.801 229.455 383.675 229.408L383.724 228.736C383.734 228.694 383.75 228.661 383.773 228.638C383.792 228.619 383.82 228.608 383.857 228.603C383.895 228.598 383.944 228.596 384.004 228.596C384.06 228.601 384.133 228.603 384.221 228.603C384.585 228.603 384.844 228.517 384.998 228.344C385.152 228.176 385.229 227.903 385.229 227.525V219.909H386.475ZM386.734 217.683C386.734 217.804 386.709 217.919 386.657 218.026C386.611 218.129 386.545 218.222 386.461 218.306C386.382 218.385 386.289 218.448 386.181 218.495C386.074 218.542 385.96 218.565 385.838 218.565C385.717 218.565 385.603 218.542 385.495 218.495C385.393 218.448 385.302 218.385 385.222 218.306C385.143 218.222 385.08 218.129 385.033 218.026C384.987 217.919 384.963 217.804 384.963 217.683C384.963 217.562 384.987 217.447 385.033 217.34C385.08 217.228 385.143 217.132 385.222 217.053C385.302 216.969 385.393 216.904 385.495 216.857C385.603 216.81 385.717 216.787 385.838 216.787C385.96 216.787 386.074 216.81 386.181 216.857C386.289 216.904 386.382 216.969 386.461 217.053C386.545 217.132 386.611 217.228 386.657 217.34C386.709 217.447 386.734 217.562 386.734 217.683Z" fill="black"/>
<line x1="198" y1="363.5" x2="184" y2="363.5" stroke="black"/>
<line x1="198" y1="313.5" x2="184" y2="313.5" stroke="black"/>
<line x1="184.5" y1="313" x2="184.5" y2="363" stroke="black"/>
<path d="M209.126 461.048V462H203.75V461.048H205.899V454.209C205.899 454.004 205.906 453.796 205.92 453.586L204.135 455.119C204.074 455.17 204.014 455.203 203.953 455.217C203.892 455.226 203.836 455.226 203.785 455.217C203.734 455.208 203.685 455.189 203.638 455.161C203.596 455.133 203.563 455.103 203.54 455.07L203.148 454.531L206.137 451.948H207.152V461.048H209.126ZM218.121 456.988C218.121 457.865 218.025 458.626 217.834 459.27C217.647 459.909 217.391 460.439 217.064 460.859C216.737 461.279 216.35 461.592 215.902 461.797C215.459 462.002 214.983 462.105 214.474 462.105C213.961 462.105 213.482 462.002 213.039 461.797C212.6 461.592 212.218 461.279 211.891 460.859C211.564 460.439 211.308 459.909 211.121 459.27C210.934 458.626 210.841 457.865 210.841 456.988C210.841 456.111 210.934 455.35 211.121 454.706C211.308 454.062 211.564 453.53 211.891 453.11C212.218 452.685 212.6 452.37 213.039 452.165C213.482 451.96 213.961 451.857 214.474 451.857C214.983 451.857 215.459 451.96 215.902 452.165C216.35 452.37 216.737 452.685 217.064 453.11C217.391 453.53 217.647 454.062 217.834 454.706C218.025 455.35 218.121 456.111 218.121 456.988ZM216.826 456.988C216.826 456.223 216.761 455.581 216.63 455.063C216.504 454.54 216.331 454.12 216.112 453.803C215.897 453.486 215.648 453.259 215.363 453.124C215.078 452.984 214.782 452.914 214.474 452.914C214.166 452.914 213.87 452.984 213.585 453.124C213.3 453.259 213.051 453.486 212.836 453.803C212.621 454.12 212.449 454.54 212.318 455.063C212.192 455.581 212.129 456.223 212.129 456.988C212.129 457.753 212.192 458.395 212.318 458.913C212.449 459.431 212.621 459.849 212.836 460.166C213.051 460.483 213.3 460.712 213.585 460.852C213.87 460.987 214.166 461.055 214.474 461.055C214.782 461.055 215.078 460.987 215.363 460.852C215.648 460.712 215.897 460.483 216.112 460.166C216.331 459.849 216.504 459.431 216.63 458.913C216.761 458.395 216.826 457.753 216.826 456.988ZM226.542 456.988C226.542 457.865 226.447 458.626 226.255 459.27C226.069 459.909 225.812 460.439 225.485 460.859C225.159 461.279 224.771 461.592 224.323 461.797C223.88 462.002 223.404 462.105 222.895 462.105C222.382 462.105 221.904 462.002 221.46 461.797C221.022 461.592 220.639 461.279 220.312 460.859C219.986 460.439 219.729 459.909 219.542 459.27C219.356 458.626 219.262 457.865 219.262 456.988C219.262 456.111 219.356 455.35 219.542 454.706C219.729 454.062 219.986 453.53 220.312 453.11C220.639 452.685 221.022 452.37 221.46 452.165C221.904 451.96 222.382 451.857 222.895 451.857C223.404 451.857 223.88 451.96 224.323 452.165C224.771 452.37 225.159 452.685 225.485 453.11C225.812 453.53 226.069 454.062 226.255 454.706C226.447 455.35 226.542 456.111 226.542 456.988ZM225.247 456.988C225.247 456.223 225.182 455.581 225.051 455.063C224.925 454.54 224.753 454.12 224.533 453.803C224.319 453.486 224.069 453.259 223.784 453.124C223.5 452.984 223.203 452.914 222.895 452.914C222.587 452.914 222.291 452.984 222.006 453.124C221.722 453.259 221.472 453.486 221.257 453.803C221.043 454.12 220.87 454.54 220.739 455.063C220.613 455.581 220.55 456.223 220.55 456.988C220.55 457.753 220.613 458.395 220.739 458.913C220.87 459.431 221.043 459.849 221.257 460.166C221.472 460.483 221.722 460.712 222.006 460.852C222.291 460.987 222.587 461.055 222.895 461.055C223.203 461.055 223.5 460.987 223.784 460.852C224.069 460.712 224.319 460.483 224.533 460.166C224.753 459.849 224.925 459.431 225.051 458.913C225.182 458.395 225.247 457.753 225.247 456.988ZM232.317 454.391C232.317 454.783 232.257 455.135 232.135 455.448C232.014 455.756 231.851 456.017 231.645 456.232C231.445 456.442 231.209 456.603 230.938 456.715C230.672 456.827 230.39 456.883 230.091 456.883C229.779 456.883 229.487 456.827 229.216 456.715C228.946 456.603 228.71 456.442 228.509 456.232C228.313 456.017 228.159 455.756 228.047 455.448C227.935 455.135 227.879 454.783 227.879 454.391C227.879 453.99 227.935 453.633 228.047 453.32C228.159 453.007 228.313 452.744 228.509 452.529C228.71 452.314 228.946 452.151 229.216 452.039C229.487 451.927 229.779 451.871 230.091 451.871C230.409 451.871 230.703 451.927 230.973 452.039C231.244 452.151 231.48 452.314 231.68 452.529C231.881 452.744 232.037 453.007 232.149 453.32C232.261 453.633 232.317 453.99 232.317 454.391ZM231.351 454.391C231.351 454.083 231.319 453.822 231.253 453.607C231.188 453.392 231.097 453.217 230.98 453.082C230.868 452.942 230.735 452.842 230.581 452.781C230.427 452.72 230.264 452.69 230.091 452.69C229.919 452.69 229.758 452.72 229.608 452.781C229.459 452.842 229.328 452.942 229.216 453.082C229.104 453.217 229.016 453.392 228.95 453.607C228.885 453.822 228.852 454.083 228.852 454.391C228.852 454.694 228.885 454.953 228.95 455.168C229.016 455.378 229.104 455.551 229.216 455.686C229.328 455.817 229.459 455.912 229.608 455.973C229.758 456.029 229.919 456.057 230.091 456.057C230.264 456.057 230.427 456.029 230.581 455.973C230.735 455.912 230.868 455.817 230.98 455.686C231.097 455.551 231.188 455.378 231.253 455.168C231.319 454.953 231.351 454.694 231.351 454.391ZM235.866 452.179C235.913 452.123 235.967 452.074 236.027 452.032C236.093 451.99 236.179 451.969 236.286 451.969H237.189L229.853 461.797C229.811 461.858 229.758 461.907 229.692 461.944C229.627 461.981 229.548 462 229.454 462H228.537L235.866 452.179ZM237.868 459.634C237.868 460.026 237.808 460.376 237.686 460.684C237.565 460.992 237.402 461.253 237.196 461.468C236.996 461.678 236.76 461.839 236.489 461.951C236.223 462.063 235.941 462.119 235.642 462.119C235.325 462.119 235.031 462.063 234.76 461.951C234.494 461.839 234.261 461.678 234.06 461.468C233.864 461.253 233.71 460.992 233.598 460.684C233.486 460.376 233.43 460.026 233.43 459.634C233.43 459.233 233.486 458.876 233.598 458.563C233.71 458.246 233.864 457.98 234.06 457.765C234.261 457.55 234.494 457.387 234.76 457.275C235.031 457.163 235.325 457.107 235.642 457.107C235.955 457.107 236.247 457.163 236.517 457.275C236.793 457.387 237.028 457.55 237.224 457.765C237.425 457.98 237.581 458.246 237.693 458.563C237.81 458.876 237.868 459.233 237.868 459.634ZM236.902 459.634C236.902 459.326 236.87 459.065 236.804 458.85C236.739 458.631 236.648 458.453 236.531 458.318C236.419 458.183 236.286 458.085 236.132 458.024C235.978 457.963 235.815 457.933 235.642 457.933C235.47 457.933 235.306 457.963 235.152 458.024C235.003 458.085 234.872 458.183 234.76 458.318C234.648 458.453 234.56 458.631 234.494 458.85C234.434 459.065 234.403 459.326 234.403 459.634C234.403 459.937 234.434 460.194 234.494 460.404C234.56 460.614 234.648 460.787 234.76 460.922C234.872 461.053 235.003 461.148 235.152 461.209C235.306 461.265 235.47 461.293 235.642 461.293C235.815 461.293 235.978 461.265 236.132 461.209C236.286 461.148 236.419 461.053 236.531 460.922C236.648 460.787 236.739 460.614 236.804 460.404C236.87 460.194 236.902 459.937 236.902 459.634ZM246.646 454.797C247.164 454.797 247.631 454.883 248.046 455.056C248.461 455.229 248.816 455.474 249.11 455.791C249.404 456.108 249.628 456.493 249.782 456.946C249.941 457.394 250.02 457.896 250.02 458.451C250.02 459.011 249.941 459.515 249.782 459.963C249.628 460.411 249.404 460.794 249.11 461.111C248.816 461.428 248.461 461.673 248.046 461.846C247.631 462.014 247.164 462.098 246.646 462.098C246.123 462.098 245.652 462.014 245.232 461.846C244.817 461.673 244.462 461.428 244.168 461.111C243.874 460.794 243.648 460.411 243.489 459.963C243.335 459.515 243.258 459.011 243.258 458.451C243.258 457.896 243.335 457.394 243.489 456.946C243.648 456.493 243.874 456.108 244.168 455.791C244.462 455.474 244.817 455.229 245.232 455.056C245.652 454.883 246.123 454.797 246.646 454.797ZM246.646 461.125C247.346 461.125 247.869 460.892 248.214 460.425C248.559 459.954 248.732 459.298 248.732 458.458C248.732 457.613 248.559 456.955 248.214 456.484C247.869 456.013 247.346 455.777 246.646 455.777C246.291 455.777 245.981 455.838 245.715 455.959C245.454 456.08 245.234 456.255 245.057 456.484C244.884 456.713 244.754 456.995 244.665 457.331C244.581 457.662 244.539 458.038 244.539 458.458C244.539 459.298 244.712 459.954 245.057 460.425C245.407 460.892 245.937 461.125 246.646 461.125ZM252.212 462V455.973L251.428 455.882C251.33 455.859 251.248 455.824 251.183 455.777C251.122 455.726 251.092 455.653 251.092 455.56V455.049H252.212V454.363C252.212 453.957 252.268 453.598 252.38 453.285C252.497 452.968 252.66 452.702 252.87 452.487C253.085 452.268 253.341 452.102 253.64 451.99C253.939 451.878 254.275 451.822 254.648 451.822C254.965 451.822 255.257 451.869 255.523 451.962L255.495 452.585C255.486 452.697 255.423 452.758 255.306 452.767C255.194 452.776 255.042 452.781 254.851 452.781C254.636 452.781 254.44 452.809 254.263 452.865C254.09 452.921 253.941 453.012 253.815 453.138C253.689 453.264 253.591 453.43 253.521 453.635C253.456 453.84 253.423 454.095 253.423 454.398V455.049H255.467V455.952H253.465V462H252.212ZM261.896 454.909V462.525C261.896 462.81 261.859 463.073 261.784 463.316C261.71 463.563 261.591 463.778 261.427 463.96C261.264 464.142 261.054 464.284 260.797 464.387C260.545 464.494 260.242 464.548 259.887 464.548C259.738 464.548 259.6 464.536 259.474 464.513C259.348 464.49 259.222 464.455 259.096 464.408L259.145 463.736C259.155 463.694 259.171 463.661 259.194 463.638C259.213 463.619 259.241 463.608 259.278 463.603C259.316 463.598 259.365 463.596 259.425 463.596C259.481 463.601 259.554 463.603 259.642 463.603C260.006 463.603 260.265 463.517 260.419 463.344C260.573 463.176 260.65 462.903 260.65 462.525V454.909H261.896ZM262.155 452.683C262.155 452.804 262.13 452.919 262.078 453.026C262.032 453.129 261.966 453.222 261.882 453.306C261.803 453.385 261.71 453.448 261.602 453.495C261.495 453.542 261.381 453.565 261.259 453.565C261.138 453.565 261.024 453.542 260.916 453.495C260.814 453.448 260.723 453.385 260.643 453.306C260.564 453.222 260.501 453.129 260.454 453.026C260.408 452.919 260.384 452.804 260.384 452.683C260.384 452.562 260.408 452.447 260.454 452.34C260.501 452.228 260.564 452.132 260.643 452.053C260.723 451.969 260.814 451.904 260.916 451.857C261.024 451.81 261.138 451.787 261.259 451.787C261.381 451.787 261.495 451.81 261.602 451.857C261.71 451.904 261.803 451.969 261.882 452.053C261.966 452.132 262.032 452.228 262.078 452.34C262.13 452.447 262.155 452.562 262.155 452.683Z" fill="black"/>
<path d="M414.826 319.87V351.087H410.783V328.87C410.783 328.536 410.79 328.181 410.804 327.804C410.833 327.428 410.862 327.043 410.891 326.652L400.5 345.717C400.138 346.428 399.58 346.783 398.826 346.783H398.174C397.42 346.783 396.87 346.428 396.522 345.717L385.935 326.587C386.022 327.399 386.065 328.159 386.065 328.87V351.087H382V319.87H385.435C385.841 319.87 386.152 319.913 386.37 320C386.601 320.072 386.819 320.29 387.022 320.652L397.457 339.348C397.659 339.725 397.848 340.123 398.022 340.543C398.196 340.964 398.362 341.384 398.522 341.804C398.826 340.949 399.181 340.123 399.587 339.326L409.826 320.652C410.014 320.29 410.217 320.072 410.435 320C410.667 319.913 410.986 319.87 411.391 319.87H414.826Z" fill="#41A5DD"/>
<path d="M431.282 328.652C432.905 328.652 434.369 328.92 435.674 329.457C436.992 329.978 438.108 330.739 439.021 331.739C439.949 332.725 440.659 333.92 441.152 335.326C441.645 336.717 441.891 338.283 441.891 340.022C441.891 341.761 441.645 343.333 441.152 344.739C440.659 346.145 439.949 347.341 439.021 348.326C438.108 349.312 436.992 350.072 435.674 350.609C434.369 351.13 432.905 351.391 431.282 351.391C429.645 351.391 428.166 351.13 426.847 350.609C425.543 350.072 424.427 349.312 423.5 348.326C422.572 347.341 421.855 346.145 421.347 344.739C420.855 343.333 420.608 341.761 420.608 340.022C420.608 338.283 420.855 336.717 421.347 335.326C421.855 333.92 422.572 332.725 423.5 331.739C424.427 330.739 425.543 329.978 426.847 329.457C428.166 328.92 429.645 328.652 431.282 328.652ZM431.282 348.087C433.369 348.087 434.927 347.384 435.956 345.978C436.985 344.572 437.5 342.594 437.5 340.043C437.5 337.493 436.985 335.514 435.956 334.109C434.927 332.688 433.369 331.978 431.282 331.978C429.166 331.978 427.587 332.688 426.543 334.109C425.514 335.514 425 337.493 425 340.043C425 342.594 425.514 344.572 426.543 345.978C427.587 347.384 429.166 348.087 431.282 348.087Z" fill="#41A5DD"/>
<path d="M466.03 329L457.073 351.087H453.247L444.29 329H447.79C448.124 329 448.399 329.08 448.617 329.239C448.834 329.399 448.979 329.601 449.051 329.848L454.334 343.413C454.522 343.978 454.682 344.543 454.812 345.109C454.957 345.659 455.088 346.21 455.203 346.761C455.319 346.21 455.45 345.659 455.595 345.109C455.74 344.558 455.914 343.993 456.117 343.413L461.464 329.848C461.551 329.601 461.703 329.399 461.921 329.239C462.138 329.08 462.399 329 462.703 329H466.03Z" fill="#41A5DD"/>
<path d="M484.265 337.587C484.265 336.746 484.141 335.971 483.895 335.261C483.663 334.551 483.315 333.935 482.852 333.413C482.388 332.891 481.823 332.486 481.156 332.196C480.489 331.906 479.721 331.761 478.852 331.761C477.069 331.761 475.663 332.275 474.634 333.304C473.62 334.333 472.975 335.761 472.699 337.587H484.265ZM487.765 347.935C487.243 348.543 486.641 349.072 485.96 349.522C485.279 349.957 484.554 350.312 483.786 350.587C483.018 350.862 482.221 351.065 481.395 351.196C480.583 351.326 479.779 351.391 478.982 351.391C477.46 351.391 476.047 351.138 474.743 350.63C473.453 350.109 472.33 349.355 471.373 348.37C470.431 347.37 469.692 346.138 469.156 344.674C468.634 343.196 468.373 341.5 468.373 339.587C468.373 338.051 468.612 336.623 469.091 335.304C469.569 333.971 470.25 332.812 471.134 331.826C472.033 330.841 473.127 330.065 474.417 329.5C475.707 328.935 477.156 328.652 478.765 328.652C480.112 328.652 481.352 328.877 482.482 329.326C483.627 329.761 484.612 330.399 485.439 331.239C486.265 332.08 486.91 333.116 487.373 334.348C487.852 335.58 488.091 336.986 488.091 338.565C488.091 339.217 488.018 339.659 487.873 339.891C487.728 340.109 487.46 340.217 487.069 340.217H472.591C472.634 341.536 472.823 342.688 473.156 343.674C473.489 344.645 473.946 345.457 474.525 346.109C475.12 346.761 475.823 347.246 476.634 347.565C477.446 347.884 478.352 348.043 479.352 348.043C480.294 348.043 481.105 347.935 481.786 347.717C482.482 347.5 483.076 347.268 483.569 347.022C484.076 346.761 484.496 346.522 484.83 346.304C485.178 346.087 485.482 345.978 485.743 345.978C486.091 345.978 486.359 346.109 486.547 346.37L487.765 347.935Z" fill="#41A5DD"/>
<path d="M517.253 341.283C515.528 341.341 514.064 341.478 512.861 341.696C511.659 341.899 510.68 342.174 509.927 342.522C509.173 342.87 508.63 343.283 508.296 343.761C507.963 344.225 507.796 344.746 507.796 345.326C507.796 345.877 507.883 346.355 508.057 346.761C508.245 347.152 508.492 347.478 508.796 347.739C509.115 347.986 509.485 348.167 509.905 348.283C510.325 348.399 510.782 348.457 511.274 348.457C511.927 348.457 512.521 348.391 513.057 348.261C513.608 348.13 514.122 347.949 514.601 347.717C515.079 347.471 515.535 347.174 515.97 346.826C516.405 346.478 516.832 346.08 517.253 345.63V341.283ZM504.818 332.087C506.05 330.913 507.383 330.036 508.818 329.457C510.267 328.877 511.854 328.587 513.579 328.587C514.84 328.587 515.956 328.797 516.927 329.217C517.898 329.623 518.716 330.196 519.383 330.935C520.05 331.674 520.55 332.558 520.883 333.587C521.231 334.616 521.405 335.754 521.405 337V351.087H519.514C519.093 351.087 518.774 351.022 518.557 350.891C518.34 350.746 518.166 350.486 518.035 350.109L517.579 348.174C517.014 348.696 516.456 349.159 515.905 349.565C515.354 349.957 514.774 350.297 514.166 350.587C513.572 350.862 512.934 351.072 512.253 351.217C511.572 351.362 510.818 351.435 509.992 351.435C509.122 351.435 508.303 351.319 507.535 351.087C506.782 350.841 506.122 350.471 505.557 349.978C504.992 349.486 504.543 348.87 504.209 348.13C503.89 347.391 503.731 346.529 503.731 345.543C503.731 344.674 503.963 343.841 504.427 343.043C504.905 342.232 505.673 341.507 506.731 340.87C507.803 340.232 509.195 339.71 510.905 339.304C512.63 338.899 514.745 338.667 517.253 338.609V337C517.253 335.333 516.898 334.087 516.187 333.261C515.477 332.435 514.434 332.022 513.057 332.022C512.13 332.022 511.347 332.138 510.709 332.37C510.086 332.601 509.543 332.862 509.079 333.152C508.63 333.428 508.231 333.681 507.883 333.913C507.55 334.145 507.202 334.261 506.84 334.261C506.55 334.261 506.296 334.181 506.079 334.022C505.876 333.862 505.709 333.674 505.579 333.457L504.818 332.087Z" fill="#41A5DD"/>
<path d="M531.928 332.065C532.406 331.558 532.906 331.094 533.428 330.674C533.949 330.254 534.5 329.899 535.08 329.609C535.674 329.304 536.304 329.072 536.971 328.913C537.652 328.739 538.377 328.652 539.145 328.652C540.362 328.652 541.428 328.855 542.341 329.261C543.268 329.667 544.044 330.239 544.667 330.978C545.29 331.703 545.761 332.58 546.08 333.609C546.399 334.638 546.558 335.775 546.558 337.022V351.087H542.297V337.022C542.297 335.442 541.935 334.217 541.21 333.348C540.486 332.464 539.377 332.022 537.884 332.022C536.797 332.022 535.775 332.283 534.819 332.804C533.877 333.312 533 334.007 532.189 334.891V351.087H527.949V329H530.493C531.087 329 531.457 329.283 531.602 329.848L531.928 332.065Z" fill="#41A5DD"/>
<path d="M571.9 329L559.64 357.5C559.509 357.819 559.335 358.065 559.118 358.239C558.9 358.413 558.582 358.5 558.161 358.5H555.009L559.053 349.696L549.987 329H553.683C554.045 329 554.328 329.087 554.531 329.261C554.734 329.435 554.879 329.63 554.966 329.848L560.574 343.109C560.69 343.442 560.799 343.783 560.9 344.13C561.016 344.464 561.111 344.797 561.183 345.13C561.285 344.783 561.393 344.442 561.509 344.109C561.625 343.761 561.748 343.42 561.879 343.087L567.292 329.848C567.393 329.601 567.553 329.399 567.77 329.239C567.987 329.08 568.234 329 568.509 329H571.9Z" fill="#41A5DD"/>
<path d="M582.925 351.435C581.142 351.435 579.765 350.935 578.794 349.935C577.838 348.935 577.359 347.507 577.359 345.652V332.435H574.794C574.548 332.435 574.338 332.362 574.164 332.217C574.004 332.058 573.925 331.826 573.925 331.522V329.804L577.512 329.304L578.468 322.717C578.526 322.471 578.635 322.283 578.794 322.152C578.968 322.007 579.185 321.935 579.446 321.935H581.598V329.348H587.859V332.435H581.598V345.37C581.598 346.239 581.809 346.891 582.229 347.326C582.664 347.746 583.214 347.957 583.881 347.957C584.272 347.957 584.606 347.906 584.881 347.804C585.171 347.703 585.417 347.594 585.62 347.478C585.823 347.348 585.997 347.232 586.142 347.13C586.287 347.029 586.417 346.978 586.533 346.978C586.678 346.978 586.787 347.014 586.859 347.087C586.946 347.145 587.033 347.246 587.12 347.391L588.381 349.435C587.685 350.072 586.859 350.565 585.903 350.913C584.946 351.261 583.954 351.435 582.925 351.435Z" fill="#41A5DD"/>
<path d="M596.873 331.804C597.8 330.862 598.822 330.101 599.938 329.522C601.068 328.942 602.365 328.652 603.829 328.652C605.047 328.652 606.112 328.855 607.025 329.261C607.952 329.667 608.728 330.239 609.351 330.978C609.974 331.703 610.445 332.58 610.764 333.609C611.083 334.638 611.242 335.775 611.242 337.022V351.087H606.981V337.022C606.981 335.442 606.619 334.217 605.894 333.348C605.17 332.464 604.061 332.022 602.568 332.022C601.481 332.022 600.46 332.283 599.503 332.804C598.561 333.312 597.684 334.007 596.873 334.891V351.087H592.633V319H596.873V331.804Z" fill="#41A5DD"/>
<path d="M622.267 329V351.087H618.028V329H622.267ZM623.071 322.174C623.071 322.565 622.992 322.942 622.832 323.304C622.673 323.652 622.455 323.964 622.18 324.239C621.919 324.5 621.608 324.71 621.245 324.87C620.883 325.014 620.506 325.087 620.115 325.087C619.723 325.087 619.354 325.014 619.006 324.87C618.658 324.71 618.347 324.5 618.071 324.239C617.81 323.964 617.6 323.652 617.441 323.304C617.296 322.942 617.223 322.565 617.223 322.174C617.223 321.768 617.296 321.391 617.441 321.043C617.6 320.681 617.81 320.37 618.071 320.109C618.347 319.833 618.658 319.623 619.006 319.478C619.354 319.319 619.723 319.239 620.115 319.239C620.506 319.239 620.883 319.319 621.245 319.478C621.608 319.623 621.919 319.833 622.18 320.109C622.455 320.37 622.673 320.681 622.832 321.043C622.992 321.391 623.071 321.768 623.071 322.174Z" fill="#41A5DD"/>
<path d="M633.252 332.065C633.731 331.558 634.231 331.094 634.752 330.674C635.274 330.254 635.825 329.899 636.405 329.609C636.999 329.304 637.629 329.072 638.296 328.913C638.977 328.739 639.702 328.652 640.47 328.652C641.687 328.652 642.752 328.855 643.665 329.261C644.593 329.667 645.368 330.239 645.991 330.978C646.615 331.703 647.086 332.58 647.405 333.609C647.723 334.638 647.883 335.775 647.883 337.022V351.087H643.622V337.022C643.622 335.442 643.26 334.217 642.535 333.348C641.81 332.464 640.702 332.022 639.209 332.022C638.122 332.022 637.1 332.283 636.144 332.804C635.202 333.312 634.325 334.007 633.513 334.891V351.087H629.274V329H631.818C632.412 329 632.781 329.283 632.926 329.848L633.252 332.065Z" fill="#41A5DD"/>
<path d="M662.234 340.065C662.987 340.065 663.647 339.964 664.212 339.761C664.792 339.558 665.27 339.275 665.647 338.913C666.038 338.536 666.328 338.087 666.516 337.565C666.719 337.043 666.821 336.471 666.821 335.848C666.821 334.572 666.429 333.558 665.647 332.804C664.879 332.036 663.741 331.652 662.234 331.652C660.741 331.652 659.603 332.036 658.821 332.804C658.053 333.558 657.668 334.572 657.668 335.848C657.668 336.471 657.763 337.043 657.951 337.565C658.154 338.072 658.444 338.514 658.821 338.891C659.212 339.254 659.69 339.543 660.255 339.761C660.835 339.964 661.495 340.065 662.234 340.065ZM668.995 352.239C668.995 351.717 668.85 351.304 668.56 351C668.27 350.681 667.871 350.435 667.364 350.261C666.871 350.072 666.292 349.942 665.625 349.87C664.958 349.783 664.255 349.717 663.516 349.674C662.792 349.63 662.045 349.594 661.277 349.565C660.509 349.522 659.77 349.449 659.06 349.348C658.306 349.725 657.683 350.181 657.19 350.717C656.712 351.254 656.473 351.884 656.473 352.609C656.473 353.072 656.589 353.507 656.821 353.913C657.067 354.319 657.437 354.667 657.929 354.957C658.437 355.261 659.067 355.493 659.821 355.652C660.589 355.826 661.502 355.913 662.56 355.913C663.603 355.913 664.524 355.819 665.321 355.63C666.118 355.457 666.784 355.203 667.321 354.87C667.871 354.551 668.284 354.167 668.56 353.717C668.85 353.268 668.995 352.775 668.995 352.239ZM673.299 329.826V331.413C673.299 331.935 672.973 332.261 672.321 332.391L669.951 332.739C670.154 333.188 670.313 333.667 670.429 334.174C670.545 334.667 670.603 335.188 670.603 335.739C670.603 336.826 670.393 337.812 669.973 338.696C669.553 339.565 668.973 340.312 668.234 340.935C667.495 341.558 666.61 342.036 665.581 342.37C664.567 342.703 663.451 342.87 662.234 342.87C661.234 342.87 660.299 342.761 659.429 342.543C658.995 342.804 658.661 343.094 658.429 343.413C658.212 343.717 658.103 344.022 658.103 344.326C658.103 344.833 658.313 345.21 658.734 345.457C659.168 345.703 659.726 345.884 660.408 346C661.103 346.101 661.893 346.167 662.777 346.196C663.676 346.225 664.581 346.275 665.495 346.348C666.422 346.406 667.328 346.522 668.212 346.696C669.11 346.855 669.9 347.123 670.582 347.5C671.277 347.862 671.835 348.37 672.255 349.022C672.69 349.659 672.908 350.493 672.908 351.522C672.908 352.478 672.668 353.406 672.19 354.304C671.726 355.203 671.045 356 670.147 356.696C669.248 357.391 668.154 357.949 666.864 358.37C665.574 358.79 664.11 359 662.473 359C660.835 359 659.408 358.841 658.19 358.522C656.987 358.203 655.98 357.775 655.168 357.239C654.371 356.703 653.77 356.08 653.364 355.37C652.973 354.659 652.777 353.92 652.777 353.152C652.777 352.08 653.11 351.174 653.777 350.435C654.444 349.681 655.364 349.094 656.538 348.674C655.9 348.384 655.393 347.993 655.016 347.5C654.639 346.993 654.451 346.326 654.451 345.5C654.451 345.181 654.509 344.855 654.625 344.522C654.741 344.174 654.915 343.833 655.147 343.5C655.393 343.152 655.69 342.826 656.038 342.522C656.4 342.217 656.813 341.942 657.277 341.696C656.19 341.087 655.335 340.283 654.712 339.283C654.089 338.268 653.777 337.087 653.777 335.739C653.777 334.652 653.987 333.674 654.408 332.804C654.828 331.935 655.408 331.188 656.147 330.565C656.9 329.942 657.792 329.464 658.821 329.13C659.864 328.797 661.002 328.63 662.234 328.63C664.147 328.63 665.792 329.029 667.168 329.826H673.299Z" fill="#41A5DD"/>
<path d="M679.971 351.087C679.58 351.087 679.217 351.014 678.884 350.87C678.565 350.725 678.283 350.529 678.036 350.283C677.804 350.022 677.623 349.717 677.493 349.37C677.362 349.022 677.297 348.645 677.297 348.239C677.297 347.891 677.362 347.565 677.493 347.261C677.623 346.942 677.804 346.667 678.036 346.435C678.283 346.203 678.573 346.022 678.906 345.891C679.239 345.746 679.609 345.674 680.015 345.674C680.478 345.674 680.884 345.761 681.232 345.935C681.594 346.094 681.891 346.326 682.123 346.63C682.37 346.92 682.551 347.261 682.667 347.652C682.783 348.043 682.841 348.464 682.841 348.913C682.841 349.565 682.746 350.254 682.558 350.978C682.37 351.703 682.094 352.42 681.732 353.13C681.37 353.841 680.92 354.529 680.384 355.196C679.848 355.862 679.239 356.478 678.558 357.043L677.841 356.37C677.623 356.167 677.515 355.942 677.515 355.696C677.515 355.594 677.544 355.486 677.602 355.37C677.674 355.268 677.761 355.167 677.862 355.065C678.007 354.906 678.196 354.696 678.428 354.435C678.66 354.174 678.884 353.87 679.102 353.522C679.333 353.188 679.544 352.812 679.732 352.391C679.935 351.986 680.08 351.551 680.167 351.087H679.971Z" fill="#41A5DD"/>
<path d="M712.599 341.283C710.875 341.341 709.411 341.478 708.208 341.696C707.005 341.899 706.027 342.174 705.273 342.522C704.519 342.87 703.976 343.283 703.643 343.761C703.309 344.225 703.143 344.746 703.143 345.326C703.143 345.877 703.23 346.355 703.404 346.761C703.592 347.152 703.838 347.478 704.143 347.739C704.461 347.986 704.831 348.167 705.251 348.283C705.672 348.399 706.128 348.457 706.621 348.457C707.273 348.457 707.867 348.391 708.404 348.261C708.954 348.13 709.469 347.949 709.947 347.717C710.425 347.471 710.882 347.174 711.317 346.826C711.751 346.478 712.179 346.08 712.599 345.63V341.283ZM700.164 332.087C701.396 330.913 702.73 330.036 704.164 329.457C705.614 328.877 707.201 328.587 708.925 328.587C710.186 328.587 711.302 328.797 712.273 329.217C713.244 329.623 714.063 330.196 714.73 330.935C715.396 331.674 715.896 332.558 716.23 333.587C716.577 334.616 716.751 335.754 716.751 337V351.087H714.86C714.44 351.087 714.121 351.022 713.904 350.891C713.686 350.746 713.512 350.486 713.382 350.109L712.925 348.174C712.36 348.696 711.802 349.159 711.251 349.565C710.701 349.957 710.121 350.297 709.512 350.587C708.918 350.862 708.28 351.072 707.599 351.217C706.918 351.362 706.164 351.435 705.338 351.435C704.469 351.435 703.65 351.319 702.882 351.087C702.128 350.841 701.469 350.471 700.904 349.978C700.338 349.486 699.889 348.87 699.556 348.13C699.237 347.391 699.077 346.529 699.077 345.543C699.077 344.674 699.309 343.841 699.773 343.043C700.251 342.232 701.019 341.507 702.077 340.87C703.15 340.232 704.541 339.71 706.251 339.304C707.976 338.899 710.092 338.667 712.599 338.609V337C712.599 335.333 712.244 334.087 711.534 333.261C710.824 332.435 709.78 332.022 708.404 332.022C707.476 332.022 706.693 332.138 706.056 332.37C705.432 332.601 704.889 332.862 704.425 333.152C703.976 333.428 703.577 333.681 703.23 333.913C702.896 334.145 702.548 334.261 702.186 334.261C701.896 334.261 701.643 334.181 701.425 334.022C701.222 333.862 701.056 333.674 700.925 333.457L700.164 332.087Z" fill="#41A5DD"/>
<path d="M727.274 332.065C727.752 331.558 728.252 331.094 728.774 330.674C729.296 330.254 729.847 329.899 730.426 329.609C731.02 329.304 731.651 329.072 732.318 328.913C732.999 328.739 733.723 328.652 734.491 328.652C735.709 328.652 736.774 328.855 737.687 329.261C738.615 329.667 739.39 330.239 740.013 330.978C740.636 331.703 741.107 332.58 741.426 333.609C741.745 334.638 741.905 335.775 741.905 337.022V351.087H737.644V337.022C737.644 335.442 737.281 334.217 736.557 333.348C735.832 332.464 734.723 332.022 733.231 332.022C732.144 332.022 731.122 332.283 730.165 332.804C729.223 333.312 728.347 334.007 727.535 334.891V351.087H723.296V329H725.839C726.434 329 726.803 329.283 726.948 329.848L727.274 332.065Z" fill="#41A5DD"/>
<path d="M767.247 329L754.986 357.5C754.856 357.819 754.682 358.065 754.464 358.239C754.247 358.413 753.928 358.5 753.508 358.5H750.356L754.399 349.696L745.334 329H749.03C749.392 329 749.674 329.087 749.877 329.261C750.08 329.435 750.225 329.63 750.312 329.848L755.921 343.109C756.037 343.442 756.145 343.783 756.247 344.13C756.363 344.464 756.457 344.797 756.529 345.13C756.631 344.783 756.74 344.442 756.856 344.109C756.972 343.761 757.095 343.42 757.225 343.087L762.638 329.848C762.74 329.601 762.899 329.399 763.116 329.239C763.334 329.08 763.58 329 763.856 329H767.247Z" fill="#41A5DD"/>
<path d="M802.075 329L794.967 351.087H791.575C791.17 351.087 790.894 350.819 790.749 350.283L786.097 335.891C785.981 335.529 785.88 335.174 785.793 334.826C785.706 334.464 785.626 334.101 785.554 333.739C785.423 334.493 785.242 335.225 785.01 335.935L780.293 350.283C780.148 350.819 779.836 351.087 779.358 351.087H776.141L769.01 329H772.358C772.691 329 772.967 329.08 773.184 329.239C773.416 329.399 773.568 329.601 773.641 329.848L777.619 343.413C777.749 343.964 777.865 344.5 777.967 345.022C778.068 345.543 778.162 346.065 778.249 346.587C778.38 346.065 778.517 345.543 778.662 345.022C778.822 344.5 778.981 343.964 779.141 343.413L783.554 329.761C783.626 329.514 783.764 329.319 783.967 329.174C784.17 329.014 784.416 328.935 784.706 328.935H786.554C786.872 328.935 787.133 329.014 787.336 329.174C787.554 329.319 787.699 329.514 787.771 329.761L792.075 343.413C792.235 343.964 792.387 344.507 792.532 345.043C792.677 345.565 792.807 346.094 792.923 346.63C793.01 346.109 793.112 345.587 793.228 345.065C793.344 344.529 793.474 343.978 793.619 343.413L797.662 329.848C797.735 329.601 797.88 329.399 798.097 329.239C798.329 329.08 798.59 329 798.88 329H802.075Z" fill="#41A5DD"/>
<path d="M810.774 331.804C811.701 330.862 812.723 330.101 813.839 329.522C814.969 328.942 816.267 328.652 817.73 328.652C818.948 328.652 820.013 328.855 820.926 329.261C821.853 329.667 822.629 330.239 823.252 330.978C823.875 331.703 824.346 332.58 824.665 333.609C824.984 334.638 825.143 335.775 825.143 337.022V351.087H820.882V337.022C820.882 335.442 820.52 334.217 819.796 333.348C819.071 332.464 817.962 332.022 816.469 332.022C815.382 332.022 814.361 332.283 813.404 332.804C812.462 333.312 811.585 334.007 810.774 334.891V351.087H806.535V319H810.774V331.804Z" fill="#41A5DD"/>
<path d="M846.364 337.587C846.364 336.746 846.241 335.971 845.994 335.261C845.762 334.551 845.414 333.935 844.951 333.413C844.487 332.891 843.922 332.486 843.255 332.196C842.588 331.906 841.82 331.761 840.951 331.761C839.168 331.761 837.762 332.275 836.733 333.304C835.719 334.333 835.074 335.761 834.799 337.587H846.364ZM849.864 347.935C849.342 348.543 848.741 349.072 848.059 349.522C847.378 349.957 846.654 350.312 845.885 350.587C845.117 350.862 844.32 351.065 843.494 351.196C842.683 351.326 841.878 351.391 841.081 351.391C839.559 351.391 838.146 351.138 836.842 350.63C835.552 350.109 834.429 349.355 833.472 348.37C832.53 347.37 831.791 346.138 831.255 344.674C830.733 343.196 830.472 341.5 830.472 339.587C830.472 338.051 830.712 336.623 831.19 335.304C831.668 333.971 832.349 332.812 833.233 331.826C834.132 330.841 835.226 330.065 836.516 329.5C837.806 328.935 839.255 328.652 840.864 328.652C842.212 328.652 843.451 328.877 844.581 329.326C845.726 329.761 846.712 330.399 847.538 331.239C848.364 332.08 849.009 333.116 849.472 334.348C849.951 335.58 850.19 336.986 850.19 338.565C850.19 339.217 850.117 339.659 849.972 339.891C849.828 340.109 849.559 340.217 849.168 340.217H834.69C834.733 341.536 834.922 342.688 835.255 343.674C835.588 344.645 836.045 345.457 836.625 346.109C837.219 346.761 837.922 347.246 838.733 347.565C839.545 347.884 840.451 348.043 841.451 348.043C842.393 348.043 843.204 347.935 843.885 347.717C844.581 347.5 845.175 347.268 845.668 347.022C846.175 346.761 846.596 346.522 846.929 346.304C847.277 346.087 847.581 345.978 847.842 345.978C848.19 345.978 848.458 346.109 848.646 346.37L849.864 347.935Z" fill="#41A5DD"/>
<path d="M859.616 333.239C860.326 331.79 861.181 330.652 862.181 329.826C863.181 329 864.384 328.587 865.79 328.587C866.268 328.587 866.717 328.645 867.138 328.761C867.572 328.862 867.949 329.022 868.268 329.239L867.985 332.435C867.884 332.826 867.645 333.022 867.268 333.022C867.065 333.022 866.761 332.986 866.355 332.913C865.949 332.826 865.514 332.783 865.051 332.783C864.369 332.783 863.768 332.884 863.246 333.087C862.724 333.275 862.253 333.565 861.833 333.957C861.427 334.333 861.065 334.804 860.746 335.37C860.427 335.92 860.13 336.551 859.855 337.261V351.087H855.616V329H858.051C858.514 329 858.826 329.087 858.985 329.261C859.159 329.42 859.282 329.71 859.355 330.13L859.616 333.239Z" fill="#41A5DD"/>
<path d="M886.231 337.587C886.231 336.746 886.108 335.971 885.862 335.261C885.63 334.551 885.282 333.935 884.818 333.413C884.354 332.891 883.789 332.486 883.123 332.196C882.456 331.906 881.688 331.761 880.818 331.761C879.036 331.761 877.63 332.275 876.601 333.304C875.586 334.333 874.941 335.761 874.666 337.587H886.231ZM889.731 347.935C889.21 348.543 888.608 349.072 887.927 349.522C887.246 349.957 886.521 350.312 885.753 350.587C884.985 350.862 884.188 351.065 883.362 351.196C882.55 351.326 881.746 351.391 880.949 351.391C879.427 351.391 878.014 351.138 876.71 350.63C875.42 350.109 874.296 349.355 873.34 348.37C872.398 347.37 871.659 346.138 871.123 344.674C870.601 343.196 870.34 341.5 870.34 339.587C870.34 338.051 870.579 336.623 871.057 335.304C871.536 333.971 872.217 332.812 873.101 331.826C873.999 330.841 875.094 330.065 876.383 329.5C877.673 328.935 879.123 328.652 880.731 328.652C882.079 328.652 883.318 328.877 884.449 329.326C885.594 329.761 886.579 330.399 887.405 331.239C888.231 332.08 888.876 333.116 889.34 334.348C889.818 335.58 890.057 336.986 890.057 338.565C890.057 339.217 889.985 339.659 889.84 339.891C889.695 340.109 889.427 340.217 889.036 340.217H874.557C874.601 341.536 874.789 342.688 875.123 343.674C875.456 344.645 875.912 345.457 876.492 346.109C877.086 346.761 877.789 347.246 878.601 347.565C879.412 347.884 880.318 348.043 881.318 348.043C882.26 348.043 883.072 347.935 883.753 347.717C884.449 347.5 885.043 347.268 885.536 347.022C886.043 346.761 886.463 346.522 886.796 346.304C887.144 346.087 887.449 345.978 887.71 345.978C888.057 345.978 888.325 346.109 888.514 346.37L889.731 347.935Z" fill="#41A5DD"/>
<path d="M172.303 336.909V344.525C172.303 344.81 172.266 345.073 172.191 345.316C172.116 345.563 171.997 345.778 171.834 345.96C171.671 346.142 171.461 346.284 171.204 346.387C170.952 346.494 170.649 346.548 170.294 346.548C170.145 346.548 170.007 346.536 169.881 346.513C169.755 346.49 169.629 346.455 169.503 346.408L169.552 345.736C169.561 345.694 169.578 345.661 169.601 345.638C169.62 345.619 169.648 345.608 169.685 345.603C169.722 345.598 169.771 345.596 169.832 345.596C169.888 345.601 169.96 345.603 170.049 345.603C170.413 345.603 170.672 345.517 170.826 345.344C170.98 345.176 171.057 344.903 171.057 344.525V336.909H172.303ZM172.562 334.683C172.562 334.804 172.536 334.919 172.485 335.026C172.438 335.129 172.373 335.222 172.289 335.306C172.21 335.385 172.116 335.448 172.009 335.495C171.902 335.542 171.787 335.565 171.666 335.565C171.545 335.565 171.43 335.542 171.323 335.495C171.22 335.448 171.129 335.385 171.05 335.306C170.971 335.222 170.908 335.129 170.861 335.026C170.814 334.919 170.791 334.804 170.791 334.683C170.791 334.562 170.814 334.447 170.861 334.34C170.908 334.228 170.971 334.132 171.05 334.053C171.129 333.969 171.22 333.904 171.323 333.857C171.43 333.81 171.545 333.787 171.666 333.787C171.787 333.787 171.902 333.81 172.009 333.857C172.116 333.904 172.21 333.969 172.289 334.053C172.373 334.132 172.438 334.228 172.485 334.34C172.536 334.447 172.562 334.562 172.562 334.683Z" fill="black"/>
</svg>
