<svg width="1204" height="678" viewBox="0 0 1204 678" fill="none" xmlns="http://www.w3.org/2000/svg">
<rect width="1204" height="677.25" fill="white"/>
<line x1="812" y1="338.5" x2="826" y2="338.5" stroke="black"/>
<line x1="812" y1="357.5" x2="826" y2="357.5" stroke="black"/>
<line x1="825.5" y1="358" x2="825.5" y2="339" stroke="black"/>
<path d="M841.11 349.381V345.244C841.11 345.123 841.115 344.99 841.124 344.845C841.133 344.7 841.147 344.553 841.166 344.404L837.512 349.381H841.11ZM843.721 349.381V350.095C843.721 350.17 843.698 350.233 843.651 350.284C843.609 350.335 843.541 350.361 843.448 350.361H842.202V353H841.11V350.361H836.658C836.565 350.361 836.483 350.335 836.413 350.284C836.348 350.228 836.306 350.16 836.287 350.081L836.161 349.444L841.04 342.969H842.202V349.381H843.721ZM848.467 352.076C848.803 352.076 849.106 352.022 849.377 351.915C849.652 351.808 849.886 351.658 850.077 351.467C850.273 351.276 850.422 351.049 850.525 350.788C850.632 350.527 850.686 350.242 850.686 349.934C850.686 349.607 850.635 349.313 850.532 349.052C850.429 348.786 850.282 348.562 850.091 348.38C849.904 348.193 849.68 348.051 849.419 347.953C849.158 347.855 848.871 347.806 848.558 347.806C848.222 347.806 847.919 347.864 847.648 347.981C847.377 348.093 847.146 348.247 846.955 348.443C846.768 348.634 846.624 348.858 846.521 349.115C846.423 349.367 846.374 349.631 846.374 349.906C846.374 350.228 846.421 350.522 846.514 350.788C846.607 351.054 846.743 351.283 846.92 351.474C847.102 351.665 847.321 351.815 847.578 351.922C847.839 352.025 848.136 352.076 848.467 352.076ZM847.739 346.728C847.65 346.84 847.564 346.95 847.48 347.057C847.401 347.16 847.324 347.262 847.249 347.365C847.487 347.202 847.748 347.076 848.033 346.987C848.318 346.898 848.628 346.854 848.964 346.854C849.37 346.854 849.753 346.922 850.112 347.057C850.471 347.188 850.784 347.381 851.05 347.638C851.321 347.89 851.535 348.203 851.694 348.576C851.853 348.945 851.932 349.367 851.932 349.843C851.932 350.305 851.848 350.734 851.68 351.131C851.512 351.528 851.276 351.873 850.973 352.167C850.674 352.461 850.313 352.692 849.888 352.86C849.468 353.028 849.004 353.112 848.495 353.112C847.991 353.112 847.534 353.033 847.123 352.874C846.712 352.711 846.362 352.482 846.073 352.188C845.788 351.889 845.567 351.53 845.408 351.11C845.254 350.685 845.177 350.212 845.177 349.689C845.177 349.25 845.273 348.784 845.464 348.289C845.66 347.79 845.97 347.258 846.395 346.693L848.943 343.27C849.008 343.186 849.097 343.116 849.209 343.06C849.326 342.999 849.459 342.969 849.608 342.969H850.714L847.739 346.728ZM857.896 345.391C857.896 345.783 857.836 346.135 857.714 346.448C857.593 346.756 857.43 347.017 857.224 347.232C857.024 347.442 856.788 347.603 856.517 347.715C856.251 347.827 855.969 347.883 855.67 347.883C855.358 347.883 855.066 347.827 854.795 347.715C854.525 347.603 854.289 347.442 854.088 347.232C853.892 347.017 853.738 346.756 853.626 346.448C853.514 346.135 853.458 345.783 853.458 345.391C853.458 344.99 853.514 344.633 853.626 344.32C853.738 344.007 853.892 343.744 854.088 343.529C854.289 343.314 854.525 343.151 854.795 343.039C855.066 342.927 855.358 342.871 855.67 342.871C855.988 342.871 856.282 342.927 856.552 343.039C856.823 343.151 857.059 343.314 857.259 343.529C857.46 343.744 857.616 344.007 857.728 344.32C857.84 344.633 857.896 344.99 857.896 345.391ZM856.93 345.391C856.93 345.083 856.898 344.822 856.832 344.607C856.767 344.392 856.676 344.217 856.559 344.082C856.447 343.942 856.314 343.842 856.16 343.781C856.006 343.72 855.843 343.69 855.67 343.69C855.498 343.69 855.337 343.72 855.187 343.781C855.038 343.842 854.907 343.942 854.795 344.082C854.683 344.217 854.595 344.392 854.529 344.607C854.464 344.822 854.431 345.083 854.431 345.391C854.431 345.694 854.464 345.953 854.529 346.168C854.595 346.378 854.683 346.551 854.795 346.686C854.907 346.817 855.038 346.912 855.187 346.973C855.337 347.029 855.498 347.057 855.67 347.057C855.843 347.057 856.006 347.029 856.16 346.973C856.314 346.912 856.447 346.817 856.559 346.686C856.676 346.551 856.767 346.378 856.832 346.168C856.898 345.953 856.93 345.694 856.93 345.391ZM861.445 343.179C861.492 343.123 861.546 343.074 861.606 343.032C861.672 342.99 861.758 342.969 861.865 342.969H862.768L855.432 352.797C855.39 352.858 855.337 352.907 855.271 352.944C855.206 352.981 855.127 353 855.033 353H854.116L861.445 343.179ZM863.447 350.634C863.447 351.026 863.387 351.376 863.265 351.684C863.144 351.992 862.981 352.253 862.775 352.468C862.575 352.678 862.339 352.839 862.068 352.951C861.802 353.063 861.52 353.119 861.221 353.119C860.904 353.119 860.61 353.063 860.339 352.951C860.073 352.839 859.84 352.678 859.639 352.468C859.443 352.253 859.289 351.992 859.177 351.684C859.065 351.376 859.009 351.026 859.009 350.634C859.009 350.233 859.065 349.876 859.177 349.563C859.289 349.246 859.443 348.98 859.639 348.765C859.84 348.55 860.073 348.387 860.339 348.275C860.61 348.163 860.904 348.107 861.221 348.107C861.534 348.107 861.826 348.163 862.096 348.275C862.372 348.387 862.607 348.55 862.803 348.765C863.004 348.98 863.16 349.246 863.272 349.563C863.389 349.876 863.447 350.233 863.447 350.634ZM862.481 350.634C862.481 350.326 862.449 350.065 862.383 349.85C862.318 349.631 862.227 349.453 862.11 349.318C861.998 349.183 861.865 349.085 861.711 349.024C861.557 348.963 861.394 348.933 861.221 348.933C861.049 348.933 860.885 348.963 860.731 349.024C860.582 349.085 860.451 349.183 860.339 349.318C860.227 349.453 860.139 349.631 860.073 349.85C860.013 350.065 859.982 350.326 859.982 350.634C859.982 350.937 860.013 351.194 860.073 351.404C860.139 351.614 860.227 351.787 860.339 351.922C860.451 352.053 860.582 352.148 860.731 352.209C860.885 352.265 861.049 352.293 861.221 352.293C861.394 352.293 861.557 352.265 861.711 352.209C861.865 352.148 861.998 352.053 862.11 351.922C862.227 351.787 862.318 351.614 862.383 351.404C862.449 351.194 862.481 350.937 862.481 350.634ZM872.225 345.797C872.743 345.797 873.209 345.883 873.625 346.056C874.04 346.229 874.395 346.474 874.689 346.791C874.983 347.108 875.207 347.493 875.361 347.946C875.519 348.394 875.599 348.896 875.599 349.451C875.599 350.011 875.519 350.515 875.361 350.963C875.207 351.411 874.983 351.794 874.689 352.111C874.395 352.428 874.04 352.673 873.625 352.846C873.209 353.014 872.743 353.098 872.225 353.098C871.702 353.098 871.231 353.014 870.811 352.846C870.395 352.673 870.041 352.428 869.747 352.111C869.453 351.794 869.226 351.411 869.068 350.963C868.914 350.515 868.837 350.011 868.837 349.451C868.837 348.896 868.914 348.394 869.068 347.946C869.226 347.493 869.453 347.108 869.747 346.791C870.041 346.474 870.395 346.229 870.811 346.056C871.231 345.883 871.702 345.797 872.225 345.797ZM872.225 352.125C872.925 352.125 873.447 351.892 873.793 351.425C874.138 350.954 874.311 350.298 874.311 349.458C874.311 348.613 874.138 347.955 873.793 347.484C873.447 347.013 872.925 346.777 872.225 346.777C871.87 346.777 871.56 346.838 871.294 346.959C871.032 347.08 870.813 347.255 870.636 347.484C870.463 347.713 870.332 347.995 870.244 348.331C870.16 348.662 870.118 349.038 870.118 349.458C870.118 350.298 870.29 350.954 870.636 351.425C870.986 351.892 871.515 352.125 872.225 352.125ZM877.791 353V346.973L877.007 346.882C876.909 346.859 876.827 346.824 876.762 346.777C876.701 346.726 876.671 346.653 876.671 346.56V346.049H877.791V345.363C877.791 344.957 877.847 344.598 877.959 344.285C878.075 343.968 878.239 343.702 878.449 343.487C878.663 343.268 878.92 343.102 879.219 342.99C879.517 342.878 879.853 342.822 880.227 342.822C880.544 342.822 880.836 342.869 881.102 342.962L881.074 343.585C881.064 343.697 881.001 343.758 880.885 343.767C880.773 343.776 880.621 343.781 880.43 343.781C880.215 343.781 880.019 343.809 879.842 343.865C879.669 343.921 879.52 344.012 879.394 344.138C879.268 344.264 879.17 344.43 879.1 344.635C879.034 344.84 879.002 345.095 879.002 345.398V346.049H881.046V346.952H879.044V353H877.791ZM887.342 347.33C887.566 346.845 887.842 346.467 888.168 346.196C888.495 345.921 888.894 345.783 889.365 345.783C889.515 345.783 889.657 345.799 889.792 345.832C889.932 345.865 890.056 345.916 890.163 345.986L890.072 346.917C890.044 347.034 889.974 347.092 889.862 347.092C889.797 347.092 889.701 347.078 889.575 347.05C889.449 347.022 889.307 347.008 889.148 347.008C888.924 347.008 888.724 347.041 888.546 347.106C888.374 347.171 888.217 347.269 888.077 347.4C887.942 347.526 887.818 347.685 887.706 347.876C887.599 348.063 887.501 348.277 887.412 348.52V353H886.159V345.909H886.873C887.009 345.909 887.102 345.935 887.153 345.986C887.205 346.037 887.24 346.126 887.258 346.252L887.342 347.33Z" fill="black"/>
<rect x="409.5" y="218.5" width="392" height="49" stroke="#D8D8D8"/>
<rect x="409.5" y="358.5" width="392" height="49" stroke="#D8D8D8"/>
<rect x="409.5" y="318.5" width="392" height="19" stroke="#D8D8D8"/>
<rect x="409.5" y="407.5" width="189" height="49" transform="rotate(-90 409.5 407.5)" stroke="#D8D8D8"/>
<rect x="752.5" y="407.5" width="189" height="49" transform="rotate(-90 752.5 407.5)" stroke="#D8D8D8"/>
<line x1="812" y1="267.5" x2="826" y2="267.5" stroke="black"/>
<line x1="812" y1="317.5" x2="826" y2="317.5" stroke="black"/>
<line x1="825.5" y1="318" x2="825.5" y2="268" stroke="black"/>
<path d="M838.17 293.33C838.394 292.845 838.669 292.467 838.996 292.196C839.323 291.921 839.722 291.783 840.193 291.783C840.342 291.783 840.485 291.799 840.62 291.832C840.76 291.865 840.884 291.916 840.991 291.986L840.9 292.917C840.872 293.034 840.802 293.092 840.69 293.092C840.625 293.092 840.529 293.078 840.403 293.05C840.277 293.022 840.135 293.008 839.976 293.008C839.752 293.008 839.551 293.041 839.374 293.106C839.201 293.171 839.045 293.269 838.905 293.4C838.77 293.526 838.646 293.685 838.534 293.876C838.427 294.063 838.329 294.277 838.24 294.52V299H836.987V291.909H837.701C837.836 291.909 837.93 291.935 837.981 291.986C838.032 292.037 838.067 292.126 838.086 292.252L838.17 293.33Z" fill="black"/>
<line x1="399" y1="268.5" x2="385" y2="268.5" stroke="black"/>
<line x1="399" y1="218.5" x2="385" y2="218.5" stroke="black"/>
<line x1="385.5" y1="218" x2="385.5" y2="268" stroke="black"/>
<path d="M321.126 247.048V248H315.75V247.048H317.899V240.209C317.899 240.004 317.906 239.796 317.92 239.586L316.135 241.119C316.074 241.17 316.014 241.203 315.953 241.217C315.892 241.226 315.836 241.226 315.785 241.217C315.734 241.208 315.685 241.189 315.638 241.161C315.596 241.133 315.563 241.103 315.54 241.07L315.148 240.531L318.137 237.948H319.152V247.048H321.126ZM330.121 242.988C330.121 243.865 330.025 244.626 329.834 245.27C329.647 245.909 329.391 246.439 329.064 246.859C328.737 247.279 328.35 247.592 327.902 247.797C327.459 248.002 326.983 248.105 326.474 248.105C325.961 248.105 325.482 248.002 325.039 247.797C324.6 247.592 324.218 247.279 323.891 246.859C323.564 246.439 323.308 245.909 323.121 245.27C322.934 244.626 322.841 243.865 322.841 242.988C322.841 242.111 322.934 241.35 323.121 240.706C323.308 240.062 323.564 239.53 323.891 239.11C324.218 238.685 324.6 238.37 325.039 238.165C325.482 237.96 325.961 237.857 326.474 237.857C326.983 237.857 327.459 237.96 327.902 238.165C328.35 238.37 328.737 238.685 329.064 239.11C329.391 239.53 329.647 240.062 329.834 240.706C330.025 241.35 330.121 242.111 330.121 242.988ZM328.826 242.988C328.826 242.223 328.761 241.581 328.63 241.063C328.504 240.54 328.331 240.12 328.112 239.803C327.897 239.486 327.648 239.259 327.363 239.124C327.078 238.984 326.782 238.914 326.474 238.914C326.166 238.914 325.87 238.984 325.585 239.124C325.3 239.259 325.051 239.486 324.836 239.803C324.621 240.12 324.449 240.54 324.318 241.063C324.192 241.581 324.129 242.223 324.129 242.988C324.129 243.753 324.192 244.395 324.318 244.913C324.449 245.431 324.621 245.849 324.836 246.166C325.051 246.483 325.3 246.712 325.585 246.852C325.87 246.987 326.166 247.055 326.474 247.055C326.782 247.055 327.078 246.987 327.363 246.852C327.648 246.712 327.897 246.483 328.112 246.166C328.331 245.849 328.504 245.431 328.63 244.913C328.761 244.395 328.826 243.753 328.826 242.988ZM338.542 242.988C338.542 243.865 338.447 244.626 338.255 245.27C338.069 245.909 337.812 246.439 337.485 246.859C337.159 247.279 336.771 247.592 336.323 247.797C335.88 248.002 335.404 248.105 334.895 248.105C334.382 248.105 333.904 248.002 333.46 247.797C333.022 247.592 332.639 247.279 332.312 246.859C331.986 246.439 331.729 245.909 331.542 245.27C331.356 244.626 331.262 243.865 331.262 242.988C331.262 242.111 331.356 241.35 331.542 240.706C331.729 240.062 331.986 239.53 332.312 239.11C332.639 238.685 333.022 238.37 333.46 238.165C333.904 237.96 334.382 237.857 334.895 237.857C335.404 237.857 335.88 237.96 336.323 238.165C336.771 238.37 337.159 238.685 337.485 239.11C337.812 239.53 338.069 240.062 338.255 240.706C338.447 241.35 338.542 242.111 338.542 242.988ZM337.247 242.988C337.247 242.223 337.182 241.581 337.051 241.063C336.925 240.54 336.753 240.12 336.533 239.803C336.319 239.486 336.069 239.259 335.784 239.124C335.5 238.984 335.203 238.914 334.895 238.914C334.587 238.914 334.291 238.984 334.006 239.124C333.722 239.259 333.472 239.486 333.257 239.803C333.043 240.12 332.87 240.54 332.739 241.063C332.613 241.581 332.55 242.223 332.55 242.988C332.55 243.753 332.613 244.395 332.739 244.913C332.87 245.431 333.043 245.849 333.257 246.166C333.472 246.483 333.722 246.712 334.006 246.852C334.291 246.987 334.587 247.055 334.895 247.055C335.203 247.055 335.5 246.987 335.784 246.852C336.069 246.712 336.319 246.483 336.533 246.166C336.753 245.849 336.925 245.431 337.051 244.913C337.182 244.395 337.247 243.753 337.247 242.988ZM344.317 240.391C344.317 240.783 344.257 241.135 344.135 241.448C344.014 241.756 343.851 242.017 343.645 242.232C343.445 242.442 343.209 242.603 342.938 242.715C342.672 242.827 342.39 242.883 342.091 242.883C341.779 242.883 341.487 242.827 341.216 242.715C340.946 242.603 340.71 242.442 340.509 242.232C340.313 242.017 340.159 241.756 340.047 241.448C339.935 241.135 339.879 240.783 339.879 240.391C339.879 239.99 339.935 239.633 340.047 239.32C340.159 239.007 340.313 238.744 340.509 238.529C340.71 238.314 340.946 238.151 341.216 238.039C341.487 237.927 341.779 237.871 342.091 237.871C342.409 237.871 342.703 237.927 342.973 238.039C343.244 238.151 343.48 238.314 343.68 238.529C343.881 238.744 344.037 239.007 344.149 239.32C344.261 239.633 344.317 239.99 344.317 240.391ZM343.351 240.391C343.351 240.083 343.319 239.822 343.253 239.607C343.188 239.392 343.097 239.217 342.98 239.082C342.868 238.942 342.735 238.842 342.581 238.781C342.427 238.72 342.264 238.69 342.091 238.69C341.919 238.69 341.758 238.72 341.608 238.781C341.459 238.842 341.328 238.942 341.216 239.082C341.104 239.217 341.016 239.392 340.95 239.607C340.885 239.822 340.852 240.083 340.852 240.391C340.852 240.694 340.885 240.953 340.95 241.168C341.016 241.378 341.104 241.551 341.216 241.686C341.328 241.817 341.459 241.912 341.608 241.973C341.758 242.029 341.919 242.057 342.091 242.057C342.264 242.057 342.427 242.029 342.581 241.973C342.735 241.912 342.868 241.817 342.98 241.686C343.097 241.551 343.188 241.378 343.253 241.168C343.319 240.953 343.351 240.694 343.351 240.391ZM347.866 238.179C347.913 238.123 347.967 238.074 348.027 238.032C348.093 237.99 348.179 237.969 348.286 237.969H349.189L341.853 247.797C341.811 247.858 341.758 247.907 341.692 247.944C341.627 247.981 341.548 248 341.454 248H340.537L347.866 238.179ZM349.868 245.634C349.868 246.026 349.808 246.376 349.686 246.684C349.565 246.992 349.402 247.253 349.196 247.468C348.996 247.678 348.76 247.839 348.489 247.951C348.223 248.063 347.941 248.119 347.642 248.119C347.325 248.119 347.031 248.063 346.76 247.951C346.494 247.839 346.261 247.678 346.06 247.468C345.864 247.253 345.71 246.992 345.598 246.684C345.486 246.376 345.43 246.026 345.43 245.634C345.43 245.233 345.486 244.876 345.598 244.563C345.71 244.246 345.864 243.98 346.06 243.765C346.261 243.55 346.494 243.387 346.76 243.275C347.031 243.163 347.325 243.107 347.642 243.107C347.955 243.107 348.247 243.163 348.517 243.275C348.793 243.387 349.028 243.55 349.224 243.765C349.425 243.98 349.581 244.246 349.693 244.563C349.81 244.876 349.868 245.233 349.868 245.634ZM348.902 245.634C348.902 245.326 348.87 245.065 348.804 244.85C348.739 244.631 348.648 244.453 348.531 244.318C348.419 244.183 348.286 244.085 348.132 244.024C347.978 243.963 347.815 243.933 347.642 243.933C347.47 243.933 347.306 243.963 347.152 244.024C347.003 244.085 346.872 244.183 346.76 244.318C346.648 244.453 346.56 244.631 346.494 244.85C346.434 245.065 346.403 245.326 346.403 245.634C346.403 245.937 346.434 246.194 346.494 246.404C346.56 246.614 346.648 246.787 346.76 246.922C346.872 247.053 347.003 247.148 347.152 247.209C347.306 247.265 347.47 247.293 347.642 247.293C347.815 247.293 347.978 247.265 348.132 247.209C348.286 247.148 348.419 247.053 348.531 246.922C348.648 246.787 348.739 246.614 348.804 246.404C348.87 246.194 348.902 245.937 348.902 245.634ZM358.646 240.797C359.164 240.797 359.631 240.883 360.046 241.056C360.461 241.229 360.816 241.474 361.11 241.791C361.404 242.108 361.628 242.493 361.782 242.946C361.941 243.394 362.02 243.896 362.02 244.451C362.02 245.011 361.941 245.515 361.782 245.963C361.628 246.411 361.404 246.794 361.11 247.111C360.816 247.428 360.461 247.673 360.046 247.846C359.631 248.014 359.164 248.098 358.646 248.098C358.123 248.098 357.652 248.014 357.232 247.846C356.817 247.673 356.462 247.428 356.168 247.111C355.874 246.794 355.648 246.411 355.489 245.963C355.335 245.515 355.258 245.011 355.258 244.451C355.258 243.896 355.335 243.394 355.489 242.946C355.648 242.493 355.874 242.108 356.168 241.791C356.462 241.474 356.817 241.229 357.232 241.056C357.652 240.883 358.123 240.797 358.646 240.797ZM358.646 247.125C359.346 247.125 359.869 246.892 360.214 246.425C360.559 245.954 360.732 245.298 360.732 244.458C360.732 243.613 360.559 242.955 360.214 242.484C359.869 242.013 359.346 241.777 358.646 241.777C358.291 241.777 357.981 241.838 357.715 241.959C357.454 242.08 357.234 242.255 357.057 242.484C356.884 242.713 356.754 242.995 356.665 243.331C356.581 243.662 356.539 244.038 356.539 244.458C356.539 245.298 356.712 245.954 357.057 246.425C357.407 246.892 357.937 247.125 358.646 247.125ZM364.212 248V241.973L363.428 241.882C363.33 241.859 363.248 241.824 363.183 241.777C363.122 241.726 363.092 241.653 363.092 241.56V241.049H364.212V240.363C364.212 239.957 364.268 239.598 364.38 239.285C364.497 238.968 364.66 238.702 364.87 238.487C365.085 238.268 365.341 238.102 365.64 237.99C365.939 237.878 366.275 237.822 366.648 237.822C366.965 237.822 367.257 237.869 367.523 237.962L367.495 238.585C367.486 238.697 367.423 238.758 367.306 238.767C367.194 238.776 367.042 238.781 366.851 238.781C366.636 238.781 366.44 238.809 366.263 238.865C366.09 238.921 365.941 239.012 365.815 239.138C365.689 239.264 365.591 239.43 365.521 239.635C365.456 239.84 365.423 240.095 365.423 240.398V241.049H367.467V241.952H365.465V248H364.212ZM373.763 242.33C373.987 241.845 374.263 241.467 374.589 241.196C374.916 240.921 375.315 240.783 375.786 240.783C375.936 240.783 376.078 240.799 376.213 240.832C376.353 240.865 376.477 240.916 376.584 240.986L376.493 241.917C376.465 242.034 376.395 242.092 376.283 242.092C376.218 242.092 376.122 242.078 375.996 242.05C375.87 242.022 375.728 242.008 375.569 242.008C375.345 242.008 375.145 242.041 374.967 242.106C374.795 242.171 374.638 242.269 374.498 242.4C374.363 242.526 374.239 242.685 374.127 242.876C374.02 243.063 373.922 243.277 373.833 243.52V248H372.58V240.909H373.294C373.43 240.909 373.523 240.935 373.574 240.986C373.626 241.037 373.661 241.126 373.679 241.252L373.763 242.33Z" fill="black"/>
<line x1="459.5" y1="418" x2="459.5" y2="432" stroke="black"/>
<line x1="409.5" y1="418" x2="409.5" y2="432" stroke="black"/>
<line x1="409" y1="431.5" x2="459" y2="431.5" stroke="black"/>
<path d="M409.126 455.048V456H403.75V455.048H405.899V448.209C405.899 448.004 405.906 447.796 405.92 447.586L404.135 449.119C404.074 449.17 404.014 449.203 403.953 449.217C403.892 449.226 403.836 449.226 403.785 449.217C403.734 449.208 403.685 449.189 403.638 449.161C403.596 449.133 403.563 449.103 403.54 449.07L403.148 448.531L406.137 445.948H407.152V455.048H409.126ZM418.121 450.988C418.121 451.865 418.025 452.626 417.834 453.27C417.647 453.909 417.391 454.439 417.064 454.859C416.737 455.279 416.35 455.592 415.902 455.797C415.459 456.002 414.983 456.105 414.474 456.105C413.961 456.105 413.482 456.002 413.039 455.797C412.6 455.592 412.218 455.279 411.891 454.859C411.564 454.439 411.308 453.909 411.121 453.27C410.934 452.626 410.841 451.865 410.841 450.988C410.841 450.111 410.934 449.35 411.121 448.706C411.308 448.062 411.564 447.53 411.891 447.11C412.218 446.685 412.6 446.37 413.039 446.165C413.482 445.96 413.961 445.857 414.474 445.857C414.983 445.857 415.459 445.96 415.902 446.165C416.35 446.37 416.737 446.685 417.064 447.11C417.391 447.53 417.647 448.062 417.834 448.706C418.025 449.35 418.121 450.111 418.121 450.988ZM416.826 450.988C416.826 450.223 416.761 449.581 416.63 449.063C416.504 448.54 416.331 448.12 416.112 447.803C415.897 447.486 415.648 447.259 415.363 447.124C415.078 446.984 414.782 446.914 414.474 446.914C414.166 446.914 413.87 446.984 413.585 447.124C413.3 447.259 413.051 447.486 412.836 447.803C412.621 448.12 412.449 448.54 412.318 449.063C412.192 449.581 412.129 450.223 412.129 450.988C412.129 451.753 412.192 452.395 412.318 452.913C412.449 453.431 412.621 453.849 412.836 454.166C413.051 454.483 413.3 454.712 413.585 454.852C413.87 454.987 414.166 455.055 414.474 455.055C414.782 455.055 415.078 454.987 415.363 454.852C415.648 454.712 415.897 454.483 416.112 454.166C416.331 453.849 416.504 453.431 416.63 452.913C416.761 452.395 416.826 451.753 416.826 450.988ZM426.542 450.988C426.542 451.865 426.447 452.626 426.255 453.27C426.069 453.909 425.812 454.439 425.485 454.859C425.159 455.279 424.771 455.592 424.323 455.797C423.88 456.002 423.404 456.105 422.895 456.105C422.382 456.105 421.904 456.002 421.46 455.797C421.022 455.592 420.639 455.279 420.312 454.859C419.986 454.439 419.729 453.909 419.542 453.27C419.356 452.626 419.262 451.865 419.262 450.988C419.262 450.111 419.356 449.35 419.542 448.706C419.729 448.062 419.986 447.53 420.312 447.11C420.639 446.685 421.022 446.37 421.46 446.165C421.904 445.96 422.382 445.857 422.895 445.857C423.404 445.857 423.88 445.96 424.323 446.165C424.771 446.37 425.159 446.685 425.485 447.11C425.812 447.53 426.069 448.062 426.255 448.706C426.447 449.35 426.542 450.111 426.542 450.988ZM425.247 450.988C425.247 450.223 425.182 449.581 425.051 449.063C424.925 448.54 424.753 448.12 424.533 447.803C424.319 447.486 424.069 447.259 423.784 447.124C423.5 446.984 423.203 446.914 422.895 446.914C422.587 446.914 422.291 446.984 422.006 447.124C421.722 447.259 421.472 447.486 421.257 447.803C421.043 448.12 420.87 448.54 420.739 449.063C420.613 449.581 420.55 450.223 420.55 450.988C420.55 451.753 420.613 452.395 420.739 452.913C420.87 453.431 421.043 453.849 421.257 454.166C421.472 454.483 421.722 454.712 422.006 454.852C422.291 454.987 422.587 455.055 422.895 455.055C423.203 455.055 423.5 454.987 423.784 454.852C424.069 454.712 424.319 454.483 424.533 454.166C424.753 453.849 424.925 453.431 425.051 452.913C425.182 452.395 425.247 451.753 425.247 450.988ZM432.317 448.391C432.317 448.783 432.257 449.135 432.135 449.448C432.014 449.756 431.851 450.017 431.645 450.232C431.445 450.442 431.209 450.603 430.938 450.715C430.672 450.827 430.39 450.883 430.091 450.883C429.779 450.883 429.487 450.827 429.216 450.715C428.946 450.603 428.71 450.442 428.509 450.232C428.313 450.017 428.159 449.756 428.047 449.448C427.935 449.135 427.879 448.783 427.879 448.391C427.879 447.99 427.935 447.633 428.047 447.32C428.159 447.007 428.313 446.744 428.509 446.529C428.71 446.314 428.946 446.151 429.216 446.039C429.487 445.927 429.779 445.871 430.091 445.871C430.409 445.871 430.703 445.927 430.973 446.039C431.244 446.151 431.48 446.314 431.68 446.529C431.881 446.744 432.037 447.007 432.149 447.32C432.261 447.633 432.317 447.99 432.317 448.391ZM431.351 448.391C431.351 448.083 431.319 447.822 431.253 447.607C431.188 447.392 431.097 447.217 430.98 447.082C430.868 446.942 430.735 446.842 430.581 446.781C430.427 446.72 430.264 446.69 430.091 446.69C429.919 446.69 429.758 446.72 429.608 446.781C429.459 446.842 429.328 446.942 429.216 447.082C429.104 447.217 429.016 447.392 428.95 447.607C428.885 447.822 428.852 448.083 428.852 448.391C428.852 448.694 428.885 448.953 428.95 449.168C429.016 449.378 429.104 449.551 429.216 449.686C429.328 449.817 429.459 449.912 429.608 449.973C429.758 450.029 429.919 450.057 430.091 450.057C430.264 450.057 430.427 450.029 430.581 449.973C430.735 449.912 430.868 449.817 430.98 449.686C431.097 449.551 431.188 449.378 431.253 449.168C431.319 448.953 431.351 448.694 431.351 448.391ZM435.866 446.179C435.913 446.123 435.967 446.074 436.027 446.032C436.093 445.99 436.179 445.969 436.286 445.969H437.189L429.853 455.797C429.811 455.858 429.758 455.907 429.692 455.944C429.627 455.981 429.548 456 429.454 456H428.537L435.866 446.179ZM437.868 453.634C437.868 454.026 437.808 454.376 437.686 454.684C437.565 454.992 437.402 455.253 437.196 455.468C436.996 455.678 436.76 455.839 436.489 455.951C436.223 456.063 435.941 456.119 435.642 456.119C435.325 456.119 435.031 456.063 434.76 455.951C434.494 455.839 434.261 455.678 434.06 455.468C433.864 455.253 433.71 454.992 433.598 454.684C433.486 454.376 433.43 454.026 433.43 453.634C433.43 453.233 433.486 452.876 433.598 452.563C433.71 452.246 433.864 451.98 434.06 451.765C434.261 451.55 434.494 451.387 434.76 451.275C435.031 451.163 435.325 451.107 435.642 451.107C435.955 451.107 436.247 451.163 436.517 451.275C436.793 451.387 437.028 451.55 437.224 451.765C437.425 451.98 437.581 452.246 437.693 452.563C437.81 452.876 437.868 453.233 437.868 453.634ZM436.902 453.634C436.902 453.326 436.87 453.065 436.804 452.85C436.739 452.631 436.648 452.453 436.531 452.318C436.419 452.183 436.286 452.085 436.132 452.024C435.978 451.963 435.815 451.933 435.642 451.933C435.47 451.933 435.306 451.963 435.152 452.024C435.003 452.085 434.872 452.183 434.76 452.318C434.648 452.453 434.56 452.631 434.494 452.85C434.434 453.065 434.403 453.326 434.403 453.634C434.403 453.937 434.434 454.194 434.494 454.404C434.56 454.614 434.648 454.787 434.76 454.922C434.872 455.053 435.003 455.148 435.152 455.209C435.306 455.265 435.47 455.293 435.642 455.293C435.815 455.293 435.978 455.265 436.132 455.209C436.286 455.148 436.419 455.053 436.531 454.922C436.648 454.787 436.739 454.614 436.804 454.404C436.87 454.194 436.902 453.937 436.902 453.634ZM446.646 448.797C447.164 448.797 447.631 448.883 448.046 449.056C448.461 449.229 448.816 449.474 449.11 449.791C449.404 450.108 449.628 450.493 449.782 450.946C449.941 451.394 450.02 451.896 450.02 452.451C450.02 453.011 449.941 453.515 449.782 453.963C449.628 454.411 449.404 454.794 449.11 455.111C448.816 455.428 448.461 455.673 448.046 455.846C447.631 456.014 447.164 456.098 446.646 456.098C446.123 456.098 445.652 456.014 445.232 455.846C444.817 455.673 444.462 455.428 444.168 455.111C443.874 454.794 443.648 454.411 443.489 453.963C443.335 453.515 443.258 453.011 443.258 452.451C443.258 451.896 443.335 451.394 443.489 450.946C443.648 450.493 443.874 450.108 444.168 449.791C444.462 449.474 444.817 449.229 445.232 449.056C445.652 448.883 446.123 448.797 446.646 448.797ZM446.646 455.125C447.346 455.125 447.869 454.892 448.214 454.425C448.559 453.954 448.732 453.298 448.732 452.458C448.732 451.613 448.559 450.955 448.214 450.484C447.869 450.013 447.346 449.777 446.646 449.777C446.291 449.777 445.981 449.838 445.715 449.959C445.454 450.08 445.234 450.255 445.057 450.484C444.884 450.713 444.754 450.995 444.665 451.331C444.581 451.662 444.539 452.038 444.539 452.458C444.539 453.298 444.712 453.954 445.057 454.425C445.407 454.892 445.937 455.125 446.646 455.125ZM452.212 456V449.973L451.428 449.882C451.33 449.859 451.248 449.824 451.183 449.777C451.122 449.726 451.092 449.653 451.092 449.56V449.049H452.212V448.363C452.212 447.957 452.268 447.598 452.38 447.285C452.497 446.968 452.66 446.702 452.87 446.487C453.085 446.268 453.341 446.102 453.64 445.99C453.939 445.878 454.275 445.822 454.648 445.822C454.965 445.822 455.257 445.869 455.523 445.962L455.495 446.585C455.486 446.697 455.423 446.758 455.306 446.767C455.194 446.776 455.042 446.781 454.851 446.781C454.636 446.781 454.44 446.809 454.263 446.865C454.09 446.921 453.941 447.012 453.815 447.138C453.689 447.264 453.591 447.43 453.521 447.635C453.456 447.84 453.423 448.095 453.423 448.398V449.049H455.467V449.952H453.465V456H452.212ZM461.763 450.33C461.987 449.845 462.263 449.467 462.589 449.196C462.916 448.921 463.315 448.783 463.786 448.783C463.936 448.783 464.078 448.799 464.213 448.832C464.353 448.865 464.477 448.916 464.584 448.986L464.493 449.917C464.465 450.034 464.395 450.092 464.283 450.092C464.218 450.092 464.122 450.078 463.996 450.05C463.87 450.022 463.728 450.008 463.569 450.008C463.345 450.008 463.145 450.041 462.967 450.106C462.795 450.171 462.638 450.269 462.498 450.4C462.363 450.526 462.239 450.685 462.127 450.876C462.02 451.063 461.922 451.277 461.833 451.52V456H460.58V448.909H461.294C461.43 448.909 461.523 448.935 461.574 448.986C461.626 449.037 461.661 449.126 461.679 449.252L461.763 450.33Z" fill="black"/>
<line x1="399" y1="337.5" x2="385" y2="337.5" stroke="black"/>
<line x1="399" y1="318.5" x2="385" y2="318.5" stroke="black"/>
<line x1="385.5" y1="318" x2="385.5" y2="337" stroke="black"/>
<path d="M325.11 329.381V325.244C325.11 325.123 325.115 324.99 325.124 324.845C325.133 324.7 325.147 324.553 325.166 324.404L321.512 329.381H325.11ZM327.721 329.381V330.095C327.721 330.17 327.698 330.233 327.651 330.284C327.609 330.335 327.541 330.361 327.448 330.361H326.202V333H325.11V330.361H320.658C320.565 330.361 320.483 330.335 320.413 330.284C320.348 330.228 320.306 330.16 320.287 330.081L320.161 329.444L325.04 322.969H326.202V329.381H327.721ZM336.121 327.988C336.121 328.865 336.025 329.626 335.834 330.27C335.647 330.909 335.391 331.439 335.064 331.859C334.737 332.279 334.35 332.592 333.902 332.797C333.459 333.002 332.983 333.105 332.474 333.105C331.961 333.105 331.482 333.002 331.039 332.797C330.6 332.592 330.218 332.279 329.891 331.859C329.564 331.439 329.308 330.909 329.121 330.27C328.934 329.626 328.841 328.865 328.841 327.988C328.841 327.111 328.934 326.35 329.121 325.706C329.308 325.062 329.564 324.53 329.891 324.11C330.218 323.685 330.6 323.37 331.039 323.165C331.482 322.96 331.961 322.857 332.474 322.857C332.983 322.857 333.459 322.96 333.902 323.165C334.35 323.37 334.737 323.685 335.064 324.11C335.391 324.53 335.647 325.062 335.834 325.706C336.025 326.35 336.121 327.111 336.121 327.988ZM334.826 327.988C334.826 327.223 334.761 326.581 334.63 326.063C334.504 325.54 334.331 325.12 334.112 324.803C333.897 324.486 333.648 324.259 333.363 324.124C333.078 323.984 332.782 323.914 332.474 323.914C332.166 323.914 331.87 323.984 331.585 324.124C331.3 324.259 331.051 324.486 330.836 324.803C330.621 325.12 330.449 325.54 330.318 326.063C330.192 326.581 330.129 327.223 330.129 327.988C330.129 328.753 330.192 329.395 330.318 329.913C330.449 330.431 330.621 330.849 330.836 331.166C331.051 331.483 331.3 331.712 331.585 331.852C331.87 331.987 332.166 332.055 332.474 332.055C332.782 332.055 333.078 331.987 333.363 331.852C333.648 331.712 333.897 331.483 334.112 331.166C334.331 330.849 334.504 330.431 334.63 329.913C334.761 329.395 334.826 328.753 334.826 327.988ZM341.896 325.391C341.896 325.783 341.836 326.135 341.714 326.448C341.593 326.756 341.43 327.017 341.224 327.232C341.024 327.442 340.788 327.603 340.517 327.715C340.251 327.827 339.969 327.883 339.67 327.883C339.358 327.883 339.066 327.827 338.795 327.715C338.525 327.603 338.289 327.442 338.088 327.232C337.892 327.017 337.738 326.756 337.626 326.448C337.514 326.135 337.458 325.783 337.458 325.391C337.458 324.99 337.514 324.633 337.626 324.32C337.738 324.007 337.892 323.744 338.088 323.529C338.289 323.314 338.525 323.151 338.795 323.039C339.066 322.927 339.358 322.871 339.67 322.871C339.988 322.871 340.282 322.927 340.552 323.039C340.823 323.151 341.059 323.314 341.259 323.529C341.46 323.744 341.616 324.007 341.728 324.32C341.84 324.633 341.896 324.99 341.896 325.391ZM340.93 325.391C340.93 325.083 340.898 324.822 340.832 324.607C340.767 324.392 340.676 324.217 340.559 324.082C340.447 323.942 340.314 323.842 340.16 323.781C340.006 323.72 339.843 323.69 339.67 323.69C339.498 323.69 339.337 323.72 339.187 323.781C339.038 323.842 338.907 323.942 338.795 324.082C338.683 324.217 338.595 324.392 338.529 324.607C338.464 324.822 338.431 325.083 338.431 325.391C338.431 325.694 338.464 325.953 338.529 326.168C338.595 326.378 338.683 326.551 338.795 326.686C338.907 326.817 339.038 326.912 339.187 326.973C339.337 327.029 339.498 327.057 339.67 327.057C339.843 327.057 340.006 327.029 340.16 326.973C340.314 326.912 340.447 326.817 340.559 326.686C340.676 326.551 340.767 326.378 340.832 326.168C340.898 325.953 340.93 325.694 340.93 325.391ZM345.445 323.179C345.492 323.123 345.546 323.074 345.606 323.032C345.672 322.99 345.758 322.969 345.865 322.969H346.768L339.432 332.797C339.39 332.858 339.337 332.907 339.271 332.944C339.206 332.981 339.127 333 339.033 333H338.116L345.445 323.179ZM347.447 330.634C347.447 331.026 347.387 331.376 347.265 331.684C347.144 331.992 346.981 332.253 346.775 332.468C346.575 332.678 346.339 332.839 346.068 332.951C345.802 333.063 345.52 333.119 345.221 333.119C344.904 333.119 344.61 333.063 344.339 332.951C344.073 332.839 343.84 332.678 343.639 332.468C343.443 332.253 343.289 331.992 343.177 331.684C343.065 331.376 343.009 331.026 343.009 330.634C343.009 330.233 343.065 329.876 343.177 329.563C343.289 329.246 343.443 328.98 343.639 328.765C343.84 328.55 344.073 328.387 344.339 328.275C344.61 328.163 344.904 328.107 345.221 328.107C345.534 328.107 345.826 328.163 346.096 328.275C346.372 328.387 346.607 328.55 346.803 328.765C347.004 328.98 347.16 329.246 347.272 329.563C347.389 329.876 347.447 330.233 347.447 330.634ZM346.481 330.634C346.481 330.326 346.449 330.065 346.383 329.85C346.318 329.631 346.227 329.453 346.11 329.318C345.998 329.183 345.865 329.085 345.711 329.024C345.557 328.963 345.394 328.933 345.221 328.933C345.049 328.933 344.885 328.963 344.731 329.024C344.582 329.085 344.451 329.183 344.339 329.318C344.227 329.453 344.139 329.631 344.073 329.85C344.013 330.065 343.982 330.326 343.982 330.634C343.982 330.937 344.013 331.194 344.073 331.404C344.139 331.614 344.227 331.787 344.339 331.922C344.451 332.053 344.582 332.148 344.731 332.209C344.885 332.265 345.049 332.293 345.221 332.293C345.394 332.293 345.557 332.265 345.711 332.209C345.865 332.148 345.998 332.053 346.11 331.922C346.227 331.787 346.318 331.614 346.383 331.404C346.449 331.194 346.481 330.937 346.481 330.634ZM356.225 325.797C356.743 325.797 357.209 325.883 357.625 326.056C358.04 326.229 358.395 326.474 358.689 326.791C358.983 327.108 359.207 327.493 359.361 327.946C359.519 328.394 359.599 328.896 359.599 329.451C359.599 330.011 359.519 330.515 359.361 330.963C359.207 331.411 358.983 331.794 358.689 332.111C358.395 332.428 358.04 332.673 357.625 332.846C357.209 333.014 356.743 333.098 356.225 333.098C355.702 333.098 355.231 333.014 354.811 332.846C354.395 332.673 354.041 332.428 353.747 332.111C353.453 331.794 353.226 331.411 353.068 330.963C352.914 330.515 352.837 330.011 352.837 329.451C352.837 328.896 352.914 328.394 353.068 327.946C353.226 327.493 353.453 327.108 353.747 326.791C354.041 326.474 354.395 326.229 354.811 326.056C355.231 325.883 355.702 325.797 356.225 325.797ZM356.225 332.125C356.925 332.125 357.447 331.892 357.793 331.425C358.138 330.954 358.311 330.298 358.311 329.458C358.311 328.613 358.138 327.955 357.793 327.484C357.447 327.013 356.925 326.777 356.225 326.777C355.87 326.777 355.56 326.838 355.294 326.959C355.032 327.08 354.813 327.255 354.636 327.484C354.463 327.713 354.332 327.995 354.244 328.331C354.16 328.662 354.118 329.038 354.118 329.458C354.118 330.298 354.29 330.954 354.636 331.425C354.986 331.892 355.515 332.125 356.225 332.125ZM361.791 333V326.973L361.007 326.882C360.909 326.859 360.827 326.824 360.762 326.777C360.701 326.726 360.671 326.653 360.671 326.56V326.049H361.791V325.363C361.791 324.957 361.847 324.598 361.959 324.285C362.075 323.968 362.239 323.702 362.449 323.487C362.663 323.268 362.92 323.102 363.219 322.99C363.517 322.878 363.853 322.822 364.227 322.822C364.544 322.822 364.836 322.869 365.102 322.962L365.074 323.585C365.064 323.697 365.001 323.758 364.885 323.767C364.773 323.776 364.621 323.781 364.43 323.781C364.215 323.781 364.019 323.809 363.842 323.865C363.669 323.921 363.52 324.012 363.394 324.138C363.268 324.264 363.17 324.43 363.1 324.635C363.034 324.84 363.002 325.095 363.002 325.398V326.049H365.046V326.952H363.044V333H361.791ZM371.342 327.33C371.566 326.845 371.842 326.467 372.168 326.196C372.495 325.921 372.894 325.783 373.365 325.783C373.515 325.783 373.657 325.799 373.792 325.832C373.932 325.865 374.056 325.916 374.163 325.986L374.072 326.917C374.044 327.034 373.974 327.092 373.862 327.092C373.797 327.092 373.701 327.078 373.575 327.05C373.449 327.022 373.307 327.008 373.148 327.008C372.924 327.008 372.724 327.041 372.546 327.106C372.374 327.171 372.217 327.269 372.077 327.4C371.942 327.526 371.818 327.685 371.706 327.876C371.599 328.063 371.501 328.277 371.412 328.52V333H370.159V325.909H370.873C371.009 325.909 371.102 325.935 371.153 325.986C371.205 326.037 371.24 326.126 371.258 326.252L371.342 327.33Z" fill="black"/>
<g clip-path="url(#clip0_5:0)">
<path fill-rule="evenodd" clip-rule="evenodd" d="M580.761 268.269C577.487 268.269 575.484 269.995 575.484 273.524V301.91H575.33L556.147 271.107C554.953 269.112 552.95 268.23 550.677 268.23C546.016 268.23 543.782 270.11 543.782 274.598V312.575C543.782 316.104 545.785 317.83 549.059 317.83C552.333 317.83 554.337 316.104 554.337 312.575V284.994H554.452L573.481 314.915C574.868 317.101 576.023 317.83 579.49 317.83C584.112 317.83 585.961 315.375 585.961 311.041V273.486C586.038 269.995 584.035 268.269 580.761 268.269Z" fill="#41A5DD"/>
<path fill-rule="evenodd" clip-rule="evenodd" d="M623.094 268.269C620.822 268.269 619.627 269.074 618.357 271.452L608.881 288.945L599.328 271.452C598.21 269.343 596.978 268.269 594.397 268.269C592.278 268.269 588.85 269.534 588.85 273.255C588.85 274.253 589.236 275.25 589.775 276.132L603.18 298.343V312.46C603.18 315.72 605.298 317.907 608.649 317.907C612.001 317.907 614.119 315.72 614.119 312.46V298.343L627.524 276.132C628.063 275.25 628.449 274.253 628.449 273.255C628.487 269.534 625.097 268.269 623.094 268.269Z" fill="#41A5DD"/>
<path fill-rule="evenodd" clip-rule="evenodd" d="M671.783 273.14C671.783 269.496 668.972 268.269 666.237 268.269C663.694 268.269 662.115 269.803 661.113 273.064L650.829 305.632H650.713L640.813 273.064C639.812 269.803 638.194 268.269 635.267 268.269C632.532 268.269 629.72 269.458 629.72 273.14C629.72 274.023 629.912 275.058 630.375 276.324L643.857 314.109C644.974 317.216 647.131 317.907 650.521 317.907C653.91 317.907 656.067 317.255 657.184 314.109L671.09 276.324C671.591 275.058 671.783 273.984 671.783 273.14Z" fill="#41A5DD"/>
<path fill-rule="evenodd" clip-rule="evenodd" d="M692.892 272.258C691.698 268.882 689.503 268.269 686.999 268.269H684.379C681.722 268.269 679.988 269.151 679.025 271.606L664.85 308.931C664.465 310.005 663.771 311.923 663.771 313.112C663.771 316.027 665.851 317.907 668.856 317.907C671.475 317.907 672.977 317.025 673.748 314.915L676.637 306.936H694.279L697.091 314.915C697.9 317.025 699.633 317.907 702.022 317.907C704.833 317.907 707.183 315.797 707.183 313.112C707.183 311.923 706.528 310.005 706.105 308.931L692.892 272.258ZM679.064 299.34L685.535 280.122H685.651L691.852 299.34H679.064Z" fill="#41A5DD"/>
<path fill-rule="evenodd" clip-rule="evenodd" d="M746.897 268.269C743.623 268.269 741.62 269.995 741.62 273.524V301.91H741.504L722.322 271.107C721.127 269.112 719.124 268.23 716.852 268.23C712.191 268.23 709.957 270.11 709.957 274.598V312.575C709.957 316.104 711.959 317.83 715.234 317.83C718.508 317.83 720.511 316.104 720.511 312.575V284.994H720.626L739.655 314.915C741.042 317.101 742.198 317.83 745.664 317.83C750.287 317.83 752.136 315.375 752.136 311.041V273.486C752.174 269.995 750.171 268.269 746.897 268.269Z" fill="#41A5DD"/>
<path d="M482.767 314.57C485.958 314.57 488.545 311.993 488.545 308.815C488.545 305.638 485.958 303.061 482.767 303.061C479.576 303.061 476.989 305.638 476.989 308.815C476.989 311.993 479.576 314.57 482.767 314.57Z" fill="#41A5DD"/>
<path fill-rule="evenodd" clip-rule="evenodd" d="M528.066 272.258C526.872 268.882 524.676 268.269 522.173 268.269H519.553C519.322 268.269 519.091 268.269 518.86 268.307H465.24C461.851 268.307 459.077 271.069 459.077 274.445V311.769C459.077 315.145 461.851 317.907 465.24 317.907H503.991V317.869H504.107C506.726 317.869 508.229 316.986 508.999 314.876L511.888 306.897H529.53L532.342 314.876C533.151 316.986 534.884 317.869 537.272 317.869C540.084 317.869 542.396 315.759 542.396 313.074C542.396 311.884 541.741 309.966 541.317 308.892L528.066 272.258ZM482.767 315.874C478.876 315.874 475.679 312.728 475.679 308.815C475.679 304.941 478.838 301.757 482.767 301.757C486.657 301.757 489.854 304.903 489.854 308.815C489.816 312.728 486.657 315.874 482.767 315.874ZM497.751 309.353H491.241C491.241 307.972 490.663 300.299 482.574 300.299C474.485 300.299 474.138 309.429 474.138 309.429H472.405C472.405 309.429 467.359 307.396 466.319 306.859C465.279 306.284 465.163 303.445 465.163 303.445V300.952H466.049V298.42C466.473 293.049 479.685 288.216 479.685 288.216C479.685 288.216 490.779 277.322 492.512 275.787C496.249 272.527 511.387 273.255 511.387 273.255L497.751 309.353ZM514.237 299.34L520.709 280.122H520.824L527.026 299.34H514.237Z" fill="#41A5DD"/>
<path fill-rule="evenodd" clip-rule="evenodd" d="M474.986 294.699C474.523 294.584 472.829 294.584 472.097 294.545C471.866 294.545 471.635 294.622 471.48 294.776C471.134 295.044 470.594 295.581 470.094 296.233C469.516 297 469.092 297.959 468.823 298.573C468.63 299.072 469.169 299.11 469.169 299.11L470.44 299.379C470.594 299.417 470.749 299.379 470.864 299.264L475.101 295.581C475.063 295.581 475.679 294.852 474.986 294.699Z" fill="#41A5DD"/>
<path fill-rule="evenodd" clip-rule="evenodd" d="M503.606 276.478C503.028 276.478 497.674 277.053 496.634 277.245C495.594 277.437 494.053 278.626 494.053 278.626L487.466 285.876V289.75L501.41 287.065C501.41 287.065 503.221 286.72 503.49 284.418C503.76 282.117 504.338 277.207 504.338 277.207C504.338 277.207 504.184 276.478 503.606 276.478Z" fill="#41A5DD"/>
</g>
<path d="M477.931 338.5V356.45H475.599V343.675C475.599 343.483 475.603 343.279 475.612 343.062C475.628 342.846 475.645 342.625 475.662 342.4L469.669 353.362C469.46 353.771 469.138 353.975 468.704 353.975H468.328C467.893 353.975 467.575 353.771 467.375 353.362L461.269 342.362C461.319 342.829 461.344 343.267 461.344 343.675V356.45H459V338.5H460.981C461.215 338.5 461.395 338.525 461.52 338.575C461.654 338.617 461.779 338.742 461.896 338.95L467.914 349.7C468.031 349.917 468.14 350.146 468.24 350.387C468.34 350.629 468.436 350.871 468.528 351.113C468.704 350.621 468.908 350.146 469.143 349.688L475.047 338.95C475.156 338.742 475.273 338.617 475.399 338.575C475.532 338.525 475.716 338.5 475.95 338.5H477.931Z" fill="#41A5DD"/>
<path d="M487.421 343.55C488.358 343.55 489.202 343.704 489.954 344.012C490.714 344.312 491.358 344.75 491.885 345.325C492.42 345.892 492.829 346.579 493.113 347.387C493.397 348.188 493.54 349.087 493.54 350.087C493.54 351.087 493.397 351.992 493.113 352.8C492.829 353.608 492.42 354.296 491.885 354.862C491.358 355.429 490.714 355.867 489.954 356.175C489.202 356.475 488.358 356.625 487.421 356.625C486.477 356.625 485.624 356.475 484.864 356.175C484.112 355.867 483.468 355.429 482.933 354.862C482.398 354.296 481.984 353.608 481.692 352.8C481.408 351.992 481.266 351.087 481.266 350.087C481.266 349.087 481.408 348.188 481.692 347.387C481.984 346.579 482.398 345.892 482.933 345.325C483.468 344.75 484.112 344.312 484.864 344.012C485.624 343.704 486.477 343.55 487.421 343.55ZM487.421 354.725C488.625 354.725 489.523 354.321 490.117 353.512C490.71 352.704 491.007 351.567 491.007 350.1C491.007 348.633 490.71 347.496 490.117 346.688C489.523 345.871 488.625 345.462 487.421 345.462C486.201 345.462 485.29 345.871 484.688 346.688C484.095 347.496 483.798 348.633 483.798 350.1C483.798 351.567 484.095 352.704 484.688 353.512C485.29 354.321 486.201 354.725 487.421 354.725Z" fill="#41A5DD"/>
<path d="M507.46 343.75L502.295 356.45H500.089L494.923 343.75H496.942C497.134 343.75 497.293 343.796 497.418 343.888C497.544 343.979 497.627 344.096 497.669 344.237L500.715 352.037C500.824 352.362 500.916 352.687 500.991 353.012C501.075 353.329 501.15 353.646 501.217 353.962C501.284 353.646 501.359 353.329 501.443 353.012C501.526 352.696 501.626 352.371 501.743 352.037L504.828 344.237C504.878 344.096 504.966 343.979 505.091 343.888C505.216 343.796 505.367 343.75 505.542 343.75H507.46Z" fill="#41A5DD"/>
<path d="M517.977 348.687C517.977 348.204 517.906 347.758 517.764 347.35C517.63 346.942 517.429 346.587 517.162 346.287C516.894 345.987 516.568 345.754 516.184 345.587C515.799 345.421 515.356 345.338 514.855 345.338C513.827 345.338 513.016 345.633 512.423 346.225C511.838 346.817 511.466 347.637 511.307 348.687H517.977ZM519.995 354.638C519.694 354.988 519.347 355.292 518.955 355.55C518.562 355.8 518.144 356.004 517.701 356.163C517.258 356.321 516.798 356.438 516.322 356.513C515.854 356.588 515.39 356.625 514.93 356.625C514.053 356.625 513.238 356.479 512.485 356.187C511.742 355.887 511.094 355.454 510.542 354.887C509.999 354.312 509.573 353.604 509.263 352.763C508.962 351.913 508.812 350.937 508.812 349.837C508.812 348.954 508.95 348.133 509.226 347.375C509.502 346.608 509.894 345.942 510.404 345.375C510.922 344.808 511.553 344.362 512.297 344.038C513.041 343.712 513.877 343.55 514.805 343.55C515.582 343.55 516.297 343.679 516.949 343.938C517.609 344.187 518.177 344.554 518.654 345.037C519.13 345.521 519.502 346.117 519.769 346.825C520.045 347.533 520.183 348.342 520.183 349.25C520.183 349.625 520.141 349.879 520.058 350.012C519.974 350.137 519.82 350.2 519.594 350.2H511.244C511.269 350.958 511.378 351.621 511.57 352.187C511.762 352.746 512.026 353.212 512.36 353.587C512.703 353.962 513.108 354.242 513.576 354.425C514.044 354.608 514.567 354.7 515.143 354.7C515.687 354.7 516.155 354.638 516.547 354.513C516.949 354.388 517.291 354.254 517.575 354.112C517.868 353.962 518.11 353.825 518.303 353.7C518.503 353.575 518.679 353.512 518.829 353.512C519.03 353.512 519.184 353.588 519.293 353.738L519.995 354.638Z" fill="#41A5DD"/>
<path d="M537.001 350.812C536.007 350.846 535.162 350.925 534.469 351.05C533.775 351.167 533.211 351.325 532.776 351.525C532.342 351.725 532.028 351.962 531.836 352.237C531.644 352.504 531.547 352.804 531.547 353.137C531.547 353.454 531.598 353.729 531.698 353.962C531.807 354.188 531.949 354.375 532.124 354.525C532.308 354.667 532.521 354.771 532.764 354.837C533.006 354.904 533.269 354.937 533.553 354.937C533.93 354.937 534.272 354.9 534.581 354.825C534.899 354.75 535.196 354.646 535.472 354.513C535.747 354.371 536.011 354.2 536.261 354C536.512 353.8 536.759 353.571 537.001 353.312V350.812ZM529.83 345.525C530.54 344.85 531.309 344.346 532.137 344.012C532.973 343.679 533.888 343.512 534.882 343.512C535.61 343.512 536.253 343.633 536.813 343.875C537.373 344.108 537.845 344.437 538.23 344.862C538.614 345.287 538.903 345.796 539.095 346.387C539.295 346.979 539.396 347.633 539.396 348.35V356.45H538.305C538.063 356.45 537.879 356.412 537.753 356.337C537.628 356.254 537.528 356.104 537.452 355.888L537.189 354.775C536.863 355.075 536.541 355.342 536.224 355.575C535.906 355.8 535.572 355.996 535.221 356.163C534.878 356.321 534.51 356.442 534.118 356.525C533.725 356.608 533.29 356.65 532.814 356.65C532.312 356.65 531.84 356.583 531.397 356.45C530.962 356.308 530.582 356.096 530.256 355.813C529.93 355.529 529.671 355.175 529.479 354.75C529.295 354.325 529.203 353.829 529.203 353.263C529.203 352.763 529.337 352.283 529.604 351.825C529.88 351.358 530.323 350.942 530.933 350.575C531.552 350.208 532.354 349.908 533.34 349.675C534.335 349.442 535.555 349.308 537.001 349.275V348.35C537.001 347.392 536.796 346.675 536.387 346.2C535.977 345.725 535.375 345.487 534.581 345.487C534.047 345.487 533.595 345.554 533.227 345.687C532.868 345.821 532.555 345.971 532.287 346.137C532.028 346.296 531.798 346.442 531.598 346.575C531.405 346.708 531.205 346.775 530.996 346.775C530.829 346.775 530.682 346.729 530.557 346.638C530.44 346.546 530.344 346.437 530.269 346.312L529.83 345.525Z" fill="#41A5DD"/>
<path d="M545.464 345.513C545.74 345.221 546.028 344.954 546.329 344.712C546.63 344.471 546.948 344.267 547.282 344.1C547.625 343.925 547.988 343.792 548.373 343.7C548.766 343.6 549.184 343.55 549.627 343.55C550.329 343.55 550.943 343.667 551.47 343.9C552.004 344.133 552.452 344.462 552.811 344.887C553.17 345.304 553.442 345.808 553.626 346.4C553.81 346.992 553.902 347.646 553.902 348.362V356.45H551.444V348.362C551.444 347.454 551.235 346.75 550.818 346.25C550.4 345.742 549.76 345.487 548.899 345.487C548.273 345.487 547.683 345.637 547.132 345.937C546.588 346.229 546.083 346.629 545.615 347.137V356.45H543.17V343.75H544.637C544.979 343.75 545.193 343.913 545.276 344.237L545.464 345.513Z" fill="#41A5DD"/>
<path d="M568.517 343.75L561.446 360.137C561.371 360.321 561.27 360.462 561.145 360.562C561.02 360.662 560.836 360.712 560.593 360.712H558.776L561.107 355.65L555.879 343.75H558.011C558.22 343.75 558.383 343.8 558.5 343.9C558.617 344 558.7 344.113 558.75 344.237L561.985 351.863C562.052 352.054 562.115 352.25 562.173 352.45C562.24 352.642 562.294 352.833 562.336 353.025C562.395 352.825 562.457 352.629 562.524 352.438C562.591 352.237 562.662 352.042 562.737 351.85L565.859 344.237C565.917 344.096 566.009 343.979 566.135 343.888C566.26 343.796 566.402 343.75 566.561 343.75H568.517Z" fill="#41A5DD"/>
<path d="M574.875 356.65C573.846 356.65 573.052 356.362 572.492 355.787C571.941 355.212 571.665 354.392 571.665 353.325V345.725H570.186C570.044 345.725 569.922 345.683 569.822 345.6C569.73 345.508 569.684 345.375 569.684 345.2V344.213L571.753 343.925L572.304 340.137C572.338 339.996 572.401 339.888 572.492 339.812C572.593 339.729 572.718 339.687 572.869 339.687H574.11V343.95H577.72V345.725H574.11V353.162C574.11 353.662 574.231 354.038 574.473 354.288C574.724 354.529 575.042 354.65 575.426 354.65C575.652 354.65 575.844 354.621 576.003 354.563C576.17 354.504 576.312 354.442 576.429 354.375C576.546 354.3 576.646 354.233 576.73 354.175C576.814 354.117 576.889 354.088 576.956 354.088C577.039 354.088 577.102 354.108 577.144 354.15C577.194 354.183 577.244 354.242 577.294 354.325L578.021 355.5C577.62 355.867 577.144 356.15 576.592 356.35C576.04 356.55 575.468 356.65 574.875 356.65Z" fill="#41A5DD"/>
<path d="M582.918 345.363C583.453 344.821 584.043 344.383 584.686 344.05C585.338 343.717 586.086 343.55 586.93 343.55C587.632 343.55 588.247 343.667 588.773 343.9C589.308 344.133 589.755 344.462 590.115 344.887C590.474 345.304 590.746 345.808 590.93 346.4C591.114 346.992 591.205 347.646 591.205 348.362V356.45H588.748V348.362C588.748 347.454 588.539 346.75 588.121 346.25C587.703 345.742 587.064 345.487 586.203 345.487C585.576 345.487 584.987 345.637 584.435 345.937C583.892 346.229 583.387 346.629 582.918 347.137V356.45H580.474V338H582.918V345.363Z" fill="#41A5DD"/>
<path d="M597.564 343.75V356.45H595.119V343.75H597.564ZM598.027 339.825C598.027 340.05 597.981 340.267 597.889 340.475C597.798 340.675 597.672 340.854 597.513 341.013C597.363 341.163 597.183 341.283 596.974 341.375C596.765 341.458 596.548 341.5 596.322 341.5C596.097 341.5 595.884 341.458 595.683 341.375C595.482 341.283 595.303 341.163 595.144 341.013C594.993 340.854 594.872 340.675 594.78 340.475C594.697 340.267 594.655 340.05 594.655 339.825C594.655 339.592 594.697 339.375 594.78 339.175C594.872 338.967 594.993 338.788 595.144 338.637C595.303 338.479 595.482 338.358 595.683 338.275C595.884 338.183 596.097 338.138 596.322 338.138C596.548 338.138 596.765 338.183 596.974 338.275C597.183 338.358 597.363 338.479 597.513 338.637C597.672 338.788 597.798 338.967 597.889 339.175C597.981 339.375 598.027 339.592 598.027 339.825Z" fill="#41A5DD"/>
<path d="M603.899 345.513C604.175 345.221 604.463 344.954 604.764 344.712C605.065 344.471 605.382 344.267 605.717 344.1C606.059 343.925 606.423 343.792 606.807 343.7C607.2 343.6 607.618 343.55 608.061 343.55C608.763 343.55 609.378 343.667 609.904 343.9C610.439 344.133 610.886 344.462 611.246 344.887C611.605 345.304 611.877 345.808 612.061 346.4C612.244 346.992 612.336 347.646 612.336 348.362V356.45H609.879V348.362C609.879 347.454 609.67 346.75 609.252 346.25C608.834 345.742 608.195 345.487 607.334 345.487C606.707 345.487 606.118 345.637 605.566 345.937C605.023 346.229 604.517 346.629 604.049 347.137V356.45H601.605V343.75H603.071C603.414 343.75 603.627 343.913 603.711 344.237L603.899 345.513Z" fill="#41A5DD"/>
<path d="M620.613 350.113C621.047 350.113 621.428 350.054 621.753 349.938C622.088 349.821 622.364 349.658 622.581 349.45C622.807 349.233 622.974 348.975 623.082 348.675C623.199 348.375 623.258 348.046 623.258 347.688C623.258 346.954 623.032 346.371 622.581 345.937C622.138 345.496 621.482 345.275 620.613 345.275C619.752 345.275 619.096 345.496 618.644 345.937C618.201 346.371 617.98 346.954 617.98 347.688C617.98 348.046 618.034 348.375 618.143 348.675C618.26 348.967 618.427 349.221 618.644 349.437C618.87 349.646 619.146 349.813 619.472 349.938C619.806 350.054 620.186 350.113 620.613 350.113ZM624.512 357.112C624.512 356.812 624.428 356.575 624.261 356.4C624.094 356.217 623.864 356.075 623.571 355.975C623.287 355.867 622.953 355.792 622.568 355.75C622.184 355.7 621.779 355.662 621.352 355.637C620.934 355.612 620.504 355.592 620.061 355.575C619.618 355.55 619.192 355.508 618.782 355.45C618.348 355.667 617.988 355.929 617.704 356.238C617.428 356.546 617.29 356.908 617.29 357.325C617.29 357.592 617.357 357.842 617.491 358.075C617.633 358.308 617.846 358.508 618.13 358.675C618.423 358.85 618.786 358.983 619.221 359.075C619.664 359.175 620.191 359.225 620.801 359.225C621.402 359.225 621.933 359.171 622.393 359.062C622.853 358.962 623.237 358.817 623.546 358.625C623.864 358.442 624.102 358.221 624.261 357.963C624.428 357.704 624.512 357.421 624.512 357.112ZM626.994 344.225V345.137C626.994 345.437 626.806 345.625 626.43 345.7L625.063 345.9C625.18 346.158 625.272 346.433 625.339 346.725C625.406 347.008 625.439 347.308 625.439 347.625C625.439 348.25 625.318 348.817 625.076 349.325C624.833 349.825 624.499 350.254 624.073 350.613C623.647 350.971 623.137 351.246 622.543 351.437C621.958 351.629 621.315 351.725 620.613 351.725C620.036 351.725 619.497 351.662 618.995 351.538C618.745 351.687 618.552 351.854 618.419 352.037C618.293 352.212 618.231 352.388 618.231 352.563C618.231 352.854 618.352 353.071 618.594 353.212C618.845 353.354 619.167 353.458 619.559 353.525C619.961 353.583 620.416 353.621 620.926 353.637C621.444 353.654 621.967 353.683 622.493 353.725C623.028 353.758 623.55 353.825 624.06 353.925C624.579 354.017 625.034 354.171 625.427 354.387C625.828 354.596 626.15 354.888 626.392 355.263C626.643 355.629 626.768 356.108 626.768 356.7C626.768 357.25 626.63 357.783 626.355 358.3C626.087 358.817 625.694 359.275 625.176 359.675C624.658 360.075 624.027 360.396 623.283 360.637C622.539 360.879 621.695 361 620.751 361C619.806 361 618.983 360.908 618.281 360.725C617.587 360.542 617.006 360.296 616.538 359.987C616.078 359.679 615.732 359.321 615.497 358.912C615.272 358.504 615.159 358.079 615.159 357.637C615.159 357.021 615.351 356.5 615.736 356.075C616.12 355.642 616.651 355.304 617.328 355.063C616.96 354.896 616.668 354.671 616.45 354.387C616.233 354.096 616.124 353.713 616.124 353.238C616.124 353.054 616.158 352.867 616.225 352.675C616.291 352.475 616.392 352.279 616.526 352.088C616.668 351.887 616.839 351.7 617.04 351.525C617.248 351.35 617.487 351.192 617.754 351.05C617.127 350.7 616.634 350.237 616.275 349.662C615.915 349.079 615.736 348.4 615.736 347.625C615.736 347 615.857 346.437 616.099 345.937C616.342 345.437 616.676 345.008 617.102 344.65C617.537 344.292 618.051 344.017 618.644 343.825C619.246 343.633 619.902 343.538 620.613 343.538C621.716 343.538 622.665 343.767 623.459 344.225H626.994Z" fill="#41A5DD"/>
<path d="M630.842 356.45C630.616 356.45 630.407 356.408 630.215 356.325C630.031 356.242 629.868 356.129 629.726 355.987C629.592 355.837 629.488 355.663 629.413 355.463C629.337 355.263 629.3 355.046 629.3 354.812C629.3 354.612 629.337 354.425 629.413 354.25C629.488 354.067 629.592 353.908 629.726 353.775C629.868 353.642 630.035 353.538 630.228 353.463C630.42 353.379 630.633 353.338 630.867 353.338C631.134 353.338 631.368 353.387 631.569 353.487C631.778 353.579 631.949 353.713 632.083 353.888C632.225 354.054 632.33 354.25 632.396 354.475C632.463 354.7 632.497 354.942 632.497 355.2C632.497 355.575 632.442 355.971 632.334 356.387C632.225 356.804 632.066 357.217 631.857 357.625C631.648 358.033 631.389 358.429 631.08 358.812C630.771 359.196 630.42 359.55 630.027 359.875L629.613 359.488C629.488 359.371 629.425 359.242 629.425 359.1C629.425 359.042 629.442 358.979 629.475 358.912C629.517 358.854 629.567 358.796 629.626 358.738C629.709 358.646 629.818 358.525 629.952 358.375C630.085 358.225 630.215 358.05 630.34 357.85C630.474 357.658 630.595 357.442 630.704 357.2C630.821 356.967 630.905 356.717 630.955 356.45H630.842Z" fill="#41A5DD"/>
<path d="M649.659 350.812C648.664 350.846 647.82 350.925 647.126 351.05C646.432 351.167 645.868 351.325 645.434 351.525C644.999 351.725 644.686 351.962 644.493 352.237C644.301 352.504 644.205 352.804 644.205 353.137C644.205 353.454 644.255 353.729 644.356 353.962C644.464 354.188 644.606 354.375 644.782 354.525C644.966 354.667 645.179 354.771 645.421 354.837C645.664 354.904 645.927 354.937 646.211 354.937C646.587 354.937 646.93 354.9 647.239 354.825C647.557 354.75 647.853 354.646 648.129 354.513C648.405 354.371 648.668 354.2 648.919 354C649.17 353.8 649.416 353.571 649.659 353.312V350.812ZM642.487 345.525C643.198 344.85 643.967 344.346 644.794 344.012C645.63 343.679 646.545 343.512 647.54 343.512C648.267 343.512 648.911 343.633 649.471 343.875C650.031 344.108 650.503 344.437 650.887 344.862C651.272 345.287 651.56 345.796 651.752 346.387C651.953 346.979 652.053 347.633 652.053 348.35V356.45H650.963C650.72 356.45 650.536 356.412 650.411 356.337C650.286 356.254 650.185 356.104 650.11 355.888L649.847 354.775C649.521 355.075 649.199 355.342 648.881 355.575C648.564 355.8 648.229 355.996 647.878 356.163C647.536 356.321 647.168 356.442 646.775 356.525C646.382 356.608 645.948 356.65 645.471 356.65C644.97 356.65 644.498 356.583 644.055 356.45C643.62 356.308 643.24 356.096 642.914 355.813C642.588 355.529 642.329 355.175 642.136 354.75C641.953 354.325 641.861 353.829 641.861 353.263C641.861 352.763 641.994 352.283 642.262 351.825C642.538 351.358 642.981 350.942 643.591 350.575C644.209 350.208 645.012 349.908 645.998 349.675C646.992 349.442 648.213 349.308 649.659 349.275V348.35C649.659 347.392 649.454 346.675 649.044 346.2C648.635 345.725 648.033 345.487 647.239 345.487C646.704 345.487 646.253 345.554 645.885 345.687C645.526 345.821 645.212 345.971 644.945 346.137C644.686 346.296 644.456 346.442 644.255 346.575C644.063 346.708 643.862 346.775 643.653 346.775C643.486 346.775 643.34 346.729 643.215 346.638C643.098 346.546 643.002 346.437 642.926 346.312L642.487 345.525Z" fill="#41A5DD"/>
<path d="M658.122 345.513C658.398 345.221 658.686 344.954 658.987 344.712C659.288 344.471 659.605 344.267 659.94 344.1C660.282 343.925 660.646 343.792 661.03 343.7C661.423 343.6 661.841 343.55 662.284 343.55C662.986 343.55 663.601 343.667 664.127 343.9C664.662 344.133 665.109 344.462 665.469 344.887C665.828 345.304 666.1 345.808 666.283 346.4C666.467 346.992 666.559 347.646 666.559 348.362V356.45H664.102V348.362C664.102 347.454 663.893 346.75 663.475 346.25C663.057 345.742 662.418 345.487 661.557 345.487C660.93 345.487 660.341 345.637 659.789 345.937C659.246 346.229 658.74 346.629 658.272 347.137V356.45H655.828V343.75H657.294C657.637 343.75 657.85 343.913 657.934 344.237L658.122 345.513Z" fill="#41A5DD"/>
<path d="M681.174 343.75L674.103 360.137C674.028 360.321 673.928 360.462 673.803 360.562C673.677 360.662 673.493 360.712 673.251 360.712H671.433L673.765 355.65L668.537 343.75H670.668C670.877 343.75 671.04 343.8 671.157 343.9C671.274 344 671.358 344.113 671.408 344.237L674.643 351.863C674.709 352.054 674.772 352.25 674.831 352.45C674.898 352.642 674.952 352.833 674.994 353.025C675.052 352.825 675.115 352.629 675.182 352.438C675.249 352.237 675.32 352.042 675.395 351.85L678.517 344.237C678.575 344.096 678.667 343.979 678.792 343.888C678.918 343.796 679.06 343.75 679.219 343.75H681.174Z" fill="#41A5DD"/>
<path d="M701.26 343.75L697.161 356.45H695.205C694.971 356.45 694.812 356.296 694.728 355.987L692.045 347.712C691.979 347.504 691.92 347.3 691.87 347.1C691.82 346.892 691.774 346.683 691.732 346.475C691.657 346.908 691.552 347.329 691.419 347.737L688.698 355.987C688.614 356.296 688.435 356.45 688.159 356.45H686.303L682.191 343.75H684.122C684.314 343.75 684.473 343.796 684.598 343.888C684.732 343.979 684.82 344.096 684.862 344.237L687.156 352.037C687.231 352.354 687.298 352.662 687.357 352.962C687.415 353.262 687.469 353.562 687.52 353.862C687.595 353.562 687.674 353.262 687.758 352.962C687.85 352.662 687.942 352.354 688.034 352.037L690.579 344.187C690.62 344.046 690.7 343.933 690.817 343.85C690.934 343.758 691.076 343.713 691.243 343.713H692.309C692.493 343.713 692.643 343.758 692.76 343.85C692.885 343.933 692.969 344.046 693.011 344.187L695.493 352.037C695.585 352.354 695.673 352.667 695.756 352.975C695.84 353.275 695.915 353.579 695.982 353.888C696.032 353.588 696.091 353.288 696.158 352.988C696.225 352.679 696.3 352.362 696.383 352.037L698.715 344.237C698.757 344.096 698.841 343.979 698.966 343.888C699.1 343.796 699.25 343.75 699.417 343.75H701.26Z" fill="#41A5DD"/>
<path d="M706.277 345.363C706.812 344.821 707.401 344.383 708.044 344.05C708.696 343.717 709.444 343.55 710.289 343.55C710.991 343.55 711.605 343.667 712.131 343.9C712.666 344.133 713.114 344.462 713.473 344.887C713.832 345.304 714.104 345.808 714.288 346.4C714.472 346.992 714.564 347.646 714.564 348.362V356.45H712.106V348.362C712.106 347.454 711.897 346.75 711.48 346.25C711.062 345.742 710.422 345.487 709.561 345.487C708.935 345.487 708.345 345.637 707.794 345.937C707.25 346.229 706.745 346.629 706.277 347.137V356.45H703.832V338H706.277V345.363Z" fill="#41A5DD"/>
<path d="M726.802 348.687C726.802 348.204 726.731 347.758 726.589 347.35C726.455 346.942 726.254 346.587 725.987 346.287C725.719 345.987 725.393 345.754 725.009 345.587C724.624 345.421 724.181 345.338 723.68 345.338C722.652 345.338 721.841 345.633 721.248 346.225C720.663 346.817 720.291 347.637 720.132 348.687H726.802ZM728.82 354.638C728.519 354.988 728.172 355.292 727.78 355.55C727.387 355.8 726.969 356.004 726.526 356.163C726.083 356.321 725.623 356.438 725.147 356.513C724.679 356.588 724.215 356.625 723.755 356.625C722.878 356.625 722.063 356.479 721.31 356.187C720.567 355.887 719.919 355.454 719.367 354.887C718.824 354.312 718.398 353.604 718.088 352.763C717.787 351.913 717.637 350.937 717.637 349.837C717.637 348.954 717.775 348.133 718.051 347.375C718.327 346.608 718.719 345.942 719.229 345.375C719.747 344.808 720.378 344.362 721.122 344.038C721.866 343.712 722.702 343.55 723.63 343.55C724.407 343.55 725.122 343.679 725.774 343.938C726.434 344.187 727.002 344.554 727.479 345.037C727.955 345.521 728.327 346.117 728.594 346.825C728.87 347.533 729.008 348.342 729.008 349.25C729.008 349.625 728.966 349.879 728.883 350.012C728.799 350.137 728.645 350.2 728.419 350.2H720.069C720.094 350.958 720.203 351.621 720.395 352.187C720.587 352.746 720.851 353.212 721.185 353.587C721.528 353.962 721.933 354.242 722.401 354.425C722.869 354.608 723.392 354.7 723.968 354.7C724.512 354.7 724.98 354.638 725.372 354.513C725.774 354.388 726.116 354.254 726.4 354.112C726.693 353.962 726.935 353.825 727.128 353.7C727.328 353.575 727.504 353.512 727.654 353.512C727.855 353.512 728.009 353.588 728.118 353.738L728.82 354.638Z" fill="#41A5DD"/>
<path d="M734.444 346.187C734.854 345.354 735.347 344.7 735.924 344.225C736.5 343.75 737.194 343.512 738.005 343.512C738.281 343.512 738.54 343.546 738.782 343.612C739.033 343.671 739.25 343.762 739.434 343.888L739.271 345.725C739.212 345.95 739.075 346.063 738.857 346.063C738.74 346.063 738.565 346.042 738.331 346C738.097 345.95 737.846 345.925 737.578 345.925C737.186 345.925 736.839 345.983 736.538 346.1C736.237 346.208 735.965 346.375 735.723 346.6C735.489 346.817 735.28 347.087 735.096 347.412C734.912 347.729 734.741 348.092 734.582 348.5V356.45H732.137V343.75H733.542C733.809 343.75 733.989 343.8 734.081 343.9C734.181 343.992 734.252 344.158 734.294 344.4L734.444 346.187Z" fill="#41A5DD"/>
<path d="M749.793 348.687C749.793 348.204 749.722 347.758 749.58 347.35C749.447 346.942 749.246 346.587 748.979 346.287C748.711 345.987 748.385 345.754 748.001 345.587C747.616 345.421 747.173 345.338 746.672 345.338C745.644 345.338 744.833 345.633 744.24 346.225C743.654 346.817 743.283 347.637 743.124 348.687H749.793ZM751.812 354.638C751.511 354.988 751.164 355.292 750.771 355.55C750.379 355.8 749.961 356.004 749.518 356.163C749.075 356.321 748.615 356.438 748.139 356.513C747.671 356.588 747.207 356.625 746.747 356.625C745.869 356.625 745.054 356.479 744.302 356.187C743.558 355.887 742.911 355.454 742.359 354.887C741.816 354.312 741.389 353.604 741.08 352.763C740.779 351.913 740.629 350.937 740.629 349.837C740.629 348.954 740.767 348.133 741.043 347.375C741.318 346.608 741.711 345.942 742.221 345.375C742.739 344.808 743.37 344.362 744.114 344.038C744.858 343.712 745.694 343.55 746.622 343.55C747.399 343.55 748.114 343.679 748.765 343.938C749.426 344.187 749.994 344.554 750.47 345.037C750.947 345.521 751.319 346.117 751.586 346.825C751.862 347.533 752 348.342 752 349.25C752 349.625 751.958 349.879 751.875 350.012C751.791 350.137 751.636 350.2 751.411 350.2H743.061C743.086 350.958 743.195 351.621 743.387 352.187C743.579 352.746 743.843 353.212 744.177 353.587C744.52 353.962 744.925 354.242 745.393 354.425C745.861 354.608 746.383 354.7 746.96 354.7C747.503 354.7 747.971 354.638 748.364 354.513C748.765 354.388 749.108 354.254 749.392 354.112C749.685 353.962 749.927 353.825 750.119 353.7C750.32 353.575 750.496 353.512 750.646 353.512C750.847 353.512 751.001 353.588 751.11 353.738L751.812 354.638Z" fill="#41A5DD"/>
<defs>
<clipPath id="clip0_5:0">
<rect width="293.137" height="50" fill="white" transform="translate(459 268)"/>
</clipPath>
</defs>
</svg>
