<svg width="1204" height="678" viewBox="0 0 1204 678" fill="none" xmlns="http://www.w3.org/2000/svg">
<rect width="1204" height="677.25" fill="white"/>
<rect x="30" y="635" width="542" height="5" rx="2.5" fill="#70C216"/>
<path d="M43.8214 618.085C43.8214 619.098 43.6524 620.029 43.3145 620.877C42.9765 621.726 42.5015 622.456 41.8893 623.068C41.2771 623.68 40.5406 624.155 39.6798 624.493C38.8189 624.831 37.8624 625 36.8103 625H31.54V611.169H36.8103C37.8624 611.169 38.8189 611.341 39.6798 611.686C40.5406 612.023 41.2771 612.499 41.8893 613.111C42.5015 613.716 42.9765 614.443 43.3145 615.292C43.6524 616.14 43.8214 617.071 43.8214 618.085ZM41.1815 618.085C41.1815 617.326 41.0795 616.647 40.8754 616.047C40.6777 615.441 40.3876 614.931 40.005 614.517C39.6288 614.096 39.1696 613.774 38.6276 613.551C38.092 613.328 37.4862 613.216 36.8103 613.216H34.1225V622.953H36.8103C37.4862 622.953 38.092 622.841 38.6276 622.618C39.1696 622.395 39.6288 622.076 40.005 621.662C40.3876 621.241 40.6777 620.731 40.8754 620.131C41.0795 619.526 41.1815 618.843 41.1815 618.085ZM50.5317 615.033C51.2586 615.033 51.9186 615.151 52.5116 615.387C53.111 615.623 53.6212 615.958 54.042 616.392C54.4693 616.825 54.7977 617.354 55.0272 617.979C55.2568 618.604 55.3716 619.302 55.3716 620.074C55.3716 620.852 55.2568 621.553 55.0272 622.178C54.7977 622.803 54.4693 623.336 54.042 623.776C53.6212 624.216 53.111 624.554 52.5116 624.79C51.9186 625.026 51.2586 625.143 50.5317 625.143C49.7983 625.143 49.132 625.026 48.5326 624.79C47.9332 624.554 47.4199 624.216 46.9926 623.776C46.5718 623.336 46.2434 622.803 46.0074 622.178C45.7779 621.553 45.6631 620.852 45.6631 620.074C45.6631 619.302 45.7779 618.604 46.0074 617.979C46.2434 617.354 46.5718 616.825 46.9926 616.392C47.4199 615.958 47.9332 615.623 48.5326 615.387C49.132 615.151 49.7983 615.033 50.5317 615.033ZM50.5317 623.326C51.3479 623.326 51.9505 623.052 52.3395 622.504C52.7348 621.955 52.9325 621.152 52.9325 620.093C52.9325 619.035 52.7348 618.228 52.3395 617.673C51.9505 617.118 51.3479 616.841 50.5317 616.841C49.7027 616.841 49.0874 617.122 48.6856 617.683C48.2903 618.238 48.0926 619.041 48.0926 620.093C48.0926 621.145 48.2903 621.949 48.6856 622.504C49.0874 623.052 49.7027 623.326 50.5317 623.326Z" fill="#70C216"/>
<rect x="632" y="635" width="542" height="5" fill="#F74F64"/>
<path d="M645.821 618.085C645.821 619.098 645.652 620.029 645.314 620.877C644.977 621.726 644.501 622.456 643.889 623.068C643.277 623.68 642.541 624.155 641.68 624.493C640.819 624.831 639.862 625 638.81 625H633.54V611.169H638.81C639.862 611.169 640.819 611.341 641.68 611.686C642.541 612.023 643.277 612.499 643.889 613.111C644.501 613.716 644.977 614.443 645.314 615.292C645.652 616.14 645.821 617.071 645.821 618.085ZM643.181 618.085C643.181 617.326 643.079 616.647 642.875 616.047C642.678 615.441 642.388 614.931 642.005 614.517C641.629 614.096 641.17 613.774 640.628 613.551C640.092 613.328 639.486 613.216 638.81 613.216H636.123V622.953H638.81C639.486 622.953 640.092 622.841 640.628 622.618C641.17 622.395 641.629 622.076 642.005 621.662C642.388 621.241 642.678 620.731 642.875 620.131C643.079 619.526 643.181 618.843 643.181 618.085ZM652.532 615.033C653.259 615.033 653.919 615.151 654.512 615.387C655.111 615.623 655.621 615.958 656.042 616.392C656.469 616.825 656.798 617.354 657.027 617.979C657.257 618.604 657.372 619.302 657.372 620.074C657.372 620.852 657.257 621.553 657.027 622.178C656.798 622.803 656.469 623.336 656.042 623.776C655.621 624.216 655.111 624.554 654.512 624.79C653.919 625.026 653.259 625.143 652.532 625.143C651.798 625.143 651.132 625.026 650.533 624.79C649.933 624.554 649.42 624.216 648.993 623.776C648.572 623.336 648.243 622.803 648.007 622.178C647.778 621.553 647.663 620.852 647.663 620.074C647.663 619.302 647.778 618.604 648.007 617.979C648.243 617.354 648.572 616.825 648.993 616.392C649.42 615.958 649.933 615.623 650.533 615.387C651.132 615.151 651.798 615.033 652.532 615.033ZM652.532 623.326C653.348 623.326 653.95 623.052 654.339 622.504C654.735 621.955 654.932 621.152 654.932 620.093C654.932 619.035 654.735 618.228 654.339 617.673C653.95 617.118 653.348 616.841 652.532 616.841C651.703 616.841 651.087 617.122 650.686 617.683C650.29 618.238 650.093 619.041 650.093 620.093C650.093 621.145 650.29 621.949 650.686 622.504C651.087 623.052 651.703 623.326 652.532 623.326ZM661.983 616.392C662.181 616.194 662.388 616.012 662.605 615.846C662.828 615.674 663.061 615.531 663.303 615.416C663.552 615.295 663.817 615.202 664.097 615.138C664.378 615.068 664.684 615.033 665.016 615.033C665.551 615.033 666.026 615.126 666.441 615.311C666.855 615.489 667.2 615.744 667.474 616.076C667.754 616.401 667.965 616.793 668.105 617.252C668.252 617.705 668.325 618.206 668.325 618.754V625H665.963V618.754C665.963 618.155 665.825 617.692 665.551 617.367C665.277 617.036 664.859 616.87 664.298 616.87C663.89 616.87 663.507 616.962 663.15 617.147C662.793 617.332 662.455 617.584 662.137 617.903V625H659.774V615.186H661.218C661.524 615.186 661.725 615.33 661.821 615.617L661.983 616.392ZM672.499 610.241C672.805 610.745 673.012 611.271 673.12 611.819C673.229 612.361 673.238 612.9 673.149 613.436C673.06 613.965 672.872 614.475 672.585 614.966C672.304 615.451 671.925 615.888 671.446 616.277L670.7 615.827C670.637 615.789 670.592 615.744 670.567 615.693C670.541 615.636 670.528 615.582 670.528 615.531C670.535 615.473 670.547 615.419 670.567 615.368C670.592 615.317 670.624 615.272 670.662 615.234C670.796 615.075 670.924 614.864 671.045 614.603C671.166 614.341 671.249 614.048 671.293 613.723C671.344 613.398 671.338 613.05 671.274 612.68C671.217 612.31 671.073 611.941 670.844 611.571C670.735 611.386 670.704 611.226 670.748 611.092C670.799 610.952 670.904 610.853 671.064 610.796L672.499 610.241ZM678.985 625.153C678.131 625.153 677.474 624.914 677.015 624.436C676.562 623.951 676.335 623.285 676.335 622.437V616.956H675.331C675.204 616.956 675.095 616.914 675.006 616.831C674.917 616.749 674.872 616.624 674.872 616.458V615.521L676.45 615.263L676.948 612.585C676.98 612.457 677.04 612.358 677.129 612.288C677.219 612.218 677.333 612.183 677.474 612.183H678.698V615.272H681.319V616.956H678.698V622.274C678.698 622.58 678.771 622.819 678.918 622.991C679.071 623.164 679.278 623.25 679.54 623.25C679.686 623.25 679.808 623.234 679.903 623.202C680.005 623.164 680.091 623.125 680.161 623.087C680.238 623.049 680.305 623.014 680.362 622.982C680.42 622.944 680.477 622.924 680.535 622.924C680.605 622.924 680.662 622.944 680.707 622.982C680.751 623.014 680.799 623.065 680.85 623.135L681.558 624.283C681.214 624.57 680.818 624.786 680.372 624.933C679.926 625.08 679.463 625.153 678.985 625.153Z" fill="#F74F64"/>
<path d="M311.629 68.3711L329.457 109.857" stroke="#292929" stroke-width="5" stroke-miterlimit="10"/>
<path d="M287.971 68.3711L270.143 109.514" stroke="#292929" stroke-width="5" stroke-miterlimit="10"/>
<path d="M323.971 158.886L301 152.028C300.314 151.686 299.286 151.686 298.6 152.028L275.629 158.886C273.229 159.914 270.143 157.857 270.143 155.114V109.514H329.457V155.114C329.457 157.857 327.057 159.914 323.971 158.886Z" stroke="#292929" stroke-width="5" stroke-miterlimit="10"/>
<path d="M387.4 103.343L357.229 74.1997C353.457 70.4282 348.314 68.3711 342.829 68.3711H258.829C253.343 68.3711 248.2 70.4282 244.429 74.1997L214.6 103.343C210.829 107.114 208.429 112.6 208.429 118.085V213.4C208.429 224.714 217.686 233.971 229 233.971H373C384.314 233.971 393.571 224.714 393.571 213.4V118.085C393.571 112.6 391.171 107.114 387.4 103.343Z" stroke="#292929" stroke-width="5" stroke-miterlimit="10"/>
<path d="M208.429 109.171H393.571" stroke="#292929" stroke-width="5" stroke-miterlimit="10"/>
<path d="M393.571 510.943H208.429V522.943H393.571V510.943Z" stroke="#292929" stroke-width="5" stroke-miterlimit="10" stroke-linecap="round" stroke-linejoin="round"/>
<path d="M225.914 522.943H208.429V545.571H225.914V522.943Z" stroke="#292929" stroke-width="5" stroke-miterlimit="10" stroke-linecap="round" stroke-linejoin="round"/>
<path d="M393.572 522.943H376.086V545.571H393.572V522.943Z" stroke="#292929" stroke-width="5" stroke-miterlimit="10" stroke-linecap="round" stroke-linejoin="round"/>
<path d="M309.914 522.943H292.429V545.571H309.914V522.943Z" stroke="#292929" stroke-width="5" stroke-miterlimit="10" stroke-linecap="round" stroke-linejoin="round"/>
<path d="M285.571 435.514H230.029C224.2 435.514 219.743 439.971 219.743 445.8V500.314C219.743 506.143 224.2 510.6 230.029 510.6H285.571C291.4 510.6 295.857 506.143 295.857 500.314V445.8C295.857 440.314 291.4 435.514 285.571 435.514Z" stroke="#292929" stroke-width="5" stroke-miterlimit="10" stroke-linecap="round" stroke-linejoin="round"/>
<path d="M361.686 435.514H306.143C300.314 435.514 295.857 439.971 295.857 445.8V500.314C295.857 506.143 300.314 510.6 306.143 510.6H361.686C367.514 510.6 371.971 506.143 371.971 500.314V445.8C371.971 440.314 367.514 435.514 361.686 435.514Z" stroke="#292929" stroke-width="5" stroke-miterlimit="10" stroke-linecap="round" stroke-linejoin="round"/>
<path d="M323.629 360.429H268.086C262.257 360.429 257.8 364.886 257.8 370.714V425.229C257.8 431.057 262.257 435.514 268.086 435.514H323.629C329.457 435.514 333.914 431.057 333.914 425.229V370.714C333.914 364.886 329.457 360.429 323.629 360.429Z" stroke="#292929" stroke-width="5" stroke-miterlimit="10" stroke-linecap="round" stroke-linejoin="round"/>
<path d="M305.457 385.457L296.543 382.029C296.2 381.686 295.857 381.686 295.514 382.029L286.6 385.457C285.571 386.143 284.543 384.772 284.543 383.4V360.429H307.514V383.4C307.514 384.772 306.486 385.8 305.457 385.457Z" stroke="#292929" stroke-width="5" stroke-miterlimit="10"/>
<path d="M343.514 460.543L334.6 457.114C334.257 456.771 333.914 456.771 333.571 457.114L324.657 460.543C323.629 461.228 322.6 459.857 322.6 458.486V435.514H345.571V458.486C345.571 459.857 344.543 460.886 343.514 460.543Z" stroke="#292929" stroke-width="5" stroke-miterlimit="10"/>
<path d="M267.4 460.543L258.486 457.114C258.143 456.771 257.8 456.771 257.457 457.114L248.543 460.543C247.514 461.228 246.486 459.857 246.486 458.486V435.514H269.457V458.486C269.457 459.857 268.429 460.886 267.4 460.543Z" stroke="#292929" stroke-width="5" stroke-miterlimit="10"/>
<path d="M975.333 213H830.667C819.3 213 810 203.728 810 192.396V108.604C810 97.272 819.3 88 830.667 88H975.333C986.7 88 996 97.272 996 108.604V192.396C996 203.728 986.7 213 975.333 213Z" stroke="#292929" stroke-width="5" stroke-miterlimit="10"/>
<path d="M926.971 137.371L904 130.514C903.314 130.171 902.286 130.171 901.6 130.514L878.629 137.371C876.229 138.4 873.143 136.343 873.143 133.6V88H932.457V133.6C932.457 136.343 930.057 138.4 926.971 137.371Z" stroke="#292929" stroke-width="5" stroke-miterlimit="10"/>
<g clip-path="url(#clip0)">
<path d="M892.286 518.571H809.143" stroke="#292929" stroke-width="5" stroke-miterlimit="10" stroke-linecap="round" stroke-linejoin="round"/>
<path d="M996.857 518.571H914.143" stroke="#292929" stroke-width="5" stroke-miterlimit="10" stroke-linecap="round" stroke-linejoin="round"/>
<path d="M1018.71 518.571V503.571H787.286V518.571" stroke="#292929" stroke-width="5" stroke-miterlimit="10" stroke-linecap="round" stroke-linejoin="round"/>
<path d="M809.143 518.571V546.857H787.286V518.571" stroke="#292929" stroke-width="5" stroke-miterlimit="10" stroke-linecap="round" stroke-linejoin="round"/>
<path d="M809.143 518.571H787.286" stroke="#292929" stroke-width="5" stroke-miterlimit="10" stroke-linecap="round" stroke-linejoin="round"/>
<path d="M996.857 518.571V546.857H1018.71V518.571" stroke="#292929" stroke-width="5" stroke-miterlimit="10" stroke-linecap="round" stroke-linejoin="round"/>
<path d="M996.857 518.571H1018.71" stroke="#292929" stroke-width="5" stroke-miterlimit="10" stroke-linecap="round" stroke-linejoin="round"/>
<path d="M892.286 518.571V546.857H914.143V518.571" stroke="#292929" stroke-width="5" stroke-miterlimit="10" stroke-linecap="round" stroke-linejoin="round"/>
<path d="M892.286 518.571H914.143" stroke="#292929" stroke-width="5" stroke-miterlimit="10" stroke-linecap="round" stroke-linejoin="round"/>
<path d="M787.5 503L813 480.429" stroke="#292929" stroke-width="5" stroke-miterlimit="10" stroke-linecap="round" stroke-linejoin="round"/>
<path d="M986.143 471.429L1018.71 502.714" stroke="#292929" stroke-width="5" stroke-miterlimit="10" stroke-linecap="round" stroke-linejoin="round"/>
<path d="M898.286 427.286C898.714 428.572 899.143 429.858 899.143 431.572" stroke="#292929" stroke-width="5" stroke-miterlimit="10" stroke-linecap="round" stroke-linejoin="round"/>
<path d="M813 427.286C812.571 428.572 812.143 429.858 812.143 431.572V476.572C812.143 477.858 812.571 479.572 813 480.858" stroke="#292929" stroke-width="5" stroke-miterlimit="10" stroke-linecap="round" stroke-linejoin="round"/>
<path d="M899.143 476.572C899.143 481.715 894.857 486.429 889.286 486.429H821.571C817.714 486.429 814.286 484.287 813 480.858" stroke="#292929" stroke-width="5" stroke-miterlimit="10" stroke-linecap="round" stroke-linejoin="round"/>
<path d="M813 427.285C813.429 426.428 814.286 425.142 814.714 424.713L828.857 410.999C830.571 409.285 833.143 408.428 835.714 408.428H855.429" stroke="#292929" stroke-width="5" stroke-miterlimit="10" stroke-linecap="round" stroke-linejoin="round"/>
<path d="M865.286 427.286H813" stroke="#292929" stroke-width="5" stroke-miterlimit="10" stroke-linecap="round" stroke-linejoin="round"/>
<path d="M900 427.286C899.571 428.572 899.143 429.858 899.143 431.572" stroke="#292929" stroke-width="5" stroke-miterlimit="10" stroke-linecap="round" stroke-linejoin="round"/>
<path d="M942.857 408.428H962.571C965.143 408.428 967.714 409.285 969.429 410.999L983.571 424.713C984.429 425.571 984.857 426.428 985.286 427.285" stroke="#292929" stroke-width="5" stroke-miterlimit="10" stroke-linecap="round" stroke-linejoin="round"/>
<path d="M986.143 471.428V432C986.143 430.714 985.714 429 985.286 427.714" stroke="#292929" stroke-width="5" stroke-miterlimit="10" stroke-linecap="round" stroke-linejoin="round"/>
<path d="M899.143 476.572C899.143 482.143 903.428 486.429 909 486.429H976.714C981.857 486.429 986.571 482.143 986.571 476.572V471.429" stroke="#292929" stroke-width="5" stroke-miterlimit="10" stroke-linecap="round" stroke-linejoin="round"/>
<path d="M899.143 459V476.572" stroke="#292929" stroke-width="5" stroke-miterlimit="10" stroke-linecap="round" stroke-linejoin="round"/>
<path d="M899.143 459.001V431.572" stroke="#292929" stroke-width="5" stroke-miterlimit="10" stroke-linecap="round" stroke-linejoin="round"/>
<path d="M900 427.286H904.714" stroke="#292929" stroke-width="5" stroke-miterlimit="10" stroke-linecap="round" stroke-linejoin="round"/>
<path d="M900 427.286H899.143" stroke="#292929" stroke-width="5" stroke-miterlimit="10" stroke-linecap="round" stroke-linejoin="round"/>
<path d="M985.286 427.286H904.714" stroke="#292929" stroke-width="5" stroke-miterlimit="10" stroke-linecap="round" stroke-linejoin="round"/>
<path d="M899.143 427.286H900" stroke="#292929" stroke-width="5" stroke-miterlimit="10" stroke-linecap="round" stroke-linejoin="round"/>
<path d="M865.286 427.286C860.143 427.286 855.429 423 855.429 417.429V408" stroke="#292929" stroke-width="5" stroke-miterlimit="10" stroke-linecap="round" stroke-linejoin="round"/>
<path d="M856.714 368.572C857.143 367.715 858 366.429 858.429 366.001L872.571 352.286C874.286 350.572 876.857 349.715 879.429 349.715H899.143" stroke="#292929" stroke-width="5" stroke-miterlimit="10" stroke-linecap="round" stroke-linejoin="round"/>
<path d="M941.571 368.572C941.143 367.715 940.286 366.429 939.857 366.001L925.714 352.286C924 350.572 921.428 349.715 918.857 349.715H899.143" stroke="#292929" stroke-width="5" stroke-miterlimit="10" stroke-linecap="round" stroke-linejoin="round"/>
<path d="M855.429 408V372.857C855.429 371.571 855.857 369.857 856.286 368.571" stroke="#292929" stroke-width="5" stroke-miterlimit="10" stroke-linecap="round" stroke-linejoin="round"/>
<path d="M942.857 408.428V372.857C942.857 371.571 942.428 369.857 942 368.571" stroke="#292929" stroke-width="5" stroke-miterlimit="10" stroke-linecap="round" stroke-linejoin="round"/>
<path d="M942.857 408.428V417.856C942.857 422.999 938.571 427.713 933 427.713H900" stroke="#292929" stroke-width="5" stroke-miterlimit="10" stroke-linecap="round" stroke-linejoin="round"/>
<path d="M893.143 427.286H898.286" stroke="#292929" stroke-width="5" stroke-miterlimit="10" stroke-linecap="round" stroke-linejoin="round"/>
<path d="M899.143 427.286H898.286" stroke="#292929" stroke-width="5" stroke-miterlimit="10" stroke-linecap="round" stroke-linejoin="round"/>
<path d="M865.286 427.286H893.143" stroke="#292929" stroke-width="5" stroke-miterlimit="10" stroke-linecap="round" stroke-linejoin="round"/>
<path d="M899.143 368.571L899 353" stroke="#292929" stroke-width="5" stroke-miterlimit="10" stroke-linecap="round" stroke-linejoin="round"/>
<path d="M899.143 368.571H936.857" stroke="#292929" stroke-width="5" stroke-miterlimit="10" stroke-linecap="round" stroke-linejoin="round"/>
<path d="M941.571 368.571H936.857" stroke="#292929" stroke-width="5" stroke-miterlimit="10" stroke-linecap="round" stroke-linejoin="round"/>
<path d="M856.714 368.571H899.143" stroke="#292929" stroke-width="5" stroke-miterlimit="10" stroke-linecap="round" stroke-linejoin="round"/>
<path d="M964.286 459V462" stroke="#292929" stroke-width="5" stroke-miterlimit="10" stroke-linecap="round" stroke-linejoin="round"/>
<path d="M964.286 458.999V444.856" stroke="#292929" stroke-width="5" stroke-miterlimit="10" stroke-linecap="round" stroke-linejoin="round"/>
<path d="M957.429 452.142L964.286 444.856" stroke="#292929" stroke-width="5" stroke-miterlimit="10" stroke-linecap="round" stroke-linejoin="round"/>
<path d="M964.286 444.856L971.143 452.142" stroke="#292929" stroke-width="5" stroke-miterlimit="10" stroke-linecap="round" stroke-linejoin="round"/>
<path d="M939.429 459V462" stroke="#292929" stroke-width="5" stroke-miterlimit="10" stroke-linecap="round" stroke-linejoin="round"/>
<path d="M939.429 458.999V444.856" stroke="#292929" stroke-width="5" stroke-miterlimit="10" stroke-linecap="round" stroke-linejoin="round"/>
<path d="M932.572 452.142L939.429 444.856" stroke="#292929" stroke-width="5" stroke-miterlimit="10" stroke-linecap="round" stroke-linejoin="round"/>
<path d="M939.429 444.856L946.286 452.142" stroke="#292929" stroke-width="5" stroke-miterlimit="10" stroke-linecap="round" stroke-linejoin="round"/>
<path d="M853.286 458.999V453.428H824.571V469.285" stroke="#292929" stroke-width="5" stroke-miterlimit="10" stroke-linecap="round" stroke-linejoin="round"/>
<path d="M853.286 459V471.429H824.571V469.286" stroke="#292929" stroke-width="5" stroke-miterlimit="10" stroke-linecap="round" stroke-linejoin="round"/>
</g>
<defs>
<clipPath id="clip0">
<rect width="240" height="206.143" fill="white" transform="translate(783 345)"/>
</clipPath>
</defs>
</svg>
