<svg width="1204" height="678" viewBox="0 0 1204 678" fill="none" xmlns="http://www.w3.org/2000/svg">
<rect width="1204" height="677.25" fill="white"/>
<path d="M245.771 384.858V271.372H358.571V384.858C358.571 397.2 349.314 407.143 338 407.143H266.343C255.029 406.8 245.771 396.858 245.771 384.858Z" stroke="#292929" stroke-width="5" stroke-miterlimit="10"/>
<path d="M235.143 271.372H368.857H235.143Z" stroke="#292929" stroke-width="5" stroke-miterlimit="10" stroke-linecap="round" stroke-linejoin="round"/>
<path d="M275.257 269.657V262.8C275.257 257.314 279.714 253.2 284.857 253.2H316.4C321.886 253.2 326 257.657 326 262.8V269.657" stroke="#292929" stroke-width="5" stroke-miterlimit="10"/>
<path d="M285.543 293.314V386.914" stroke="#292929" stroke-width="5" stroke-miterlimit="10" stroke-linecap="round" stroke-linejoin="round"/>
<path d="M318.8 293.314V386.914" stroke="#292929" stroke-width="5" stroke-miterlimit="10" stroke-linecap="round" stroke-linejoin="round"/>
<path d="M602 344.4C631.539 344.4 655.486 320.454 655.486 290.914C655.486 261.375 631.539 237.428 602 237.428C572.461 237.428 548.514 261.375 548.514 290.914C548.514 320.454 572.461 344.4 602 344.4Z" stroke="black" stroke-width="5" stroke-miterlimit="10" stroke-linecap="round" stroke-linejoin="round"/>
<path d="M574.229 337.543L568.057 411.257C567.371 419.486 575.943 424.971 583.143 421.543L597.2 414.343C600.286 412.971 603.714 412.971 606.457 414.343L620.514 421.543C627.714 425.314 636.286 419.486 635.6 411.257L629.429 337.543" stroke="black" stroke-width="5" stroke-miterlimit="10" stroke-linecap="round" stroke-linejoin="round"/>
<circle cx="260" cy="404" r="24.5" stroke="black"/>
<circle cx="602" cy="415" r="14.5" stroke="black"/>
<path d="M249.202 458.812C249.634 458.812 250.024 458.743 250.372 458.605C250.726 458.467 251.026 458.275 251.272 458.029C251.524 457.783 251.716 457.492 251.848 457.156C251.986 456.82 252.055 456.454 252.055 456.058C252.055 455.638 251.989 455.26 251.857 454.924C251.725 454.582 251.536 454.294 251.29 454.06C251.05 453.82 250.762 453.637 250.426 453.511C250.09 453.385 249.721 453.322 249.319 453.322C248.887 453.322 248.497 453.397 248.149 453.547C247.801 453.691 247.504 453.889 247.258 454.141C247.018 454.387 246.832 454.675 246.7 455.005C246.574 455.329 246.511 455.668 246.511 456.022C246.511 456.436 246.571 456.814 246.691 457.156C246.811 457.498 246.985 457.792 247.213 458.038C247.447 458.284 247.729 458.476 248.059 458.614C248.395 458.746 248.776 458.812 249.202 458.812ZM248.266 451.936C248.152 452.08 248.041 452.221 247.933 452.359C247.831 452.491 247.732 452.623 247.636 452.755C247.942 452.545 248.278 452.383 248.644 452.269C249.01 452.155 249.409 452.098 249.841 452.098C250.363 452.098 250.855 452.185 251.317 452.359C251.779 452.527 252.181 452.776 252.523 453.106C252.871 453.43 253.147 453.832 253.351 454.312C253.555 454.786 253.657 455.329 253.657 455.941C253.657 456.535 253.549 457.087 253.333 457.597C253.117 458.107 252.814 458.551 252.424 458.929C252.04 459.307 251.575 459.604 251.029 459.82C250.489 460.036 249.892 460.144 249.238 460.144C248.59 460.144 248.002 460.042 247.474 459.838C246.946 459.628 246.496 459.334 246.124 458.956C245.758 458.572 245.473 458.11 245.269 457.57C245.071 457.024 244.972 456.415 244.972 455.743C244.972 455.179 245.095 454.579 245.341 453.943C245.593 453.301 245.992 452.617 246.538 451.891L249.814 447.49C249.898 447.382 250.012 447.292 250.156 447.22C250.306 447.142 250.477 447.103 250.669 447.103H252.091L248.266 451.936ZM257.621 457.804C257.915 458.2 258.236 458.479 258.584 458.641C258.932 458.803 259.322 458.884 259.754 458.884C260.606 458.884 261.26 458.581 261.716 457.975C262.172 457.369 262.4 456.505 262.4 455.383C262.4 454.789 262.346 454.279 262.238 453.853C262.136 453.427 261.986 453.079 261.788 452.809C261.59 452.533 261.347 452.332 261.059 452.206C260.771 452.08 260.444 452.017 260.078 452.017C259.556 452.017 259.097 452.137 258.701 452.377C258.311 452.617 257.951 452.956 257.621 453.394V457.804ZM257.54 452.296C257.924 451.822 258.368 451.441 258.872 451.153C259.376 450.865 259.952 450.721 260.6 450.721C261.128 450.721 261.605 450.823 262.031 451.027C262.457 451.225 262.82 451.522 263.12 451.918C263.42 452.308 263.651 452.794 263.813 453.376C263.975 453.958 264.056 454.627 264.056 455.383C264.056 456.055 263.966 456.682 263.786 457.264C263.606 457.84 263.345 458.341 263.003 458.767C262.667 459.187 262.253 459.52 261.761 459.766C261.275 460.006 260.726 460.126 260.114 460.126C259.556 460.126 259.076 460.033 258.674 459.847C258.278 459.655 257.927 459.391 257.621 459.055V463.087H256.01V450.883H256.973C257.201 450.883 257.342 450.994 257.396 451.216L257.54 452.296ZM273.537 460H271.998C271.866 460 271.761 459.967 271.683 459.901C271.611 459.829 271.551 459.751 271.503 459.667L269.208 456.094C269.184 456.178 269.157 456.262 269.127 456.346C269.103 456.424 269.067 456.496 269.019 456.562L266.895 459.667C266.835 459.751 266.769 459.829 266.697 459.901C266.631 459.967 266.538 460 266.418 460H264.987L268.182 455.32L265.113 450.883H266.652C266.784 450.883 266.88 450.904 266.94 450.946C267 450.988 267.054 451.048 267.102 451.126L269.343 454.546C269.391 454.372 269.466 454.204 269.568 454.042L271.53 451.162C271.584 451.078 271.641 451.012 271.701 450.964C271.767 450.91 271.845 450.883 271.935 450.883H273.411L270.342 455.239L273.537 460Z" fill="black"/>
<path d="M587.17 451.595C587.254 451.007 587.416 450.488 587.656 450.038C587.896 449.582 588.199 449.201 588.565 448.895C588.937 448.589 589.36 448.358 589.834 448.202C590.314 448.04 590.83 447.959 591.382 447.959C591.928 447.959 592.432 448.037 592.894 448.193C593.356 448.349 593.752 448.571 594.082 448.859C594.418 449.147 594.679 449.495 594.865 449.903C595.051 450.311 595.144 450.764 595.144 451.262C595.144 451.67 595.09 452.036 594.982 452.36C594.88 452.678 594.73 452.957 594.532 453.197C594.34 453.437 594.106 453.641 593.83 453.809C593.554 453.977 593.245 454.115 592.903 454.223C593.743 454.439 594.373 454.811 594.793 455.339C595.219 455.861 595.432 456.515 595.432 457.301C595.432 457.895 595.318 458.429 595.09 458.903C594.868 459.377 594.562 459.782 594.172 460.118C593.782 460.448 593.326 460.703 592.804 460.883C592.288 461.057 591.733 461.144 591.139 461.144C590.455 461.144 589.87 461.06 589.384 460.892C588.898 460.718 588.487 460.481 588.151 460.181C587.815 459.881 587.539 459.527 587.323 459.119C587.107 458.705 586.924 458.258 586.774 457.778L587.467 457.49C587.647 457.412 587.821 457.391 587.989 457.427C588.163 457.463 588.289 457.562 588.367 457.724C588.445 457.892 588.541 458.093 588.655 458.327C588.775 458.561 588.937 458.786 589.141 459.002C589.345 459.218 589.603 459.401 589.915 459.551C590.233 459.701 590.635 459.776 591.121 459.776C591.571 459.776 591.964 459.704 592.3 459.56C592.642 459.41 592.924 459.218 593.146 458.984C593.374 458.75 593.545 458.489 593.659 458.201C593.773 457.913 593.83 457.628 593.83 457.346C593.83 456.998 593.785 456.68 593.695 456.392C593.605 456.104 593.437 455.855 593.191 455.645C592.945 455.435 592.606 455.27 592.174 455.15C591.748 455.03 591.199 454.97 590.527 454.97V453.809C591.079 453.803 591.547 453.743 591.931 453.629C592.321 453.515 592.636 453.359 592.876 453.161C593.122 452.963 593.299 452.726 593.407 452.45C593.521 452.174 593.578 451.868 593.578 451.532C593.578 451.16 593.518 450.836 593.398 450.56C593.284 450.284 593.125 450.056 592.921 449.876C592.717 449.696 592.474 449.561 592.192 449.471C591.916 449.381 591.616 449.336 591.292 449.336C590.968 449.336 590.665 449.384 590.383 449.48C590.107 449.576 589.861 449.711 589.645 449.885C589.435 450.053 589.258 450.254 589.114 450.488C588.97 450.722 588.868 450.98 588.808 451.262C588.73 451.472 588.631 451.613 588.511 451.685C588.397 451.751 588.229 451.769 588.007 451.739L587.17 451.595ZM599.621 458.804C599.915 459.2 600.236 459.479 600.584 459.641C600.932 459.803 601.322 459.884 601.754 459.884C602.606 459.884 603.26 459.581 603.716 458.975C604.172 458.369 604.4 457.505 604.4 456.383C604.4 455.789 604.346 455.279 604.238 454.853C604.136 454.427 603.986 454.079 603.788 453.809C603.59 453.533 603.347 453.332 603.059 453.206C602.771 453.08 602.444 453.017 602.078 453.017C601.556 453.017 601.097 453.137 600.701 453.377C600.311 453.617 599.951 453.956 599.621 454.394V458.804ZM599.54 453.296C599.924 452.822 600.368 452.441 600.872 452.153C601.376 451.865 601.952 451.721 602.6 451.721C603.128 451.721 603.605 451.823 604.031 452.027C604.457 452.225 604.82 452.522 605.12 452.918C605.42 453.308 605.651 453.794 605.813 454.376C605.975 454.958 606.056 455.627 606.056 456.383C606.056 457.055 605.966 457.682 605.786 458.264C605.606 458.84 605.345 459.341 605.003 459.767C604.667 460.187 604.253 460.52 603.761 460.766C603.275 461.006 602.726 461.126 602.114 461.126C601.556 461.126 601.076 461.033 600.674 460.847C600.278 460.655 599.927 460.391 599.621 460.055V464.087H598.01V451.883H598.973C599.201 451.883 599.342 451.994 599.396 452.216L599.54 453.296ZM615.537 461H613.998C613.866 461 613.761 460.967 613.683 460.901C613.611 460.829 613.551 460.751 613.503 460.667L611.208 457.094C611.184 457.178 611.157 457.262 611.127 457.346C611.103 457.424 611.067 457.496 611.019 457.562L608.895 460.667C608.835 460.751 608.769 460.829 608.697 460.901C608.631 460.967 608.538 461 608.418 461H606.987L610.182 456.32L607.113 451.883H608.652C608.784 451.883 608.88 451.904 608.94 451.946C609 451.988 609.054 452.048 609.102 452.126L611.343 455.546C611.391 455.372 611.466 455.204 611.568 455.042L613.53 452.162C613.584 452.078 613.641 452.012 613.701 451.964C613.767 451.91 613.845 451.883 613.935 451.883H615.411L612.342 456.239L615.537 461Z" fill="black"/>
<path d="M874.229 261.085H929.771C941.086 261.085 951.371 267.257 956.857 276.857L980.857 320.057V388.285C980.857 394.114 976.4 398.571 970.571 398.571H958.229C952.4 398.571 947.943 394.114 947.943 388.285V375.6C947.943 373.885 946.571 372.171 944.514 372.171H859.486C857.771 372.171 856.057 373.543 856.057 375.6V388.285C856.057 394.114 851.6 398.571 845.771 398.571H833.429C827.6 398.571 823.143 394.114 823.143 388.285V320.057L847.143 276.857C852.629 267.257 863.257 261.085 874.229 261.085Z" stroke="#292929" stroke-width="5" stroke-miterlimit="10" stroke-linecap="round" stroke-linejoin="round"/>
<path d="M845.771 308.4L861.543 280.286C863.257 276.857 866.686 275.143 870.457 275.143H933.886C937.657 275.143 941.086 277.2 942.8 280.286L958.571 308.4C962.343 315.257 957.543 323.829 949.657 323.829H855.029C846.8 323.829 841.657 315.257 845.771 308.4Z" stroke="#292929" stroke-width="5" stroke-miterlimit="10" stroke-linecap="round" stroke-linejoin="round"/>
<path d="M823.486 320.057H809.429H823.486Z" stroke="#292929" stroke-width="5" stroke-miterlimit="10" stroke-linecap="round" stroke-linejoin="round"/>
<path d="M858.457 347.828H844.4H858.457Z" stroke="#292929" stroke-width="5" stroke-miterlimit="10" stroke-linecap="round" stroke-linejoin="round"/>
<path d="M954.457 347.828H940.4H954.457Z" stroke="#292929" stroke-width="5" stroke-miterlimit="10" stroke-linecap="round" stroke-linejoin="round"/>
<path d="M994.572 320.057H980.514H994.572Z" stroke="#292929" stroke-width="5" stroke-miterlimit="10" stroke-linecap="round" stroke-linejoin="round"/>
<path d="M859.486 372.514H823.486" stroke="#292929" stroke-width="5" stroke-miterlimit="10" stroke-linecap="round" stroke-linejoin="round"/>
<path d="M944.514 372.514H980.514" stroke="#292929" stroke-width="5" stroke-miterlimit="10" stroke-linecap="round" stroke-linejoin="round"/>
<circle cx="942" cy="258" r="27.5" stroke="black"/>
<path d="M984.547 258.892C984.547 259.3 984.604 259.666 984.718 259.99C984.838 260.308 985.006 260.578 985.222 260.8C985.444 261.022 985.711 261.19 986.023 261.304C986.341 261.418 986.695 261.475 987.085 261.475C987.517 261.475 987.898 261.406 988.228 261.268C988.564 261.124 988.846 260.935 989.074 260.701C989.302 260.467 989.476 260.197 989.596 259.891C989.716 259.585 989.776 259.267 989.776 258.937C989.776 258.535 989.71 258.172 989.578 257.848C989.452 257.518 989.275 257.239 989.047 257.011C988.819 256.783 988.546 256.609 988.228 256.489C987.916 256.363 987.571 256.3 987.193 256.3C986.797 256.3 986.437 256.366 986.113 256.498C985.789 256.624 985.51 256.801 985.276 257.029C985.042 257.257 984.862 257.53 984.736 257.848C984.61 258.166 984.547 258.514 984.547 258.892ZM988.291 262.861C988.423 262.687 988.546 262.522 988.66 262.366C988.774 262.21 988.882 262.054 988.984 261.898C988.654 262.162 988.282 262.363 987.868 262.501C987.454 262.639 987.016 262.708 986.554 262.708C986.068 262.708 985.606 262.627 985.168 262.465C984.736 262.303 984.355 262.066 984.025 261.754C983.695 261.436 983.431 261.049 983.233 260.593C983.041 260.131 982.945 259.603 982.945 259.009C982.945 258.445 983.05 257.917 983.26 257.425C983.47 256.933 983.764 256.504 984.142 256.138C984.52 255.772 984.97 255.484 985.492 255.274C986.014 255.064 986.587 254.959 987.211 254.959C987.829 254.959 988.39 255.061 988.894 255.265C989.398 255.469 989.83 255.754 990.19 256.12C990.55 256.486 990.826 256.924 991.018 257.434C991.216 257.944 991.315 258.508 991.315 259.126C991.315 259.498 991.279 259.852 991.207 260.188C991.141 260.518 991.042 260.845 990.91 261.169C990.784 261.487 990.628 261.805 990.442 262.123C990.256 262.435 990.046 262.756 989.812 263.086L986.671 267.622C986.593 267.736 986.482 267.829 986.338 267.901C986.194 267.967 986.029 268 985.843 268H984.367L988.291 262.861ZM995.621 265.804C995.915 266.2 996.236 266.479 996.584 266.641C996.932 266.803 997.322 266.884 997.754 266.884C998.606 266.884 999.26 266.581 999.716 265.975C1000.17 265.369 1000.4 264.505 1000.4 263.383C1000.4 262.789 1000.35 262.279 1000.24 261.853C1000.14 261.427 999.986 261.079 999.788 260.809C999.59 260.533 999.347 260.332 999.059 260.206C998.771 260.08 998.444 260.017 998.078 260.017C997.556 260.017 997.097 260.137 996.701 260.377C996.311 260.617 995.951 260.956 995.621 261.394V265.804ZM995.54 260.296C995.924 259.822 996.368 259.441 996.872 259.153C997.376 258.865 997.952 258.721 998.6 258.721C999.128 258.721 999.605 258.823 1000.03 259.027C1000.46 259.225 1000.82 259.522 1001.12 259.918C1001.42 260.308 1001.65 260.794 1001.81 261.376C1001.98 261.958 1002.06 262.627 1002.06 263.383C1002.06 264.055 1001.97 264.682 1001.79 265.264C1001.61 265.84 1001.35 266.341 1001 266.767C1000.67 267.187 1000.25 267.52 999.761 267.766C999.275 268.006 998.726 268.126 998.114 268.126C997.556 268.126 997.076 268.033 996.674 267.847C996.278 267.655 995.927 267.391 995.621 267.055V271.087H994.01V258.883H994.973C995.201 258.883 995.342 258.994 995.396 259.216L995.54 260.296ZM1011.54 268H1010C1009.87 268 1009.76 267.967 1009.68 267.901C1009.61 267.829 1009.55 267.751 1009.5 267.667L1007.21 264.094C1007.18 264.178 1007.16 264.262 1007.13 264.346C1007.1 264.424 1007.07 264.496 1007.02 264.562L1004.89 267.667C1004.83 267.751 1004.77 267.829 1004.7 267.901C1004.63 267.967 1004.54 268 1004.42 268H1002.99L1006.18 263.32L1003.11 258.883H1004.65C1004.78 258.883 1004.88 258.904 1004.94 258.946C1005 258.988 1005.05 259.048 1005.1 259.126L1007.34 262.546C1007.39 262.372 1007.47 262.204 1007.57 262.042L1009.53 259.162C1009.58 259.078 1009.64 259.012 1009.7 258.964C1009.77 258.91 1009.84 258.883 1009.93 258.883H1011.41L1008.34 263.239L1011.54 268Z" fill="black"/>
</svg>
