<svg width="1204" height="678" viewBox="0 0 1204 678" fill="none" xmlns="http://www.w3.org/2000/svg">
<rect width="1204" height="677.25" fill="white"/>
<rect x="30" y="635" width="554" height="5" rx="2.5" fill="#41A5DD"/>
<path d="M38.905 613.685C38.8285 613.819 38.7456 613.917 38.6563 613.981C38.5734 614.039 38.4682 614.067 38.3407 614.067C38.2068 614.067 38.0601 614.019 37.9007 613.924C37.7477 613.822 37.5627 613.71 37.3459 613.589C37.1291 613.468 36.874 613.359 36.5807 613.264C36.2938 613.162 35.9526 613.111 35.5573 613.111C35.2002 613.111 34.8877 613.155 34.6199 613.245C34.3521 613.328 34.1257 613.445 33.9408 613.599C33.7622 613.752 33.6283 613.936 33.539 614.153C33.4498 614.364 33.4051 614.596 33.4051 614.852C33.4051 615.177 33.4944 615.448 33.673 615.665C33.8579 615.881 34.1002 616.066 34.3999 616.219C34.6996 616.372 35.0408 616.509 35.4234 616.631C35.806 616.752 36.1981 616.883 36.5999 617.023C37.0016 617.157 37.3937 617.316 37.7763 617.501C38.1589 617.68 38.5001 617.909 38.7998 618.19C39.0995 618.464 39.3386 618.802 39.5172 619.204C39.7021 619.605 39.7946 620.093 39.7946 620.667C39.7946 621.292 39.6862 621.879 39.4694 622.427C39.2589 622.969 38.9465 623.444 38.532 623.852C38.1239 624.254 37.6233 624.573 37.0303 624.809C36.4372 625.038 35.7581 625.153 34.9929 625.153C34.5529 625.153 34.1193 625.108 33.6921 625.019C33.2649 624.936 32.8536 624.815 32.4582 624.656C32.0692 624.496 31.7026 624.305 31.3582 624.082C31.0139 623.859 30.7078 623.61 30.44 623.336L31.1956 622.102C31.2594 622.013 31.3423 621.939 31.4443 621.882C31.5463 621.818 31.6547 621.786 31.7695 621.786C31.9289 621.786 32.1011 621.853 32.286 621.987C32.471 622.115 32.691 622.258 32.946 622.417C33.2011 622.577 33.4976 622.724 33.8356 622.857C34.1799 622.985 34.5912 623.049 35.0695 623.049C35.8028 623.049 36.3703 622.877 36.772 622.532C37.1737 622.182 37.3746 621.681 37.3746 621.031C37.3746 620.667 37.2822 620.371 37.0972 620.141C36.9187 619.911 36.6796 619.72 36.3799 619.567C36.0802 619.408 35.739 619.274 35.3564 619.165C34.9738 619.057 34.5848 618.939 34.1895 618.811C33.7941 618.684 33.4051 618.531 33.0225 618.352C32.6399 618.174 32.2988 617.941 31.9991 617.654C31.6994 617.367 31.4571 617.01 31.2721 616.583C31.0936 616.149 31.0043 615.617 31.0043 614.985C31.0043 614.482 31.1032 613.991 31.3008 613.512C31.5049 613.034 31.7982 612.61 32.1808 612.24C32.5634 611.87 33.0353 611.574 33.5964 611.351C34.1576 611.128 34.8016 611.016 35.5286 611.016C36.3448 611.016 37.0972 611.144 37.7859 611.399C38.4746 611.654 39.0612 612.011 39.5459 612.47L38.905 613.685ZM50.6949 615.186L45.348 627.697C45.2779 627.863 45.1854 627.987 45.0706 628.07C44.9622 628.16 44.7933 628.204 44.5637 628.204H42.8037L44.6402 624.263L40.6707 615.186H42.7464C42.9313 615.186 43.0748 615.231 43.1768 615.32C43.2852 615.409 43.3649 615.512 43.4159 615.626L45.5011 620.715C45.5712 620.887 45.6286 621.059 45.6732 621.231C45.7243 621.404 45.7721 621.579 45.8167 621.757C45.8741 621.579 45.9315 621.404 45.9889 621.231C46.0463 621.053 46.11 620.877 46.1802 620.705L48.1506 615.626C48.2016 615.499 48.2845 615.394 48.3993 615.311C48.5204 615.228 48.6543 615.186 48.801 615.186H50.6949ZM58.2506 617.099C58.1868 617.201 58.1198 617.275 58.0497 617.319C57.9796 617.358 57.8903 617.377 57.7819 617.377C57.6671 617.377 57.5428 617.345 57.4088 617.281C57.2813 617.217 57.1315 617.147 56.9593 617.071C56.7871 616.988 56.5894 616.914 56.3663 616.851C56.1495 616.787 55.8912 616.755 55.5915 616.755C55.126 616.755 54.7593 616.854 54.4915 617.051C54.2301 617.249 54.0994 617.507 54.0994 617.826C54.0994 618.037 54.1663 618.215 54.3002 618.362C54.4405 618.502 54.6222 618.627 54.8454 618.735C55.075 618.843 55.3332 618.942 55.6202 619.031C55.9071 619.114 56.1973 619.207 56.4906 619.309C56.7903 619.411 57.0836 619.529 57.3706 619.663C57.6575 619.79 57.9126 619.956 58.1358 620.16C58.3653 620.358 58.5471 620.597 58.681 620.877C58.8213 621.158 58.8914 621.496 58.8914 621.891C58.8914 622.363 58.8053 622.8 58.6332 623.202C58.4674 623.597 58.2187 623.941 57.8871 624.235C57.5555 624.522 57.1442 624.748 56.6532 624.914C56.1686 625.073 55.6074 625.153 54.9698 625.153C54.6318 625.153 54.3002 625.121 53.975 625.057C53.6562 625 53.3469 624.917 53.0472 624.809C52.7539 624.7 52.4797 624.573 52.2246 624.426C51.9759 624.279 51.7559 624.12 51.5646 623.948L52.1098 623.049C52.18 622.94 52.2629 622.857 52.3585 622.8C52.4542 622.743 52.5753 622.714 52.722 622.714C52.8687 622.714 53.0058 622.755 53.1333 622.838C53.2672 622.921 53.4202 623.01 53.5924 623.106C53.7646 623.202 53.9654 623.291 54.195 623.374C54.4309 623.457 54.7275 623.498 55.0846 623.498C55.3651 623.498 55.6043 623.466 55.8019 623.403C56.006 623.333 56.1718 623.243 56.2993 623.135C56.4332 623.026 56.5289 622.902 56.5863 622.762C56.65 622.615 56.6819 622.465 56.6819 622.312C56.6819 622.083 56.6118 621.895 56.4715 621.748C56.3376 621.601 56.1558 621.474 55.9263 621.365C55.7031 621.257 55.4448 621.161 55.1515 621.078C54.8646 620.989 54.568 620.893 54.262 620.791C53.9623 620.689 53.6657 620.571 53.3724 620.437C53.0855 620.297 52.8272 620.122 52.5977 619.911C52.3745 619.701 52.1927 619.443 52.0524 619.137C51.9185 618.831 51.8516 618.461 51.8516 618.027C51.8516 617.625 51.9313 617.243 52.0907 616.879C52.2501 616.516 52.4829 616.2 52.789 615.932C53.1014 615.658 53.4872 615.441 53.9463 615.282C54.4118 615.116 54.9475 615.033 55.5532 615.033C56.2292 615.033 56.8445 615.145 57.3993 615.368C57.9541 615.591 58.4164 615.885 58.7862 616.248L58.2506 617.099ZM64.5408 625.153C63.6864 625.153 63.0296 624.914 62.5705 624.436C62.1177 623.951 61.8913 623.285 61.8913 622.437V616.956H60.887C60.7595 616.956 60.6511 616.914 60.5618 616.831C60.4725 616.749 60.4279 616.624 60.4279 616.458V615.521L62.0061 615.263L62.5035 612.585C62.5354 612.457 62.596 612.358 62.6852 612.288C62.7745 612.218 62.8893 612.183 63.0296 612.183H64.2539V615.272H66.8747V616.956H64.2539V622.274C64.2539 622.58 64.3272 622.819 64.4739 622.991C64.6269 623.164 64.8342 623.25 65.0956 623.25C65.2423 623.25 65.3634 623.234 65.4591 623.202C65.5611 623.164 65.6472 623.125 65.7173 623.087C65.7939 623.049 65.8608 623.014 65.9182 622.982C65.9756 622.944 66.033 622.924 66.0904 622.924C66.1605 622.924 66.2179 622.944 66.2625 622.982C66.3072 623.014 66.355 623.065 66.406 623.135L67.1138 624.283C66.7695 624.57 66.3741 624.786 65.9278 624.933C65.4814 625.08 65.0191 625.153 64.5408 625.153ZM75.2351 618.964C75.2351 618.658 75.1904 618.371 75.1011 618.104C75.0183 617.829 74.8907 617.59 74.7185 617.386C74.5464 617.182 74.3264 617.023 74.0586 616.908C73.7971 616.787 73.491 616.726 73.1403 616.726C72.458 616.726 71.9192 616.921 71.5238 617.31C71.1349 617.699 70.8862 618.25 70.7778 618.964H75.2351ZM70.7299 620.39C70.7682 620.893 70.8575 621.33 70.9978 621.7C71.138 622.064 71.323 622.366 71.5525 622.609C71.7821 622.845 72.0531 623.023 72.3656 623.144C72.6844 623.259 73.0351 623.317 73.4177 623.317C73.8003 623.317 74.1287 623.272 74.4029 623.183C74.6835 623.093 74.9258 622.995 75.1298 622.886C75.3403 622.778 75.522 622.679 75.675 622.59C75.8345 622.5 75.9875 622.456 76.1342 622.456C76.3318 622.456 76.4785 622.529 76.5742 622.676L77.2533 623.537C76.9918 623.843 76.6985 624.101 76.3733 624.311C76.0481 624.515 75.7069 624.681 75.3498 624.809C74.9991 624.93 74.6388 625.016 74.269 625.067C73.9055 625.118 73.5516 625.143 73.2073 625.143C72.525 625.143 71.8905 625.032 71.3038 624.809C70.7172 624.579 70.2071 624.244 69.7734 623.804C69.3398 623.358 68.9987 622.81 68.75 622.159C68.5013 621.502 68.377 620.744 68.377 619.883C68.377 619.213 68.4854 618.585 68.7022 617.998C68.919 617.405 69.2282 616.892 69.63 616.458C70.0381 616.018 70.5323 615.671 71.1125 615.416C71.6992 615.161 72.3592 615.033 73.0925 615.033C73.711 615.033 74.2817 615.132 74.8046 615.33C75.3275 615.527 75.7771 615.818 76.1533 616.2C76.5295 616.576 76.8228 617.042 77.0333 617.597C77.2501 618.145 77.3585 618.773 77.3585 619.481C77.3585 619.838 77.3202 620.08 77.2437 620.208C77.1672 620.329 77.0205 620.39 76.8037 620.39H70.7299ZM79.7315 625V615.186H81.1758C81.4818 615.186 81.6827 615.33 81.7784 615.617L81.9314 616.344C82.1036 616.152 82.2821 615.977 82.467 615.818C82.6583 615.658 82.8592 615.521 83.0696 615.406C83.2864 615.292 83.516 615.202 83.7583 615.138C84.007 615.068 84.278 615.033 84.5713 615.033C85.1899 615.033 85.6968 615.202 86.0922 615.54C86.4939 615.872 86.7936 616.315 86.9913 616.87C87.1443 616.545 87.3356 616.267 87.5652 616.038C87.7947 615.802 88.0466 615.61 88.3208 615.464C88.595 615.317 88.8852 615.209 89.1912 615.138C89.5037 615.068 89.8162 615.033 90.1286 615.033C90.6706 615.033 91.1521 615.116 91.5729 615.282C91.9938 615.448 92.3477 615.69 92.6346 616.009C92.9216 616.328 93.1384 616.717 93.2851 617.176C93.4381 617.635 93.5146 618.161 93.5146 618.754V625H91.1521V618.754C91.1521 618.129 91.015 617.66 90.7408 617.348C90.4666 617.029 90.0648 616.87 89.5356 616.87C89.2933 616.87 89.0669 616.911 88.8565 616.994C88.6524 617.077 88.4707 617.198 88.3113 617.358C88.1582 617.511 88.0371 617.705 87.9478 617.941C87.8585 618.177 87.8139 618.448 87.8139 618.754V625H85.4418V618.754C85.4418 618.097 85.3078 617.619 85.04 617.319C84.7786 617.02 84.3928 616.87 83.8827 616.87C83.5383 616.87 83.2163 616.956 82.9166 617.128C82.6233 617.294 82.3491 617.523 82.094 617.817V625H79.7315Z" fill="#41A5DD"/>
<rect x="632" y="635" width="542" height="5" fill="#006091"/>
<path d="M636.123 613.216V617.31H641.307V619.366H636.123V625H633.54V611.169H642.263V613.216H636.123ZM646.844 610.786V625H644.482V610.786H646.844ZM656.12 618.964C656.12 618.658 656.076 618.371 655.987 618.104C655.904 617.829 655.776 617.59 655.604 617.386C655.432 617.182 655.212 617.023 654.944 616.908C654.682 616.787 654.376 616.726 654.026 616.726C653.343 616.726 652.805 616.921 652.409 617.31C652.02 617.699 651.772 618.25 651.663 618.964H656.12ZM651.615 620.39C651.654 620.893 651.743 621.33 651.883 621.7C652.023 622.064 652.208 622.366 652.438 622.609C652.667 622.845 652.938 623.023 653.251 623.144C653.57 623.259 653.92 623.317 654.303 623.317C654.686 623.317 655.014 623.272 655.288 623.183C655.569 623.093 655.811 622.995 656.015 622.886C656.226 622.778 656.407 622.679 656.56 622.59C656.72 622.5 656.873 622.456 657.02 622.456C657.217 622.456 657.364 622.529 657.46 622.676L658.139 623.537C657.877 623.843 657.584 624.101 657.259 624.311C656.933 624.515 656.592 624.681 656.235 624.809C655.884 624.93 655.524 625.016 655.154 625.067C654.791 625.118 654.437 625.143 654.093 625.143C653.41 625.143 652.776 625.032 652.189 624.809C651.603 624.579 651.092 624.244 650.659 623.804C650.225 623.358 649.884 622.81 649.635 622.159C649.387 621.502 649.262 620.744 649.262 619.883C649.262 619.213 649.371 618.585 649.588 617.998C649.804 617.405 650.114 616.892 650.515 616.458C650.923 616.018 651.418 615.671 651.998 615.416C652.585 615.161 653.245 615.033 653.978 615.033C654.596 615.033 655.167 615.132 655.69 615.33C656.213 615.527 656.662 615.818 657.039 616.2C657.415 616.576 657.708 617.042 657.919 617.597C658.135 618.145 658.244 618.773 658.244 619.481C658.244 619.838 658.206 620.08 658.129 620.208C658.053 620.329 657.906 620.39 657.689 620.39H651.615ZM669.229 625H666.952C666.78 625 666.64 624.955 666.532 624.866C666.43 624.777 666.343 624.675 666.273 624.56L664.198 621.145C664.166 621.254 664.128 621.356 664.083 621.451C664.045 621.547 664 621.636 663.949 621.719L662.113 624.56C662.042 624.668 661.956 624.77 661.854 624.866C661.752 624.955 661.625 625 661.472 625H659.358L662.725 619.94L659.492 615.186H661.768C661.94 615.186 662.068 615.212 662.151 615.263C662.234 615.307 662.307 615.384 662.371 615.492L664.427 618.764C664.497 618.547 664.596 618.333 664.724 618.123L666.379 615.54C666.519 615.304 666.701 615.186 666.924 615.186H669.095L665.872 619.835L669.229 625ZM673.511 615.186V625H671.139V615.186H673.511ZM673.836 612.326C673.836 612.53 673.794 612.722 673.712 612.9C673.629 613.079 673.517 613.235 673.377 613.369C673.243 613.503 673.083 613.611 672.899 613.694C672.714 613.771 672.516 613.809 672.305 613.809C672.101 613.809 671.907 613.771 671.722 613.694C671.543 613.611 671.387 613.503 671.253 613.369C671.119 613.235 671.011 613.079 670.928 612.9C670.852 612.722 670.813 612.53 670.813 612.326C670.813 612.116 670.852 611.918 670.928 611.733C671.011 611.548 671.119 611.389 671.253 611.255C671.387 611.121 671.543 611.016 671.722 610.939C671.907 610.857 672.101 610.815 672.305 610.815C672.516 610.815 672.714 610.857 672.899 610.939C673.083 611.016 673.243 611.121 673.377 611.255C673.517 611.389 673.629 611.548 673.712 611.733C673.794 611.918 673.836 612.116 673.836 612.326ZM678.882 622.456C679.15 622.781 679.44 623.01 679.752 623.144C680.071 623.278 680.406 623.345 680.757 623.345C681.12 623.345 681.445 623.281 681.732 623.154C682.026 623.02 682.274 622.816 682.478 622.542C682.682 622.261 682.839 621.907 682.947 621.48C683.055 621.046 683.11 620.53 683.11 619.931C683.11 618.853 682.931 618.075 682.574 617.597C682.217 617.112 681.704 616.87 681.034 616.87C680.581 616.87 680.186 616.975 679.848 617.185C679.51 617.389 679.188 617.68 678.882 618.056V622.456ZM678.882 616.392C679.277 615.977 679.714 615.649 680.192 615.406C680.677 615.158 681.228 615.033 681.847 615.033C682.414 615.033 682.925 615.145 683.377 615.368C683.836 615.591 684.225 615.913 684.544 616.334C684.87 616.749 685.118 617.252 685.29 617.845C685.463 618.438 685.549 619.105 685.549 619.844C685.549 620.642 685.45 621.365 685.252 622.016C685.054 622.666 684.771 623.224 684.401 623.69C684.037 624.149 683.597 624.506 683.081 624.761C682.564 625.016 681.99 625.143 681.359 625.143C681.053 625.143 680.776 625.112 680.527 625.048C680.278 624.99 680.049 624.908 679.838 624.799C679.628 624.691 679.433 624.56 679.255 624.407C679.083 624.248 678.917 624.072 678.757 623.881L678.652 624.541C678.614 624.707 678.547 624.825 678.451 624.895C678.362 624.965 678.238 625 678.078 625H676.519V610.786H678.882V616.392ZM690.365 610.786V625H688.002V610.786H690.365ZM699.641 618.964C699.641 618.658 699.596 618.371 699.507 618.104C699.424 617.829 699.297 617.59 699.124 617.386C698.952 617.182 698.732 617.023 698.464 616.908C698.203 616.787 697.897 616.726 697.546 616.726C696.864 616.726 696.325 616.921 695.93 617.31C695.541 617.699 695.292 618.25 695.184 618.964H699.641ZM695.136 620.39C695.174 620.893 695.263 621.33 695.404 621.7C695.544 622.064 695.729 622.366 695.958 622.609C696.188 622.845 696.459 623.023 696.771 623.144C697.09 623.259 697.441 623.317 697.824 623.317C698.206 623.317 698.535 623.272 698.809 623.183C699.089 623.093 699.332 622.995 699.536 622.886C699.746 622.778 699.928 622.679 700.081 622.59C700.24 622.5 700.393 622.456 700.54 622.456C700.738 622.456 700.884 622.529 700.98 622.676L701.659 623.537C701.398 623.843 701.104 624.101 700.779 624.311C700.454 624.515 700.113 624.681 699.756 624.809C699.405 624.93 699.045 625.016 698.675 625.067C698.311 625.118 697.957 625.143 697.613 625.143C696.931 625.143 696.296 625.032 695.71 624.809C695.123 624.579 694.613 624.244 694.179 623.804C693.746 623.358 693.405 622.81 693.156 622.159C692.907 621.502 692.783 620.744 692.783 619.883C692.783 619.213 692.891 618.585 693.108 617.998C693.325 617.405 693.634 616.892 694.036 616.458C694.444 616.018 694.938 615.671 695.518 615.416C696.105 615.161 696.765 615.033 697.498 615.033C698.117 615.033 698.688 615.132 699.21 615.33C699.733 615.527 700.183 615.818 700.559 616.2C700.935 616.576 701.229 617.042 701.439 617.597C701.656 618.145 701.764 618.773 701.764 619.481C701.764 619.838 701.726 620.08 701.65 620.208C701.573 620.329 701.426 620.39 701.21 620.39H695.136Z" fill="#006091"/>
<path d="M359.857 400.237C349.857 396.584 326.429 396.303 325 376.07C323.572 352.747 305.572 333.919 281.857 334.481C258.714 334.762 240.143 353.871 240.143 376.914V466.837C240.143 469.928 242.714 472.176 245.572 472.176H368.143C371.286 472.176 373.572 469.647 373.572 466.837V426.652C373.857 416.255 369.857 404.172 359.857 400.237Z" stroke="#292929" stroke-width="5" stroke-miterlimit="10"/>
<path d="M360.43 486.227H253.572C248.715 486.227 245.001 482.573 245.001 477.796V472.457H369.287V477.796C369.001 482.573 365.287 486.227 360.43 486.227Z" stroke="#292929" stroke-width="5" stroke-miterlimit="10"/>
<path d="M367 244.572H247C237.572 244.572 229.857 236.857 229.857 227.429V132.572C229.857 123.143 237.572 115.429 247 115.429H367C376.429 115.429 384.143 123.143 384.143 132.572V227.429C384.143 236.857 376.429 244.572 367 244.572Z" stroke="#292929" stroke-width="5" stroke-miterlimit="10"/>
<path d="M318.428 115.429H295.285V182.286C295.285 187.143 298.999 190.857 303.857 190.857H309.857C314.714 190.857 318.428 187.143 318.428 182.286V115.429Z" fill="#292929" stroke="#292929" stroke-width="5" stroke-miterlimit="10"/>
<path d="M279.286 115.429H256.143V182.286C256.143 187.143 259.857 190.857 264.714 190.857H270.714C275.572 190.857 279.286 187.143 279.286 182.286V115.429V115.429Z" fill="#292929" stroke="#292929" stroke-width="5" stroke-miterlimit="10"/>
<path d="M267.572 190.857V244.571" stroke="#292929" stroke-width="5" stroke-miterlimit="10"/>
<path d="M307 190.857V244.571" stroke="#292929" stroke-width="5" stroke-miterlimit="10"/>
<path d="M358.142 115.429H335V182.286C335 187.143 338.714 190.857 343.571 190.857H349.571C354.428 190.857 358.142 187.143 358.142 182.286V115.429Z" fill="#292929" stroke="#292929" stroke-width="5" stroke-miterlimit="10"/>
<path d="M346.428 190.857V244.571" stroke="#292929" stroke-width="5" stroke-miterlimit="10"/>
<path d="M920.857 444.857L884 442.286C881.714 442 880 439.714 880 437.143L881.143 420.571C881.429 417.714 883.429 415.714 885.714 416L922.857 418.571C925.143 418.857 926.857 421.143 926.857 423.714L925.714 440.286C925.429 443.143 923.429 445.143 920.857 444.857Z" stroke="#292929" stroke-width="5" stroke-miterlimit="10"/>
<path d="M975.143 370.286L950 346C946.857 342.857 942.571 341.143 938 341.143H868C863.429 341.143 859.143 342.857 856 346L831.143 370.286C828 373.429 826 378 826 382.571V462C826 471.429 833.714 479.143 843.143 479.143H963.143C972.571 479.143 980.286 471.429 980.286 462V382.571C980.286 378 978.286 373.429 975.143 370.286Z" stroke="#292929" stroke-width="5" stroke-miterlimit="10"/>
<path d="M826 375.143H980.286" stroke="#292929" stroke-width="5" stroke-miterlimit="10"/>
<path d="M903 340.857V375.143" stroke="#292929" stroke-width="5" stroke-miterlimit="10"/>
<path d="M969.857 148.857L941.857 122.571C940.142 121.143 938.142 120.286 936.142 120.286H870.428C868.142 120.286 866.142 121.143 864.714 122.571L836.714 148.857" stroke="#292929" stroke-width="5" stroke-miterlimit="10" stroke-linecap="round" stroke-linejoin="round"/>
<path d="M836.143 179.714V222.571C836.143 232 843.857 239.714 853.286 239.714H952.715C962.143 239.714 969.857 232 969.857 222.571V179.714" stroke="#292929" stroke-width="5" stroke-miterlimit="10" stroke-linecap="round" stroke-linejoin="round"/>
<path d="M870.143 148.857V120.286" stroke="#292929" stroke-width="5" stroke-miterlimit="10" stroke-linecap="round" stroke-linejoin="round"/>
<path d="M881.857 179.714V197.714C881.857 199.714 883.857 201.143 885.857 200.571L902.429 195.714C903 195.429 903.572 195.429 904.143 195.714L920.715 200.571C922.715 201.143 924.715 199.714 924.715 197.714V179.714" stroke="#292929" stroke-width="5" stroke-miterlimit="10" stroke-linecap="round" stroke-linejoin="round"/>
<path d="M969.857 148.857L976.429 168.571C978.143 174 974.143 179.714 968.429 179.714H837.857C832.143 179.714 827.857 174 829.857 168.571L836.429 148.857H969.857Z" stroke="#292929" stroke-width="5" stroke-miterlimit="10" stroke-linecap="round" stroke-linejoin="round"/>
</svg>
