<svg width="1204" height="678" viewBox="0 0 1204 678" fill="none" xmlns="http://www.w3.org/2000/svg">
<rect width="1204" height="677.25" fill="white"/>
<rect x="30" y="635" width="542" height="5" rx="2.5" fill="#70C216"/>
<path d="M43.8214 618.085C43.8214 619.098 43.6524 620.029 43.3145 620.877C42.9765 621.726 42.5015 622.456 41.8893 623.068C41.2771 623.68 40.5406 624.155 39.6798 624.493C38.8189 624.831 37.8624 625 36.8103 625H31.54V611.169H36.8103C37.8624 611.169 38.8189 611.341 39.6798 611.686C40.5406 612.023 41.2771 612.499 41.8893 613.111C42.5015 613.716 42.9765 614.443 43.3145 615.292C43.6524 616.14 43.8214 617.071 43.8214 618.085ZM41.1815 618.085C41.1815 617.326 41.0795 616.647 40.8754 616.047C40.6777 615.441 40.3876 614.931 40.005 614.517C39.6288 614.096 39.1696 613.774 38.6276 613.551C38.092 613.328 37.4862 613.216 36.8103 613.216H34.1225V622.953H36.8103C37.4862 622.953 38.092 622.841 38.6276 622.618C39.1696 622.395 39.6288 622.076 40.005 621.662C40.3876 621.241 40.6777 620.731 40.8754 620.131C41.0795 619.526 41.1815 618.843 41.1815 618.085ZM50.5317 615.033C51.2586 615.033 51.9186 615.151 52.5116 615.387C53.111 615.623 53.6212 615.958 54.042 616.392C54.4693 616.825 54.7977 617.354 55.0272 617.979C55.2568 618.604 55.3716 619.302 55.3716 620.074C55.3716 620.852 55.2568 621.553 55.0272 622.178C54.7977 622.803 54.4693 623.336 54.042 623.776C53.6212 624.216 53.111 624.554 52.5116 624.79C51.9186 625.026 51.2586 625.143 50.5317 625.143C49.7983 625.143 49.132 625.026 48.5326 624.79C47.9332 624.554 47.4199 624.216 46.9926 623.776C46.5718 623.336 46.2434 622.803 46.0074 622.178C45.7779 621.553 45.6631 620.852 45.6631 620.074C45.6631 619.302 45.7779 618.604 46.0074 617.979C46.2434 617.354 46.5718 616.825 46.9926 616.392C47.4199 615.958 47.9332 615.623 48.5326 615.387C49.132 615.151 49.7983 615.033 50.5317 615.033ZM50.5317 623.326C51.3479 623.326 51.9505 623.052 52.3395 622.504C52.7348 621.955 52.9325 621.152 52.9325 620.093C52.9325 619.035 52.7348 618.228 52.3395 617.673C51.9505 617.118 51.3479 616.841 50.5317 616.841C49.7027 616.841 49.0874 617.122 48.6856 617.683C48.2903 618.238 48.0926 619.041 48.0926 620.093C48.0926 621.145 48.2903 621.949 48.6856 622.504C49.0874 623.052 49.7027 623.326 50.5317 623.326Z" fill="#70C216"/>
<rect x="632" y="635" width="542" height="5" fill="#F74F64"/>
<path d="M645.821 618.085C645.821 619.098 645.652 620.029 645.314 620.877C644.977 621.726 644.501 622.456 643.889 623.068C643.277 623.68 642.541 624.155 641.68 624.493C640.819 624.831 639.862 625 638.81 625H633.54V611.169H638.81C639.862 611.169 640.819 611.341 641.68 611.686C642.541 612.023 643.277 612.499 643.889 613.111C644.501 613.716 644.977 614.443 645.314 615.292C645.652 616.14 645.821 617.071 645.821 618.085ZM643.181 618.085C643.181 617.326 643.079 616.647 642.875 616.047C642.678 615.441 642.388 614.931 642.005 614.517C641.629 614.096 641.17 613.774 640.628 613.551C640.092 613.328 639.486 613.216 638.81 613.216H636.123V622.953H638.81C639.486 622.953 640.092 622.841 640.628 622.618C641.17 622.395 641.629 622.076 642.005 621.662C642.388 621.241 642.678 620.731 642.875 620.131C643.079 619.526 643.181 618.843 643.181 618.085ZM652.532 615.033C653.259 615.033 653.919 615.151 654.512 615.387C655.111 615.623 655.621 615.958 656.042 616.392C656.469 616.825 656.798 617.354 657.027 617.979C657.257 618.604 657.372 619.302 657.372 620.074C657.372 620.852 657.257 621.553 657.027 622.178C656.798 622.803 656.469 623.336 656.042 623.776C655.621 624.216 655.111 624.554 654.512 624.79C653.919 625.026 653.259 625.143 652.532 625.143C651.798 625.143 651.132 625.026 650.533 624.79C649.933 624.554 649.42 624.216 648.993 623.776C648.572 623.336 648.243 622.803 648.007 622.178C647.778 621.553 647.663 620.852 647.663 620.074C647.663 619.302 647.778 618.604 648.007 617.979C648.243 617.354 648.572 616.825 648.993 616.392C649.42 615.958 649.933 615.623 650.533 615.387C651.132 615.151 651.798 615.033 652.532 615.033ZM652.532 623.326C653.348 623.326 653.95 623.052 654.339 622.504C654.735 621.955 654.932 621.152 654.932 620.093C654.932 619.035 654.735 618.228 654.339 617.673C653.95 617.118 653.348 616.841 652.532 616.841C651.703 616.841 651.087 617.122 650.686 617.683C650.29 618.238 650.093 619.041 650.093 620.093C650.093 621.145 650.29 621.949 650.686 622.504C651.087 623.052 651.703 623.326 652.532 623.326ZM661.983 616.392C662.181 616.194 662.388 616.012 662.605 615.846C662.828 615.674 663.061 615.531 663.303 615.416C663.552 615.295 663.817 615.202 664.097 615.138C664.378 615.068 664.684 615.033 665.016 615.033C665.551 615.033 666.026 615.126 666.441 615.311C666.855 615.489 667.2 615.744 667.474 616.076C667.754 616.401 667.965 616.793 668.105 617.252C668.252 617.705 668.325 618.206 668.325 618.754V625H665.963V618.754C665.963 618.155 665.825 617.692 665.551 617.367C665.277 617.036 664.859 616.87 664.298 616.87C663.89 616.87 663.507 616.962 663.15 617.147C662.793 617.332 662.455 617.584 662.137 617.903V625H659.774V615.186H661.218C661.524 615.186 661.725 615.33 661.821 615.617L661.983 616.392ZM672.499 610.241C672.805 610.745 673.012 611.271 673.12 611.819C673.229 612.361 673.238 612.9 673.149 613.436C673.06 613.965 672.872 614.475 672.585 614.966C672.304 615.451 671.925 615.888 671.446 616.277L670.7 615.827C670.637 615.789 670.592 615.744 670.567 615.693C670.541 615.636 670.528 615.582 670.528 615.531C670.535 615.473 670.547 615.419 670.567 615.368C670.592 615.317 670.624 615.272 670.662 615.234C670.796 615.075 670.924 614.864 671.045 614.603C671.166 614.341 671.249 614.048 671.293 613.723C671.344 613.398 671.338 613.05 671.274 612.68C671.217 612.31 671.073 611.941 670.844 611.571C670.735 611.386 670.704 611.226 670.748 611.092C670.799 610.952 670.904 610.853 671.064 610.796L672.499 610.241ZM678.985 625.153C678.131 625.153 677.474 624.914 677.015 624.436C676.562 623.951 676.335 623.285 676.335 622.437V616.956H675.331C675.204 616.956 675.095 616.914 675.006 616.831C674.917 616.749 674.872 616.624 674.872 616.458V615.521L676.45 615.263L676.948 612.585C676.98 612.457 677.04 612.358 677.129 612.288C677.219 612.218 677.333 612.183 677.474 612.183H678.698V615.272H681.319V616.956H678.698V622.274C678.698 622.58 678.771 622.819 678.918 622.991C679.071 623.164 679.278 623.25 679.54 623.25C679.686 623.25 679.808 623.234 679.903 623.202C680.005 623.164 680.091 623.125 680.161 623.087C680.238 623.049 680.305 623.014 680.362 622.982C680.42 622.944 680.477 622.924 680.535 622.924C680.605 622.924 680.662 622.944 680.707 622.982C680.751 623.014 680.799 623.065 680.85 623.135L681.558 624.283C681.214 624.57 680.818 624.786 680.372 624.933C679.926 625.08 679.463 625.153 678.985 625.153Z" fill="#F74F64"/>
<path d="M950.426 208.629H938.5V202.484C938.5 199.318 937.298 196.618 934.895 194.384C932.676 191.963 929.902 190.753 926.574 190.753H914.926V202.484H926.574V254.996C924.54 257.044 922.969 259.465 921.859 262.258H901.891C900.596 258.72 898.47 255.834 895.512 253.599C892.553 251.365 889.133 250.247 885.25 250.247C881.367 250.247 877.947 251.365 874.988 253.599C872.03 255.834 869.904 258.72 868.609 262.258H867.5V238.237H855.574V268.124C855.574 269.8 856.129 271.196 857.238 272.313C858.533 273.431 860.012 273.989 861.676 273.989H868.609C869.904 277.527 872.03 280.414 874.988 282.648C877.947 284.883 881.367 286 885.25 286C889.133 286 892.553 284.883 895.512 282.648C898.47 280.414 900.596 277.527 901.891 273.989H921.859C923.154 277.527 925.28 280.414 928.238 282.648C931.197 284.883 934.617 286 938.5 286C942.383 286 945.803 284.883 948.762 282.648C951.72 280.414 953.846 277.527 955.141 273.989H968.176C969.655 273.989 970.949 273.431 972.059 272.313C973.353 271.196 974 269.8 974 268.124V232.371C974 225.854 971.689 220.267 967.066 215.612C962.444 210.957 956.897 208.629 950.426 208.629ZM889.41 272.313C888.301 273.431 886.914 273.989 885.25 273.989C883.586 273.989 882.199 273.431 881.09 272.313C879.98 271.196 879.426 269.8 879.426 268.124C879.426 266.448 879.98 265.051 881.09 263.934C882.199 262.817 883.586 262.258 885.25 262.258C886.914 262.258 888.301 262.817 889.41 263.934C890.52 265.051 891.074 266.448 891.074 268.124C891.074 269.8 890.52 271.196 889.41 272.313ZM942.66 272.313C941.551 273.431 940.164 273.989 938.5 273.989C936.836 273.989 935.449 273.431 934.34 272.313C933.23 271.196 932.676 269.8 932.676 268.124C932.676 266.448 933.23 265.051 934.34 263.934C935.449 262.817 936.836 262.258 938.5 262.258C940.164 262.258 941.551 262.817 942.66 263.934C943.77 265.051 944.324 266.448 944.324 268.124C944.324 269.8 943.77 271.196 942.66 272.313ZM962.074 262.258H955.141C953.846 258.72 951.72 255.834 948.762 253.599C945.803 251.365 942.383 250.247 938.5 250.247V220.36H950.426C953.569 220.36 956.25 221.571 958.469 223.991C960.872 226.226 962.074 229.019 962.074 232.371V262.258ZM944.324 226.505H956.25V238.237H944.324V226.505ZM842.262 216.171C849.288 223.06 857.701 226.505 867.5 226.505C877.299 226.505 885.62 223.06 892.461 216.171C899.487 209.095 903 200.622 903 190.753C903 180.883 899.487 172.504 892.461 165.614C885.62 158.538 877.299 155 867.5 155C857.701 155 849.288 158.538 842.262 165.614C835.421 172.504 832 180.883 832 190.753C832 200.622 835.421 209.095 842.262 216.171ZM850.859 173.994C855.482 169.152 861.029 166.731 867.5 166.731C873.971 166.731 879.518 169.152 884.141 173.994C888.763 178.649 891.074 184.235 891.074 190.753C891.074 197.27 888.763 202.856 884.141 207.512C879.518 212.167 873.971 214.495 867.5 214.495C861.029 214.495 855.482 212.167 850.859 207.512C846.237 202.856 843.926 197.27 843.926 190.753C843.926 184.235 846.237 178.649 850.859 173.994ZM879.426 184.608H873.324V172.876H861.676V196.618H879.426V184.608ZM832 244.382H849.75V256.113H832V244.382ZM837.824 262.258H849.75V273.989H837.824V262.258Z" fill="#41A5DD"/>
<path d="M913.896 430.281H911.188V428.874C911.188 428.149 910.915 427.531 910.369 427.019C909.865 426.465 909.235 426.188 908.479 426.188H905.833V428.874H908.479V440.9C908.017 441.369 907.66 441.923 907.408 442.563H902.873C902.579 441.753 902.096 441.092 901.424 440.58C900.752 440.068 899.976 439.812 899.094 439.812C898.212 439.812 897.435 440.068 896.763 440.58C896.091 441.092 895.608 441.753 895.314 442.563H895.062V437.062H892.354V443.906C892.354 444.29 892.48 444.61 892.732 444.866C893.026 445.122 893.362 445.249 893.74 445.249H895.314C895.608 446.06 896.091 446.721 896.763 447.232C897.435 447.744 898.212 448 899.094 448C899.976 448 900.752 447.744 901.424 447.232C902.096 446.721 902.579 446.06 902.873 445.249H907.408C907.702 446.06 908.185 446.721 908.857 447.232C909.529 447.744 910.306 448 911.188 448C912.069 448 912.846 447.744 913.518 447.232C914.19 446.721 914.673 446.06 914.967 445.249H917.927C918.263 445.249 918.557 445.122 918.809 444.866C919.103 444.61 919.25 444.29 919.25 443.906V435.719C919.25 434.226 918.725 432.947 917.675 431.881C916.625 430.814 915.366 430.281 913.896 430.281ZM900.039 444.866C899.787 445.122 899.472 445.249 899.094 445.249C898.716 445.249 898.401 445.122 898.149 444.866C897.897 444.61 897.771 444.29 897.771 443.906C897.771 443.522 897.897 443.203 898.149 442.947C898.401 442.691 898.716 442.563 899.094 442.563C899.472 442.563 899.787 442.691 900.039 442.947C900.291 443.203 900.417 443.522 900.417 443.906C900.417 444.29 900.291 444.61 900.039 444.866ZM912.132 444.866C911.88 445.122 911.565 445.249 911.188 445.249C910.81 445.249 910.495 445.122 910.243 444.866C909.991 444.61 909.865 444.29 909.865 443.906C909.865 443.522 909.991 443.203 910.243 442.947C910.495 442.691 910.81 442.563 911.188 442.563C911.565 442.563 911.88 442.691 912.132 442.947C912.384 443.203 912.51 443.522 912.51 443.906C912.51 444.29 912.384 444.61 912.132 444.866ZM916.542 442.563H914.967C914.673 441.753 914.19 441.092 913.518 440.58C912.846 440.068 912.069 439.812 911.188 439.812V432.968H913.896C914.61 432.968 915.219 433.245 915.723 433.8C916.269 434.311 916.542 434.951 916.542 435.719V442.563ZM912.51 434.375H915.219V437.062H912.51V434.375ZM889.331 432.009C890.926 433.586 892.837 434.375 895.062 434.375C897.288 434.375 899.178 433.586 900.731 432.009C902.327 430.388 903.125 428.448 903.125 426.188C903.125 423.928 902.327 422.009 900.731 420.431C899.178 418.81 897.288 418 895.062 418C892.837 418 890.926 418.81 889.331 420.431C887.777 422.009 887 423.928 887 426.188C887 428.448 887.777 430.388 889.331 432.009ZM891.283 422.35C892.333 421.241 893.593 420.687 895.062 420.687C896.532 420.687 897.792 421.241 898.842 422.35C899.892 423.416 900.417 424.695 900.417 426.188C900.417 427.68 899.892 428.959 898.842 430.026C897.792 431.092 896.532 431.625 895.062 431.625C893.593 431.625 892.333 431.092 891.283 430.026C890.233 428.959 889.708 427.68 889.708 426.188C889.708 424.695 890.233 423.416 891.283 422.35ZM897.771 424.78H896.385V422.094H893.74V427.531H897.771V424.78ZM887 438.469H891.031V441.156H887V438.469ZM888.323 442.563H891.031V445.249H888.323V442.563Z" fill="#41A5DD"/>
<path d="M211.857 231.457H239.971" stroke="#292929" stroke-width="5" stroke-linecap="round" stroke-linejoin="round"/>
<path d="M219.743 251H239.971" stroke="#292929" stroke-width="5" stroke-linecap="round" stroke-linejoin="round"/>
<path d="M392.2 203L382.943 185.857C381.228 182.429 377.8 180.371 374.028 180.371H353.8V232.829C354.486 232.829 355.514 232.486 356.2 232.486C364.428 232.486 370.943 239 370.943 247.229H383.286C389.114 247.229 393.571 242.771 393.571 236.943V207.457C393.228 206.086 392.886 204.371 392.2 203Z" stroke="#292929" stroke-width="5" stroke-miterlimit="10"/>
<path d="M354.143 232.829V180.371C354.143 174.886 349.686 170.429 344.2 170.429H265.343C259.515 170.429 255.057 174.886 255.057 180.714V237.286C255.057 243.114 259.515 247.571 265.343 247.571H267.4C267.4 239.343 273.915 232.829 282.143 232.829C290.372 232.829 296.886 239.343 296.886 247.571H341.457C341.8 240.029 346.943 233.857 354.143 232.829Z" stroke="#292929" stroke-width="5" stroke-miterlimit="10"/>
<path d="M282.486 262.314C290.714 262.314 297.229 255.8 297.229 247.571C297.229 239.343 290.714 232.829 282.486 232.829C274.257 232.829 267.743 239.343 267.743 247.571C267.4 255.8 274.257 262.314 282.486 262.314Z" stroke="#292929" stroke-width="5" stroke-miterlimit="10"/>
<path d="M356.543 262.314C364.771 262.314 371.285 255.8 371.285 247.571C371.285 239.343 364.771 232.829 356.543 232.829C348.314 232.829 341.8 239.343 341.8 247.571C341.8 255.8 348.314 262.314 356.543 262.314Z" stroke="#292929" stroke-width="5" stroke-miterlimit="10"/>
<path d="M283.914 436.154H289.303" stroke="#292929" stroke-width="2" stroke-linecap="round" stroke-linejoin="round"/>
<path d="M285.426 439.9H289.303" stroke="#292929" stroke-width="2" stroke-linecap="round" stroke-linejoin="round"/>
<path d="M318.48 430.7L316.706 427.414C316.377 426.757 315.72 426.363 314.997 426.363H311.12V436.417C311.251 436.417 311.448 436.351 311.58 436.351C313.157 436.351 314.406 437.6 314.406 439.177H316.771C317.888 439.177 318.743 438.323 318.743 437.206V431.554C318.677 431.291 318.611 430.963 318.48 430.7Z" stroke="#292929" stroke-width="2" stroke-miterlimit="10"/>
<path d="M311.186 436.417V426.363C311.186 425.311 310.331 424.457 309.28 424.457H294.166C293.049 424.457 292.194 425.311 292.194 426.429V437.271C292.194 438.389 293.049 439.243 294.166 439.243H294.56C294.56 437.666 295.809 436.417 297.386 436.417C298.963 436.417 300.211 437.666 300.211 439.243H308.754C308.82 437.797 309.806 436.614 311.186 436.417Z" stroke="#292929" stroke-width="2" stroke-miterlimit="10"/>
<path d="M297.451 442.069C299.029 442.069 300.277 440.82 300.277 439.243C300.277 437.666 299.029 436.417 297.451 436.417C295.874 436.417 294.626 437.666 294.626 439.243C294.56 440.82 295.874 442.069 297.451 442.069Z" stroke="#292929" stroke-width="2" stroke-miterlimit="10"/>
<path d="M311.646 442.069C313.223 442.069 314.471 440.82 314.471 439.243C314.471 437.666 313.223 436.417 311.646 436.417C310.069 436.417 308.82 437.666 308.82 439.243C308.82 440.82 310.069 442.069 311.646 442.069Z" stroke="#292929" stroke-width="2" stroke-miterlimit="10"/>
</svg>
