<svg width="1204" height="678" viewBox="0 0 1204 678" fill="none" xmlns="http://www.w3.org/2000/svg">
<rect width="1204" height="677.25" fill="white"/>
<path d="M519.714 285.857H684.286C690.114 285.857 694.572 281.399 694.572 275.571V204.942C694.572 201.514 692.857 198.428 690.457 196.714L648.629 165.857C646.914 164.828 646.229 162.771 646.229 161.057L645.543 138.428C645.543 131.914 639.029 127.114 632.857 128.485L517.314 157.628C512.514 158.657 509.429 162.771 509.429 167.571V275.571C509.429 281.399 513.886 285.857 519.714 285.857Z" stroke="#292929" stroke-width="5" stroke-miterlimit="10" stroke-linecap="round" stroke-linejoin="round"/>
<path d="M646.229 164.143V285.857" stroke="#292929" stroke-width="5" stroke-miterlimit="10" stroke-linecap="round" stroke-linejoin="round"/>
<path d="M597.887 285.857H562.229V235.457C562.229 229.628 566.687 225.171 572.515 225.171H587.944C593.772 225.171 598.229 229.628 598.229 235.457V285.857H597.887Z" stroke="#292929" stroke-width="5" stroke-miterlimit="10" stroke-linecap="round" stroke-linejoin="round"/>
<path d="M561.408 350.969V361H560.05V356.436H554.639V361H553.281V350.969H554.639V355.442H560.05V350.969H561.408ZM566.749 353.797C567.267 353.797 567.733 353.883 568.149 354.056C568.564 354.229 568.919 354.474 569.213 354.791C569.507 355.108 569.731 355.493 569.885 355.946C570.043 356.394 570.123 356.896 570.123 357.451C570.123 358.011 570.043 358.515 569.885 358.963C569.731 359.411 569.507 359.794 569.213 360.111C568.919 360.428 568.564 360.673 568.149 360.846C567.733 361.014 567.267 361.098 566.749 361.098C566.226 361.098 565.755 361.014 565.335 360.846C564.919 360.673 564.565 360.428 564.271 360.111C563.977 359.794 563.75 359.411 563.592 358.963C563.438 358.515 563.361 358.011 563.361 357.451C563.361 356.896 563.438 356.394 563.592 355.946C563.75 355.493 563.977 355.108 564.271 354.791C564.565 354.474 564.919 354.229 565.335 354.056C565.755 353.883 566.226 353.797 566.749 353.797ZM566.749 360.125C567.449 360.125 567.971 359.892 568.317 359.425C568.662 358.954 568.835 358.298 568.835 357.458C568.835 356.613 568.662 355.955 568.317 355.484C567.971 355.013 567.449 354.777 566.749 354.777C566.394 354.777 566.084 354.838 565.818 354.959C565.556 355.08 565.337 355.255 565.16 355.484C564.987 355.713 564.856 355.995 564.768 356.331C564.684 356.662 564.642 357.038 564.642 357.458C564.642 358.298 564.814 358.954 565.16 359.425C565.51 359.892 566.039 360.125 566.749 360.125ZM572.003 361V353.909H572.752C572.929 353.909 573.039 353.995 573.081 354.168L573.172 354.896C573.433 354.574 573.727 354.31 574.054 354.105C574.381 353.9 574.759 353.797 575.188 353.797C575.664 353.797 576.049 353.93 576.343 354.196C576.642 354.462 576.856 354.821 576.987 355.274C577.09 355.017 577.22 354.796 577.379 354.609C577.542 354.422 577.724 354.268 577.925 354.147C578.126 354.026 578.338 353.937 578.562 353.881C578.791 353.825 579.022 353.797 579.255 353.797C579.628 353.797 579.96 353.858 580.249 353.979C580.543 354.096 580.79 354.268 580.991 354.497C581.196 354.726 581.353 355.008 581.46 355.344C581.567 355.675 581.621 356.056 581.621 356.485V361H580.368V356.485C580.368 355.93 580.247 355.51 580.004 355.225C579.761 354.936 579.411 354.791 578.954 354.791C578.749 354.791 578.553 354.828 578.366 354.903C578.184 354.973 578.023 355.078 577.883 355.218C577.743 355.358 577.631 355.535 577.547 355.75C577.468 355.96 577.428 356.205 577.428 356.485V361H576.175V356.485C576.175 355.916 576.061 355.491 575.832 355.211C575.603 354.931 575.27 354.791 574.831 354.791C574.523 354.791 574.238 354.875 573.977 355.043C573.716 355.206 573.475 355.43 573.256 355.715V361H572.003ZM588.561 356.681C588.561 356.392 588.519 356.128 588.435 355.89C588.355 355.647 588.236 355.44 588.078 355.267C587.924 355.09 587.735 354.954 587.511 354.861C587.287 354.763 587.032 354.714 586.748 354.714C586.15 354.714 585.677 354.889 585.327 355.239C584.981 355.584 584.767 356.065 584.683 356.681H588.561ZM589.569 360.006C589.415 360.193 589.23 360.356 589.016 360.496C588.801 360.631 588.57 360.743 588.323 360.832C588.08 360.921 587.828 360.986 587.567 361.028C587.305 361.075 587.046 361.098 586.79 361.098C586.3 361.098 585.847 361.016 585.432 360.853C585.021 360.685 584.664 360.442 584.361 360.125C584.062 359.803 583.829 359.406 583.661 358.935C583.493 358.464 583.409 357.922 583.409 357.311C583.409 356.816 583.483 356.354 583.633 355.925C583.787 355.496 584.006 355.125 584.291 354.812C584.575 354.495 584.923 354.247 585.334 354.07C585.744 353.888 586.206 353.797 586.72 353.797C587.144 353.797 587.536 353.869 587.896 354.014C588.26 354.154 588.572 354.359 588.834 354.63C589.1 354.896 589.307 355.227 589.457 355.624C589.606 356.016 589.681 356.464 589.681 356.968C589.681 357.164 589.66 357.295 589.618 357.36C589.576 357.425 589.496 357.458 589.38 357.458H584.641C584.655 357.906 584.715 358.296 584.823 358.627C584.935 358.958 585.089 359.236 585.285 359.46C585.481 359.679 585.714 359.845 585.985 359.957C586.255 360.064 586.559 360.118 586.895 360.118C587.207 360.118 587.476 360.083 587.7 360.013C587.928 359.938 588.124 359.859 588.288 359.775C588.451 359.691 588.586 359.614 588.694 359.544C588.806 359.469 588.901 359.432 588.981 359.432C589.083 359.432 589.163 359.472 589.219 359.551L589.569 360.006ZM596.576 355.33C596.8 354.845 597.076 354.467 597.402 354.196C597.729 353.921 598.128 353.783 598.599 353.783C598.749 353.783 598.891 353.799 599.026 353.832C599.166 353.865 599.29 353.916 599.397 353.986L599.306 354.917C599.278 355.034 599.208 355.092 599.096 355.092C599.031 355.092 598.935 355.078 598.809 355.05C598.683 355.022 598.541 355.008 598.382 355.008C598.158 355.008 597.958 355.041 597.78 355.106C597.608 355.171 597.451 355.269 597.311 355.4C597.176 355.526 597.052 355.685 596.94 355.876C596.833 356.063 596.735 356.277 596.646 356.52V361H595.393V353.909H596.107C596.243 353.909 596.336 353.935 596.387 353.986C596.439 354.037 596.474 354.126 596.492 354.252L596.576 355.33ZM605.252 356.681C605.252 356.392 605.21 356.128 605.126 355.89C605.046 355.647 604.927 355.44 604.769 355.267C604.615 355.09 604.426 354.954 604.202 354.861C603.978 354.763 603.723 354.714 603.439 354.714C602.841 354.714 602.368 354.889 602.018 355.239C601.672 355.584 601.458 356.065 601.374 356.681H605.252ZM606.26 360.006C606.106 360.193 605.921 360.356 605.707 360.496C605.492 360.631 605.261 360.743 605.014 360.832C604.771 360.921 604.519 360.986 604.258 361.028C603.996 361.075 603.737 361.098 603.481 361.098C602.991 361.098 602.538 361.016 602.123 360.853C601.712 360.685 601.355 360.442 601.052 360.125C600.753 359.803 600.52 359.406 600.352 358.935C600.184 358.464 600.1 357.922 600.1 357.311C600.1 356.816 600.174 356.354 600.324 355.925C600.478 355.496 600.697 355.125 600.982 354.812C601.266 354.495 601.614 354.247 602.025 354.07C602.435 353.888 602.897 353.797 603.411 353.797C603.835 353.797 604.227 353.869 604.587 354.014C604.951 354.154 605.263 354.359 605.525 354.63C605.791 354.896 605.998 355.227 606.148 355.624C606.297 356.016 606.372 356.464 606.372 356.968C606.372 357.164 606.351 357.295 606.309 357.36C606.267 357.425 606.187 357.458 606.071 357.458H601.332C601.346 357.906 601.406 358.296 601.514 358.627C601.626 358.958 601.78 359.236 601.976 359.46C602.172 359.679 602.405 359.845 602.676 359.957C602.946 360.064 603.25 360.118 603.586 360.118C603.898 360.118 604.167 360.083 604.391 360.013C604.619 359.938 604.815 359.859 604.979 359.775C605.142 359.691 605.277 359.614 605.385 359.544C605.497 359.469 605.592 359.432 605.672 359.432C605.774 359.432 605.854 359.472 605.91 359.551L606.26 360.006ZM608.202 361V353.909H608.951C609.129 353.909 609.238 353.995 609.28 354.168L609.371 354.896C609.633 354.574 609.927 354.31 610.253 354.105C610.58 353.9 610.958 353.797 611.387 353.797C611.863 353.797 612.248 353.93 612.542 354.196C612.841 354.462 613.056 354.821 613.186 355.274C613.289 355.017 613.42 354.796 613.578 354.609C613.742 354.422 613.924 354.268 614.124 354.147C614.325 354.026 614.537 353.937 614.761 353.881C614.99 353.825 615.221 353.797 615.454 353.797C615.828 353.797 616.159 353.858 616.448 353.979C616.742 354.096 616.99 354.268 617.19 354.497C617.396 354.726 617.552 355.008 617.659 355.344C617.767 355.675 617.82 356.056 617.82 356.485V361H616.567V356.485C616.567 355.93 616.446 355.51 616.203 355.225C615.961 354.936 615.611 354.791 615.153 354.791C614.948 354.791 614.752 354.828 614.565 354.903C614.383 354.973 614.222 355.078 614.082 355.218C613.942 355.358 613.83 355.535 613.746 355.75C613.667 355.96 613.627 356.205 613.627 356.485V361H612.374V356.485C612.374 355.916 612.26 355.491 612.031 355.211C611.803 354.931 611.469 354.791 611.03 354.791C610.722 354.791 610.438 354.875 610.176 355.043C609.915 355.206 609.675 355.43 609.455 355.715V361H608.202ZM623.003 353.797C623.521 353.797 623.988 353.883 624.403 354.056C624.818 354.229 625.173 354.474 625.467 354.791C625.761 355.108 625.985 355.493 626.139 355.946C626.298 356.394 626.377 356.896 626.377 357.451C626.377 358.011 626.298 358.515 626.139 358.963C625.985 359.411 625.761 359.794 625.467 360.111C625.173 360.428 624.818 360.673 624.403 360.846C623.988 361.014 623.521 361.098 623.003 361.098C622.48 361.098 622.009 361.014 621.589 360.846C621.174 360.673 620.819 360.428 620.525 360.111C620.231 359.794 620.005 359.411 619.846 358.963C619.692 358.515 619.615 358.011 619.615 357.451C619.615 356.896 619.692 356.394 619.846 355.946C620.005 355.493 620.231 355.108 620.525 354.791C620.819 354.474 621.174 354.229 621.589 354.056C622.009 353.883 622.48 353.797 623.003 353.797ZM623.003 360.125C623.703 360.125 624.226 359.892 624.571 359.425C624.916 358.954 625.089 358.298 625.089 357.458C625.089 356.613 624.916 355.955 624.571 355.484C624.226 355.013 623.703 354.777 623.003 354.777C622.648 354.777 622.338 354.838 622.072 354.959C621.811 355.08 621.591 355.255 621.414 355.484C621.241 355.713 621.111 355.995 621.022 356.331C620.938 356.662 620.896 357.038 620.896 357.458C620.896 358.298 621.069 358.954 621.414 359.425C621.764 359.892 622.294 360.125 623.003 360.125ZM634.142 353.909L631.251 361H630.131L627.24 353.909H628.255C628.358 353.909 628.442 353.935 628.507 353.986C628.572 354.037 628.617 354.098 628.64 354.168L630.439 358.732C630.495 358.905 630.544 359.073 630.586 359.236C630.628 359.399 630.668 359.563 630.705 359.726C630.742 359.563 630.782 359.399 630.824 359.236C630.866 359.073 630.917 358.905 630.978 358.732L632.798 354.168C632.826 354.093 632.873 354.033 632.938 353.986C633.003 353.935 633.08 353.909 633.169 353.909H634.142ZM639.277 357.808C638.703 357.827 638.213 357.873 637.807 357.948C637.406 358.018 637.077 358.111 636.82 358.228C636.568 358.345 636.384 358.482 636.267 358.641C636.155 358.8 636.099 358.977 636.099 359.173C636.099 359.36 636.13 359.521 636.19 359.656C636.251 359.791 636.333 359.903 636.435 359.992C636.543 360.076 636.666 360.139 636.806 360.181C636.951 360.218 637.105 360.237 637.268 360.237C637.488 360.237 637.688 360.216 637.87 360.174C638.052 360.127 638.223 360.062 638.381 359.978C638.545 359.894 638.699 359.794 638.843 359.677C638.993 359.56 639.137 359.427 639.277 359.278V357.808ZM635.252 354.91C635.644 354.532 636.067 354.25 636.519 354.063C636.972 353.876 637.474 353.783 638.024 353.783C638.421 353.783 638.773 353.848 639.081 353.979C639.389 354.11 639.648 354.292 639.858 354.525C640.068 354.758 640.227 355.041 640.334 355.372C640.442 355.703 640.495 356.067 640.495 356.464V361H639.942C639.821 361 639.728 360.981 639.662 360.944C639.597 360.902 639.546 360.823 639.508 360.706L639.368 360.034C639.182 360.207 639 360.361 638.822 360.496C638.645 360.627 638.458 360.739 638.262 360.832C638.066 360.921 637.856 360.988 637.632 361.035C637.413 361.086 637.168 361.112 636.897 361.112C636.622 361.112 636.363 361.075 636.12 361C635.878 360.921 635.665 360.804 635.483 360.65C635.306 360.496 635.164 360.302 635.056 360.069C634.954 359.831 634.902 359.551 634.902 359.229C634.902 358.949 634.979 358.681 635.133 358.424C635.287 358.163 635.537 357.932 635.882 357.731C636.228 357.53 636.678 357.367 637.233 357.241C637.789 357.11 638.47 357.036 639.277 357.017V356.464C639.277 355.913 639.158 355.498 638.92 355.218C638.682 354.933 638.335 354.791 637.877 354.791C637.569 354.791 637.31 354.831 637.1 354.91C636.895 354.985 636.715 355.071 636.561 355.169C636.412 355.262 636.281 355.349 636.169 355.428C636.062 355.503 635.955 355.54 635.847 355.54C635.763 355.54 635.691 355.519 635.63 355.477C635.57 355.43 635.518 355.374 635.476 355.309L635.252 354.91ZM643.981 350.689V361H642.735V350.689H643.981ZM650.432 355.078C650.376 355.181 650.29 355.232 650.173 355.232C650.103 355.232 650.024 355.206 649.935 355.155C649.846 355.104 649.737 355.048 649.606 354.987C649.48 354.922 649.328 354.863 649.151 354.812C648.974 354.756 648.764 354.728 648.521 354.728C648.311 354.728 648.122 354.756 647.954 354.812C647.786 354.863 647.641 354.936 647.52 355.029C647.403 355.122 647.312 355.232 647.247 355.358C647.186 355.479 647.156 355.612 647.156 355.757C647.156 355.939 647.207 356.091 647.31 356.212C647.417 356.333 647.557 356.438 647.73 356.527C647.903 356.616 648.099 356.695 648.318 356.765C648.537 356.83 648.761 356.903 648.99 356.982C649.223 357.057 649.45 357.141 649.669 357.234C649.888 357.327 650.084 357.444 650.257 357.584C650.43 357.724 650.567 357.897 650.67 358.102C650.777 358.303 650.831 358.545 650.831 358.83C650.831 359.157 650.773 359.46 650.656 359.74C650.539 360.015 650.367 360.256 650.138 360.461C649.909 360.662 649.629 360.82 649.298 360.937C648.967 361.054 648.584 361.112 648.15 361.112C647.655 361.112 647.207 361.033 646.806 360.874C646.405 360.711 646.064 360.503 645.784 360.251L646.078 359.775C646.115 359.714 646.16 359.668 646.211 359.635C646.262 359.602 646.328 359.586 646.407 359.586C646.491 359.586 646.58 359.619 646.673 359.684C646.766 359.749 646.878 359.822 647.009 359.901C647.144 359.98 647.308 360.053 647.499 360.118C647.69 360.183 647.928 360.216 648.213 360.216C648.456 360.216 648.668 360.186 648.85 360.125C649.032 360.06 649.184 359.973 649.305 359.866C649.426 359.759 649.515 359.635 649.571 359.495C649.632 359.355 649.662 359.206 649.662 359.047C649.662 358.851 649.608 358.69 649.501 358.564C649.398 358.433 649.261 358.324 649.088 358.235C648.915 358.142 648.717 358.062 648.493 357.997C648.274 357.927 648.047 357.855 647.814 357.78C647.585 357.705 647.359 357.621 647.135 357.528C646.916 357.43 646.72 357.309 646.547 357.164C646.374 357.019 646.234 356.842 646.127 356.632C646.024 356.417 645.973 356.158 645.973 355.855C645.973 355.584 646.029 355.325 646.141 355.078C646.253 354.826 646.416 354.607 646.631 354.42C646.846 354.229 647.109 354.077 647.422 353.965C647.735 353.853 648.092 353.797 648.493 353.797C648.96 353.797 649.377 353.872 649.746 354.021C650.119 354.166 650.441 354.366 650.712 354.623L650.432 355.078Z" fill="black"/>
<path d="M543.608 583.276L542.033 579.195C541.986 579.074 541.937 578.934 541.886 578.775C541.835 578.612 541.786 578.439 541.739 578.257C541.641 578.635 541.541 578.95 541.438 579.202L539.863 583.276H543.608ZM546.436 587H545.386C545.265 587 545.167 586.97 545.092 586.909C545.017 586.848 544.961 586.771 544.924 586.678L543.986 584.256H539.485L538.547 586.678C538.519 586.762 538.465 586.837 538.386 586.902C538.307 586.967 538.209 587 538.092 587H537.042L541.053 576.969H542.425L546.436 587ZM548.987 585.292C549.216 585.6 549.466 585.817 549.736 585.943C550.007 586.069 550.31 586.132 550.646 586.132C551.309 586.132 551.818 585.896 552.172 585.425C552.527 584.954 552.704 584.282 552.704 583.409C552.704 582.947 552.662 582.55 552.578 582.219C552.499 581.888 552.382 581.617 552.228 581.407C552.074 581.192 551.885 581.036 551.661 580.938C551.437 580.84 551.183 580.791 550.898 580.791C550.492 580.791 550.135 580.884 549.827 581.071C549.524 581.258 549.244 581.521 548.987 581.862V585.292ZM548.924 581.008C549.223 580.639 549.568 580.343 549.96 580.119C550.352 579.895 550.8 579.783 551.304 579.783C551.715 579.783 552.086 579.862 552.417 580.021C552.749 580.175 553.031 580.406 553.264 580.714C553.498 581.017 553.677 581.395 553.803 581.848C553.929 582.301 553.992 582.821 553.992 583.409C553.992 583.932 553.922 584.419 553.782 584.872C553.642 585.32 553.439 585.71 553.173 586.041C552.912 586.368 552.59 586.627 552.207 586.818C551.829 587.005 551.402 587.098 550.926 587.098C550.492 587.098 550.119 587.026 549.806 586.881C549.498 586.732 549.225 586.526 548.987 586.265V589.401H547.734V579.909H548.483C548.661 579.909 548.77 579.995 548.812 580.168L548.924 581.008ZM559.725 583.808C559.151 583.827 558.661 583.873 558.255 583.948C557.854 584.018 557.525 584.111 557.268 584.228C557.016 584.345 556.832 584.482 556.715 584.641C556.603 584.8 556.547 584.977 556.547 585.173C556.547 585.36 556.577 585.521 556.638 585.656C556.699 585.791 556.78 585.903 556.883 585.992C556.99 586.076 557.114 586.139 557.254 586.181C557.399 586.218 557.553 586.237 557.716 586.237C557.935 586.237 558.136 586.216 558.318 586.174C558.5 586.127 558.67 586.062 558.829 585.978C558.992 585.894 559.146 585.794 559.291 585.677C559.44 585.56 559.585 585.427 559.725 585.278V583.808ZM555.7 580.91C556.092 580.532 556.514 580.25 556.967 580.063C557.42 579.876 557.921 579.783 558.472 579.783C558.869 579.783 559.221 579.848 559.529 579.979C559.837 580.11 560.096 580.292 560.306 580.525C560.516 580.758 560.675 581.041 560.782 581.372C560.889 581.703 560.943 582.067 560.943 582.464V587H560.39C560.269 587 560.175 586.981 560.11 586.944C560.045 586.902 559.993 586.823 559.956 586.706L559.816 586.034C559.629 586.207 559.447 586.361 559.27 586.496C559.093 586.627 558.906 586.739 558.71 586.832C558.514 586.921 558.304 586.988 558.08 587.035C557.861 587.086 557.616 587.112 557.345 587.112C557.07 587.112 556.811 587.075 556.568 587C556.325 586.921 556.113 586.804 555.931 586.65C555.754 586.496 555.611 586.302 555.504 586.069C555.401 585.831 555.35 585.551 555.35 585.229C555.35 584.949 555.427 584.681 555.581 584.424C555.735 584.163 555.985 583.932 556.33 583.731C556.675 583.53 557.126 583.367 557.681 583.241C558.236 583.11 558.918 583.036 559.725 583.017V582.464C559.725 581.913 559.606 581.498 559.368 581.218C559.13 580.933 558.782 580.791 558.325 580.791C558.017 580.791 557.758 580.831 557.548 580.91C557.343 580.985 557.163 581.071 557.009 581.169C556.86 581.262 556.729 581.349 556.617 581.428C556.51 581.503 556.402 581.54 556.295 581.54C556.211 581.54 556.139 581.519 556.078 581.477C556.017 581.43 555.966 581.374 555.924 581.309L555.7 580.91ZM564.324 581.33C564.548 580.845 564.823 580.467 565.15 580.196C565.477 579.921 565.876 579.783 566.347 579.783C566.496 579.783 566.639 579.799 566.774 579.832C566.914 579.865 567.038 579.916 567.145 579.986L567.054 580.917C567.026 581.034 566.956 581.092 566.844 581.092C566.779 581.092 566.683 581.078 566.557 581.05C566.431 581.022 566.289 581.008 566.13 581.008C565.906 581.008 565.705 581.041 565.528 581.106C565.355 581.171 565.199 581.269 565.059 581.4C564.924 581.526 564.8 581.685 564.688 581.876C564.581 582.063 564.483 582.277 564.394 582.52V587H563.141V579.909H563.855C563.99 579.909 564.084 579.935 564.135 579.986C564.186 580.037 564.221 580.126 564.24 580.252L564.324 581.33ZM570.718 587.112C570.158 587.112 569.726 586.956 569.423 586.643C569.124 586.33 568.975 585.88 568.975 585.292V580.952H568.121C568.046 580.952 567.983 580.931 567.932 580.889C567.88 580.842 567.855 580.772 567.855 580.679V580.182L569.017 580.035L569.304 577.844C569.318 577.774 569.348 577.718 569.395 577.676C569.446 577.629 569.511 577.606 569.591 577.606H570.221V580.049H572.272V580.952H570.221V585.208C570.221 585.507 570.293 585.728 570.438 585.873C570.582 586.018 570.769 586.09 570.998 586.09C571.128 586.09 571.24 586.074 571.334 586.041C571.432 586.004 571.516 585.964 571.586 585.922C571.656 585.88 571.714 585.843 571.761 585.81C571.812 585.773 571.856 585.754 571.894 585.754C571.959 585.754 572.017 585.794 572.069 585.873L572.433 586.468C572.218 586.669 571.959 586.827 571.656 586.944C571.352 587.056 571.04 587.112 570.718 587.112ZM573.858 587V579.909H574.607C574.784 579.909 574.894 579.995 574.936 580.168L575.027 580.896C575.288 580.574 575.582 580.31 575.909 580.105C576.236 579.9 576.614 579.797 577.043 579.797C577.519 579.797 577.904 579.93 578.198 580.196C578.497 580.462 578.711 580.821 578.842 581.274C578.945 581.017 579.075 580.796 579.234 580.609C579.397 580.422 579.579 580.268 579.78 580.147C579.981 580.026 580.193 579.937 580.417 579.881C580.646 579.825 580.877 579.797 581.11 579.797C581.483 579.797 581.815 579.858 582.104 579.979C582.398 580.096 582.645 580.268 582.846 580.497C583.051 580.726 583.208 581.008 583.315 581.344C583.422 581.675 583.476 582.056 583.476 582.485V587H582.223V582.485C582.223 581.93 582.102 581.51 581.859 581.225C581.616 580.936 581.266 580.791 580.809 580.791C580.604 580.791 580.408 580.828 580.221 580.903C580.039 580.973 579.878 581.078 579.738 581.218C579.598 581.358 579.486 581.535 579.402 581.75C579.323 581.96 579.283 582.205 579.283 582.485V587H578.03V582.485C578.03 581.916 577.916 581.491 577.687 581.211C577.458 580.931 577.125 580.791 576.686 580.791C576.378 580.791 576.093 580.875 575.832 581.043C575.571 581.206 575.33 581.43 575.111 581.715V587H573.858ZM590.416 582.681C590.416 582.392 590.374 582.128 590.29 581.89C590.21 581.647 590.091 581.44 589.933 581.267C589.779 581.09 589.59 580.954 589.366 580.861C589.142 580.763 588.887 580.714 588.603 580.714C588.005 580.714 587.532 580.889 587.182 581.239C586.836 581.584 586.622 582.065 586.538 582.681H590.416ZM591.424 586.006C591.27 586.193 591.085 586.356 590.871 586.496C590.656 586.631 590.425 586.743 590.178 586.832C589.935 586.921 589.683 586.986 589.422 587.028C589.16 587.075 588.901 587.098 588.645 587.098C588.155 587.098 587.702 587.016 587.287 586.853C586.876 586.685 586.519 586.442 586.216 586.125C585.917 585.803 585.684 585.406 585.516 584.935C585.348 584.464 585.264 583.922 585.264 583.311C585.264 582.816 585.338 582.354 585.488 581.925C585.642 581.496 585.861 581.125 586.146 580.812C586.43 580.495 586.778 580.247 587.189 580.07C587.599 579.888 588.061 579.797 588.575 579.797C588.999 579.797 589.391 579.869 589.751 580.014C590.115 580.154 590.427 580.359 590.689 580.63C590.955 580.896 591.162 581.227 591.312 581.624C591.461 582.016 591.536 582.464 591.536 582.968C591.536 583.164 591.515 583.295 591.473 583.36C591.431 583.425 591.351 583.458 591.235 583.458H586.496C586.51 583.906 586.57 584.296 586.678 584.627C586.79 584.958 586.944 585.236 587.14 585.46C587.336 585.679 587.569 585.845 587.84 585.957C588.11 586.064 588.414 586.118 588.75 586.118C589.062 586.118 589.331 586.083 589.555 586.013C589.783 585.938 589.979 585.859 590.143 585.775C590.306 585.691 590.441 585.614 590.549 585.544C590.661 585.469 590.756 585.432 590.836 585.432C590.938 585.432 591.018 585.472 591.074 585.551L591.424 586.006ZM594.542 580.938C594.696 580.765 594.86 580.609 595.032 580.469C595.205 580.329 595.387 580.21 595.578 580.112C595.774 580.009 595.98 579.932 596.194 579.881C596.414 579.825 596.649 579.797 596.901 579.797C597.289 579.797 597.629 579.862 597.923 579.993C598.222 580.119 598.469 580.301 598.665 580.539C598.866 580.772 599.018 581.055 599.12 581.386C599.223 581.717 599.274 582.084 599.274 582.485V587H598.021V582.485C598.021 581.948 597.898 581.533 597.65 581.239C597.408 580.94 597.037 580.791 596.537 580.791C596.169 580.791 595.823 580.88 595.501 581.057C595.184 581.234 594.89 581.475 594.619 581.778V587H593.366V579.909H594.115C594.293 579.909 594.402 579.995 594.444 580.168L594.542 580.938ZM603.554 587.112C602.994 587.112 602.563 586.956 602.259 586.643C601.961 586.33 601.811 585.88 601.811 585.292V580.952H600.957C600.883 580.952 600.82 580.931 600.768 580.889C600.717 580.842 600.691 580.772 600.691 580.679V580.182L601.853 580.035L602.14 577.844C602.154 577.774 602.185 577.718 602.231 577.676C602.283 577.629 602.348 577.606 602.427 577.606H603.057V580.049H605.108V580.952H603.057V585.208C603.057 585.507 603.13 585.728 603.274 585.873C603.419 586.018 603.606 586.09 603.834 586.09C603.965 586.09 604.077 586.074 604.17 586.041C604.268 586.004 604.352 585.964 604.422 585.922C604.492 585.88 604.551 585.843 604.597 585.81C604.649 585.773 604.693 585.754 604.73 585.754C604.796 585.754 604.854 585.794 604.905 585.873L605.269 586.468C605.055 586.669 604.796 586.827 604.492 586.944C604.189 587.056 603.876 587.112 603.554 587.112ZM611.76 581.33C611.984 580.845 612.259 580.467 612.586 580.196C612.913 579.921 613.312 579.783 613.783 579.783C613.932 579.783 614.075 579.799 614.21 579.832C614.35 579.865 614.474 579.916 614.581 579.986L614.49 580.917C614.462 581.034 614.392 581.092 614.28 581.092C614.215 581.092 614.119 581.078 613.993 581.05C613.867 581.022 613.725 581.008 613.566 581.008C613.342 581.008 613.141 581.041 612.964 581.106C612.791 581.171 612.635 581.269 612.495 581.4C612.36 581.526 612.236 581.685 612.124 581.876C612.017 582.063 611.919 582.277 611.83 582.52V587H610.577V579.909H611.291C611.426 579.909 611.52 579.935 611.571 579.986C611.622 580.037 611.657 580.126 611.676 580.252L611.76 581.33ZM620.435 582.681C620.435 582.392 620.393 582.128 620.309 581.89C620.23 581.647 620.111 581.44 619.952 581.267C619.798 581.09 619.609 580.954 619.385 580.861C619.161 580.763 618.907 580.714 618.622 580.714C618.025 580.714 617.551 580.889 617.201 581.239C616.856 581.584 616.641 582.065 616.557 582.681H620.435ZM621.443 586.006C621.289 586.193 621.105 586.356 620.89 586.496C620.676 586.631 620.445 586.743 620.197 586.832C619.955 586.921 619.703 586.986 619.441 587.028C619.18 587.075 618.921 587.098 618.664 587.098C618.174 587.098 617.722 587.016 617.306 586.853C616.896 586.685 616.539 586.442 616.235 586.125C615.937 585.803 615.703 585.406 615.535 584.935C615.367 584.464 615.283 583.922 615.283 583.311C615.283 582.816 615.358 582.354 615.507 581.925C615.661 581.496 615.881 581.125 616.165 580.812C616.45 580.495 616.798 580.247 617.208 580.07C617.619 579.888 618.081 579.797 618.594 579.797C619.019 579.797 619.411 579.869 619.77 580.014C620.134 580.154 620.447 580.359 620.708 580.63C620.974 580.896 621.182 581.227 621.331 581.624C621.481 582.016 621.555 582.464 621.555 582.968C621.555 583.164 621.534 583.295 621.492 583.36C621.45 583.425 621.371 583.458 621.254 583.458H616.515C616.529 583.906 616.59 584.296 616.697 584.627C616.809 584.958 616.963 585.236 617.159 585.46C617.355 585.679 617.589 585.845 617.859 585.957C618.13 586.064 618.433 586.118 618.769 586.118C619.082 586.118 619.35 586.083 619.574 586.013C619.803 585.938 619.999 585.859 620.162 585.775C620.326 585.691 620.461 585.614 620.568 585.544C620.68 585.469 620.776 585.432 620.855 585.432C620.958 585.432 621.037 585.472 621.093 585.551L621.443 586.006ZM623.386 587V579.909H624.135C624.312 579.909 624.422 579.995 624.464 580.168L624.555 580.896C624.816 580.574 625.11 580.31 625.437 580.105C625.763 579.9 626.141 579.797 626.571 579.797C627.047 579.797 627.432 579.93 627.726 580.196C628.024 580.462 628.239 580.821 628.37 581.274C628.472 581.017 628.603 580.796 628.762 580.609C628.925 580.422 629.107 580.268 629.308 580.147C629.508 580.026 629.721 579.937 629.945 579.881C630.173 579.825 630.404 579.797 630.638 579.797C631.011 579.797 631.342 579.858 631.632 579.979C631.926 580.096 632.173 580.268 632.374 580.497C632.579 580.726 632.735 581.008 632.843 581.344C632.95 581.675 633.004 582.056 633.004 582.485V587H631.751V582.485C631.751 581.93 631.629 581.51 631.387 581.225C631.144 580.936 630.794 580.791 630.337 580.791C630.131 580.791 629.935 580.828 629.749 580.903C629.567 580.973 629.406 581.078 629.266 581.218C629.126 581.358 629.014 581.535 628.93 581.75C628.85 581.96 628.811 582.205 628.811 582.485V587H627.558V582.485C627.558 581.916 627.443 581.491 627.215 581.211C626.986 580.931 626.652 580.791 626.214 580.791C625.906 580.791 625.621 580.875 625.36 581.043C625.098 581.206 624.858 581.43 624.639 581.715V587H623.386ZM638.187 579.797C638.705 579.797 639.171 579.883 639.587 580.056C640.002 580.229 640.357 580.474 640.651 580.791C640.945 581.108 641.169 581.493 641.323 581.946C641.481 582.394 641.561 582.896 641.561 583.451C641.561 584.011 641.481 584.515 641.323 584.963C641.169 585.411 640.945 585.794 640.651 586.111C640.357 586.428 640.002 586.673 639.587 586.846C639.171 587.014 638.705 587.098 638.187 587.098C637.664 587.098 637.193 587.014 636.773 586.846C636.357 586.673 636.003 586.428 635.709 586.111C635.415 585.794 635.188 585.411 635.03 584.963C634.876 584.515 634.799 584.011 634.799 583.451C634.799 582.896 634.876 582.394 635.03 581.946C635.188 581.493 635.415 581.108 635.709 580.791C636.003 580.474 636.357 580.229 636.773 580.056C637.193 579.883 637.664 579.797 638.187 579.797ZM638.187 586.125C638.887 586.125 639.409 585.892 639.755 585.425C640.1 584.954 640.273 584.298 640.273 583.458C640.273 582.613 640.1 581.955 639.755 581.484C639.409 581.013 638.887 580.777 638.187 580.777C637.832 580.777 637.522 580.838 637.256 580.959C636.994 581.08 636.775 581.255 636.598 581.484C636.425 581.713 636.294 581.995 636.206 582.331C636.122 582.662 636.08 583.038 636.08 583.458C636.08 584.298 636.252 584.954 636.598 585.425C636.948 585.892 637.477 586.125 638.187 586.125ZM649.325 579.909L646.434 587H645.314L642.423 579.909H643.438C643.541 579.909 643.625 579.935 643.69 579.986C643.756 580.037 643.8 580.098 643.823 580.168L645.622 584.732C645.678 584.905 645.727 585.073 645.769 585.236C645.811 585.399 645.851 585.563 645.888 585.726C645.926 585.563 645.965 585.399 646.007 585.236C646.049 585.073 646.101 584.905 646.161 584.732L647.981 580.168C648.009 580.093 648.056 580.033 648.121 579.986C648.187 579.935 648.264 579.909 648.352 579.909H649.325ZM654.461 583.808C653.887 583.827 653.397 583.873 652.991 583.948C652.59 584.018 652.261 584.111 652.004 584.228C651.752 584.345 651.568 584.482 651.451 584.641C651.339 584.8 651.283 584.977 651.283 585.173C651.283 585.36 651.313 585.521 651.374 585.656C651.435 585.791 651.516 585.903 651.619 585.992C651.726 586.076 651.85 586.139 651.99 586.181C652.135 586.218 652.289 586.237 652.452 586.237C652.671 586.237 652.872 586.216 653.054 586.174C653.236 586.127 653.406 586.062 653.565 585.978C653.728 585.894 653.882 585.794 654.027 585.677C654.176 585.56 654.321 585.427 654.461 585.278V583.808ZM650.436 580.91C650.828 580.532 651.25 580.25 651.703 580.063C652.156 579.876 652.657 579.783 653.208 579.783C653.605 579.783 653.957 579.848 654.265 579.979C654.573 580.11 654.832 580.292 655.042 580.525C655.252 580.758 655.411 581.041 655.518 581.372C655.625 581.703 655.679 582.067 655.679 582.464V587H655.126C655.005 587 654.911 586.981 654.846 586.944C654.781 586.902 654.729 586.823 654.692 586.706L654.552 586.034C654.365 586.207 654.183 586.361 654.006 586.496C653.829 586.627 653.642 586.739 653.446 586.832C653.25 586.921 653.04 586.988 652.816 587.035C652.597 587.086 652.352 587.112 652.081 587.112C651.806 587.112 651.547 587.075 651.304 587C651.061 586.921 650.849 586.804 650.667 586.65C650.49 586.496 650.347 586.302 650.24 586.069C650.137 585.831 650.086 585.551 650.086 585.229C650.086 584.949 650.163 584.681 650.317 584.424C650.471 584.163 650.721 583.932 651.066 583.731C651.411 583.53 651.862 583.367 652.417 583.241C652.972 583.11 653.654 583.036 654.461 583.017V582.464C654.461 581.913 654.342 581.498 654.104 581.218C653.866 580.933 653.518 580.791 653.061 580.791C652.753 580.791 652.494 580.831 652.284 580.91C652.079 580.985 651.899 581.071 651.745 581.169C651.596 581.262 651.465 581.349 651.353 581.428C651.246 581.503 651.138 581.54 651.031 581.54C650.947 581.54 650.875 581.519 650.814 581.477C650.753 581.43 650.702 581.374 650.66 581.309L650.436 580.91ZM659.165 576.689V587H657.919V576.689H659.165ZM665.615 581.078C665.559 581.181 665.473 581.232 665.356 581.232C665.286 581.232 665.207 581.206 665.118 581.155C665.03 581.104 664.92 581.048 664.789 580.987C664.663 580.922 664.512 580.863 664.334 580.812C664.157 580.756 663.947 580.728 663.704 580.728C663.494 580.728 663.305 580.756 663.137 580.812C662.969 580.863 662.825 580.936 662.703 581.029C662.587 581.122 662.496 581.232 662.43 581.358C662.37 581.479 662.339 581.612 662.339 581.757C662.339 581.939 662.391 582.091 662.493 582.212C662.601 582.333 662.741 582.438 662.913 582.527C663.086 582.616 663.282 582.695 663.501 582.765C663.721 582.83 663.945 582.903 664.173 582.982C664.407 583.057 664.633 583.141 664.852 583.234C665.072 583.327 665.268 583.444 665.44 583.584C665.613 583.724 665.751 583.897 665.853 584.102C665.961 584.303 666.014 584.545 666.014 584.83C666.014 585.157 665.956 585.46 665.839 585.74C665.723 586.015 665.55 586.256 665.321 586.461C665.093 586.662 664.813 586.82 664.481 586.937C664.15 587.054 663.767 587.112 663.333 587.112C662.839 587.112 662.391 587.033 661.989 586.874C661.588 586.711 661.247 586.503 660.967 586.251L661.261 585.775C661.299 585.714 661.343 585.668 661.394 585.635C661.446 585.602 661.511 585.586 661.59 585.586C661.674 585.586 661.763 585.619 661.856 585.684C661.95 585.749 662.062 585.822 662.192 585.901C662.328 585.98 662.491 586.053 662.682 586.118C662.874 586.183 663.112 586.216 663.396 586.216C663.639 586.216 663.851 586.186 664.033 586.125C664.215 586.06 664.367 585.973 664.488 585.866C664.61 585.759 664.698 585.635 664.754 585.495C664.815 585.355 664.845 585.206 664.845 585.047C664.845 584.851 664.792 584.69 664.684 584.564C664.582 584.433 664.444 584.324 664.271 584.235C664.099 584.142 663.9 584.062 663.676 583.997C663.457 583.927 663.231 583.855 662.997 583.78C662.769 583.705 662.542 583.621 662.318 583.528C662.099 583.43 661.903 583.309 661.73 583.164C661.558 583.019 661.418 582.842 661.31 582.632C661.208 582.417 661.156 582.158 661.156 581.855C661.156 581.584 661.212 581.325 661.324 581.078C661.436 580.826 661.6 580.607 661.814 580.42C662.029 580.229 662.293 580.077 662.605 579.965C662.918 579.853 663.275 579.797 663.676 579.797C664.143 579.797 664.561 579.872 664.929 580.021C665.303 580.166 665.625 580.366 665.895 580.623L665.615 581.078Z" fill="black"/>
<path d="M610.2 531H554C550.6 531 548 528.4 548 525V443C548 439.6 550.6 437 554 437H604.2C607.6 437 610.2 439.6 610.2 443V531Z" stroke="black" stroke-width="5" stroke-miterlimit="10" stroke-linecap="round" stroke-linejoin="round"/>
<path d="M567.801 454.801V473.201" stroke="black" stroke-width="5" stroke-miterlimit="10" stroke-linecap="round" stroke-linejoin="round"/>
<path d="M590.4 454.801V473.201" stroke="black" stroke-width="5" stroke-miterlimit="10" stroke-linecap="round" stroke-linejoin="round"/>
<path d="M567.801 493V511.2" stroke="black" stroke-width="5" stroke-miterlimit="10" stroke-linecap="round" stroke-linejoin="round"/>
<path d="M590.4 493V511.2" stroke="black" stroke-width="5" stroke-miterlimit="10" stroke-linecap="round" stroke-linejoin="round"/>
<path d="M610.199 531.001H649.999C653.399 531.001 655.999 528.401 655.999 525.001V467.801C655.999 464.401 653.399 461.801 649.999 461.801H610.199V531.001Z" stroke="black" stroke-width="5" stroke-miterlimit="10" stroke-linecap="round" stroke-linejoin="round"/>
<path d="M641.398 474.801V488.201" stroke="black" stroke-width="5" stroke-miterlimit="10" stroke-linecap="round" stroke-linejoin="round"/>
<path d="M624.799 474.801V488.201" stroke="black" stroke-width="5" stroke-miterlimit="10" stroke-linecap="round" stroke-linejoin="round"/>
<path d="M641.398 503V516.4" stroke="black" stroke-width="5" stroke-miterlimit="10" stroke-linecap="round" stroke-linejoin="round"/>
<path d="M624.799 503V516.4" stroke="black" stroke-width="5" stroke-miterlimit="10" stroke-linecap="round" stroke-linejoin="round"/>
</svg>
