<svg width="1204" height="678" viewBox="0 0 1204 678" fill="none" xmlns="http://www.w3.org/2000/svg">
<rect width="1204" height="677.25" fill="white"/>
<rect x="30" y="635" width="542" height="5" rx="2.5" fill="#70C216"/>
<path d="M43.8214 618.085C43.8214 619.098 43.6524 620.029 43.3145 620.877C42.9765 621.726 42.5015 622.456 41.8893 623.068C41.2771 623.68 40.5406 624.155 39.6798 624.493C38.8189 624.831 37.8624 625 36.8103 625H31.54V611.169H36.8103C37.8624 611.169 38.8189 611.341 39.6798 611.686C40.5406 612.023 41.2771 612.499 41.8893 613.111C42.5015 613.716 42.9765 614.443 43.3145 615.292C43.6524 616.14 43.8214 617.071 43.8214 618.085ZM41.1815 618.085C41.1815 617.326 41.0795 616.647 40.8754 616.047C40.6777 615.441 40.3876 614.931 40.005 614.517C39.6288 614.096 39.1696 613.774 38.6276 613.551C38.092 613.328 37.4862 613.216 36.8103 613.216H34.1225V622.953H36.8103C37.4862 622.953 38.092 622.841 38.6276 622.618C39.1696 622.395 39.6288 622.076 40.005 621.662C40.3876 621.241 40.6777 620.731 40.8754 620.131C41.0795 619.526 41.1815 618.843 41.1815 618.085ZM50.5317 615.033C51.2586 615.033 51.9186 615.151 52.5116 615.387C53.111 615.623 53.6212 615.958 54.042 616.392C54.4693 616.825 54.7977 617.354 55.0272 617.979C55.2568 618.604 55.3716 619.302 55.3716 620.074C55.3716 620.852 55.2568 621.553 55.0272 622.178C54.7977 622.803 54.4693 623.336 54.042 623.776C53.6212 624.216 53.111 624.554 52.5116 624.79C51.9186 625.026 51.2586 625.143 50.5317 625.143C49.7983 625.143 49.132 625.026 48.5326 624.79C47.9332 624.554 47.4199 624.216 46.9926 623.776C46.5718 623.336 46.2434 622.803 46.0074 622.178C45.7779 621.553 45.6631 620.852 45.6631 620.074C45.6631 619.302 45.7779 618.604 46.0074 617.979C46.2434 617.354 46.5718 616.825 46.9926 616.392C47.4199 615.958 47.9332 615.623 48.5326 615.387C49.132 615.151 49.7983 615.033 50.5317 615.033ZM50.5317 623.326C51.3479 623.326 51.9505 623.052 52.3395 622.504C52.7348 621.955 52.9325 621.152 52.9325 620.093C52.9325 619.035 52.7348 618.228 52.3395 617.673C51.9505 617.118 51.3479 616.841 50.5317 616.841C49.7027 616.841 49.0874 617.122 48.6856 617.683C48.2903 618.238 48.0926 619.041 48.0926 620.093C48.0926 621.145 48.2903 621.949 48.6856 622.504C49.0874 623.052 49.7027 623.326 50.5317 623.326Z" fill="#70C216"/>
<rect x="632" y="635" width="542" height="5" fill="#F74F64"/>
<path d="M645.821 618.085C645.821 619.098 645.652 620.029 645.314 620.877C644.977 621.726 644.501 622.456 643.889 623.068C643.277 623.68 642.541 624.155 641.68 624.493C640.819 624.831 639.862 625 638.81 625H633.54V611.169H638.81C639.862 611.169 640.819 611.341 641.68 611.686C642.541 612.023 643.277 612.499 643.889 613.111C644.501 613.716 644.977 614.443 645.314 615.292C645.652 616.14 645.821 617.071 645.821 618.085ZM643.181 618.085C643.181 617.326 643.079 616.647 642.875 616.047C642.678 615.441 642.388 614.931 642.005 614.517C641.629 614.096 641.17 613.774 640.628 613.551C640.092 613.328 639.486 613.216 638.81 613.216H636.123V622.953H638.81C639.486 622.953 640.092 622.841 640.628 622.618C641.17 622.395 641.629 622.076 642.005 621.662C642.388 621.241 642.678 620.731 642.875 620.131C643.079 619.526 643.181 618.843 643.181 618.085ZM652.532 615.033C653.259 615.033 653.919 615.151 654.512 615.387C655.111 615.623 655.621 615.958 656.042 616.392C656.469 616.825 656.798 617.354 657.027 617.979C657.257 618.604 657.372 619.302 657.372 620.074C657.372 620.852 657.257 621.553 657.027 622.178C656.798 622.803 656.469 623.336 656.042 623.776C655.621 624.216 655.111 624.554 654.512 624.79C653.919 625.026 653.259 625.143 652.532 625.143C651.798 625.143 651.132 625.026 650.533 624.79C649.933 624.554 649.42 624.216 648.993 623.776C648.572 623.336 648.243 622.803 648.007 622.178C647.778 621.553 647.663 620.852 647.663 620.074C647.663 619.302 647.778 618.604 648.007 617.979C648.243 617.354 648.572 616.825 648.993 616.392C649.42 615.958 649.933 615.623 650.533 615.387C651.132 615.151 651.798 615.033 652.532 615.033ZM652.532 623.326C653.348 623.326 653.95 623.052 654.339 622.504C654.735 621.955 654.932 621.152 654.932 620.093C654.932 619.035 654.735 618.228 654.339 617.673C653.95 617.118 653.348 616.841 652.532 616.841C651.703 616.841 651.087 617.122 650.686 617.683C650.29 618.238 650.093 619.041 650.093 620.093C650.093 621.145 650.29 621.949 650.686 622.504C651.087 623.052 651.703 623.326 652.532 623.326ZM661.983 616.392C662.181 616.194 662.388 616.012 662.605 615.846C662.828 615.674 663.061 615.531 663.303 615.416C663.552 615.295 663.817 615.202 664.097 615.138C664.378 615.068 664.684 615.033 665.016 615.033C665.551 615.033 666.026 615.126 666.441 615.311C666.855 615.489 667.2 615.744 667.474 616.076C667.754 616.401 667.965 616.793 668.105 617.252C668.252 617.705 668.325 618.206 668.325 618.754V625H665.963V618.754C665.963 618.155 665.825 617.692 665.551 617.367C665.277 617.036 664.859 616.87 664.298 616.87C663.89 616.87 663.507 616.962 663.15 617.147C662.793 617.332 662.455 617.584 662.137 617.903V625H659.774V615.186H661.218C661.524 615.186 661.725 615.33 661.821 615.617L661.983 616.392ZM672.499 610.241C672.805 610.745 673.012 611.271 673.12 611.819C673.229 612.361 673.238 612.9 673.149 613.436C673.06 613.965 672.872 614.475 672.585 614.966C672.304 615.451 671.925 615.888 671.446 616.277L670.7 615.827C670.637 615.789 670.592 615.744 670.567 615.693C670.541 615.636 670.528 615.582 670.528 615.531C670.535 615.473 670.547 615.419 670.567 615.368C670.592 615.317 670.624 615.272 670.662 615.234C670.796 615.075 670.924 614.864 671.045 614.603C671.166 614.341 671.249 614.048 671.293 613.723C671.344 613.398 671.338 613.05 671.274 612.68C671.217 612.31 671.073 611.941 670.844 611.571C670.735 611.386 670.704 611.226 670.748 611.092C670.799 610.952 670.904 610.853 671.064 610.796L672.499 610.241ZM678.985 625.153C678.131 625.153 677.474 624.914 677.015 624.436C676.562 623.951 676.335 623.285 676.335 622.437V616.956H675.331C675.204 616.956 675.095 616.914 675.006 616.831C674.917 616.749 674.872 616.624 674.872 616.458V615.521L676.45 615.263L676.948 612.585C676.98 612.457 677.04 612.358 677.129 612.288C677.219 612.218 677.333 612.183 677.474 612.183H678.698V615.272H681.319V616.956H678.698V622.274C678.698 622.58 678.771 622.819 678.918 622.991C679.071 623.164 679.278 623.25 679.54 623.25C679.686 623.25 679.808 623.234 679.903 623.202C680.005 623.164 680.091 623.125 680.161 623.087C680.238 623.049 680.305 623.014 680.362 622.982C680.42 622.944 680.477 622.924 680.535 622.924C680.605 622.924 680.662 622.944 680.707 622.982C680.751 623.014 680.799 623.065 680.85 623.135L681.558 624.283C681.214 624.57 680.818 624.786 680.372 624.933C679.926 625.08 679.463 625.153 678.985 625.153Z" fill="#F74F64"/>
<path d="M775.526 279.946C775.39 279.811 775.322 279.676 775.322 279.54L775.118 279.338C774.982 279.202 774.914 279.135 774.914 279.135C774.914 278.864 774.846 278.729 774.71 278.729C774.438 278.458 774.234 278.323 774.098 278.323L715.962 249.507C715.01 248.831 714.126 248.831 713.31 249.507L695.971 258.03C695.699 258.301 695.495 258.436 695.359 258.436C695.359 258.571 695.291 258.639 695.155 258.639C695.019 258.774 694.951 258.91 694.951 259.045L694.747 259.248V259.451C694.611 259.451 694.543 259.586 694.543 259.857C694.407 259.992 694.339 260.262 694.339 260.668V281.976L678.632 289.89H678.428C678.156 289.89 678.02 290.025 678.02 290.296H677.816L677.408 290.701V290.904L677.204 291.107V291.513C677.068 291.513 677 291.581 677 291.716V304.703L677.408 305.515L678.02 306.124C678.156 306.259 678.224 306.327 678.224 306.327C678.496 306.327 678.632 306.394 678.632 306.53L682.712 308.559V321.343C682.712 322.561 683.256 323.373 684.344 323.779L742.48 352.797H742.888L743.092 353H744.316L744.52 352.797H744.928L774.098 338.186C775.05 337.78 775.526 336.969 775.526 335.751V279.946ZM714.738 255.189L766.143 280.758L755.331 286.237L703.722 260.668L714.738 255.189ZM700.255 265.336L752.476 291.31V307.95L700.255 281.976V265.336ZM697.195 287.049L700.867 288.875L698.827 289.89C696.923 290.701 696.515 291.987 697.603 293.745C698.011 294.828 698.895 295.369 700.255 295.369C700.527 295.369 700.935 295.233 701.479 294.963L707.19 292.122C707.326 292.122 707.394 292.054 707.394 291.919L712.494 294.557L710.454 295.572C708.686 296.519 708.278 297.804 709.23 299.427C709.638 300.51 710.522 301.051 711.882 301.051C712.426 301.051 712.834 300.915 713.106 300.645L718.818 297.804H719.022L724.121 300.239L722.081 301.457C720.178 302.268 719.77 303.553 720.857 305.312C721.265 306.259 722.081 306.733 723.305 306.733C723.985 306.733 724.461 306.665 724.733 306.53L730.445 303.689L730.649 303.486L735.749 306.124L733.709 307.139C731.805 307.95 731.397 309.235 732.485 310.994C732.893 312.076 733.709 312.618 734.933 312.618C735.341 312.618 735.817 312.482 736.361 312.212L742.072 309.371H742.276L748.804 312.618L737.992 318.097L686.383 292.325L697.195 287.049ZM682.712 302.065V296.992L734.933 322.967V328.04L686.995 304.298L682.712 302.065ZM740.848 345.492L688.627 319.517V311.4L736.565 335.345C737.381 335.751 738.264 335.751 739.216 335.345L740.848 334.534V345.492ZM769.815 333.925L746.56 345.492V329.866C746.56 328.784 746.084 327.972 745.132 327.431C744.044 326.89 743.16 326.89 742.48 327.431L740.848 328.04V322.967L756.555 315.256L756.759 315.053H756.963L757.371 314.647V314.444C757.643 314.444 757.779 314.309 757.779 314.038C757.915 313.903 757.983 313.7 757.983 313.429L758.187 313.226V291.31L769.815 285.425V333.925Z" fill="#41A5DD"/>
<path d="M936.704 266.654H927.53V261.823C927.53 260.651 927.021 259.626 926.001 258.748C925.128 257.723 924.035 257.211 922.725 257.211H913.551C912.24 257.211 911.075 257.723 910.056 258.748C909.182 259.626 908.745 260.651 908.745 261.823V266.654H899.571V261.823C899.571 260.651 899.061 259.626 898.042 258.748C897.168 257.723 896.076 257.211 894.765 257.211H885.591C884.28 257.211 883.115 257.723 882.096 258.748C881.222 259.626 880.786 260.651 880.786 261.823V266.654H871.611C867.68 266.654 864.33 268.045 861.563 270.827C858.942 273.463 857.632 276.757 857.632 280.71V332.102C857.632 336.055 858.942 339.423 861.563 342.205C864.33 344.84 867.68 346.158 871.611 346.158H936.704C940.636 346.158 943.913 344.84 946.534 342.205C949.301 339.423 950.684 336.055 950.684 332.102V280.71C950.684 276.757 949.301 273.463 946.534 270.827C943.913 268.045 940.636 266.654 936.704 266.654ZM908.745 275.879V308.822C908.745 310.14 909.182 311.238 910.056 312.116C911.075 312.995 912.24 313.434 913.551 313.434V336.934H894.765V313.434C896.076 313.434 897.168 312.995 898.042 312.116C899.061 311.238 899.571 310.14 899.571 308.822V275.879H908.745ZM866.806 332.102V280.71C866.806 279.393 867.243 278.294 868.116 277.416C869.136 276.391 870.301 275.879 871.611 275.879H880.786V308.822C880.786 310.14 881.222 311.238 882.096 312.116C883.115 312.995 884.28 313.434 885.591 313.434V336.934H871.611C870.301 336.934 869.136 336.495 868.116 335.616C867.243 334.591 866.806 333.42 866.806 332.102ZM941.51 332.102C941.51 333.42 941 334.591 939.981 335.616C939.107 336.495 938.015 336.934 936.704 336.934H922.725V313.434C924.035 313.434 925.128 312.995 926.001 312.116C927.021 311.238 927.53 310.14 927.53 308.822V275.879H936.704C938.015 275.879 939.107 276.391 939.981 277.416C941 278.294 941.51 279.393 941.51 280.71V332.102Z" fill="#41A5DD"/>
<path fill-rule="evenodd" clip-rule="evenodd" d="M1060.1 301.767V257.211C1087.45 259.837 1091.84 267.569 1093.4 273.593C1095.4 281.27 1101.63 282.427 1108.51 283.199C1115.4 283.952 1128.37 285.054 1128.37 293.3C1128.37 298.461 1123.5 301.216 1119.92 303.42H1125.23C1125.98 303.42 1126.59 304.026 1126.59 304.779V321.915C1126.59 322.668 1125.98 323.274 1125.23 323.274H1120.32V326.414C1120.32 328.141 1118.91 329.555 1117.18 329.555H1116.96L1115.58 339.436V341.824H1116.28C1116.45 341.824 1116.58 341.952 1116.58 342.117V344.358C1116.58 344.523 1116.45 344.652 1116.28 344.652H1115.58V346.158H1111.58V344.652H1110.88C1110.72 344.652 1110.59 344.523 1110.59 344.358V342.099C1110.59 341.934 1110.72 341.805 1110.88 341.805H1111.58V339.418L1110.2 329.537H1109.98C1108.26 329.537 1106.84 328.122 1106.84 326.396V323.255H1065.48V326.396C1065.48 328.122 1064.07 329.537 1062.34 329.537H1062.12L1060.74 339.418V341.805H1061.44C1061.61 341.805 1061.73 341.934 1061.73 342.099V344.358C1061.73 344.523 1061.61 344.652 1061.44 344.652H1060.74V346.158H1056.74V344.652H1056.04C1055.88 344.652 1055.75 344.523 1055.75 344.358V342.099C1055.75 341.934 1055.88 341.805 1056.04 341.805H1056.74V339.418L1055.36 329.537H1055.14C1053.41 329.537 1052 328.122 1052 326.396V322.006H1033.74C1033.23 322.006 1032.79 321.584 1032.79 321.051V316.919C1032.79 315.376 1033.76 314.403 1035.54 314.403H1041.09C1041.29 313.209 1041.77 311.997 1043.09 311.703C1043.07 310.693 1043.07 309.683 1043.06 308.673C1040.91 307.718 1040.5 305.679 1040.45 303.567C1039 303.567 1038.37 302.979 1038.37 301.767H1040.61L1047.52 290.564H1054.76L1052.64 294.035L1058.28 301.767H1060.1ZM1052.11 294.916L1047.89 301.767H1057.11L1052.11 294.916Z" fill="#41A5DD"/>
<path d="M373 378.486H229C217.686 378.486 208.428 369.229 208.428 357.914V244.086C208.428 232.772 217.686 223.514 229 223.514H373C384.314 223.514 393.571 232.772 393.571 244.086V357.914C393.571 369.229 384.314 378.486 373 378.486Z" stroke="#292929" stroke-width="5" stroke-miterlimit="10"/>
<path d="M314.714 223.514H286.943V303.743C286.943 309.572 291.4 314.029 297.228 314.029H304.428C310.257 314.029 314.714 309.572 314.714 303.743V223.514Z" fill="#292929" stroke="#292929" stroke-width="5" stroke-miterlimit="10"/>
<path d="M267.743 223.514H239.971V303.743C239.971 309.572 244.428 314.029 250.257 314.029H257.457C263.286 314.029 267.743 309.572 267.743 303.743V223.514V223.514Z" fill="#292929" stroke="#292929" stroke-width="5" stroke-miterlimit="10"/>
<path d="M253.686 314.029V378.486" stroke="#292929" stroke-width="5" stroke-miterlimit="10"/>
<path d="M301 314.029V378.486" stroke="#292929" stroke-width="5" stroke-miterlimit="10"/>
<path d="M362.372 223.514H334.6V303.743C334.6 309.572 339.057 314.029 344.886 314.029H352.086C357.914 314.029 362.372 309.572 362.372 303.743V223.514Z" fill="#292929" stroke="#292929" stroke-width="5" stroke-miterlimit="10"/>
<path d="M348.314 314.029V378.486" stroke="#292929" stroke-width="5" stroke-miterlimit="10"/>
</svg>
