<svg width="1204" height="678" viewBox="0 0 1204 678" fill="none" xmlns="http://www.w3.org/2000/svg">
<rect width="1204" height="677.25" fill="white"/>
<path opacity="0.2" d="M257.552 221.596C265.296 221.596 271.574 215.331 271.574 207.603C271.574 199.875 265.296 193.61 257.552 193.61C249.807 193.61 243.529 199.875 243.529 207.603C243.529 215.331 249.807 221.596 257.552 221.596Z" fill="#41A5DD"/>
<path opacity="0.2" fill-rule="evenodd" clip-rule="evenodd" d="M367.554 118.696C364.66 110.492 359.32 109 353.233 109H346.879C346.312 109 345.745 109 345.208 109.09H214.977C206.743 109.09 200 115.802 200 124.007V214.796C200 223 206.743 229.713 214.977 229.713H309.077V229.624H309.346C315.701 229.624 319.371 227.475 321.22 222.344L328.232 202.951H371.075L377.937 222.374C379.906 227.505 384.113 229.653 389.901 229.653C396.733 229.653 402.342 224.522 402.342 217.988C402.342 215.094 400.761 210.44 399.717 207.814L367.554 118.696ZM257.552 224.79C248.094 224.79 240.337 217.152 240.337 207.635C240.337 198.207 248.005 190.45 257.552 190.45C267.01 190.45 274.767 198.088 274.767 207.605C274.648 217.123 266.98 224.79 257.552 224.79ZM293.921 208.918H278.108C278.108 205.547 276.706 186.9 257.075 186.9C237.443 186.9 236.578 209.097 236.578 209.097H232.371C232.371 209.097 220.109 204.144 217.603 202.832C215.067 201.429 214.798 194.537 214.798 194.537V188.481H216.946V182.335C217.961 169.267 250.063 157.512 250.063 157.512C250.063 157.512 277.005 131.018 281.211 127.289C290.281 119.353 327.038 121.143 327.038 121.143L293.921 208.918ZM333.96 184.572L349.683 137.821H349.952L365.018 184.572H333.96Z" fill="#41A5DD"/>
<path opacity="0.2" fill-rule="evenodd" clip-rule="evenodd" d="M238.636 173.295C237.502 173.027 233.385 173.027 231.625 172.907C231.058 172.907 230.491 173.086 230.133 173.474C229.298 174.13 227.985 175.443 226.762 177.024C225.359 178.904 224.315 181.231 223.688 182.723C223.211 183.946 224.524 184.036 224.524 184.036L227.597 184.692C227.985 184.782 228.343 184.692 228.611 184.424L238.904 175.473C238.845 175.443 240.337 173.653 238.636 173.295Z" fill="#41A5DD"/>
<path opacity="0.2" fill-rule="evenodd" clip-rule="evenodd" d="M308.152 128.961C306.749 128.961 293.741 130.363 291.205 130.841C288.669 131.318 284.94 134.212 284.94 134.212L268.948 151.845V161.272L302.811 154.739C302.811 154.739 307.197 153.903 307.853 148.294C308.51 142.685 309.912 130.751 309.912 130.751C309.912 130.751 309.554 128.961 308.152 128.961Z" fill="#41A5DD"/>
<path d="M224.6 109H215C206.7 109 200 115.7 200 123.9V214.7C200 222.9 206.7 229.6 215 229.6H224.7" stroke="#41A5DD" stroke-width="4" stroke-miterlimit="10" stroke-linecap="round" stroke-linejoin="round"/>
<path d="M310 568.6H247C238.7 568.6 232 561.9 232 553.6V463C232 454.7 238.7 448 247 448H310C318.3 448 325 454.7 325 463V553.6C325 561.9 318.3 568.6 310 568.6Z" stroke="#41A5DD" stroke-width="4" stroke-miterlimit="10" stroke-linecap="round" stroke-linejoin="round"/>
<circle cx="320.5" cy="454.5" r="24" stroke="black"/>
<circle cx="845.5" cy="220.5" r="24" stroke="black"/>
<circle cx="963" cy="441" r="15.5" stroke="black"/>
<path d="M362.126 459.048V460H356.75V459.048H358.899V452.209C358.899 452.004 358.906 451.796 358.92 451.586L357.135 453.119C357.074 453.17 357.014 453.203 356.953 453.217C356.892 453.226 356.836 453.226 356.785 453.217C356.734 453.208 356.685 453.189 356.638 453.161C356.596 453.133 356.563 453.103 356.54 453.07L356.148 452.531L359.137 449.948H360.152V459.048H362.126ZM365.955 453.756C366.478 453.644 366.958 453.588 367.397 453.588C367.92 453.588 368.382 453.665 368.783 453.819C369.184 453.973 369.518 454.185 369.784 454.456C370.055 454.727 370.258 455.046 370.393 455.415C370.533 455.784 370.603 456.185 370.603 456.619C370.603 457.151 370.51 457.632 370.323 458.061C370.141 458.49 369.887 458.859 369.56 459.167C369.238 459.47 368.858 459.704 368.419 459.867C367.98 460.03 367.507 460.112 366.998 460.112C366.704 460.112 366.422 460.082 366.151 460.021C365.88 459.965 365.626 459.888 365.388 459.79C365.155 459.692 364.938 459.58 364.737 459.454C364.536 459.328 364.359 459.195 364.205 459.055L364.59 458.523C364.674 458.402 364.784 458.341 364.919 458.341C365.012 458.341 365.117 458.378 365.234 458.453C365.351 458.523 365.493 458.602 365.661 458.691C365.829 458.78 366.025 458.861 366.249 458.936C366.478 459.006 366.748 459.041 367.061 459.041C367.411 459.041 367.726 458.985 368.006 458.873C368.286 458.761 368.526 458.602 368.727 458.397C368.928 458.187 369.082 457.937 369.189 457.648C369.296 457.359 369.35 457.034 369.35 456.675C369.35 456.362 369.303 456.08 369.21 455.828C369.121 455.576 368.984 455.361 368.797 455.184C368.615 455.007 368.386 454.869 368.111 454.771C367.836 454.673 367.514 454.624 367.145 454.624C366.893 454.624 366.629 454.645 366.354 454.687C366.083 454.729 365.806 454.797 365.521 454.89L364.737 454.659L365.542 449.969H370.295V450.515C370.295 450.692 370.239 450.839 370.127 450.956C370.02 451.068 369.833 451.124 369.567 451.124H366.417L365.955 453.756ZM374.082 458.292C374.311 458.6 374.561 458.817 374.831 458.943C375.102 459.069 375.405 459.132 375.741 459.132C376.404 459.132 376.913 458.896 377.267 458.425C377.622 457.954 377.799 457.282 377.799 456.409C377.799 455.947 377.757 455.55 377.673 455.219C377.594 454.888 377.477 454.617 377.323 454.407C377.169 454.192 376.98 454.036 376.756 453.938C376.532 453.84 376.278 453.791 375.993 453.791C375.587 453.791 375.23 453.884 374.922 454.071C374.619 454.258 374.339 454.521 374.082 454.862V458.292ZM374.019 454.008C374.318 453.639 374.663 453.343 375.055 453.119C375.447 452.895 375.895 452.783 376.399 452.783C376.81 452.783 377.181 452.862 377.512 453.021C377.844 453.175 378.126 453.406 378.359 453.714C378.593 454.017 378.772 454.395 378.898 454.848C379.024 455.301 379.087 455.821 379.087 456.409C379.087 456.932 379.017 457.419 378.877 457.872C378.737 458.32 378.534 458.71 378.268 459.041C378.007 459.368 377.685 459.627 377.302 459.818C376.924 460.005 376.497 460.098 376.021 460.098C375.587 460.098 375.214 460.026 374.901 459.881C374.593 459.732 374.32 459.526 374.082 459.265V462.401H372.829V452.909H373.578C373.756 452.909 373.865 452.995 373.907 453.168L374.019 454.008ZM386.527 460H385.33C385.228 460 385.146 459.974 385.085 459.923C385.029 459.867 384.983 459.806 384.945 459.741L383.16 456.962C383.142 457.027 383.121 457.093 383.097 457.158C383.079 457.219 383.051 457.275 383.013 457.326L381.361 459.741C381.315 459.806 381.263 459.867 381.207 459.923C381.156 459.974 381.084 460 380.99 460H379.877L382.362 456.36L379.975 452.909H381.172C381.275 452.909 381.35 452.925 381.396 452.958C381.443 452.991 381.485 453.037 381.522 453.098L383.265 455.758C383.303 455.623 383.361 455.492 383.44 455.366L384.966 453.126C385.008 453.061 385.053 453.009 385.099 452.972C385.151 452.93 385.211 452.909 385.281 452.909H386.429L384.042 456.297L386.527 460Z" fill="black"/>
<path d="M791.046 225.076C791.382 225.076 791.685 225.022 791.956 224.915C792.231 224.808 792.465 224.658 792.656 224.467C792.852 224.276 793.001 224.049 793.104 223.788C793.211 223.527 793.265 223.242 793.265 222.934C793.265 222.607 793.214 222.313 793.111 222.052C793.008 221.786 792.861 221.562 792.67 221.38C792.483 221.193 792.259 221.051 791.998 220.953C791.737 220.855 791.45 220.806 791.137 220.806C790.801 220.806 790.498 220.864 790.227 220.981C789.956 221.093 789.725 221.247 789.534 221.443C789.347 221.634 789.203 221.858 789.1 222.115C789.002 222.367 788.953 222.631 788.953 222.906C788.953 223.228 789 223.522 789.093 223.788C789.186 224.054 789.322 224.283 789.499 224.474C789.681 224.665 789.9 224.815 790.157 224.922C790.418 225.025 790.715 225.076 791.046 225.076ZM790.318 219.728C790.229 219.84 790.143 219.95 790.059 220.057C789.98 220.16 789.903 220.262 789.828 220.365C790.066 220.202 790.327 220.076 790.612 219.987C790.897 219.898 791.207 219.854 791.543 219.854C791.949 219.854 792.332 219.922 792.691 220.057C793.05 220.188 793.363 220.381 793.629 220.638C793.9 220.89 794.114 221.203 794.273 221.576C794.432 221.945 794.511 222.367 794.511 222.843C794.511 223.305 794.427 223.734 794.259 224.131C794.091 224.528 793.855 224.873 793.552 225.167C793.253 225.461 792.892 225.692 792.467 225.86C792.047 226.028 791.583 226.112 791.074 226.112C790.57 226.112 790.113 226.033 789.702 225.874C789.291 225.711 788.941 225.482 788.652 225.188C788.367 224.889 788.146 224.53 787.987 224.11C787.833 223.685 787.756 223.212 787.756 222.689C787.756 222.25 787.852 221.784 788.043 221.289C788.239 220.79 788.549 220.258 788.974 219.693L791.522 216.27C791.587 216.186 791.676 216.116 791.788 216.06C791.905 215.999 792.038 215.969 792.187 215.969H793.293L790.318 219.728ZM797.661 224.292C797.89 224.6 798.139 224.817 798.41 224.943C798.681 225.069 798.984 225.132 799.32 225.132C799.983 225.132 800.491 224.896 800.846 224.425C801.201 223.954 801.378 223.282 801.378 222.409C801.378 221.947 801.336 221.55 801.252 221.219C801.173 220.888 801.056 220.617 800.902 220.407C800.748 220.192 800.559 220.036 800.335 219.938C800.111 219.84 799.857 219.791 799.572 219.791C799.166 219.791 798.809 219.884 798.501 220.071C798.198 220.258 797.918 220.521 797.661 220.862V224.292ZM797.598 220.008C797.897 219.639 798.242 219.343 798.634 219.119C799.026 218.895 799.474 218.783 799.978 218.783C800.389 218.783 800.76 218.862 801.091 219.021C801.422 219.175 801.705 219.406 801.938 219.714C802.171 220.017 802.351 220.395 802.477 220.848C802.603 221.301 802.666 221.821 802.666 222.409C802.666 222.932 802.596 223.419 802.456 223.872C802.316 224.32 802.113 224.71 801.847 225.041C801.586 225.368 801.264 225.627 800.881 225.818C800.503 226.005 800.076 226.098 799.6 226.098C799.166 226.098 798.793 226.026 798.48 225.881C798.172 225.732 797.899 225.526 797.661 225.265V228.401H796.408V218.909H797.157C797.334 218.909 797.444 218.995 797.486 219.168L797.598 220.008ZM810.106 226H808.909C808.807 226 808.725 225.974 808.664 225.923C808.608 225.867 808.562 225.806 808.524 225.741L806.739 222.962C806.721 223.027 806.7 223.093 806.676 223.158C806.658 223.219 806.63 223.275 806.592 223.326L804.94 225.741C804.894 225.806 804.842 225.867 804.786 225.923C804.735 225.974 804.663 226 804.569 226H803.456L805.941 222.36L803.554 218.909H804.751C804.854 218.909 804.929 218.925 804.975 218.958C805.022 218.991 805.064 219.037 805.101 219.098L806.844 221.758C806.882 221.623 806.94 221.492 807.019 221.366L808.545 219.126C808.587 219.061 808.632 219.009 808.678 218.972C808.73 218.93 808.79 218.909 808.86 218.909H810.008L807.621 222.297L810.106 226Z" fill="black"/>
<path d="M989.91 437.685C989.975 437.228 990.101 436.824 990.288 436.474C990.475 436.119 990.71 435.823 990.995 435.585C991.284 435.347 991.613 435.167 991.982 435.046C992.355 434.92 992.757 434.857 993.186 434.857C993.611 434.857 994.003 434.918 994.362 435.039C994.721 435.16 995.029 435.333 995.286 435.557C995.547 435.781 995.75 436.052 995.895 436.369C996.04 436.686 996.112 437.039 996.112 437.426C996.112 437.743 996.07 438.028 995.986 438.28C995.907 438.527 995.79 438.744 995.636 438.931C995.487 439.118 995.305 439.276 995.09 439.407C994.875 439.538 994.635 439.645 994.369 439.729C995.022 439.897 995.512 440.186 995.839 440.597C996.17 441.003 996.336 441.512 996.336 442.123C996.336 442.585 996.247 443 996.07 443.369C995.897 443.738 995.659 444.053 995.356 444.314C995.053 444.571 994.698 444.769 994.292 444.909C993.891 445.044 993.459 445.112 992.997 445.112C992.465 445.112 992.01 445.047 991.632 444.916C991.254 444.781 990.934 444.596 990.673 444.363C990.412 444.13 990.197 443.854 990.029 443.537C989.861 443.215 989.719 442.867 989.602 442.494L990.141 442.27C990.281 442.209 990.416 442.193 990.547 442.221C990.682 442.249 990.78 442.326 990.841 442.452C990.902 442.583 990.976 442.739 991.065 442.921C991.158 443.103 991.284 443.278 991.443 443.446C991.602 443.614 991.802 443.756 992.045 443.873C992.292 443.99 992.605 444.048 992.983 444.048C993.333 444.048 993.639 443.992 993.9 443.88C994.166 443.763 994.385 443.614 994.558 443.432C994.735 443.25 994.868 443.047 994.957 442.823C995.046 442.599 995.09 442.377 995.09 442.158C995.09 441.887 995.055 441.64 994.985 441.416C994.915 441.192 994.784 440.998 994.593 440.835C994.402 440.672 994.138 440.543 993.802 440.45C993.471 440.357 993.044 440.31 992.521 440.31V439.407C992.95 439.402 993.314 439.356 993.613 439.267C993.916 439.178 994.161 439.057 994.348 438.903C994.539 438.749 994.677 438.565 994.761 438.35C994.85 438.135 994.894 437.897 994.894 437.636C994.894 437.347 994.847 437.095 994.754 436.88C994.665 436.665 994.542 436.488 994.383 436.348C994.224 436.208 994.035 436.103 993.816 436.033C993.601 435.963 993.368 435.928 993.116 435.928C992.864 435.928 992.628 435.965 992.409 436.04C992.194 436.115 992.003 436.22 991.835 436.355C991.672 436.486 991.534 436.642 991.422 436.824C991.31 437.006 991.231 437.207 991.184 437.426C991.123 437.589 991.046 437.699 990.953 437.755C990.864 437.806 990.734 437.82 990.561 437.797L989.91 437.685ZM999.661 443.292C999.89 443.6 1000.14 443.817 1000.41 443.943C1000.68 444.069 1000.98 444.132 1001.32 444.132C1001.98 444.132 1002.49 443.896 1002.85 443.425C1003.2 442.954 1003.38 442.282 1003.38 441.409C1003.38 440.947 1003.34 440.55 1003.25 440.219C1003.17 439.888 1003.06 439.617 1002.9 439.407C1002.75 439.192 1002.56 439.036 1002.34 438.938C1002.11 438.84 1001.86 438.791 1001.57 438.791C1001.17 438.791 1000.81 438.884 1000.5 439.071C1000.2 439.258 999.918 439.521 999.661 439.862V443.292ZM999.598 439.008C999.897 438.639 1000.24 438.343 1000.63 438.119C1001.03 437.895 1001.47 437.783 1001.98 437.783C1002.39 437.783 1002.76 437.862 1003.09 438.021C1003.42 438.175 1003.7 438.406 1003.94 438.714C1004.17 439.017 1004.35 439.395 1004.48 439.848C1004.6 440.301 1004.67 440.821 1004.67 441.409C1004.67 441.932 1004.6 442.419 1004.46 442.872C1004.32 443.32 1004.11 443.71 1003.85 444.041C1003.59 444.368 1003.26 444.627 1002.88 444.818C1002.5 445.005 1002.08 445.098 1001.6 445.098C1001.17 445.098 1000.79 445.026 1000.48 444.881C1000.17 444.732 999.899 444.526 999.661 444.265V447.401H998.408V437.909H999.157C999.334 437.909 999.444 437.995 999.486 438.168L999.598 439.008ZM1012.11 445H1010.91C1010.81 445 1010.72 444.974 1010.66 444.923C1010.61 444.867 1010.56 444.806 1010.52 444.741L1008.74 441.962C1008.72 442.027 1008.7 442.093 1008.68 442.158C1008.66 442.219 1008.63 442.275 1008.59 442.326L1006.94 444.741C1006.89 444.806 1006.84 444.867 1006.79 444.923C1006.73 444.974 1006.66 445 1006.57 445H1005.46L1007.94 441.36L1005.55 437.909H1006.75C1006.85 437.909 1006.93 437.925 1006.98 437.958C1007.02 437.991 1007.06 438.037 1007.1 438.098L1008.84 440.758C1008.88 440.623 1008.94 440.492 1009.02 440.366L1010.55 438.126C1010.59 438.061 1010.63 438.009 1010.68 437.972C1010.73 437.93 1010.79 437.909 1010.86 437.909H1012.01L1009.62 441.297L1012.11 445Z" fill="black"/>
<path d="M846.139 150H961.647" stroke="#292929" stroke-width="4" stroke-miterlimit="10" stroke-linecap="round" stroke-linejoin="round"/>
<path d="M875.23 200.695H867.743C864.321 200.695 861.326 197.914 861.326 194.278V175.454C861.326 171.818 864.107 169.037 867.743 169.037H873.519C876.941 169.037 879.936 171.818 879.936 175.454V195.989C879.722 198.556 877.583 200.695 875.23 200.695Z" stroke="#292929" stroke-width="4" stroke-miterlimit="10" stroke-linecap="round" stroke-linejoin="round"/>
<path d="M908.813 200.695H901.326C897.69 200.695 894.909 197.914 894.909 194.278V175.454C894.909 171.818 897.69 169.037 901.326 169.037H907.102C910.738 169.037 913.519 171.818 913.519 175.454V195.989C913.519 198.556 911.166 200.695 908.813 200.695Z" fill="#292929" stroke="#292929" stroke-width="4" stroke-miterlimit="10" stroke-linecap="round" stroke-linejoin="round"/>
<path d="M941.967 200.695H934.481C930.844 200.695 928.063 197.914 928.063 194.278V175.454C928.063 171.818 930.844 169.037 934.481 169.037H940.256C943.892 169.037 946.673 171.818 946.673 175.454V195.989C946.459 198.556 944.534 200.695 941.967 200.695Z" stroke="#292929" stroke-width="4" stroke-miterlimit="10" stroke-linecap="round" stroke-linejoin="round"/>
<path d="M949.026 219.946H858.973C851.914 219.946 846.139 214.171 846.139 207.112V128.396C846.139 124.759 848.919 121.979 852.556 121.979H955.443C959.08 121.979 961.861 124.759 961.861 128.396V207.112C961.861 214.171 956.085 219.946 949.026 219.946Z" stroke="#41A5DD" stroke-width="4" stroke-miterlimit="10" stroke-linecap="round" stroke-linejoin="round"/>
<path d="M860.898 112.139V131.818" stroke="#292929" stroke-width="4" stroke-miterlimit="10" stroke-linecap="round" stroke-linejoin="round"/>
<path d="M946.888 112.139V131.818" stroke="#292929" stroke-width="4" stroke-miterlimit="10" stroke-linecap="round" stroke-linejoin="round"/>
<path d="M943.825 588.052H863.895C854.053 588.052 846 579.999 846 570.157V448.174C846 443.104 849.877 439.227 854.947 439.227H952.773C957.843 439.227 961.72 443.104 961.72 448.174V570.157C961.72 579.999 953.667 588.052 943.825 588.052Z" stroke="#41A5DD" stroke-width="4" stroke-miterlimit="10" stroke-linecap="round" stroke-linejoin="round"/>
<path d="M863.298 427.597V451.158" stroke="#292929" stroke-width="4" stroke-miterlimit="10" stroke-linecap="round" stroke-linejoin="round"/>
<path d="M903.861 427.597V451.158" stroke="#292929" stroke-width="4" stroke-miterlimit="10" stroke-linecap="round" stroke-linejoin="round"/>
<path d="M944.422 427V450.562" stroke="#292929" stroke-width="4" stroke-miterlimit="10" stroke-linecap="round" stroke-linejoin="round"/>
<path d="M863.298 482.473H944.421" stroke="#292929" stroke-width="4" stroke-miterlimit="10" stroke-linecap="round" stroke-linejoin="round"/>
<path d="M863.298 508.721H926.825" stroke="#292929" stroke-width="4" stroke-miterlimit="10" stroke-linecap="round" stroke-linejoin="round"/>
<path d="M863.298 534.966H944.421" stroke="#292929" stroke-width="4" stroke-miterlimit="10" stroke-linecap="round" stroke-linejoin="round"/>
<path d="M863.298 561.211H909.526" stroke="#292929" stroke-width="4" stroke-miterlimit="10" stroke-linecap="round" stroke-linejoin="round"/>
</svg>
