<svg width="1204" height="678" viewBox="0 0 1204 678" fill="none" xmlns="http://www.w3.org/2000/svg">
<rect width="1204" height="677.25" fill="white"/>
<rect x="30" y="635" width="542" height="5" rx="2.5" fill="#70C216"/>
<path d="M43.8214 618.085C43.8214 619.098 43.6524 620.029 43.3145 620.877C42.9765 621.726 42.5015 622.456 41.8893 623.068C41.2771 623.68 40.5406 624.155 39.6798 624.493C38.8189 624.831 37.8624 625 36.8103 625H31.54V611.169H36.8103C37.8624 611.169 38.8189 611.341 39.6798 611.686C40.5406 612.023 41.2771 612.499 41.8893 613.111C42.5015 613.716 42.9765 614.443 43.3145 615.292C43.6524 616.14 43.8214 617.071 43.8214 618.085ZM41.1815 618.085C41.1815 617.326 41.0795 616.647 40.8754 616.047C40.6777 615.441 40.3876 614.931 40.005 614.517C39.6288 614.096 39.1696 613.774 38.6276 613.551C38.092 613.328 37.4862 613.216 36.8103 613.216H34.1225V622.953H36.8103C37.4862 622.953 38.092 622.841 38.6276 622.618C39.1696 622.395 39.6288 622.076 40.005 621.662C40.3876 621.241 40.6777 620.731 40.8754 620.131C41.0795 619.526 41.1815 618.843 41.1815 618.085ZM50.5317 615.033C51.2586 615.033 51.9186 615.151 52.5116 615.387C53.111 615.623 53.6212 615.958 54.042 616.392C54.4693 616.825 54.7977 617.354 55.0272 617.979C55.2568 618.604 55.3716 619.302 55.3716 620.074C55.3716 620.852 55.2568 621.553 55.0272 622.178C54.7977 622.803 54.4693 623.336 54.042 623.776C53.6212 624.216 53.111 624.554 52.5116 624.79C51.9186 625.026 51.2586 625.143 50.5317 625.143C49.7983 625.143 49.132 625.026 48.5326 624.79C47.9332 624.554 47.4199 624.216 46.9926 623.776C46.5718 623.336 46.2434 622.803 46.0074 622.178C45.7779 621.553 45.6631 620.852 45.6631 620.074C45.6631 619.302 45.7779 618.604 46.0074 617.979C46.2434 617.354 46.5718 616.825 46.9926 616.392C47.4199 615.958 47.9332 615.623 48.5326 615.387C49.132 615.151 49.7983 615.033 50.5317 615.033ZM50.5317 623.326C51.3479 623.326 51.9505 623.052 52.3395 622.504C52.7348 621.955 52.9325 621.152 52.9325 620.093C52.9325 619.035 52.7348 618.228 52.3395 617.673C51.9505 617.118 51.3479 616.841 50.5317 616.841C49.7027 616.841 49.0874 617.122 48.6856 617.683C48.2903 618.238 48.0926 619.041 48.0926 620.093C48.0926 621.145 48.2903 621.949 48.6856 622.504C49.0874 623.052 49.7027 623.326 50.5317 623.326Z" fill="#70C216"/>
<rect x="632" y="635" width="542" height="5" fill="#F74F64"/>
<path d="M645.821 618.085C645.821 619.098 645.652 620.029 645.314 620.877C644.977 621.726 644.501 622.456 643.889 623.068C643.277 623.68 642.541 624.155 641.68 624.493C640.819 624.831 639.862 625 638.81 625H633.54V611.169H638.81C639.862 611.169 640.819 611.341 641.68 611.686C642.541 612.023 643.277 612.499 643.889 613.111C644.501 613.716 644.977 614.443 645.314 615.292C645.652 616.14 645.821 617.071 645.821 618.085ZM643.181 618.085C643.181 617.326 643.079 616.647 642.875 616.047C642.678 615.441 642.388 614.931 642.005 614.517C641.629 614.096 641.17 613.774 640.628 613.551C640.092 613.328 639.486 613.216 638.81 613.216H636.123V622.953H638.81C639.486 622.953 640.092 622.841 640.628 622.618C641.17 622.395 641.629 622.076 642.005 621.662C642.388 621.241 642.678 620.731 642.875 620.131C643.079 619.526 643.181 618.843 643.181 618.085ZM652.532 615.033C653.259 615.033 653.919 615.151 654.512 615.387C655.111 615.623 655.621 615.958 656.042 616.392C656.469 616.825 656.798 617.354 657.027 617.979C657.257 618.604 657.372 619.302 657.372 620.074C657.372 620.852 657.257 621.553 657.027 622.178C656.798 622.803 656.469 623.336 656.042 623.776C655.621 624.216 655.111 624.554 654.512 624.79C653.919 625.026 653.259 625.143 652.532 625.143C651.798 625.143 651.132 625.026 650.533 624.79C649.933 624.554 649.42 624.216 648.993 623.776C648.572 623.336 648.243 622.803 648.007 622.178C647.778 621.553 647.663 620.852 647.663 620.074C647.663 619.302 647.778 618.604 648.007 617.979C648.243 617.354 648.572 616.825 648.993 616.392C649.42 615.958 649.933 615.623 650.533 615.387C651.132 615.151 651.798 615.033 652.532 615.033ZM652.532 623.326C653.348 623.326 653.95 623.052 654.339 622.504C654.735 621.955 654.932 621.152 654.932 620.093C654.932 619.035 654.735 618.228 654.339 617.673C653.95 617.118 653.348 616.841 652.532 616.841C651.703 616.841 651.087 617.122 650.686 617.683C650.29 618.238 650.093 619.041 650.093 620.093C650.093 621.145 650.29 621.949 650.686 622.504C651.087 623.052 651.703 623.326 652.532 623.326ZM661.983 616.392C662.181 616.194 662.388 616.012 662.605 615.846C662.828 615.674 663.061 615.531 663.303 615.416C663.552 615.295 663.817 615.202 664.097 615.138C664.378 615.068 664.684 615.033 665.016 615.033C665.551 615.033 666.026 615.126 666.441 615.311C666.855 615.489 667.2 615.744 667.474 616.076C667.754 616.401 667.965 616.793 668.105 617.252C668.252 617.705 668.325 618.206 668.325 618.754V625H665.963V618.754C665.963 618.155 665.825 617.692 665.551 617.367C665.277 617.036 664.859 616.87 664.298 616.87C663.89 616.87 663.507 616.962 663.15 617.147C662.793 617.332 662.455 617.584 662.137 617.903V625H659.774V615.186H661.218C661.524 615.186 661.725 615.33 661.821 615.617L661.983 616.392ZM672.499 610.241C672.805 610.745 673.012 611.271 673.12 611.819C673.229 612.361 673.238 612.9 673.149 613.436C673.06 613.965 672.872 614.475 672.585 614.966C672.304 615.451 671.925 615.888 671.446 616.277L670.7 615.827C670.637 615.789 670.592 615.744 670.567 615.693C670.541 615.636 670.528 615.582 670.528 615.531C670.535 615.473 670.547 615.419 670.567 615.368C670.592 615.317 670.624 615.272 670.662 615.234C670.796 615.075 670.924 614.864 671.045 614.603C671.166 614.341 671.249 614.048 671.293 613.723C671.344 613.398 671.338 613.05 671.274 612.68C671.217 612.31 671.073 611.941 670.844 611.571C670.735 611.386 670.704 611.226 670.748 611.092C670.799 610.952 670.904 610.853 671.064 610.796L672.499 610.241ZM678.985 625.153C678.131 625.153 677.474 624.914 677.015 624.436C676.562 623.951 676.335 623.285 676.335 622.437V616.956H675.331C675.204 616.956 675.095 616.914 675.006 616.831C674.917 616.749 674.872 616.624 674.872 616.458V615.521L676.45 615.263L676.948 612.585C676.98 612.457 677.04 612.358 677.129 612.288C677.219 612.218 677.333 612.183 677.474 612.183H678.698V615.272H681.319V616.956H678.698V622.274C678.698 622.58 678.771 622.819 678.918 622.991C679.071 623.164 679.278 623.25 679.54 623.25C679.686 623.25 679.808 623.234 679.903 623.202C680.005 623.164 680.091 623.125 680.161 623.087C680.238 623.049 680.305 623.014 680.362 622.982C680.42 622.944 680.477 622.924 680.535 622.924C680.605 622.924 680.662 622.944 680.707 622.982C680.751 623.014 680.799 623.065 680.85 623.135L681.558 624.283C681.214 624.57 680.818 624.786 680.372 624.933C679.926 625.08 679.463 625.153 678.985 625.153Z" fill="#F74F64"/>
<path d="M372.657 352.086H229.686C218.028 352.086 208.428 342.486 208.428 330.829V271.172C208.428 259.515 218.028 249.915 229.686 249.915H372.314C383.971 249.915 393.571 259.515 393.571 271.172V330.143C393.914 342.486 384.314 352.086 372.657 352.086Z" stroke="#292929" stroke-width="5" stroke-miterlimit="10"/>
<path d="M301 332.2C312.657 332.2 322.257 318.828 322.257 302.028C322.257 285.228 312.657 271.857 301 271.857C289.343 271.857 279.743 285.228 279.743 302.028C279.743 318.828 289.343 332.2 301 332.2Z" stroke="#292929" stroke-width="5" stroke-miterlimit="10"/>
<path d="M974.229 352.171H831.257C819.6 352.171 810 342.571 810 330.914V271.257C810 259.6 819.6 250 831.257 250H973.886C985.543 250 995.143 259.6 995.143 271.257V330.229C995.486 342.571 985.886 352.171 974.229 352.171Z" stroke="#292929" stroke-width="5" stroke-miterlimit="10"/>
<path d="M885 303.243C885 302.483 885.227 301.835 885.682 301.299C886.159 300.74 886.876 300.461 887.83 300.461H888.479C890.136 300.461 891.479 299.118 891.479 297.461V292.551C891.479 290.451 891.798 288.462 892.434 286.585C893.093 284.686 894.071 283.033 895.367 281.625C896.663 280.195 898.288 279.067 900.243 278.24C902.198 277.413 904.495 277 907.132 277C908.928 277 910.542 277.235 911.974 277.704C913.429 278.151 914.714 278.765 915.828 279.547C916.964 280.329 917.942 281.256 918.76 282.329C919.039 282.677 919.305 283.034 919.559 283.402C920.437 284.674 919.942 286.373 918.632 287.193L917.567 287.859C916.771 288.261 916.01 288.44 915.282 288.395C914.577 288.351 913.929 287.993 913.338 287.323C912.906 286.831 912.474 286.384 912.042 285.982C911.633 285.558 911.19 285.2 910.712 284.91C910.235 284.597 909.701 284.362 909.11 284.206C908.541 284.049 907.882 283.971 907.132 283.971C904.79 283.971 903.04 284.731 901.88 286.25C900.721 287.747 900.141 289.837 900.141 292.518V297.461C900.141 299.118 901.484 300.461 903.141 300.461H911.088C912.745 300.461 914.088 301.804 914.088 303.461V303.746C914.088 304.282 913.861 304.773 913.406 305.22C912.952 305.667 912.383 305.891 911.701 305.891H903.141C901.484 305.891 900.141 307.234 900.141 308.891V312.393C900.141 313.867 899.857 315.186 899.288 316.347C899.085 316.773 898.852 317.188 898.591 317.592C898.188 318.216 898.755 319.21 899.493 319.129C900.312 319.018 901.153 318.962 902.017 318.962H919C920.657 318.962 922 320.305 922 321.962V322.447C922 322.85 921.909 323.263 921.727 323.687C921.568 324.112 921.329 324.503 921.011 324.86C920.693 325.196 920.306 325.475 919.852 325.698C919.397 325.899 918.897 326 918.351 326H888.585C886.982 326 885.682 324.7 885.682 323.097C885.682 321.753 886.636 320.613 887.865 320.068C888.569 319.733 889.183 319.319 889.706 318.828C890.252 318.314 890.684 317.722 891.002 317.051C891.32 316.359 891.479 315.554 891.479 314.638V308.891C891.479 307.234 890.136 305.891 888.479 305.891H887.648C886.185 305.891 885 304.705 885 303.243Z" fill="#292929"/>
</svg>
