<?xml version="1.0" encoding="utf-8"?>
<!-- Generator: Adobe Illustrator 25.4.1, SVG Export Plug-In . SVG Version: 6.00 Build 0)  -->
<svg version="1.1" id="Layer_1" xmlns="http://www.w3.org/2000/svg" xmlns:xlink="http://www.w3.org/1999/xlink" x="0px" y="0px"
	 viewBox="0 0 70 70" style="enable-background:new 0 0 70 70;" xml:space="preserve">
<style type="text/css">
	.st0{fill:none;stroke:#292929;stroke-width:2;stroke-linecap:round;stroke-linejoin:round;stroke-miterlimit:10;}
</style>
<path class="st0" d="M35,39.3L35,39.3c0-0.5-0.1-0.9-0.3-1.3 M35,53.2c0,1.7-1.3,3-3,3H11c-1.7,0-3-1.3-3-3V39.3
	c0-0.4,0.1-0.9,0.3-1.3 M21.5,32h-6.1c-0.8,0-1.5,0.3-2.1,0.9l-4.4,4.3c-0.2,0.2-0.4,0.5-0.6,0.8 M24.5,38H8.3 M35,39.3
	c0-0.4,0.1-0.9,0.3-1.3 M35.3,38L35.3,38 M48.5,32.1h6.1c0.8,0,1.5,0.3,2.1,0.8l4.4,4.3c0.2,0.2,0.4,0.5,0.6,0.9 M35,53.2L35,53.2
	c0,1.7,1.4,3,3,3h21c1.7,0,3-1.4,3-3V39.3c0-0.4-0.1-0.9-0.3-1.3 M35,53.2V39.3 M35.3,38h1.5 M35.3,38H35 M61.7,38H36.8 M35.3,38H35
	 M24.5,38c-1.6,0-3-1.3-3-3v-3 M21.8,19.8c0.2-0.3,0.3-0.6,0.6-0.8l4.3-4.3c0.6-0.5,1.3-0.8,2.1-0.8H35 M35,13.8h6.1
	c0.8,0,1.5,0.3,2.1,0.8l4.4,4.3c0.2,0.2,0.4,0.5,0.6,0.8 M21.5,32V21.1c0-0.4,0.1-0.9,0.3-1.3 M48.5,32.1v-11c0-0.4-0.1-0.9-0.3-1.3
	 M48.5,32.1V35c0,1.7-1.3,3-3,3H35.3 M34.7,38h-1.5 M34.7,38H35 M24.5,38h8.7 M46.7,19.8h1.5 M35,19.8v-6 M35,13.8L35,13.8
	 M48.2,19.8H35 M21.8,19.8H35 M55.2,48.7v-5.3 M53,45.6l2.2-2.2l2.2,2.2 M47.5,48.7v-5.3 M45.3,45.6l2.2-2.2l2.2,2.2 M11.6,46.6
	l8.7-1l0.6,5.6l-8.7,1L11.6,46.6z"/>
</svg>
