<?xml version="1.0" encoding="utf-8"?>
<!-- Generator: Adobe Illustrator 25.4.1, SVG Export Plug-In . SVG Version: 6.00 Build 0)  -->
<svg version="1.1" id="Layer_1" xmlns="http://www.w3.org/2000/svg" xmlns:xlink="http://www.w3.org/1999/xlink" x="0px" y="0px"
	 viewBox="0 0 70 70" style="enable-background:new 0 0 70 70;" xml:space="preserve">
<style type="text/css">
	.st0{fill:none;stroke:#292929;stroke-width:2;stroke-linecap:round;stroke-linejoin:round;stroke-miterlimit:10;}
</style>
<g>
	<path class="st0" d="M62,23.4v2.2c0,1.7-1.3,3-3,3H11c-1.7,0-3-1.3-3-3v-2.2c0-0.8,0.3-1.6,0.9-2.2l8.1-7.7
		c1.1-1.1,2.6-1.7,4.1-1.7H49c1.6,0,3,0.6,4.2,1.7l8,7.7C61.7,21.8,62,22.6,62,23.4z"/>
	<path class="st0" d="M8.3,22.1h53.5H8.3z"/>
	<path class="st0" d="M9.9,28.6v23.5c0,3.3,2.7,6,6,6h38.2c3.3,0,6-2.7,6-6V28.6"/>
	<path class="st0" d="M40,41.3H30c-1.7,0-3-1.3-3-3v-0.1c0-1.7,1.3-3,3-3H40c1.7,0,3,1.3,3,3v0.1C43,39.9,41.7,41.3,40,41.3z"/>
</g>
</svg>
