<?xml version="1.0" encoding="utf-8"?>
<!-- Generator: Adobe Illustrator 25.4.1, SVG Export Plug-In . SVG Version: 6.00 Build 0)  -->
<svg version="1.1" id="Layer_1" xmlns="http://www.w3.org/2000/svg" xmlns:xlink="http://www.w3.org/1999/xlink" x="0px" y="0px"
	 viewBox="0 0 70 70" style="enable-background:new 0 0 70 70;" xml:space="preserve">
<style type="text/css">
	.st0{fill:none;stroke:#292929;stroke-width:2;stroke-linecap:round;stroke-linejoin:round;stroke-miterlimit:10;}
</style>
<path class="st0" d="M49.6,33.7l3.4,6.9c0.1,0.2,0.3,0.4,0.7,0.5l7.6,1.1c0.7,0.1,1,1,0.5,1.4l-5.5,5.4c-0.2,0.2-0.3,0.5-0.2,0.7
	l1.3,7.5c0.1,0.7-0.6,1.2-1.2,0.9l-6.8-3.6c-0.2-0.2-0.6-0.2-0.8,0l-6.8,3.6c-0.7,0.3-1.3-0.2-1.2-0.9l1.3-7.5
	c0.1-0.2-0.1-0.6-0.2-0.7l-5.5-5.4c-0.5-0.5-0.2-1.3,0.5-1.4l7.6-1.1c0.2,0,0.5-0.2,0.7-0.5l3.4-6.9C48.5,33.1,49.3,33.1,49.6,33.7z
	 M26.2,41.8L15.5,41c-0.7-0.1-1.2-0.7-1.2-1.5l0.3-4.8c0.1-0.8,0.7-1.4,1.3-1.3l10.7,0.7c0.7,0.1,1.2,0.7,1.2,1.5l-0.3,4.8
	C27.5,41.3,26.9,41.9,26.2,41.8z M8.5,21.6C8.2,22.3,8,23,8,23.8v23c0,2.7,2.2,5,5,5h28.5 M52.1,21.6c-0.3-0.5-0.6-1-1-1.4l-7.3-7
	c-0.9-0.9-2.1-1.4-3.5-1.4H30.3 M52.6,40V23.8c0-0.7-0.2-1.5-0.5-2.1 M30.3,11.8H20.1c-1.3,0-2.6,0.5-3.5,1.4l-7.2,7
	c-0.4,0.4-0.7,0.9-1,1.4 M8.5,21.6 M8.5,21.6h21.8 M52.1,21.6H30.3 M30.3,11.8v9.8"/>
</svg>
