<?xml version="1.0" encoding="utf-8"?>
<!-- Generator: Adobe Illustrator 25.4.1, SVG Export Plug-In . SVG Version: 6.00 Build 0)  -->
<svg version="1.1" id="Layer_1" xmlns="http://www.w3.org/2000/svg" xmlns:xlink="http://www.w3.org/1999/xlink" x="0px" y="0px"
	 viewBox="0 0 70 70" style="enable-background:new 0 0 70 70;" xml:space="preserve">
<style type="text/css">
	.st0{fill:none;stroke:#292929;stroke-width:2;stroke-linecap:round;stroke-linejoin:round;stroke-miterlimit:10;}
</style>
<g>
	<path class="st0" d="M59.4,23.6L49.2,14c-0.6-0.5-1.4-0.8-2.1-0.8H23c-0.8,0-1.6,0.3-2.1,0.8l-10.3,9.6"/>
	<path class="st0" d="M10.5,34.9v15.7c0,3.5,2.8,6.3,6.3,6.3h36.4c3.5,0,6.3-2.8,6.3-6.3V34.9"/>
	<line class="st0" x1="22.9" y1="23.6" x2="22.9" y2="13.1"/>
	<path class="st0" d="M27.2,34.9v6.6c0,0.7,0.7,1.3,1.5,1l6.1-1.8c0.2-0.1,0.4-0.1,0.6,0l6.1,1.8c0.7,0.2,1.5-0.3,1.5-1v-6.6"/>
	<g>
		<path class="st0" d="M59.4,23.6l2.4,7.2c0.6,2-0.8,4.1-2.9,4.1H11.1c-2.1,0-3.7-2.1-2.9-4.1l2.4-7.2
			C10.6,23.6,59.4,23.6,59.4,23.6z"/>
	</g>
</g>
</svg>
