<?xml version="1.0" encoding="utf-8"?>
<!-- Generator: Adobe Illustrator 25.4.1, SVG Export Plug-In . SVG Version: 6.00 Build 0)  -->
<svg version="1.1" id="Layer_1" xmlns="http://www.w3.org/2000/svg" xmlns:xlink="http://www.w3.org/1999/xlink" x="0px" y="0px"
	 viewBox="0 0 70 70" style="enable-background:new 0 0 70 70;" xml:space="preserve">
<style type="text/css">
	.st0{fill:none;stroke:#292929;stroke-width:2;stroke-linecap:round;stroke-linejoin:round;stroke-miterlimit:10;}
	.st1{fill:#292929;stroke:#292929;stroke-width:2;stroke-linecap:round;stroke-linejoin:round;stroke-miterlimit:10;}
</style>
<g>
	<path class="st0" d="M56,59.3H14c-3.3,0-6-2.7-6-6V16.5c0-1.7,1.3-3,3-3h48c1.7,0,3,1.3,3,3v36.8C62,56.6,59.4,59.3,56,59.3z"/>
	<path class="st0" d="M8,26.6h54"/>
	<line class="st0" x1="15.1" y1="10.7" x2="15.1" y2="20"/>
	<line class="st0" x1="55.3" y1="10.7" x2="55.3" y2="20"/>
</g>
<path class="st1" d="M43.5,35.5h8.8c1.7,0,3,1.3,3,3v8.8c0,1.7-1.3,3-3,3h-8.8c-1.7,0-3-1.3-3-3v-8.8C40.5,36.8,41.8,35.5,43.5,35.5
	z"/>
</svg>
