<?xml version="1.0" encoding="utf-8"?>
<!-- Generator: Adobe Illustrator 25.2.1, SVG Export Plug-In . SVG Version: 6.00 Build 0)  -->
<svg version="1.1" id="Layer_1" xmlns="http://www.w3.org/2000/svg" xmlns:xlink="http://www.w3.org/1999/xlink" x="0px" y="0px"
	 viewBox="0 0 70 70" style="enable-background:new 0 0 70 70;" xml:space="preserve">
<style type="text/css">
	.st0{fill:none;stroke:#292929;stroke-width:2;stroke-linecap:round;stroke-linejoin:round;stroke-miterlimit:10;}
	.st1{fill:#292929;stroke:#292929;stroke-width:2;stroke-linecap:round;stroke-linejoin:round;stroke-miterlimit:10;}
	.st2{fill:none;stroke:#292929;stroke-width:2;stroke-linecap:round;stroke-linejoin:round;}
</style>
<path class="st0" d="M15.1,47.6v-1.2c0-1.7,1.3-3,3-3h2.7c1.7,0,3,1.3,3,3v1.2c0,1.7-1.3,3-3,3h-2.7C16.4,50.6,15.1,49.2,15.1,47.6z
	"/>
<path class="st0" d="M30.8,47.6v-1.2c0-1.7,1.3-3,3-3h2.7c1.7,0,3,1.3,3,3v1.2c0,1.7-1.3,3-3,3h-2.7C32,50.6,30.8,49.2,30.8,47.6z"
	/>
<path class="st1" d="M46.2,47.6v-1.2c0-1.7,1.3-3,3-3H52c1.7,0,3,1.3,3,3v1.2c0,1.7-1.3,3-3,3h-2.7C47.5,50.6,46.2,49.2,46.2,47.6z"
	/>
<path class="st2" d="M45.5,37.7c-1.2-1.2-4.2-3.8-11.8-3.8c-13.7,0-14.5,9-14.5,9"/>
<path class="st2" d="M44.5,31.8l1.3,6.4l-6.4,1.3"/>
<g>
	<path class="st0" d="M56.3,59.3h-42c-3.3,0-6-2.7-6-6V16.5c0-1.7,1.3-3,3-3h48c1.7,0,3,1.3,3,3v36.8C62.3,56.6,59.7,59.3,56.3,59.3
		z"/>
	<path class="st0" d="M8.3,26.6h54"/>
	<line class="st0" x1="15.4" y1="10.7" x2="15.4" y2="20"/>
	<line class="st0" x1="55.6" y1="10.7" x2="55.6" y2="20"/>
</g>
</svg>
