<?xml version="1.0" encoding="utf-8"?>
<!-- Generator: Adobe Illustrator 25.2.1, SVG Export Plug-In . SVG Version: 6.00 Build 0)  -->
<svg version="1.1" id="Layer_1" xmlns="http://www.w3.org/2000/svg" xmlns:xlink="http://www.w3.org/1999/xlink" x="0px" y="0px"
	 viewBox="0 0 70 70" style="enable-background:new 0 0 70 70;" xml:space="preserve">
<style type="text/css">
	.st0{fill:none;stroke:#292929;stroke-width:2;stroke-linecap:round;stroke-linejoin:round;stroke-miterlimit:10;}
</style>
<g>
	<path class="st0" d="M61,46l-7.1,0.1c-2.9,0-5.2,2.4-5.2,5.2v7"/>
	<path class="st0" d="M8,26.6h54"/>
	<line class="st0" x1="15.1" y1="10.7" x2="15.1" y2="20"/>
	<line class="st0" x1="55.3" y1="10.7" x2="55.3" y2="20"/>
	<path class="st0" d="M59,13.5H11c-1.7,0-3,1.3-3,3v36.8c0,3.3,2.7,6,6,6h33.5c0.8,0,1.6-0.3,2.1-0.9l11.5-11.5
		c0.6-0.6,0.9-1.3,0.9-2.1V16.5C62,14.8,60.7,13.5,59,13.5z"/>
</g>
</svg>
