<?xml version="1.0" encoding="utf-8"?>
<!-- Generator: Adobe Illustrator 25.2.1, SVG Export Plug-In . SVG Version: 6.00 Build 0)  -->
<svg version="1.1" id="Layer_1" xmlns="http://www.w3.org/2000/svg" xmlns:xlink="http://www.w3.org/1999/xlink" x="0px" y="0px"
	 viewBox="0 0 70 70" style="enable-background:new 0 0 70 70;" xml:space="preserve">
<style type="text/css">
	.st0{fill:none;stroke:#292929;stroke-width:2;stroke-linecap:round;stroke-linejoin:round;stroke-miterlimit:10;}
	.st1{fill:#292929;stroke:#292929;stroke-width:2;stroke-linecap:round;stroke-linejoin:round;stroke-miterlimit:10;}
</style>
<g>
	<path class="st0" d="M21.7,50.3h-3.5c-1.6,0-3-1.3-3-3v-8.8c0-1.7,1.3-3,3-3h2.7c1.6,0,3,1.3,3,3v9.6
		C23.8,49.3,22.8,50.3,21.7,50.3z"/>
	<path class="st1" d="M37.4,50.3h-3.5c-1.7,0-3-1.3-3-3v-8.8c0-1.7,1.3-3,3-3h2.7c1.7,0,3,1.3,3,3v9.6
		C39.6,49.3,38.5,50.3,37.4,50.3z"/>
	<path class="st0" d="M52.9,50.3h-3.5c-1.7,0-3-1.3-3-3v-8.8c0-1.7,1.3-3,3-3h2.7c1.7,0,3,1.3,3,3v9.6C55,49.3,54.1,50.3,52.9,50.3z
		"/>
</g>
<g>
	<path class="st0" d="M56.1,59.3h-42c-3.3,0-6-2.7-6-6V16.5c0-1.7,1.3-3,3-3h48c1.7,0,3,1.3,3,3v36.8C62.1,56.6,59.5,59.3,56.1,59.3
		z"/>
	<path class="st0" d="M8.1,26.6h54"/>
	<line class="st0" x1="15.2" y1="10.7" x2="15.2" y2="20"/>
	<line class="st0" x1="55.4" y1="10.7" x2="55.4" y2="20"/>
</g>
</svg>
