<?xml version="1.0" encoding="utf-8"?>
<!-- Generator: Adobe Illustrator 25.2.1, SVG Export Plug-In . SVG Version: 6.00 Build 0)  -->
<svg version="1.1" id="Layer_1" xmlns="http://www.w3.org/2000/svg" xmlns:xlink="http://www.w3.org/1999/xlink" x="0px" y="0px"
	 viewBox="0 0 70 70" style="enable-background:new 0 0 70 70;" xml:space="preserve">
<style type="text/css">
	.st0{fill:none;stroke:#292929;stroke-width:2;stroke-linecap:round;stroke-linejoin:round;stroke-miterlimit:10;}
</style>
<g>
	<g>
		<path class="st0" d="M21.5,50.3H18c-1.6,0-3-1.3-3-3v-8.8c0-1.7,1.3-3,3-3h2.7c1.6,0,3,1.3,3,3v9.6C23.7,49.3,22.7,50.3,21.5,50.3
			z"/>
		<path class="st0" d="M37.2,50.3h-3.5c-1.7,0-3-1.3-3-3v-8.8c0-1.7,1.3-3,3-3h2.7c1.7,0,3,1.3,3,3v9.6
			C39.5,49.3,38.4,50.3,37.2,50.3z"/>
		<path class="st0" d="M52.8,50.3h-3.5c-1.7,0-3-1.3-3-3v-8.8c0-1.7,1.3-3,3-3H52c1.7,0,3,1.3,3,3v9.6C54.9,49.3,54,50.3,52.8,50.3z
			"/>
	</g>
	<g>
		<path class="st0" d="M56,59.3H14c-3.3,0-6-2.7-6-6V16.5c0-1.7,1.3-3,3-3h48c1.7,0,3,1.3,3,3v36.8C62,56.6,59.4,59.3,56,59.3z"/>
		<path class="st0" d="M8,26.6h54"/>
		<line class="st0" x1="15.1" y1="10.7" x2="15.1" y2="20"/>
		<line class="st0" x1="55.3" y1="10.7" x2="55.3" y2="20"/>
	</g>
</g>
</svg>
