<?xml version="1.0" encoding="utf-8"?>
<!-- Generator: Adobe Illustrator 25.3.1, SVG Export Plug-In . SVG Version: 6.00 Build 0)  -->
<svg version="1.1" id="Layer_1" xmlns="http://www.w3.org/2000/svg" xmlns:xlink="http://www.w3.org/1999/xlink" x="0px" y="0px"
	 viewBox="0 0 70 70" style="enable-background:new 0 0 70 70;" xml:space="preserve">
<style type="text/css">
	.st0{fill:none;stroke:#292929;stroke-width:2;stroke-linecap:round;stroke-linejoin:round;stroke-miterlimit:10;}
</style>
<path class="st0" d="M27.2,12.9L11.5,28.6C9.3,30.9,8,33.9,8,37.1v20.5c0,1.7,1.3,3,3,3h48c1.7,0,3-1.3,3-3V12.4c0-1.7-1.3-3-3-3
	H35.7C32.5,9.4,29.5,10.7,27.2,12.9z M53.3,32.2H16l13.5-13.5c2.3-2.3,5.3-3.5,8.5-3.5h15.2c1.7,0,3,1.3,3,3v11.1
	C56.3,30.8,55,32.2,53.3,32.2z"/>
<rect x="42.7" y="38.2" class="st0" width="13.6" height="4.3"/>
</svg>
