<?xml version="1.0" encoding="utf-8"?>
<!-- Generator: Adobe Illustrator 25.3.1, SVG Export Plug-In . SVG Version: 6.00 Build 0)  -->
<svg version="1.1" id="Layer_1" xmlns="http://www.w3.org/2000/svg" xmlns:xlink="http://www.w3.org/1999/xlink" x="0px" y="0px"
	 viewBox="0 0 70 70" style="enable-background:new 0 0 70 70;" xml:space="preserve">
<style type="text/css">
	.st0{fill:none;stroke:#292929;stroke-width:2;stroke-linecap:round;stroke-linejoin:round;stroke-miterlimit:10;}
	.st1{fill:none;stroke:#292929;stroke-width:2;stroke-linecap:round;stroke-linejoin:round;}
</style>
<g>
	<path class="st0" d="M37.2,57.7c11.5-1,20.7-10.9,20.7-22.7c0-8.6-4.8-16.1-11.8-20"/>
	<path class="st0" d="M32.8,12.3c-11.5,1-20.7,10.9-20.7,22.7c0,8.6,4.8,16.1,11.8,20"/>
	<g>
		<line class="st1" x1="33.8" y1="11.9" x2="28.1" y2="8"/>
		<line class="st1" x1="33.8" y1="11.9" x2="29.9" y2="17.5"/>
	</g>
	<g>
		<line class="st1" x1="36.6" y1="57.7" x2="42.1" y2="62"/>
		<line class="st1" x1="36.6" y1="57.7" x2="40.9" y2="52.2"/>
	</g>
</g>
<path class="st0" d="M37.9,38.9h-5.8c-1.7,0-3-1.3-3-3V24.7c0-1.7,1.3-3,3-3h5.8c1.7,0,3,1.3,3,3v11.2
	C40.9,37.5,39.6,38.9,37.9,38.9z"/>
<path class="st0" d="M35,49.4L35,49.4c-1.2,0-2.2-1-2.2-2.2v-8.3h4.4v8.3C37.2,48.4,36.2,49.4,35,49.4z"/>
<line class="st0" x1="32.4" y1="30.3" x2="37.6" y2="30.3"/>
</svg>
