<?xml version="1.0" encoding="utf-8"?>
<!-- Generator: Adobe Illustrator 25.3.1, SVG Export Plug-In . SVG Version: 6.00 Build 0)  -->
<svg version="1.1" id="Layer_1" xmlns="http://www.w3.org/2000/svg" xmlns:xlink="http://www.w3.org/1999/xlink" x="0px" y="0px"
	 viewBox="0 0 70 70" style="enable-background:new 0 0 70 70;" xml:space="preserve">
<style type="text/css">
	.st0{fill:none;stroke:#292929;stroke-width:2;stroke-linecap:round;stroke-linejoin:round;stroke-miterlimit:10;}
</style>
<path class="st0" d="M44.5,54.9H25.5c-1.7,0-3-1.3-3-3V18.1c0-1.7,1.3-3,3-3h19.1c1.7,0,3,1.3,3,3v33.8
	C47.5,53.6,46.2,54.9,44.5,54.9z"/>
<path class="st0" d="M51.8,54.7c0-2,1.2-3.8,3-4.5v-0.8c-1.8-0.7-3-2.5-3-4.5c0-2,1.2-3.8,3-4.5v-0.8c-1.8-0.7-3-2.5-3-4.5
	s1.2-3.8,3-4.5v-0.8c-1.8-0.7-3-2.5-3-4.5c0-2,1.2-3.8,3-4.5v-0.8c-1.8-0.7-3-2.5-3-4.5c0-1.4,0.6-2.7,1.5-3.5
	c1.4-1.3,0.4-3.7-1.5-3.8c0,0,0,0,0,0h-1.1c-0.7,0-1.4,0.4-1.8,1c-0.9,1.2-2.3,2-4,2c-2,0-3.8-1.2-4.5-3h-0.8c-0.7,1.8-2.5,3-4.5,3
	c-2,0-3.8-1.2-4.5-3h-0.8c-0.7,1.8-2.5,3-4.5,3c-1.6,0-3.1-0.8-4-2c-0.4-0.6-1.1-1-1.8-1h-1.1c0,0,0,0,0,0c-1.9,0-2.8,2.5-1.5,3.8
	c0.9,0.9,1.5,2.2,1.5,3.5c0,2-1.2,3.8-3,4.5v0.8c1.8,0.7,3,2.5,3,4.5c0,2-1.2,3.8-3,4.5v0.8c1.8,0.7,3,2.5,3,4.5s-1.2,3.8-3,4.5v0.8
	c1.8,0.7,3,2.5,3,4.5c0,2-1.2,3.8-3,4.5v0.8c1.8,0.7,3,2.5,3,4.5c0,1.4-0.6,2.7-1.5,3.5c-1.4,1.3-0.4,3.7,1.5,3.8c0,0,0,0,0,0h1.1
	c0.7,0,1.4-0.4,1.8-1c0.9-1.2,2.3-2,4-2c2,0,3.8,1.2,4.5,3h0.8c0.7-1.8,2.5-3,4.5-3c2,0,3.8,1.2,4.5,3h0.8c0.7-1.8,2.5-3,4.5-3
	c1.6,0,3.1,0.8,4,2c0.4,0.6,1.1,1,1.8,1h1.1c0,0,0,0,0,0c1.9,0,2.8-2.5,1.5-3.8C52.3,57.3,51.8,56.1,51.8,54.7z"/>
</svg>
