<?xml version="1.0" encoding="utf-8"?>
<!-- Generator: Adobe Illustrator 25.2.1, SVG Export Plug-In . SVG Version: 6.00 Build 0)  -->
<svg version="1.1" id="Layer_1" xmlns="http://www.w3.org/2000/svg" xmlns:xlink="http://www.w3.org/1999/xlink" x="0px" y="0px"
	 viewBox="0 0 70 70" style="enable-background:new 0 0 70 70;" xml:space="preserve">
<style type="text/css">
	.st0{fill:none;stroke:#292929;stroke-width:2;stroke-miterlimit:10;}
	.st1{fill:#292929;stroke:#292929;stroke-width:2;stroke-miterlimit:10;}
</style>
<path class="st0" d="M56,57.6H14c-3.3,0-6-2.7-6-6V18.4c0-3.3,2.7-6,6-6h42c3.3,0,6,2.7,6,6v33.2C62,54.9,59.3,57.6,56,57.6z"/>
<path class="st1" d="M39,12.4h-8.1v23.4c0,1.7,1.3,3,3,3H36c1.7,0,3-1.3,3-3V12.4z"/>
<path class="st1" d="M25.3,12.4h-8.1v23.4c0,1.7,1.3,3,3,3h2.1c1.7,0,3-1.3,3-3V12.4z"/>
<line class="st0" x1="21.2" y1="38.8" x2="21.2" y2="57.6"/>
<line class="st0" x1="35" y1="38.8" x2="35" y2="57.6"/>
<path class="st1" d="M52.9,12.4h-8.1v23.4c0,1.7,1.3,3,3,3h2.1c1.7,0,3-1.3,3-3V12.4z"/>
<line class="st0" x1="48.8" y1="38.8" x2="48.8" y2="57.6"/>
</svg>
