<?xml version="1.0" encoding="utf-8"?>
<!-- Generator: Adobe Illustrator 25.2.1, SVG Export Plug-In . SVG Version: 6.00 Build 0)  -->
<svg version="1.1" id="Layer_1" xmlns="http://www.w3.org/2000/svg" xmlns:xlink="http://www.w3.org/1999/xlink" x="0px" y="0px"
	 viewBox="0 0 70 70" style="enable-background:new 0 0 70 70;" xml:space="preserve">
<style type="text/css">
	.st0{fill:none;stroke:#292929;stroke-width:2;stroke-miterlimit:10;}
</style>
<g>
	<path class="st0" d="M56,17.8H14c-3.3,0-6,2.7-6,6v20.8c0,1.6,1.3,3,3,3h16.3c0-4.2,3.4-7.7,7.7-7.7c4.2,0,7.7,3.4,7.7,7.7H59
		c1.6,0,3-1.3,3-3V23.7C62,20.4,59.3,17.8,56,17.8z"/>
	<circle class="st0" cx="35" cy="47.5" r="4.7"/>
	<path class="st0" d="M57.3,47.5H47.2V30.4c0-1.7,1.3-3,3-3h4.1c1.7,0,3,1.3,3,3V47.5z"/>
	<path class="st0" d="M28.1,32.9H17c-1.7,0-3-1.3-3-3v-3.2c0-1.7,1.3-3,3-3h11.1c1.7,0,3,1.3,3,3v3.2C31.1,31.6,29.7,32.9,28.1,32.9
		z"/>
</g>
</svg>
