<?xml version="1.0" encoding="utf-8"?>
<!-- Generator: Adobe Illustrator 25.4.1, SVG Export Plug-In . SVG Version: 6.00 Build 0)  -->
<svg version="1.1" id="Layer_1" xmlns="http://www.w3.org/2000/svg" xmlns:xlink="http://www.w3.org/1999/xlink" x="0px" y="0px"
	 viewBox="0 0 70 70" style="enable-background:new 0 0 70 70;" xml:space="preserve">
<style type="text/css">
	.st0{fill:none;stroke:#292929;stroke-width:2;stroke-linecap:round;stroke-linejoin:round;stroke-miterlimit:10;}
	.st1{fill:none;stroke:#292929;stroke-width:2;stroke-linecap:round;stroke-linejoin:round;}
</style>
<path class="st0" d="M42.2,34.6L42.2,34.6"/>
<line class="st0" x1="11.9" y1="34.5" x2="8" y2="34.5"/>
<line class="st0" x1="15.3" y1="41.5" x2="19.2" y2="41.5"/>
<line class="st0" x1="47.9" y1="41.4" x2="44" y2="41.4"/>
<path class="st0" d="M50.6,15.6C56.9,15.6,62,20.7,62,27s-5.1,11.4-11.4,11.4S39.2,33.3,39.2,27S44.3,15.6,50.6,15.6z M40.3,22.4
	H20.5c-2.2,0-4.2,1.4-4.9,3.5l-3,8.6"/>
<path class="st0" d="M42.2,34.6H12.6c-1.4,0-2.6,1.2-2.6,2.6v8.4c0,1.4,1.2,2.6,2.6,2.6h31.1"/>
<line class="st0" x1="43.6" y1="48.2" x2="49.8" y2="48.2"/>
<path class="st0" d="M53.2,38.1v7.5c0,1.4-1.2,2.6-2.6,2.6h-0.9"/>
<path class="st0" d="M12.9,52.6c0,1,0.8,1.7,1.7,1.7h2.6c1,0,1.7-0.8,1.7-1.7v-4.3h-6.1v4.3H12.9z"/>
<path class="st0" d="M18.5,34.5c0-2.3,1.9-4.1,4.1-4.1s4.1,1.9,4.1,4.1"/>
<path class="st0" d="M43.6,48.2v4.2c0,1,0.8,1.7,1.7,1.7H48c1,0,1.7-0.8,1.7-1.7v-4.2"/>
<polyline class="st0" points="43.6,48.2 43.6,48.2 49.8,48.2 49.8,48.2 "/>
<path class="st1" d="M56.9,22.5l-8,9L44.3,27"/>
</svg>
