<?xml version="1.0" encoding="utf-8"?>
<!-- Generator: Adobe Illustrator 25.2.1, SVG Export Plug-In . SVG Version: 6.00 Build 0)  -->
<svg version="1.1" id="Layer_1" xmlns="http://www.w3.org/2000/svg" xmlns:xlink="http://www.w3.org/1999/xlink" x="0px" y="0px"
	 viewBox="0 0 70 70" style="enable-background:new 0 0 70 70;" xml:space="preserve">
<style type="text/css">
	.st0{fill:none;stroke:#292929;stroke-width:2;stroke-linecap:round;stroke-linejoin:round;stroke-miterlimit:10;}
	.st1{fill:none;stroke:#292929;stroke-width:2;stroke-miterlimit:10;}
</style>
<g>
	<rect x="8" y="51.9" class="st0" width="54" height="3.5"/>
	<rect x="8" y="55.4" class="st0" width="5.1" height="6.6"/>
	<rect x="56.9" y="55.4" class="st0" width="5.1" height="6.6"/>
	<rect x="32.5" y="55.4" class="st0" width="5.1" height="6.6"/>
</g>
<path class="st0" d="M30.5,29.9H14.3c-1.7,0-3,1.3-3,3v15.9c0,1.7,1.3,3,3,3h16.2c1.7,0,3-1.3,3-3V32.9
	C33.5,31.3,32.2,29.9,30.5,29.9z"/>
<path class="st0" d="M52.7,29.9H36.5c-1.7,0-3,1.3-3,3v15.9c0,1.7,1.3,3,3,3h16.2c1.7,0,3-1.3,3-3V32.9
	C55.7,31.3,54.4,29.9,52.7,29.9z"/>
<path class="st0" d="M41.6,8H25.4c-1.7,0-3,1.3-3,3v15.9c0,1.7,1.3,3,3,3h16.2c1.7,0,3-1.3,3-3V11C44.6,9.3,43.3,8,41.6,8z"/>
<path class="st1" d="M36.3,15.3l-2.6-1c-0.1-0.1-0.2-0.1-0.3,0l-2.6,1c-0.3,0.2-0.6-0.2-0.6-0.6V8h6.7v6.7
	C36.9,15.1,36.6,15.4,36.3,15.3z"/>
<path class="st1" d="M47.4,37.2l-2.6-1c-0.1-0.1-0.2-0.1-0.3,0l-2.6,1c-0.3,0.2-0.6-0.2-0.6-0.6v-6.7H48v6.7
	C48,37,47.7,37.3,47.4,37.2z"/>
<path class="st1" d="M25.2,37.2l-2.6-1c-0.1-0.1-0.2-0.1-0.3,0l-2.6,1c-0.3,0.2-0.6-0.2-0.6-0.6v-6.7h6.7v6.7
	C25.8,37,25.5,37.3,25.2,37.2z"/>
</svg>
