<?xml version="1.0" encoding="utf-8"?>
<!-- Generator: Adobe Illustrator 25.3.1, SVG Export Plug-In . SVG Version: 6.00 Build 0)  -->
<svg version="1.1" id="Layer_1" xmlns="http://www.w3.org/2000/svg" xmlns:xlink="http://www.w3.org/1999/xlink" x="0px" y="0px"
	 viewBox="0 0 70 70" style="enable-background:new 0 0 70 70;" xml:space="preserve">
<style type="text/css">
	.st0{fill:none;stroke:#292929;stroke-width:2;stroke-linecap:round;stroke-linejoin:round;stroke-miterlimit:10;}
</style>
<path class="st0" d="M51.3,47H18.7c-1.7,0-3-1.3-3-3v-0.8c0-1.7,1.3-3,3-3h32.5c1.7,0,3,1.3,3,3V44C54.3,45.7,52.9,47,51.3,47z"/>
<g>
	<line class="st0" x1="16.8" y1="40.2" x2="14.9" y2="25.2"/>
	<line class="st0" x1="12.7" y1="24.9" x2="17.3" y2="24.9"/>
</g>
<g>
	<line class="st0" x1="53.2" y1="40.4" x2="55.1" y2="25.4"/>
	<line class="st0" x1="57.3" y1="25.1" x2="52.7" y2="25.1"/>
</g>
<path class="st0" d="M26.1,8v5.7c0,1.7,1.4,3.1,3.1,3.1h11.5c1.7,0,3.1-1.4,3.1-3.1V8"/>
<g>
	<line class="st0" x1="35" y1="47" x2="35" y2="56.5"/>
	<g>
		<line class="st0" x1="35" y1="56.5" x2="23.6" y2="59.2"/>
		<path class="st0" d="M22.2,62H22c-0.8,0-1.4-0.6-1.4-1.4v-2.7c0-0.8,0.6-1.4,1.4-1.4h0.2c0.8,0,1.4,0.6,1.4,1.4v2.7
			C23.6,61.4,22.9,62,22.2,62z"/>
	</g>
	<g>
		<line class="st0" x1="35" y1="56.5" x2="46.4" y2="59.2"/>
		<path class="st0" d="M47.8,62H48c0.8,0,1.4-0.6,1.4-1.4v-2.7c0-0.8-0.6-1.4-1.4-1.4h-0.2c-0.8,0-1.4,0.6-1.4,1.4v2.7
			C46.4,61.4,47.1,62,47.8,62z"/>
	</g>
</g>
<path class="st0" d="M21,40.2V11c0-1.7,1.3-3,3-3h22c1.7,0,3,1.3,3,3v29.2H21z"/>
<path class="st0" d="M42.5,33v-0.9c0-1.4-1.1-2.5-2.5-2.5H30c-1.4,0-2.5,1.1-2.5,2.5V33"/>
</svg>
