<?xml version="1.0" encoding="utf-8"?>
<!-- Generator: Adobe Illustrator 25.4.1, SVG Export Plug-In . SVG Version: 6.00 Build 0)  -->
<svg version="1.1" id="Layer_1" xmlns="http://www.w3.org/2000/svg" xmlns:xlink="http://www.w3.org/1999/xlink" x="0px" y="0px"
	 viewBox="0 0 70 70" style="enable-background:new 0 0 70 70;" xml:space="preserve">
<style type="text/css">
	.st0{fill:none;stroke:#292929;stroke-width:2;stroke-miterlimit:10;}
</style>
<path class="st0" d="M53.5,31.4C50,30.1,41.8,30,41.3,22.8c-0.5-8.3-6.8-15-15.1-14.8c-8.1,0.1-14.6,6.9-14.6,15.1v32
	c0,1.1,0.9,1.9,1.9,1.9h42.9c1.1,0,1.9-0.9,1.9-1.9V40.8C58.4,37.1,57,32.8,53.5,31.4z"/>
<path class="st0" d="M53.7,62H16.3c-1.7,0-3-1.3-3-3v-1.9h43.5V59C56.7,60.7,55.4,62,53.7,62z"/>
</svg>
