<?xml version="1.0" encoding="utf-8"?>
<!-- Generator: Adobe Illustrator 25.4.1, SVG Export Plug-In . SVG Version: 6.00 Build 0)  -->
<svg version="1.1" id="Layer_1" xmlns="http://www.w3.org/2000/svg" xmlns:xlink="http://www.w3.org/1999/xlink" x="0px" y="0px"
	 viewBox="0 0 70 70" style="enable-background:new 0 0 70 70;" xml:space="preserve">
<style type="text/css">
	.st0{fill:none;stroke:#292929;stroke-width:2;stroke-linecap:round;stroke-linejoin:round;stroke-miterlimit:10;}
	.st1{fill:none;stroke:#292929;stroke-width:2;stroke-miterlimit:10;}
</style>
<g>
	<path class="st0" d="M58.8,26.1H11.2v31.7c0,1.7,1.3,3,3,3h41.7c1.7,0,3-1.3,3-3V26.1z"/>
	<polygon class="st0" points="8,26.1 12,17.6 58,17.6 62,26.1 	"/>
	<polyline class="st0" points="49.5,17.6 49.5,9.2 56.1,9.2 56.1,17.6 	"/>
	<path class="st0" d="M21,60.8V46.3c0-1.6,1.3-3,3-2.9l4.3,0.1c1.6,0,2.9,1.3,2.9,2.9v14.4"/>
</g>
<path class="st1" d="M48.3,46.6h-6.6c-1.7,0-3-1.3-3-3v-6.6c0-1.7,1.3-3,3-3h6.6c1.7,0,3,1.3,3,3v6.6C51.3,45.3,50,46.6,48.3,46.6z"
	/>
</svg>
