<?xml version="1.0" encoding="utf-8"?>
<!-- Generator: Adobe Illustrator 25.4.1, SVG Export Plug-In . SVG Version: 6.00 Build 0)  -->
<svg version="1.1" id="Layer_1" xmlns="http://www.w3.org/2000/svg" xmlns:xlink="http://www.w3.org/1999/xlink" x="0px" y="0px"
	 viewBox="0 0 70 70" style="enable-background:new 0 0 70 70;" xml:space="preserve">
<style type="text/css">
	.st0{fill:none;stroke:#292929;stroke-width:2;stroke-linecap:round;stroke-linejoin:round;stroke-miterlimit:10;}
</style>
<path class="st0" d="M16.1,61.9V43.2c0-1.7,1.3-3,3-3h6.8c1.7,0,3,1.3,3,3v18.7"/>
<path class="st0" d="M59,61.9H39.9c-1.7,0-3-1.3-3-3V32.6c0-2,2-3.5,3.9-2.9l19.1,6.1c1.2,0.4,2.1,1.6,2.1,2.9v20.1
	C62,60.5,60.7,61.9,59,61.9z"/>
<path class="st0" d="M40,61.9l-29,0c-1.7,0-3-1.3-3-3V27.7c0-0.9,0.4-1.8,1.2-2.4L31.5,8.7c1.1-0.8,2.6-0.8,3.7,0.1l20.7,16.5
	c0.7,0.6,1.1,1.4,1.1,2.3v7.2"/>
<path class="st0" d="M59,61.9H39.9c-1.7,0-3-1.3-3-3V32.6c0-2,2-3.5,3.9-2.9l19.1,6.1c1.2,0.4,2.1,1.6,2.1,2.9v20.1
	C62,60.5,60.7,61.9,59,61.9z"/>
<circle class="st0" cx="49.5" cy="48.5" r="4.7"/>
</svg>
