<svg width="70" height="70" viewBox="0 0 70 70" fill="none" xmlns="http://www.w3.org/2000/svg">
<path d="M12.3 27.7V25C12.3 23.4 13.7 22 15.3 22H54.5C56.2 22 57.5 23.4 57.5 25V27.7" stroke="#292929" stroke-width="2" stroke-miterlimit="10" stroke-linecap="round" stroke-linejoin="round"/>
<path d="M12.3 46.3999V48.7999" stroke="#292929" stroke-width="2" stroke-miterlimit="10" stroke-linecap="round" stroke-linejoin="round"/>
<path d="M57.6 46.3999V48.7999" stroke="#292929" stroke-width="2" stroke-miterlimit="10" stroke-linecap="round" stroke-linejoin="round"/>
<path d="M15.7 37.2999V30.7C15.7 29 14.4 27.7 12.7 27.7H11C9.3 27.7 8 29 8 30.7V43C8 44.7 9.3 46 11 46H12.3H15.7H35V41.2999C35 39.5999 33.7 38.2999 32 38.2999H16.7C16.2 38.2999 15.7 37.8999 15.7 37.2999Z" stroke="#292929" stroke-width="2" stroke-miterlimit="10"/>
<path d="M54.3 37.2999V30.7C54.3 29 55.6 27.7 57.3 27.7H59C60.7 27.7 62 29 62 30.7V43C62 44.7 60.7 46 59 46H57.7H54.3H34.9V41.2999C34.9 39.5999 36.2 38.2999 37.9 38.2999H53.3C53.8 38.2999 54.3 37.8999 54.3 37.2999Z" stroke="#292929" stroke-width="2" stroke-miterlimit="10"/>
</svg>
