<?xml version="1.0" encoding="utf-8"?>
<!-- Generator: Adobe Illustrator 25.2.1, SVG Export Plug-In . SVG Version: 6.00 Build 0)  -->
<svg version="1.1" id="Layer_1" xmlns="http://www.w3.org/2000/svg" xmlns:xlink="http://www.w3.org/1999/xlink" x="0px" y="0px"
	 viewBox="0 0 70 70" style="enable-background:new 0 0 70 70;" xml:space="preserve">
<style type="text/css">
	.st0{fill:none;stroke:#292929;stroke-width:2;stroke-miterlimit:10;}
</style>
<g>
	<path class="st0" d="M38.1,10.9l5.2,12.1"/>
	<path class="st0" d="M31.2,10.9L26,22.9"/>
	<path class="st0" d="M41.7,37.3l-6.7-2c-0.2-0.1-0.5-0.1-0.7,0l-6.7,2C26.9,37.6,26,37,26,36.2V22.9h17.3v13.3
		C43.3,37,42.6,37.6,41.7,37.3z"/>
	<path class="st0" d="M60.2,21.1l-8.8-8.5c-1.1-1.1-2.6-1.7-4.2-1.7H22.7c-1.6,0-3.1,0.6-4.2,1.7l-8.7,8.5C8.7,22.2,8,23.8,8,25.4
		v27.8c0,3.3,2.7,6,6,6h42c3.3,0,6-2.7,6-6V25.4C62,23.8,61.3,22.2,60.2,21.1z"/>
	<line class="st0" x1="8" y1="22.8" x2="62" y2="22.8"/>
</g>
</svg>
