<?xml version="1.0" encoding="utf-8"?>
<!-- Generator: Adobe Illustrator 25.4.1, SVG Export Plug-In . SVG Version: 6.00 Build 0)  -->
<svg version="1.1" id="Layer_1" xmlns="http://www.w3.org/2000/svg" xmlns:xlink="http://www.w3.org/1999/xlink" x="0px" y="0px"
	 viewBox="0 0 70 70" style="enable-background:new 0 0 70 70;" xml:space="preserve">
<style type="text/css">
	.st0{fill:none;stroke:#292929;stroke-width:2;stroke-linecap:round;stroke-linejoin:round;stroke-miterlimit:10;}
</style>
<g>
	<g>
		<path class="st0" d="M12.4,30.6H8H12.4z"/>
		<path class="st0" d="M62,30.6h-4.4H62z"/>
	</g>
	<g>
		<path class="st0" d="M20.8,38.5h-4.4H20.8z"/>
		<path class="st0" d="M53.7,38.5h-4.4H53.7z"/>
	</g>
	<path class="st0" d="M56.8,30.6H13.2l3.5-9.9c0.8-2.4,3.1-4,5.7-4h25.4c2.5,0,4.8,1.6,5.7,4L56.8,30.6z"/>
	<path class="st0" d="M56.8,46.3H13.2c-1.7,0-3-1.3-3-3v-9.6c0-1.7,1.3-3,3-3h43.6c1.7,0,3,1.3,3,3v9.6
		C59.8,44.9,58.4,46.3,56.8,46.3z"/>
	<path class="st0" d="M18.7,53.2h-3c-1.1,0-2-0.9-2-2v-4.9h7v4.9C20.7,52.4,19.8,53.2,18.7,53.2z"/>
	<path class="st0" d="M20,30.5c0-2.6,2.1-4.7,4.7-4.7s4.7,2.1,4.7,4.7"/>
	<path class="st0" d="M53.8,53.1h-3c-1.1,0-2-0.9-2-2v-4.9h7v4.9C55.8,52.2,54.9,53.1,53.8,53.1z"/>
</g>
</svg>
