<?xml version="1.0" encoding="utf-8"?>
<!-- Generator: Adobe Illustrator 25.3.1, SVG Export Plug-In . SVG Version: 6.00 Build 0)  -->
<svg version="1.1" id="Layer_1" xmlns="http://www.w3.org/2000/svg" xmlns:xlink="http://www.w3.org/1999/xlink" x="0px" y="0px"
	 viewBox="0 0 70 70" style="enable-background:new 0 0 70 70;" xml:space="preserve">
<style type="text/css">
	.st0{fill:none;stroke:#292929;stroke-width:2;stroke-linecap:round;stroke-linejoin:round;stroke-miterlimit:10;}
</style>
<g>
	<path class="st0" d="M50.3,22c-4.2-4.3-6-6.3-2.5-12.3C48.2,8.9,47.6,8,46.7,8H23.3c-0.9,0-1.4,0.9-1.1,1.7c3.5,6,1.7,8-2.5,12.3
		c-2.9,2.9-3.3,8.7-2.2,15.3c1.3,7.2,4.5,15.6,8.4,22.5c0,0.1,1.1,2.1,9.1,2.1c7.9,0,9.1-2,9.1-2.1c4-6.9,7.1-15.3,8.4-22.5
		C53.6,30.7,53.1,24.9,50.3,22z"/>
	<path class="st0" d="M24.1,14.9h21.4"/>
</g>
</svg>
