<?xml version="1.0" encoding="utf-8"?>
<!-- Generator: Adobe Illustrator 25.4.1, SVG Export Plug-In . SVG Version: 6.00 Build 0)  -->
<svg version="1.1" id="Layer_1" xmlns="http://www.w3.org/2000/svg" xmlns:xlink="http://www.w3.org/1999/xlink" x="0px" y="0px"
	 viewBox="0 0 70 70" style="enable-background:new 0 0 70 70;" xml:space="preserve">
<style type="text/css">
	.st0{fill:none;stroke:#292929;stroke-width:2;stroke-linecap:round;stroke-linejoin:round;stroke-miterlimit:10;}
</style>
<g>
	<path class="st0" d="M34.9,58.8H11c-1.7,0-3-1.3-3-3V14.2c0-1.9,1.8-3.4,3.7-2.9l20.9,5c1.3,0.3,2.3,1.5,2.3,2.9V58.8z"/>
	<path class="st0" d="M35.1,34.9H59c1.7,0,3,1.3,3,3v17.9c0,1.7-1.3,3-3,3H35.1"/>
	<path class="st0" d="M39.8,58.8V44.3c0-1.7,1.3-3,3-3h11.5c1.7,0,3,1.3,3,3v14.5"/>
	<path class="st0" d="M16.8,58.5V45.8c0-1.7,1.3-3,3-3h3.3c1.7,0,3,1.3,3,3v12.7"/>
	<path class="st0" d="M23.3,22.4h-3.5c-1.7,0-3,1.3-3,3v3.5c0,1.7,1.3,3,3,3h3.5c1.7,0,3-1.3,3-3v-3.5C26.3,23.8,25,22.4,23.3,22.4z
		"/>
	<path class="st0" d="M23.2,22.4h-3.5c-1.7,0-3,1.3-3,3v3.5c0,1.7,1.3,3,3,3h3.5c1.7,0,3-1.3,3-3v-3.5
		C26.2,23.8,24.8,22.4,23.2,22.4z"/>
	<line class="st0" x1="39.8" y1="45.3" x2="57.3" y2="45.3"/>
	<line class="st0" x1="39.8" y1="49.2" x2="57.3" y2="49.2"/>
	<line class="st0" x1="39.8" y1="53.2" x2="57.3" y2="53.2"/>
</g>
</svg>
