<?xml version="1.0" encoding="utf-8"?>
<!-- Generator: Adobe Illustrator 25.4.1, SVG Export Plug-In . SVG Version: 6.00 Build 0)  -->
<svg version="1.1" id="Layer_1" xmlns="http://www.w3.org/2000/svg" xmlns:xlink="http://www.w3.org/1999/xlink" x="0px" y="0px"
	 viewBox="0 0 70 70" style="enable-background:new 0 0 70 70;" xml:space="preserve">
<style type="text/css">
	.st0{fill:none;stroke:#000000;stroke-width:2;stroke-linecap:round;stroke-linejoin:round;stroke-miterlimit:10;}
</style>
<g>
	<path class="st0" d="M39.1,58.5H11c-1.7,0-3-1.3-3-3v-41c0-1.7,1.3-3,3-3h25.1c1.7,0,3,1.3,3,3V58.5z"/>
	<line class="st0" x1="17.9" y1="20.4" x2="17.9" y2="29.6"/>
	<line class="st0" x1="29.2" y1="20.4" x2="29.2" y2="29.6"/>
	<line class="st0" x1="17.9" y1="39.5" x2="17.9" y2="48.6"/>
	<line class="st0" x1="29.2" y1="39.5" x2="29.2" y2="48.6"/>
	<line class="st0" x1="54.7" y1="30.4" x2="54.7" y2="37.1"/>
	<line class="st0" x1="46.4" y1="30.4" x2="46.4" y2="37.1"/>
	<line class="st0" x1="54.7" y1="44.5" x2="54.7" y2="51.2"/>
	<line class="st0" x1="46.4" y1="44.5" x2="46.4" y2="51.2"/>
	<path class="st0" d="M39.1,23.9H59c1.7,0,3,1.3,3,3v28.6c0,1.7-1.3,3-3,3H39.1"/>
</g>
</svg>
