<?xml version="1.0" encoding="utf-8"?>
<!-- Generator: Adobe Illustrator 25.4.1, SVG Export Plug-In . SVG Version: 6.00 Build 0)  -->
<svg version="1.1" id="Layer_1" xmlns="http://www.w3.org/2000/svg" xmlns:xlink="http://www.w3.org/1999/xlink" x="0px" y="0px"
	 viewBox="0 0 70 70" style="enable-background:new 0 0 70 70;" xml:space="preserve">
<style type="text/css">
	.st0{fill:none;stroke:#292929;stroke-width:2;stroke-linecap:round;stroke-linejoin:round;stroke-miterlimit:10;}
</style>
<path class="st0" d="M50.7,52.1H8V21c0-1.7,1.3-3,3-3h36.7c1.7,0,3,1.3,3,3V52.1z"/>
<path class="st0" d="M62,52.1H50.7V25.7H59c1.7,0,3,1.3,3,3V52.1z"/>
<path class="st0" d="M45.2,52.1H13.5V28.7c0-1.7,1.3-3,3-3h25.8c1.7,0,3,1.3,3,3L45.2,52.1L45.2,52.1z"/>
<path class="st0" d="M13.5,32.4h31.8"/>
<path class="st0" d="M13.5,39.1h31.8"/>
<line class="st0" x1="26.1" y1="35.8" x2="32.7" y2="35.8"/>
</svg>
