<?xml version="1.0" encoding="utf-8"?>
<!-- Generator: Adobe Illustrator 25.4.1, SVG Export Plug-In . SVG Version: 6.00 Build 0)  -->
<svg version="1.1" id="Layer_1" xmlns="http://www.w3.org/2000/svg" xmlns:xlink="http://www.w3.org/1999/xlink" x="0px" y="0px"
	 viewBox="0 0 70 70" style="enable-background:new 0 0 70 70;" xml:space="preserve">
<style type="text/css">
	.st0{fill:none;stroke:#292929;stroke-width:2;stroke-linecap:round;stroke-linejoin:round;stroke-miterlimit:10;}
</style>
<g>
	<path class="st0" d="M41.3,62H28.6V43.5c0-1.7,1.3-3,3-3h6.7c1.7,0,3,1.3,3,3V62L41.3,62z"/>
	<path class="st0" d="M13.8,62h42.4c1.7,0,3-1.3,3-3V26.7c0-0.9-0.4-1.8-1.2-2.4L37.6,8.6c-1-0.8-2.5-0.8-3.6-0.1L12,24.3
		c-0.8,0.6-1.3,1.5-1.3,2.4V59C10.8,60.7,12.1,62,13.8,62z"/>
</g>
</svg>
