<?xml version="1.0" encoding="utf-8"?>
<!-- Generator: Adobe Illustrator 25.4.1, SVG Export Plug-In . SVG Version: 6.00 Build 0)  -->
<svg version="1.1" id="Layer_1" xmlns="http://www.w3.org/2000/svg" xmlns:xlink="http://www.w3.org/1999/xlink" x="0px" y="0px"
	 viewBox="0 0 70 70" style="enable-background:new 0 0 70 70;" xml:space="preserve">
<style type="text/css">
	.st0{fill:none;stroke:#292929;stroke-width:2;stroke-linecap:round;stroke-linejoin:round;stroke-miterlimit:9.9998;}
	.st1{fill:none;stroke:#292929;stroke-width:2;stroke-linecap:round;stroke-linejoin:round;stroke-miterlimit:10;}
</style>
<g>
	<ellipse transform="matrix(0.866 -0.5 0.5 0.866 -11.6048 10.1173)" class="st0" cx="13.1" cy="26.7" rx="4.5" ry="6.5"/>
	<ellipse transform="matrix(0.5 -0.866 0.866 0.5 5.3077 62.6646)" class="st0" cx="56.9" cy="26.7" rx="6.5" ry="4.5"/>
	<ellipse transform="matrix(0.1606 -0.987 0.987 0.1606 19.5711 57.0867)" class="st0" cx="43.3" cy="17" rx="6.5" ry="4.5"/>
	<ellipse transform="matrix(0.987 -0.1606 0.1606 0.987 -2.392 4.4559)" class="st0" cx="26.4" cy="17" rx="4.5" ry="6.5"/>
	<path class="st1" d="M35,27.8c-7.8,0-21.4,14.8-18,25.7c2.6,8.3,11.2,6,15.6,4.2c1.6-0.6,3.4-0.6,5,0c4.3,1.8,13,4.1,15.6-4.2
		C56.3,42.6,42.8,27.8,35,27.8z"/>
</g>
</svg>
