<?xml version="1.0" encoding="utf-8"?>
<!-- Generator: Adobe Illustrator 25.3.1, SVG Export Plug-In . SVG Version: 6.00 Build 0)  -->
<svg version="1.1" id="Layer_1" xmlns="http://www.w3.org/2000/svg" xmlns:xlink="http://www.w3.org/1999/xlink" x="0px" y="0px"
	 viewBox="0 0 70 70" style="enable-background:new 0 0 70 70;" xml:space="preserve">
<style type="text/css">
	.st0{fill:none;stroke:#292929;stroke-width:2;stroke-linecap:round;stroke-linejoin:round;stroke-miterlimit:10;}
</style>
<path class="st0" d="M49.6,59.5H20.4c-1.7,0-3-1.3-3-3V11c0-1.7,1.3-3,3-3h29.1c1.7,0,3,1.3,3,3v45.5C52.6,58.1,51.2,59.5,49.6,59.5
	z"/>
<path class="st0" d="M21.9,8l2.1,3.9c0.5,1,1.5,1.6,2.6,1.6h10.7c1.1,0,2.1-0.6,2.6-1.6L42.1,8"/>
<path class="st0" d="M21.9,33.7l2.1,3.9c0.5,1,1.5,1.6,2.6,1.6h10.7c1.1,0,2.1-0.6,2.6-1.6l2.1-3.9"/>
<path class="st0" d="M20.4,59.5V62"/>
<path class="st0" d="M49.6,59.5V62"/>
<line class="st0" x1="17.4" y1="33.7" x2="52.6" y2="33.7"/>
</svg>
