<?xml version="1.0" encoding="utf-8"?>
<!-- Generator: Adobe Illustrator 25.4.1, SVG Export Plug-In . SVG Version: 6.00 Build 0)  -->
<svg version="1.1" id="Layer_1" xmlns="http://www.w3.org/2000/svg" xmlns:xlink="http://www.w3.org/1999/xlink" x="0px" y="0px"
	 viewBox="0 0 70 70" style="enable-background:new 0 0 70 70;" xml:space="preserve">
<style type="text/css">
	.st0{fill:none;}
	.st1{fill:none;stroke:#292929;stroke-width:2;stroke-linecap:round;stroke-linejoin:round;stroke-miterlimit:10;}
</style>
<polyline class="st0" points="-1214.8,-132.2 -922.1,-191.2 -625.1,-131.3 "/>
<polyline class="st0" points="-1214.8,-132.2 -1333.7,-108.2 -1169.4,222.1 -922.1,330.6 -674.9,222.1 -510.5,-108.2 -625.1,-131.3 
	"/>
<polyline class="st0" points="-1214.8,-132.2 -1214.8,-132.2 -869,-61.3 -619.4,-112.2 -625.1,-131.3 "/>
<path class="st1" d="M34.5,24l-24.3,4.9c-1.7,0.4-2.7,2.3-1.9,3.9l8.8,17.7c0.5,1.2,1.5,2.1,2.7,2.5l13,5.7c1.4,0.6,3,0.6,4.4,0
	l13-5.7c1.2-0.5,2.1-1.5,2.7-2.5l8.8-17.7c0.8-1.6-0.2-3.5-1.9-3.9L35.5,24C35.2,24,34.8,24,34.5,24z M35,58.9V24 M14.7,27.9
	L19,12.6c0.4-1.1,1.5-1.9,2.7-1.9H48c1.2,0,2.3,0.8,2.6,1.9L55.3,28 M21.2,26.6c0-0.2,0-0.5,0-0.6c0-3,2.5-5.5,5.5-5.5
	c2.5,0,4.6,1.7,5.3,4 M14.3,44.8L35,50 M55.7,44.8L35,50"/>
</svg>
