<?xml version="1.0" encoding="utf-8"?>
<!-- Generator: Adobe Illustrator 25.2.1, SVG Export Plug-In . SVG Version: 6.00 Build 0)  -->
<svg version="1.1" id="Layer_1" xmlns="http://www.w3.org/2000/svg" xmlns:xlink="http://www.w3.org/1999/xlink" x="0px" y="0px"
	 viewBox="0 0 70 70" style="enable-background:new 0 0 70 70;" xml:space="preserve">
<style type="text/css">
	.st0{fill:none;stroke:#292929;stroke-width:2;stroke-linecap:round;stroke-linejoin:round;stroke-miterlimit:10;}
</style>
<g>
	<path class="st0" d="M35.7,27.3c-2.5,0-4.6-2-4.6-4.6h-6c-3.1,0-5.7,2.5-5.7,5.7V51c0,3.1,2.5,5.7,5.7,5.7h5c0-0.1,0-0.1,0-0.2
		v-9.6c0-3.1,2.5-5.5,5.5-5.5s5.5,2.5,5.5,5.5v9.6c0,0.1,0,0.1,0,0.2h3.7c3.1,0,5.7-2.5,5.7-5.7V28.4c0-3.1-2.5-5.7-5.7-5.7h-4.7
		C40.2,25.3,38.2,27.3,35.7,27.3z"/>
	<path class="st0" d="M45.6,8H25.4c-1,0-1.9,0.8-1.9,1.9V19l3,3.7h4.5c0-2.5,2-4.6,4.6-4.6c2.5,0,4.6,2,4.6,4.6h4.7h-0.4l3-3.7V9.9
		C47.5,8.8,46.7,8,45.6,8z"/>
	<path class="st0" d="M52,11.7h-2.7c-1,0-1.9-0.8-1.9-1.9V19H52c2,0,3.7-1.6,3.7-3.7S54.1,11.7,52,11.7z"/>
	<path class="st0" d="M21.7,11.7H18c-2,0-3.7,1.6-3.7,3.7S15.9,19,18,19h5.6V9.9C23.6,10.9,22.8,11.7,21.7,11.7z"/>
	<path class="st0" d="M35.7,62L35.7,62c-3.1,0-5.5-2.5-5.5-5.5v-9.6c0-3.1,2.5-5.5,5.5-5.5h0c3.1,0,5.5,2.5,5.5,5.5v9.6
		C41.2,59.5,38.7,62,35.7,62z"/>
</g>
</svg>
