<?xml version="1.0" encoding="utf-8"?>
<!-- Generator: Adobe Illustrator 25.2.1, SVG Export Plug-In . SVG Version: 6.00 Build 0)  -->
<svg version="1.1" id="Layer_1" xmlns="http://www.w3.org/2000/svg" xmlns:xlink="http://www.w3.org/1999/xlink" x="0px" y="0px"
	 viewBox="0 0 70 70" style="enable-background:new 0 0 70 70;" xml:space="preserve">
<style type="text/css">
	.st0{fill:none;stroke:#292929;stroke-width:2;stroke-linecap:round;stroke-linejoin:round;stroke-miterlimit:10;}
</style>
<g>
	<path class="st0" d="M11,58h48c1.7,0,3-1.3,3-3V34.4c0-1-0.5-1.9-1.2-2.4l-12.2-9c-0.5-0.3-0.7-0.9-0.7-1.4L47.7,15
		c0-1.9-1.9-3.3-3.7-2.9l-33.7,8.5C8.9,20.9,8,22.1,8,23.5V55C8,56.7,9.3,58,11,58z"/>
	<line class="st0" x1="47.9" y1="22.5" x2="47.9" y2="58"/>
	<path class="st0" d="M33.8,58H23.4V43.3c0-1.7,1.3-3,3-3h4.5c1.7,0,3,1.3,3,3V58z"/>
</g>
</svg>
