<?xml version="1.0" encoding="utf-8"?>
<!-- Generator: Adobe Illustrator 25.2.1, SVG Export Plug-In . SVG Version: 6.00 Build 0)  -->
<svg version="1.1" id="Layer_1" xmlns="http://www.w3.org/2000/svg" xmlns:xlink="http://www.w3.org/1999/xlink" x="0px" y="0px"
	 viewBox="0 0 70 70" style="enable-background:new 0 0 70 70;" xml:space="preserve">
<style type="text/css">
	.st0{fill:none;stroke:#000000;stroke-width:2;stroke-linecap:round;stroke-linejoin:round;stroke-miterlimit:10;}
</style>
<g>
	<path class="st0" d="M42.7,14.9c0,0,4.3-3.6,6.1-3.8c3.5-0.3,13.2,5,13.2,5"/>
	<path class="st0" d="M42.7,28.4c0,0,4.3,3.6,6.1,3.8c3.5,0.3,13.2-5,13.2-5"/>
	<path class="st0" d="M47.4,59H12.1v-5.6c0-1.7,1.3-3,3-3h29.3c1.7,0,3,1.3,3,3V59z"/>
	<path class="st0" d="M33.5,18.4c0-0.3,0.1-0.6,0.1-0.9H21.9c0.8,1.2,1.3,2.7,1.3,4.3c0,1.6-0.5,3.1-1.3,4.3h11.8
		c-0.1-0.3-0.1-0.6-0.1-0.9V18.4z"/>
	<circle class="st0" cx="15.6" cy="21.7" r="7.6"/>
	<path class="st0" d="M42.7,28.6h-6.1c-1.7,0-3-1.3-3-3v-7.8c0-1.7,1.3-3,3-3h6.1V28.6z"/>
	<path class="st0" d="M22.6,24.8c-1.2,2.7-3.9,4.5-7,4.5c-2.4,0-4.5-1.1-5.9-2.8l6,23.8H29L22.6,24.8z"/>
</g>
</svg>
