<?xml version="1.0" encoding="utf-8"?>
<!-- Generator: Adobe Illustrator 25.2.1, SVG Export Plug-In . SVG Version: 6.00 Build 0)  -->
<svg version="1.1" id="Layer_1" xmlns="http://www.w3.org/2000/svg" xmlns:xlink="http://www.w3.org/1999/xlink" x="0px" y="0px"
	 viewBox="0 0 70 70" style="enable-background:new 0 0 70 70;" xml:space="preserve">
<style type="text/css">
	.st0{fill:none;stroke:#292929;stroke-width:2;stroke-linecap:round;stroke-linejoin:round;stroke-miterlimit:10;}
</style>
<path class="st0" d="M11.8,38.8V62c2.6-2.4,4.9-2.9,6.5-2.9c1,0,1.7,0.2,1.7,0.3c1,0.2,2.1,0.4,3.3,0.4c8.1,0,16-6.3,16.1-6.4
	c0.2-0.1,0.3-0.2,0.5-0.2c0.1,0,11.3-0.9,16.4-7.5c0-0.1,0.1-0.1,0.2-0.2c1.2-1,1.7-1.9,1.7-2.8c-0.1-1.6-1.8-2.8-1.8-2.8
	c-0.2-0.2-0.4-0.4-0.4-0.7c-1-10.2-8.9-17-11.8-19.5L43,18.7c-1.4-1.2-3-2.6-4.2-4.1C36.2,11.4,32,8,28.8,8c-3.5,0-4.2,4.6-4.2,8.4
	c0,0.7,0,2.4,3.7,2.4c2.8,0,6-1,6-1.1c0.5-0.2,1,0.1,1.2,0.6L42.3,36c0.1,0.3,0.1,0.7-0.1,0.9c-0.2,0.3-0.5,0.4-0.9,0.4
	c-5.2-0.5-10.8,1.8-10.8,1.8c-0.3,0.1-0.6,0.1-0.9-0.1c-2.4-1.6-5.3-2.5-8.4-2.5C16.8,36.6,13.1,38.2,11.8,38.8z"/>
</svg>
