<?xml version="1.0" encoding="utf-8"?>
<!-- Generator: Adobe Illustrator 25.2.1, SVG Export Plug-In . SVG Version: 6.00 Build 0)  -->
<svg version="1.1" id="Layer_1" xmlns="http://www.w3.org/2000/svg" xmlns:xlink="http://www.w3.org/1999/xlink" x="0px" y="0px"
	 viewBox="0 0 70 70" style="enable-background:new 0 0 70 70;" xml:space="preserve">
<style type="text/css">
	.st0{fill:none;stroke:#292929;stroke-width:2;stroke-linecap:round;stroke-linejoin:round;stroke-miterlimit:10;}
</style>
<g>
	<path class="st0" d="M18.6,62L18.6,62c-2.9,0-5.2-2.3-5.2-5.2V27.3c0-2.9,2.3-5.2,5.2-5.2h0c2.9,0,5.2,2.3,5.2,5.2v29.5
		C23.8,59.7,21.4,62,18.6,62z"/>
	<path class="st0" d="M35,62L35,62c-2.9,0-5.2-2.3-5.2-5.2V13.2c0-2.9,2.3-5.2,5.2-5.2h0c2.9,0,5.2,2.3,5.2,5.2v43.6
		C40.2,59.7,37.9,62,35,62z"/>
	<path class="st0" d="M51.4,62L51.4,62c-2.9,0-5.2-2.3-5.2-5.2V27.3c0-2.9,2.3-5.2,5.2-5.2h0c2.9,0,5.2,2.3,5.2,5.2v29.5
		C56.7,59.7,54.3,62,51.4,62z"/>
</g>
</svg>
