<?xml version="1.0" encoding="utf-8"?>
<!-- Generator: Adobe Illustrator 25.2.1, SVG Export Plug-In . SVG Version: 6.00 Build 0)  -->
<svg version="1.1" id="Layer_1" xmlns="http://www.w3.org/2000/svg" xmlns:xlink="http://www.w3.org/1999/xlink" x="0px" y="0px"
	 viewBox="0 0 70 70" style="enable-background:new 0 0 70 70;" xml:space="preserve">
<style type="text/css">
	.st0{fill:none;stroke:#292929;stroke-width:2;stroke-linecap:round;stroke-linejoin:round;stroke-miterlimit:10;}
</style>
<g>
	<path class="st0" d="M62,31.6C20.4,36.4,8,9.5,8,9.5"/>
	<path class="st0" d="M15,60.5h-1c-3.3,0-6-2.7-6-6V35.4c0-3.3,2.7-6,6-6h1c3.3,0,6,2.7,6,6v19.1C21,57.8,18.3,60.5,15,60.5z"/>
	<path class="st0" d="M35.5,60.5h-1c-3.3,0-6-2.7-6-6V42.9c0-3.3,2.7-6,6-6h1c3.3,0,6,2.7,6,6v11.6C41.5,57.8,38.8,60.5,35.5,60.5z"
		/>
	<path class="st0" d="M56,60.5h-1c-3.3,0-6-2.7-6-6v-4.1c0-3.3,2.7-6,6-6h1c3.3,0,6,2.7,6,6v4.1C62,57.8,59.3,60.5,56,60.5z"/>
</g>
</svg>
