<?xml version="1.0" encoding="utf-8"?>
<!-- Generator: Adobe Illustrator 25.2.1, SVG Export Plug-In . SVG Version: 6.00 Build 0)  -->
<svg version="1.1" id="Layer_1" xmlns="http://www.w3.org/2000/svg" xmlns:xlink="http://www.w3.org/1999/xlink" x="0px" y="0px"
	 viewBox="0 0 70 70" style="enable-background:new 0 0 70 70;" xml:space="preserve">
<style type="text/css">
	.st0{fill:none;stroke:#292929;stroke-width:2;stroke-linecap:round;stroke-linejoin:round;stroke-miterlimit:10;}
</style>
<g>
	<path class="st0" d="M12.7,59.4L12.7,59.4c-2.6,0-4.7-2.1-4.7-4.7V15.3c0-2.6,2.1-4.7,4.7-4.7h0c2.6,0,4.7,2.1,4.7,4.7v39.3
		C17.4,57.3,15.3,59.4,12.7,59.4z"/>
	<path class="st0" d="M27.6,27.3L27.6,27.3c-2.6,0-4.7-2.1-4.7-4.7v-7.2c0-2.6,2.1-4.7,4.7-4.7h0c2.6,0,4.7,2.1,4.7,4.7v7.2
		C32.3,25.2,30.2,27.3,27.6,27.3z"/>
	<path class="st0" d="M42.4,59.4L42.4,59.4c-2.6,0-4.7-2.1-4.7-4.7V32c0-2.6,2.1-4.7,4.7-4.7h0c2.6,0,4.7,2.1,4.7,4.7v22.7
		C47.1,57.3,45,59.4,42.4,59.4z"/>
	<path class="st0" d="M57.3,37.8L57.3,37.8c-2.6,0-4.7-2.1-4.7-4.7V32c0-2.6,2.1-4.7,4.7-4.7h0c2.6,0,4.7,2.1,4.7,4.7v1.1
		C62,35.7,59.9,37.8,57.3,37.8z"/>
</g>
</svg>
