<?xml version="1.0" encoding="utf-8"?>
<!-- Generator: Adobe Illustrator 25.2.1, SVG Export Plug-In . SVG Version: 6.00 Build 0)  -->
<svg version="1.1" id="Layer_1" xmlns="http://www.w3.org/2000/svg" xmlns:xlink="http://www.w3.org/1999/xlink" x="0px" y="0px"
	 viewBox="0 0 70 70" style="enable-background:new 0 0 70 70;" xml:space="preserve">
<style type="text/css">
	.st0{fill:none;stroke:#292929;stroke-width:2;stroke-linecap:round;stroke-linejoin:round;stroke-miterlimit:10;}
</style>
<g>
	<path class="st0" d="M8,51.4L8,51.4c0,2.9,2.3,5.2,5.2,5.2h29.5c2.9,0,5.2-2.3,5.2-5.2l0,0c0-2.9-2.3-5.2-5.2-5.2H13.2
		C10.3,46.2,8,48.6,8,51.4z"/>
	<path class="st0" d="M8,35L8,35c0,2.9,2.3,5.2,5.2,5.2h43.6c2.9,0,5.2-2.3,5.2-5.2l0,0c0-2.9-2.3-5.2-5.2-5.2H13.2
		C10.3,29.8,8,32.1,8,35z"/>
	<path class="st0" d="M8,18.6L8,18.6c0,2.9,2.3,5.2,5.2,5.2h29.5c2.9,0,5.2-2.3,5.2-5.2l0,0c0-2.9-2.3-5.2-5.2-5.2H13.2
		C10.3,13.3,8,15.7,8,18.6z"/>
</g>
</svg>
