<?xml version="1.0" encoding="utf-8"?>
<!-- Generator: Adobe Illustrator 25.2.1, SVG Export Plug-In . SVG Version: 6.00 Build 0)  -->
<svg version="1.1" id="Layer_1" xmlns="http://www.w3.org/2000/svg" xmlns:xlink="http://www.w3.org/1999/xlink" x="0px" y="0px"
	 viewBox="0 0 70 70" style="enable-background:new 0 0 70 70;" xml:space="preserve">
<style type="text/css">
	.st0{fill:none;stroke:#292929;stroke-width:2;stroke-linecap:round;stroke-linejoin:round;stroke-miterlimit:10;}
</style>
<path class="st0" d="M56,51.6H14c-3.3,0-6-2.7-6-6v-7.8c0-2.1,1.1-4.1,3-5.2c3-1.7,7.4-4.1,9.6-4.2c2.6-0.2,7.6,3.6,10.1,3
	c3.4-0.8,6.6-9.4,10.1-9.9c2.1-0.3,5.3,4.4,7.4,4.1c2.3-0.2,5.8-3.3,8.6-6.4c1.9-2,5.2-0.6,5.2,2.1v24.2C62,48.9,59.3,51.6,56,51.6z
	"/>
<path class="st0" d="M8,45.6L29.8,40c0.8-0.2,1.7-0.1,2.4,0.4l5.1,3.4c1.5,1,3.6,0.4,4.4-1.2l3.2-6.6c0.7-1.5,2.5-2.1,4-1.4L62,41.1
	"/>
</svg>
