<?xml version="1.0" encoding="utf-8"?>
<!-- Generator: Adobe Illustrator 25.2.1, SVG Export Plug-In . SVG Version: 6.00 Build 0)  -->
<svg version="1.1" id="Layer_1" xmlns="http://www.w3.org/2000/svg" xmlns:xlink="http://www.w3.org/1999/xlink" x="0px" y="0px"
	 viewBox="0 0 70 70" style="enable-background:new 0 0 70 70;" xml:space="preserve">
<style type="text/css">
	.st0{fill:none;stroke:#292929;stroke-width:2;stroke-linecap:round;stroke-linejoin:round;stroke-miterlimit:10;}
</style>
<g>
	<path class="st0" d="M41.5,22.9H12c-2.2,0-4-1.8-4-4v-0.8c0-2.2,1.8-4,4-4h29.5c2.2,0,4,1.8,4,4v0.8C45.6,21.1,43.8,22.9,41.5,22.9
		z"/>
	<path class="st0" d="M58,39.4H36.7c-2.2,0-4-1.8-4-4v-0.8c0-2.2,1.8-4,4-4H58c2.2,0,4,1.8,4,4v0.8C62,37.6,60.2,39.4,58,39.4z"/>
	<path class="st0" d="M39,55.9H23.6c-2.2,0-4-1.8-4-4v-0.8c0-2.2,1.8-4,4-4H39c2.2,0,4,1.8,4,4v0.8C43.1,54.1,41.3,55.9,39,55.9z"/>
</g>
</svg>
