<?xml version="1.0" encoding="utf-8"?>
<!-- Generator: Adobe Illustrator 25.2.3, SVG Export Plug-In . SVG Version: 6.00 Build 0)  -->
<svg version="1.1" id="Layer_1" xmlns="http://www.w3.org/2000/svg" xmlns:xlink="http://www.w3.org/1999/xlink" x="0px" y="0px"
	 viewBox="0 0 70 70" style="enable-background:new 0 0 70 70;" xml:space="preserve">
<style type="text/css">
	.st0{fill:none;stroke:#292929;stroke-width:2;stroke-linecap:round;stroke-linejoin:round;stroke-miterlimit:10;}
	.st1{fill:none;stroke:#292929;stroke-width:2;stroke-linecap:round;stroke-linejoin:round;}
</style>
<path class="st0" d="M52.9,44h-26c-1.7,0-3-1.3-3-3V29c0-1.7,1.3-3,3-3h26c1.7,0,3,1.3,3,3v12C55.9,42.7,54.6,44,52.9,44z"/>
<path class="st1" d="M42.9,26V14c0-3.3-2.7-6-6-6H20.1c-3.3,0-6,2.7-6,6v42c0,3.3,2.7,6,6,6h16.8c3.3,0,6-2.7,6-6V44"/>
<circle class="st1" cx="28.1" cy="15" r="2"/>
<g>
	<line class="st0" x1="27.9" y1="31.9" x2="51.9" y2="31.9"/>
	<line class="st0" x1="27.9" y1="38.1" x2="51.9" y2="38.1"/>
</g>
</svg>
