<?xml version="1.0" encoding="utf-8"?>
<!-- Generator: Adobe Illustrator 25.2.1, SVG Export Plug-In . SVG Version: 6.00 Build 0)  -->
<svg version="1.1" id="Layer_1" xmlns="http://www.w3.org/2000/svg" xmlns:xlink="http://www.w3.org/1999/xlink" x="0px" y="0px"
	 viewBox="0 0 70 70" style="enable-background:new 0 0 70 70;" xml:space="preserve">
<style type="text/css">
	.st0{fill:none;stroke:#000000;stroke-width:2;stroke-linecap:round;stroke-linejoin:round;stroke-miterlimit:10;}
</style>
<g>
	<path class="st0" d="M36.8,38.4l14.8-12.7c-0.9-1-1.4-2.4-1.4-3.8c0-0.3,0-0.6,0.1-0.9H13.6c-1.2,0-2.3,0.4-3.2,1l19.1,16.3
		C31.6,40.2,34.7,40.2,36.8,38.4z"/>
	<path class="st0" d="M51.6,25.8L36.8,38.4c-2.1,1.8-5.2,1.8-7.3,0L10.4,22.1c-1.4,1-2.4,2.7-2.4,4.6v21.7c0,3.1,2.5,5.6,5.6,5.6
		h39.4c3.1,0,5.6-2.5,5.6-5.6V27.2c-0.8,0.4-1.7,0.6-2.6,0.6C54.3,27.8,52.7,27,51.6,25.8z"/>
	<circle class="st0" cx="56.1" cy="21.9" r="5.9"/>
</g>
</svg>
