<?xml version="1.0" encoding="utf-8"?>
<!-- Generator: Adobe Illustrator 25.2.1, SVG Export Plug-In . SVG Version: 6.00 Build 0)  -->
<svg version="1.1" id="Layer_1" xmlns="http://www.w3.org/2000/svg" xmlns:xlink="http://www.w3.org/1999/xlink" x="0px" y="0px"
	 viewBox="0 0 70 70" style="enable-background:new 0 0 70 70;" xml:space="preserve">
<style type="text/css">
	.st0{fill:none;stroke:#292929;stroke-width:2;stroke-linecap:round;stroke-linejoin:round;stroke-miterlimit:10;}
	.st1{fill:none;stroke:#292929;stroke-width:2;stroke-linecap:round;stroke-linejoin:round;}
</style>
<g>
	<path class="st0" d="M33.9,43.8c1.7,1.6,4.3,1.8,6.3,0.6c1.8-1.1,4-2.4,5.3-3.1c0.7-0.4,1.6-0.5,2.4-0.1l11,4.9
		c2.5,1.1,3.7,4,2.8,6.6c-0.8,2.3-1.9,4.7-3.1,5.8c-2.6,2.3-6,3.6-9.6,3.6c-10.9,0-21.3-4.3-29-12C12.3,42.3,8,31.9,8,21
		c0-3.5,1.3-6.9,3.6-9.6c1.1-1.3,3.6-2.3,5.8-3.1c2.6-0.9,5.5,0.3,6.6,2.8l4.9,11.1c0.3,0.7,0.3,1.6-0.1,2.3
		c-0.8,1.5-2.2,4.1-3.3,6.4c-1.1,2.1-0.6,4.6,1.1,6.2L33.9,43.8z"/>
	<path class="st1" d="M38,20.2c5.5,1.1,9.8,5.4,10.8,10.8"/>
	<path class="st1" d="M38,9.3c11.5,1.3,20.5,10.3,21.8,21.8"/>
</g>
</svg>
