<?xml version="1.0" encoding="utf-8"?>
<!-- Generator: Adobe Illustrator 25.4.1, SVG Export Plug-In . SVG Version: 6.00 Build 0)  -->
<svg version="1.1" id="Layer_1" xmlns="http://www.w3.org/2000/svg" xmlns:xlink="http://www.w3.org/1999/xlink" x="0px" y="0px"
	 viewBox="0 0 70 70" style="enable-background:new 0 0 70 70;" xml:space="preserve">
<style type="text/css">
	.st0{fill:none;stroke:#292929;stroke-width:2;stroke-linecap:round;stroke-linejoin:round;stroke-miterlimit:10;}
</style>
<path class="st0" d="M45.8,51.8H24.2c-3.3,0-6-2.7-6-6V24.2c0-3.3,2.7-6,6-6h21.7c3.3,0,6,2.7,6,6v21.7
	C51.8,49.1,49.1,51.8,45.8,51.8z"/>
<path class="st0" d="M24.4,18.2l1.7-7.8C26.4,9,27.6,8,29,8H41c1.4,0,2.6,1,2.9,2.4l1.7,7.8"/>
<path class="st0" d="M45.6,51.8l-1.7,7.8C43.6,61,42.4,62,41,62H29c-1.4,0-2.6-1-2.9-2.4l-1.7-7.8"/>
</svg>
