<?xml version="1.0" encoding="utf-8"?>
<!-- Generator: Adobe Illustrator 25.4.1, SVG Export Plug-In . SVG Version: 6.00 Build 0)  -->
<svg version="1.1" id="Layer_1" xmlns="http://www.w3.org/2000/svg" xmlns:xlink="http://www.w3.org/1999/xlink" x="0px" y="0px"
	 viewBox="0 0 70 70" style="enable-background:new 0 0 70 70;" xml:space="preserve">
<style type="text/css">
	.st0{fill:none;stroke:#292929;stroke-width:2;stroke-linecap:round;stroke-linejoin:round;stroke-miterlimit:10;}
</style>
<path class="st0" d="M49.1,40.6V21.1c0-3.3-2.7-6-6-6H14c-3.3,0-6,2.7-6,6v30.3"/>
<line class="st0" x1="8" y1="27.9" x2="49.1" y2="27.9"/>
<line class="st0" x1="25" y1="21.5" x2="32.1" y2="21.5"/>
<path class="st0" d="M59,54.9H22.1c-1.7,0-3-1.3-3-3v-8.3c0-1.7,1.3-3,3-3H59c1.7,0,3,1.3,3,3v8.3C62,53.6,60.7,54.9,59,54.9z"/>
<line class="st0" x1="35.3" y1="47.8" x2="56.3" y2="47.8"/>
<circle class="st0" cx="27.4" cy="47.8" r="3.3"/>
</svg>
