<?xml version="1.0" encoding="utf-8"?>
<!-- Generator: Adobe Illustrator 25.4.1, SVG Export Plug-In . SVG Version: 6.00 Build 0)  -->
<svg version="1.1" id="Layer_1" xmlns="http://www.w3.org/2000/svg" xmlns:xlink="http://www.w3.org/1999/xlink" x="0px" y="0px"
	 viewBox="0 0 70 70" style="enable-background:new 0 0 70 70;" xml:space="preserve">
<style type="text/css">
	.st0{fill:none;stroke:#292929;stroke-width:2;stroke-linecap:round;stroke-linejoin:round;stroke-miterlimit:10;}
</style>
<g>
	<path class="st0" d="M59,48.4H11c-1.7,0-3-1.3-3-3v-29c0-1.7,1.3-3,3-3h48c1.7,0,3,1.3,3,3v29C62,47.1,60.7,48.4,59,48.4z"/>
	<path class="st0" d="M41,53.4H29v-5v5h-1.5c-0.9,0-1.6,0.7-1.6,1.6l0,0c0,0.9,0.7,1.6,1.6,1.6h15.1c0.9,0,1.6-0.7,1.6-1.6l0,0
		c0-0.9-0.7-1.6-1.6-1.6H41c0,0,0-5,0-5"/>
</g>
</svg>
