<?xml version="1.0" encoding="utf-8"?>
<!-- Generator: Adobe Illustrator 25.4.1, SVG Export Plug-In . SVG Version: 6.00 Build 0)  -->
<svg version="1.1" id="Layer_1" xmlns="http://www.w3.org/2000/svg" xmlns:xlink="http://www.w3.org/1999/xlink" x="0px" y="0px"
	 viewBox="0 0 70 70" style="enable-background:new 0 0 70 70;" xml:space="preserve">
<style type="text/css">
	.st0{fill:none;stroke:#292929;stroke-width:2;stroke-linecap:round;stroke-linejoin:round;stroke-miterlimit:10;}
	.st1{fill:none;stroke:#292929;stroke-width:2;stroke-linecap:round;stroke-linejoin:round;}
</style>
<g>
	<line class="st0" x1="8.7" y1="62" x2="53" y2="62"/>
	<path class="st1" d="M13.4,62V14c0-3.3,2.7-6,6-6h23c3.3,0,6,2.7,6,6v48"/>
	<path class="st0" d="M33,23.1L31.4,32c-0.2,0.5,0.3,0.8,0.8,0.8H37c1.3,0,2.1,1.5,1.3,2.6l-8.4,12.1c-0.5,0.6-1.5,0.2-1.3-0.5
		l1.8-10c0.2-0.5-0.3-0.8-0.8-0.8h-4.9c-1.3,0-2.1-1.5-1.3-2.6l8.2-11C32,21.8,33.2,22.3,33,23.1z"/>
	<path class="st1" d="M58.3,31.8H56c-1.7,0-3-1.3-3-3v-3.6c0-1.7,1.3-3,3-3h2.3c1.7,0,3,1.3,3,3v3.6C61.3,30.5,60,31.8,58.3,31.8z"
		/>
	<polyline class="st1" points="55.2,22.2 55.2,18 59.1,18 59.1,22.2 	"/>
	<line class="st1" x1="57.2" y1="31.8" x2="57.2" y2="40.5"/>
	<path class="st1" d="M57.2,40.5c0,4.8-3.9,8.7-8.8,8.7"/>
</g>
</svg>
