<?xml version="1.0" encoding="utf-8"?>
<!-- Generator: Adobe Illustrator 25.4.1, SVG Export Plug-In . SVG Version: 6.00 Build 0)  -->
<svg version="1.1" id="Layer_1" xmlns="http://www.w3.org/2000/svg" xmlns:xlink="http://www.w3.org/1999/xlink" x="0px" y="0px"
	 viewBox="0 0 70 70" style="enable-background:new 0 0 70 70;" xml:space="preserve">
<style type="text/css">
	.st0{fill:none;stroke:#FFFFFF;stroke-miterlimit:10;}
	.st1{fill:none;stroke:#292929;stroke-width:2;stroke-linecap:round;stroke-linejoin:round;stroke-miterlimit:10;}
</style>
<path class="st0" d="M-283,1493.9c2.4,2.3,3.8,5.3,3.8,8.7c0,3.4-1.5,6.5-4,8.8"/>
<path class="st0" d="M-283,1493.9c-0.9-0.9-1.9-1.6-3.1-2.2c2.2-2,3.6-4.9,3.6-8.1c0-6.1-4.9-11-11-11s-11,4.9-11,11
	c0,3.2,1.4,6.1,3.6,8.1c-4.1,2.2-6.9,6.3-6.9,10.9c0,7,6.4,12.7,14.2,12.7c4,0,7.7-1.5,10.3-3.9"/>
<path class="st0" d="M-283,1493.9c-2.4,2.2-4,5.3-4,8.8c0,3.4,1.5,6.5,3.8,8.7"/>
<g>
	<path class="st1" d="M42,26.1c2.2-1.9,3.4-4.7,3.4-7.7C45.4,12.7,40.7,8,35,8s-10.4,4.7-10.4,10.4c0,3,1.4,5.8,3.4,7.7
		c-3.9,2.2-6.6,6-6.6,10.4c0,6.7,6.1,12,13.6,12s13.6-5.5,13.6-12C48.4,32.1,45.8,28.3,42,26.1z"/>
	<line class="st1" x1="35" y1="33.1" x2="35" y2="62"/>
	<line class="st1" x1="40.6" y1="35.4" x2="35" y2="42"/>
</g>
<line class="st1" x1="35" y1="45" x2="29.9" y2="39.9"/>
</svg>
