<?xml version="1.0" encoding="utf-8"?>
<!-- Generator: Adobe Illustrator 25.4.1, SVG Export Plug-In . SVG Version: 6.00 Build 0)  -->
<svg version="1.1" id="Layer_1" xmlns="http://www.w3.org/2000/svg" xmlns:xlink="http://www.w3.org/1999/xlink" x="0px" y="0px"
	 viewBox="0 0 70 70" style="enable-background:new 0 0 70 70;" xml:space="preserve">
<style type="text/css">
	.st0{fill:none;stroke:#FFFFFF;stroke-miterlimit:10;}
	.st1{fill:none;stroke:#292929;stroke-width:2;stroke-linecap:round;stroke-linejoin:round;stroke-miterlimit:10;}
</style>
<path class="st0" d="M-283,1493.9c2.4,2.3,3.8,5.3,3.8,8.7c0,3.4-1.5,6.5-4,8.8"/>
<path class="st0" d="M-283,1493.9c-0.9-0.9-1.9-1.6-3.1-2.2c2.2-2,3.6-4.9,3.6-8.1c0-6.1-4.9-11-11-11s-11,4.9-11,11
	c0,3.2,1.4,6.1,3.6,8.1c-4.1,2.2-6.9,6.3-6.9,10.9c0,7,6.4,12.7,14.2,12.7c4,0,7.7-1.5,10.3-3.9"/>
<path class="st0" d="M-283,1493.9c-2.4,2.2-4,5.3-4,8.8c0,3.4,1.5,6.5,3.8,8.7"/>
<path class="st1" d="M47.8,21.9c-1.3,0.1-2.3,1.3-2.3,2.7l0,5.7c0,1.9-2.2,3.6-4.7,3.6l0-21.4c0-2.2-1.6-4.2-3.8-4.4
	c-2.5-0.2-4.6,1.7-4.6,4.2v29.5h-1.3c-3.7,0-6.7-3-6.7-6.7l0-8.6c0-1.3-1-2.5-2.3-2.7c-1.5-0.2-2.8,1-2.8,2.5V35
	c0,6.5,5.3,11.7,11.7,11.7h1.3V59c0,1.7,1.3,3,3,3h2.4c1.7,0,3-1.3,3-3V38.8c5.4,0,9.8-3.9,9.8-8.6v-5.8
	C50.6,22.9,49.4,21.7,47.8,21.9z"/>
</svg>
