<?xml version="1.0" encoding="utf-8"?>
<!-- Generator: Adobe Illustrator 25.2.1, SVG Export Plug-In . SVG Version: 6.00 Build 0)  -->
<svg version="1.1" id="Layer_1" xmlns="http://www.w3.org/2000/svg" xmlns:xlink="http://www.w3.org/1999/xlink" x="0px" y="0px"
	 viewBox="0 0 70 70" style="enable-background:new 0 0 70 70;" xml:space="preserve">
<style type="text/css">
	.st0{fill:none;stroke:#292929;stroke-width:2;stroke-linecap:round;stroke-linejoin:round;stroke-miterlimit:10;}
</style>
<g>
	<path class="st0" d="M41.4,28.5c3-3,7.1-5.6,12.2-7.5c0.9-0.4,1.9,0.1,2.3,1c7.7,17.9-1,33.9-13.7,28.5c-0.2-0.1-0.3-0.1-0.4-0.2"
		/>
	<path class="st0" d="M41.7,50.3c-3-1.4-4.9-3.5-5.7-5.9"/>
	<path class="st0" d="M39.1,62c0.3-3.5,1.3-7.6,2.6-11.7"/>
	<path class="st0" d="M52.5,29.4c-2.4,0.7-7.6,10.7-10.9,20.9"/>
	<g>
		<path class="st0" d="M34.1,45.5c16-8.2,7.2-30.1-17.1-37.4c-1.2-0.4-2.4,0.3-2.9,1.5C5.5,33.4,17.9,53.5,34.1,45.5z"/>
		<path class="st0" d="M39.1,62c1.6-14.5-15-41.9-20.2-43.1"/>
	</g>
</g>
</svg>
