<?xml version="1.0" encoding="utf-8"?>
<!-- Generator: Adobe Illustrator 25.2.1, SVG Export Plug-In . SVG Version: 6.00 Build 0)  -->
<svg version="1.1" id="Layer_1" xmlns="http://www.w3.org/2000/svg" xmlns:xlink="http://www.w3.org/1999/xlink" x="0px" y="0px"
	 viewBox="0 0 70 70" style="enable-background:new 0 0 70 70;" xml:space="preserve">
<style type="text/css">
	.st0{fill:none;stroke:#292929;stroke-width:2;stroke-miterlimit:10;}
</style>
<g>
	<g>
		<path class="st0" d="M56.9,26.5v-7c0-2.8-2.3-5-5-5H18.2c-2.8,0-5,2.3-5,5v6.6"/>
		<path class="st0" d="M30.1,25.3c0.5-3.2,2.5-5.7,4.9-5.7s4.5,2.4,4.9,5.7"/>
	</g>
	<g>
		<path class="st0" d="M55.9,55.5H14.2c-3.4,0-6.2-2.8-6.2-6.2V32c0-3.4,2.8-6.2,6.2-6.2h41.6c3.4,0,6.2,2.8,6.2,6.2v17.2
			C62.1,52.7,59.3,55.5,55.9,55.5z"/>
		<path class="st0" d="M35,49.7c3.4,0,6.2-3.9,6.2-8.8s-2.8-8.8-6.2-8.8s-6.2,3.9-6.2,8.8S31.6,49.7,35,49.7z"/>
	</g>
</g>
</svg>
