<?xml version="1.0" encoding="utf-8"?>
<!-- Generator: Adobe Illustrator 25.4.1, SVG Export Plug-In . SVG Version: 6.00 Build 0)  -->
<svg version="1.1" id="Layer_1" xmlns="http://www.w3.org/2000/svg" xmlns:xlink="http://www.w3.org/1999/xlink" x="0px" y="0px"
	 viewBox="0 0 70 70" style="enable-background:new 0 0 70 70;" xml:space="preserve">
<style type="text/css">
	.st0{fill:none;stroke:#292929;stroke-width:2;stroke-linecap:round;stroke-linejoin:round;stroke-miterlimit:10;}
</style>
<path class="st0" d="M54.8,59.8H14c-3.3,0-6-2.7-6-6V13.2c0-1.7,1.3-3,3-3h47.9c1.7,0,3,1.3,3,3v39.5C62,56.6,58.8,59.8,54.8,59.8z
	 M8,50.2h54 M25.1,36.3l-6.6-1.2c-1.9-0.4-3.2-2.2-2.9-4.2l1.2-6.6c0.4-1.9,2.2-3.2,4.2-2.9l6.6,1.2c1.9,0.4,3.2,2.2,2.9,4.2
	l-1.2,6.6C28.9,35.4,27,36.6,25.1,36.3z M51.8,36.7l-6.7,0.7c-1.9,0.2-3.7-1.2-3.9-3.1l-0.7-6.7c-0.2-1.9,1.2-3.7,3.1-3.9l6.7-0.7
	c1.9-0.2,3.7,1.2,3.9,3.1l0.7,6.7C55.2,34.6,53.8,36.4,51.8,36.7z M8,28.8h54"/>
</svg>
