<?xml version="1.0" encoding="utf-8"?>
<!-- Generator: Adobe Illustrator 25.2.3, SVG Export Plug-In . SVG Version: 6.00 Build 0)  -->
<svg version="1.1" id="Layer_1" xmlns="http://www.w3.org/2000/svg" xmlns:xlink="http://www.w3.org/1999/xlink" x="0px" y="0px"
	 viewBox="0 0 70 70" style="enable-background:new 0 0 70 70;" xml:space="preserve">
<style type="text/css">
	.st0{fill:none;stroke:#292929;stroke-width:2;stroke-linecap:round;stroke-linejoin:round;}
</style>
<g>
	<path class="st0" d="M34.7,62h-0.2c-1.2,0-2.3-1-2.3-2.3v-9.6H37v9.6C37,61,36,62,34.7,62z"/>
	<path class="st0" d="M43.2,16.7c-0.3-0.2-0.5-0.5-0.8-0.8c-0.2,0-0.4,0.1-0.5,0.1c-3.1,0-5.6-2.4-5.6-5.5c0-0.8,0.2-1.6,0.6-2.4
		C36.2,8.1,35.6,8,35,8c-7.3,0-13.2,5.6-13.5,12.6l0,0v23.2c0,3.5,2.9,6.3,6.5,6.3h14c3.6,0,6.5-2.8,6.5-6.3V20.6l0,0
		c0-1.1-0.2-2.1-0.5-3.1C46.4,18.1,44.6,17.8,43.2,16.7z"/>
</g>
</svg>
