<?xml version="1.0" encoding="utf-8"?>
<!-- Generator: Adobe Illustrator 25.4.1, SVG Export Plug-In . SVG Version: 6.00 Build 0)  -->
<svg version="1.1" id="Layer_1" xmlns="http://www.w3.org/2000/svg" xmlns:xlink="http://www.w3.org/1999/xlink" x="0px" y="0px"
	 viewBox="0 0 70 70" style="enable-background:new 0 0 70 70;" xml:space="preserve">
<style type="text/css">
	.st0{fill:none;stroke:#292929;stroke-width:2;stroke-linecap:round;stroke-linejoin:round;stroke-miterlimit:10;}
</style>
<g>
	<path class="st0" d="M8.6,18.4c-1.4,1.4,1.7,4.8,1.9,6.5c0.6,5.2,0.8,15.9,0,21.1c-0.2,1.6-3.8,4.6-1.9,6.2
		c2.2,1.8,4.9-2.6,6.7-2.4c10.1,1.2,24.7,3.2,38.7-0.2c1.9-0.5,5.7,4.2,7.3,2.6c2.5-2.4-2-5.4-2.4-7.3c-0.7-4.9-0.9-15,0.3-19.8
		c0.4-1.8,3-5.1,1.7-7.1c-1.6-2.5-4.8,2.2-6.5,2c-26.8-2.9-29.1-0.4-38.6,0.2C14,20.4,10.8,16.2,8.6,18.4z"/>
	<path class="st0" d="M52.2,27.1c-1.8,5.3-1.6,12.8,0,16.2"/>
</g>
</svg>
