<?xml version="1.0" encoding="utf-8"?>
<!-- Generator: Adobe Illustrator 25.4.1, SVG Export Plug-In . SVG Version: 6.00 Build 0)  -->
<svg version="1.1" id="Layer_1" xmlns="http://www.w3.org/2000/svg" xmlns:xlink="http://www.w3.org/1999/xlink" x="0px" y="0px"
	 viewBox="0 0 70 70" style="enable-background:new 0 0 70 70;" xml:space="preserve">
<style type="text/css">
	.st0{fill:none;stroke:#292929;stroke-width:2;stroke-linecap:round;stroke-linejoin:round;stroke-miterlimit:10;}
</style>
<g>
	<path class="st0" d="M31.8,15c1.2,0,2.1,0.9,2.1,2.1s-0.9,2.1-2.1,2.1s-2.1-0.9-2.1-2.1S30.6,15,31.8,15z M42.5,58.1l4.4,0.8
		c1.7,0.3,3.2-0.8,3.5-2.5l7.1-40c0.3-1.7-0.8-3.2-2.5-3.5L27.5,8h27.4c1.7,0,3,1.4,3,3v40.6c0,1.7-1.4,3-3,3h-4.1 M26.3,10.9
		l-14,38.4c-0.6,1.6,0.2,3.3,1.8,3.9l23.7,8.6c1.6,0.6,3.3-0.2,3.9-1.8l14-38.4c0.6-1.6-0.2-3.3-1.8-3.9L30.2,9
		c-1.3-0.4-2.7,0.1-3.5,1.2C26.5,10.4,26.4,10.6,26.3,10.9z"/>
	<line class="st0" x1="25.9" y1="12.1" x2="27.5" y2="8"/>
</g>
</svg>
