<?xml version="1.0" encoding="utf-8"?>
<!-- Generator: Adobe Illustrator 25.4.1, SVG Export Plug-In . SVG Version: 6.00 Build 0)  -->
<svg version="1.1" id="Layer_1" xmlns="http://www.w3.org/2000/svg" xmlns:xlink="http://www.w3.org/1999/xlink" x="0px" y="0px"
	 viewBox="0 0 70 70" style="enable-background:new 0 0 70 70;" xml:space="preserve">
<style type="text/css">
	.st0{fill:none;stroke:#292929;stroke-width:2;stroke-linecap:round;stroke-linejoin:round;stroke-miterlimit:10;}
</style>
<path class="st0" d="M59,34.1H11c-1.7,0-3-1.3-3-3v-4c0-1.7,1.3-3,3-3h48c1.7,0,3,1.3,3,3v4C62,32.8,60.7,34.1,59,34.1z"/>
<line class="st0" x1="35" y1="24.1" x2="35" y2="57.3"/>
<ellipse transform="matrix(0.7071 -0.7071 0.7071 0.7071 -4.5735 25.7709)" class="st0" cx="28.8" cy="18.4" rx="3.9" ry="7"/>
<ellipse transform="matrix(0.7071 -0.7071 0.7071 0.7071 -0.9542 34.5086)" class="st0" cx="41.2" cy="18.4" rx="7" ry="3.9"/>
<path class="st0" d="M12.1,34.1v20.2c0,1.7,1.3,3,3,3h39.7c1.7,0,3-1.3,3-3V34.1"/>
</svg>
