<?xml version="1.0" encoding="utf-8"?>
<!-- Generator: Adobe Illustrator 25.4.1, SVG Export Plug-In . SVG Version: 6.00 Build 0)  -->
<svg version="1.1" id="Layer_1" xmlns="http://www.w3.org/2000/svg" xmlns:xlink="http://www.w3.org/1999/xlink" x="0px" y="0px"
	 viewBox="0 0 70 70" style="enable-background:new 0 0 70 70;" xml:space="preserve">
<style type="text/css">
	.st0{fill:none;stroke:#292929;stroke-width:2;stroke-linecap:round;stroke-linejoin:round;stroke-miterlimit:10;}
</style>
<path class="st0" d="M46.8,13.9c3.7,3.7,5.9,8.7,5.9,14.3c0,11.2-9.1,20.3-20.3,20.3c-5.6,0-10.7-2.3-14.3-5.9"/>
<path class="st0" d="M18.2,42.6l-3.5,3.5c4.6,4.6,10.9,7.4,17.8,7.4c13.9,0,25.2-11.3,25.2-25.2c0-7-2.8-13.3-7.4-17.8l-3.5,3.5"/>
<polyline class="st0" points="44.7,62 20.3,62 32.5,62 32.5,53.5 "/>
<circle class="st0" cx="32.5" cy="28.3" r="20.3"/>
<g>
	<path class="st0" d="M12.5,25.8c1.1,1.5,2.9,2.7,4.3,4c1.7,2.1-0.1,7.3,3.2,7.6c4.2,0.4,3.2,3.9,3.7,6.6c0.8,2.2,5.1,3.4,5.6,1.2
		c0.6-2.5,0.6-5.1,1.8-7.4c4.2-8.2-2.2-10.5-9.1-10.5c-3.5,0-5.3-5.2-1-5.3c3.3,0,4.9-1.2,7.3-3.5c5.3-5.1-1-7.4-5.4-5.5
		c-0.6,0.3-1.2-0.3-1.7-1.1"/>
	<path class="st0" d="M50.9,20.2c-0.6,0.5-1.5,0.8-2.2,1.2c-5.6,6.4,5.9,1.2-3.5,13.9c-4.3,1.5,0.1-7-5.8-8.1
		c-4.9-0.9,1.2-7.3,4.3-7.1c2.8-2-2.2-4.3-1-6.4c0.3-0.8,0.6-1.4,0.9-1.9"/>
	<path class="st0" d="M39.4,17.7c0.1-1.4-2.3-2.1-1.8-4c0.1-0.5,0.4-1.4-0.2-1.5c-4.2-0.7-0.9,4-1.9,4.7
		C32.5,19.1,39.1,21.1,39.4,17.7z"/>
</g>
</svg>
