<?xml version="1.0" encoding="utf-8"?>
<!-- Generator: Adobe Illustrator 25.4.1, SVG Export Plug-In . SVG Version: 6.00 Build 0)  -->
<svg version="1.1" id="Layer_1" xmlns="http://www.w3.org/2000/svg" xmlns:xlink="http://www.w3.org/1999/xlink" x="0px" y="0px"
	 viewBox="0 0 70 70" style="enable-background:new 0 0 70 70;" xml:space="preserve">
<style type="text/css">
	.st0{fill:none;stroke:#292929;stroke-width:2;stroke-linecap:round;stroke-linejoin:round;stroke-miterlimit:10;}
</style>
<g>
	<g>
		<path class="st0" d="M50,62H20c-1.7,0-3-1.3-3-3V25.9c0-6.6,5.4-12,12-12H41c6.6,0,12,5.4,12,12V59C53,60.7,51.7,62,50,62z"/>
		<path class="st0" d="M23,53V40c0-1.7,1.3-3,3-3H44c1.7,0,3,1.3,3,3v13c0,1.7-1.3,3-3,3H26C24.3,56,23,54.6,23,53z"/>
		<rect x="31.4" y="21.9" transform="matrix(0.7071 -0.7071 0.7071 0.7071 -7.752 32.2059)" class="st0" width="7.2" height="7.2"/>
		<path class="st0" d="M29,13.9V11c0-1.7,1.3-3,3-3h6c1.7,0,3,1.3,3,3v2.9"/>
	</g>
	<line class="st0" x1="27.5" y1="42" x2="42.5" y2="42"/>
</g>
</svg>
