<?xml version="1.0" encoding="utf-8"?>
<!-- Generator: Adobe Illustrator 25.4.1, SVG Export Plug-In . SVG Version: 6.00 Build 0)  -->
<svg version="1.1" id="Layer_1" xmlns="http://www.w3.org/2000/svg" xmlns:xlink="http://www.w3.org/1999/xlink" x="0px" y="0px"
	 viewBox="0 0 70 70" style="enable-background:new 0 0 70 70;" xml:space="preserve">
<style type="text/css">
	.st0{fill:none;stroke:#292929;stroke-width:2;stroke-linecap:round;stroke-linejoin:round;stroke-miterlimit:10;}
</style>
<g>
	<path class="st0" d="M31.4,43.5c2,0.7,7.2,1.6,9.6,2c0.6,0.1,1,0.8,0.8,1.3c-7.2,18.4-17,14.9-17,14.9s-9.8-3.6-3.4-22.3
		c0.2-0.6,0.9-0.9,1.5-0.5C24.9,40.1,29.4,42.8,31.4,43.5z"/>
	<line class="st0" x1="31.4" y1="43.5" x2="41.3" y2="16.4"/>
	<path class="st0" d="M45.9,18.1l-9.2-3.4c-1.6-0.6-2.4-2.3-1.8-3.8l1-2.8l14.9,5.4l-1,2.8C49.2,17.8,47.5,18.6,45.9,18.1z"/>
</g>
</svg>
