<svg width="70" height="70" viewBox="0 0 70 70" fill="none" xmlns="http://www.w3.org/2000/svg">
<path d="M60.2116 25.257C59.9562 26.5089 58.0826 27.0709 56.7286 27.7607C49.3878 36.0468 64.3675 29.3873 52.2321 45.8572C46.6286 47.8159 52.3343 36.711 44.6103 35.2633C38.2744 34.0711 46.2369 25.7765 50.2138 26.049C53.9183 23.392 47.3525 20.4029 48.945 17.6522C49.6177 15.7021 50.3756 14.4928 51.1591 13.8541C42.0044 7.75663 28.8557 7.60334 19.5051 13.4198C20.6037 14.893 21.7874 17.4904 23.1415 16.8858C28.8898 14.3054 37.0566 17.3882 30.1331 23.9881C27.0162 26.9602 24.8787 28.5527 20.6377 28.5868C14.9405 28.6379 17.3165 35.4933 21.8811 35.4762C30.9421 35.4336 39.2367 38.5079 33.795 49.1614C32.2621 52.1591 32.2706 55.4888 31.4616 58.759C30.7377 61.6715 25.1257 60.079 24.1378 57.2517C23.5076 53.692 24.768 49.204 19.2667 48.6335C14.9916 48.1906 17.3931 41.4289 15.162 38.7038C12.6838 36.4641 9.39661 34.5139 8.37469 31.2097C8.2214 32.5041 8.15328 33.8582 8.17031 35.2718C7.65935 70.0768 62.3321 70.0768 61.8212 35.2718C61.8808 31.5333 61.2932 28.195 60.2116 25.257Z" stroke="#292929" stroke-width="2" stroke-miterlimit="10" stroke-linecap="round" stroke-linejoin="round"/>
<path d="M15.162 38.7038C17.3931 41.4204 14.9916 48.1907 19.2667 48.6335C24.768 49.2041 23.4991 53.692 24.1378 57.2517C25.1257 60.079 30.7462 61.6715 31.4616 58.759C32.2706 55.4889 32.2621 52.1591 33.795 49.1615C39.2367 38.508 30.9506 35.4337 21.8811 35.4763C17.325 35.4933 14.9405 28.6379 20.6377 28.5868C24.8787 28.5527 27.0162 26.9603 30.1331 23.9882C37.0566 17.3968 28.8812 14.314 23.1415 16.8858C21.7874 17.4905 20.6037 14.8931 19.5051 13.4198C13.6972 17.0391 9.35404 22.9662 8.37469 31.2097C9.39662 34.514 12.6838 36.4641 15.162 38.7038Z" stroke="#292929" stroke-width="2" stroke-miterlimit="10" stroke-linecap="round" stroke-linejoin="round"/>
<path d="M48.945 17.6608C47.3525 20.4114 53.9098 23.4006 50.2138 26.0576C46.2369 25.785 38.2744 34.0796 44.6103 35.2719C52.3343 36.7281 46.6201 47.8245 52.2321 45.8658C64.3674 29.3958 49.3963 36.0554 56.7286 27.7693C58.0826 27.0795 59.9562 26.5089 60.2116 25.2656C58.3977 20.3263 55.1616 16.5196 51.1676 13.8541C50.3756 14.4928 49.6177 15.7021 48.945 17.6608Z" stroke="#292929" stroke-width="2" stroke-miterlimit="10" stroke-linecap="round" stroke-linejoin="round"/>
<path d="M39.5 22C35.7189 24.8103 44.2271 27.3946 44.6529 22.9748C44.8317 21.1098 41.6893 20.3008 42.3025 17.7971C42.4558 17.1754 42.8731 16.0087 41.9874 15.8554C36.5 14.9057 40.7518 21.0718 39.5 22Z" stroke="#292929" stroke-width="2" stroke-miterlimit="10" stroke-linecap="round" stroke-linejoin="round"/>
</svg>
