<?xml version="1.0" encoding="utf-8"?>
<!-- Generator: Adobe Illustrator 25.4.1, SVG Export Plug-In . SVG Version: 6.00 Build 0)  -->
<svg version="1.1" id="Layer_1" xmlns="http://www.w3.org/2000/svg" xmlns:xlink="http://www.w3.org/1999/xlink" x="0px" y="0px"
	 viewBox="0 0 70 70" style="enable-background:new 0 0 70 70;" xml:space="preserve">
<style type="text/css">
	.st0{fill:none;stroke:#292929;stroke-width:2;stroke-linecap:round;stroke-linejoin:round;stroke-miterlimit:10;}
</style>
<path class="st0" d="M22.1,44.3v9.9c0,0.8,0.6,1.4,1.4,1.4h22.9c0.8,0,1.4-0.6,1.4-1.4v-9.9c0-0.8-0.6-1.4-1.4-1.4H23.5
	C22.8,42.9,22.1,43.6,22.1,44.3z"/>
<g>
	<line class="st0" x1="22.1" y1="15.5" x2="22.1" y2="21.9"/>
	<line class="st0" x1="27.3" y1="15.5" x2="27.3" y2="21.9"/>
	<line class="st0" x1="32.4" y1="15.5" x2="32.4" y2="21.9"/>
</g>
<path class="st0" d="M52.5,31.7L52.5,31.7c0.8,0,1.4-0.6,1.4-1.4v-5.9c0-1.7-0.7-3.3-1.9-4.4L40.5,9.6c-1.1-1-2.6-1.6-4.1-1.6H19.1
	c-1.7,0-3,1.3-3,3v49.6c0,0.8,0.6,1.4,1.4,1.4h34.9c0.8,0,1.4-0.6,1.4-1.4V42.2c0-0.8-0.6-1.4-1.4-1.4l0,0c-0.8,0-1.4-0.6-1.4-1.4
	v-6.2C51.1,32.4,51.7,31.7,52.5,31.7z"/>
</svg>
