<?xml version="1.0" encoding="utf-8"?>
<!-- Generator: Adobe Illustrator 25.4.1, SVG Export Plug-In . SVG Version: 6.00 Build 0)  -->
<svg version="1.1" id="Layer_1" xmlns="http://www.w3.org/2000/svg" xmlns:xlink="http://www.w3.org/1999/xlink" x="0px" y="0px"
	 viewBox="0 0 70 70" style="enable-background:new 0 0 70 70;" xml:space="preserve">
<style type="text/css">
	.st0{fill:none;stroke:#292929;stroke-width:2;stroke-linecap:round;stroke-linejoin:round;stroke-miterlimit:10;}
</style>
<g>
	<path class="st0" d="M18.1,47.7l14.7,8.5c1,0.6,2.3,0.2,2.9-0.8l0,0c0.6-1,0.2-2.3-0.8-2.9L20.2,44c-1-0.6-2.3-0.2-2.9,0.8l0,0
		C16.8,45.8,17.1,47.1,18.1,47.7z"/>
	<polyline class="st0" points="22.1,45.1 42.2,10.3 50.8,8 53.2,16.6 33.1,51.4 	"/>
	<path class="st0" d="M29.2,54.1l-3.7,6.4c-0.8,1.4-2.7,1.9-4.1,1.1l-2.2-1.3c-1.4-0.8-1.9-2.7-1.1-4.1l3.7-6.4"/>
</g>
</svg>
