<?xml version="1.0" encoding="utf-8"?>
<!-- Generator: Adobe Illustrator 25.2.1, SVG Export Plug-In . SVG Version: 6.00 Build 0)  -->
<svg version="1.1" id="Layer_1" xmlns="http://www.w3.org/2000/svg" xmlns:xlink="http://www.w3.org/1999/xlink" x="0px" y="0px"
	 viewBox="0 0 70 70" style="enable-background:new 0 0 70 70;" xml:space="preserve">
<style type="text/css">
	.st0{fill:none;stroke:#292929;stroke-width:2;stroke-linecap:round;stroke-linejoin:round;stroke-miterlimit:10;}
</style>
<path class="st0" d="M54.9,35c0-3.7,2.8-6.7,6.4-7c0.4,0,0.6-0.3,0.6-0.7v-3.7c0-1.6-1.3-3.1-3.1-3.1H11.1C9.4,20.6,8,22,8,23.6v3.7
	C8,27.7,8.3,28,8.6,28c3.6,0.3,6.4,3.4,6.4,7c0,3.7-2.8,6.7-6.4,7C8.2,42,8,42.3,8,42.7v3.7c0,1.7,1.4,3.1,3.1,3.1H59
	c1.7,0,3.1-1.3,3.1-3.1v-3.7c0-0.4-0.3-0.7-0.6-0.7C57.7,41.7,54.9,38.7,54.9,35z"/>
<circle class="st0" cx="35" cy="35" r="7.7"/>
</svg>
