<?xml version="1.0" encoding="utf-8"?>
<!-- Generator: Adobe Illustrator 25.2.3, SVG Export Plug-In . SVG Version: 6.00 Build 0)  -->
<svg version="1.1" id="Layer_1" xmlns="http://www.w3.org/2000/svg" xmlns:xlink="http://www.w3.org/1999/xlink" x="0px" y="0px"
	 viewBox="0 0 70 70" style="enable-background:new 0 0 70 70;" xml:space="preserve">
<style type="text/css">
	.st0{fill:none;stroke:#292929;stroke-width:2;stroke-linecap:round;stroke-linejoin:round;stroke-miterlimit:10;}
</style>
<path class="st0" d="M43.3,8.3c-2.5,0-5.9,6.4-7.5,9c-0.2,0.3-0.5,0.5-0.8,0.5s-0.6-0.2-0.8-0.5c-1.6-2.5-5-9-7.5-9
	C20,8.3,7.5,15.1,8,16.7c1.9,6.6,6.6,10.9,6.6,10.9l3-1.1c0,0,0.1,20.2,0.1,32.2c0,4.8,34.5,4.8,34.5,0c0-11.9,0.1-32.2,0.1-32.2
	l3,1.1c0,0,4.7-4.3,6.6-10.9C62.5,15.1,50,8.3,43.3,8.3z"/>
</svg>
