<?xml version="1.0" encoding="utf-8"?>
<!-- Generator: Adobe Illustrator 25.4.1, SVG Export Plug-In . SVG Version: 6.00 Build 0)  -->
<svg version="1.1" id="Layer_1" xmlns="http://www.w3.org/2000/svg" xmlns:xlink="http://www.w3.org/1999/xlink" x="0px" y="0px"
	 viewBox="0 0 70 70" style="enable-background:new 0 0 70 70;" xml:space="preserve">
<style type="text/css">
	.st0{fill:none;stroke:#292929;stroke-width:2;stroke-linecap:round;stroke-linejoin:round;stroke-miterlimit:10;}
</style>
<g>
	<path class="st0" d="M54.2,55.5H15.7c-2.2,0-4-1.8-4-4l0,0c0-2.2,1.8-4,4-4h38.6c2.2,0,4,1.8,4,4l0,0
		C58.2,53.8,56.5,55.5,54.2,55.5z"/>
	<path class="st0" d="M14.1,47.6L8,27.9c-0.3-0.9,0.8-1.7,1.6-1.1l8.8,6.7c0.4,0.3,1.1,0.3,1.4-0.2l14.4-18.4c0.4-0.5,1.2-0.5,1.6,0
		l14.5,18.4c0.3,0.4,1,0.5,1.4,0.2l8.8-6.7c0.8-0.6,1.9,0.2,1.6,1.1l-6.2,19.6"/>
</g>
</svg>
