<?xml version="1.0" encoding="utf-8"?>
<!-- Generator: Adobe Illustrator 25.4.1, SVG Export Plug-In . SVG Version: 6.00 Build 0)  -->
<svg version="1.1" id="Layer_1" xmlns="http://www.w3.org/2000/svg" xmlns:xlink="http://www.w3.org/1999/xlink" x="0px" y="0px"
	 viewBox="0 0 70 70" style="enable-background:new 0 0 70 70;" xml:space="preserve">
<style type="text/css">
	.st0{fill:none;stroke:#292929;stroke-width:2;stroke-linecap:round;stroke-linejoin:round;stroke-miterlimit:10;}
</style>
<g>
	<path class="st0" d="M30.6,62C18.1,62,8,51.9,8,39.4s10.1-22.6,22.6-22.6s22.6,10.1,22.6,22.6S43.1,62,30.6,62z"/>
	<path class="st0" d="M30.6,54.8c-8.5,0-15.4-6.9-15.4-15.4s6.9-15.4,15.4-15.4S46,31,46,39.4S39,54.8,30.6,54.8z"/>
	<path class="st0" d="M30.6,47.6c-4.5,0-8.1-3.7-8.1-8.1c0-4.5,3.7-8.1,8.1-8.1s8.1,3.7,8.1,8.1S35.1,47.6,30.6,47.6z"/>
	<line class="st0" x1="30.6" y1="39.4" x2="51" y2="19"/>
	<polygon class="st0" points="50.9,19.1 56.1,20.6 62,14.7 55.8,14.1 55.3,8 49.4,13.9 	"/>
</g>
</svg>
