<?xml version="1.0" encoding="utf-8"?>
<!-- Generator: Adobe Illustrator 25.4.1, SVG Export Plug-In . SVG Version: 6.00 Build 0)  -->
<svg version="1.1" id="Layer_1" xmlns="http://www.w3.org/2000/svg" xmlns:xlink="http://www.w3.org/1999/xlink" x="0px" y="0px"
	 viewBox="0 0 70 70" style="enable-background:new 0 0 70 70;" xml:space="preserve">
<style type="text/css">
	.st0{fill:none;stroke:#292929;stroke-width:2;stroke-linecap:round;stroke-linejoin:round;stroke-miterlimit:10;}
</style>
<g>
	<g>
		<path class="st0" d="M36.5,21.2l21.2-10.3c2-1,4.3,0.5,4.3,2.7v38.5c0,2.2-2.3,3.7-4.3,2.7L36.5,44.6V21.2z"/>
		<path class="st0" d="M18.3,44.6h18.2V21.2H18.3c-1.7,0-3,1.3-3,3v17.3C15.3,43.2,16.6,44.6,18.3,44.6z"/>
		<path class="st0" d="M11,41.1h4.3V24.7H11c-1.7,0-3,1.3-3,3v10.3C8,39.7,9.3,41.1,11,41.1z"/>
		<path class="st0" d="M18.9,44.6l2.2,12.1c0.3,1.7,1.9,2.9,3.6,2.7h0c2.1-0.2,3.4-2.3,2.8-4.3l-0.9-2.7c-0.5-1.6,0.1-3.4,1.5-4.5h0
			c1-0.8,1.6-2,1.6-3.2v0H18.9z"/>
	</g>
	<line class="st0" x1="19.2" y1="27.9" x2="31.9" y2="27.9"/>
</g>
</svg>
