<?xml version="1.0" encoding="utf-8"?>
<!-- Generator: Adobe Illustrator 25.4.1, SVG Export Plug-In . SVG Version: 6.00 Build 0)  -->
<svg version="1.1" id="Layer_1" xmlns="http://www.w3.org/2000/svg" xmlns:xlink="http://www.w3.org/1999/xlink" x="0px" y="0px"
	 viewBox="0 0 70 70" style="enable-background:new 0 0 70 70;" xml:space="preserve">
<style type="text/css">
	.st0{fill:none;stroke:#292929;stroke-width:2;stroke-linecap:round;stroke-linejoin:round;stroke-miterlimit:10;}
</style>
<g>
	<g>
		<path class="st0" d="M20.6,9.9l2.1,4.2c0.3,0.5,0.7,0.8,1.3,0.9l4.6,0.7c1.4,0.2,2,1.9,0.9,2.9l-3.3,3.3c-0.4,0.4-0.6,1-0.5,1.5
			l0.8,4.6c0.2,1.4-1.2,2.4-2.5,1.8l-4.2-2.1c-0.5-0.3-1.1-0.3-1.6,0l-4.1,2.1c-1.2,0.7-2.7-0.4-2.5-1.8l0.8-4.6
			c0.1-0.5-0.1-1.1-0.5-1.5l-3.4-3.3c-1-1-0.5-2.7,0.9-2.9L14,15c0.6-0.1,1-0.4,1.3-0.9l2.1-4.2C18.2,8.7,20,8.7,20.6,9.9z"/>
		<path class="st0" d="M52.5,9.9l2.1,4.2c0.3,0.5,0.7,0.8,1.3,0.9l4.6,0.7c1.4,0.2,2,1.9,0.9,2.9l-3.3,3.3c-0.4,0.4-0.6,1-0.5,1.5
			l0.8,4.6c0.2,1.4-1.2,2.4-2.5,1.8l-4.2-2.1c-0.5-0.3-1.1-0.3-1.6,0L46,29.9c-1.2,0.7-2.7-0.4-2.5-1.8l0.8-4.6
			c0.1-0.5-0.1-1.1-0.5-1.5l-3.4-3.3c-1-1-0.5-2.7,0.9-2.9l4.6-0.7c0.6-0.1,1-0.4,1.3-0.9l2.1-4.2C50.2,8.7,51.8,8.7,52.5,9.9z"/>
	</g>
	<path class="st0" d="M36.5,40.9l2.1,4.2c0.3,0.5,0.7,0.8,1.3,0.9l4.6,0.7c1.4,0.2,2,1.9,0.9,2.9l-3.3,3.3c-0.4,0.4-0.6,1-0.5,1.5
		l0.8,4.6c0.2,1.4-1.2,2.4-2.5,1.8l-4.2-2.1c-0.5-0.3-1.1-0.3-1.6,0L30,60.8c-1.2,0.7-2.7-0.4-2.5-1.8l0.8-4.6
		c0.1-0.5-0.1-1.1-0.5-1.5l-3.4-3.3c-1-1-0.5-2.7,0.9-2.9l4.6-0.7c0.6-0.1,1-0.4,1.3-0.9l2.1-4.2C34.1,39.7,35.9,39.7,36.5,40.9z"/>
</g>
</svg>
