<?xml version="1.0" encoding="utf-8"?>
<!-- Generator: Adobe Illustrator 25.2.1, SVG Export Plug-In . SVG Version: 6.00 Build 0)  -->
<svg version="1.1" id="Layer_1" xmlns="http://www.w3.org/2000/svg" xmlns:xlink="http://www.w3.org/1999/xlink" x="0px" y="0px"
	 viewBox="0 0 70 70" style="enable-background:new 0 0 70 70;" xml:space="preserve">
<style type="text/css">
	.st0{fill:none;stroke:#292929;stroke-width:2;stroke-linecap:round;stroke-linejoin:round;stroke-miterlimit:10;}
</style>
<path class="st0" d="M38.6,12.2l4.9,9.9c0.6,1.2,1.7,2,3,2.2l11,1.6c3.3,0.5,4.6,4.6,2.2,6.8l-7.9,7.8c-0.9,0.9-1.4,2.3-1.1,3.6
	l1.9,10.9c0.5,3.3-2.9,5.8-5.8,4.2l-9.9-5.1c-1.1-0.6-2.5-0.6-3.8,0l-9.8,5.2c-3,1.5-6.4-0.9-5.8-4.2l1.9-10.9
	c0.2-1.3-0.2-2.6-1.1-3.6l-8-7.8c-2.4-2.3-1.1-6.4,2.2-6.8l11-1.6c1.3-0.2,2.4-1,3-2.2l4.9-9.9C32.9,9.3,37.1,9.3,38.6,12.2z"/>
</svg>
