<?xml version="1.0" encoding="utf-8"?>
<!-- Generator: Adobe Illustrator 25.2.3, SVG Export Plug-In . SVG Version: 6.00 Build 0)  -->
<svg version="1.1" id="Layer_1" xmlns="http://www.w3.org/2000/svg" xmlns:xlink="http://www.w3.org/1999/xlink" x="0px" y="0px"
	 viewBox="0 0 70 70" style="enable-background:new 0 0 70 70;" xml:space="preserve">
<style type="text/css">
	.st0{fill:none;stroke:#292929;stroke-width:2;stroke-linecap:round;stroke-linejoin:round;}
	.st1{fill:none;stroke:#292929;stroke-width:2;stroke-linecap:round;stroke-linejoin:round;stroke-miterlimit:10;}
</style>
<g>
	<path class="st0" d="M14,13h42c3.3,0,6,2.7,6,6v32c0,3.3-2.7,6-6,6H14c-3.3,0-6-2.7-6-6V19C8,15.7,10.7,13,14,13z"/>
</g>
<path class="st1" d="M15,31.7c0,0,2.8-3,3.9-3.1c0.8-0.1,2.3,1.8,3.1,1.5c1-0.4,2-4.8,3.1-5.1c0.6-0.2,1.6,2.3,2.3,2.1
	c1.4-0.3,4.2-6.4,4.2-6.4"/>
<g>
	<path class="st1" d="M15.1,42.3h26.5"/>
	<path class="st1" d="M15.1,48.8h20.7"/>
</g>
<g>
	<path class="st1" d="M54.9,26.3c0-4.3-3.5-7.9-7.9-7.9"/>
	<path class="st1" d="M54.9,26.3c0,3.2-1.9,6-4.7,7.2"/>
	<path class="st1" d="M47,18.4c-4.3,0-7.9,3.5-7.9,7.9s3.5,7.9,7.9,7.9c1.1,0,2.2-0.2,3.1-0.7"/>
	<path class="st1" d="M54.9,26.3H47l0-7.9v7.5c0,0.2,0.1,0.5,0.1,0.7l3,6.9"/>
</g>
</svg>
