<?xml version="1.0" encoding="utf-8"?>
<!-- Generator: Adobe Illustrator 25.4.1, SVG Export Plug-In . SVG Version: 6.00 Build 0)  -->
<svg version="1.1" id="Layer_1" xmlns="http://www.w3.org/2000/svg" xmlns:xlink="http://www.w3.org/1999/xlink" x="0px" y="0px"
	 viewBox="0 0 70 70" style="enable-background:new 0 0 70 70;" xml:space="preserve">
<style type="text/css">
	.st0{fill:none;stroke:#292929;stroke-width:2;stroke-miterlimit:10;}
	.st1{fill:none;stroke:#292929;stroke-width:2;stroke-linecap:round;stroke-linejoin:round;stroke-miterlimit:10;}
</style>
<path class="st0" d="M21.4,29.2l5.4-19C27.2,8.9,28.3,8,29.7,8h10.5c1.3,0,2.5,0.9,2.9,2.2l5.4,19"/>
<path class="st0" d="M21.4,40.8l5.4,19c0.4,1.3,1.5,2.2,2.9,2.2h10.5c1.3,0,2.5-0.9,2.9-2.2l5.4-19"/>
<circle class="st0" cx="34.9" cy="35" r="14.8"/>
<path class="st1" d="M49.6,32.6h2.5c0.6,0,1,0.4,1,1v2.9c0,0.6-0.4,1-1,1h-2.5"/>
<polyline class="st1" points="42.6,27.4 34.9,35 30.2,30.2 "/>
</svg>
