<?xml version="1.0" encoding="utf-8"?>
<!-- Generator: Adobe Illustrator 25.4.1, SVG Export Plug-In . SVG Version: 6.00 Build 0)  -->
<svg version="1.1" id="Layer_1" xmlns="http://www.w3.org/2000/svg" xmlns:xlink="http://www.w3.org/1999/xlink" x="0px" y="0px"
	 viewBox="0 0 70 70" style="enable-background:new 0 0 70 70;" xml:space="preserve">
<style type="text/css">
	.st0{fill:none;stroke:#292929;stroke-width:2;stroke-miterlimit:10;}
</style>
<path class="st0" d="M56.2,26.1H42.1c-1.7,0-3-1.3-3-3V11c0-1.7,1.3-3,3-3h14.1c1.7,0,3,1.3,3,3v12.1C59.2,24.7,57.9,26.1,56.2,26.1
	z"/>
<path class="st0" d="M27.9,35.5H13.8c-1.7,0-3-1.3-3-3V11c0-1.7,1.3-3,3-3h14.1c1.7,0,3,1.3,3,3v21.5C30.9,34.1,29.6,35.5,27.9,35.5
	z"/>
<path class="st0" d="M56.2,62H42.1c-1.7,0-3-1.3-3-3V37.5c0-1.7,1.3-3,3-3h14.1c1.7,0,3,1.3,3,3V59C59.2,60.7,57.9,62,56.2,62z"/>
<path class="st0" d="M27.9,62H13.8c-1.7,0-3-1.3-3-3V46.9c0-1.7,1.3-3,3-3h14.1c1.7,0,3,1.3,3,3V59C30.9,60.7,29.6,62,27.9,62z"/>
</svg>
