<?xml version="1.0" encoding="utf-8"?>
<!-- Generator: Adobe Illustrator 25.4.1, SVG Export Plug-In . SVG Version: 6.00 Build 0)  -->
<svg version="1.1" id="Layer_1" xmlns="http://www.w3.org/2000/svg" xmlns:xlink="http://www.w3.org/1999/xlink" x="0px" y="0px"
	 viewBox="0 0 70 70" style="enable-background:new 0 0 70 70;" xml:space="preserve">
<style type="text/css">
	.st0{fill:none;stroke:#292929;stroke-width:2;stroke-miterlimit:10;}
</style>
<path class="st0" d="M48.1,48.6l-4.6,0c-1.3,0-2.4-0.8-2.8-2c-1.8-5.3-9.7-5.3-11.4,0c-0.4,1.2-1.6,2-2.8,2l-4.6,0
	C22.6,31.1,47.4,31.2,48.1,48.6h7.1c-1.1-26.8-39.3-26.8-40.4,0h7.1l-10.9,0c-1.8,0-3.2-1.6-3-3.4c4.3-31.6,49.6-31.6,53.9,0
	c0.2,1.8-1.2,3.4-3,3.4l-3.8,0"/>
</svg>
