<?xml version="1.0" encoding="utf-8"?>
<!-- Generator: Adobe Illustrator 25.4.1, SVG Export Plug-In . SVG Version: 6.00 Build 0)  -->
<svg version="1.1" id="Layer_1" xmlns="http://www.w3.org/2000/svg" xmlns:xlink="http://www.w3.org/1999/xlink" x="0px" y="0px"
	 viewBox="0 0 70 70" style="enable-background:new 0 0 70 70;" xml:space="preserve">
<style type="text/css">
	.st0{fill:none;stroke:#292929;stroke-width:2;stroke-linecap:round;stroke-linejoin:round;stroke-miterlimit:10;}
	.st1{fill:#292929;stroke:#292929;stroke-width:2;stroke-linecap:round;stroke-linejoin:round;stroke-miterlimit:10;}
</style>
<path class="st0" d="M54.1,9.4l1.6,4.9c0.1,0.3,0.4,0.6,0.7,0.7l4.9,1.6c0.9,0.3,0.9,1.6,0,1.9L56.4,20c-0.3,0.1-0.6,0.4-0.7,0.7
	l-1.6,4.9c-0.3,0.9-1.6,0.9-1.9,0l-1.7-4.7c-0.1-0.3-0.4-0.6-0.7-0.7L45,18.6c-0.9-0.3-0.9-1.6,0-1.9l4.9-1.6
	c0.3-0.1,0.6-0.4,0.7-0.7l1.6-4.9C52.5,8.5,53.8,8.5,54.1,9.4z"/>
<path class="st0" d="M51.5,35.5l0.8,2.7c0.1,0.3,0.3,0.5,0.6,0.6l2.7,0.8c0.7,0.3,0.7,1.3,0,1.5l-2.7,0.8c-0.3,0.1-0.5,0.3-0.6,0.6
	l-0.8,2.7c-0.3,0.7-1.3,0.7-1.5,0l-0.8-2.7c-0.1-0.3-0.3-0.5-0.6-0.6l-2.7-0.8c-0.7-0.3-0.7-1.3,0-1.5l2.7-0.8
	c0.3-0.1,0.5-0.3,0.6-0.6l0.8-2.7C50.3,34.8,51.3,34.8,51.5,35.5z"/>
<path class="st1" d="M36.8,39.2l-6.7-6.7L8.9,53.7c-1.2,1.2-1.2,3.1,0,4.2l2.4,2.4c1.2,1.2,3.1,1.2,4.2,0L36.8,39.2z"/>
<path class="st0" d="M36.8,39.2l7.5-7.5c1.2-1.2,1.2-3.1,0-4.2L41.8,25c-1.2-1.2-3.1-1.2-4.2,0l-7.5,7.5L36.8,39.2L36.8,39.2z"/>
</svg>
