<?xml version="1.0" encoding="utf-8"?>
<!-- Generator: Adobe Illustrator 25.4.1, SVG Export Plug-In . SVG Version: 6.00 Build 0)  -->
<svg version="1.1" id="Layer_1" xmlns="http://www.w3.org/2000/svg" xmlns:xlink="http://www.w3.org/1999/xlink" x="0px" y="0px"
	 viewBox="0 0 70 70" style="enable-background:new 0 0 70 70;" xml:space="preserve">
<style type="text/css">
	.st0{fill:none;stroke:#292929;stroke-width:2;stroke-linecap:round;stroke-linejoin:round;stroke-miterlimit:10;}
</style>
<g>
	<path class="st0" d="M11,20h48c1.7,0,3,1.3,3,3v24c0,1.7-1.3,3-3,3H11c-1.7,0-3-1.3-3-3V23C8,21.3,9.3,20,11,20z"/>
	<circle class="st0" cx="46.7" cy="35" r="5.3"/>
	<line class="st0" x1="46.7" y1="29.7" x2="46.7" y2="35"/>
	<g>
		<rect x="14" y="24.9" class="st0" width="18" height="6.4"/>
		<line class="st0" x1="14" y1="35.7" x2="18.3" y2="35.7"/>
		<line class="st0" x1="20.8" y1="35.7" x2="25.2" y2="35.7"/>
		<line class="st0" x1="27.7" y1="35.7" x2="32" y2="35.7"/>
		<line class="st0" x1="14" y1="39.7" x2="18.3" y2="39.7"/>
		<line class="st0" x1="20.8" y1="39.7" x2="25.2" y2="39.7"/>
		<line class="st0" x1="27.7" y1="39.7" x2="32" y2="39.7"/>
		<line class="st0" x1="14" y1="43.7" x2="18.3" y2="43.7"/>
		<line class="st0" x1="20.8" y1="43.7" x2="25.2" y2="43.7"/>
		<line class="st0" x1="27.7" y1="43.7" x2="32" y2="43.7"/>
	</g>
</g>
</svg>
