<?xml version="1.0" encoding="utf-8"?>
<!-- Generator: Adobe Illustrator 25.2.1, SVG Export Plug-In . SVG Version: 6.00 Build 0)  -->
<svg version="1.1" id="Layer_1" xmlns="http://www.w3.org/2000/svg" xmlns:xlink="http://www.w3.org/1999/xlink" x="0px" y="0px"
	 viewBox="0 0 70 70" style="enable-background:new 0 0 70 70;" xml:space="preserve">
<style type="text/css">
	.st0{fill:none;stroke:#000000;stroke-width:2;stroke-linecap:round;stroke-linejoin:round;stroke-miterlimit:10;}
</style>
<path class="st0" d="M35,8C6.2,8,21.2,50.6,21.2,50.6c0.4,2.3,2.4,4,4.7,4H35h9.1c2.3,0,4.3-1.7,4.7-4C48.8,50.6,63.8,8,35,8z"/>
<g>
	<line class="st0" x1="30.6" y1="55" x2="30.6" y2="62"/>
	<line class="st0" x1="39.4" y1="55" x2="39.4" y2="61.9"/>
</g>
<line class="st0" x1="35" y1="23.3" x2="35" y2="31.5"/>
<path class="st0" d="M43.9,23.3c0-9.2-17.7-9.2-17.7,0"/>
<path class="st0" d="M38,46.1h-6c-1.5,0-2.7-1.1-3-2.5l-0.6-3.4c0-1.7,1.3-3,3-3h7.1c1.7,0,3,1.3,3,3L41,43.6
	C40.7,45,39.5,46.1,38,46.1z"/>
</svg>
