<?xml version="1.0" encoding="utf-8"?>
<!-- Generator: Adobe Illustrator 25.4.1, SVG Export Plug-In . SVG Version: 6.00 Build 0)  -->
<svg version="1.1" id="Layer_1" xmlns="http://www.w3.org/2000/svg" xmlns:xlink="http://www.w3.org/1999/xlink" x="0px" y="0px"
	 viewBox="0 0 70 70" style="enable-background:new 0 0 70 70;" xml:space="preserve">
<style type="text/css">
	.st0{fill:none;stroke:#292929;stroke-width:2;stroke-linecap:round;stroke-linejoin:round;stroke-miterlimit:10;}
</style>
<g>
	<path class="st0" d="M42.4,25.9c-9.4-1-20.6-0.4-27.3,2.1c3-7.5,10.3-12.8,18.9-12.8c3,0,5.8,0.6,8.3,1.8"/>
	<path class="st0" d="M40.5,54.7c2.8-0.9,5.1-2.2,7.2-4c3.9-3.5,6.2-8.6,6.6-14.6C43.1,38.3,40.8,48.8,40.5,54.7z"/>
	<path class="st0" d="M13.8,36.1c0.4,6,2.7,11.1,6.6,14.6c2.1,1.8,4.4,3.2,7.2,4C27.3,48.8,25,38.3,13.8,36.1z"/>
	<path class="st0" d="M47.3,12.7c-3.9-2.3-8.4-3.6-13.3-3.6c-14.4,0-26,11.7-26,26c1.3,34.5,50.7,34.5,52,0c0-4.2-1-8.1-2.8-11.6"/>
	<path class="st0" d="M50,9.5l3.3,6.6c0.1,0.2,0.3,0.4,0.7,0.5l7.3,1.1c0.7,0.1,1,1,0.5,1.3l-5.3,5.2c-0.2,0.2-0.3,0.5-0.2,0.7
		l1.3,7.2c0.1,0.7-0.6,1.2-1.2,0.9l-6.6-3.5c-0.2-0.2-0.6-0.2-0.8,0L42.5,33c-0.7,0.3-1.3-0.2-1.2-0.9l1.3-7.2
		c0.1-0.2-0.1-0.6-0.2-0.7L37.1,19c-0.5-0.5-0.2-1.3,0.5-1.3l7.3-1.1c0.2,0,0.5-0.2,0.7-0.5l3.3-6.6C48.9,8.9,49.7,8.9,50,9.5z"/>
</g>
</svg>
