<?xml version="1.0" encoding="utf-8"?>
<!-- Generator: Adobe Illustrator 25.2.1, SVG Export Plug-In . SVG Version: 6.00 Build 0)  -->
<svg version="1.1" id="Layer_1" xmlns="http://www.w3.org/2000/svg" xmlns:xlink="http://www.w3.org/1999/xlink" x="0px" y="0px"
	 viewBox="0 0 70 70" style="enable-background:new 0 0 70 70;" xml:space="preserve">
<style type="text/css">
	.st0{fill:none;stroke:#000000;stroke-width:2;stroke-miterlimit:10;}
</style>
<g>
	<path class="st0" d="M61.7,37.2L58.2,50c-1.4,5.2-6.1,8.8-11.5,8.8H22.3c0,0-0.2-25.5,0-25.9l11.1-19.4c1.3-1.6,3.1-2.4,5-2.3
		c3.2,0.2,5.7,3,5.7,6.2l0,5.7c0,2.2,1.8,4,4,4h6c2.5,0,4.8,1.1,6.3,3.2C61.9,32.2,62.4,34.8,61.7,37.2z"/>
	<path class="st0" d="M11,58.8h11.3V32.9H11c-1.7,0-3,1.3-3,3v19.9C8,57.4,9.3,58.8,11,58.8z"/>
</g>
</svg>
