<?xml version="1.0" encoding="utf-8"?>
<!-- Generator: Adobe Illustrator 25.4.1, SVG Export Plug-In . SVG Version: 6.00 Build 0)  -->
<svg version="1.1" id="Layer_1" xmlns="http://www.w3.org/2000/svg" xmlns:xlink="http://www.w3.org/1999/xlink" x="0px" y="0px"
	 viewBox="0 0 70 70" style="enable-background:new 0 0 70 70;" xml:space="preserve">
<style type="text/css">
	.st0{fill:none;stroke:#292929;stroke-width:2;stroke-linecap:round;stroke-linejoin:round;stroke-miterlimit:10;}
</style>
<g>
	<path class="st0" d="M59,43.9H11c-1.7,0-3-1.3-3-3v-24c0-1.7,1.3-3,3-3h48c1.7,0,3,1.3,3,3v24C62,42.5,60.7,43.9,59,43.9z"/>
	<line class="st0" x1="13" y1="43.9" x2="13" y2="56.1"/>
	<line class="st0" x1="57" y1="43.9" x2="57" y2="56.1"/>
	<g>
		<polygon class="st0" points="29,37.9 18,37.9 23.5,30.6 29,23.3 34.5,30.6 39.9,37.9 		"/>
		<polyline class="st0" points="31.9,27.2 37.8,19.5 44.9,28.7 52,37.9 39.9,37.9 		"/>
	</g>
</g>
</svg>
