<?xml version="1.0" encoding="utf-8"?>
<!-- Generator: Adobe Illustrator 25.4.1, SVG Export Plug-In . SVG Version: 6.00 Build 0)  -->
<svg version="1.1" id="Layer_1" xmlns="http://www.w3.org/2000/svg" xmlns:xlink="http://www.w3.org/1999/xlink" x="0px" y="0px"
	 viewBox="0 0 70 70" style="enable-background:new 0 0 70 70;" xml:space="preserve">
<style type="text/css">
	.st0{fill:none;stroke:#292929;stroke-width:2;stroke-linecap:round;stroke-linejoin:round;stroke-miterlimit:10;}
</style>
<g>
	<path class="st0" d="M56,27H19.2c-3.3,0-6-2.7-6-6v-6.3c0-3.3,2.7-6,6-6H56c3.3,0,6,2.7,6,6V21C62,24.4,59.3,27,56,27z"/>
	<path class="st0" d="M30.2,61.3V48.8c0-1.7,1.3-3,3-3h8.1c1.7,0,3,1.3,3,3v12.5"/>
	<path class="st0" d="M13.2,17.9H11c-1.7,0-3,1.3-3,3v8.2c0,3.3,2.7,6,6,6h17.2c3.3,0,6,2.7,6,6v4.7"/>
</g>
</svg>
