<?xml version="1.0" encoding="utf-8"?>
<!-- Generator: Adobe Illustrator 25.4.1, SVG Export Plug-In . SVG Version: 6.00 Build 0)  -->
<svg version="1.1" id="Layer_1" xmlns="http://www.w3.org/2000/svg" xmlns:xlink="http://www.w3.org/1999/xlink" x="0px" y="0px"
	 viewBox="0 0 70 70" style="enable-background:new 0 0 70 70;" xml:space="preserve">
<style type="text/css">
	.st0{fill:none;stroke:#292929;stroke-width:2;stroke-linecap:round;stroke-linejoin:round;stroke-miterlimit:10;}
	.st1{fill:none;stroke:#292929;stroke-width:2;stroke-miterlimit:10;}
</style>
<path class="st0" d="M51,19.7c5.7-1.8,9.7-2,10.8-0.2c1,1.8-1.2,5.2-5.5,9.2c-4.2,3.9-10.4,8.3-17.6,12.5s-14.2,7.3-19.6,9
	c-5.7,1.8-9.7,2-10.8,0.2c-1-1.8,1.2-5.2,5.5-9.2"/>
<g>
	<path class="st1" d="M35.9,12.4L35.9,12.4c2.8-0.2,8.2,3.1,9.6,5.4"/>
	<g>
		<path class="st1" d="M44.9,19c2.4-4.2,2.3-10.1,1.8-12.4c-0.1-0.8-0.9-1.2-1.6-1c-2.3,0.8-7.4,3.6-9.9,7.8
			c-0.2,0.4-0.5,0.8-0.6,1.1c-0.8,1.8-2.8,7.3-2.8,7.3c-0.4,1.1,0,2.4,1.1,3l3.2,1.8c1,0.6,2.4,0.4,3.1-0.6c0,0,3.8-4.4,4.9-6
			C44.4,19.8,44.6,19.4,44.9,19z"/>
		<path class="st1" d="M44,20.4C44,20.4,44.1,20.4,44,20.4c1.3,2.4,0,6-0.9,7.9c-0.3,0.7-1.1,0.9-1.7,0.5L38.1,27"/>
		<path class="st1" d="M34.4,14.9c-2.8,0.2-5.2,3-6.4,4.6c-0.4,0.6-0.2,1.4,0.4,1.8l3.3,1.9"/>
	</g>
</g>
<path class="st0" d="M35.5,12.9c-0.2,0-0.4,0-0.5,0c-12.2,0-22.1,9.9-22.1,22.1c0,12.2,9.9,22.1,22.1,22.1
	c12.2,0,22.1-9.9,22.1-22.1c0-8.1-4.4-15.2-10.9-19.1"/>
</svg>
