<?xml version="1.0" encoding="utf-8"?>
<!-- Generator: Adobe Illustrator 25.2.1, SVG Export Plug-In . SVG Version: 6.00 Build 0)  -->
<svg version="1.1" id="Layer_1" xmlns="http://www.w3.org/2000/svg" xmlns:xlink="http://www.w3.org/1999/xlink" x="0px" y="0px"
	 viewBox="0 0 70 70" style="enable-background:new 0 0 70 70;" xml:space="preserve">
<style type="text/css">
	.st0{fill:none;stroke:#000000;stroke-width:2;stroke-linecap:round;stroke-linejoin:round;stroke-miterlimit:10;}
</style>
<path class="st0" d="M33.2,43.6H8"/>
<path class="st0" d="M55.9,43.6H62"/>
<path class="st0" d="M19.6,26.7H8"/>
<path class="st0" d="M42.1,26.7H62"/>
<path class="st0" d="M24,22.2h13.7c2.4,0,4.4,2,4.4,4.4v0c0,2.4-2,4.4-4.4,4.4H24c-2.4,0-4.4-2-4.4-4.4v0
	C19.6,24.2,21.6,22.2,24,22.2z"/>
<path class="st0" d="M37.7,39.2h13.7c2.4,0,4.4,2,4.4,4.4v0c0,2.4-2,4.4-4.4,4.4H37.7c-2.4,0-4.4-2-4.4-4.4v0
	C33.2,41.1,35.2,39.2,37.7,39.2z"/>
</svg>
