<?xml version="1.0" encoding="utf-8"?>
<!-- Generator: Adobe Illustrator 25.4.1, SVG Export Plug-In . SVG Version: 6.00 Build 0)  -->
<svg version="1.1" id="Layer_1" xmlns="http://www.w3.org/2000/svg" xmlns:xlink="http://www.w3.org/1999/xlink" x="0px" y="0px"
	 viewBox="0 0 70 70" style="enable-background:new 0 0 70 70;" xml:space="preserve">
<style type="text/css">
	.st0{fill:none;stroke:#292929;stroke-width:2;stroke-linecap:round;stroke-linejoin:round;stroke-miterlimit:10;}
	.st1{fill:none;stroke:#292929;stroke-width:2;stroke-linecap:round;stroke-linejoin:round;}
</style>
<polyline class="st0" points="28.8,26.4 35,17.3 41.2,26.4 "/>
<g>
	<path class="st0" d="M35,8.5v8.8V8.5z"/>
	<path class="st1" d="M35,12.1c0,0,0.3-0.3,1.4-0.3c1.1,0,1.8,0.6,2.8,0.6c0.5,0,0.8-0.1,1.1-0.2c0.2-0.1,0.3-0.3,0.3-0.5V9
		c0-0.3-0.3-0.5-0.7-0.5c-0.2,0-0.5,0.1-0.8,0.1c-1.1,0-1.8-0.6-2.8-0.6c-1,0-1.4,0.5-1.4,0.5V12.1z"/>
</g>
<polyline class="st0" points="28.8,39.9 28.8,26.4 41.2,26.4 41.2,39.9 "/>
<path class="st0" d="M32.6,35.9v-3.1c0-1.3,1.1-2.4,2.4-2.4h0c1.3,0,2.4,1.1,2.4,2.4v3.1H32.6z"/>
<path class="st0" d="M28.8,62H15.9c-1.7,0-3-1.3-3-3V39.9v-4.5h4.7v4.5h3.8v-4.5h4.7v4.5h17.7v-4.5h4.7v4.5h3.8v-4.5h4.7v4.5V59
	c0,1.7-1.3,3-3,3c0,0-12.9,0-12.9,0v-8c0-3.4-2.8-6.2-6.2-6.2h0c-3.4,0-6.2,2.8-6.2,6.2C28.8,54,28.8,62,28.8,62z"/>
</svg>
