<?xml version="1.0" encoding="utf-8"?>
<!-- Generator: Adobe Illustrator 25.4.1, SVG Export Plug-In . SVG Version: 6.00 Build 0)  -->
<svg version="1.1" id="Layer_1" xmlns="http://www.w3.org/2000/svg" xmlns:xlink="http://www.w3.org/1999/xlink" x="0px" y="0px"
	 viewBox="0 0 70 70" style="enable-background:new 0 0 70 70;" xml:space="preserve">
<style type="text/css">
	.st0{fill:none;stroke:#292929;stroke-width:2;stroke-miterlimit:10;}
</style>
<g>
	<path class="st0" d="M50.1,28.8c-0.1,0-0.2,0-0.3,0c-2.7-4.9-8-8.3-14-8.3c-5.4,0-10.2,2.7-13.1,6.8c-0.6,0.9-1.7,1.5-2.8,1.4h-0.1
		C13.3,28.8,8,34.1,8,40.6c0,6.4,5,11.6,11.4,11.8l0,0h30.4c6.4,0,11.9-4.9,12.2-11.3C62.3,34.4,56.9,28.8,50.1,28.8z"/>
	<path class="st0" d="M11,33.2c-0.7-1.4-1.1-3-1.1-4.7c0-6,4.8-10.8,10.8-10.8c3.7,0,6.3,1.6,8.3,4.4"/>
</g>
</svg>
