<?xml version="1.0" encoding="utf-8"?>
<!-- Generator: Adobe Illustrator 25.4.1, SVG Export Plug-In . SVG Version: 6.00 Build 0)  -->
<svg version="1.1" id="Layer_1" xmlns="http://www.w3.org/2000/svg" xmlns:xlink="http://www.w3.org/1999/xlink" x="0px" y="0px"
	 viewBox="0 0 70 70" style="enable-background:new 0 0 70 70;" xml:space="preserve">
<style type="text/css">
	.st0{fill:none;stroke:#292929;stroke-width:2;stroke-linecap:round;stroke-linejoin:round;stroke-miterlimit:10;}
</style>
<g>
	<path class="st0" d="M61.2,51.2l-6.1,6.5c-1.1,1.2-3,1.3-4.2,0.1L17.3,26.5c-1.2-1.1-1.3-3-0.1-4.2l6.1-6.5c1.1-1.2,3-1.3,4.2-0.1
		L61,47C62.3,48.1,62.3,50,61.2,51.2z"/>
	<path class="st0" d="M16.5,23L8,15l10.3-3.2c1-0.3,2.1-0.1,2.9,0.7l2.7,2.6"/>
	<path class="st0" d="M50.7,52.6l-6.8-6.3c-1.2-1.1-1.3-3-0.1-4.2l1-1c1.1-1.2,3-1.3,4.2-0.1l6.8,6.3c1.2,1.1,1.3,3,0.1,4.2l-1,1
		C53.8,53.6,51.9,53.7,50.7,52.6z"/>
	<line class="st0" x1="37.7" y1="39.9" x2="44.7" y2="37.3"/>
	<line class="st0" x1="33.2" y1="35.7" x2="40.2" y2="33.1"/>
	<line class="st0" x1="29" y1="31.8" x2="36" y2="29.2"/>
	<line class="st0" x1="24.8" y1="27.8" x2="31.8" y2="25.3"/>
	<path class="st0" d="M47.7,49.7L23.3,26.4c-1.2-1.2-1.3-3.1-0.1-4.3l0.3-0.4c1.2-1.2,3.1-1.3,4.3-0.1l24.9,22.7"/>
</g>
</svg>
