<?xml version="1.0" encoding="utf-8"?>
<!-- Generator: Adobe Illustrator 25.4.1, SVG Export Plug-In . SVG Version: 6.00 Build 0)  -->
<svg version="1.1" id="Layer_1" xmlns="http://www.w3.org/2000/svg" xmlns:xlink="http://www.w3.org/1999/xlink" x="0px" y="0px"
	 viewBox="0 0 70 70" style="enable-background:new 0 0 70 70;" xml:space="preserve">
<style type="text/css">
	.st0{fill:none;stroke:#292929;stroke-width:2;stroke-linecap:round;stroke-linejoin:round;stroke-miterlimit:10;}
	.st1{fill:none;stroke:#292929;stroke-width:2;stroke-linecap:round;stroke-linejoin:round;}
</style>
<path class="st0" d="M17.8,62l15.1-28.7c0.9-1.7,3.4-1.7,4.3,0l15,28.7"/>
<g>
	<path class="st0" d="M35,9.2V32V9.2z"/>
	<path class="st1" d="M35,18.5c0,0,0.9-0.8,3.7-0.8s4.6,1.6,7.3,1.6c1.3,0,2.2-0.2,2.8-0.4c0.6-0.2,0.9-0.7,0.9-1.2v-7.1
		c0-0.8-0.8-1.4-1.7-1.2c-0.5,0.1-1.2,0.2-2,0.2c-2.8,0-4.6-1.6-7.3-1.6S35,9.2,35,9.2V18.5z"/>
</g>
<g>
	<path class="st0" d="M26.7,45l5.3,5.6c1.1,1.2,3,1.2,4.1-0.1l0.5-0.5c1.1-1.2,3.3-2,5-1.7l3.8,0.7"/>
</g>
</svg>
