<?xml version="1.0" encoding="utf-8"?>
<!-- Generator: Adobe Illustrator 25.4.1, SVG Export Plug-In . SVG Version: 6.00 Build 0)  -->
<svg version="1.1" id="Layer_1" xmlns="http://www.w3.org/2000/svg" xmlns:xlink="http://www.w3.org/1999/xlink" x="0px" y="0px"
	 viewBox="0 0 70 70" style="enable-background:new 0 0 70 70;" xml:space="preserve">
<style type="text/css">
	.st0{fill:none;stroke:#292929;stroke-width:2;stroke-linecap:round;stroke-linejoin:round;stroke-miterlimit:10;}
</style>
<g>
	<path class="st0" d="M35,45.5c-5.8,0-10.5-4.7-10.5-10.5c0-5.8,4.7-10.5,10.5-10.5c5.8,0,10.5,4.7,10.5,10.5
		C45.5,40.8,40.8,45.5,35,45.5z"/>
	<circle class="st0" cx="12.2" cy="35" r="4.2"/>
	<circle class="st0" cx="57.8" cy="35" r="4.2"/>
	<path class="st0" d="M12.6,30.8c2-10.6,11.3-18.6,22.4-18.6c9.3,0,17.4,5.7,20.9,13.7"/>
	<path class="st0" d="M57.4,39.2c-2,10.6-11.3,18.6-22.4,18.6c-9.3,0-17.4-5.7-20.9-13.7"/>
</g>
</svg>
