<?xml version="1.0" encoding="utf-8"?>
<!-- Generator: Adobe Illustrator 25.4.1, SVG Export Plug-In . SVG Version: 6.00 Build 0)  -->
<svg version="1.1" id="Layer_1" xmlns="http://www.w3.org/2000/svg" xmlns:xlink="http://www.w3.org/1999/xlink" x="0px" y="0px"
	 viewBox="0 0 70 70" style="enable-background:new 0 0 70 70;" xml:space="preserve">
<style type="text/css">
	.st0{fill:none;stroke:#292929;stroke-width:2;stroke-linecap:round;stroke-linejoin:round;}
</style>
<g>
	<circle class="st0" cx="45.1" cy="49.3" r="12.7"/>
	<g>
		<path class="st0" d="M52.4,49.5c-0.7-0.7-2.3-2.1-6.5-2.1c-7.5,0-8,5-8,5"/>
		<path class="st0" d="M51.8,46.3l0.7,3.5L49,50.5"/>
	</g>
	<path class="st0" d="M49,36.7V10.8C49,9.3,47.7,8,46.2,8H15.1c-1.6,0-2.8,1.3-2.8,2.8v41.6c0,1.6,1.3,2.8,2.8,2.8h18.8"/>
	<line class="st0" x1="17.8" y1="14" x2="17.8" y2="43.8"/>
	<line class="st0" x1="43.6" y1="14" x2="43.6" y2="36.7"/>
	<line class="st0" x1="17.8" y1="14" x2="43.6" y2="14"/>
	<line class="st0" x1="17.8" y1="43.8" x2="33.7" y2="43.8"/>
	<line class="st0" x1="17.8" y1="23.8" x2="43.6" y2="23.8"/>
	<line class="st0" x1="17.8" y1="33.5" x2="43.6" y2="33.5"/>
	<line class="st0" x1="27.7" y1="14" x2="27.7" y2="43.8"/>
</g>
</svg>
