<?xml version="1.0" encoding="utf-8"?>
<!-- Generator: Adobe Illustrator 25.4.1, SVG Export Plug-In . SVG Version: 6.00 Build 0)  -->
<svg version="1.1" id="Layer_1" xmlns="http://www.w3.org/2000/svg" xmlns:xlink="http://www.w3.org/1999/xlink" x="0px" y="0px"
	 viewBox="0 0 70 70" style="enable-background:new 0 0 70 70;" xml:space="preserve">
<style type="text/css">
	.st0{fill:none;stroke:#292929;stroke-width:2;stroke-linecap:round;stroke-linejoin:round;stroke-miterlimit:10;}
	.st1{fill:none;stroke:#292929;stroke-width:2;stroke-linecap:round;stroke-linejoin:round;stroke-miterlimit:9.9996;}
</style>
<path class="st0" d="M47.5,22.2v-3.5c0-3.3-2.7-6-6-6h-13c-3.3,0-6,2.7-6,6v3.5"/>
<path class="st0" d="M11,22.2h48c1.7,0,3,1.3,3,3v29c0,1.7-1.3,3-3,3H11c-1.7,0-3-1.3-3-3v-29C8,23.6,9.3,22.2,11,22.2z"/>
<rect x="13" y="29.6" transform="matrix(0.9925 -0.1219 0.1219 0.9925 -3.9213 2.6021)" class="st1" width="12.6" height="7.5"/>
<line class="st0" x1="17" y1="29.8" x2="17.9" y2="37.2"/>
<polygon class="st0" points="56,33.5 52.1,32.1 48.9,34.8 49.6,38.9 53.5,40.3 56.7,37.6 "/>
<polygon class="st0" points="49.4,43.9 52.2,47.6 55,51.4 50.4,51.9 45.8,52.5 47.6,48.2 "/>
</svg>
