<?xml version="1.0" encoding="utf-8"?>
<!-- Generator: Adobe Illustrator 25.2.1, SVG Export Plug-In . SVG Version: 6.00 Build 0)  -->
<svg version="1.1" id="Layer_1" xmlns="http://www.w3.org/2000/svg" xmlns:xlink="http://www.w3.org/1999/xlink" x="0px" y="0px"
	 viewBox="0 0 70 70" style="enable-background:new 0 0 70 70;" xml:space="preserve">
<style type="text/css">
	.st0{fill:none;stroke:#292929;stroke-width:2;stroke-linecap:round;stroke-linejoin:round;}
</style>
<g>
	<g>
		<path class="st0" d="M14,8h42c3.3,0,6,2.7,6,6v42c0,3.3-2.7,6-6,6H14c-3.3,0-6-2.7-6-6V14C8,10.7,10.7,8,14,8z"/>
	</g>
	<g>
		<g>
			<path class="st0" d="M8,24.1c1.9-0.3,3.8-0.4,5.8-0.4c13.7,0,25.7,7.2,32.5,17.9"/>
			<path class="st0" d="M8,36.3c1.9-0.4,3.8-0.6,5.8-0.6c10.8,0,20,6.5,24.1,15.7"/>
		</g>
		<path class="st0" d="M62,33.7c-5.9,1.4-11.3,4.1-15.8,7.9c-3.3,2.8-6.1,6.1-8.3,9.8c-2,3.3-3.4,6.9-4.4,10.7"/>
		<path class="st0" d="M46,62c1.2-3.2,2.9-6.1,5.1-8.6c2.9-3.3,6.6-5.8,10.9-7.3"/>
	</g>
	<circle class="st0" cx="49.3" cy="20.7" r="7.7"/>
</g>
</svg>
