<?xml version="1.0" encoding="utf-8"?>
<!-- Generator: Adobe Illustrator 25.4.1, SVG Export Plug-In . SVG Version: 6.00 Build 0)  -->
<svg version="1.1" id="Layer_1" xmlns="http://www.w3.org/2000/svg" xmlns:xlink="http://www.w3.org/1999/xlink" x="0px" y="0px"
	 viewBox="0 0 70 70" style="enable-background:new 0 0 70 70;" xml:space="preserve">
<style type="text/css">
	.st0{fill:none;stroke:#292929;stroke-width:2;stroke-linecap:round;stroke-linejoin:round;stroke-miterlimit:10;}
	.st1{fill:none;stroke:#292929;stroke-width:2;stroke-linecap:round;stroke-linejoin:round;}
</style>
<g>
	<line class="st0" x1="20.5" y1="33" x2="36.8" y2="33"/>
	<circle class="st0" cx="14.4" cy="33" r="2.6"/>
	<circle class="st0" cx="25.7" cy="18.2" r="4"/>
	<polygon class="st1" points="32.8,60.4 32.8,41.8 62,41.8 	"/>
	<polygon class="st1" points="36.8,45.8 48.1,45.8 36.8,53 	"/>
	<path class="st0" d="M32.8,54.3H20.4c-1.7,0-3-1.3-3-3V38.7 M41.2,35.5v-5.1c0-1.7-1.3-3-3-3H11c-1.7,0-3,1.3-3,3v5.1
		c0,1.7,1.3,3,3,3h27.2C39.9,38.5,41.2,37.2,41.2,35.5z M52.2,48.1v3.2c0,1.7-1.3,3-3,3h-6.7 M17.4,27.3V12.6c0-1.7,1.3-3,3-3h28.8
		c1.7,0,3,1.3,3,3v29.1"/>
</g>
</svg>
