<?xml version="1.0" encoding="utf-8"?>
<!-- Generator: Adobe Illustrator 25.4.1, SVG Export Plug-In . SVG Version: 6.00 Build 0)  -->
<svg version="1.1" id="Layer_1" xmlns="http://www.w3.org/2000/svg" xmlns:xlink="http://www.w3.org/1999/xlink" x="0px" y="0px"
	 viewBox="0 0 70 70" style="enable-background:new 0 0 70 70;" xml:space="preserve">
<style type="text/css">
	.st0{fill:none;stroke:#292929;stroke-width:2;stroke-linecap:round;stroke-linejoin:round;stroke-miterlimit:10;}
</style>
<g>
	<g>
		<path class="st0" d="M40.6,41.8H29.4c-3.3,0-6-2.7-6-6V23.7c0-1.7,1.3-3,3-3h17.2c1.7,0,3,1.3,3,3v12.1
			C46.6,39.1,43.9,41.8,40.6,41.8z"/>
		<g>
			<path class="st0" d="M30.8,20.7h-4.2V10c0-1.1,0.9-2,2-2h0.2c1.1,0,2,0.9,2,2V20.7z"/>
			<path class="st0" d="M42.4,20.7h-4.2V10c0-1.1,0.9-2,2-2h0.2c1.1,0,2,0.9,2,2V20.7z"/>
		</g>
		<path class="st0" d="M31.8,41.8v5.8c0,1.5,1.2,2.6,2.6,2.6h0c1.5,0,2.6-1.2,2.6-2.6v-5.8"/>
	</g>
	<line class="st0" x1="34.5" y1="50.3" x2="34.5" y2="62"/>
</g>
</svg>
