<?xml version="1.0" encoding="utf-8"?>
<!-- Generator: Adobe Illustrator 25.4.1, SVG Export Plug-In . SVG Version: 6.00 Build 0)  -->
<svg version="1.1" id="Layer_1" xmlns="http://www.w3.org/2000/svg" xmlns:xlink="http://www.w3.org/1999/xlink" x="0px" y="0px"
	 viewBox="0 0 70 70" style="enable-background:new 0 0 70 70;" xml:space="preserve">
<style type="text/css">
	.st0{fill:none;stroke:#292929;stroke-width:2;stroke-linecap:round;stroke-linejoin:round;stroke-miterlimit:10;}
	.st1{fill:none;stroke:#292929;stroke-width:2;stroke-miterlimit:10;}
</style>
<polyline class="st0" points="62,52.7 62,48.7 33.3,48.7 "/>
<circle class="st0" cx="23.7" cy="33" r="9"/>
<path class="st1" d="M41.1,30.7h-1.8v-1.4c0-6.6-5.4-12-12-12H20c-6.6,0-12,5.4-12,12v7.3c0,6.6,5.4,12,12,12h13.3c3.3,0,6-2.7,6-6
	v-3.2h1.8c0.6,0,1-0.4,1-1v-6.8C42.1,31.1,41.7,30.7,41.1,30.7z"/>
<line class="st1" x1="39.3" y1="30.7" x2="39.3" y2="39.4"/>
</svg>
