<?xml version="1.0" encoding="utf-8"?>
<!-- Generator: Adobe Illustrator 25.4.1, SVG Export Plug-In . SVG Version: 6.00 Build 0)  -->
<svg version="1.1" id="Layer_1" xmlns="http://www.w3.org/2000/svg" xmlns:xlink="http://www.w3.org/1999/xlink" x="0px" y="0px"
	 viewBox="0 0 70 70" style="enable-background:new 0 0 70 70;" xml:space="preserve">
<style type="text/css">
	.st0{fill:none;stroke:#292929;stroke-width:2;stroke-linecap:round;stroke-linejoin:round;}
	.st1{fill:none;stroke:#292929;stroke-width:2;stroke-linecap:round;stroke-linejoin:round;stroke-miterlimit:10;}
</style>
<path class="st0" d="M43.3,62h-29c-1.7,0-3-1.3-3-3V14c0-3.3,2.7-6,6-6h23c3.3,0,6,2.7,6,6v45C46.3,60.7,44.9,62,43.3,62z"/>
<path class="st1" d="M51.9,16c0,0,6.5,5.5,7.5,8.1c0.7,1.9,0.3,8.1,0.3,8.1s-3.2,0.3-4.1,0c-1-0.3-3.2-2.6-3.2-2.6
	c-1.4-1.1-1.6-3.2-0.5-4.6l3.8-4.9"/>
<path class="st1" d="M59.7,32.2v16.6c0,3.3-2.7,6-6,6h-7.4"/>
<path class="st0" d="M28.8,35.3c0.7,0.8,6.1,5.7,6.1,11.1c0,3.4-2.7,6.1-6.1,6.1s-6.1-2.7-6.1-6.1C22.7,41.1,28.1,36.1,28.8,35.3z"
	/>
<path class="st0" d="M37.6,25.2H19.9c-1.7,0-3-1.3-3-3v-5.5c0-1.7,1.3-3,3-3h17.7c1.7,0,3,1.3,3,3v5.5
	C40.6,23.9,39.3,25.2,37.6,25.2z"/>
</svg>
