<?xml version="1.0" encoding="utf-8"?>
<!-- Generator: Adobe Illustrator 25.4.1, SVG Export Plug-In . SVG Version: 6.00 Build 0)  -->
<svg version="1.1" id="Layer_1" xmlns="http://www.w3.org/2000/svg" xmlns:xlink="http://www.w3.org/1999/xlink" x="0px" y="0px"
	 viewBox="0 0 70 70" style="enable-background:new 0 0 70 70;" xml:space="preserve">
<style type="text/css">
	.st0{fill:none;stroke:#292929;stroke-width:2;stroke-linecap:round;stroke-linejoin:round;stroke-miterlimit:10;}
</style>
<path class="st0" d="M47,11.2H23c-1.1,0-2.1,0.6-2.6,1.5l-12,20.8c-0.5,0.9-0.5,2.1,0,3l12,20.8c0.5,0.9,1.5,1.5,2.6,1.5h24
	c1.1,0,2.1-0.6,2.6-1.5l12-20.8c0.5-0.9,0.5-2.1,0-3l-12-20.8C49.1,11.8,48.1,11.2,47,11.2z"/>
<g>
	<line class="st0" x1="35" y1="21.2" x2="35" y2="37"/>
	<path class="st0" d="M30.1,25.2c-4.4,1.9-7.4,6.2-7.4,11.3c0,6.8,5.5,12.3,12.3,12.3c6.8,0,12.3-5.5,12.3-12.3
		c0-5.1-3.1-9.4-7.4-11.3"/>
</g>
</svg>
