<?xml version="1.0" encoding="utf-8"?>
<!-- Generator: Adobe Illustrator 25.4.1, SVG Export Plug-In . SVG Version: 6.00 Build 0)  -->
<svg version="1.1" id="Layer_1" xmlns="http://www.w3.org/2000/svg" xmlns:xlink="http://www.w3.org/1999/xlink" x="0px" y="0px"
	 viewBox="0 0 70 70" style="enable-background:new 0 0 70 70;" xml:space="preserve">
<style type="text/css">
	.st0{fill:none;stroke:#292929;stroke-width:2;stroke-linecap:round;stroke-linejoin:round;stroke-miterlimit:10;}
</style>
<path class="st0" d="M42.7,62H27.3c-1.7,0-3-1.3-3-3V34.3c0-1.7,1.3-3,3-3h15.3c1.7,0,3,1.3,3,3V59C45.7,60.7,44.3,62,42.7,62z"/>
<g>
	<path class="st0" d="M40.5,55.7v-2.4c0-1.5-0.5-2.9-1.7-3.9c-1.1-1.1-2.4-1.6-3.9-1.6s-2.8,0.6-3.9,1.7c-1.1,1.1-1.6,2.4-1.6,3.8
		v2.4"/>
	<path class="st0" d="M38,44.7c0-1.7-1.4-3.1-3.2-3.1s-3.1,1.4-3.1,3.1c0,1.7,1.4,3.1,3.1,3.1C36.7,47.8,38,46.4,38,44.7z"/>
</g>
<line class="st0" x1="32.5" y1="35.3" x2="37.5" y2="35.3"/>
<polyline class="st0" points="28.4,8 35,35 41.6,8 "/>
</svg>
