<?xml version="1.0" encoding="utf-8"?>
<!-- Generator: Adobe Illustrator 25.4.1, SVG Export Plug-In . SVG Version: 6.00 Build 0)  -->
<svg version="1.1" id="Layer_1" xmlns="http://www.w3.org/2000/svg" xmlns:xlink="http://www.w3.org/1999/xlink" x="0px" y="0px"
	 viewBox="0 0 70 70" style="enable-background:new 0 0 70 70;" xml:space="preserve">
<style type="text/css">
	.st0{fill:none;stroke:#292929;stroke-width:2;stroke-linecap:round;stroke-linejoin:round;stroke-miterlimit:10;}
</style>
<path class="st0" d="M22.5,23c-0.2-4.5,0.5-8.8,2.1-12.7c0.4-0.9-0.6-1.7-1.4-1.3C13.3,14.2,6.8,25,8.2,37.2
	c1.4,13.1,12.1,23.6,25.3,24.7c9.3,0.8,17.8-2.9,23.4-9.2c0.6-0.7,0-1.8-0.9-1.6c-2.2,0.3-4.5,0.3-6.9,0
	C34.7,49.6,23.3,37.5,22.5,23z"/>
<path class="st0" d="M42.7,11.4l1.6,3.2c0.2,0.4,0.5,0.6,1,0.7l3.5,0.5c1.1,0.2,1.5,1.5,0.7,2.2L47,20.7c-0.3,0.3-0.5,0.8-0.4,1.2
	l0.6,3.5c0.2,1.1-0.9,1.8-1.9,1.4l-3.2-1.6c-0.4-0.2-0.8-0.2-1.2,0l-3.2,1.6c-0.9,0.5-2.1-0.3-1.9-1.4l0.6-3.5
	c0.1-0.4-0.1-0.8-0.4-1.2l-2.6-2.5c-0.8-0.8-0.4-2.1,0.7-2.2l3.5-0.5c0.5-0.1,0.8-0.3,1-0.7l1.6-3.2C40.8,10.5,42.2,10.5,42.7,11.4z
	"/>
<path class="st0" d="M56.9,32.6l1.1,2.3c0.2,0.3,0.4,0.4,0.7,0.5l2.5,0.4c0.8,0.1,1.1,1,0.5,1.6l-1.8,1.8c-0.2,0.2-0.3,0.5-0.3,0.8
	l0.4,2.5c0.1,0.8-0.6,1.3-1.3,1l-2.3-1.1c-0.3-0.2-0.6-0.2-0.9,0l-2.2,1.2c-0.6,0.4-1.5-0.2-1.3-1l0.4-2.5c0.1-0.3-0.1-0.6-0.3-0.8
	l-1.8-1.8c-0.5-0.5-0.3-1.5,0.5-1.6l2.5-0.4c0.3-0.1,0.5-0.2,0.7-0.5l1.1-2.3C55.6,32,56.5,32,56.9,32.6z"/>
</svg>
