<?xml version="1.0" encoding="utf-8"?>
<!-- Generator: Adobe Illustrator 25.4.1, SVG Export Plug-In . SVG Version: 6.00 Build 0)  -->
<svg version="1.1" id="Layer_1" xmlns="http://www.w3.org/2000/svg" xmlns:xlink="http://www.w3.org/1999/xlink" x="0px" y="0px"
	 viewBox="0 0 70 70" style="enable-background:new 0 0 70 70;" xml:space="preserve">
<style type="text/css">
	.st0{fill:none;stroke:#292929;stroke-width:2;stroke-linecap:round;stroke-linejoin:round;stroke-miterlimit:10;}
</style>
<g>
	<path class="st0" d="M35.7,9.4l-0.3,0.8c-2.2,5.1-5,9.6-8.4,13.5l-0.8,0.9l-0.8,0.8c-3.9,3.9-8.6,7.1-14,9.5l-1.2,0.5l-0.8,0.3
		l0.9,0.3c5.2,2.1,9.7,4.9,13.6,8.4l0.9,0.8l0.8,0.8c3.9,3.9,7.1,8.6,9.5,14.1l0.5,1.2l0.3,0.7l0.3-0.7c2.1-5.2,4.9-9.7,8.4-13.6
		l0.8-0.9L46,46c3.9-3.9,8.6-7.1,14.1-9.5l1.2-0.5l0.7-0.3l-0.7-0.3c-5.9-2.4-11-5.7-15.2-10c-3.9-3.9-7.1-8.6-9.5-14.1l-0.5-1.2
		C36.1,10.3,35.7,9.4,35.7,9.4z"/>
	<path class="st0" d="M14.8,8l-0.1,0.2c-0.6,1.3-1.3,2.5-2.2,3.5l-0.2,0.2l-0.2,0.2c-1,1-2.2,1.8-3.6,2.5l-0.3,0.1L8,14.8l0.2,0.1
		c1.3,0.5,2.5,1.3,3.5,2.2l0.2,0.2l0.2,0.2c1,1,1.8,2.2,2.5,3.7l0.1,0.3l0.1,0.2l0.1-0.2c0.5-1.3,1.3-2.5,2.2-3.5l0.2-0.2l0.2-0.2
		c1-1,2.2-1.8,3.7-2.5l0.3-0.1l0.2-0.1l-0.2-0.1c-1.5-0.6-2.9-1.5-4-2.6c-1-1-1.8-2.2-2.5-3.7l-0.1-0.3C14.9,8.2,14.8,8,14.8,8z"/>
</g>
</svg>
