<?xml version="1.0" encoding="utf-8"?>
<!-- Generator: Adobe Illustrator 25.4.1, SVG Export Plug-In . SVG Version: 6.00 Build 0)  -->
<svg version="1.1" id="Layer_1" xmlns="http://www.w3.org/2000/svg" xmlns:xlink="http://www.w3.org/1999/xlink" x="0px" y="0px"
	 viewBox="0 0 70 70" style="enable-background:new 0 0 70 70;" xml:space="preserve">
<style type="text/css">
	.st0{fill:none;stroke:#292929;stroke-width:2;stroke-linecap:round;stroke-linejoin:round;stroke-miterlimit:10;}
</style>
<path class="st0" d="M118.4-20.3c0-0.1,0-0.2,0-0.3c0-2.2-1.8-4-4-4c-2.2,0-4,1.8-4,4c0,0.1,0,0.2,0,0.3"/>
<g>
	<path class="st0" d="M39,23.5c0-0.1,0-0.2,0-0.3c0-2.3-1.8-4.1-4.1-4.1c-2.3,0-4.1,1.8-4.1,4.1c0,0.1,0,0.2,0,0.3"/>
	<path class="st0" d="M60.4,46.8H9.6C10.5,33.6,21.5,23.1,35,23.1S59.5,33.6,60.4,46.8z"/>
	<path class="st0" d="M59.9,50.9H10.1c-0.4,0-0.7-0.2-0.9-0.6l-1.1-2.1c-0.3-0.7,0.2-1.4,0.9-1.4h52c0.7,0,1.2,0.8,0.9,1.4l-1.1,2.1
		C60.7,50.7,60.3,50.9,59.9,50.9z"/>
</g>
</svg>
