<?xml version="1.0" encoding="utf-8"?>
<!-- Generator: Adobe Illustrator 25.2.3, SVG Export Plug-In . SVG Version: 6.00 Build 0)  -->
<svg version="1.1" id="Layer_1" xmlns="http://www.w3.org/2000/svg" xmlns:xlink="http://www.w3.org/1999/xlink" x="0px" y="0px"
	 viewBox="0 0 70 70" style="enable-background:new 0 0 70 70;" xml:space="preserve">
<style type="text/css">
	.st0{fill:none;stroke:#292929;stroke-width:2;stroke-linecap:round;stroke-linejoin:round;stroke-miterlimit:10;}
</style>
<g>
	<g>
		<path class="st0" d="M40,58.9V57c0-1.3-0.4-2.3-1.4-3.2c-0.9-0.9-2-1.3-3.2-1.3s-2.3,0.5-3.2,1.4c-0.9,0.9-1.3,1.9-1.3,3.1v2"/>
		<path class="st0" d="M38,49.8c0-1.4-1.1-2.6-2.6-2.6s-2.6,1.1-2.6,2.6c0,1.4,1.1,2.6,2.6,2.6C36.8,52.4,38,51.2,38,49.8z"/>
	</g>
	<path class="st0" d="M27,54.5c-8.4-3.2-14.4-11.4-14.4-20.9"/>
	<path class="st0" d="M19.2,17.6c4.1-4,9.6-6.5,15.8-6.5c6.3,0,11.9,2.6,16,6.7"/>
	<path class="st0" d="M57.4,34c-0.2,8.9-5.6,16.5-13.2,20"/>
	<g>
		<path class="st0" d="M17.1,30.9V29c0-1.3-0.4-2.3-1.4-3.2c-0.9-0.9-2-1.3-3.2-1.3s-2.3,0.5-3.2,1.4C8.4,26.7,8,27.7,8,29v2"/>
		<path class="st0" d="M15.1,21.8c0-1.4-1.1-2.6-2.6-2.6s-2.6,1.1-2.6,2.6s1.1,2.6,2.6,2.6S15.1,23.2,15.1,21.8z"/>
	</g>
	<g>
		<path class="st0" d="M62,30.9V29c0-1.3-0.4-2.3-1.4-3.2c-0.9-0.9-2-1.3-3.2-1.3s-2.3,0.5-3.2,1.4s-1.3,1.9-1.3,3.1v2"/>
		<path class="st0" d="M60,21.8c0-1.4-1.1-2.6-2.6-2.6s-2.6,1.1-2.6,2.6s1.1,2.6,2.6,2.6C58.8,24.4,60,23.2,60,21.8z"/>
	</g>
</g>
</svg>
