<?xml version="1.0" encoding="utf-8"?>
<!-- Generator: Adobe Illustrator 25.4.1, SVG Export Plug-In . SVG Version: 6.00 Build 0)  -->
<svg version="1.1" id="Layer_1" xmlns="http://www.w3.org/2000/svg" xmlns:xlink="http://www.w3.org/1999/xlink" x="0px" y="0px"
	 viewBox="0 0 70 70" style="enable-background:new 0 0 70 70;" xml:space="preserve">
<style type="text/css">
	.st0{fill:none;stroke:#292929;stroke-width:2;stroke-linecap:round;stroke-linejoin:round;stroke-miterlimit:10;}
</style>
<circle class="st0" cx="35" cy="35" r="27"/>
<circle class="st0" cx="35" cy="35" r="23"/>
<path class="st0" d="M28.4,47.6L28.4,47.6c-2.4,0.9-5-0.3-5.9-2.7l-3.1-8.3c-0.9-2.4,0.3-5,2.7-5.9l0,0c2.4-0.9,5,0.3,5.9,2.7
	l3.1,8.3C31.9,44.1,30.7,46.8,28.4,47.6z"/>
<circle class="st0" cx="39.4" cy="25.5" r="7.8"/>
<circle class="st0" cx="44.2" cy="41.6" r="4.7"/>
<path class="st0" d="M21.4,22c1-1.4,2.9-1.8,4.4-0.8s1.8,2.9,0.8,4.4"/>
<path class="st0" d="M33.2,54.5c-1.4-1.7-1.2-4.3,0.5-5.7c1.7-1.4,4.3-1.2,5.7,0.5"/>
<line class="st0" x1="51" y1="28.2" x2="51.7" y2="35"/>
</svg>
