<?xml version="1.0" encoding="utf-8"?>
<!-- Generator: Adobe Illustrator 25.2.1, SVG Export Plug-In . SVG Version: 6.00 Build 0)  -->
<svg version="1.1" id="Layer_1" xmlns="http://www.w3.org/2000/svg" xmlns:xlink="http://www.w3.org/1999/xlink" x="0px" y="0px"
	 viewBox="0 0 70 70" style="enable-background:new 0 0 70 70;" xml:space="preserve">
<style type="text/css">
	.st0{fill:none;stroke:#000000;stroke-width:2;stroke-linecap:round;stroke-linejoin:round;stroke-miterlimit:10;}
</style>
<path class="st0" d="M43.3,36.8V62"/>
<path class="st0" d="M43.3,14.1V8"/>
<path class="st0" d="M26.4,50.4V62"/>
<path class="st0" d="M26.4,27.9V8"/>
<path class="st0" d="M22,46V32.3c0-2.4,2-4.4,4.4-4.4h0c2.4,0,4.4,2,4.4,4.4V46c0,2.4-2,4.4-4.4,4.4h0C24,50.4,22,48.4,22,46z"/>
<path class="st0" d="M38.9,32.3V18.7c0-2.4,2-4.4,4.4-4.4h0c2.4,0,4.4,2,4.4,4.4v13.7c0,2.4-2,4.4-4.4,4.4h0
	C40.9,36.8,38.9,34.8,38.9,32.3z"/>
</svg>
