<?xml version="1.0" encoding="utf-8"?>
<!-- Generator: Adobe Illustrator 25.2.3, SVG Export Plug-In . SVG Version: 6.00 Build 0)  -->
<svg version="1.1" id="Layer_1" xmlns="http://www.w3.org/2000/svg" xmlns:xlink="http://www.w3.org/1999/xlink" x="0px" y="0px"
	 viewBox="0 0 70 70" style="enable-background:new 0 0 70 70;" xml:space="preserve">
<style type="text/css">
	.st0{fill:none;stroke:#292929;stroke-width:2;stroke-linecap:round;stroke-linejoin:round;stroke-miterlimit:10;}
	.st1{fill:none;stroke:#292929;stroke-width:2;stroke-miterlimit:10;}
	.st2{fill:none;stroke:#292929;stroke-width:2;stroke-linecap:round;stroke-linejoin:round;}
</style>
<g>
	<path class="st0" d="M35,56.8"/>
	<path class="st0" d="M35,56.8"/>
	<path class="st0" d="M35,56.8"/>
	<path class="st0" d="M35,56.8"/>
	<path class="st1" d="M57.9,53c-4.1-9.9-4.5-22.4-4.5-22.4c0-15.2-9.2-22.8-18.3-22.7l0,0c0,0,0,0-0.1,0c0,0,0,0-0.1,0l0,0
		c-9.1-0.1-18.3,7.5-18.3,22.7c0,0-0.5,12.5-4.5,22.4C10.1,57.9,59.9,57.9,57.9,53z"/>
	<path class="st2" d="M41.1,57.1c0,6.5-12.3,6.5-12.3,0"/>
</g>
</svg>
