<?xml version="1.0" encoding="utf-8"?>
<!-- Generator: Adobe Illustrator 25.4.1, SVG Export Plug-In . SVG Version: 6.00 Build 0)  -->
<svg version="1.1" id="Layer_1" xmlns="http://www.w3.org/2000/svg" xmlns:xlink="http://www.w3.org/1999/xlink" x="0px" y="0px"
	 viewBox="0 0 70 70" style="enable-background:new 0 0 70 70;" xml:space="preserve">
<style type="text/css">
	.st0{fill:none;stroke:#292929;stroke-width:2;stroke-linecap:round;stroke-linejoin:round;stroke-miterlimit:10;}
</style>
<path class="st0" d="M52.2,30.1l-0.5-0.8c-0.3-0.6-0.9-0.9-1.6-0.9h-0.8c-1,0-2,0.8-2,2v9.3c0,1,0.8,2,2,2h0.8
	c0.7,0,1.4-0.3,1.6-0.9l0.5-0.8c0.3-0.6,0.9-0.9,1.6-0.9H58c2,0,3.6-1.6,3.6-3.6V35c0-2-1.6-3.6-3.6-3.6h-4.2
	C53.2,31.2,52.5,30.7,52.2,30.1z"/>
<path class="st0" d="M31.8,45.8C25.8,45.8,21,40.9,21,35c0-5.9,4.8-10.8,10.8-10.8c5.9,0,10.8,4.8,10.8,10.8
	C42.5,40.9,37.7,45.8,31.8,45.8z"/>
<path class="st0" d="M31.8,38.8c-2.1,0-3.8-1.7-3.8-3.8c0-2.1,1.7-3.8,3.8-3.8s3.8,1.7,3.8,3.8C35.5,37.1,33.8,38.8,31.8,38.8z"/>
<g>
	<line class="st0" x1="22.9" y1="43.8" x2="29.1" y2="37.7"/>
	<line class="st0" x1="34.4" y1="32.3" x2="40.6" y2="26.2"/>
	<line class="st0" x1="29.1" y1="32.3" x2="22.9" y2="26.2"/>
	<line class="st0" x1="34.4" y1="37.7" x2="40.6" y2="43.8"/>
</g>
<path class="st0" d="M55.1,31.4c-1.7-11.2-11.4-19.9-23.2-19.9C19,11.6,8.5,22.1,8.5,35S19,58.4,31.9,58.4
	c11.6,0,21.2-8.4,23.1-19.5"/>
</svg>
