<?xml version="1.0" encoding="utf-8"?>
<!-- Generator: Adobe Illustrator 25.2.1, SVG Export Plug-In . SVG Version: 6.00 Build 0)  -->
<svg version="1.1" id="Layer_1" xmlns="http://www.w3.org/2000/svg" xmlns:xlink="http://www.w3.org/1999/xlink" x="0px" y="0px"
	 viewBox="0 0 70 70" style="enable-background:new 0 0 70 70;" xml:space="preserve">
<style type="text/css">
	.st0{fill:none;stroke:#292929;stroke-width:2;stroke-linecap:round;stroke-linejoin:round;stroke-miterlimit:10;}
	.st1{fill:#FFFFFF;}
</style>
<g>
	<path class="st0" d="M32.3,18.4v-6c0-1.5,1.2-2.7,2.7-2.7c1.5,0,2.7,1.2,2.7,2.7v6"/>
	<line class="st0" x1="37.7" y1="32.6" x2="37.7" y2="39.4"/>
	<line class="st0" x1="32.3" y1="32.6" x2="32.3" y2="39.4"/>
	<line class="st1" x1="32.3" y1="32.5" x2="37.7" y2="32.5"/>
	<line class="st1" x1="32.3" y1="18.4" x2="37.7" y2="18.4"/>
	<line class="st1" x1="32.3" y1="39.4" x2="37.7" y2="39.4"/>
	<line class="st1" x1="32.3" y1="53.4" x2="37.7" y2="53.4"/>
	<path class="st0" d="M16.2,32.6h36.8V18.4H16.2c-0.5,0-1.2,0.1-1.6,0.5L9,23.3c-1.4,1.1-1.4,3.3,0,4.4l5.6,4.4
		C15,32.3,15.7,32.6,16.2,32.6z"/>
	<path class="st0" d="M53.8,53.5H16.9v-14h36.8c0.5,0,1.2,0.1,1.6,0.5l5.6,4.4c1.4,1.1,1.4,3.3,0,4.4l-5.6,4.4
		C55,53.3,54.3,53.5,53.8,53.5z"/>
	<line class="st0" x1="37.7" y1="53.5" x2="37.7" y2="60.4"/>
	<line class="st0" x1="32.3" y1="53.5" x2="32.3" y2="60.4"/>
</g>
</svg>
