<?xml version="1.0" encoding="utf-8"?>
<!-- Generator: Adobe Illustrator 25.4.1, SVG Export Plug-In . SVG Version: 6.00 Build 0)  -->
<svg version="1.1" id="Layer_1" xmlns="http://www.w3.org/2000/svg" xmlns:xlink="http://www.w3.org/1999/xlink" x="0px" y="0px"
	 viewBox="0 0 70 70" style="enable-background:new 0 0 70 70;" xml:space="preserve">
<style type="text/css">
	.st0{fill:none;stroke:#292929;stroke-width:2;stroke-linecap:round;stroke-linejoin:round;stroke-miterlimit:10;}
</style>
<path class="st0" d="M48.4,62H21.6c-3.3,0-6-2.7-6-6V15.1c0-1.7,1.3-3,3-3h32.8c1.7,0,3,1.3,3,3V56C54.4,59.3,51.7,62,48.4,62z"/>
<path class="st0" d="M21.4,8.2v7.9"/>
<path class="st0" d="M35,8.2v7.9"/>
<path class="st0" d="M48.6,8v7.9"/>
<path class="st0" d="M31.2,26.6h17.4"/>
<path class="st0" d="M31.2,35.4h13.6"/>
<path class="st0" d="M31.2,44.2h17.4"/>
<path class="st0" d="M31.2,53h9.9"/>
<rect x="21.4" y="24.4" class="st0" width="4.4" height="4.4"/>
<rect x="21.4" y="33.2" class="st0" width="4.4" height="4.4"/>
<rect x="21.4" y="42" class="st0" width="4.4" height="4.4"/>
<rect x="21.4" y="50.8" class="st0" width="4.4" height="4.4"/>
</svg>
