<?xml version="1.0" encoding="utf-8"?>
<!-- Generator: Adobe Illustrator 25.4.1, SVG Export Plug-In . SVG Version: 6.00 Build 0)  -->
<svg version="1.1" id="Layer_1" xmlns="http://www.w3.org/2000/svg" xmlns:xlink="http://www.w3.org/1999/xlink" x="0px" y="0px"
	 viewBox="0 0 70 70" style="enable-background:new 0 0 70 70;" xml:space="preserve">
<style type="text/css">
	.st0{fill:none;stroke:#292929;stroke-width:2;stroke-linecap:round;stroke-linejoin:round;stroke-miterlimit:10;}
	.st1{fill:none;stroke:#292929;stroke-width:2;stroke-linecap:round;stroke-miterlimit:10;}
</style>
<g>
	<path class="st0" d="M40.7,11.8l1.4,3.2c1.1,2.5,3.8,4.1,6.5,3.8l3.5-0.4c5.5-0.6,9.1,5.6,5.8,10.1l-2,2.7c-1.6,2.2-1.6,5.3,0,7.5
		l2.1,2.8c3.3,4.5-0.3,10.7-5.8,10.1l-3.5-0.4c-2.8-0.2-5.5,1.3-6.6,3.8l-1.4,3.2c-2.2,5.1-9.4,5.1-11.6,0L27.8,55
		c-1.1-2.5-3.8-4.1-6.5-3.8l-3.5,0.4c-5.5,0.6-9.1-5.6-5.8-10l2.1-2.8c1.6-2.2,1.6-5.3,0-7.5L12,28.4c-3.3-4.5,0.3-10.7,5.8-10.1
		l3.5,0.4c2.8,0.3,5.4-1.2,6.5-3.8l1.4-3.2C31.4,6.7,38.5,6.7,40.7,11.8z"/>
	<g>
		<line class="st1" x1="27.7" y1="34.6" x2="39.4" y2="34.6"/>
		<path class="st0" d="M41.9,28.2c0-2.3-2.3-4.2-5.1-4.2c-2.8,0-5.1,1.9-5.1,4.2V41c0,1.6-1.7,2.9-3.8,2.9h14.3"/>
	</g>
</g>
</svg>
