<?xml version="1.0" encoding="utf-8"?>
<!-- Generator: Adobe Illustrator 25.4.1, SVG Export Plug-In . SVG Version: 6.00 Build 0)  -->
<svg version="1.1" id="Layer_1" xmlns="http://www.w3.org/2000/svg" xmlns:xlink="http://www.w3.org/1999/xlink" x="0px" y="0px"
	 viewBox="0 0 70 70" style="enable-background:new 0 0 70 70;" xml:space="preserve">
<style type="text/css">
	.st0{fill:none;stroke:#292929;stroke-width:2;stroke-miterlimit:10;}
</style>
<g>
	<line class="st0" x1="15.2" y1="57" x2="31.5" y2="57"/>
	<line class="st0" x1="38.7" y1="57" x2="55" y2="57"/>
	<line class="st0" x1="38.7" y1="57" x2="31.5" y2="57"/>
	<path class="st0" d="M55,57h1c3.3,0,6-2.7,6-6V19c0-3.3-2.7-6-6-6H14c-3.3,0-6,2.7-6,6v32c0,3.3,2.7,6,6,6h1.2"/>
	<path class="st0" d="M31.7,39.8V23c0-1.7-1.3-3-3-3H18c-1.7,0-3,1.3-3,3v16.8c0,1.7,1.3,3,3,3h10.7C30.4,42.8,31.7,41.4,31.7,39.8z
		"/>
	<path class="st0" d="M55,32v-9c0-1.7-1.3-3-3-3H41.7c-1.7,0-3,1.3-3,3v9c0,1.7,1.3,3,3,3H52C53.7,35,55,33.7,55,32z"/>
	<path class="st0" d="M38.7,57V45c0-1.7,1.3-3,3-3H52c1.7,0,3,1.3,3,3v12"/>
	<path class="st0" d="M15.2,57v-4.2c0-1.7,1.3-3,3-3h10.3c1.7,0,3,1.3,3,3V57"/>
</g>
</svg>
