<?xml version="1.0" encoding="utf-8"?>
<!-- Generator: Adobe Illustrator 25.4.1, SVG Export Plug-In . SVG Version: 6.00 Build 0)  -->
<svg version="1.1" id="Layer_1" xmlns="http://www.w3.org/2000/svg" xmlns:xlink="http://www.w3.org/1999/xlink" x="0px" y="0px"
	 viewBox="0 0 70 70" style="enable-background:new 0 0 70 70;" xml:space="preserve">
<style type="text/css">
	.st0{fill:none;stroke:#292929;stroke-width:2;stroke-linecap:round;stroke-linejoin:round;stroke-miterlimit:10;}
</style>
<path class="st0" d="M45.3,58.9H24.7c-1.7,0-3-1.3-3-3V29.8c0-3.3,2.7-6,6-6h14.6c3.3,0,6,2.7,6,6V56C48.3,57.6,47,58.9,45.3,58.9z"
	/>
<path class="st0" d="M28,23.8V11c0-1.7,1.3-3,3-3h8c1.7,0,3,1.3,3,3v12.8"/>
<line class="st0" x1="28" y1="12.1" x2="42" y2="12.1"/>
<path class="st0" d="M26.9,62h-1.1c-0.6,0-1-0.4-1-1v-2.1h3.1V61C27.9,61.6,27.5,62,26.9,62z"/>
<path class="st0" d="M44.2,62h-1.1c-0.6,0-1-0.4-1-1v-2.1h3.1V61C45.2,61.6,44.8,62,44.2,62z"/>
<path class="st0" d="M27.9,58.9V36.7c0-3.3,2.7-6,6-6h2.2c3.3,0,6,2.7,6,6v22.2"/>
</svg>
