<?xml version="1.0" encoding="utf-8"?>
<!-- Generator: Adobe Illustrator 25.2.1, SVG Export Plug-In . SVG Version: 6.00 Build 0)  -->
<svg version="1.1" id="Layer_1" xmlns="http://www.w3.org/2000/svg" xmlns:xlink="http://www.w3.org/1999/xlink" x="0px" y="0px"
	 viewBox="0 0 70 70" style="enable-background:new 0 0 70 70;" xml:space="preserve">
<style type="text/css">
	.st0{fill:none;stroke:#292929;stroke-width:2;stroke-linecap:round;stroke-linejoin:round;stroke-miterlimit:10;}
</style>
<g>
	<path class="st0" d="M39.9,14.2h-9.8c-1.7,0-3-1.3-3-3V11c0-1.7,1.3-3,3-3h9.8c1.7,0,3,1.3,3,3v0.2C42.9,12.9,41.6,14.2,39.9,14.2z
		"/>
	<path class="st0" d="M27.1,11.1h-8.9c-1.7,0-3,1.3-3,3V56c0,3.3,2.7,6,6,6h27.7c3.3,0,6-2.7,6-6V14.1c0-1.7-1.3-3-3-3h-8.9"/>
</g>
</svg>
