<?xml version="1.0" encoding="utf-8"?>
<!-- Generator: Adobe Illustrator 25.4.1, SVG Export Plug-In . SVG Version: 6.00 Build 0)  -->
<svg version="1.1" id="Layer_1" xmlns="http://www.w3.org/2000/svg" xmlns:xlink="http://www.w3.org/1999/xlink" x="0px" y="0px"
	 viewBox="0 0 70 70" style="enable-background:new 0 0 70 70;" xml:space="preserve">
<style type="text/css">
	.st0{fill:none;stroke:#292929;stroke-width:2;stroke-linecap:round;stroke-linejoin:round;stroke-miterlimit:10;}
</style>
<path class="st0" d="M59,51.2H11c-1.7,0-3-1.3-3-3V21.8c0-1.7,1.3-3,3-3h48c1.7,0,3,1.3,3,3v26.4C62,49.9,60.7,51.2,59,51.2z"/>
<path class="st0" d="M22,43.1L22,43.1c-3,0-5.4-2.4-5.4-5.4v-5.4c0-3,2.4-5.4,5.4-5.4h0c3,0,5.4,2.4,5.4,5.4v5.4
	C27.4,40.7,25,43.1,22,43.1z"/>
<path class="st0" d="M48,43.1L48,43.1c-3,0-5.4-2.4-5.4-5.4v-5.4c0-3,2.4-5.4,5.4-5.4h0c3,0,5.4,2.4,5.4,5.4v5.4
	C53.4,40.7,50.9,43.1,48,43.1z"/>
<g>
	<line class="st0" x1="35" y1="30.6" x2="35" y2="32.6"/>
	<line class="st0" x1="35" y1="37.4" x2="35" y2="39.4"/>
</g>
</svg>
