<?xml version="1.0" encoding="utf-8"?>
<!-- Generator: Adobe Illustrator 25.4.1, SVG Export Plug-In . SVG Version: 6.00 Build 0)  -->
<svg version="1.1" id="Layer_1" xmlns="http://www.w3.org/2000/svg" xmlns:xlink="http://www.w3.org/1999/xlink" x="0px" y="0px"
	 viewBox="0 0 70 70" style="enable-background:new 0 0 70 70;" xml:space="preserve">
<style type="text/css">
	.st0{fill:none;stroke:#292929;stroke-width:2;stroke-linecap:round;stroke-linejoin:round;}
	.st1{fill:none;stroke:#292929;stroke-width:2;stroke-linecap:round;stroke-linejoin:round;stroke-miterlimit:10;}
</style>
<g>
	<path class="st0" d="M61.3,31.8H56c-1.7,0-3-1.3-3-3v-6.7c0-1.7,1.3-3,3-3h5.3V31.8z"/>
	<path class="st0" d="M61.3,19.5c0-3.8-3.7-6.9-8.3-6.9"/>
	<path class="st1" d="M48.9,38.5h2c1.2,0,2.1,1.8,2.1,4v5.5c0,2.3,1.9,4.1,4.1,4.1h0c2.3,0,4.1-1.9,4.1-4.1V31.8"/>
</g>
<path class="st0" d="M39.8,37.3H22.1c-1.7,0-3-1.3-3-3V16.8c0-1.7,1.3-3,3-3h17.7c1.7,0,3,1.3,3,3v17.5C42.8,36,41.5,37.3,39.8,37.3
	z"/>
<line class="st1" x1="8.7" y1="62" x2="53" y2="62"/>
<path class="st0" d="M13.4,62V11c0-1.7,1.3-3,3-3h29c1.7,0,3,1.3,3,3v51"/>
</svg>
