<?xml version="1.0" encoding="utf-8"?>
<!-- Generator: Adobe Illustrator 25.4.1, SVG Export Plug-In . SVG Version: 6.00 Build 0)  -->
<svg version="1.1" id="Layer_1" xmlns="http://www.w3.org/2000/svg" xmlns:xlink="http://www.w3.org/1999/xlink" x="0px" y="0px"
	 viewBox="0 0 70 70" style="enable-background:new 0 0 70 70;" xml:space="preserve">
<style type="text/css">
	.st0{fill:none;stroke:#292929;stroke-width:2;stroke-linecap:round;stroke-linejoin:round;stroke-miterlimit:10;}
</style>
<g>
	<path class="st0" d="M18.5,32.6c-6.4,0.1-11.5,5.8-10.4,12.1c0.2,1,0.5,1.8,0.9,2.3c9.2,9.2,42.7,9.2,51.8,0
		c0.5-0.5,0.8-1.3,0.9-2.3c1.1-6.3-4-12-10.4-12.1"/>
	<path class="st0" d="M18.5,32.6C18.5,32.6,18.5,32.6,18.5,32.6c0-9.1,7.4-16.5,16.5-16.5s16.5,7.4,16.5,16.5c0,0,0,0,0,0v0
		c0,4.2-7.4,7.7-16.5,7.7S18.5,36.8,18.5,32.6"/>
</g>
<circle class="st0" cx="35" cy="47.1" r="3"/>
<circle class="st0" cx="54" cy="42.3" r="3"/>
<circle class="st0" cx="15.3" cy="42.3" r="3"/>
</svg>
