<?xml version="1.0" encoding="utf-8"?>
<!-- Generator: Adobe Illustrator 25.4.1, SVG Export Plug-In . SVG Version: 6.00 Build 0)  -->
<svg version="1.1" id="Layer_1" xmlns="http://www.w3.org/2000/svg" xmlns:xlink="http://www.w3.org/1999/xlink" x="0px" y="0px"
	 viewBox="0 0 70 70" style="enable-background:new 0 0 70 70;" xml:space="preserve">
<style type="text/css">
	.st0{fill:none;stroke:#292929;stroke-width:2;stroke-linecap:round;stroke-linejoin:round;stroke-miterlimit:10;}
</style>
<g>
	<g>
		<path class="st0" d="M42.2,26.2V14c0-1.2,1-2.1,2.1-2.1h0c1.1,0,1.9-0.9,1.9-1.9v0c0-1.1-0.9-1.9-1.9-1.9H25.7
			c-1.1,0-1.9,0.9-1.9,1.9v0c0,1.1,0.9,1.9,1.9,1.9h0c1.2,0,2.1,1,2.1,2.1v12.2L13.6,57.3c-1.3,2,0.1,4.7,2.5,4.7H35h18.9
			c2.4,0,3.8-2.7,2.5-4.7L42.2,26.2z"/>
		<path class="st0" d="M20.5,43h29H20.5z"/>
	</g>
	<g>
		<line class="st0" x1="42.2" y1="17.4" x2="35.4" y2="17.4"/>
		<line class="st0" x1="42.2" y1="22.4" x2="35.4" y2="22.4"/>
	</g>
	<circle class="st0" cx="23.5" cy="54.3" r="3"/>
	<circle class="st0" cx="44.1" cy="51.3" r="4.2"/>
</g>
</svg>
