<?xml version="1.0" encoding="utf-8"?>
<!-- Generator: Adobe Illustrator 25.2.3, SVG Export Plug-In . SVG Version: 6.00 Build 0)  -->
<svg version="1.1" id="Layer_1" xmlns="http://www.w3.org/2000/svg" xmlns:xlink="http://www.w3.org/1999/xlink" x="0px" y="0px"
	 viewBox="0 0 70 70" style="enable-background:new 0 0 70 70;" xml:space="preserve">
<style type="text/css">
	.st0{fill:none;stroke:#000000;stroke-width:2;stroke-miterlimit:10;}
</style>
<g>
	<path class="st0" d="M35,8c-9.2,0-16.7,7.5-16.7,16.7c0,4.7,1.5,7.4,3.3,10.4c1.5,2.7,3.1,5.4,4.1,10c0.3,1.3,0.6,3.6,0.8,5.3
		c0.1,1.1,1.1,2,2.2,2h12.8c1.1,0,2.1-0.8,2.2-2c0.2-1.7,0.5-4,0.8-5.3c1-4.6,2.6-7.4,4.1-10c1.7-3.1,3.3-5.7,3.3-10.4
		C51.7,15.5,44.2,8,35,8L35,8z"/>
	<path class="st0" d="M42.2,62H27.8c-0.7,0-1.3-0.6-1.3-1.3v-1.9c0-0.7,0.6-1.3,1.3-1.3h14.5c0.7,0,1.3,0.6,1.3,1.3v1.9
		C43.5,61.4,42.9,62,42.2,62z"/>
</g>
</svg>
