<?xml version="1.0" encoding="utf-8"?>
<!-- Generator: Adobe Illustrator 25.4.1, SVG Export Plug-In . SVG Version: 6.00 Build 0)  -->
<svg version="1.1" id="Layer_1" xmlns="http://www.w3.org/2000/svg" xmlns:xlink="http://www.w3.org/1999/xlink" x="0px" y="0px"
	 viewBox="0 0 70 70" style="enable-background:new 0 0 70 70;" xml:space="preserve">
<style type="text/css">
	.st0{fill:none;stroke:#292929;stroke-width:2;stroke-linecap:round;stroke-linejoin:round;stroke-miterlimit:10;}
</style>
<g>
	<path class="st0" d="M34.2,34.2c-7.8,2.1-15.5,4.1-23.3,6.2c-1.7,0.5-2.9,2-2.9,3.8v0c0,2.1,1.7,3.9,3.9,3.9h46.2
		c2.1,0,3.9-1.7,3.9-3.9v0c0-1.8-1.2-3.3-2.9-3.8l-23.3-6.2C35.3,34.1,34.7,34.1,34.2,34.2z"/>
	<path class="st0" d="M31,26c0-2.2,1.8-4,4-4c2.2,0,4,1.8,4,4c0,1.4-1.3,2.8-2.4,3.5c-1,0.6-1.6,1.7-1.6,2.8l0,1.8"/>
</g>
</svg>
