<?xml version="1.0" encoding="utf-8"?>
<!-- Generator: Adobe Illustrator 25.4.1, SVG Export Plug-In . SVG Version: 6.00 Build 0)  -->
<svg version="1.1" id="Layer_1" xmlns="http://www.w3.org/2000/svg" xmlns:xlink="http://www.w3.org/1999/xlink" x="0px" y="0px"
	 viewBox="0 0 70 70" style="enable-background:new 0 0 70 70;" xml:space="preserve">
<style type="text/css">
	.st0{fill:none;stroke:#292929;stroke-width:2;stroke-linecap:round;stroke-linejoin:round;stroke-miterlimit:10;}
</style>
<path class="st0" d="M21.5,11.6l27,46.8 M30.5,13.4L28,22.8 M18.5,20.3l9.5,2.5 M51.5,49.7L42,47.2 M39.5,56.6l2.5-9.4 M48.5,11.6
	l-27,46.8 M39.5,13.4l2.5,9.4 M51.5,20.3L42,22.8 M18.5,49.7l9.5-2.5 M30.5,56.6L28,47.2 M8,35h54 M56,28.1L49.1,35 M56,41.9
	L49.1,35 M14,28.1l6.9,6.9 M14,41.9l6.9-6.9"/>
</svg>
