<?xml version="1.0" encoding="utf-8"?>
<!-- Generator: Adobe Illustrator 25.4.1, SVG Export Plug-In . SVG Version: 6.00 Build 0)  -->
<svg version="1.1" id="Layer_1" xmlns="http://www.w3.org/2000/svg" xmlns:xlink="http://www.w3.org/1999/xlink" x="0px" y="0px"
	 viewBox="0 0 70 70" style="enable-background:new 0 0 70 70;" xml:space="preserve">
<style type="text/css">
	.st0{fill:none;stroke:#292929;stroke-width:2;stroke-linecap:round;stroke-linejoin:round;stroke-miterlimit:10;}
</style>
<g>
	<path class="st0" d="M24.5,22.6H16c-1.7,0-3-1.3-3-3V11c0-1.7,1.3-3,3-3h8.6c1.7,0,3,1.3,3,3v8.6C27.5,21.2,26.2,22.6,24.5,22.6z"
		/>
	<circle class="st0" cx="49.8" cy="54.7" r="7.3"/>
	<path class="st0" d="M20.2,22.6v26.3c0,3.3,2.7,6,6,6h6.3"/>
	<path class="st0" d="M49.8,47.4V21.1c0-3.3-2.7-6-6-6h-6.3"/>
	<line class="st0" x1="37.4" y1="15.1" x2="43.3" y2="9.3"/>
	<line class="st0" x1="37.4" y1="15.1" x2="43.3" y2="21"/>
	<g>
		<line class="st0" x1="33.4" y1="54.9" x2="27.5" y2="49"/>
		<line class="st0" x1="33.4" y1="54.9" x2="27.5" y2="60.7"/>
	</g>
</g>
</svg>
