<?xml version="1.0" encoding="utf-8"?>
<!-- Generator: Adobe Illustrator 25.4.1, SVG Export Plug-In . SVG Version: 6.00 Build 0)  -->
<svg version="1.1" id="Layer_1" xmlns="http://www.w3.org/2000/svg" xmlns:xlink="http://www.w3.org/1999/xlink" x="0px" y="0px"
	 viewBox="0 0 70 70" style="enable-background:new 0 0 70 70;" xml:space="preserve">
<style type="text/css">
	.st0{fill:none;stroke:#292929;stroke-width:2;stroke-linecap:round;stroke-linejoin:round;}
	.st1{fill:#292929;}
</style>
<g>
	<g>
		<path class="st0" d="M14,8h42c3.3,0,6,2.7,6,6v42c0,3.3-2.7,6-6,6H14c-3.3,0-6-2.7-6-6V14C8,10.7,10.7,8,14,8z"/>
	</g>
	<line class="st0" x1="8" y1="20" x2="62" y2="20"/>
	<g>
		<circle class="st1" cx="14.8" cy="14.1" r="1.5"/>
		<circle class="st1" cx="21" cy="14.1" r="1.5"/>
		<circle class="st1" cx="27.2" cy="14.1" r="1.5"/>
	</g>
	<g>
		<path class="st0" d="M25.6,41h-9c-1.7,0-3-1.3-3-3v-9c0-1.7,1.3-3,3-3h9c1.7,0,3,1.3,3,3v9C28.6,39.7,27.3,41,25.6,41z"/>
		<g>
			<line class="st0" x1="34" y1="28.5" x2="56.3" y2="28.5"/>
			<line class="st0" x1="34" y1="38.5" x2="56.3" y2="38.5"/>
		</g>
	</g>
	<path class="st0" d="M13.6,62V50c0-1.7,1.3-3,3-3h36.7c1.7,0,3,1.3,3,3v12"/>
</g>
</svg>
