<?xml version="1.0" encoding="utf-8"?>
<!-- Generator: Adobe Illustrator 25.4.1, SVG Export Plug-In . SVG Version: 6.00 Build 0)  -->
<svg version="1.1" id="Layer_1" xmlns="http://www.w3.org/2000/svg" xmlns:xlink="http://www.w3.org/1999/xlink" x="0px" y="0px"
	 viewBox="0 0 70 70" style="enable-background:new 0 0 70 70;" xml:space="preserve">
<style type="text/css">
	.st0{fill:none;stroke:#292929;stroke-width:2;stroke-linecap:round;stroke-linejoin:round;stroke-miterlimit:10;}
</style>
<path class="st0" d="M36.4,15.9l12-6.3c2.2-1.2,4.8,0.7,4.4,3.2l-2.3,13.4c-0.2,1,0.2,2,0.9,2.7l9.7,9.5c1.8,1.7,0.8,4.8-1.7,5.1
	l-13.4,1.9c-1,0.1-1.8,0.8-2.3,1.6l-6,12.2c-1.1,2.2-4.3,2.2-5.4,0l-6-12.2c-0.4-0.9-1.3-1.5-2.3-1.6l-13.4-1.9
	C8.2,43,7.2,40,9,38.2l9.7-9.5c0.7-0.7,1-1.7,0.9-2.7l-2.3-13.4c-0.4-2.5,2.2-4.3,4.4-3.2l12,6.3C34.5,16.3,35.5,16.3,36.4,15.9z"/>
</svg>
