<?xml version="1.0" encoding="utf-8"?>
<!-- Generator: Adobe Illustrator 25.4.1, SVG Export Plug-In . SVG Version: 6.00 Build 0)  -->
<svg version="1.1" id="Layer_1" xmlns="http://www.w3.org/2000/svg" xmlns:xlink="http://www.w3.org/1999/xlink" x="0px" y="0px"
	 viewBox="0 0 70 70" style="enable-background:new 0 0 70 70;" xml:space="preserve">
<style type="text/css">
	.st0{fill:none;stroke:#292929;stroke-width:2;stroke-linecap:round;stroke-linejoin:round;stroke-miterlimit:10;}
</style>
<g>
	<path class="st0" d="M14.8,25.2c0,0-8-5.2-6.6,8.2c0.9,8.6,6.6,10,6.6,10"/>
	<path class="st0" d="M35,17.4c-4,0-13.7,3.2-18,4.8c-1.3,0.5-2.2,1.7-2.2,3.1v18.6c0,5.5,14.7,8.8,20.2,8.8s20.2-3.3,20.2-8.8V25.2
		c0-1.4-0.9-2.6-2.2-3.1C48.7,20.6,39,17.4,35,17.4z"/>
	<path class="st0" d="M49.8,41.8c0,0-9.1,3.4-14.8,3.4c-5.9,0-14.8-3.4-14.8-3.4"/>
	<path class="st0" d="M49.8,28.2c0,0-9.1-3.4-14.8-3.4c-5.9,0-14.8,3.4-14.8,3.4"/>
	<line class="st0" x1="20.2" y1="35" x2="49.8" y2="35"/>
	<path class="st0" d="M55.2,25.2c0,0,8-5.2,6.6,8.2c-0.9,8.6-6.6,10-6.6,10"/>
</g>
</svg>
