<?xml version="1.0" encoding="utf-8"?>
<!-- Generator: Adobe Illustrator 25.4.1, SVG Export Plug-In . SVG Version: 6.00 Build 0)  -->
<svg version="1.1" id="Layer_1" xmlns="http://www.w3.org/2000/svg" xmlns:xlink="http://www.w3.org/1999/xlink" x="0px" y="0px"
	 viewBox="0 0 70 70" style="enable-background:new 0 0 70 70;" xml:space="preserve">
<style type="text/css">
	.st0{fill:none;stroke:#292929;stroke-width:2;stroke-linecap:round;stroke-linejoin:round;}
	.st1{fill:none;stroke:#292929;stroke-width:2;stroke-linecap:round;stroke-linejoin:round;stroke-miterlimit:10;}
</style>
<path class="st0" d="M56.1,62.1h-42c-3.3,0-6-2.7-6-6v-42c0-3.3,2.7-6,6-6h42c3.3,0,6,2.7,6,6v42C62.1,59.4,59.4,62.1,56.1,62.1z"/>
<g>
	<path class="st1" d="M27.3,20.2c1.8,0,3.1,1.5,3.2,3.3c0.3,6.3-6.5,8.7-6.5,8.7s-6.7-2.4-6.5-8.7c0.1-1.8,1.5-3.3,3.2-3.3
		c1.8,0,3.2,1.5,3.2,3.3C24,21.7,25.5,20.2,27.3,20.2z"/>
	<line class="st1" x1="17.5" y1="39.8" x2="52.9" y2="39.8"/>
	<line class="st1" x1="17.5" y1="49.8" x2="42.9" y2="49.8"/>
</g>
</svg>
