<?xml version="1.0" encoding="utf-8"?>
<!-- Generator: Adobe Illustrator 25.4.1, SVG Export Plug-In . SVG Version: 6.00 Build 0)  -->
<svg version="1.1" id="Layer_1" xmlns="http://www.w3.org/2000/svg" xmlns:xlink="http://www.w3.org/1999/xlink" x="0px" y="0px"
	 viewBox="0 0 70 70" style="enable-background:new 0 0 70 70;" xml:space="preserve">
<style type="text/css">
	.st0{fill:none;stroke:#292929;stroke-width:2;stroke-linecap:round;stroke-linejoin:round;stroke-miterlimit:10;}
</style>
<path class="st0" d="M59.5,24.8L23.2,61.2c-2.3,2.3-6.1,2.3-8.5,0l-5.4-5.4c-2.3-2.3-2.3-6.1,0-8.5L45.6,11c2.3-2.3,6.1-2.3,8.5,0
	l5.4,5.4C61.8,18.7,61.8,22.5,59.5,24.8z"/>
<path class="st0" d="M43.3,35.4L33.7,45c-1.2,1.2-3.1,1.2-4.2,0l-4-4c-1.2-1.2-1.2-3.1,0-4.2l9.6-9.6c1.2-1.2,3.1-1.2,4.2,0l4,4
	C44.5,32.3,44.5,34.2,43.3,35.4z"/>
</svg>
