<?xml version="1.0" encoding="utf-8"?>
<!-- Generator: Adobe Illustrator 25.4.1, SVG Export Plug-In . SVG Version: 6.00 Build 0)  -->
<svg version="1.1" id="Layer_1" xmlns="http://www.w3.org/2000/svg" xmlns:xlink="http://www.w3.org/1999/xlink" x="0px" y="0px"
	 viewBox="0 0 70 70" style="enable-background:new 0 0 70 70;" xml:space="preserve">
<style type="text/css">
	.st0{fill:none;stroke:#292929;stroke-width:2;stroke-linecap:round;stroke-linejoin:round;stroke-miterlimit:10;}
	.st1{fill:none;stroke:#292929;stroke-width:2;stroke-linecap:round;stroke-linejoin:round;}
</style>
<g>
	<path class="st0" d="M43.2,54H26.8c-3.3,0-6-2.7-6-6V18.2c0-3.3,2.7-6,6-6h16.4c3.3,0,6,2.7,6,6V48C49.2,51.3,46.5,54,43.2,54z"/>
	<path class="st0" d="M38,12.2c0.1-0.3,0.2-0.7,0.2-1.1C38.2,9.4,36.7,8,35,8c-1.7,0-3.2,1.4-3.2,3.2c0,0.4,0.1,0.7,0.2,1.1"/>
	<line class="st0" x1="35" y1="54" x2="35" y2="62"/>
	<path class="st1" d="M35,23.8c0.8,0.9,6.6,6.2,6.6,12c0,3.7-2.9,6.6-6.6,6.6s-6.6-2.9-6.6-6.6C28.4,30.1,34.2,24.7,35,23.8z"/>
</g>
</svg>
