<?xml version="1.0" encoding="utf-8"?>
<!-- Generator: Adobe Illustrator 25.2.3, SVG Export Plug-In . SVG Version: 6.00 Build 0)  -->
<svg version="1.1" id="Layer_1" xmlns="http://www.w3.org/2000/svg" xmlns:xlink="http://www.w3.org/1999/xlink" x="0px" y="0px"
	 viewBox="0 0 70 70" style="enable-background:new 0 0 70 70;" xml:space="preserve">
<style type="text/css">
	.st0{fill:none;stroke:#000000;stroke-width:2;stroke-linecap:round;stroke-linejoin:round;stroke-miterlimit:10;}
</style>
<circle class="st0" cx="35" cy="35" r="18.5"/>
<polyline class="st0" points="29.2,8 40.8,8 35,8 35,16.5 "/>
<polyline class="st0" points="29.2,62 40.8,62 35,62 35,53.5 "/>
<polyline class="st0" points="8,40.8 8,29.2 8,35 16.5,35 "/>
<polyline class="st0" points="62,39.7 62,28.2 62,33.9 53.5,33.9 "/>
<polyline class="st0" points="50.4,57.8 58.6,49.6 54.5,53.7 48.5,47.7 "/>
<polyline class="st0" points="20.4,10.5 12.2,18.6 16.3,14.5 22.3,20.5 "/>
<polyline class="st0" points="50.4,11.4 58.6,19.6 54.5,15.5 48.5,21.5 "/>
<polyline class="st0" points="19.6,58.6 11.4,50.4 15.5,54.5 21.5,48.5 "/>
</svg>
