<?xml version="1.0" encoding="utf-8"?>
<!-- Generator: Adobe Illustrator 25.4.1, SVG Export Plug-In . SVG Version: 6.00 Build 0)  -->
<svg version="1.1" id="Layer_1" xmlns="http://www.w3.org/2000/svg" xmlns:xlink="http://www.w3.org/1999/xlink" x="0px" y="0px"
	 viewBox="0 0 70 70" style="enable-background:new 0 0 70 70;" xml:space="preserve">
<style type="text/css">
	.st0{fill:none;stroke:#292929;stroke-width:2;stroke-linecap:round;stroke-linejoin:round;stroke-miterlimit:10;}
</style>
<path class="st0" d="M14.3,51.1v3.5 M55.7,51.1v3.5 M52.7,15.4H35H17.3c-1.6,0-3,1.3-3,3v5.3h0.6c2.4,0,4.4,2,4.4,4.4v9.6
	c0,0.9,0.7,1.5,1.5,1.5H35h14.3c0.7,0,1.5-0.6,1.5-1.5v-9.6c0-2.4,2-4.4,4.4-4.4h0.6v-5.3C55.7,16.8,54.4,15.4,52.7,15.4z
	 M57.6,23.8h-1.9h-0.6c-2.5,0-4.4,1.9-4.4,4.4v9.6c0,0.9-0.7,1.5-1.5,1.5H20.7c-0.7,0-1.5-0.6-1.5-1.5v-9.6c0-2.5-1.9-4.4-4.4-4.4
	h-0.6h-1.9c-2.5,0-4.4,1.9-4.4,4.4v18c0,2.5,1.9,4.4,4.4,4.4h1.9h41.4h1.9c2.5,0,4.4-1.9,4.4-4.4v-18C62,25.7,60.1,23.8,57.6,23.8z"
	/>
</svg>
