<?xml version="1.0" encoding="utf-8"?>
<!-- Generator: Adobe Illustrator 25.4.1, SVG Export Plug-In . SVG Version: 6.00 Build 0)  -->
<svg version="1.1" id="Layer_1" xmlns="http://www.w3.org/2000/svg" xmlns:xlink="http://www.w3.org/1999/xlink" x="0px" y="0px"
	 viewBox="0 0 70 70" style="enable-background:new 0 0 70 70;" xml:space="preserve">
<style type="text/css">
	.st0{fill:none;stroke:#292929;stroke-width:2;stroke-linecap:round;stroke-linejoin:round;stroke-miterlimit:10;}
</style>
<g>
	<g>
		<circle class="st0" cx="51.8" cy="40.1" r="10.2"/>
		<g>
			<path class="st0" d="M51.8,45.8V34.5"/>
			<path class="st0" d="M57.5,40.1H46.1"/>
		</g>
	</g>
	<g>
		<line class="st0" x1="50.4" y1="19.7" x2="58.5" y2="19.7"/>
		<line class="st0" x1="45.3" y1="19.7" x2="47.2" y2="27.6"/>
		<line class="st0" x1="19.3" y1="27.6" x2="21.2" y2="19.7"/>
		<line class="st0" x1="19.3" y1="27.6" x2="47.2" y2="27.6"/>
		<polyline class="st0" points="45.3,19.7 47.3,27.6 47.2,27.6 		"/>
		<line class="st0" x1="50.4" y1="19.7" x2="52.3" y2="29.9"/>
		<line class="st0" x1="16.1" y1="19.7" x2="21.2" y2="19.7"/>
		<line class="st0" x1="19.2" y1="27.6" x2="19.3" y2="27.6"/>
		<line class="st0" x1="48" y1="30.6" x2="47.2" y2="27.6"/>
		<line class="st0" x1="16.1" y1="19.7" x2="8" y2="19.7"/>
		<polyline class="st0" points="16.1,19.7 11.5,45.3 15,45.3 19.3,27.6 		"/>
		<line class="st0" x1="50.4" y1="19.7" x2="45.3" y2="19.7"/>
		<line class="st0" x1="45.3" y1="19.7" x2="21.2" y2="19.7"/>
	</g>
</g>
</svg>
