<?xml version="1.0" encoding="utf-8"?>
<!-- Generator: Adobe Illustrator 25.2.1, SVG Export Plug-In . SVG Version: 6.00 Build 0)  -->
<svg version="1.1" id="Layer_1" xmlns="http://www.w3.org/2000/svg" xmlns:xlink="http://www.w3.org/1999/xlink" x="0px" y="0px"
	 viewBox="0 0 70 70" style="enable-background:new 0 0 70 70;" xml:space="preserve">
<style type="text/css">
	.st0{fill:none;stroke:#000000;stroke-width:2;stroke-linecap:round;stroke-linejoin:round;stroke-miterlimit:10;}
</style>
<path class="st0" d="M46.6,52.6H23.4c-3.3,0-6-2.7-6-6V23.4c0-3.3,2.7-6,6-6h23.1c3.3,0,6,2.7,6,6v23.1
	C52.6,49.9,49.9,52.6,46.6,52.6z"/>
<path class="st0" d="M25.2,41.8V28.2c0-1.6,1.4-3,3-3h13.6c1.7,0,3,1.4,3,3v13.6c0,1.7-1.3,3-3,3H28.2
	C26.6,44.8,25.2,43.5,25.2,41.8z"/>
<line class="st0" x1="26.1" y1="17.4" x2="26.1" y2="8"/>
<line class="st0" x1="43.7" y1="17.4" x2="43.7" y2="8"/>
<line class="st0" x1="35" y1="17.4" x2="35" y2="8"/>
<line class="st0" x1="26.2" y1="62" x2="26.2" y2="52.6"/>
<line class="st0" x1="43.8" y1="62" x2="43.8" y2="52.6"/>
<line class="st0" x1="35.1" y1="62" x2="35.1" y2="52.6"/>
<line class="st0" x1="52.6" y1="27" x2="62.1" y2="27"/>
<line class="st0" x1="52.6" y1="44.6" x2="62.1" y2="44.6"/>
<line class="st0" x1="52.6" y1="36" x2="62.1" y2="36"/>
<line class="st0" x1="7.9" y1="27.2" x2="17.4" y2="27.2"/>
<line class="st0" x1="7.9" y1="44.7" x2="17.4" y2="44.7"/>
<line class="st0" x1="7.9" y1="36.1" x2="17.4" y2="36.1"/>
</svg>
