<?xml version="1.0" encoding="utf-8"?>
<!-- Generator: Adobe Illustrator 25.4.1, SVG Export Plug-In . SVG Version: 6.00 Build 0)  -->
<svg version="1.1" id="Layer_1" xmlns="http://www.w3.org/2000/svg" xmlns:xlink="http://www.w3.org/1999/xlink" x="0px" y="0px"
	 viewBox="0 0 70 70" style="enable-background:new 0 0 70 70;" xml:space="preserve">
<style type="text/css">
	.st0{fill:none;stroke:#292929;stroke-width:2;stroke-linecap:round;stroke-linejoin:round;stroke-miterlimit:3;}
</style>
<path class="st0" d="M60.6,9.4c1.9,1.9,1.9,4.9,0,6.8L48.1,28.7l6.4,27.8c0.2,1-0.1,2.1-0.8,2.8l-0.4,0.4c-1.4,1.5-3.9,1.1-4.8-0.7
	L38,38.8L25.5,51.3l1.1,7.4c0,0.3-0.1,0.6-0.3,0.9l-2.1,2.1c-0.5,0.5-1.3,0.4-1.6-0.2l-5-9l-9.1-5c-0.6-0.3-0.7-1.1-0.2-1.6l2.1-2.1
	c0.2-0.2,0.6-0.3,0.9-0.3l7.5,1.1l12.4-12.4L11,21.5c-1.8-1-2.2-3.4-0.7-4.8l0.4-0.4c0.7-0.7,1.8-1,2.8-0.8l27.8,6.4L53.8,9.4
	C55.6,7.6,58.8,7.6,60.6,9.4z"/>
<path class="st0" d="M41.3,21.9L31.2,32.1L41.3,21.9z"/>
<line class="st0" x1="38" y1="38.8" x2="48.1" y2="28.7"/>
<path class="st0" d="M22.8,47.9"/>
<path class="st0" d="M13.1,57.7"/>
<line class="st0" x1="13.1" y1="57.7" x2="24" y2="46.8"/>
<line class="st0" x1="18.8" y1="44.6" x2="17.6" y2="52.5"/>
<line class="st0" x1="25.5" y1="51.3" x2="17.6" y2="52.5"/>
</svg>
