<?xml version="1.0" encoding="utf-8"?>
<!-- Generator: Adobe Illustrator 25.2.1, SVG Export Plug-In . SVG Version: 6.00 Build 0)  -->
<svg version="1.1" id="Layer_1" xmlns="http://www.w3.org/2000/svg" xmlns:xlink="http://www.w3.org/1999/xlink" x="0px" y="0px"
	 viewBox="0 0 70 70" style="enable-background:new 0 0 70 70;" xml:space="preserve">
<style type="text/css">
	.st0{fill:none;stroke:#000000;stroke-width:2;stroke-linecap:round;stroke-linejoin:round;stroke-miterlimit:10;}
	.st1{fill:#172328;}
</style>
<line class="st0" x1="52.6" y1="24" x2="62.1" y2="24"/>
<line class="st0" x1="52.6" y1="47.6" x2="62.1" y2="47.6"/>
<line class="st0" x1="52.6" y1="36" x2="62.1" y2="36"/>
<line class="st0" x1="7.9" y1="24.2" x2="17.4" y2="24.2"/>
<line class="st0" x1="7.9" y1="47.7" x2="17.4" y2="47.7"/>
<line class="st0" x1="7.9" y1="36.1" x2="17.4" y2="36.1"/>
<path class="st0" d="M46.6,62H23.4c-3.3,0-6-2.7-6-6V11c0-1.7,1.3-3,3-3h29.1c1.7,0,3,1.3,3,3v45C52.6,59.3,49.9,62,46.6,62z"/>
<rect y="1063" class="st1" width="58.1" height="17"/>
<line class="st0" x1="27.8" y1="55.4" x2="42.2" y2="55.4"/>
</svg>
