<?xml version="1.0" encoding="utf-8"?>
<!-- Generator: Adobe Illustrator 25.4.1, SVG Export Plug-In . SVG Version: 6.00 Build 0)  -->
<svg version="1.1" id="Layer_1" xmlns="http://www.w3.org/2000/svg" xmlns:xlink="http://www.w3.org/1999/xlink" x="0px" y="0px"
	 viewBox="0 0 70 70" style="enable-background:new 0 0 70 70;" xml:space="preserve">
<style type="text/css">
	.st0{fill:none;stroke:#292929;stroke-width:2;stroke-linecap:round;stroke-linejoin:round;stroke-miterlimit:10;}
</style>
<g>
	<path class="st0" d="M29.6,62c-7.9,0-14.3-6.4-14.3-14.3V22.3C15.3,14.4,21.7,8,29.6,8h10.7c7.9,0,14.3,6.4,14.3,14.3v25.3
		C54.6,55.6,48.1,62,40.3,62H29.6z"/>
	<path class="st0" d="M40.3,57.8H29.6c-5.6,0-10.1-4.6-10.1-10.1V22.3c0-5.6,4.6-10.1,10.1-10.1h10.7c5.6,0,10.1,4.6,10.1,10.1v25.3
		C50.4,53.2,45.9,57.8,40.3,57.8z"/>
	<line class="st0" x1="19.5" y1="26.8" x2="50.5" y2="26.8"/>
	<line class="st0" x1="30.6" y1="22.6" x2="39.4" y2="22.6"/>
	<path class="st0" d="M50.5,35.2c-1.3-1.1-2.9-1.8-4.8-1.8c-2.4,0-4.6,1.2-5.9,3c-0.3,0.4-0.8,0.7-1.3,0.6h0c-2.9,0-5.3,2.4-5.3,5.3
		c0,2.9,2.2,5.2,5.1,5.3h11.9"/>
</g>
</svg>
