<?xml version="1.0" encoding="utf-8"?>
<!-- Generator: Adobe Illustrator 25.4.1, SVG Export Plug-In . SVG Version: 6.00 Build 0)  -->
<svg version="1.1" id="Layer_1" xmlns="http://www.w3.org/2000/svg" xmlns:xlink="http://www.w3.org/1999/xlink" x="0px" y="0px"
	 viewBox="0 0 70 70" style="enable-background:new 0 0 70 70;" xml:space="preserve">
<style type="text/css">
	.st0{fill:none;stroke:#292929;stroke-width:2;stroke-linecap:round;stroke-linejoin:round;stroke-miterlimit:10;}
</style>
<path class="st0" d="M53.6,59.5H16.4c-1.6,0-2.9-1.3-2.9-2.9V10.9c0-1.6,1.3-2.9,2.9-2.9h37.2c1.6,0,2.9,1.3,2.9,2.9v45.8
	C56.5,58.2,55.2,59.5,53.6,59.5z"/>
<line class="st0" x1="13.7" y1="47.3" x2="56.3" y2="47.3"/>
<line class="st0" x1="28.7" y1="53.6" x2="41.3" y2="53.6"/>
<g>
	<line class="st0" x1="35" y1="8" x2="35" y2="47.3"/>
	<line class="st0" x1="29.3" y1="19.1" x2="29.3" y2="36.2"/>
	<line class="st0" x1="40.7" y1="19.1" x2="40.7" y2="36.2"/>
</g>
<rect x="17.4" y="21.6" class="st0" width="7.2" height="12.1"/>
<polyline class="st0" points="21,29 21,26 17.4,26 24.6,26 "/>
<path class="st0" d="M17.3,59.5V62"/>
<path class="st0" d="M52.4,59.5V62"/>
</svg>
