<?xml version="1.0" encoding="utf-8"?>
<!-- Generator: Adobe Illustrator 25.4.1, SVG Export Plug-In . SVG Version: 6.00 Build 0)  -->
<svg version="1.1" id="Layer_1" xmlns="http://www.w3.org/2000/svg" xmlns:xlink="http://www.w3.org/1999/xlink" x="0px" y="0px"
	 viewBox="0 0 70 70" style="enable-background:new 0 0 70 70;" xml:space="preserve">
<style type="text/css">
	.st0{fill:none;stroke:#292929;stroke-width:2;stroke-miterlimit:10;}
</style>
<path class="st0" d="M54.7,62H15.3c-1.7,0-3-1.3-3-3V11c0-1.7,1.3-3,3-3h39.3c1.7,0,3,1.3,3,3v48C57.7,60.7,56.3,62,54.7,62z"/>
<line class="st0" x1="12.3" y1="18.6" x2="57.7" y2="18.6"/>
<path class="st0" d="M28.3,14.9H17.9c-0.9,0-1.6-0.7-1.6-1.6v0c0-0.9,0.7-1.6,1.6-1.6h10.4c0.9,0,1.6,0.7,1.6,1.6v0
	C29.8,14.2,29.1,14.9,28.3,14.9z"/>
<circle class="st0" cx="51.9" cy="13.3" r="1.8"/>
<circle class="st0" cx="43.4" cy="13.3" r="1.8"/>
<g>
	<circle class="st0" cx="35" cy="40.3" r="16.2"/>
	<path class="st0" d="M41.6,40.3c0-3.6,1.2-6.6,2.9-7.7C42.3,29.8,38.9,28,35,28c-6.8,0-12.2,5.5-12.2,12.2
		c0,6.8,5.5,12.2,12.2,12.2c3.9,0,7.3-1.8,9.5-4.6C42.8,46.9,41.6,43.8,41.6,40.3z"/>
</g>
</svg>
