<?xml version="1.0" encoding="utf-8"?>
<!-- Generator: Adobe Illustrator 25.2.1, SVG Export Plug-In . SVG Version: 6.00 Build 0)  -->
<svg version="1.1" id="Layer_1" xmlns="http://www.w3.org/2000/svg" xmlns:xlink="http://www.w3.org/1999/xlink" x="0px" y="0px"
	 viewBox="0 0 70 70" style="enable-background:new 0 0 70 70;" xml:space="preserve">
<style type="text/css">
	.st0{fill-rule:evenodd;clip-rule:evenodd;fill:#292929;}
</style>
<path class="st0" d="M14.4,11h2.8c0.7,0,1.2,0.6,1.2,1.2v45.2c0,0.7-0.6,1.2-1.2,1.2h-2.5c-0.7,0-1.2-0.6-1.2-1.2V11.9
	C13.5,11.4,13.9,11,14.4,11z"/>
<path class="st0" d="M22.6,11h6.2c0.7,0,1.2,0.6,1.2,1.2v45.2c0,0.7-0.6,1.2-1.2,1.2h-6.2c-0.7,0-1.2-0.6-1.2-1.2V12.2
	C21.3,11.6,21.9,11,22.6,11z"/>
<path class="st0" d="M34,11L34,11c0.7,0,1.2,0.6,1.2,1.2v45.2c0,0.7-0.6,1.2-1.2,1.2h0c-0.7,0-1.2-0.6-1.2-1.2V12.2
	C32.7,11.6,33.3,11,34,11z"/>
<path class="st0" d="M38.6,11h2.8c0.7,0,1.2,0.6,1.2,1.2v45.2c0,0.7-0.6,1.2-1.2,1.2h-2.5c-0.7,0-1.2-0.6-1.2-1.2V11.9
	C37.7,11.4,38.1,11,38.6,11z"/>
<path class="st0" d="M46.3,11L46.3,11c0.7,0,1.2,0.6,1.2,1.2v45.2c0,0.7-0.6,1.2-1.2,1.2h0c-0.7,0-1.2-0.6-1.2-1.2V12.2
	C45.1,11.6,45.6,11,46.3,11z"/>
<path class="st0" d="M51.3,11h2.5c0.7,0,1.2,0.6,1.2,1.2v45.2c0,0.7-0.6,1.2-1.2,1.2h-2.5c-0.7,0-1.2-0.6-1.2-1.2V12.2
	C50,11.6,50.6,11,51.3,11z"/>
<path class="st0" d="M57.9,11h2.8c0.7,0,1.2,0.6,1.2,1.2v45.2c0,0.7-0.6,1.2-1.2,1.2h-2.5c-0.7,0-1.2-0.6-1.2-1.2V11.9
	C57,11.4,57.5,11,57.9,11z"/>
<path class="st0" d="M9.2,11h0.5c0.7,0,1.2,0.6,1.2,1.2v45.2c0,0.7-0.6,1.2-1.2,1.2H9.2c-0.7,0-1.2-0.6-1.2-1.2V12.2
	C8,11.6,8.6,11,9.2,11z"/>
</svg>
