<?xml version="1.0" encoding="utf-8"?>
<!-- Generator: Adobe Illustrator 25.2.1, SVG Export Plug-In . SVG Version: 6.00 Build 0)  -->
<svg version="1.1" id="Layer_1" xmlns="http://www.w3.org/2000/svg" xmlns:xlink="http://www.w3.org/1999/xlink" x="0px" y="0px"
	 viewBox="0 0 70 70" style="enable-background:new 0 0 70 70;" xml:space="preserve">
<style type="text/css">
	.st0{fill:none;stroke:#292929;stroke-width:2;stroke-miterlimit:10;}
	.st1{fill:none;stroke:#292929;stroke-width:2;stroke-linecap:round;stroke-linejoin:round;stroke-miterlimit:10;}
</style>
<g>
	<path class="st0" d="M25.6,43.7h-5.7c-0.2,0-0.5,0.1-0.7,0.3L8.3,54.1c-0.7,0.6-0.2,1.7,0.7,1.7h52c0.9,0,1.3-1.1,0.7-1.7
		L50.8,43.9c-0.2-0.2-0.4-0.3-0.7-0.3h-5.8"/>
	<g>
		<g>
			<path class="st1" d="M45.1,43.1L37.4,49c-1.4,1.1-3.4,1.1-4.8,0l-7.8-5.9c-1.9-1.5-3.1-3.9-3.1-6.2V18.2c0-2.1,1.8-4,4-4h18.6
				c2.1,0,4,1.8,4,4v18.6C48.3,39.3,47.1,41.5,45.1,43.1z"/>
		</g>
		<path class="st1" d="M41.5,37.2c0-0.1,0-0.2,0-0.4V34c0-1.8-0.6-3.3-2-4.6c-1.3-1.3-2.8-1.9-4.6-1.9s-3.3,0.7-4.6,2
			c-1.3,1.3-1.9,2.7-1.9,4.5v2.8c0,0.1,0,0.2,0,0.4"/>
		<path class="st1" d="M38.7,23.8c0-2-1.6-3.7-3.7-3.7c-2,0-3.7,1.6-3.7,3.7s1.6,3.7,3.7,3.7C37,27.5,38.7,25.9,38.7,23.8z"/>
	</g>
</g>
</svg>
