<?xml version="1.0" encoding="utf-8"?>
<!-- Generator: Adobe Illustrator 25.2.1, SVG Export Plug-In . SVG Version: 6.00 Build 0)  -->
<svg version="1.1" id="Layer_1" xmlns="http://www.w3.org/2000/svg" xmlns:xlink="http://www.w3.org/1999/xlink" x="0px" y="0px"
	 viewBox="0 0 70 70" style="enable-background:new 0 0 70 70;" xml:space="preserve">
<style type="text/css">
	.st0{fill:none;stroke:#292929;stroke-width:2;stroke-linecap:round;stroke-linejoin:round;stroke-miterlimit:10;}
</style>
<g>
	<g>
		<g>
			<path class="st0" d="M47.7,45.2L38,52.6c-1.8,1.4-4.3,1.4-6,0l-9.8-7.4c-2.4-1.9-3.9-4.9-3.9-7.8V13.8c0-2.6,2.3-5,5-5h23.4
				c2.6,0,5,2.3,5,5v23.4C51.7,40.4,50.2,43.2,47.7,45.2z"/>
		</g>
		<path class="st0" d="M43.2,37.8c0-0.1,0-0.3,0-0.5v-3.5c0-2.3-0.8-4.2-2.5-5.8c-1.6-1.6-3.5-2.4-5.8-2.4s-4.2,0.9-5.8,2.5
			c-1.6,1.6-2.4,3.4-2.4,5.7v3.5c0,0.1,0,0.3,0,0.5"/>
		<path class="st0" d="M39.7,20.9c0-2.5-2-4.7-4.7-4.7c-2.5,0-4.7,2-4.7,4.7s2,4.7,4.7,4.7C37.5,25.6,39.7,23.5,39.7,20.9z"/>
	</g>
	<path class="st0" d="M24.4,46.9C14.8,48.1,8,50.7,8,53.8c0,4.1,12.1,7.4,27,7.4c14.9,0,27-3.3,27-7.4c0-3.1-6.8-5.7-16.5-6.8"/>
</g>
</svg>
