<?xml version="1.0" encoding="utf-8"?>
<!-- Generator: Adobe Illustrator 25.2.1, SVG Export Plug-In . SVG Version: 6.00 Build 0)  -->
<svg version="1.1" id="Layer_1" xmlns="http://www.w3.org/2000/svg" xmlns:xlink="http://www.w3.org/1999/xlink" x="0px" y="0px"
	 viewBox="0 0 70 70" style="enable-background:new 0 0 70 70;" xml:space="preserve">
<style type="text/css">
	.st0{fill:none;stroke:#292929;stroke-width:2;stroke-linecap:round;stroke-linejoin:round;stroke-miterlimit:10;}
	.st1{fill:none;stroke:#292929;stroke-width:2;stroke-linecap:round;stroke-linejoin:round;}
	.st2{fill:#292929;}
</style>
<g>
	<path class="st0" d="M49.1,56.3l-6.6,5c-1.2,0.9-2.9,0.9-4.1,0l-6.6-5C30.2,55,29.2,53,29.2,51V35.2c0-1.8,1.5-3.4,3.4-3.4h15.8
		c1.8,0,3.4,1.5,3.4,3.4V51C51.8,53.1,50.8,55,49.1,56.3z"/>
</g>
<path class="st1" d="M43.6,31.8V13.3c0-2.9-2.4-5.3-5.3-5.3H23.6c-2.9,0-5.3,2.4-5.3,5.3v37c0,2.9,2.4,5.3,5.3,5.3h7.5"/>
<circle class="st2" cx="30.9" cy="14.2" r="1.8"/>
<path class="st0" d="M46,51.3c0-0.1,0-0.2,0-0.3v-2.4c0-1.5-0.5-2.8-1.7-3.9c-1.1-1.1-2.4-1.6-3.9-1.6s-2.8,0.6-3.9,1.7
	c-1.1,1.1-1.6,2.3-1.6,3.8V51c0,0.1,0,0.2,0,0.3"/>
<path class="st0" d="M43.6,40c0-1.7-1.4-3.1-3.1-3.1s-3.1,1.4-3.1,3.1s1.4,3.1,3.1,3.1S43.6,41.7,43.6,40z"/>
</svg>
