<?xml version="1.0" encoding="utf-8"?>
<!-- Generator: Adobe Illustrator 25.4.1, SVG Export Plug-In . SVG Version: 6.00 Build 0)  -->
<svg version="1.1" id="Layer_1" xmlns="http://www.w3.org/2000/svg" xmlns:xlink="http://www.w3.org/1999/xlink" x="0px" y="0px"
	 viewBox="0 0 70 70" style="enable-background:new 0 0 70 70;" xml:space="preserve">
<style type="text/css">
	.st0{fill:none;stroke:#292929;stroke-width:2;stroke-miterlimit:10;}
	.st1{fill:none;stroke:#292929;stroke-width:2;stroke-linecap:round;stroke-linejoin:round;stroke-miterlimit:10;}
</style>
<path class="st0" d="M61.9,30.3l-4.2-7.9c-0.5-1-1.5-1.6-2.6-1.6h-8.5v20.5c0.3-0.1,0.6-0.1,1-0.1c3.2,0,5.8,2.6,5.8,5.8H59
	c1.7,0,3-1.3,3-3V30.8C62,30.6,62,30.5,61.9,30.3z"/>
<path class="st0" d="M46.6,41.3V20.9V20c0-1.6-1.3-3-3-3H11c-1.7,0-3,1.3-3,3v24.1c0,1.7,1.4,3,3,3h1.8c0-3.2,2.6-5.8,5.8-5.8
	s5.8,2.6,5.8,5.8h17.4C41.7,44.2,43.8,41.8,46.6,41.3z"/>
<path class="st0" d="M18.6,52.9c3.2,0,5.8-2.6,5.8-5.8s-2.6-5.8-5.8-5.8s-5.8,2.6-5.8,5.8C12.8,50.3,15.4,52.9,18.6,52.9z"/>
<path class="st0" d="M47.5,52.9c3.2,0,5.8-2.6,5.8-5.8s-2.6-5.8-5.8-5.8s-5.8,2.6-5.8,5.8C41.7,50.3,44.3,52.9,47.5,52.9z"/>
<path class="st1" d="M28.2,23.1l1.5,2.9c0.1,0.3,0.4,0.5,0.8,0.5l3.1,0.4c0.8,0.1,1.2,1.1,0.6,1.7l-2.3,2.2
	c-0.2,0.2-0.4,0.6-0.3,0.9L32,35c0.1,0.8-0.7,1.4-1.5,1.1l-2.8-1.5c-0.3-0.2-0.6-0.2-0.9,0L24,36c-0.7,0.4-1.6-0.2-1.5-1.1l0.6-3.2
	c0.1-0.3-0.1-0.7-0.3-0.9l-2.3-2.2c-0.6-0.6-0.3-1.6,0.6-1.7l3.1-0.4c0.3,0,0.6-0.2,0.8-0.5l1.5-2.9C26.8,22.4,27.8,22.4,28.2,23.1z
	"/>
</svg>
