<?xml version="1.0" encoding="utf-8"?>
<!-- Generator: Adobe Illustrator 25.2.3, SVG Export Plug-In . SVG Version: 6.00 Build 0)  -->
<svg version="1.1" id="Layer_1" xmlns="http://www.w3.org/2000/svg" xmlns:xlink="http://www.w3.org/1999/xlink" x="0px" y="0px"
	 viewBox="0 0 70 70" style="enable-background:new 0 0 70 70;" xml:space="preserve">
<style type="text/css">
	.st0{fill:none;stroke:#292929;stroke-width:2;stroke-linecap:round;stroke-linejoin:round;stroke-miterlimit:10;}
</style>
<g>
	<path class="st0" d="M38.1,17.8l-2.4,12.8c-0.2,0.6,0.4,1.2,1.2,1.2h7c1.8,0,3,2,1.8,3.8L33.7,53c-0.6,1-2,0.2-1.8-0.6l2.6-14.5
		c0.2-0.6-0.4-1.2-1.2-1.2h-7c-1.8,0-3-2-1.8-3.8l11.9-15.9C36.7,16,38.3,16.7,38.1,17.8z"/>
	<g>
		<line class="st0" x1="8" y1="32.7" x2="16.2" y2="32.7"/>
		<line class="st0" x1="8.2" y1="17.7" x2="16" y2="20.5"/>
		<line class="st0" x1="8.2" y1="47.7" x2="16" y2="44.9"/>
	</g>
	<g>
		<line class="st0" x1="62" y1="32.7" x2="53.8" y2="32.7"/>
		<line class="st0" x1="61.8" y1="17.7" x2="54" y2="20.5"/>
		<line class="st0" x1="61.8" y1="47.7" x2="54" y2="44.9"/>
	</g>
</g>
</svg>
