<?xml version="1.0" encoding="utf-8"?>
<!-- Generator: Adobe Illustrator 25.2.1, SVG Export Plug-In . SVG Version: 6.00 Build 0)  -->
<svg version="1.1" id="Layer_1" xmlns="http://www.w3.org/2000/svg" xmlns:xlink="http://www.w3.org/1999/xlink" x="0px" y="0px"
	 viewBox="0 0 70 70" style="enable-background:new 0 0 70 70;" xml:space="preserve">
<style type="text/css">
	.st0{fill:none;stroke:#292929;stroke-width:2;stroke-linecap:round;stroke-linejoin:round;stroke-miterlimit:10;}
</style>
<g>
	<path class="st0" d="M8,44.6c0.9-7.3,4-25.4,10.7-25.4c6.4,0-2.7,21.9,0.8,30.2c0.5,0.8,1.4,1.4,2.4,1.3c1.4-0.1,2.2-1.7,2.8-3
		c1.2-2.7,2.5-5.3,3.6-8c4.1-9.7,5.1,0.1,6.5,0.4c1.4,0.3,4-1.1,5.4-2.6c0.7-0.9,1.7-0.6,2.2,0.4c0.3,0.5,0.4,1.1,0.7,1.6
		c0.8,1.2,2.7,1.1,3.8,0.3c1.2-0.9,0.9-3.7,2.4-3.7c0.9,0,0.8,1.7,1.2,2.6c0.1,0.2,0.2,0.4,0.4,0.5c1.1,0.7,4.5-2.8,5.6-3.5
		c1.6-1,3.6-1.7,5.2-0.8"/>
	<path class="st0" d="M11.8,44.6H62"/>
</g>
</svg>
