<?xml version="1.0" encoding="utf-8"?>
<!-- Generator: Adobe Illustrator 25.4.1, SVG Export Plug-In . SVG Version: 6.00 Build 0)  -->
<svg version="1.1" id="Layer_1" xmlns="http://www.w3.org/2000/svg" xmlns:xlink="http://www.w3.org/1999/xlink" x="0px" y="0px"
	 viewBox="0 0 70 70" style="enable-background:new 0 0 70 70;" xml:space="preserve">
<style type="text/css">
	.st0{fill:none;stroke:#292929;stroke-width:2;stroke-linecap:round;stroke-linejoin:round;stroke-miterlimit:10;}
	.st1{fill:none;stroke:#292929;stroke-width:2;stroke-linecap:round;stroke-linejoin:round;}
</style>
<path class="st0" d="M28.8,51.9L7.5,46.3L28.8,51.9z"/>
<path class="st0" d="M38.4,46.8L51.6,8.5l10.6,2.8"/>
<g>
	<path class="st1" d="M33.2,31.7l2.5-6.2"/>
	<g>
		<path class="st1" d="M25,28.5l2.5-6.2"/>
		<path class="st1" d="M23.9,23.8l3.6-1.6l1.6,3.6"/>
		<path class="st1" d="M32.1,27l3.6-1.6l1.6,3.6"/>
	</g>
</g>
<path class="st0" d="M35.3,46.7l9.6-24.5c0.2-0.5-0.1-1.1-0.6-1.3l-20-7.8c-0.5-0.2-1.1,0.1-1.3,0.6L11.7,42.5
	c-0.2,0.5,0.1,1.1,0.6,1.3l17.1,6.7"/>
<circle class="st0" cx="35.8" cy="54" r="7.2"/>
</svg>
