<?xml version="1.0" encoding="utf-8"?>
<!-- Generator: Adobe Illustrator 25.2.3, SVG Export Plug-In . SVG Version: 6.00 Build 0)  -->
<svg version="1.1" id="Layer_1" xmlns="http://www.w3.org/2000/svg" xmlns:xlink="http://www.w3.org/1999/xlink" x="0px" y="0px"
	 viewBox="0 0 70 70" style="enable-background:new 0 0 70 70;" xml:space="preserve">
<style type="text/css">
	.st0{fill:none;stroke:#292929;stroke-width:2;stroke-linecap:round;stroke-linejoin:round;stroke-miterlimit:10;}
</style>
<g>
	<path class="st0" d="M60.7,24.2l-3.1,2.4c-0.5,0.4-1.4,0.4-1.9,0l-3.1-2.4c-0.8-0.6-1.3-1.6-1.3-2.5v-7.5c0-0.9,0.8-1.6,1.6-1.6
		h7.5c0.9,0,1.6,0.8,1.6,1.6v7.5C62,22.7,61.5,23.5,60.7,24.2z"/>
	<path class="st0" d="M17.4,54.7l-3.1,2.4c-0.5,0.4-1.4,0.4-1.9,0l-3.1-2.4C8.5,54.1,8,53.1,8,52.3v-7.5c0-0.9,0.8-1.6,1.6-1.6h7.5
		c0.9,0,1.6,0.8,1.6,1.6v7.5C18.7,53.2,18.2,54.1,17.4,54.7z"/>
	<path class="st0" d="M13.4,37.8V24.4c0-3.6,2.9-6.4,6.4-6.4h26.1"/>
	<path class="st0" d="M57.1,32.2v13.4c0,3.6-2.9,6.4-6.4,6.4H24.1"/>
</g>
</svg>
