<?xml version="1.0" encoding="utf-8"?>
<!-- Generator: Adobe Illustrator 25.2.1, SVG Export Plug-In . SVG Version: 6.00 Build 0)  -->
<svg version="1.1" id="Layer_1" xmlns="http://www.w3.org/2000/svg" xmlns:xlink="http://www.w3.org/1999/xlink" x="0px" y="0px"
	 viewBox="0 0 70 70" style="enable-background:new 0 0 70 70;" xml:space="preserve">
<style type="text/css">
	.st0{fill:none;stroke:#292929;stroke-width:2;stroke-linecap:round;stroke-linejoin:round;}
	.st1{fill:none;stroke:#292929;stroke-width:2;stroke-linecap:round;stroke-linejoin:round;stroke-miterlimit:10;}
</style>
<path class="st0" d="M8,43.4c0,3.3,2.7,6,6,6h42c3.3,0,6-2.7,6-6V26.6c0-3.3-2.7-6-6-6H14c-3.3,0-6,2.7-6,6V43.4z"/>
<line class="st1" x1="13" y1="30.8" x2="13" y2="39.2"/>
<g>
	<polyline class="st1" points="44.9,31.3 44.9,27.6 41.2,27.6 	"/>
	<polyline class="st1" points="30.1,31.3 30.1,27.6 33.8,27.6 	"/>
	<polyline class="st1" points="41.2,42.4 44.9,42.4 44.9,38.7 	"/>
	<polyline class="st1" points="30.1,38.7 30.1,42.4 33.8,42.4 	"/>
</g>
</svg>
