<?xml version="1.0" encoding="utf-8"?>
<!-- Generator: Adobe Illustrator 25.2.1, SVG Export Plug-In . SVG Version: 6.00 Build 0)  -->
<svg version="1.1" id="Layer_1" xmlns="http://www.w3.org/2000/svg" xmlns:xlink="http://www.w3.org/1999/xlink" x="0px" y="0px"
	 viewBox="0 0 70 70" style="enable-background:new 0 0 70 70;" xml:space="preserve">
<style type="text/css">
	.st0{fill:none;stroke:#292929;stroke-width:2;stroke-linecap:round;stroke-linejoin:round;}
	.st1{fill:none;stroke:#292929;stroke-width:2;stroke-miterlimit:10;}
	.st2{fill:none;stroke:#292929;stroke-width:2;stroke-linecap:round;stroke-linejoin:round;stroke-miterlimit:10;}
</style>
<path class="st0" d="M43.4,62c3.3,0,6-2.7,6-6V14c0-3.3-2.7-6-6-6H26.6c-3.3,0-6,2.7-6,6v42c0,3.3,2.7,6,6,6H43.4z"/>
<path class="st1" d="M30.9,16.6v7.5c0,1.5-1.2,2.6-2.6,2.6l0,0c-1.5,0-2.6-1.2-2.6-2.6v-7.5c0-1.5,1.2-2.6,2.6-2.6l0,0
	C29.7,14,30.9,15.2,30.9,16.6z"/>
<line class="st2" x1="35.9" y1="14" x2="35.9" y2="17.6"/>
<line class="st2" x1="35.9" y1="21.6" x2="35.9" y2="22.9"/>
</svg>
