<?xml version="1.0" encoding="utf-8"?>
<!-- Generator: Adobe Illustrator 25.2.1, SVG Export Plug-In . SVG Version: 6.00 Build 0)  -->
<svg version="1.1" id="Layer_1" xmlns="http://www.w3.org/2000/svg" xmlns:xlink="http://www.w3.org/1999/xlink" x="0px" y="0px"
	 viewBox="0 0 70 70" style="enable-background:new 0 0 70 70;" xml:space="preserve">
<style type="text/css">
	.st0{fill:none;stroke:#292929;stroke-width:2;stroke-linecap:round;stroke-linejoin:round;stroke-miterlimit:10;}
	.st1{fill:#292929;}
</style>
<path class="st0" d="M50.7,52.7l-11.8,9c-2.1,1.6-5.1,1.6-7.3,0l-11.8-9c-2.9-2.3-4.7-5.8-4.7-9.5V15c0-3.3,2.7-6,6-6h28.2
	c3.3,0,6,2.7,6,6v28.3C55.4,47,53.6,50.5,50.7,52.7z"/>
<g>
	<path class="st1" d="M46.3,40.7h-2.9c-0.3,0-0.6-0.1-0.8-0.2c-0.2-0.2-0.4-0.4-0.5-0.6l-1.9-5.1h-9.9l-1.9,5.1
		c-0.1,0.2-0.2,0.4-0.4,0.6c-0.2,0.2-0.5,0.3-0.8,0.3h-2.9l9.1-23.1h3.8L46.3,40.7z M39.2,32L36,23.6c-0.3-0.7-0.5-1.5-0.8-2.5
		c-0.1,0.5-0.2,1-0.4,1.4c-0.1,0.4-0.3,0.8-0.4,1.1L31.3,32H39.2z"/>
</g>
</svg>
