<?xml version="1.0" encoding="utf-8"?>
<!-- Generator: Adobe Illustrator 25.2.1, SVG Export Plug-In . SVG Version: 6.00 Build 0)  -->
<svg version="1.1" id="Layer_1" xmlns="http://www.w3.org/2000/svg" xmlns:xlink="http://www.w3.org/1999/xlink" x="0px" y="0px"
	 viewBox="0 0 70 70" style="enable-background:new 0 0 70 70;" xml:space="preserve">
<style type="text/css">
	.st0{fill:none;stroke:#292929;stroke-width:2;stroke-linecap:round;stroke-linejoin:round;stroke-miterlimit:10;}
	.st1{fill:#292929;}
</style>
<path class="st0" d="M50.5,51.8l-11.8,9c-2.1,1.6-5.1,1.6-7.3,0l-11.8-9c-2.9-2.3-4.7-5.8-4.7-9.5V14.1c0-3.3,2.7-6,6-6h28.2
	c3.3,0,6,2.7,6,6v28.3C55.2,46,53.4,49.5,50.5,51.8z"/>
<g>
	<path class="st1" d="M34.3,16.6c1.5,0,2.7,0.1,3.8,0.4c1,0.3,1.9,0.7,2.6,1.2c0.7,0.5,1.2,1.2,1.5,1.9c0.3,0.8,0.5,1.6,0.5,2.5
		c0,0.5-0.1,1.1-0.2,1.6c-0.2,0.5-0.4,1-0.8,1.4c-0.3,0.4-0.8,0.8-1.3,1.2c-0.5,0.4-1.1,0.6-1.9,0.9c3.3,0.7,4.9,2.4,4.9,5.2
		c0,1-0.2,1.9-0.6,2.7c-0.4,0.8-0.9,1.5-1.6,2.1c-0.7,0.6-1.6,1.1-2.6,1.4c-1,0.3-2.2,0.5-3.5,0.5h-8.5V16.6H34.3z M30.4,19.6v7.2
		h3.7c1.6,0,2.8-0.3,3.6-0.9c0.8-0.6,1.2-1.5,1.2-2.7c0-1.3-0.4-2.2-1.1-2.8c-0.7-0.6-1.9-0.8-3.5-0.8H30.4z M35,36.7
		c0.8,0,1.6-0.1,2.1-0.3c0.6-0.2,1.1-0.5,1.4-0.8c0.4-0.3,0.6-0.7,0.8-1.2c0.2-0.5,0.2-1,0.2-1.5c0-1.1-0.4-1.9-1.1-2.6
		c-0.7-0.6-1.9-0.9-3.5-0.9h-4.6v7.3H35z"/>
</g>
</svg>
