<?xml version="1.0" encoding="utf-8"?>
<!-- Generator: Adobe Illustrator 25.2.3, SVG Export Plug-In . SVG Version: 6.00 Build 0)  -->
<svg version="1.1" id="Layer_1" xmlns="http://www.w3.org/2000/svg" xmlns:xlink="http://www.w3.org/1999/xlink" x="0px" y="0px"
	 viewBox="0 0 70 70" style="enable-background:new 0 0 70 70;" xml:space="preserve">
<style type="text/css">
	.st0{fill:none;stroke:#292929;stroke-width:2;stroke-linecap:round;stroke-linejoin:round;stroke-miterlimit:10;}
</style>
<path class="st0" d="M44.7,62H12.8c-1.6,0-2.9-1.3-2.9-2.9V16.4c0-1.6,1.3-2.9,2.9-2.9h31.9c1.6,0,2.9,1.3,2.9,2.9v42.7
	C47.6,60.7,46.3,62,44.7,62z"/>
<path class="st0" d="M15.5,19.8H42"/>
<path class="st0" d="M15.5,27.3h20.7"/>
<path class="st0" d="M22.3,13.4l0.4-2.9C22.8,9,24.3,7.8,25.9,8l31.7,3.9c1.6,0.2,2.7,1.7,2.5,3.3l-5.2,42.4
	c-0.2,1.6-1.7,2.7-3.3,2.5l-4.1-0.5"/>
<line class="st0" x1="54.1" y1="17.9" x2="47.6" y2="17.1"/>
<line class="st0" x1="52" y1="34.9" x2="47.6" y2="34.3"/>
<g>
	<path class="st0" d="M40.1,44.5c0-6.3-5.1-11.3-11.3-11.3"/>
	<path class="st0" d="M40.1,44.5c0,4.7-2.8,8.6-6.8,10.4"/>
	<path class="st0" d="M28.8,33.2c-6.3,0-11.3,5.1-11.3,11.3s5.1,11.3,11.3,11.3c1.6,0,3.1-0.3,4.5-1"/>
	<path class="st0" d="M40.1,44.5H28.8l0-11.3V44c0,0.3,0.1,0.7,0.2,1l4.3,9.9"/>
</g>
</svg>
