<?xml version="1.0" encoding="utf-8"?>
<!-- Generator: Adobe Illustrator 25.4.1, SVG Export Plug-In . SVG Version: 6.00 Build 0)  -->
<svg version="1.1" id="Layer_1" xmlns="http://www.w3.org/2000/svg" xmlns:xlink="http://www.w3.org/1999/xlink" x="0px" y="0px"
	 viewBox="0 0 70 70" style="enable-background:new 0 0 70 70;" xml:space="preserve">
<style type="text/css">
	.st0{fill:none;stroke:#292929;stroke-width:2;stroke-linecap:round;stroke-linejoin:round;stroke-miterlimit:10;}
</style>
<path class="st0" d="M44.6,62H12.9c-1.7,0-3-1.3-3-3V16.5c0-1.7,1.3-3,3-3h31.7c1.7,0,3,1.3,3,3V59C47.6,60.7,46.3,62,44.6,62z"/>
<path class="st0" d="M15.5,19.8H42"/>
<path class="st0" d="M15.5,27.3h20.7"/>
<path class="st0" d="M15.5,34.9H42"/>
<path class="st0" d="M15.5,42.5h15.1"/>
<path class="st0" d="M22.3,13.4l0.4-2.9C22.8,9,24.3,7.8,25.9,8l31.7,3.9c1.6,0.2,2.7,1.7,2.5,3.3l-5.2,42.4
	c-0.2,1.6-1.7,2.7-3.3,2.5l-4.1-0.5"/>
<line class="st0" x1="54.1" y1="17.9" x2="47.6" y2="17.1"/>
<line class="st0" x1="52" y1="34.9" x2="47.6" y2="34.3"/>
<circle class="st0" cx="18.2" cy="53" r="2.7"/>
</svg>
