<?xml version="1.0" encoding="utf-8"?>
<!-- Generator: Adobe Illustrator 25.4.1, SVG Export Plug-In . SVG Version: 6.00 Build 0)  -->
<svg version="1.1" id="Layer_1" xmlns="http://www.w3.org/2000/svg" xmlns:xlink="http://www.w3.org/1999/xlink" x="0px" y="0px"
	 viewBox="0 0 70 70" style="enable-background:new 0 0 70 70;" xml:space="preserve">
<style type="text/css">
	.st0{fill:none;stroke:#FFFFFF;stroke-miterlimit:10;}
	.st1{fill:none;stroke:#292929;stroke-width:2;stroke-linecap:round;stroke-linejoin:round;stroke-miterlimit:10;}
</style>
<path class="st0" d="M-283,1493.9c2.4,2.3,3.8,5.3,3.8,8.7c0,3.4-1.5,6.5-4,8.8"/>
<path class="st0" d="M-283,1493.9c-0.9-0.9-1.9-1.6-3.1-2.2c2.2-2,3.6-4.9,3.6-8.1c0-6.1-4.9-11-11-11s-11,4.9-11,11
	c0,3.2,1.4,6.1,3.6,8.1c-4.1,2.2-6.9,6.3-6.9,10.9c0,7,6.4,12.7,14.2,12.7c4,0,7.7-1.5,10.3-3.9"/>
<path class="st0" d="M-283,1493.9c-2.4,2.2-4,5.3-4,8.8c0,3.4,1.5,6.5,3.8,8.7"/>
<path class="st1" d="M45.1,28c1.7-1.5,2.7-3.7,2.7-6.1c0-4.5-3.7-8.2-8.2-8.2s-8.2,3.7-8.2,8.2c0,2.4,1.1,4.6,2.7,6.1
	c-3.1,1.7-5.2,4.7-5.2,8.2c0,5.3,4.8,9.5,10.7,9.5c5.9,0,10.7-4.3,10.7-9.5C50.2,32.7,48.1,29.7,45.1,28z"/>
<line class="st1" x1="39.6" y1="33.5" x2="39.6" y2="56.3"/>
<line class="st1" x1="44" y1="35.3" x2="39.6" y2="40.5"/>
<line class="st1" x1="53.2" y1="39.7" x2="53.2" y2="56.3"/>
<path class="st1" d="M47.3,29.7c1.6-1.4,3.6-2.2,5.8-2.2c4.9,0,8.8,3.9,8.8,8.8S58.1,45,53.2,45c-2.3,0-4.4-0.9-5.9-2.3"/>
<line class="st1" x1="10" y1="52.5" x2="10" y2="56.3"/>
<line class="st1" x1="28.9" y1="52.5" x2="28.9" y2="56.3"/>
<path class="st1" d="M29.9,52.5H9c-0.6,0-1-0.4-1-1v-1c0-0.6,0.4-1,1-1h20.9c0.6,0,1,0.4,1,1v1C30.9,52.1,30.5,52.5,29.9,52.5z"/>
<path class="st1" d="M10,49.5v-7c0-0.6,0.4-1,1-1h16.9c0.6,0,1,0.4,1,1v7"/>
</svg>
