<?xml version="1.0" encoding="utf-8"?>
<!-- Generator: Adobe Illustrator 25.4.1, SVG Export Plug-In . SVG Version: 6.00 Build 0)  -->
<svg version="1.1" id="Layer_1" xmlns="http://www.w3.org/2000/svg" xmlns:xlink="http://www.w3.org/1999/xlink" x="0px" y="0px"
	 viewBox="0 0 70 70" style="enable-background:new 0 0 70 70;" xml:space="preserve">
<style type="text/css">
	.st0{fill:none;stroke:#FFFFFF;stroke-miterlimit:10;}
	.st1{fill:none;stroke:#292929;stroke-width:2;stroke-miterlimit:10;}
</style>
<path class="st0" d="M-283,1493.9c2.4,2.3,3.8,5.3,3.8,8.7c0,3.4-1.5,6.5-4,8.8"/>
<path class="st0" d="M-283,1493.9c-0.9-0.9-1.9-1.6-3.1-2.2c2.2-2,3.6-4.9,3.6-8.1c0-6.1-4.9-11-11-11s-11,4.9-11,11
	c0,3.2,1.4,6.1,3.6,8.1c-4.1,2.2-6.9,6.3-6.9,10.9c0,7,6.4,12.7,14.2,12.7c4,0,7.7-1.5,10.3-3.9"/>
<path class="st0" d="M-283,1493.9c-2.4,2.2-4,5.3-4,8.8c0,3.4,1.5,6.5,3.8,8.7"/>
<text transform="matrix(1 0 0 1 468.2676 436.5539)" style="font-family:'MyriadPro-Semibold'; font-size:1.6394px;">&lt;div class=&quot;element-item eco recycling&quot;&gt;</text>
<text transform="matrix(1 0 0 1 468.2676 438.5539)" style="font-family:'MyriadPro-Semibold'; font-size:1.6394px;">                                    &lt;img src=&quot;images/iconography/library/[Eco] Recycling.svg&quot;&gt;</text>
<text transform="matrix(1 0 0 1 468.2676 440.4539)" style="font-family:'MyriadPro-Semibold'; font-size:1.6394px;">                                    &lt;p class=&quot;name&quot;&gt;Recycling&lt;/p&gt;</text>
<text transform="matrix(1 0 0 1 468.2676 442.4539)" style="font-family:'MyriadPro-Semibold'; font-size:1.6394px;">                                &lt;/div&gt;</text>
<path class="st1" d="M35.2,8C29,7.9,24,12.9,24,19c0,1.8,1.3,3.2,2.9,3.2c1.6,0,2.9-1.4,2.9-3.2v0.3c0-3.2,2.4-5.8,5.3-5.8h0.2
	c2.9,0,5.3,2.6,5.3,5.8v4c0,1.7-1.3,3-3,3H30c-3.3,0-6,2.7-6,6V56c0,3.3,2.7,6,6,6H40c3.3,0,6-2.7,6-6V26.4l0-6.9
	C46,13.3,41.3,8.1,35.2,8z"/>
</svg>
