<?xml version="1.0" encoding="utf-8"?>
<!-- Generator: Adobe Illustrator 25.4.1, SVG Export Plug-In . SVG Version: 6.00 Build 0)  -->
<svg version="1.1" id="Layer_1" xmlns="http://www.w3.org/2000/svg" xmlns:xlink="http://www.w3.org/1999/xlink" x="0px" y="0px"
	 viewBox="0 0 70 70" style="enable-background:new 0 0 70 70;" xml:space="preserve">
<style type="text/css">
	.st0{fill:none;stroke:#292929;stroke-width:2;stroke-linecap:round;stroke-linejoin:round;stroke-miterlimit:10;}
</style>
<g>
	<path class="st0" d="M59,58H11c-1.7,0-3-1.3-3-3V25c0-1.7,1.3-3,3-3h48c1.7,0,3,1.3,3,3v30C62,56.6,60.7,58,59,58z"/>
	<path class="st0" d="M37.4,40.4h-4.9v-5.8c0-1.4,1.1-2.5,2.5-2.5l0,0c1.4,0,2.5,1.1,2.5,2.5L37.4,40.4L37.4,40.4z"/>
	<g>
		<path class="st0" d="M32.5,36.3H14c-3.3,0-6-2.7-6-6"/>
		<path class="st0" d="M37.5,36.3H56c3.3,0,6-2.7,6-6"/>
	</g>
	<path class="st0" d="M44.7,21.5v-2c0-1.7-1.3-3-3-3H28.3c-1.7,0-3,1.3-3,3v2"/>
	<path class="st0" d="M48.7,22v-3c0-3.9-3.1-7-7-7H28.3c-3.9,0-7,3.1-7,7v3"/>
</g>
</svg>
