<?xml version="1.0" encoding="utf-8"?>
<!-- Generator: Adobe Illustrator 25.4.1, SVG Export Plug-In . SVG Version: 6.00 Build 0)  -->
<svg version="1.1" id="Layer_1" xmlns="http://www.w3.org/2000/svg" xmlns:xlink="http://www.w3.org/1999/xlink" x="0px" y="0px"
	 viewBox="0 0 70 70" style="enable-background:new 0 0 70 70;" xml:space="preserve">
<style type="text/css">
	.st0{fill:none;stroke:#292929;stroke-width:2;stroke-linecap:round;stroke-linejoin:round;stroke-miterlimit:10;}
</style>
<path class="st0" d="M27.5,36.8h-4.7c-1.7,0-3-1.3-3-3V25c0-1.7,1.3-3,3-3h4.4c1.7,0,3,1.3,3,3v9.2C30.2,35.7,29,36.8,27.5,36.8z
	 M20.1,45v3.5 M49.8,45v3.5 M11.1,25.2V36c0,5,4,9,9,9h29.8c5,0,9-4,9-9V25.2 M62,25.2h-3.2 M11.1,25.2H8 M11.1,25.2h8.6 M30.2,25.2
	h28.6 M30.2,25.2v8.7c0,1.7-1.3,3-3,3h-4.7c-1.5,0-2.7-1.2-2.7-2.7v-9 M19.8,31.3h10.4"/>
</svg>
