<?xml version="1.0" encoding="utf-8"?>
<!-- Generator: Adobe Illustrator 25.4.1, SVG Export Plug-In . SVG Version: 6.00 Build 0)  -->
<svg version="1.1" id="Layer_1" xmlns="http://www.w3.org/2000/svg" xmlns:xlink="http://www.w3.org/1999/xlink" x="0px" y="0px"
	 viewBox="0 0 70 70" style="enable-background:new 0 0 70 70;" xml:space="preserve">
<style type="text/css">
	.st0{fill:none;stroke:#292929;stroke-width:2;stroke-linecap:round;stroke-linejoin:round;stroke-miterlimit:10;}
</style>
<path class="st0" d="M8,14.7h7.6l13,24 M25.6,33.2H40c0.8,0,1.5,0.3,2,0.8l4.6,4.6 M24.7,38.8h28.7c3.1,0,5.7,2.5,5.7,5.7v0.1
	 M30.4,49.6h20.1 M24.7,38.8v5 M24.7,38.8L15,34.1c-1.9-0.9-4.1,0.5-4.1,2.6v10c0,1.6,1.3,2.8,2.8,2.8h5.2 M24.7,43.9
	c3.1,0,5.7,2.6,5.7,5.7s-2.6,5.7-5.7,5.7S19,52.7,19,49.6S21.6,43.9,24.7,43.9z M56.3,43.9c3.1,0,5.7,2.6,5.7,5.7s-2.6,5.7-5.7,5.7
	s-5.7-2.6-5.7-5.7S53.2,43.9,56.3,43.9z"/>
</svg>
