<?xml version="1.0" encoding="utf-8"?>
<!-- Generator: Adobe Illustrator 25.4.1, SVG Export Plug-In . SVG Version: 6.00 Build 0)  -->
<svg version="1.1" id="Layer_1" xmlns="http://www.w3.org/2000/svg" xmlns:xlink="http://www.w3.org/1999/xlink" x="0px" y="0px"
	 viewBox="0 0 70 70" style="enable-background:new 0 0 70 70;" xml:space="preserve">
<style type="text/css">
	.st0{fill:none;stroke:#292929;stroke-width:2;stroke-linecap:round;stroke-linejoin:round;stroke-miterlimit:10;}
</style>
<g>
	<path class="st0" d="M33.1,31.5c0.6-0.2,1.1-0.4,1.8-0.4c0.9,0,1.9,0.3,2.6,0.8c1.3-2,3.5-3.9,6.3-5.2c0.2-1.2,0.4-2.5,0.4-3.8
		c0-7.4-8.2-13.3-8.2-13.3s-8.2,5.9-8.2,13.3c0,0.8,0.1,1.5,0.1,2.3C30.5,26.9,32.4,29.2,33.1,31.5z"/>
	<path class="st0" d="M34.8,41.3c-2.1,0-3.9-1.3-4.6-3.1c-2.2,1.2-5.3,1.6-8.7,1c-1.2,1-2.4,2.3-3.5,3.8c-4.3,5.9-1.1,15.5-1.1,15.5
		s10.1,0,14.4-6c0.8-1,1.4-2.2,1.9-3.2C34.6,46.5,35,43.6,34.8,41.3z"/>
	<path class="st0" d="M30.1,38.2c-0.3-0.6-0.4-1.2-0.4-2c0-2.2,1.4-4.1,3.3-4.7c-0.7-2.3-2.5-4.4-5.1-6.2c-1.4-0.9-2.9-1.7-4.7-2.4
		C16.3,20.4,8,26.2,8,26.2s2.9,9.7,9.8,12.2c1.2,0.5,2.5,0.8,3.7,0.9C24.8,39.8,28,39.4,30.1,38.2z"/>
	<path class="st0" d="M39.9,37.2c-0.5,2.4-2.5,4.1-5,4.1h-0.1c0.3,2.4-0.2,5.2-1.6,8c0.5,1.3,1.1,2.7,1.9,4.1
		c3.9,6.3,13.9,7.1,13.9,7.1s3.9-9.3,0.1-15.6c-0.7-1-1.3-2-2.1-2.8C44.8,39.5,42.2,37.8,39.9,37.2z"/>
	<path class="st0" d="M46.9,25.5c-1.1,0.3-2.2,0.8-3.1,1.2c-2.8,1.3-5.1,3.2-6.3,5.2c1.5,0.8,2.5,2.5,2.5,4.3c0,0.4,0,0.7-0.1,1
		c2.4,0.6,5,2.3,7.2,4.8c1.4-0.1,2.9-0.4,4.5-0.8C58.6,39.3,62,29.8,62,29.8S54,23.5,46.9,25.5z"/>
</g>
</svg>
