<?xml version="1.0" encoding="utf-8"?>
<!-- Generator: Adobe Illustrator 25.4.1, SVG Export Plug-In . SVG Version: 6.00 Build 0)  -->
<svg version="1.1" id="Layer_1" xmlns="http://www.w3.org/2000/svg" xmlns:xlink="http://www.w3.org/1999/xlink" x="0px" y="0px"
	 viewBox="0 0 70 70" style="enable-background:new 0 0 70 70;" xml:space="preserve">
<style type="text/css">
	.st0{fill:none;stroke:#292929;stroke-width:2;stroke-linecap:round;stroke-linejoin:round;stroke-miterlimit:10;}
</style>
<g>
	<path class="st0" d="M38.1,21.8c2.4-2.9,5.3-5,8.4-6.2c1.7-0.7,3.5-1,5.2-1.1c1,0,2,0.5,2.6,1.4c2.1,3.4,3.3,7.4,3.3,11.8
		c0,9.3-7.7,18-15.7,21.5c-3.1,1-6.6,1.4-10.2,0.8c-10.3-1.5-18.3-10-19.2-20.4c-0.5-5.7,1.2-11.1,4.3-15.3c0.4-0.6,1.1-1,1.8-1.1
		c2.5-0.5,5.1-0.3,7.7,0.4C30.6,14.9,34.8,17.7,38.1,21.8c1,1.2,1.9,2.5,2.7,3.9c0.5,0.8,0.9,1.7,1.3,2.5c3.2,7.1,2.7,15.6-0.2,21"
		/>
	<path class="st0" d="M26.3,13.7C28.2,10.3,31.8,8,36,8c4.9,0,9,3.2,10.5,7.6"/>
	<line class="st0" x1="36.4" y1="50.3" x2="36.4" y2="62"/>
</g>
</svg>
