<?xml version="1.0" encoding="utf-8"?>
<!-- Generator: Adobe Illustrator 25.4.1, SVG Export Plug-In . SVG Version: 6.00 Build 0)  -->
<svg version="1.1" id="Layer_1" xmlns="http://www.w3.org/2000/svg" xmlns:xlink="http://www.w3.org/1999/xlink" x="0px" y="0px"
	 viewBox="0 0 70 70" style="enable-background:new 0 0 70 70;" xml:space="preserve">
<style type="text/css">
	.st0{fill:none;stroke:#292929;stroke-width:2;stroke-linecap:round;stroke-linejoin:round;stroke-miterlimit:10;}
</style>
<path class="st0" d="M8,51.5V37.6c0-1.8,1.3-3.2,3-3.2h48c1.7,0,3,1.4,3,3.2v13.8 M8,46h54 M44.5,27.6h4.8c0.7,0,1.5,0.3,2.1,0.9
	l6.4,6 M12.1,34.4l6.4-6c0.5-0.5,1.3-0.9,2.1-0.9h4.8 M50.1,27.7v-6.1c0-1.7-1.3-3-3-3H22.9c-1.7,0-3,1.3-3,3v6.1 M43.5,29.9h-17
	c-0.6,0-1-0.4-1-1v-4c0-0.6,0.4-1,1-1h17c0.6,0,1,0.4,1,1v4C44.5,29.4,44.1,29.9,43.5,29.9z"/>
</svg>
