<?xml version="1.0" encoding="utf-8"?>
<!-- Generator: Adobe Illustrator 25.2.1, SVG Export Plug-In . SVG Version: 6.00 Build 0)  -->
<svg version="1.1" id="Layer_1" xmlns="http://www.w3.org/2000/svg" xmlns:xlink="http://www.w3.org/1999/xlink" x="0px" y="0px"
	 viewBox="0 0 70 70" style="enable-background:new 0 0 70 70;" xml:space="preserve">
<style type="text/css">
	.st0{fill:none;stroke:#222222;stroke-width:2;stroke-linecap:round;stroke-linejoin:round;stroke-miterlimit:10;}
</style>
<g>
	<path class="st0" d="M59,50H11c-1.7,0-3-1.3-3-3V23c0-1.7,1.3-3,3-3h48c1.7,0,3,1.3,3,3v24C62,48.7,60.7,50,59,50z"/>
	<path class="st0" d="M14,41V29c0-1.7,1.3-3,3-3h23.8c1.7,0,3,1.3,3,3v12c0,1.7-1.3,3-3,3H17C15.3,44,14,42.7,14,41z"/>
	<path class="st0" d="M54.2,40.1h-2.8c-1.1,0-1.9,0.9-1.9,1.9v0c0,1.1,0.9,1.9,1.9,1.9h2.8c1.1,0,1.9-0.9,1.9-1.9v0
		C56.1,41,55.3,40.1,54.2,40.1z"/>
	<path class="st0" d="M54.2,36.3h-2.8c-1.1,0-1.9-0.9-1.9-1.9v-6.5c0-1.1,0.9-1.9,1.9-1.9h2.8c1.1,0,1.9,0.9,1.9,1.9v6.5
		C56.1,35.5,55.3,36.3,54.2,36.3z"/>
</g>
</svg>
