<?xml version="1.0" encoding="utf-8"?>
<!-- Generator: Adobe Illustrator 25.4.1, SVG Export Plug-In . SVG Version: 6.00 Build 0)  -->
<svg version="1.1" id="Layer_1" xmlns="http://www.w3.org/2000/svg" xmlns:xlink="http://www.w3.org/1999/xlink" x="0px" y="0px"
	 viewBox="0 0 70 70" style="enable-background:new 0 0 70 70;" xml:space="preserve">
<style type="text/css">
	.st0{fill:none;stroke:#292929;stroke-width:2;stroke-linecap:round;stroke-linejoin:round;stroke-miterlimit:10;}
	.st1{fill:#292929;}
</style>
<path class="st0" d="M16.1,29.4h37.8 M53.9,62V14.2c0-3.4-2.7-6.2-6-6.2H22.1c-3.3,0-6,2.8-6,6.2V62 M22.1,37.7v16 M22.1,23.4v-6.2"
	/>
<g>
	<path class="st1" d="M42.2,43.6c0.2,0,0.4-0.1,0.6-0.2c0.2-0.2,0.4-0.4,0.4-0.7l0.6-4.1c0.1-0.5-0.3-1.1-0.8-1.1l-4.1-0.6
		c-0.5-0.1-1.1,0.3-1.1,0.8l-0.6,4.1c-0.1,0.5,0.3,1.1,0.8,1.1l4.1,0.6C42.1,43.6,42.1,43.6,42.2,43.6z"/>
	<circle class="st1" cx="32.7" cy="46.8" r="3"/>
	<path class="st1" d="M44.8,49.4l-2.6-3.9c-0.2-0.3-0.5-0.5-0.9-0.4c-0.4,0-0.7,0.3-0.8,0.6l-1.9,4.2c-0.1,0.3-0.1,0.7,0.1,1
		c0.2,0.3,0.5,0.4,0.8,0.4c0,0,0,0,0.1,0l4.5-0.3c0.4,0,0.7-0.2,0.8-0.6C45.1,50.1,45,49.7,44.8,49.4z"/>
</g>
</svg>
