<?xml version="1.0" encoding="utf-8"?>
<!-- Generator: Adobe Illustrator 25.4.1, SVG Export Plug-In . SVG Version: 6.00 Build 0)  -->
<svg version="1.1" id="Layer_1" xmlns="http://www.w3.org/2000/svg" xmlns:xlink="http://www.w3.org/1999/xlink" x="0px" y="0px"
	 viewBox="0 0 70 70" style="enable-background:new 0 0 70 70;" xml:space="preserve">
<style type="text/css">
	.st0{fill:none;stroke:#292929;stroke-width:2;stroke-linecap:round;stroke-linejoin:round;stroke-miterlimit:10;}
</style>
<path class="st0" d="M57.5,33l-37.9,9.8c-1.6,0.4-3.2-0.5-3.7-2.2l-3.2-12.5c-0.4-1.6,0.5-3.2,2.2-3.7l37.9-9.8
	c3.2-0.8,6.5,1.1,7.3,4.3l1.7,6.6C62.6,28.9,60.7,32.1,57.5,33z M46.5,46.6l-7.8,2c-1.6,0.4-3.2-0.5-3.7-2.2l-1.9-7.2l13.6-3.5
	l1.9,7.2C49.1,44.5,48.1,46.2,46.5,46.6z M61.6,55.5h-9.2c-0.8,0-1.6-0.3-2.1-0.9l-7.1-7.1 M12.9,29l-2.6,0.7
	c-1.7,0.4-2.7,2.1-2.2,3.8l1.2,4.7c0.4,1.7,2.1,2.7,3.8,2.2l2.6-0.7 M50.3,21l4.1-1"/>
</svg>
