<?xml version="1.0" encoding="utf-8"?>
<!-- Generator: Adobe Illustrator 25.2.1, SVG Export Plug-In . SVG Version: 6.00 Build 0)  -->
<svg version="1.1" id="Layer_1" xmlns="http://www.w3.org/2000/svg" xmlns:xlink="http://www.w3.org/1999/xlink" x="0px" y="0px"
	 viewBox="0 0 70 70" style="enable-background:new 0 0 70 70;" xml:space="preserve">
<style type="text/css">
	.st0{fill:none;stroke:#292929;stroke-width:2;stroke-linecap:round;stroke-linejoin:round;}
	.st1{fill:none;stroke:#363636;stroke-width:2;stroke-miterlimit:10;}
	.st2{fill:none;stroke:#292929;stroke-width:2;stroke-linecap:round;stroke-linejoin:round;stroke-dasharray:4.2138,4.2138;}
</style>
<g>
	<path class="st0" d="M59,56.6H46.3c-1.7,0-3-1.3-3-3V32.4c0-1.7,1.3-3,3-3H59c1.7,0,3,1.3,3,3v21.2C62,55.3,60.7,56.6,59,56.6z"/>
	<polygon class="st0" points="8,33.6 8,13.4 39.7,13.4 	"/>
	<polygon class="st0" points="12.4,17.8 24.6,17.8 12.4,25.6 	"/>
	<g>
		<path class="st1" d="M33.7,17.2l21-1.1c1.4-0.1,2.6,1,2.7,2.4l0.6,10.9"/>
		<path class="st1" d="M43.3,49.6l-28.8,1.5c-1.4,0.1-2.6-1-2.7-2.4l-0.9-16.9"/>
	</g>
</g>
<g>
	<circle class="st2" cx="28.8" cy="35.8" r="8.1"/>
</g>
<polygon class="st0" points="52.6,36.8 47.4,46 57.9,46 "/>
</svg>
