<?xml version="1.0" encoding="utf-8"?>
<!-- Generator: Adobe Illustrator 25.2.1, SVG Export Plug-In . SVG Version: 6.00 Build 0)  -->
<svg version="1.1" id="Layer_1" xmlns="http://www.w3.org/2000/svg" xmlns:xlink="http://www.w3.org/1999/xlink" x="0px" y="0px"
	 viewBox="0 0 70 70" style="enable-background:new 0 0 70 70;" xml:space="preserve">
<style type="text/css">
	.st0{fill:none;stroke:#292929;stroke-width:2;stroke-linecap:round;stroke-linejoin:round;stroke-miterlimit:10;}
	.st1{fill:none;stroke:#292929;stroke-width:2;stroke-linecap:round;stroke-linejoin:round;}
</style>
<g>
	<path class="st0" d="M56,22.5H22.1c-3.3,0-6,2.7-6,6v21.7c0,3.3,2.7,6,6,6H56c3.3,0,6-2.7,6-6V28.5C62,25.2,59.3,22.5,56,22.5z"/>
	<path class="st0" d="M54.1,22.6l-0.4-3.4c-0.4-3.3-3.3-5.8-6.7-5.4l-33.6,3.5C10.1,17.7,7.7,20.7,8,24l2.3,21.4
		c0.3,3,2.8,5.3,5.8,5.4"/>
</g>
<path class="st1" d="M43,51.4l0.9-5.1l-4.9-1"/>
<path class="st0" d="M26.5,40.8c0,3.8,9,12.8,17.3,5.6"/>
<g>
	<path class="st0" d="M22,36.7c1.5-3.4,3.4-6.7,5.8-9.6"/>
	<path class="st0" d="M20.9,28.7c1.8,1.6,9,6.2,9.1,6.7"/>
</g>
<path class="st0" d="M55.6,39.1c-10-1-6.8,12.1-0.1,8.5c4-2.2,2.8-10.2-2.3-8.3"/>
</svg>
