<?xml version="1.0" encoding="utf-8"?>
<!-- Generator: Adobe Illustrator 25.2.1, SVG Export Plug-In . SVG Version: 6.00 Build 0)  -->
<svg version="1.1" id="Layer_1" xmlns="http://www.w3.org/2000/svg" xmlns:xlink="http://www.w3.org/1999/xlink" x="0px" y="0px"
	 viewBox="0 0 70 70" style="enable-background:new 0 0 70 70;" xml:space="preserve">
<style type="text/css">
	.st0{fill:none;stroke:#292929;stroke-width:2;stroke-linecap:round;stroke-linejoin:round;stroke-miterlimit:10;}
</style>
<path class="st0" d="M39.7,57.1l-6.2-6.2c-1.2-1.2-1.2-3.1,0-4.2l13.2-13.2c1.2-1.2,3.1-1.2,4.2,0l6.2,6.2c4.8,4.8,4.8,12.6,0,17.4
	l0,0C52.3,61.9,44.5,61.9,39.7,57.1z"/>
<path class="st0" d="M19.2,36.6l-6.6-6.6c-4.6-4.6-4.6-12,0-16.6l0,0c5-5,13.2-5,18.2,0l5.8,5.8c1.2,1.2,1.2,3.1,0,4.2L23.4,36.6
	C22.2,37.7,20.3,37.7,19.2,36.6z"/>
<line class="st0" x1="34.4" y1="25.7" x2="38.3" y2="29.6"/>
<line class="st0" x1="25.6" y1="34.3" x2="29.6" y2="38.2"/>
<line class="st0" x1="12.9" y1="12.9" x2="8" y2="8"/>
<line class="st0" x1="62" y1="62" x2="57.1" y2="57.1"/>
</svg>
