<?xml version="1.0" encoding="utf-8"?>
<!-- Generator: Adobe Illustrator 25.3.1, SVG Export Plug-In . SVG Version: 6.00 Build 0)  -->
<svg version="1.1" id="Layer_1" xmlns="http://www.w3.org/2000/svg" xmlns:xlink="http://www.w3.org/1999/xlink" x="0px" y="0px"
	 viewBox="0 0 70 70" style="enable-background:new 0 0 70 70;" xml:space="preserve">
<style type="text/css">
	.st0{fill:none;stroke:#292929;stroke-width:2;stroke-linecap:round;stroke-linejoin:round;stroke-miterlimit:10;}
</style>
<g>
	<path class="st0" d="M39.2,19v5.3c2,0,3.6,1.6,3.6,3.6c0,2-1.6,3.6-3.6,3.6v7.8H47c0,2,1.6,3.6,3.6,3.6c2,0,3.6-1.6,3.6-3.6H62V19
		c0-1.4-1.1-2.5-2.5-2.5H41.8C40.4,16.4,39.2,17.6,39.2,19z"/>
	<path class="st0" d="M30.8,15.8v-5.3c0-1.4-1.1-2.5-2.5-2.5H10.5C9.1,8,8,9.1,8,10.5v17.7c0,1.4,1.1,2.5,2.5,2.5h5.3
		c0,2,1.6,3.6,3.6,3.6c2,0,3.6-1.6,3.6-3.6h5.3c1.4,0,2.5-1.1,2.5-2.5V23c2,0,3.6-1.6,3.6-3.6C34.4,17.4,32.8,15.8,30.8,15.8z"/>
	<path class="st0" d="M35.6,50.6c0-2,1.6-3.6,3.6-3.6v-7.8h-7.8c0,2-1.6,3.6-3.6,3.6c-2,0-3.6-1.6-3.6-3.6H19
		c-1.4,0-2.5,1.1-2.5,2.5v17.7c0,1.4,1.1,2.5,2.5,2.5h20.2v-7.8C37.2,54.2,35.6,52.6,35.6,50.6z"/>
	<path class="st0" d="M39.2,62h20.2c1.4,0,2.5-1.1,2.5-2.5V39.2"/>
</g>
</svg>
