<?xml version="1.0" encoding="utf-8"?>
<!-- Generator: Adobe Illustrator 25.2.1, SVG Export Plug-In . SVG Version: 6.00 Build 0)  -->
<svg version="1.1" id="Layer_1" xmlns="http://www.w3.org/2000/svg" xmlns:xlink="http://www.w3.org/1999/xlink" x="0px" y="0px"
	 viewBox="0 0 70 70" style="enable-background:new 0 0 70 70;" xml:space="preserve">
<style type="text/css">
	.st0{fill:none;stroke:#292929;stroke-width:2;stroke-linecap:round;stroke-linejoin:round;stroke-miterlimit:10;}
	.st1{fill:#292929;stroke:#292929;stroke-width:2;stroke-linecap:round;stroke-linejoin:round;stroke-miterlimit:10;}
</style>
<path class="st0" d="M35,62c14.9,0,27-12.1,27-27S49.9,8,35,8S8,20.1,8,35S20.1,62,35,62z"/>
<path class="st1" d="M56,36.2c0.6-10.9-7.2-20.2-17.5-21.9c-1.8-0.3-3.4,1.1-3.4,3v16.5c0,0.8-0.3,1.6-0.9,2.1L22.5,47.5
	c-1.3,1.3-1.1,3.5,0.4,4.6c3.7,2.6,8.2,4.1,13.1,3.9C46.6,55.5,55.4,46.8,56,36.2z"/>
</svg>
