<?xml version="1.0" encoding="utf-8"?>
<!-- Generator: Adobe Illustrator 25.4.1, SVG Export Plug-In . SVG Version: 6.00 Build 0)  -->
<svg version="1.1" id="Layer_1" xmlns="http://www.w3.org/2000/svg" xmlns:xlink="http://www.w3.org/1999/xlink" x="0px" y="0px"
	 viewBox="0 0 70 70" style="enable-background:new 0 0 70 70;" xml:space="preserve">
<style type="text/css">
	.st0{fill:none;stroke:#292929;stroke-width:2;stroke-miterlimit:10;}
</style>
<g>
	<g>
		<path class="st0" d="M35,8H22c-1.7,0-3.1,1.4-3.1,3.1v11.4c0,1,0.5,1.9,1.3,2.5l11.2,7.3c1.9,1.2,1.9,4,0,5.3l-11.2,7.3
			c-0.8,0.6-1.3,1.5-1.3,2.5v11.4c0,1.7,1.4,3.1,3.1,3.1h13h13c1.7,0,3.1-1.4,3.1-3.1V47.4c0-1-0.5-1.9-1.3-2.5l-11.2-7.3
			c-1.9-1.2-1.9-4,0-5.3l11.2-7.3c0.8-0.6,1.3-1.5,1.3-2.5V11.1C51.2,9.4,49.7,8,48,8H35z"/>
	</g>
	<path class="st0" d="M18.8,51.9c0,0,8.9-2.1,15.7-1.3c6.9,0.8,16.6,1.9,16.6,1.9"/>
</g>
</svg>
