<?xml version="1.0" encoding="utf-8"?>
<!-- Generator: Adobe Illustrator 25.4.1, SVG Export Plug-In . SVG Version: 6.00 Build 0)  -->
<svg version="1.1" id="Layer_1" xmlns="http://www.w3.org/2000/svg" xmlns:xlink="http://www.w3.org/1999/xlink" x="0px" y="0px"
	 viewBox="0 0 70 70" style="enable-background:new 0 0 70 70;" xml:space="preserve">
<style type="text/css">
	.st0{fill:none;stroke:#292929;stroke-width:2;stroke-linecap:round;stroke-linejoin:round;stroke-miterlimit:10;}
</style>
<path class="st0" d="M50,62H20c-1.7,0-3-1.3-3-3V11c0-1.7,1.3-3,3-3h30c1.7,0,3,1.3,3,3v48C53,60.7,51.7,62,50,62z"/>
<path class="st0" d="M23,51L23,51c0,1.7,1.3,3,3,3h18c1.7,0,3-1.3,3-3v0c0-1.7-1.3-3-3-3H26C24.3,48,23,49.4,23,51z"/>
<g>
	<circle class="st0" cx="35" cy="28" r="12"/>
	<path class="st0" d="M35,16c-3.2,0-5.7,5.4-5.7,12h0c0,6.6,2.6,12,5.7,12"/>
	<path class="st0" d="M47,26.8c0,1.3-5.4,2.4-12,2.4s-12-1.1-12-2.4"/>
	<path class="st0" d="M35,16c3.2,0,5.7,5.4,5.7,12h0c0,6.6-2.6,12-5.7,12"/>
</g>
</svg>
