<?xml version="1.0" encoding="utf-8"?>
<!-- Generator: Adobe Illustrator 25.4.1, SVG Export Plug-In . SVG Version: 6.00 Build 0)  -->
<svg version="1.1" id="Layer_1" xmlns="http://www.w3.org/2000/svg" xmlns:xlink="http://www.w3.org/1999/xlink" x="0px" y="0px"
	 viewBox="0 0 70 70" style="enable-background:new 0 0 70 70;" xml:space="preserve">
<style type="text/css">
	.st0{fill:none;stroke:#292929;stroke-width:2;stroke-linecap:round;stroke-linejoin:round;stroke-miterlimit:10;}
</style>
<g>
	<g>
		<path class="st0" d="M21.9,45.6h-4H21.9z"/>
		<path class="st0" d="M52.1,45.6h-4H52.1z"/>
	</g>
	<path class="st0" d="M55,52.8H15c-1.5,0-2.8-1.2-2.8-2.8V13.6c0-1.5,1.2-2.8,2.8-2.8H55c1.5,0,2.8,1.2,2.8,2.8V50
		C57.8,51.6,56.6,52.8,55,52.8z"/>
	<g>
		<path class="st0" d="M20.2,59.1h-2.8c-1,0-1.8-0.8-1.8-1.8v-4.5h6.4v4.5C22.1,58.4,21.3,59.1,20.2,59.1z"/>
		<path class="st0" d="M52.5,59h-2.8c-1,0-1.8-0.8-1.8-1.8v-4.5h6.4v4.5C54.4,58.2,53.5,59,52.5,59z"/>
	</g>
	<path class="st0" d="M8,29.7v-8.1c0-1.7,1.3-3,3-3h48c1.7,0,3,1.3,3,3v8.1"/>
	<line class="st0" x1="12.2" y1="38.5" x2="57.8" y2="38.5"/>
</g>
</svg>
