<?xml version="1.0" encoding="utf-8"?>
<!-- Generator: Adobe Illustrator 25.2.1, SVG Export Plug-In . SVG Version: 6.00 Build 0)  -->
<svg version="1.1" id="Layer_1" xmlns="http://www.w3.org/2000/svg" xmlns:xlink="http://www.w3.org/1999/xlink" x="0px" y="0px"
	 viewBox="0 0 70 70" style="enable-background:new 0 0 70 70;" xml:space="preserve">
<style type="text/css">
	.st0{fill:none;stroke:#292929;stroke-width:2;stroke-linecap:round;stroke-linejoin:round;}
	.st1{fill:none;stroke:#292929;stroke-width:2;stroke-miterlimit:10;}
</style>
<line class="st0" x1="9" y1="39.8" x2="17.2" y2="39.8"/>
<line class="st0" x1="11.3" y1="45.5" x2="17.2" y2="45.5"/>
<path class="st1" d="M61.6,31.5l-2.7-5c-0.5-1-1.5-1.6-2.6-1.6h-5.9v15.3c0.2,0,0.5-0.1,0.7-0.1c2.4,0,4.3,1.9,4.3,4.3H59
	c1.7,0,3-1.3,3-3v-8.6C61.9,32.4,61.8,31.9,61.6,31.5z"/>
<path class="st1" d="M50.5,40.2V24.9l0,0c0-1.6-1.3-2.9-2.9-2.9h-23c-1.7,0-3,1.3-3,3v16.5c0,1.7,1.3,3,3,3h0.6
	c0-2.4,1.9-4.3,4.3-4.3s4.3,1.9,4.3,4.3h13C46.9,42.3,48.4,40.5,50.5,40.2z"/>
<path class="st1" d="M29.6,48.8c2.4,0,4.3-1.9,4.3-4.3c0-2.4-1.9-4.3-4.3-4.3s-4.3,1.9-4.3,4.3C25.2,46.9,27.2,48.8,29.6,48.8z"/>
<path class="st1" d="M51.2,48.8c2.4,0,4.3-1.9,4.3-4.3c0-2.4-1.9-4.3-4.3-4.3s-4.3,1.9-4.3,4.3C46.9,46.9,48.8,48.8,51.2,48.8z"/>
</svg>
