<?xml version="1.0" encoding="utf-8"?>
<!-- Generator: Adobe Illustrator 25.2.3, SVG Export Plug-In . SVG Version: 6.00 Build 0)  -->
<svg version="1.1" id="Layer_1" xmlns="http://www.w3.org/2000/svg" xmlns:xlink="http://www.w3.org/1999/xlink" x="0px" y="0px"
	 viewBox="0 0 70 70" style="enable-background:new 0 0 70 70;" xml:space="preserve">
<style type="text/css">
	.st0{fill:none;stroke:#292929;stroke-width:2;stroke-linecap:round;stroke-linejoin:round;stroke-miterlimit:10;}
</style>
<g>
	<path class="st0" d="M62,49v-4.2c0-2.7-0.9-5.1-3-7c-2-2-4.3-2.9-7-2.9s-5,1-7,3L44.9,38"/>
	<path class="st0" d="M57.6,29.3c0-3.1-2.5-5.6-5.7-5.6s-5.6,2.5-5.6,5.6s2.5,5.6,5.6,5.6C55,34.9,57.6,32.4,57.6,29.3z"/>
	<path class="st0" d="M25.1,38.2C25,38.1,25,38,24.9,37.9c-2-2-4.3-2.9-7-2.9s-5,1-7,3S8,42.2,8,44.8v4.3"/>
	<path class="st0" d="M23.4,29.3c0-3.1-2.5-5.6-5.7-5.6s-5.6,2.5-5.6,5.6s2.5,5.6,5.6,5.6C20.9,34.9,23.4,32.4,23.4,29.3z"/>
	<g>
		<path class="st0" d="M47.4,50.8v-5.2c0-3.4-1.2-6.4-3.8-8.7c-2.5-2.5-5.4-3.6-8.7-3.6c-3.4,0-6.3,1.2-8.8,3.8
			c-2.5,2.5-3.6,5.2-3.6,8.5V51"/>
		<path class="st0" d="M41.9,26.1c0-3.8-3.1-7-7.1-7s-7,3.1-7,7s3.1,7,7,7S41.9,30,41.9,26.1z"/>
	</g>
</g>
</svg>
