<?xml version="1.0" encoding="utf-8"?>
<!-- Generator: Adobe Illustrator 25.2.1, SVG Export Plug-In . SVG Version: 6.00 Build 0)  -->
<svg version="1.1" id="Layer_1" xmlns="http://www.w3.org/2000/svg" xmlns:xlink="http://www.w3.org/1999/xlink" x="0px" y="0px"
	 viewBox="0 0 70 70" style="enable-background:new 0 0 70 70;" xml:space="preserve">
<style type="text/css">
	.st0{fill:none;stroke:#292929;stroke-width:2;stroke-miterlimit:10;}
</style>
<g>
	<path class="st0" d="M28.9,59.1V48.3c0-1.7-1.3-2.9-2.9-2.9h-0.7c-1.7,0-2.9-1.3-2.9-2.9v-6.5c0-3.4,1.2-6.3,3.7-8.7
		c2.5-2.5,5.5-3.8,8.9-3.8c3.5,0,6.5,1.2,8.9,3.7c2.5,2.5,3.8,5.4,3.8,8.9v6.4c0,1.7-1.3,2.9-2.9,2.9h-0.9c-1.7,0-2.9,1.3-2.9,2.9
		v10.8c0,1.7-1.3,2.9-2.9,2.9h-6.1C30.2,62,28.9,60.7,28.9,59.1z"/>
	<path class="st0" d="M35,22.3c3.9,0,7.2-3.1,7.2-7.2C42.1,11.2,39,8,35,8s-7.2,3.1-7.2,7.2C27.9,19.2,31,22.3,35,22.3z"/>
</g>
</svg>
