<?xml version="1.0" encoding="utf-8"?>
<!-- Generator: Adobe Illustrator 25.2.1, SVG Export Plug-In . SVG Version: 6.00 Build 0)  -->
<svg version="1.1" id="Layer_1" xmlns="http://www.w3.org/2000/svg" xmlns:xlink="http://www.w3.org/1999/xlink" x="0px" y="0px"
	 viewBox="0 0 70 70" style="enable-background:new 0 0 70 70;" xml:space="preserve">
<style type="text/css">
	.st0{fill:none;stroke:#292929;stroke-width:2;stroke-miterlimit:10;}
</style>
<g>
	<path class="st0" d="M14.1,56.7v-9.4c0-1.7-1.3-3-3-3H11c-1.7,0-3-1.3-3-3v-5.7c0-3.1,1.1-5.8,3.4-8.1c2.4-2.4,5.1-3.5,8.2-3.5
		c3.2,0,5.9,1.1,8.2,3.4c2.4,2.3,3.5,5,3.5,8.2v5.7c0,1.7-1.3,3-3,3h-0.2c-1.7,0-3,1.3-3,3v9.4c0,1.7-1.3,3-3,3h-5
		C15.4,59.7,14.1,58.4,14.1,56.7z"/>
	<path class="st0" d="M19.7,23.1c3.6,0,6.5-2.9,6.5-6.5s-2.9-6.5-6.5-6.5s-6.5,2.9-6.5,6.5C13.1,20.2,16,23.1,19.7,23.1z"/>
	<path class="st0" d="M44.8,56.7v-9.4c0-1.7-1.3-3-3-3h-0.1c-1.7,0-3-1.3-3-3v-5.7c0-3.1,1.1-5.8,3.4-8.1c2.4-2.4,5.1-3.5,8.2-3.5
		c3.2,0,5.9,1.1,8.2,3.4c2.4,2.3,3.5,5,3.5,8.2v5.7c0,1.7-1.3,3-3,3h-0.2c-1.7,0-3,1.3-3,3v9.4c0,1.7-1.3,3-3,3h-5
		C46.1,59.7,44.8,58.4,44.8,56.7z"/>
	<path class="st0" d="M50.3,23.1c3.6,0,6.5-2.9,6.5-6.5s-2.9-6.5-6.5-6.5s-6.5,2.9-6.5,6.5S46.7,23.1,50.3,23.1z"/>
</g>
</svg>
