<?xml version="1.0" encoding="utf-8"?>
<!-- Generator: Adobe Illustrator 25.4.1, SVG Export Plug-In . SVG Version: 6.00 Build 0)  -->
<svg version="1.1" id="Layer_1" xmlns="http://www.w3.org/2000/svg" xmlns:xlink="http://www.w3.org/1999/xlink" x="0px" y="0px"
	 viewBox="0 0 70 70" style="enable-background:new 0 0 70 70;" xml:space="preserve">
<style type="text/css">
	.st0{fill:none;stroke:#292929;stroke-width:2;stroke-linecap:round;stroke-linejoin:round;stroke-miterlimit:10;}
	.st1{fill:none;stroke:#292929;stroke-width:2;stroke-linecap:round;stroke-linejoin:round;}
</style>
<g>
	<path class="st0" d="M43.1,37.5c-0.1-0.1-0.1-0.1-0.2-0.2c-4.1-4.1-8.8-6-14.4-6c-5.5,0-10.4,2.1-14.4,6.2c-4.1,4.1-6,8.6-6,14.1
		v8.8c0,0.4,0,0.8,0.1,1.2 M40.1,19.8c0-6.4-5.2-11.6-11.6-11.6S17,13.4,17,19.8s5.1,11.5,11.6,11.5S40.1,26.2,40.1,19.8z"/>
	<path class="st1" d="M55.3,48.9H42.9"/>
	<circle class="st1" cx="49.1" cy="48.9" r="12.9"/>
</g>
</svg>
