<?xml version="1.0" encoding="utf-8"?>
<!-- Generator: Adobe Illustrator 25.2.1, SVG Export Plug-In . SVG Version: 6.00 Build 0)  -->
<svg version="1.1" id="Layer_1" xmlns="http://www.w3.org/2000/svg" xmlns:xlink="http://www.w3.org/1999/xlink" x="0px" y="0px"
	 viewBox="0 0 70 70" style="enable-background:new 0 0 70 70;" xml:space="preserve">
<style type="text/css">
	.st0{fill:none;stroke:#292929;stroke-width:2;stroke-linecap:round;stroke-linejoin:round;}
</style>
<path class="st0" d="M56,50.7h-4.7c-0.8,0-1.4-0.6-1.4-1.4V33.4c0-0.8,0.6-1.4,1.4-1.4H56c3.3,0,6,2.7,6,6v6.8
	C62,48,59.3,50.7,56,50.7z"/>
<path class="st0" d="M14.1,31.9c0-30.6,41.9-30.6,41.9,0"/>
<path class="st0" d="M34.3,61.3h-9.6c-2.8,0-5.5-1.1-7.5-3.1c-2-2-3.1-4.7-3.1-7.5h4.7c0.8,0,1.4-0.6,1.4-1.4V33.4
	c0-0.8-0.6-1.4-1.4-1.4H14c-3.3,0-6,2.7-6,6v6.8c0,3.3,2.7,6,6,6h0.1"/>
</svg>
