<?xml version="1.0" encoding="utf-8"?>
<!-- Generator: Adobe Illustrator 25.2.3, SVG Export Plug-In . SVG Version: 6.00 Build 0)  -->
<svg version="1.1" id="Layer_1" xmlns="http://www.w3.org/2000/svg" xmlns:xlink="http://www.w3.org/1999/xlink" x="0px" y="0px"
	 viewBox="0 0 70 70" style="enable-background:new 0 0 70 70;" xml:space="preserve">
<style type="text/css">
	.st0{fill:none;stroke:#292929;stroke-width:2;stroke-linecap:round;stroke-linejoin:round;}
	.st1{fill:none;stroke:#292929;stroke-width:2;stroke-linecap:round;stroke-linejoin:round;stroke-miterlimit:10;}
</style>
<g>
	<g>
		<path class="st0" d="M28,52.2l9.8,9.8"/>
		<path class="st0" d="M21,55.1c5.5,0,9.9-4.4,9.9-9.9c0-5.5-4.4-9.9-9.9-9.9c-5.5,0-9.9,4.4-9.9,9.9C11.1,50.6,15.5,55.1,21,55.1z"
			/>
	</g>
	<path class="st1" d="M49.6,19.8C49.6,13.3,44.4,8,37.8,8S26,13.2,26,19.8s5.2,11.8,11.8,11.8S49.6,26.3,49.6,19.8z"/>
	<path class="st1" d="M25.8,35.8c3.6-2.7,7.7-4.1,12.2-4.1c5.6,0,10.5,1.9,14.6,6c4.3,4,6.3,8.9,6.3,14.6v8.8"/>
	<line class="st1" x1="17.2" y1="54.3" x2="17.2" y2="61.3"/>
</g>
</svg>
