<?xml version="1.0" encoding="utf-8"?>
<!-- Generator: Adobe Illustrator 25.2.1, SVG Export Plug-In . SVG Version: 6.00 Build 0)  -->
<svg version="1.1" id="Layer_1" xmlns="http://www.w3.org/2000/svg" xmlns:xlink="http://www.w3.org/1999/xlink" x="0px" y="0px"
	 viewBox="0 0 70 70" style="enable-background:new 0 0 70 70;" xml:space="preserve">
<style type="text/css">
	.st0{fill:none;stroke:#292929;stroke-width:2;stroke-linecap:round;stroke-linejoin:round;stroke-miterlimit:10;}
</style>
<g>
	<path class="st0" d="M62,21.5V14c0-3.3-2.7-6-6-6h-7.5"/>
	<path class="st0" d="M8,21.5V14c0-3.3,2.7-6,6-6h7.5"/>
	<path class="st0" d="M48.5,62H56c3.3,0,6-2.7,6-6v-7.5"/>
	<path class="st0" d="M8,48.5V56c0,3.3,2.7,6,6,6h7.5"/>
</g>
<g>
	<path class="st0" d="M48.5,52.6c0-0.3,0.1-0.5,0.1-0.8v-5.7c0-3.7-1.3-6.9-4.1-9.5c-2.7-2.7-5.8-3.9-9.5-3.9
		c-3.7,0-6.8,1.4-9.5,4.1c-2.7,2.7-3.9,5.7-3.9,9.3v5.8c0,0.3,0,0.5,0.1,0.8"/>
	<path class="st0" d="M42.6,25c0-4.2-3.4-7.6-7.6-7.6s-7.6,3.4-7.6,7.6s3.4,7.6,7.6,7.6S42.6,29.2,42.6,25z"/>
</g>
</svg>
