<?xml version="1.0" encoding="utf-8"?>
<!-- Generator: Adobe Illustrator 25.2.1, SVG Export Plug-In . SVG Version: 6.00 Build 0)  -->
<svg version="1.1" id="Layer_1" xmlns="http://www.w3.org/2000/svg" xmlns:xlink="http://www.w3.org/1999/xlink" x="0px" y="0px"
	 viewBox="0 0 70 70" style="enable-background:new 0 0 70 70;" xml:space="preserve">
<style type="text/css">
	.st0{fill:none;stroke:#292929;stroke-width:2;stroke-linecap:round;stroke-miterlimit:10;}
</style>
<text transform="matrix(1 0 0 1 297.6377 420.945)" style="font-family:'MyriadPro-Semibold'; font-size:12px;">Driver verification</text>
<g>
	<path class="st0" d="M21.2,39.3c0.5-0.6,1-1.1,1.5-1.6c4.1-4.2,8.9-6.3,14.5-6.3c5.6,0,10.4,1.9,14.5,6C56,41.3,58,46.2,58,51.9
		v8.7"/>
	<path class="st0" d="M16.7,54.6v6.2"/>
	<path class="st0" d="M48.8,19.6C48.8,13.2,43.6,8,37.1,8s-11.6,5.2-11.6,11.6c0,6.4,5.2,11.6,11.6,11.6
		C43.5,31.2,48.8,26.1,48.8,19.6z"/>
	<path class="st0" d="M24.9,52.9c0.9,0.8,2.1,0.9,3.2,0.3c0.9-0.5,2-1.2,2.6-1.5c0.4-0.2,0.8-0.2,1.2,0l5.5,2.4
		c1.3,0.6,1.9,2,1.4,3.3c-0.4,1.1-0.9,2.4-1.6,2.9c-1.3,1.2-3,1.8-4.8,1.8C27,62,21.8,59.9,18,56c-3.8-3.9-6-9.1-6-14.5
		c0-1.8,0.7-3.5,1.8-4.8c0.6-0.6,1.8-1.2,2.9-1.6c1.3-0.4,2.7,0.2,3.3,1.4l2.5,5.5c0.2,0.4,0.1,0.8,0,1.1c-0.4,0.7-1.1,2.1-1.7,3.2
		c-0.5,1.1-0.3,2.3,0.6,3.1L24.9,52.9z"/>
</g>
</svg>
