<?xml version="1.0" encoding="utf-8"?>
<!-- Generator: Adobe Illustrator 25.2.1, SVG Export Plug-In . SVG Version: 6.00 Build 0)  -->
<svg version="1.1" id="Layer_1" xmlns="http://www.w3.org/2000/svg" xmlns:xlink="http://www.w3.org/1999/xlink" x="0px" y="0px"
	 viewBox="0 0 70 70" style="enable-background:new 0 0 70 70;" xml:space="preserve">
<style type="text/css">
	.st0{fill:none;stroke:#292929;stroke-width:2;stroke-linecap:round;stroke-linejoin:round;stroke-miterlimit:10;}
	.st1{fill:none;stroke:#292929;stroke-width:2;stroke-linecap:round;stroke-linejoin:round;}
</style>
<g>
	<path class="st0" d="M43.2,37.5c-0.1-0.1-0.1-0.1-0.2-0.2c-4.1-4.1-8.9-6.1-14.6-6.1c-5.6,0-10.5,2.1-14.6,6.3
		c-4.1,4.1-6.1,8.7-6.1,14.3v8.9c0,0.4,0,0.8,0.1,1.2"/>
	<path class="st0" d="M40.2,19.7C40.2,13.2,34.9,8,28.5,8s-11.7,5.2-11.7,11.7S22,31.3,28.5,31.3S40.2,26.2,40.2,19.7z"/>
	<g>
		<g>
			<path class="st1" d="M49.3,55.2V42.8"/>
			<path class="st1" d="M55.5,49H43"/>
		</g>
		<circle class="st1" cx="49.3" cy="49" r="13"/>
	</g>
</g>
</svg>
