<svg width="1204" height="678" viewBox="0 0 1204 678" fill="none" xmlns="http://www.w3.org/2000/svg">
<rect width="1204" height="677.25" fill="#EEF2F5"/>
<g filter="url(#filter0_d)">
<rect x="406" y="225" width="394" height="84" rx="8" fill="#2788BE"/>
</g>
<path d="M528.282 274.01L528.271 276H518.036V259.486H528.271V261.475H520.497V266.708H526.753V268.628H520.497V274.01H528.282ZM532.962 265.937C533.215 265.669 533.48 265.424 533.756 265.201C534.032 264.979 534.323 264.791 534.63 264.638C534.944 264.477 535.278 264.354 535.63 264.27C535.991 264.178 536.374 264.132 536.78 264.132C537.424 264.132 537.988 264.239 538.471 264.454C538.962 264.669 539.372 264.971 539.701 265.362C540.031 265.746 540.28 266.21 540.449 266.754C540.618 267.298 540.702 267.9 540.702 268.559V276H538.448V268.559C538.448 267.724 538.256 267.076 537.873 266.616C537.49 266.148 536.903 265.914 536.113 265.914C535.538 265.914 534.998 266.052 534.492 266.328C533.994 266.597 533.53 266.965 533.1 267.432V276H530.858V264.316H532.203C532.518 264.316 532.713 264.465 532.79 264.764L532.962 265.937ZM552.261 266.558C552.637 265.792 553.089 265.19 553.618 264.753C554.147 264.316 554.784 264.097 555.527 264.097C555.78 264.097 556.018 264.128 556.24 264.189C556.47 264.243 556.67 264.327 556.838 264.443L556.689 266.133C556.635 266.34 556.509 266.443 556.309 266.443C556.202 266.443 556.041 266.424 555.826 266.386C555.612 266.34 555.382 266.317 555.136 266.317C554.776 266.317 554.458 266.371 554.182 266.478C553.906 266.578 553.657 266.731 553.434 266.938C553.22 267.137 553.028 267.386 552.859 267.685C552.691 267.977 552.534 268.31 552.388 268.686V276H550.145V264.316H551.433C551.679 264.316 551.844 264.362 551.928 264.454C552.02 264.538 552.085 264.692 552.123 264.914L552.261 266.558ZM563.421 264.132C564.28 264.132 565.054 264.274 565.744 264.557C566.442 264.833 567.032 265.236 567.515 265.765C568.006 266.286 568.381 266.919 568.642 267.662C568.903 268.398 569.033 269.226 569.033 270.146C569.033 271.066 568.903 271.898 568.642 272.642C568.381 273.386 568.006 274.018 567.515 274.539C567.032 275.061 566.442 275.463 565.744 275.747C565.054 276.023 564.28 276.161 563.421 276.161C562.555 276.161 561.773 276.023 561.075 275.747C560.385 275.463 559.795 275.061 559.304 274.539C558.813 274.018 558.434 273.386 558.166 272.642C557.905 271.898 557.775 271.066 557.775 270.146C557.775 269.226 557.905 268.398 558.166 267.662C558.434 266.919 558.813 266.286 559.304 265.765C559.795 265.236 560.385 264.833 561.075 264.557C561.773 264.274 562.555 264.132 563.421 264.132ZM563.421 274.413C564.525 274.413 565.349 274.041 565.894 273.297C566.438 272.554 566.71 271.507 566.71 270.158C566.71 268.809 566.438 267.762 565.894 267.018C565.349 266.267 564.525 265.891 563.421 265.891C562.302 265.891 561.466 266.267 560.914 267.018C560.37 267.762 560.098 268.809 560.098 270.158C560.098 271.507 560.37 272.554 560.914 273.297C561.466 274.041 562.302 274.413 563.421 274.413ZM581.554 264.316V276H580.208C579.902 276 579.702 275.85 579.61 275.551L579.449 274.378C579.196 274.647 578.932 274.892 578.656 275.114C578.38 275.337 578.085 275.528 577.77 275.689C577.456 275.843 577.122 275.962 576.77 276.046C576.417 276.138 576.038 276.184 575.631 276.184C574.987 276.184 574.42 276.077 573.929 275.862C573.446 275.647 573.04 275.348 572.71 274.965C572.381 274.574 572.131 274.106 571.963 273.562C571.794 273.018 571.71 272.416 571.71 271.756V264.316H573.964V271.756C573.964 272.592 574.155 273.244 574.539 273.711C574.922 274.171 575.509 274.401 576.298 274.401C576.873 274.401 577.41 274.267 577.908 273.999C578.407 273.723 578.874 273.347 579.311 272.872V264.316H581.554ZM588.641 276.184C587.698 276.184 586.97 275.919 586.456 275.39C585.95 274.861 585.697 274.106 585.697 273.125V266.133H584.34C584.21 266.133 584.098 266.095 584.006 266.018C583.922 265.934 583.88 265.811 583.88 265.65V264.741L585.777 264.477L586.283 260.992C586.314 260.862 586.372 260.762 586.456 260.693C586.548 260.617 586.663 260.578 586.801 260.578H587.939V264.5H591.251V266.133H587.939V272.975C587.939 273.435 588.051 273.78 588.273 274.01C588.503 274.233 588.794 274.344 589.147 274.344C589.354 274.344 589.53 274.317 589.676 274.263C589.829 274.21 589.96 274.152 590.067 274.091C590.174 274.022 590.266 273.961 590.343 273.907C590.42 273.853 590.489 273.826 590.55 273.826C590.627 273.826 590.684 273.846 590.722 273.884C590.768 273.915 590.814 273.968 590.86 274.045L591.527 275.126C591.159 275.463 590.722 275.724 590.216 275.908C589.71 276.092 589.185 276.184 588.641 276.184ZM601.289 268.858C601.289 268.414 601.224 268.004 601.094 267.628C600.971 267.252 600.787 266.926 600.542 266.65C600.296 266.374 599.997 266.16 599.645 266.006C599.292 265.853 598.886 265.776 598.426 265.776C597.483 265.776 596.739 266.049 596.195 266.593C595.658 267.137 595.317 267.892 595.171 268.858H601.289ZM603.141 274.332C602.865 274.654 602.546 274.934 602.186 275.172C601.826 275.402 601.442 275.59 601.036 275.735C600.63 275.881 600.208 275.988 599.771 276.058C599.342 276.127 598.916 276.161 598.495 276.161C597.69 276.161 596.942 276.027 596.252 275.758C595.57 275.482 594.976 275.084 594.47 274.562C593.971 274.033 593.58 273.382 593.297 272.607C593.021 271.825 592.883 270.928 592.883 269.916C592.883 269.104 593.009 268.349 593.262 267.651C593.515 266.946 593.875 266.332 594.343 265.811C594.818 265.29 595.397 264.879 596.08 264.58C596.762 264.281 597.529 264.132 598.38 264.132C599.093 264.132 599.748 264.251 600.346 264.488C600.952 264.718 601.473 265.056 601.91 265.5C602.347 265.945 602.688 266.493 602.934 267.145C603.187 267.797 603.313 268.54 603.313 269.376C603.313 269.721 603.275 269.955 603.198 270.077C603.121 270.192 602.98 270.25 602.773 270.25H595.114C595.137 270.948 595.236 271.557 595.413 272.078C595.589 272.592 595.83 273.021 596.137 273.366C596.451 273.711 596.823 273.968 597.253 274.137C597.682 274.306 598.161 274.39 598.69 274.39C599.188 274.39 599.618 274.332 599.978 274.217C600.346 274.102 600.66 273.98 600.921 273.849C601.189 273.711 601.412 273.585 601.588 273.47C601.772 273.355 601.933 273.297 602.071 273.297C602.255 273.297 602.397 273.366 602.497 273.504L603.141 274.332ZM615.798 276.184C614.855 276.184 614.126 275.919 613.613 275.39C613.107 274.861 612.854 274.106 612.854 273.125V266.133H611.497C611.366 266.133 611.255 266.095 611.163 266.018C611.079 265.934 611.037 265.811 611.037 265.65V264.741L612.934 264.477L613.44 260.992C613.471 260.862 613.528 260.762 613.613 260.693C613.705 260.617 613.82 260.578 613.958 260.578H615.096V264.5H618.408V266.133H615.096V272.975C615.096 273.435 615.207 273.78 615.43 274.01C615.66 274.233 615.951 274.344 616.304 274.344C616.511 274.344 616.687 274.317 616.833 274.263C616.986 274.21 617.116 274.152 617.224 274.091C617.331 274.022 617.423 273.961 617.5 273.907C617.576 273.853 617.645 273.826 617.707 273.826C617.783 273.826 617.841 273.846 617.879 273.884C617.925 273.915 617.971 273.968 618.017 274.045L618.684 275.126C618.316 275.463 617.879 275.724 617.373 275.908C616.867 276.092 616.342 276.184 615.798 276.184ZM625.686 264.132C626.545 264.132 627.319 264.274 628.009 264.557C628.707 264.833 629.297 265.236 629.78 265.765C630.271 266.286 630.646 266.919 630.907 267.662C631.168 268.398 631.298 269.226 631.298 270.146C631.298 271.066 631.168 271.898 630.907 272.642C630.646 273.386 630.271 274.018 629.78 274.539C629.297 275.061 628.707 275.463 628.009 275.747C627.319 276.023 626.545 276.161 625.686 276.161C624.82 276.161 624.038 276.023 623.34 275.747C622.65 275.463 622.06 275.061 621.569 274.539C621.078 274.018 620.699 273.386 620.43 272.642C620.17 271.898 620.039 271.066 620.039 270.146C620.039 269.226 620.17 268.398 620.43 267.662C620.699 266.919 621.078 266.286 621.569 265.765C622.06 265.236 622.65 264.833 623.34 264.557C624.038 264.274 624.82 264.132 625.686 264.132ZM625.686 274.413C626.79 274.413 627.614 274.041 628.158 273.297C628.703 272.554 628.975 271.507 628.975 270.158C628.975 268.809 628.703 267.762 628.158 267.018C627.614 266.267 626.79 265.891 625.686 265.891C624.567 265.891 623.731 266.267 623.179 267.018C622.635 267.762 622.362 268.809 622.362 270.158C622.362 271.507 622.635 272.554 623.179 273.297C623.731 274.041 624.567 274.413 625.686 274.413ZM647.751 267.145C647.383 266.662 646.984 266.325 646.555 266.133C646.133 265.941 645.658 265.845 645.129 265.845C644.102 265.845 643.304 266.217 642.737 266.961C642.177 267.697 641.897 268.774 641.897 270.193C641.897 270.936 641.959 271.572 642.081 272.101C642.212 272.623 642.396 273.052 642.633 273.389C642.879 273.719 643.178 273.964 643.53 274.125C643.883 274.279 644.282 274.355 644.726 274.355C645.378 274.355 645.942 274.21 646.417 273.918C646.892 273.627 647.337 273.217 647.751 272.688V267.145ZM650.005 259.026V276H648.648C648.334 276 648.138 275.85 648.061 275.551L647.866 274.206C647.368 274.796 646.8 275.272 646.164 275.632C645.535 275.985 644.807 276.161 643.979 276.161C643.312 276.161 642.706 276.031 642.162 275.77C641.625 275.509 641.165 275.13 640.782 274.631C640.399 274.125 640.103 273.501 639.896 272.757C639.689 272.013 639.586 271.158 639.586 270.193C639.586 269.326 639.701 268.521 639.931 267.777C640.161 267.034 640.494 266.39 640.931 265.845C641.368 265.301 641.897 264.876 642.518 264.569C643.139 264.255 643.841 264.097 644.623 264.097C645.328 264.097 645.926 264.212 646.417 264.443C646.915 264.672 647.36 264.998 647.751 265.42V259.026H650.005ZM661.173 268.858C661.173 268.414 661.108 268.004 660.978 267.628C660.855 267.252 660.671 266.926 660.426 266.65C660.18 266.374 659.881 266.16 659.529 266.006C659.176 265.853 658.77 265.776 658.31 265.776C657.367 265.776 656.623 266.049 656.079 266.593C655.542 267.137 655.201 267.892 655.055 268.858H661.173ZM663.025 274.332C662.749 274.654 662.43 274.934 662.07 275.172C661.71 275.402 661.326 275.59 660.92 275.735C660.514 275.881 660.092 275.988 659.655 276.058C659.226 276.127 658.8 276.161 658.379 276.161C657.574 276.161 656.826 276.027 656.136 275.758C655.454 275.482 654.86 275.084 654.354 274.562C653.855 274.033 653.464 273.382 653.181 272.607C652.905 271.825 652.767 270.928 652.767 269.916C652.767 269.104 652.893 268.349 653.146 267.651C653.399 266.946 653.759 266.332 654.227 265.811C654.702 265.29 655.281 264.879 655.964 264.58C656.646 264.281 657.413 264.132 658.264 264.132C658.977 264.132 659.632 264.251 660.23 264.488C660.836 264.718 661.357 265.056 661.794 265.5C662.231 265.945 662.572 266.493 662.818 267.145C663.071 267.797 663.197 268.54 663.197 269.376C663.197 269.721 663.159 269.955 663.082 270.077C663.005 270.192 662.864 270.25 662.657 270.25H654.998C655.021 270.948 655.12 271.557 655.297 272.078C655.473 272.592 655.714 273.021 656.021 273.366C656.335 273.711 656.707 273.968 657.137 274.137C657.566 274.306 658.045 274.39 658.574 274.39C659.072 274.39 659.502 274.332 659.862 274.217C660.23 274.102 660.544 273.98 660.805 273.849C661.073 273.711 661.296 273.585 661.472 273.47C661.656 273.355 661.817 273.297 661.955 273.297C662.139 273.297 662.281 273.366 662.381 273.504L663.025 274.332ZM668.207 259.026V276H665.953V259.026H668.207ZM674.056 264.316V276H671.814V264.316H674.056ZM674.482 260.705C674.482 260.912 674.44 261.111 674.355 261.303C674.271 261.487 674.156 261.652 674.01 261.797C673.872 261.935 673.707 262.047 673.516 262.131C673.324 262.208 673.125 262.246 672.918 262.246C672.711 262.246 672.515 262.208 672.331 262.131C672.147 262.047 671.982 261.935 671.837 261.797C671.699 261.652 671.588 261.487 671.503 261.303C671.427 261.111 671.388 260.912 671.388 260.705C671.388 260.49 671.427 260.291 671.503 260.107C671.588 259.915 671.699 259.75 671.837 259.612C671.982 259.467 672.147 259.356 672.331 259.279C672.515 259.195 672.711 259.152 672.918 259.152C673.125 259.152 673.324 259.195 673.516 259.279C673.707 259.356 673.872 259.467 674.01 259.612C674.156 259.75 674.271 259.915 674.355 260.107C674.44 260.291 674.482 260.49 674.482 260.705ZM687.746 264.316L683.008 276H680.984L676.246 264.316H678.098C678.274 264.316 678.42 264.358 678.535 264.443C678.65 264.527 678.726 264.634 678.765 264.764L681.559 271.94C681.659 272.239 681.743 272.538 681.812 272.837C681.889 273.129 681.958 273.42 682.019 273.711C682.08 273.42 682.149 273.129 682.226 272.837C682.303 272.546 682.395 272.247 682.502 271.94L685.331 264.764C685.377 264.634 685.458 264.527 685.573 264.443C685.688 264.358 685.826 264.316 685.987 264.316H687.746ZM697.232 268.858C697.232 268.414 697.167 268.004 697.037 267.628C696.914 267.252 696.73 266.926 696.485 266.65C696.24 266.374 695.941 266.16 695.588 266.006C695.235 265.853 694.829 265.776 694.369 265.776C693.426 265.776 692.682 266.049 692.138 266.593C691.601 267.137 691.26 267.892 691.114 268.858H697.232ZM699.084 274.332C698.808 274.654 698.49 274.934 698.129 275.172C697.769 275.402 697.386 275.59 696.979 275.735C696.573 275.881 696.151 275.988 695.714 276.058C695.285 276.127 694.86 276.161 694.438 276.161C693.633 276.161 692.885 276.027 692.195 275.758C691.513 275.482 690.919 275.084 690.413 274.562C689.915 274.033 689.524 273.382 689.24 272.607C688.964 271.825 688.826 270.928 688.826 269.916C688.826 269.104 688.952 268.349 689.205 267.651C689.458 266.946 689.819 266.332 690.286 265.811C690.762 265.29 691.341 264.879 692.023 264.58C692.705 264.281 693.472 264.132 694.323 264.132C695.036 264.132 695.691 264.251 696.289 264.488C696.895 264.718 697.416 265.056 697.853 265.5C698.29 265.945 698.632 266.493 698.877 267.145C699.13 267.797 699.256 268.54 699.256 269.376C699.256 269.721 699.218 269.955 699.141 270.077C699.065 270.192 698.923 270.25 698.716 270.25H691.057C691.08 270.948 691.18 271.557 691.356 272.078C691.532 272.592 691.774 273.021 692.08 273.366C692.395 273.711 692.767 273.968 693.196 274.137C693.625 274.306 694.104 274.39 694.633 274.39C695.132 274.39 695.561 274.332 695.921 274.217C696.289 274.102 696.604 273.98 696.864 273.849C697.133 273.711 697.355 273.585 697.531 273.47C697.715 273.355 697.876 273.297 698.014 273.297C698.198 273.297 698.34 273.366 698.44 273.504L699.084 274.332ZM704.083 266.558C704.458 265.792 704.911 265.19 705.44 264.753C705.969 264.316 706.605 264.097 707.349 264.097C707.602 264.097 707.839 264.128 708.062 264.189C708.292 264.243 708.491 264.327 708.66 264.443L708.51 266.133C708.457 266.34 708.33 266.443 708.131 266.443C708.023 266.443 707.862 266.424 707.648 266.386C707.433 266.34 707.203 266.317 706.958 266.317C706.597 266.317 706.279 266.371 706.003 266.478C705.727 266.578 705.478 266.731 705.256 266.938C705.041 267.137 704.849 267.386 704.681 267.685C704.512 267.977 704.355 268.31 704.209 268.686V276H701.967V264.316H703.255C703.5 264.316 703.665 264.362 703.749 264.454C703.841 264.538 703.906 264.692 703.945 264.914L704.083 266.558ZM720.902 264.316L714.416 279.393C714.347 279.561 714.255 279.692 714.14 279.784C714.025 279.876 713.856 279.922 713.634 279.922H711.966L714.105 275.264L709.31 264.316H711.265C711.456 264.316 711.606 264.362 711.713 264.454C711.82 264.546 711.897 264.649 711.943 264.764L714.91 271.779C714.971 271.956 715.029 272.136 715.083 272.32C715.144 272.496 715.194 272.673 715.232 272.849C715.286 272.665 715.343 272.485 715.405 272.308C715.466 272.124 715.531 271.944 715.6 271.768L718.464 264.764C718.517 264.634 718.602 264.527 718.717 264.443C718.832 264.358 718.962 264.316 719.108 264.316H720.902Z" fill="white"/>
<path d="M436 271.8H444.2" stroke="white" stroke-width="2" stroke-linecap="round" stroke-linejoin="round"/>
<path d="M438.3 277.5H444.2" stroke="white" stroke-width="2" stroke-linecap="round" stroke-linejoin="round"/>
<path d="M488.6 263.5L485.9 258.5C485.4 257.5 484.4 256.9 483.3 256.9H477.4V272.2C477.6 272.2 477.9 272.1 478.1 272.1C480.5 272.1 482.4 274 482.4 276.4H486C487.7 276.4 489 275.1 489 273.4V264.8C488.9 264.4 488.8 263.9 488.6 263.5Z" stroke="white" stroke-width="2" stroke-miterlimit="10"/>
<path d="M477.5 272.2V256.9C477.5 255.3 476.2 254 474.6 254H451.6C449.9 254 448.6 255.3 448.6 257V273.5C448.6 275.2 449.9 276.5 451.6 276.5H452.2C452.2 274.1 454.1 272.2 456.5 272.2C458.9 272.2 460.8 274.1 460.8 276.5H473.8C473.9 274.3 475.4 272.5 477.5 272.2Z" stroke="white" stroke-width="2" stroke-miterlimit="10"/>
<path d="M456.6 280.8C459 280.8 460.9 278.9 460.9 276.5C460.9 274.1 459 272.2 456.6 272.2C454.2 272.2 452.3 274.1 452.3 276.5C452.2 278.9 454.2 280.8 456.6 280.8Z" stroke="white" stroke-width="2" stroke-miterlimit="10"/>
<path d="M478.2 280.8C480.6 280.8 482.5 278.9 482.5 276.5C482.5 274.1 480.6 272.2 478.2 272.2C475.8 272.2 473.9 274.1 473.9 276.5C473.9 278.9 475.8 280.8 478.2 280.8Z" stroke="white" stroke-width="2" stroke-miterlimit="10"/>
<path d="M370 423C370 411.402 379.402 402 391 402H500C511.598 402 521 411.402 521 423V423C521 434.598 511.598 444 500 444H391C379.402 444 370 434.598 370 423V423Z" fill="#006091"/>
<rect x="400.64" y="423.44" width="5.36" height="5.36" rx="2.68" stroke="white" stroke-width="2"/>
<path d="M400.221 419.638C399.481 418.898 397.63 417.294 392.943 417.294C384.493 417.294 384 422.845 384 422.845" stroke="white" stroke-width="2" stroke-linecap="round" stroke-linejoin="round"/>
<path d="M399.604 416L400.406 419.947L396.458 420.749" stroke="white" stroke-width="2" stroke-linecap="round" stroke-linejoin="round"/>
<path d="M423.85 424.661L422.442 420.921C422.328 420.632 422.212 420.264 422.094 419.819C422.041 420.041 421.985 420.248 421.923 420.437C421.861 420.622 421.804 420.786 421.752 420.928L420.344 424.661H423.85ZM426.999 428.5H425.713C425.566 428.5 425.447 428.464 425.357 428.393C425.267 428.318 425.198 428.225 425.151 428.116L424.298 425.855H419.889L419.036 428.116C418.998 428.211 418.932 428.299 418.837 428.379C418.742 428.46 418.624 428.5 418.482 428.5H417.195L421.255 418.262H422.94L426.999 428.5ZM434.41 427.106V428.5H428.494V418.262H430.158V427.106H434.41ZM442.056 427.106V428.5H436.14V418.262H437.804V427.106H442.056ZM452.99 423.381C452.99 424.139 452.866 424.838 452.62 425.478C452.373 426.118 452.025 426.67 451.575 427.135C451.129 427.595 450.591 427.955 449.961 428.216C449.335 428.476 448.638 428.607 447.87 428.607C447.107 428.607 446.41 428.476 445.78 428.216C445.154 427.955 444.616 427.595 444.166 427.135C443.716 426.67 443.367 426.118 443.121 425.478C442.874 424.838 442.751 424.139 442.751 423.381C442.751 422.622 442.874 421.923 443.121 421.283C443.367 420.643 443.716 420.091 444.166 419.627C444.616 419.162 445.154 418.8 445.78 418.539C446.41 418.278 447.107 418.148 447.87 418.148C448.638 418.148 449.335 418.278 449.961 418.539C450.591 418.8 451.129 419.162 451.575 419.627C452.025 420.091 452.373 420.643 452.62 421.283C452.866 421.923 452.99 422.622 452.99 423.381ZM451.29 423.381C451.29 422.793 451.21 422.265 451.049 421.795C450.892 421.326 450.665 420.928 450.366 420.601C450.072 420.274 449.714 420.023 449.292 419.847C448.871 419.672 448.397 419.584 447.87 419.584C447.349 419.584 446.877 419.672 446.456 419.847C446.034 420.023 445.673 420.274 445.375 420.601C445.076 420.928 444.846 421.326 444.685 421.795C444.524 422.265 444.443 422.793 444.443 423.381C444.443 423.973 444.524 424.504 444.685 424.973C444.846 425.443 445.076 425.841 445.375 426.168C445.673 426.49 446.034 426.739 446.456 426.914C446.877 427.085 447.349 427.17 447.87 427.17C448.397 427.17 448.871 427.085 449.292 426.914C449.714 426.739 450.072 426.49 450.366 426.168C450.665 425.841 450.892 425.443 451.049 424.973C451.21 424.504 451.29 423.973 451.29 423.381ZM462.222 426.218C462.313 426.218 462.391 426.253 462.457 426.324L463.118 427.042C462.701 427.545 462.189 427.934 461.583 428.208C460.976 428.479 460.251 428.614 459.407 428.614C458.658 428.614 457.98 428.486 457.373 428.23C456.771 427.969 456.257 427.609 455.831 427.149C455.404 426.685 455.075 426.132 454.842 425.492C454.615 424.853 454.501 424.149 454.501 423.381C454.501 422.613 454.622 421.909 454.864 421.269C455.11 420.624 455.454 420.072 455.895 419.612C456.34 419.148 456.871 418.788 457.487 418.532C458.108 418.276 458.791 418.148 459.535 418.148C460.274 418.148 460.926 418.269 461.49 418.51C462.059 418.747 462.552 419.065 462.969 419.463L462.422 420.238C462.384 420.29 462.339 420.335 462.286 420.373C462.234 420.411 462.163 420.43 462.073 420.43C461.978 420.43 461.869 420.387 461.746 420.302C461.628 420.212 461.474 420.115 461.284 420.011C461.099 419.902 460.864 419.804 460.58 419.719C460.3 419.629 459.95 419.584 459.528 419.584C459.04 419.584 458.592 419.669 458.184 419.84C457.776 420.011 457.426 420.26 457.132 420.587C456.838 420.914 456.608 421.312 456.442 421.781C456.281 422.25 456.2 422.784 456.2 423.381C456.2 423.983 456.286 424.521 456.456 424.995C456.627 425.464 456.862 425.862 457.16 426.189C457.459 426.512 457.81 426.758 458.212 426.929C458.615 427.099 459.049 427.185 459.514 427.185C459.798 427.185 460.052 427.17 460.274 427.142C460.502 427.109 460.71 427.059 460.9 426.993C461.09 426.922 461.267 426.834 461.433 426.73C461.604 426.625 461.772 426.497 461.938 426.346C462.033 426.26 462.128 426.218 462.222 426.218ZM470.273 424.661L468.865 420.921C468.752 420.632 468.636 420.264 468.517 419.819C468.465 420.041 468.408 420.248 468.346 420.437C468.285 420.622 468.228 420.786 468.176 420.928L466.768 424.661H470.273ZM473.423 428.5H472.136C471.989 428.5 471.871 428.464 471.781 428.393C471.69 428.318 471.622 428.225 471.574 428.116L470.721 425.855H466.313L465.46 428.116C465.422 428.211 465.355 428.299 465.261 428.379C465.166 428.46 465.047 428.5 464.905 428.5H463.618L467.678 418.262H469.363L473.423 428.5ZM480.964 419.648H477.772V428.5H476.115V419.648H472.915V418.262H480.964V419.648ZM489.081 427.156L489.074 428.5H482.689V418.262H489.074V419.605H484.36V422.691H488.128V423.992H484.36V427.156H489.081ZM500.169 423.381C500.169 424.139 500.046 424.834 499.799 425.464C499.553 426.09 499.204 426.628 498.754 427.078C498.309 427.528 497.771 427.879 497.14 428.13C496.514 428.377 495.818 428.5 495.05 428.5H491.182V418.262H495.05C495.818 418.262 496.514 418.387 497.14 418.638C497.771 418.885 498.309 419.233 498.754 419.684C499.204 420.134 499.553 420.674 499.799 421.305C500.046 421.93 500.169 422.622 500.169 423.381ZM498.47 423.381C498.47 422.793 498.389 422.265 498.228 421.795C498.072 421.326 497.844 420.93 497.545 420.608C497.252 420.286 496.894 420.039 496.472 419.868C496.05 419.693 495.576 419.605 495.05 419.605H492.853V427.156H495.05C495.576 427.156 496.05 427.071 496.472 426.9C496.894 426.73 497.252 426.483 497.545 426.161C497.844 425.834 498.072 425.438 498.228 424.973C498.389 424.504 498.47 423.973 498.47 423.381Z" fill="white"/>
<path d="M635 398C635 395.791 636.791 394 639 394H831C833.209 394 835 395.791 835 398V448C835 450.209 833.209 452 831 452H639C636.791 452 635 450.209 635 448V398Z" fill="#006091"/>
<path d="M683.564 426.931C683.696 426.931 683.813 426.982 683.915 427.084L684.869 428.119C684.341 428.773 683.69 429.274 682.916 429.622C682.148 429.97 681.224 430.144 680.144 430.144C679.178 430.144 678.308 429.979 677.534 429.649C676.766 429.319 676.109 428.86 675.563 428.272C675.017 427.684 674.597 426.982 674.303 426.166C674.015 425.35 673.871 424.459 673.871 423.493C673.871 422.515 674.027 421.621 674.339 420.811C674.651 419.995 675.089 419.293 675.653 418.705C676.223 418.117 676.901 417.661 677.687 417.337C678.473 417.007 679.343 416.842 680.297 416.842C681.245 416.842 682.085 416.998 682.817 417.31C683.555 417.622 684.182 418.03 684.698 418.534L683.888 419.659C683.84 419.731 683.777 419.794 683.699 419.848C683.627 419.902 683.525 419.929 683.393 419.929C683.303 419.929 683.21 419.905 683.114 419.857C683.018 419.803 682.913 419.74 682.799 419.668C682.685 419.59 682.553 419.506 682.403 419.416C682.253 419.326 682.079 419.245 681.881 419.173C681.683 419.095 681.452 419.032 681.188 418.984C680.93 418.93 680.63 418.903 680.288 418.903C679.706 418.903 679.172 419.008 678.686 419.218C678.206 419.422 677.792 419.722 677.444 420.118C677.096 420.508 676.826 420.988 676.634 421.558C676.442 422.122 676.346 422.767 676.346 423.493C676.346 424.225 676.448 424.876 676.652 425.446C676.862 426.016 677.144 426.496 677.498 426.886C677.852 427.276 678.269 427.576 678.749 427.786C679.229 427.99 679.745 428.092 680.297 428.092C680.627 428.092 680.924 428.074 681.188 428.038C681.458 428.002 681.704 427.945 681.926 427.867C682.154 427.789 682.367 427.69 682.565 427.57C682.769 427.444 682.97 427.291 683.168 427.111C683.228 427.057 683.291 427.015 683.357 426.985C683.423 426.949 683.492 426.931 683.564 426.931ZM688.727 416.626V430H686.504V416.626H688.727ZM693.546 420.766V430H691.314V420.766H693.546ZM693.852 418.075C693.852 418.267 693.813 418.447 693.735 418.615C693.657 418.783 693.552 418.93 693.42 419.056C693.294 419.182 693.144 419.284 692.97 419.362C692.796 419.434 692.61 419.47 692.412 419.47C692.22 419.47 692.037 419.434 691.863 419.362C691.695 419.284 691.548 419.182 691.422 419.056C691.296 418.93 691.194 418.783 691.116 418.615C691.044 418.447 691.008 418.267 691.008 418.075C691.008 417.877 691.044 417.691 691.116 417.517C691.194 417.343 691.296 417.193 691.422 417.067C691.548 416.941 691.695 416.842 691.863 416.77C692.037 416.692 692.22 416.653 692.412 416.653C692.61 416.653 692.796 416.692 692.97 416.77C693.144 416.842 693.294 416.941 693.42 417.067C693.552 417.193 693.657 417.343 693.735 417.517C693.813 417.691 693.852 417.877 693.852 418.075ZM702.727 422.719C702.661 422.803 702.595 422.869 702.529 422.917C702.469 422.965 702.379 422.989 702.259 422.989C702.145 422.989 702.034 422.956 701.926 422.89C701.818 422.818 701.689 422.74 701.539 422.656C701.389 422.566 701.209 422.488 700.999 422.422C700.795 422.35 700.54 422.314 700.234 422.314C699.844 422.314 699.502 422.386 699.208 422.53C698.914 422.668 698.668 422.869 698.47 423.133C698.278 423.397 698.134 423.718 698.038 424.096C697.942 424.468 697.894 424.891 697.894 425.365C697.894 425.857 697.945 426.295 698.047 426.679C698.155 427.063 698.308 427.387 698.506 427.651C698.704 427.909 698.944 428.107 699.226 428.245C699.508 428.377 699.826 428.443 700.18 428.443C700.534 428.443 700.819 428.401 701.035 428.317C701.257 428.227 701.443 428.131 701.593 428.029C701.743 427.921 701.872 427.825 701.98 427.741C702.094 427.651 702.22 427.606 702.358 427.606C702.538 427.606 702.673 427.675 702.763 427.813L703.402 428.623C703.156 428.911 702.889 429.154 702.601 429.352C702.313 429.544 702.013 429.7 701.701 429.82C701.395 429.934 701.077 430.015 700.747 430.063C700.423 430.111 700.099 430.135 699.775 430.135C699.205 430.135 698.668 430.03 698.164 429.82C697.66 429.604 697.219 429.292 696.841 428.884C696.463 428.476 696.163 427.978 695.941 427.39C695.725 426.796 695.617 426.121 695.617 425.365C695.617 424.687 695.713 424.06 695.905 423.484C696.103 422.902 696.391 422.401 696.769 421.981C697.147 421.555 697.615 421.222 698.173 420.982C698.731 420.742 699.373 420.622 700.099 420.622C700.789 420.622 701.392 420.733 701.908 420.955C702.43 421.177 702.898 421.495 703.312 421.909L702.727 422.719ZM707.318 416.626V424.285H707.732C707.882 424.285 707.999 424.267 708.083 424.231C708.173 424.189 708.263 424.108 708.353 423.988L710.648 421.153C710.744 421.027 710.849 420.931 710.963 420.865C711.083 420.799 711.236 420.766 711.422 420.766H713.456L710.585 424.195C710.381 424.465 710.159 424.672 709.919 424.816C710.045 424.906 710.156 425.011 710.252 425.131C710.354 425.251 710.45 425.38 710.54 425.518L713.618 430H711.611C711.437 430 711.287 429.973 711.161 429.919C711.035 429.859 710.93 429.754 710.846 429.604L708.488 426.103C708.404 425.965 708.317 425.875 708.227 425.833C708.137 425.791 708.002 425.77 707.822 425.77H707.318V430H705.095V416.626H707.318ZM724.566 426.058C723.924 426.088 723.384 426.145 722.946 426.229C722.508 426.307 722.157 426.409 721.893 426.535C721.629 426.661 721.44 426.808 721.326 426.976C721.212 427.144 721.155 427.327 721.155 427.525C721.155 427.915 721.269 428.194 721.497 428.362C721.731 428.53 722.034 428.614 722.406 428.614C722.862 428.614 723.255 428.533 723.585 428.371C723.921 428.203 724.248 427.951 724.566 427.615V426.058ZM719.472 422.053C720.534 421.081 721.812 420.595 723.306 420.595C723.846 420.595 724.329 420.685 724.755 420.865C725.181 421.039 725.541 421.285 725.835 421.603C726.129 421.915 726.351 422.29 726.501 422.728C726.657 423.166 726.735 423.646 726.735 424.168V430H725.727C725.517 430 725.355 429.97 725.241 429.91C725.127 429.844 725.037 429.715 724.971 429.523L724.773 428.857C724.539 429.067 724.311 429.253 724.089 429.415C723.867 429.571 723.636 429.703 723.396 429.811C723.156 429.919 722.898 430 722.622 430.054C722.352 430.114 722.052 430.144 721.722 430.144C721.332 430.144 720.972 430.093 720.642 429.991C720.312 429.883 720.027 429.724 719.787 429.514C719.547 429.304 719.361 429.043 719.229 428.731C719.097 428.419 719.031 428.056 719.031 427.642C719.031 427.408 719.07 427.177 719.148 426.949C719.226 426.715 719.352 426.493 719.526 426.283C719.706 426.073 719.937 425.875 720.219 425.689C720.501 425.503 720.846 425.341 721.254 425.203C721.668 425.065 722.148 424.954 722.694 424.87C723.24 424.78 723.864 424.726 724.566 424.708V424.168C724.566 423.55 724.434 423.094 724.17 422.8C723.906 422.5 723.525 422.35 723.027 422.35C722.667 422.35 722.367 422.392 722.127 422.476C721.893 422.56 721.686 422.656 721.506 422.764C721.326 422.866 721.161 422.959 721.011 423.043C720.867 423.127 720.705 423.169 720.525 423.169C720.369 423.169 720.237 423.13 720.129 423.052C720.021 422.968 719.934 422.872 719.868 422.764L719.472 422.053ZM731.207 421.9C731.393 421.714 731.588 421.543 731.792 421.387C732.002 421.225 732.221 421.09 732.449 420.982C732.683 420.868 732.932 420.781 733.196 420.721C733.46 420.655 733.748 420.622 734.06 420.622C734.564 420.622 735.011 420.709 735.401 420.883C735.791 421.051 736.115 421.291 736.373 421.603C736.637 421.909 736.835 422.278 736.967 422.71C737.105 423.136 737.174 423.607 737.174 424.123V430H734.951V424.123C734.951 423.559 734.822 423.124 734.564 422.818C734.306 422.506 733.913 422.35 733.385 422.35C733.001 422.35 732.641 422.437 732.305 422.611C731.969 422.785 731.651 423.022 731.351 423.322V430H729.128V420.766H730.487C730.775 420.766 730.964 420.901 731.054 421.171L731.207 421.9ZM745.384 423.124C745.132 422.818 744.856 422.602 744.556 422.476C744.262 422.35 743.944 422.287 743.602 422.287C743.266 422.287 742.963 422.35 742.693 422.476C742.423 422.602 742.192 422.794 742 423.052C741.808 423.304 741.661 423.628 741.559 424.024C741.457 424.414 741.406 424.876 741.406 425.41C741.406 425.95 741.448 426.409 741.532 426.787C741.622 427.159 741.748 427.465 741.91 427.705C742.072 427.939 742.27 428.11 742.504 428.218C742.738 428.32 742.999 428.371 743.287 428.371C743.749 428.371 744.142 428.275 744.466 428.083C744.79 427.891 745.096 427.618 745.384 427.264V423.124ZM747.607 416.626V430H746.248C745.954 430 745.768 429.865 745.69 429.595L745.501 428.704C745.129 429.13 744.7 429.475 744.214 429.739C743.734 430.003 743.173 430.135 742.531 430.135C742.027 430.135 741.565 430.03 741.145 429.82C740.725 429.61 740.362 429.307 740.056 428.911C739.756 428.509 739.522 428.014 739.354 427.426C739.192 426.838 739.111 426.166 739.111 425.41C739.111 424.726 739.204 424.09 739.39 423.502C739.576 422.914 739.843 422.404 740.191 421.972C740.539 421.54 740.956 421.204 741.442 420.964C741.928 420.718 742.474 420.595 743.08 420.595C743.596 420.595 744.037 420.676 744.403 420.838C744.769 421 745.096 421.219 745.384 421.495V416.626H747.607ZM761.393 422.719C761.327 422.803 761.261 422.869 761.195 422.917C761.135 422.965 761.045 422.989 760.925 422.989C760.811 422.989 760.7 422.956 760.592 422.89C760.484 422.818 760.355 422.74 760.205 422.656C760.055 422.566 759.875 422.488 759.665 422.422C759.461 422.35 759.206 422.314 758.9 422.314C758.51 422.314 758.168 422.386 757.874 422.53C757.58 422.668 757.334 422.869 757.136 423.133C756.944 423.397 756.8 423.718 756.704 424.096C756.608 424.468 756.56 424.891 756.56 425.365C756.56 425.857 756.611 426.295 756.713 426.679C756.821 427.063 756.974 427.387 757.172 427.651C757.37 427.909 757.61 428.107 757.892 428.245C758.174 428.377 758.492 428.443 758.846 428.443C759.2 428.443 759.485 428.401 759.701 428.317C759.923 428.227 760.109 428.131 760.259 428.029C760.409 427.921 760.538 427.825 760.646 427.741C760.76 427.651 760.886 427.606 761.024 427.606C761.204 427.606 761.339 427.675 761.429 427.813L762.068 428.623C761.822 428.911 761.555 429.154 761.267 429.352C760.979 429.544 760.679 429.7 760.367 429.82C760.061 429.934 759.743 430.015 759.413 430.063C759.089 430.111 758.765 430.135 758.441 430.135C757.871 430.135 757.334 430.03 756.83 429.82C756.326 429.604 755.885 429.292 755.507 428.884C755.129 428.476 754.829 427.978 754.607 427.39C754.391 426.796 754.283 426.121 754.283 425.365C754.283 424.687 754.379 424.06 754.571 423.484C754.769 422.902 755.057 422.401 755.435 421.981C755.813 421.555 756.281 421.222 756.839 420.982C757.397 420.742 758.039 420.622 758.765 420.622C759.455 420.622 760.058 420.733 760.574 420.955C761.096 421.177 761.564 421.495 761.978 421.909L761.393 422.719ZM766.012 416.626V430H763.789V416.626H766.012ZM773.405 426.058C772.763 426.088 772.223 426.145 771.785 426.229C771.347 426.307 770.996 426.409 770.732 426.535C770.468 426.661 770.279 426.808 770.165 426.976C770.051 427.144 769.994 427.327 769.994 427.525C769.994 427.915 770.108 428.194 770.336 428.362C770.57 428.53 770.873 428.614 771.245 428.614C771.701 428.614 772.094 428.533 772.424 428.371C772.76 428.203 773.087 427.951 773.405 427.615V426.058ZM768.311 422.053C769.373 421.081 770.651 420.595 772.145 420.595C772.685 420.595 773.168 420.685 773.594 420.865C774.02 421.039 774.38 421.285 774.674 421.603C774.968 421.915 775.19 422.29 775.34 422.728C775.496 423.166 775.574 423.646 775.574 424.168V430H774.566C774.356 430 774.194 429.97 774.08 429.91C773.966 429.844 773.876 429.715 773.81 429.523L773.612 428.857C773.378 429.067 773.15 429.253 772.928 429.415C772.706 429.571 772.475 429.703 772.235 429.811C771.995 429.919 771.737 430 771.461 430.054C771.191 430.114 770.891 430.144 770.561 430.144C770.171 430.144 769.811 430.093 769.481 429.991C769.151 429.883 768.866 429.724 768.626 429.514C768.386 429.304 768.2 429.043 768.068 428.731C767.936 428.419 767.87 428.056 767.87 427.642C767.87 427.408 767.909 427.177 767.987 426.949C768.065 426.715 768.191 426.493 768.365 426.283C768.545 426.073 768.776 425.875 769.058 425.689C769.34 425.503 769.685 425.341 770.093 425.203C770.507 425.065 770.987 424.954 771.533 424.87C772.079 424.78 772.703 424.726 773.405 424.708V424.168C773.405 423.55 773.273 423.094 773.009 422.8C772.745 422.5 772.364 422.35 771.866 422.35C771.506 422.35 771.206 422.392 770.966 422.476C770.732 422.56 770.525 422.656 770.345 422.764C770.165 422.866 770 422.959 769.85 423.043C769.706 423.127 769.544 423.169 769.364 423.169C769.208 423.169 769.076 423.13 768.968 423.052C768.86 422.968 768.773 422.872 768.707 422.764L768.311 422.053ZM780.271 420.766V430H778.039V420.766H780.271ZM780.577 418.075C780.577 418.267 780.538 418.447 780.46 418.615C780.382 418.783 780.277 418.93 780.145 419.056C780.019 419.182 779.869 419.284 779.695 419.362C779.521 419.434 779.335 419.47 779.137 419.47C778.945 419.47 778.762 419.434 778.588 419.362C778.42 419.284 778.273 419.182 778.147 419.056C778.021 418.93 777.919 418.783 777.841 418.615C777.769 418.447 777.733 418.267 777.733 418.075C777.733 417.877 777.769 417.691 777.841 417.517C777.919 417.343 778.021 417.193 778.147 417.067C778.273 416.941 778.42 416.842 778.588 416.77C778.762 416.692 778.945 416.653 779.137 416.653C779.335 416.653 779.521 416.692 779.695 416.77C779.869 416.842 780.019 416.941 780.145 417.067C780.277 417.193 780.382 417.343 780.46 417.517C780.538 417.691 780.577 417.877 780.577 418.075ZM782.838 430V420.766H784.197C784.485 420.766 784.674 420.901 784.764 421.171L784.908 421.855C785.07 421.675 785.238 421.51 785.412 421.36C785.592 421.21 785.781 421.081 785.979 420.973C786.183 420.865 786.399 420.781 786.627 420.721C786.861 420.655 787.116 420.622 787.392 420.622C787.974 420.622 788.451 420.781 788.823 421.099C789.201 421.411 789.483 421.828 789.669 422.35C789.813 422.044 789.993 421.783 790.209 421.567C790.425 421.345 790.662 421.165 790.92 421.027C791.178 420.889 791.451 420.787 791.739 420.721C792.033 420.655 792.327 420.622 792.621 420.622C793.131 420.622 793.584 420.7 793.98 420.856C794.376 421.012 794.709 421.24 794.979 421.54C795.249 421.84 795.453 422.206 795.591 422.638C795.735 423.07 795.807 423.565 795.807 424.123V430H793.584V424.123C793.584 423.535 793.455 423.094 793.197 422.8C792.939 422.5 792.561 422.35 792.063 422.35C791.835 422.35 791.622 422.389 791.424 422.467C791.232 422.545 791.061 422.659 790.911 422.809C790.767 422.953 790.653 423.136 790.569 423.358C790.485 423.58 790.443 423.835 790.443 424.123V430H788.211V424.123C788.211 423.505 788.085 423.055 787.833 422.773C787.587 422.491 787.224 422.35 786.744 422.35C786.42 422.35 786.117 422.431 785.835 422.593C785.559 422.749 785.301 422.965 785.061 423.241V430H782.838Z" fill="white"/>
<path fill-rule="evenodd" clip-rule="evenodd" d="M812.331 448.38C812.047 448.021 811.702 447.287 811.088 446.396C810.74 445.892 809.877 444.943 809.62 444.461C809.397 444.035 809.421 443.844 809.474 443.491C809.568 442.863 810.212 442.374 810.899 442.44C811.418 442.489 811.858 442.832 812.254 443.156C812.493 443.351 812.787 443.73 812.964 443.944C813.127 444.14 813.167 444.221 813.341 444.453C813.571 444.76 813.643 444.912 813.555 444.574C813.484 444.078 813.368 443.231 813.2 442.482C813.072 441.914 813.041 441.825 812.919 441.389C812.79 440.925 812.724 440.6 812.603 440.108C812.519 439.76 812.368 439.049 812.327 438.649C812.27 438.102 812.24 437.21 812.591 436.8C812.866 436.479 813.497 436.382 813.888 436.58C814.4 436.839 814.691 437.583 814.824 437.88C815.063 438.414 815.211 439.031 815.34 439.841C815.504 440.872 815.806 442.303 815.816 442.604C815.84 442.235 815.748 441.458 815.812 441.104C815.87 440.783 816.14 440.41 816.478 440.309C816.764 440.224 817.099 440.193 817.394 440.254C817.707 440.318 818.037 440.542 818.16 440.753C818.522 441.377 818.529 442.652 818.544 442.584C818.63 442.208 818.615 441.355 818.828 441C818.968 440.766 819.325 440.555 819.515 440.521C819.809 440.469 820.17 440.453 820.479 440.513C820.728 440.562 821.065 440.858 821.156 441C821.374 441.344 821.498 442.317 821.535 442.658C821.55 442.799 821.609 442.266 821.828 441.922C822.234 441.283 823.671 441.159 823.726 442.561C823.751 443.215 823.746 443.185 823.746 443.625C823.746 444.142 823.734 444.453 823.706 444.827C823.675 445.227 823.589 446.131 823.464 446.569C823.378 446.87 823.093 447.547 822.812 447.953C822.812 447.953 821.738 449.203 821.621 449.766C821.503 450.328 821.542 450.332 821.519 450.731C821.496 451.129 821.64 451.653 821.64 451.653C821.64 451.653 820.838 451.757 820.406 451.688C820.015 451.625 819.531 450.847 819.406 450.609C819.234 450.281 818.867 450.344 818.724 450.586C818.499 450.969 818.015 451.656 817.673 451.699C817.005 451.783 815.619 451.73 814.534 451.719C814.534 451.719 814.719 450.708 814.307 450.361C814.002 450.102 813.477 449.577 813.163 449.301L812.331 448.38Z" fill="white"/>
<path fill-rule="evenodd" clip-rule="evenodd" d="M812.331 448.38C812.047 448.021 811.702 447.287 811.088 446.396C810.74 445.892 809.877 444.943 809.62 444.461C809.397 444.035 809.421 443.844 809.474 443.491C809.568 442.863 810.212 442.374 810.899 442.44C811.418 442.489 811.858 442.832 812.254 443.156C812.493 443.351 812.787 443.73 812.964 443.944C813.127 444.14 813.167 444.221 813.341 444.453C813.571 444.76 813.643 444.912 813.555 444.574C813.484 444.078 813.368 443.231 813.2 442.482C813.072 441.914 813.041 441.825 812.919 441.389C812.79 440.925 812.724 440.6 812.603 440.108C812.519 439.76 812.368 439.049 812.327 438.649C812.27 438.102 812.24 437.21 812.591 436.8C812.866 436.479 813.497 436.382 813.888 436.58C814.4 436.839 814.691 437.583 814.824 437.88C815.063 438.414 815.211 439.031 815.34 439.841C815.504 440.872 815.806 442.303 815.816 442.604C815.84 442.235 815.748 441.458 815.812 441.104C815.87 440.783 816.14 440.41 816.478 440.309C816.764 440.224 817.099 440.193 817.394 440.254C817.707 440.318 818.037 440.542 818.16 440.753C818.522 441.377 818.529 442.652 818.544 442.584C818.63 442.208 818.615 441.355 818.828 441C818.968 440.766 819.325 440.555 819.515 440.521C819.809 440.469 820.17 440.453 820.479 440.513C820.728 440.562 821.065 440.858 821.156 441C821.374 441.344 821.498 442.317 821.535 442.658C821.55 442.799 821.609 442.266 821.828 441.922C822.234 441.283 823.671 441.159 823.726 442.561C823.751 443.215 823.746 443.185 823.746 443.625C823.746 444.142 823.734 444.453 823.706 444.827C823.675 445.227 823.589 446.131 823.464 446.569C823.378 446.87 823.093 447.547 822.812 447.953C822.812 447.953 821.738 449.203 821.621 449.766C821.503 450.328 821.542 450.332 821.519 450.731C821.496 451.129 821.64 451.653 821.64 451.653C821.64 451.653 820.838 451.757 820.406 451.688C820.015 451.625 819.531 450.847 819.406 450.609C819.234 450.281 818.867 450.344 818.724 450.586C818.499 450.969 818.015 451.656 817.673 451.699C817.005 451.783 815.619 451.73 814.534 451.719C814.534 451.719 814.719 450.708 814.307 450.361C814.002 450.102 813.477 449.577 813.163 449.301L812.331 448.38Z" stroke="black" stroke-width="0.75" stroke-linecap="round" stroke-linejoin="round"/>
<path d="M820.566 448.734V445.275" stroke="black" stroke-width="0.75" stroke-linecap="round"/>
<path d="M818.551 448.746L818.535 445.273" stroke="black" stroke-width="0.75" stroke-linecap="round"/>
<path d="M816.555 445.305L816.576 448.731" stroke="black" stroke-width="0.75" stroke-linecap="round"/>
<defs>
<filter id="filter0_d" x="402" y="225" width="402" height="92" filterUnits="userSpaceOnUse" colour-interpolation-filters="sRGB">
<feFlood flood-opacity="0" result="BackgroundImageFix"/>
<feColourMatrix in="SourceAlpha" type="matrix" values="0 0 0 0 0 0 0 0 0 0 0 0 0 0 0 0 0 0 127 0"/>
<feOffset dy="4"/>
<feGaussianBlur stdDeviation="2"/>
<feColourMatrix type="matrix" values="0 0 0 0 0 0 0 0 0 0 0 0 0 0 0 0 0 0 0.2 0"/>
<feBlend mode="normal" in2="BackgroundImageFix" result="effect1_dropShadow"/>
<feBlend mode="normal" in="SourceGraphic" in2="effect1_dropShadow" result="shape"/>
</filter>
</defs>
</svg>
