<?xml version="1.0" encoding="utf-8"?>
<!-- Generator: Adobe Illustrator 25.2.3, SVG Export Plug-In . SVG Version: 6.00 Build 0)  -->
<svg version="1.1" id="Layer_1" xmlns="http://www.w3.org/2000/svg" xmlns:xlink="http://www.w3.org/1999/xlink" x="0px" y="0px"
	 viewBox="0 0 1204 678" style="enable-background:new 0 0 1204 678;" xml:space="preserve">
<style type="text/css">
	.st0{fill:#EEF2F5;}
	.st1{fill:#B3D97F;}
	.st2{fill:#FFFFFF;}
	.st3{fill:#FFA233;}
	.st4{fill:#F74F64;}
	.st5{fill:none;stroke:#FFFFFF;stroke-width:2;stroke-linecap:round;stroke-linejoin:round;}
	.st6{fill:#70C216;}
	.st7{fill:#292929;}
	.st8{fill:#89363E;}
</style>
<rect class="st0" width="1204" height="677.2"/>
<g>
	<path class="st1" d="M253.7,194.1c0-10.6,8.6-19.2,19.2-19.2H379c10.6,0,19.2,8.6,19.2,19.2l0,0c0,10.6-8.6,19.2-19.2,19.2H272.9
		C262.3,213.3,253.7,204.7,253.7,194.1L253.7,194.1z"/>
	<path class="st2" d="M303.9,200.5l0,2.1H294v-15.7h9.8v2.1h-7.2v4.7h5.8v2h-5.8v4.9H303.9z M315.4,196.6l-2.2-5.8
		c-0.2-0.4-0.4-1-0.5-1.7c-0.1,0.3-0.2,0.7-0.3,1c-0.1,0.3-0.2,0.5-0.3,0.8l-2.2,5.7H315.4z M320.3,202.5h-2c-0.2,0-0.4-0.1-0.5-0.2
		c-0.1-0.1-0.2-0.3-0.3-0.4l-1.3-3.5h-6.8l-1.3,3.5c-0.1,0.1-0.2,0.3-0.3,0.4c-0.1,0.1-0.3,0.2-0.5,0.2h-2l6.2-15.7h2.6L320.3,202.5
		z M327.1,194.3c0.6,0,1.1-0.1,1.5-0.2c0.4-0.1,0.8-0.3,1.1-0.6c0.3-0.3,0.5-0.6,0.7-0.9c0.1-0.4,0.2-0.8,0.2-1.2
		c0-0.9-0.3-1.5-0.9-2c-0.6-0.5-1.4-0.7-2.6-0.7h-2.1v5.5H327.1z M334.5,202.5h-2.3c-0.5,0-0.8-0.2-1-0.5l-3.7-5.3
		c-0.1-0.2-0.3-0.3-0.4-0.4c-0.1-0.1-0.4-0.1-0.7-0.1h-1.4v6.3h-2.6v-15.7h4.6c1,0,1.9,0.1,2.7,0.3c0.8,0.2,1.4,0.5,1.8,0.9
		c0.5,0.4,0.8,0.9,1.1,1.4c0.2,0.5,0.4,1.2,0.4,1.8c0,0.5-0.1,1.1-0.3,1.5c-0.2,0.5-0.4,0.9-0.7,1.3c-0.3,0.4-0.7,0.7-1.1,1
		c-0.5,0.3-1,0.5-1.5,0.7c0.3,0.2,0.6,0.5,0.8,0.8L334.5,202.5z M346,200.4v2.1h-9.1v-15.7h2.6v13.6H346z M352.9,196.4v6.2h-2.5
		v-6.2l-5.8-9.6h2.2c0.2,0,0.4,0.1,0.5,0.2c0.1,0.1,0.2,0.2,0.3,0.4l3.2,5.6c0.1,0.3,0.3,0.6,0.4,0.8c0.1,0.3,0.2,0.5,0.3,0.8
		c0.1-0.3,0.2-0.5,0.3-0.8c0.1-0.3,0.2-0.5,0.4-0.8l3.2-5.6c0.1-0.1,0.2-0.3,0.3-0.4c0.1-0.1,0.3-0.2,0.5-0.2h2.3L352.9,196.4z"/>
	<path class="st3" d="M253.7,324.8c0-10.6,8.6-19.2,19.2-19.2h138.4c10.6,0,19.2,8.6,19.2,19.2l0,0c0,10.6-8.6,19.2-19.2,19.2H272.9
		C262.3,344,253.7,335.4,253.7,324.8L253.7,324.8z"/>
	<path class="st2" d="M307.8,325.4c0,1.2-0.2,2.2-0.6,3.2c-0.4,1-0.9,1.8-1.6,2.5c-0.7,0.7-1.5,1.2-2.5,1.6c-1,0.4-2,0.6-3.2,0.6
		H294v-15.7h5.9c1.2,0,2.3,0.2,3.2,0.6c1,0.4,1.8,0.9,2.5,1.6c0.7,0.7,1.2,1.5,1.6,2.5C307.7,323.1,307.8,324.2,307.8,325.4z
		 M305.2,325.4c0-0.9-0.1-1.7-0.4-2.4c-0.2-0.7-0.6-1.3-1.1-1.8c-0.5-0.5-1-0.9-1.6-1.1c-0.6-0.3-1.4-0.4-2.2-0.4h-3.4v11.6h3.4
		c0.8,0,1.5-0.1,2.2-0.4c0.6-0.3,1.2-0.6,1.6-1.1c0.5-0.5,0.8-1.1,1.1-1.8C305.1,327.1,305.2,326.3,305.2,325.4z M320.9,331.2l0,2.1
		h-9.8v-15.7h9.8v2.1h-7.2v4.7h5.8v2h-5.8v4.9H320.9z M333.3,331.1v2.1h-9.1v-15.7h2.6v13.6H333.3z M344.3,327.3l-2.2-5.8
		c-0.2-0.4-0.4-1-0.5-1.7c-0.1,0.3-0.2,0.7-0.3,1c-0.1,0.3-0.2,0.5-0.3,0.8l-2.2,5.7H344.3z M349.1,333.2h-2c-0.2,0-0.4-0.1-0.5-0.2
		c-0.1-0.1-0.2-0.3-0.3-0.4l-1.3-3.5h-6.8l-1.3,3.5c-0.1,0.1-0.2,0.3-0.3,0.4c-0.1,0.1-0.3,0.2-0.5,0.2h-2l6.2-15.7h2.6L349.1,333.2
		z M356.2,327.1v6.2h-2.5v-6.2l-5.8-9.6h2.2c0.2,0,0.4,0.1,0.5,0.2c0.1,0.1,0.2,0.2,0.3,0.4l3.2,5.6c0.1,0.3,0.3,0.6,0.4,0.8
		c0.1,0.3,0.2,0.5,0.3,0.8c0.1-0.3,0.2-0.5,0.3-0.8c0.1-0.3,0.2-0.5,0.4-0.8l3.2-5.6c0.1-0.1,0.2-0.3,0.3-0.4
		c0.1-0.1,0.3-0.2,0.5-0.2h2.3L356.2,327.1z M374,331.2l0,2.1h-9.8v-15.7h9.8v2.1h-7.2v4.7h5.8v2h-5.8v4.9H374z M391.1,325.4
		c0,1.2-0.2,2.2-0.6,3.2c-0.4,1-0.9,1.8-1.6,2.5c-0.7,0.7-1.5,1.2-2.5,1.6c-1,0.4-2,0.6-3.2,0.6h-5.9v-15.7h5.9
		c1.2,0,2.3,0.2,3.2,0.6c1,0.4,1.8,0.9,2.5,1.6c0.7,0.7,1.2,1.5,1.6,2.5C390.9,323.1,391.1,324.2,391.1,325.4z M388.5,325.4
		c0-0.9-0.1-1.7-0.4-2.4c-0.2-0.7-0.6-1.3-1.1-1.8c-0.5-0.5-1-0.9-1.6-1.1c-0.6-0.3-1.4-0.4-2.2-0.4h-3.4v11.6h3.4
		c0.8,0,1.5-0.1,2.2-0.4c0.6-0.3,1.2-0.6,1.6-1.1c0.5-0.5,0.8-1.1,1.1-1.8C388.4,327.1,388.5,326.3,388.5,325.4z"/>
	<path class="st4" d="M253.7,470.1c0-17.8,14.5-32.3,32.3-32.3h167.6c17.8,0,32.3,14.5,32.3,32.3l0,0c0,17.8-14.5,32.3-32.3,32.3
		H286C268.2,502.4,253.7,487.9,253.7,470.1L253.7,470.1z"/>
	<path class="st5" d="M293.7,485.5c8.5,0,15.4-6.9,15.4-15.4c0-8.5-6.9-15.4-15.4-15.4s-15.4,6.9-15.4,15.4
		C278.3,478.6,285.2,485.5,293.7,485.5z"/>
	<path class="st5" d="M282.9,480.9l21.6-21.6"/>
	<path class="st2" d="M338.9,475c0.1,0,0.3,0.1,0.4,0.2l1,1.1c-0.6,0.8-1.4,1.4-2.4,1.8c-0.9,0.4-2,0.6-3.3,0.6
		c-1.2,0-2.2-0.2-3.1-0.6c-0.9-0.4-1.7-1-2.4-1.7c-0.7-0.7-1.2-1.6-1.5-2.5c-0.4-1-0.5-2.1-0.5-3.2c0-1.2,0.2-2.3,0.6-3.2
		c0.4-1,0.9-1.8,1.6-2.5c0.7-0.7,1.5-1.3,2.4-1.7c1-0.4,2-0.6,3.1-0.6c1.1,0,2.1,0.2,3,0.6c0.9,0.4,1.6,0.9,2.3,1.5l-0.8,1.2
		c-0.1,0.1-0.1,0.1-0.2,0.2c-0.1,0.1-0.2,0.1-0.3,0.1c-0.1,0-0.3-0.1-0.5-0.2c-0.2-0.1-0.4-0.3-0.7-0.4c-0.3-0.2-0.6-0.3-1.1-0.4
		c-0.4-0.1-1-0.2-1.6-0.2c-0.8,0-1.4,0.1-2.1,0.4c-0.6,0.3-1.2,0.6-1.6,1.1c-0.5,0.5-0.8,1.1-1.1,1.8c-0.2,0.7-0.4,1.5-0.4,2.5
		c0,0.9,0.1,1.8,0.4,2.5c0.3,0.7,0.6,1.3,1.1,1.8c0.5,0.5,1,0.9,1.6,1.1c0.6,0.3,1.3,0.4,2,0.4c0.4,0,0.8,0,1.2-0.1
		c0.3-0.1,0.7-0.1,1-0.2c0.3-0.1,0.6-0.2,0.8-0.4c0.3-0.2,0.5-0.4,0.8-0.6C338.6,475.1,338.8,475,338.9,475z M351.3,472.7l-2.2-5.8
		c-0.2-0.4-0.4-1-0.5-1.7c-0.1,0.3-0.2,0.7-0.3,1c-0.1,0.3-0.2,0.5-0.3,0.8l-2.2,5.7H351.3z M356.1,478.6h-2c-0.2,0-0.4-0.1-0.5-0.2
		c-0.1-0.1-0.2-0.3-0.3-0.4l-1.3-3.5h-6.8l-1.3,3.5c-0.1,0.1-0.2,0.3-0.3,0.4c-0.1,0.1-0.3,0.2-0.5,0.2h-2l6.2-15.7h2.6L356.1,478.6
		z M371.5,462.8v15.7h-1.3c-0.2,0-0.4,0-0.5-0.1c-0.1-0.1-0.3-0.2-0.4-0.4l-8.6-11.1c0,0.2,0,0.4,0,0.6c0,0.2,0,0.4,0,0.6v10.4h-2.3
		v-15.7h1.3c0.1,0,0.2,0,0.3,0c0.1,0,0.2,0,0.2,0.1c0.1,0,0.1,0.1,0.2,0.1c0.1,0.1,0.1,0.1,0.2,0.2l8.7,11.1c0-0.2,0-0.4-0.1-0.7
		c0-0.2,0-0.4,0-0.6v-10.3H371.5z M386.6,475c0.1,0,0.3,0.1,0.4,0.2l1,1.1c-0.6,0.8-1.4,1.4-2.4,1.8c-0.9,0.4-2,0.6-3.3,0.6
		c-1.2,0-2.2-0.2-3.1-0.6c-0.9-0.4-1.7-1-2.4-1.7c-0.7-0.7-1.2-1.6-1.5-2.5c-0.3-1-0.5-2.1-0.5-3.2c0-1.2,0.2-2.3,0.6-3.2
		c0.4-1,0.9-1.8,1.6-2.5c0.7-0.7,1.5-1.3,2.4-1.7c1-0.4,2-0.6,3.1-0.6c1.1,0,2.1,0.2,3,0.6c0.9,0.4,1.6,0.9,2.3,1.5l-0.8,1.2
		c-0.1,0.1-0.1,0.1-0.2,0.2c-0.1,0.1-0.2,0.1-0.3,0.1c-0.1,0-0.3-0.1-0.5-0.2c-0.2-0.1-0.4-0.3-0.7-0.4c-0.3-0.2-0.6-0.3-1.1-0.4
		c-0.4-0.1-1-0.2-1.6-0.2c-0.8,0-1.4,0.1-2.1,0.4c-0.6,0.3-1.2,0.6-1.6,1.1c-0.5,0.5-0.8,1.1-1.1,1.8c-0.2,0.7-0.4,1.5-0.4,2.5
		c0,0.9,0.1,1.8,0.4,2.5c0.3,0.7,0.6,1.3,1.1,1.8c0.5,0.5,1,0.9,1.6,1.1c0.6,0.3,1.3,0.4,2,0.4c0.4,0,0.8,0,1.2-0.1
		c0.4-0.1,0.7-0.1,1-0.2c0.3-0.1,0.6-0.2,0.8-0.4c0.3-0.2,0.5-0.4,0.8-0.6C386.3,475.1,386.5,475,386.6,475z M400.5,476.5l0,2.1
		h-9.8v-15.7h9.8v2.1h-7.2v4.7h5.8v2h-5.8v4.9H400.5z M412.8,476.4v2.1h-9.1v-15.7h2.6v13.6H412.8z M424.6,476.4v2.1h-9.1v-15.7h2.6
		v13.6H424.6z M437,476.5l0,2.1h-9.8v-15.7h9.8v2.1h-7.2v4.7h5.8v2h-5.8v4.9H437z M454.1,470.7c0,1.2-0.2,2.2-0.6,3.2
		c-0.4,1-0.9,1.8-1.6,2.5c-0.7,0.7-1.5,1.2-2.5,1.6c-1,0.4-2,0.6-3.2,0.6h-5.9v-15.7h5.9c1.2,0,2.3,0.2,3.2,0.6
		c1,0.4,1.8,0.9,2.5,1.6c0.7,0.7,1.2,1.5,1.6,2.5C453.9,468.5,454.1,469.5,454.1,470.7z M451.5,470.7c0-0.9-0.1-1.7-0.4-2.4
		c-0.2-0.7-0.6-1.3-1.1-1.8c-0.5-0.5-1-0.9-1.6-1.1c-0.6-0.3-1.4-0.4-2.2-0.4h-3.4v11.6h3.4c0.8,0,1.5-0.1,2.2-0.4
		c0.6-0.3,1.2-0.6,1.6-1.1c0.5-0.5,0.8-1.1,1.1-1.8C451.4,472.4,451.5,471.6,451.5,470.7z"/>
	<circle class="st6" cx="791.9" cy="194.9" r="15.4"/>
	<path class="st7" d="M835.7,198.3l-3.1-8.1c-0.1-0.2-0.2-0.5-0.3-0.8c-0.1-0.3-0.2-0.7-0.3-1c-0.2,0.7-0.4,1.4-0.6,1.9l-3.1,8.1
		H835.7z M841.3,205.6h-2.1c-0.2,0-0.4-0.1-0.6-0.2c-0.1-0.1-0.3-0.3-0.3-0.5l-1.9-4.8h-8.9l-1.9,4.8c-0.1,0.2-0.2,0.3-0.3,0.4
		c-0.2,0.1-0.4,0.2-0.6,0.2h-2.1l7.9-19.8h2.7L841.3,205.6z M846.2,202.2c0.5,0.6,0.9,1,1.5,1.3c0.5,0.2,1.1,0.4,1.8,0.4
		c1.3,0,2.3-0.5,3-1.4c0.7-0.9,1.1-2.3,1.1-4c0-0.9-0.1-1.7-0.2-2.4c-0.2-0.7-0.4-1.2-0.7-1.6c-0.3-0.4-0.7-0.7-1.1-0.9
		c-0.4-0.2-0.9-0.3-1.5-0.3c-0.8,0-1.5,0.2-2.1,0.6c-0.6,0.4-1.2,0.9-1.7,1.6V202.2z M846.1,193.8c0.6-0.7,1.3-1.3,2-1.8
		c0.8-0.4,1.7-0.7,2.7-0.7c0.8,0,1.5,0.2,2.2,0.5c0.7,0.3,1.2,0.8,1.7,1.4c0.5,0.6,0.8,1.3,1.1,2.2c0.2,0.9,0.4,1.9,0.4,3.1
		c0,1-0.1,2-0.4,2.9c-0.3,0.9-0.7,1.7-1.2,2.3c-0.5,0.6-1.2,1.2-1.9,1.5c-0.7,0.4-1.6,0.6-2.5,0.6c-0.9,0-1.6-0.1-2.2-0.4
		c-0.6-0.3-1.1-0.7-1.6-1.2v6.2h-2.5v-18.8h1.5c0.4,0,0.6,0.2,0.7,0.5L846.1,193.8z M862.2,202.2c0.5,0.6,0.9,1,1.5,1.3
		c0.5,0.2,1.1,0.4,1.8,0.4c1.3,0,2.3-0.5,3-1.4c0.7-0.9,1.1-2.3,1.1-4c0-0.9-0.1-1.7-0.2-2.4c-0.2-0.7-0.4-1.2-0.7-1.6
		c-0.3-0.4-0.7-0.7-1.1-0.9c-0.4-0.2-0.9-0.3-1.5-0.3c-0.8,0-1.5,0.2-2.1,0.6c-0.6,0.4-1.2,0.9-1.7,1.6V202.2z M862.1,193.8
		c0.6-0.7,1.3-1.3,2-1.8c0.8-0.4,1.7-0.7,2.7-0.7c0.8,0,1.5,0.2,2.2,0.5c0.7,0.3,1.2,0.8,1.7,1.4c0.5,0.6,0.8,1.3,1.1,2.2
		c0.2,0.9,0.4,1.9,0.4,3.1c0,1-0.1,2-0.4,2.9c-0.3,0.9-0.7,1.7-1.2,2.3c-0.5,0.6-1.2,1.2-1.9,1.5c-0.7,0.4-1.6,0.6-2.5,0.6
		c-0.9,0-1.6-0.1-2.2-0.4c-0.6-0.3-1.1-0.7-1.6-1.2v6.2h-2.5v-18.8h1.5c0.4,0,0.6,0.2,0.7,0.5L862.1,193.8z M878,194.4
		c0.4-1,1-1.7,1.6-2.2c0.6-0.5,1.4-0.8,2.4-0.8c0.3,0,0.6,0,0.8,0.1c0.3,0.1,0.5,0.2,0.7,0.3l-0.2,1.8c-0.1,0.2-0.2,0.3-0.4,0.3
		c-0.1,0-0.3,0-0.6-0.1c-0.2-0.1-0.5-0.1-0.8-0.1c-0.4,0-0.8,0.1-1.2,0.2c-0.3,0.1-0.7,0.3-0.9,0.6c-0.3,0.2-0.5,0.6-0.7,0.9
		c-0.2,0.4-0.4,0.8-0.6,1.3v8.9h-2.5v-14h1.4c0.3,0,0.5,0.1,0.6,0.2c0.1,0.1,0.2,0.3,0.2,0.5L878,194.4z M891.6,191.4
		c1,0,1.9,0.2,2.8,0.5s1.5,0.8,2.1,1.5s1,1.4,1.3,2.3c0.3,0.9,0.5,1.9,0.5,3c0,1.1-0.2,2.1-0.5,3c-0.3,0.9-0.7,1.6-1.3,2.3
		c-0.6,0.6-1.3,1.1-2.1,1.5c-0.8,0.3-1.7,0.5-2.8,0.5c-1,0-2-0.2-2.8-0.5c-0.8-0.3-1.5-0.8-2.1-1.5c-0.6-0.6-1-1.4-1.3-2.3
		c-0.3-0.9-0.5-1.9-0.5-3c0-1.1,0.2-2.1,0.5-3c0.3-0.9,0.8-1.7,1.3-2.3s1.3-1.1,2.1-1.5C889.6,191.5,890.6,191.4,891.6,191.4z
		 M891.6,203.9c1.4,0,2.4-0.5,3.1-1.4c0.7-0.9,1-2.2,1-3.9c0-1.7-0.3-3-1-3.9c-0.7-0.9-1.7-1.4-3.1-1.4c-0.7,0-1.3,0.1-1.8,0.4
		c-0.5,0.2-1,0.6-1.3,1c-0.3,0.5-0.6,1-0.8,1.7c-0.2,0.7-0.2,1.4-0.2,2.2c0,1.7,0.3,3,1,3.9C889.1,203.4,890.2,203.9,891.6,203.9z
		 M913.5,191.6l-5.7,14h-2.2l-5.7-14h2c0.2,0,0.4,0.1,0.5,0.2c0.1,0.1,0.2,0.2,0.3,0.4l3.6,9c0.1,0.3,0.2,0.7,0.3,1
		c0.1,0.3,0.2,0.6,0.2,1c0.1-0.3,0.2-0.6,0.2-1c0.1-0.3,0.2-0.7,0.3-1l3.6-9c0.1-0.1,0.1-0.3,0.3-0.4c0.1-0.1,0.3-0.2,0.5-0.2H913.5
		z M925.2,197.1c0-0.6-0.1-1.1-0.2-1.6c-0.2-0.5-0.4-0.9-0.7-1.2c-0.3-0.4-0.7-0.6-1.1-0.8c-0.4-0.2-0.9-0.3-1.5-0.3
		c-1.2,0-2.1,0.3-2.8,1c-0.7,0.7-1.1,1.6-1.3,2.9H925.2z M927.2,203.7c-0.3,0.4-0.7,0.7-1.1,1c-0.4,0.3-0.9,0.5-1.4,0.7
		c-0.5,0.2-1,0.3-1.5,0.4c-0.5,0.1-1,0.1-1.5,0.1c-1,0-1.9-0.2-2.7-0.5c-0.8-0.3-1.5-0.8-2.1-1.4c-0.6-0.6-1.1-1.4-1.4-2.4
		c-0.3-0.9-0.5-2-0.5-3.2c0-1,0.1-1.9,0.4-2.7c0.3-0.8,0.7-1.6,1.3-2.2c0.6-0.6,1.3-1.1,2.1-1.5c0.8-0.4,1.7-0.5,2.7-0.5
		c0.8,0,1.6,0.1,2.3,0.4c0.7,0.3,1.3,0.7,1.9,1.2c0.5,0.5,0.9,1.2,1.2,2c0.3,0.8,0.4,1.7,0.4,2.7c0,0.4,0,0.6-0.1,0.8
		c-0.1,0.1-0.2,0.2-0.5,0.2h-9.4c0,0.9,0.1,1.7,0.4,2.3c0.2,0.7,0.5,1.2,0.9,1.6c0.4,0.4,0.8,0.8,1.4,1c0.5,0.2,1.1,0.3,1.8,0.3
		c0.6,0,1.1-0.1,1.6-0.2c0.5-0.1,0.8-0.3,1.2-0.5c0.3-0.2,0.6-0.3,0.8-0.5c0.2-0.1,0.4-0.2,0.6-0.2c0.2,0,0.4,0.1,0.5,0.2
		L927.2,203.7z M940,194.9c-0.5-0.6-1-1-1.5-1.3c-0.5-0.2-1.1-0.4-1.8-0.4c-1.3,0-2.3,0.5-3,1.4c-0.7,0.9-1.1,2.3-1.1,4
		c0,0.9,0.1,1.7,0.2,2.4c0.2,0.6,0.4,1.2,0.7,1.6c0.3,0.4,0.7,0.7,1.1,0.9c0.4,0.2,0.9,0.3,1.5,0.3c0.8,0,1.5-0.2,2.1-0.6
		c0.6-0.4,1.2-0.9,1.7-1.6V194.9z M942.5,185.2v20.4H941c-0.4,0-0.6-0.2-0.7-0.5l-0.2-1.7c-0.6,0.7-1.3,1.3-2,1.7
		c-0.8,0.4-1.7,0.7-2.7,0.7c-0.8,0-1.5-0.2-2.2-0.5c-0.7-0.3-1.2-0.8-1.7-1.4c-0.5-0.6-0.8-1.3-1.1-2.2c-0.2-0.9-0.4-1.9-0.4-3.1
		c0-1,0.1-2,0.4-2.9c0.3-0.9,0.7-1.7,1.2-2.3c0.5-0.7,1.1-1.2,1.9-1.5c0.8-0.4,1.6-0.6,2.5-0.6c0.9,0,1.6,0.1,2.2,0.4
		c0.6,0.3,1.2,0.7,1.6,1.2v-7.8H942.5z"/>
	<circle class="st3" cx="791.9" cy="325.6" r="15.4"/>
	<path class="st7" d="M831,326.8c0.8,0,1.4-0.1,2-0.3c0.6-0.2,1.1-0.5,1.5-0.8c0.4-0.4,0.7-0.8,0.9-1.3c0.2-0.5,0.3-1.1,0.3-1.7
		c0-1.3-0.4-2.3-1.2-3c-0.8-0.7-2-1.1-3.5-1.1h-3.2v8.2H831z M831,316.5c1.3,0,2.3,0.1,3.3,0.4c0.9,0.3,1.7,0.7,2.3,1.2
		c0.6,0.5,1.1,1.2,1.4,1.9c0.3,0.8,0.5,1.6,0.5,2.5c0,0.9-0.2,1.8-0.5,2.5c-0.3,0.8-0.8,1.4-1.4,2c-0.6,0.6-1.4,1-2.3,1.3
		c-0.9,0.3-2,0.5-3.2,0.5h-3.2v7.4h-2.7v-19.8H831z M850.3,327.8c0-0.6-0.1-1.1-0.2-1.6c-0.2-0.5-0.4-0.9-0.7-1.2
		c-0.3-0.4-0.7-0.6-1.1-0.8c-0.4-0.2-0.9-0.3-1.5-0.3c-1.2,0-2.1,0.3-2.8,1c-0.7,0.7-1.1,1.6-1.3,2.9H850.3z M852.3,334.4
		c-0.3,0.4-0.7,0.7-1.1,1c-0.4,0.3-0.9,0.5-1.4,0.7c-0.5,0.2-1,0.3-1.5,0.4c-0.5,0.1-1,0.1-1.5,0.1c-1,0-1.9-0.2-2.7-0.5
		c-0.8-0.3-1.5-0.8-2.1-1.4c-0.6-0.6-1.1-1.4-1.4-2.4c-0.3-0.9-0.5-2-0.5-3.2c0-1,0.1-1.9,0.4-2.7c0.3-0.8,0.7-1.6,1.3-2.2
		c0.6-0.6,1.3-1.1,2.1-1.5c0.8-0.4,1.7-0.5,2.7-0.5c0.8,0,1.6,0.1,2.3,0.4c0.7,0.3,1.3,0.7,1.9,1.2c0.5,0.5,0.9,1.2,1.2,2
		c0.3,0.8,0.4,1.7,0.4,2.7c0,0.4,0,0.6-0.1,0.8c-0.1,0.1-0.2,0.2-0.5,0.2h-9.4c0,0.9,0.1,1.7,0.4,2.3c0.2,0.7,0.5,1.2,0.9,1.6
		c0.4,0.4,0.8,0.8,1.4,1c0.5,0.2,1.1,0.3,1.8,0.3c0.6,0,1.1-0.1,1.6-0.2c0.5-0.1,0.8-0.3,1.2-0.5c0.3-0.2,0.6-0.3,0.8-0.5
		c0.2-0.1,0.4-0.2,0.6-0.2c0.2,0,0.4,0.1,0.5,0.2L852.3,334.4z M858.4,324.3c0.3-0.3,0.6-0.7,1-0.9c0.3-0.3,0.7-0.5,1.1-0.7
		c0.4-0.2,0.8-0.4,1.2-0.5c0.4-0.1,0.9-0.2,1.4-0.2c0.8,0,1.4,0.1,2,0.4c0.6,0.2,1.1,0.6,1.5,1.1c0.4,0.5,0.7,1,0.9,1.7
		c0.2,0.7,0.3,1.4,0.3,2.2v8.9h-2.5v-8.9c0-1.1-0.2-1.9-0.7-2.5c-0.5-0.6-1.2-0.9-2.2-0.9c-0.7,0-1.4,0.2-2,0.5
		c-0.6,0.4-1.2,0.8-1.7,1.4v10.3H856v-14h1.5c0.4,0,0.6,0.2,0.7,0.5L858.4,324.3z M881.1,325.6c-0.5-0.6-1-1-1.5-1.3
		c-0.5-0.2-1.1-0.4-1.8-0.4c-1.3,0-2.3,0.5-3,1.4c-0.7,0.9-1.1,2.3-1.1,4c0,0.9,0.1,1.7,0.2,2.4c0.2,0.6,0.4,1.2,0.7,1.6
		c0.3,0.4,0.7,0.7,1.1,0.9c0.4,0.2,0.9,0.3,1.5,0.3c0.8,0,1.5-0.2,2.1-0.6c0.6-0.4,1.2-0.9,1.7-1.6V325.6z M883.5,315.9v20.4h-1.5
		c-0.4,0-0.6-0.2-0.7-0.5l-0.2-1.7c-0.6,0.7-1.3,1.3-2,1.7c-0.8,0.4-1.7,0.7-2.7,0.7c-0.8,0-1.5-0.2-2.2-0.5
		c-0.7-0.3-1.2-0.8-1.7-1.4c-0.5-0.6-0.8-1.3-1.1-2.2c-0.2-0.9-0.4-1.9-0.4-3.1c0-1,0.1-2,0.4-2.9c0.3-0.9,0.7-1.7,1.2-2.3
		c0.5-0.7,1.1-1.2,1.9-1.5c0.8-0.4,1.6-0.6,2.5-0.6c0.9,0,1.6,0.1,2.2,0.4c0.6,0.3,1.2,0.7,1.6,1.2v-7.8H883.5z M890.5,322.3v14H888
		v-14H890.5z M891,317.9c0,0.2-0.1,0.5-0.2,0.7c-0.1,0.2-0.2,0.4-0.4,0.6c-0.2,0.2-0.3,0.3-0.6,0.4c-0.2,0.1-0.4,0.1-0.7,0.1
		c-0.2,0-0.5,0-0.7-0.1c-0.2-0.1-0.4-0.2-0.5-0.4c-0.2-0.2-0.3-0.4-0.4-0.6c-0.1-0.2-0.1-0.4-0.1-0.7c0-0.2,0-0.5,0.1-0.7
		c0.1-0.2,0.2-0.4,0.4-0.6c0.2-0.2,0.3-0.3,0.5-0.4c0.2-0.1,0.4-0.1,0.7-0.1c0.2,0,0.5,0,0.7,0.1c0.2,0.1,0.4,0.2,0.6,0.4
		c0.2,0.2,0.3,0.3,0.4,0.6C891,317.4,891,317.7,891,317.9z M897.3,324.3c0.3-0.3,0.6-0.7,1-0.9c0.3-0.3,0.7-0.5,1.1-0.7
		c0.4-0.2,0.8-0.4,1.2-0.5c0.4-0.1,0.9-0.2,1.4-0.2c0.8,0,1.4,0.1,2,0.4c0.6,0.2,1.1,0.6,1.5,1.1c0.4,0.5,0.7,1,0.9,1.7
		c0.2,0.7,0.3,1.4,0.3,2.2v8.9h-2.5v-8.9c0-1.1-0.2-1.9-0.7-2.5c-0.5-0.6-1.2-0.9-2.2-0.9c-0.7,0-1.4,0.2-2,0.5
		c-0.6,0.4-1.2,0.8-1.7,1.4v10.3H895v-14h1.5c0.4,0,0.6,0.2,0.7,0.5L897.3,324.3z M915.8,329.5c0.5,0,0.9-0.1,1.3-0.2
		c0.4-0.1,0.7-0.3,1-0.6c0.3-0.2,0.5-0.5,0.6-0.9c0.1-0.4,0.2-0.7,0.2-1.1c0-0.9-0.3-1.5-0.8-2c-0.5-0.5-1.3-0.8-2.3-0.8
		c-1,0-1.8,0.3-2.3,0.8c-0.5,0.5-0.8,1.2-0.8,2c0,0.4,0.1,0.8,0.2,1.1c0.1,0.3,0.3,0.6,0.6,0.9c0.3,0.2,0.6,0.4,1,0.6
		C914.8,329.4,915.3,329.5,915.8,329.5z M920.2,337.1c0-0.3-0.1-0.6-0.3-0.8c-0.2-0.2-0.5-0.4-0.8-0.5c-0.3-0.1-0.7-0.2-1.1-0.2
		c-0.4-0.1-0.9-0.1-1.4-0.1c-0.5,0-1-0.1-1.5-0.1c-0.5,0-1-0.1-1.4-0.1c-0.5,0.2-0.9,0.5-1.3,0.9c-0.3,0.4-0.5,0.8-0.5,1.3
		c0,0.3,0.1,0.6,0.2,0.9c0.2,0.3,0.4,0.5,0.7,0.7c0.3,0.2,0.7,0.4,1.2,0.5c0.5,0.1,1.1,0.2,1.8,0.2c0.7,0,1.3-0.1,1.8-0.2
		c0.5-0.1,1-0.3,1.3-0.5c0.4-0.2,0.7-0.5,0.8-0.8C920.1,337.8,920.2,337.4,920.2,337.1z M922.7,322.9v0.9c0,0.3-0.2,0.5-0.6,0.6
		l-1.6,0.2c0.3,0.6,0.5,1.3,0.5,2c0,0.7-0.1,1.3-0.4,1.9c-0.3,0.6-0.6,1-1.1,1.4c-0.5,0.4-1,0.7-1.7,0.9c-0.6,0.2-1.3,0.3-2.1,0.3
		c-0.7,0-1.3-0.1-1.9-0.2c-0.3,0.2-0.5,0.4-0.7,0.6c-0.2,0.2-0.2,0.4-0.2,0.6c0,0.3,0.1,0.6,0.4,0.8c0.3,0.2,0.6,0.3,1.1,0.4
		c0.4,0.1,0.9,0.1,1.5,0.1c0.6,0,1.2,0.1,1.7,0.1c0.6,0,1.2,0.1,1.7,0.2c0.6,0.1,1.1,0.3,1.5,0.5c0.4,0.2,0.8,0.5,1.1,1
		c0.3,0.4,0.4,0.9,0.4,1.6c0,0.6-0.2,1.2-0.5,1.7c-0.3,0.6-0.7,1.1-1.3,1.5c-0.6,0.4-1.3,0.8-2.1,1.1c-0.8,0.3-1.7,0.4-2.8,0.4
		c-1,0-1.9-0.1-2.7-0.3c-0.8-0.2-1.4-0.5-1.9-0.8c-0.5-0.3-0.9-0.7-1.1-1.2c-0.2-0.4-0.4-0.9-0.4-1.4c0-0.7,0.2-1.3,0.7-1.8
		c0.4-0.5,1-0.9,1.8-1.1c-0.4-0.2-0.7-0.4-1-0.7c-0.2-0.3-0.4-0.7-0.4-1.3c0-0.2,0-0.4,0.1-0.6c0.1-0.2,0.2-0.4,0.3-0.7
		c0.2-0.2,0.3-0.4,0.6-0.6c0.2-0.2,0.5-0.4,0.8-0.5c-0.7-0.4-1.2-0.9-1.6-1.5c-0.4-0.6-0.6-1.4-0.6-2.2c0-0.7,0.1-1.3,0.4-1.9
		c0.3-0.6,0.6-1,1.1-1.4c0.5-0.4,1-0.7,1.7-0.9c0.7-0.2,1.4-0.3,2.1-0.3c0.6,0,1.2,0.1,1.7,0.2c0.5,0.1,1,0.3,1.4,0.6H922.7z"/>
	<path class="st8" d="M776.5,470.1c0-11.9,9.6-21.5,21.5-21.5h130.7c11.9,0,21.5,9.6,21.5,21.5l0,0c0,11.9-9.6,21.5-21.5,21.5H798.1
		C786.2,491.6,776.5,482,776.5,470.1L776.5,470.1z"/>
	<path class="st5" d="M819.6,479.7l-18.5-18.8"/>
	<path class="st5" d="M819.6,460.9l-18.5,18.8"/>
	<path class="st2" d="M847.1,475.2l0,1.8h-8.7v-14h8.7v1.8h-6.4v4.2h5.2v1.8h-5.2v4.3H847.1z M861.1,477h-2.3c-0.2,0-0.3,0-0.4-0.1
		c-0.1-0.1-0.2-0.2-0.2-0.3l-3.5-5.6c0,0.1-0.1,0.2-0.1,0.2c0,0.1-0.1,0.1-0.1,0.2l-3.4,5.2c-0.1,0.1-0.2,0.2-0.2,0.3
		c-0.1,0.1-0.2,0.1-0.3,0.1h-2.1l4.7-7.2l-4.5-6.8h2.3c0.2,0,0.3,0,0.4,0.1c0.1,0,0.1,0.1,0.2,0.2l3.4,5.3c0-0.1,0.1-0.2,0.1-0.2
		c0-0.1,0.1-0.2,0.1-0.2l3.2-4.8c0.1-0.1,0.1-0.2,0.2-0.2c0.1-0.1,0.2-0.1,0.3-0.1h2.2l-4.6,6.7L861.1,477z M867.7,470.2
		c0.5,0,0.9-0.1,1.3-0.2c0.4-0.1,0.7-0.3,1-0.5c0.3-0.2,0.5-0.5,0.6-0.9c0.1-0.3,0.2-0.7,0.2-1.1c0-0.4-0.1-0.8-0.2-1.1
		c-0.1-0.3-0.3-0.6-0.6-0.8c-0.3-0.2-0.6-0.4-1-0.5c-0.4-0.1-0.8-0.2-1.4-0.2h-2.1v5.4H867.7z M867.7,463c0.9,0,1.7,0.1,2.4,0.3
		c0.7,0.2,1.2,0.5,1.7,0.9c0.4,0.4,0.8,0.8,1,1.4c0.2,0.5,0.3,1.1,0.3,1.8c0,0.7-0.1,1.3-0.3,1.8c-0.2,0.6-0.6,1-1,1.4
		c-0.4,0.4-1,0.7-1.7,0.9c-0.7,0.2-1.4,0.3-2.3,0.3h-2.1v5.1h-2.3v-14H867.7z M877.9,477h-2.3v-14h2.3V477z M885.8,469.7
		c0.5,0,1-0.1,1.4-0.2c0.4-0.1,0.7-0.3,1-0.5c0.3-0.2,0.5-0.5,0.6-0.8c0.1-0.3,0.2-0.7,0.2-1.1c0-0.8-0.3-1.3-0.8-1.7
		c-0.5-0.4-1.3-0.6-2.3-0.6H884v4.9H885.8z M892.4,477h-2c-0.4,0-0.7-0.2-0.9-0.5l-3.3-4.7c-0.1-0.2-0.2-0.3-0.4-0.3
		c-0.1-0.1-0.3-0.1-0.6-0.1H884v5.6h-2.3v-14h4.1c0.9,0,1.7,0.1,2.4,0.3c0.7,0.2,1.2,0.5,1.6,0.8c0.4,0.3,0.7,0.8,0.9,1.2
		c0.2,0.5,0.3,1,0.3,1.6c0,0.5-0.1,0.9-0.2,1.4c-0.1,0.4-0.4,0.8-0.6,1.1c-0.3,0.3-0.6,0.6-1,0.9c-0.4,0.3-0.9,0.5-1.4,0.6
		c0.3,0.2,0.5,0.4,0.7,0.7L892.4,477z M903.3,475.2l0,1.8h-8.7v-14h8.7v1.8h-6.4v4.2h5.2v1.8h-5.2v4.3H903.3z M918.5,470
		c0,1-0.2,2-0.5,2.8c-0.3,0.9-0.8,1.6-1.4,2.2c-0.6,0.6-1.3,1.1-2.2,1.4c-0.9,0.3-1.8,0.5-2.9,0.5h-5.3v-14h5.3c1,0,2,0.2,2.9,0.5
		c0.9,0.3,1.6,0.8,2.2,1.4c0.6,0.6,1.1,1.4,1.4,2.2C918.3,468,918.5,469,918.5,470z M916.1,470c0-0.8-0.1-1.5-0.3-2.2
		c-0.2-0.6-0.5-1.2-0.9-1.6c-0.4-0.4-0.9-0.8-1.5-1c-0.6-0.2-1.2-0.4-1.9-0.4h-3v10.3h3c0.7,0,1.4-0.1,1.9-0.4
		c0.6-0.2,1.1-0.6,1.5-1c0.4-0.4,0.7-1,0.9-1.6C916,471.6,916.1,470.8,916.1,470z"/>
</g>
</svg>
