<svg width="1204" height="678" viewBox="0 0 1204 678" fill="none" xmlns="http://www.w3.org/2000/svg">
<path d="M1204 0H0V677.25H1204V0Z" fill="#EEF2F5"/>
<path d="M734 210H106V467H734V210Z" fill="white"/>
<path d="M996 210H734V468H996V210Z" fill="#043C63"/>
<path d="M1026 210H996V468H1026V210Z" fill="#00909A"/>
<path d="M1057 210H1026V468H1057V210Z" fill="#217599"/>
<path d="M1066 210H1057V468H1066V210Z" fill="#292929"/>
<path d="M1098 210H1090V468H1098V210Z" fill="#8CDD7D"/>
<path d="M1090 210H1082V468H1090V210Z" fill="#6C639B"/>
<path d="M1082 210H1074V468H1082V210Z" fill="#9B76B1"/>
<path d="M1074 210H1066V468H1074V210Z" fill="#00B992"/>
</svg>
