<svg width="1204" height="678" viewBox="0 0 1204 678" fill="none" xmlns="http://www.w3.org/2000/svg">
<path d="M1204 0H0V677.25H1204V0Z" fill="#EEF2F5"/>
<path d="M698 210H106V467H698V210Z" fill="white"/>
<path d="M948 210H698V468H948V210Z" fill="#41A5DD"/>
<path d="M996.239 210H948V468H996.239V210Z" fill="#292929"/>
<path d="M1021 210H996V468H1021V210Z" fill="#006091"/>
<path d="M1046 210H1021V468H1046V210Z" fill="#1E4C71"/>
<path d="M1071 210H1046V468H1071V210Z" fill="#2788BE"/>
<path d="M1090 210H1080V468H1090V210Z" fill="#B8336A"/>
<path d="M1080 210H1071V468H1080V210Z" fill="#3ACC8A"/>
<path d="M1098 210H1090V468H1098V210Z" fill="#EF6C24"/>
</svg>
