<svg width="1204" height="678" viewBox="0 0 1204 678" fill="none" xmlns="http://www.w3.org/2000/svg">
<rect width="1204" height="677.25" fill="white"/>
<mask id="mask0" mask-type="alpha" maskUnits="userSpaceOnUse" x="527" y="289" width="100" height="100">
<path d="M527 335.046C527 318.759 527 310.615 530.22 304.416C532.933 299.193 537.193 294.933 542.416 292.22C548.615 289 556.759 289 573.046 289H580.954C597.241 289 605.385 289 611.584 292.22C616.807 294.933 621.067 299.193 623.78 304.416C627 310.615 627 318.759 627 335.046V342.954C627 359.241 627 367.385 623.78 373.584C621.067 378.807 616.807 383.067 611.584 385.78C605.385 389 597.241 389 580.954 389H573.046C556.759 389 548.615 389 542.416 385.78C537.193 383.067 532.933 378.807 530.22 373.584C527 367.385 527 359.241 527 342.954V335.046Z" fill="#C4C4C4"/>
</mask>
<g mask="url(#mask0)">
<rect width="100" height="100" transform="translate(527 289)" fill="#F18D8D"/>
<rect x="527" y="289" width="100" height="100" fill="#41A5DD"/>
<path d="M562.566 356.291C565.133 356.291 567.215 354.215 567.215 351.654C567.215 349.094 565.133 347.018 562.566 347.018C559.998 347.018 557.917 349.094 557.917 351.654C557.917 354.215 559.998 356.291 562.566 356.291Z" fill="white"/>
<path fill-rule="evenodd" clip-rule="evenodd" d="M599.015 322.195C598.054 319.475 596.288 318.98 594.273 318.98H592.165C591.979 318.98 591.793 318.98 591.608 319.011H548.463C545.736 319.011 543.504 321.237 543.504 323.957V354.035C543.504 356.755 545.736 358.98 548.463 358.98H579.644V358.95H579.737C581.844 358.95 583.053 358.239 583.673 356.538L585.998 350.109H600.193L602.456 356.538C603.107 358.239 604.501 358.95 606.423 358.95C608.686 358.95 610.545 357.249 610.545 355.086C610.545 354.127 610.018 352.582 609.677 351.716L599.015 322.195ZM562.566 357.342C559.435 357.342 556.863 354.807 556.863 351.654C556.863 348.532 559.404 345.967 562.566 345.967C565.696 345.967 568.269 348.501 568.269 351.654C568.238 354.807 565.696 357.342 562.566 357.342ZM574.622 352.087H569.384C569.384 350.974 568.919 344.792 562.411 344.792C555.902 344.792 555.623 352.149 555.623 352.149H554.228C554.228 352.149 550.168 350.511 549.331 350.078C548.494 349.614 548.401 347.327 548.401 347.327V345.317H549.114V343.277C549.455 338.95 560.086 335.055 560.086 335.055C560.086 335.055 569.012 326.276 570.407 325.039C573.414 322.412 585.595 322.999 585.595 322.999L574.622 352.087ZM587.888 344.019L593.095 328.532H593.188L598.178 344.019H587.888Z" fill="white"/>
<path fill-rule="evenodd" clip-rule="evenodd" d="M556.305 340.279C555.933 340.186 554.569 340.186 553.98 340.155C553.794 340.155 553.608 340.217 553.484 340.341C553.205 340.557 552.771 340.99 552.368 341.515C551.903 342.133 551.562 342.906 551.345 343.401C551.19 343.803 551.624 343.834 551.624 343.834L552.647 344.05C552.771 344.081 552.895 344.05 552.988 343.957L556.398 340.99C556.367 340.99 556.862 340.402 556.305 340.279Z" fill="white"/>
<path fill-rule="evenodd" clip-rule="evenodd" d="M579.333 325.596C578.868 325.596 574.56 326.059 573.723 326.214C572.887 326.369 571.647 327.327 571.647 327.327L566.347 333.169V336.291L577.567 334.127C577.567 334.127 579.023 333.849 579.24 331.994C579.457 330.14 579.922 326.183 579.922 326.183C579.922 326.183 579.798 325.596 579.333 325.596Z" fill="white"/>
</g>
<rect x="477.5" y="438.5" width="199" height="49" transform="rotate(-90 477.5 438.5)" stroke="#D8D8D8"/>
<rect x="627.5" y="438.5" width="199" height="49" transform="rotate(-90 627.5 438.5)" stroke="#D8D8D8"/>
<rect x="477.5" y="239.5" width="199" height="49" stroke="#D8D8D8"/>
<rect x="477.5" y="389.5" width="199" height="49" stroke="#D8D8D8"/>
<line x1="467" y1="389.5" x2="453" y2="389.5" stroke="black"/>
<line x1="467" y1="289.5" x2="453" y2="289.5" stroke="black"/>
<line x1="453.5" y1="289" x2="453.5" y2="389" stroke="black"/>
<path d="M442.811 345H441.614C441.511 345 441.43 344.974 441.369 344.923C441.313 344.867 441.266 344.806 441.229 344.741L439.444 341.962C439.425 342.027 439.404 342.093 439.381 342.158C439.362 342.219 439.334 342.275 439.297 342.326L437.645 344.741C437.598 344.806 437.547 344.867 437.491 344.923C437.44 344.974 437.367 345 437.274 345H436.161L438.646 341.36L436.259 337.909H437.456C437.559 337.909 437.633 337.925 437.68 337.958C437.727 337.991 437.769 338.037 437.806 338.098L439.549 340.758C439.586 340.623 439.645 340.492 439.724 340.366L441.25 338.126C441.292 338.061 441.336 338.009 441.383 337.972C441.434 337.93 441.495 337.909 441.565 337.909H442.713L440.326 341.297L442.811 345Z" fill="black"/>
<line x1="687" y1="238.5" x2="701" y2="238.5" stroke="black"/>
<line x1="687" y1="288.5" x2="701" y2="288.5" stroke="black"/>
<line x1="700.5" y1="289" x2="700.5" y2="239" stroke="black"/>
<path d="M713.534 262.756C714.057 262.644 714.537 262.588 714.976 262.588C715.499 262.588 715.961 262.665 716.362 262.819C716.763 262.973 717.097 263.185 717.363 263.456C717.634 263.727 717.837 264.046 717.972 264.415C718.112 264.784 718.182 265.185 718.182 265.619C718.182 266.151 718.089 266.632 717.902 267.061C717.72 267.49 717.466 267.859 717.139 268.167C716.817 268.47 716.437 268.704 715.998 268.867C715.559 269.03 715.086 269.112 714.577 269.112C714.283 269.112 714.001 269.082 713.73 269.021C713.459 268.965 713.205 268.888 712.967 268.79C712.734 268.692 712.517 268.58 712.316 268.454C712.115 268.328 711.938 268.195 711.784 268.055L712.169 267.523C712.253 267.402 712.363 267.341 712.498 267.341C712.591 267.341 712.696 267.378 712.813 267.453C712.93 267.523 713.072 267.602 713.24 267.691C713.408 267.78 713.604 267.861 713.828 267.936C714.057 268.006 714.327 268.041 714.64 268.041C714.99 268.041 715.305 267.985 715.585 267.873C715.865 267.761 716.105 267.602 716.306 267.397C716.507 267.187 716.661 266.937 716.768 266.648C716.875 266.359 716.929 266.034 716.929 265.675C716.929 265.362 716.882 265.08 716.789 264.828C716.7 264.576 716.563 264.361 716.376 264.184C716.194 264.007 715.965 263.869 715.69 263.771C715.415 263.673 715.093 263.624 714.724 263.624C714.472 263.624 714.208 263.645 713.933 263.687C713.662 263.729 713.385 263.797 713.1 263.89L712.316 263.659L713.121 258.969H717.874V259.515C717.874 259.692 717.818 259.839 717.706 259.956C717.599 260.068 717.412 260.124 717.146 260.124H713.996L713.534 262.756ZM727.121 263.988C727.121 264.865 727.025 265.626 726.834 266.27C726.647 266.909 726.391 267.439 726.064 267.859C725.737 268.279 725.35 268.592 724.902 268.797C724.459 269.002 723.983 269.105 723.474 269.105C722.961 269.105 722.482 269.002 722.039 268.797C721.6 268.592 721.218 268.279 720.891 267.859C720.564 267.439 720.308 266.909 720.121 266.27C719.934 265.626 719.841 264.865 719.841 263.988C719.841 263.111 719.934 262.35 720.121 261.706C720.308 261.062 720.564 260.53 720.891 260.11C721.218 259.685 721.6 259.37 722.039 259.165C722.482 258.96 722.961 258.857 723.474 258.857C723.983 258.857 724.459 258.96 724.902 259.165C725.35 259.37 725.737 259.685 726.064 260.11C726.391 260.53 726.647 261.062 726.834 261.706C727.025 262.35 727.121 263.111 727.121 263.988ZM725.826 263.988C725.826 263.223 725.761 262.581 725.63 262.063C725.504 261.54 725.331 261.12 725.112 260.803C724.897 260.486 724.648 260.259 724.363 260.124C724.078 259.984 723.782 259.914 723.474 259.914C723.166 259.914 722.87 259.984 722.585 260.124C722.3 260.259 722.051 260.486 721.836 260.803C721.621 261.12 721.449 261.54 721.318 262.063C721.192 262.581 721.129 263.223 721.129 263.988C721.129 264.753 721.192 265.395 721.318 265.913C721.449 266.431 721.621 266.849 721.836 267.166C722.051 267.483 722.3 267.712 722.585 267.852C722.87 267.987 723.166 268.055 723.474 268.055C723.782 268.055 724.078 267.987 724.363 267.852C724.648 267.712 724.897 267.483 725.112 267.166C725.331 266.849 725.504 266.431 725.63 265.913C725.761 265.395 725.826 264.753 725.826 263.988ZM732.896 261.391C732.896 261.783 732.836 262.135 732.714 262.448C732.593 262.756 732.43 263.017 732.224 263.232C732.024 263.442 731.788 263.603 731.517 263.715C731.251 263.827 730.969 263.883 730.67 263.883C730.358 263.883 730.066 263.827 729.795 263.715C729.525 263.603 729.289 263.442 729.088 263.232C728.892 263.017 728.738 262.756 728.626 262.448C728.514 262.135 728.458 261.783 728.458 261.391C728.458 260.99 728.514 260.633 728.626 260.32C728.738 260.007 728.892 259.744 729.088 259.529C729.289 259.314 729.525 259.151 729.795 259.039C730.066 258.927 730.358 258.871 730.67 258.871C730.988 258.871 731.282 258.927 731.552 259.039C731.823 259.151 732.059 259.314 732.259 259.529C732.46 259.744 732.616 260.007 732.728 260.32C732.84 260.633 732.896 260.99 732.896 261.391ZM731.93 261.391C731.93 261.083 731.898 260.822 731.832 260.607C731.767 260.392 731.676 260.217 731.559 260.082C731.447 259.942 731.314 259.842 731.16 259.781C731.006 259.72 730.843 259.69 730.67 259.69C730.498 259.69 730.337 259.72 730.187 259.781C730.038 259.842 729.907 259.942 729.795 260.082C729.683 260.217 729.595 260.392 729.529 260.607C729.464 260.822 729.431 261.083 729.431 261.391C729.431 261.694 729.464 261.953 729.529 262.168C729.595 262.378 729.683 262.551 729.795 262.686C729.907 262.817 730.038 262.912 730.187 262.973C730.337 263.029 730.498 263.057 730.67 263.057C730.843 263.057 731.006 263.029 731.16 262.973C731.314 262.912 731.447 262.817 731.559 262.686C731.676 262.551 731.767 262.378 731.832 262.168C731.898 261.953 731.93 261.694 731.93 261.391ZM736.445 259.179C736.492 259.123 736.546 259.074 736.606 259.032C736.672 258.99 736.758 258.969 736.865 258.969H737.768L730.432 268.797C730.39 268.858 730.337 268.907 730.271 268.944C730.206 268.981 730.127 269 730.033 269H729.116L736.445 259.179ZM738.447 266.634C738.447 267.026 738.387 267.376 738.265 267.684C738.144 267.992 737.981 268.253 737.775 268.468C737.575 268.678 737.339 268.839 737.068 268.951C736.802 269.063 736.52 269.119 736.221 269.119C735.904 269.119 735.61 269.063 735.339 268.951C735.073 268.839 734.84 268.678 734.639 268.468C734.443 268.253 734.289 267.992 734.177 267.684C734.065 267.376 734.009 267.026 734.009 266.634C734.009 266.233 734.065 265.876 734.177 265.563C734.289 265.246 734.443 264.98 734.639 264.765C734.84 264.55 735.073 264.387 735.339 264.275C735.61 264.163 735.904 264.107 736.221 264.107C736.534 264.107 736.826 264.163 737.096 264.275C737.372 264.387 737.607 264.55 737.803 264.765C738.004 264.98 738.16 265.246 738.272 265.563C738.389 265.876 738.447 266.233 738.447 266.634ZM737.481 266.634C737.481 266.326 737.449 266.065 737.383 265.85C737.318 265.631 737.227 265.453 737.11 265.318C736.998 265.183 736.865 265.085 736.711 265.024C736.557 264.963 736.394 264.933 736.221 264.933C736.049 264.933 735.885 264.963 735.731 265.024C735.582 265.085 735.451 265.183 735.339 265.318C735.227 265.453 735.139 265.631 735.073 265.85C735.013 266.065 734.982 266.326 734.982 266.634C734.982 266.937 735.013 267.194 735.073 267.404C735.139 267.614 735.227 267.787 735.339 267.922C735.451 268.053 735.582 268.148 735.731 268.209C735.885 268.265 736.049 268.293 736.221 268.293C736.394 268.293 736.557 268.265 736.711 268.209C736.865 268.148 736.998 268.053 737.11 267.922C737.227 267.787 737.318 267.614 737.383 267.404C737.449 267.194 737.481 266.937 737.481 266.634ZM747.225 261.797C747.743 261.797 748.209 261.883 748.625 262.056C749.04 262.229 749.395 262.474 749.689 262.791C749.983 263.108 750.207 263.493 750.361 263.946C750.519 264.394 750.599 264.896 750.599 265.451C750.599 266.011 750.519 266.515 750.361 266.963C750.207 267.411 749.983 267.794 749.689 268.111C749.395 268.428 749.04 268.673 748.625 268.846C748.209 269.014 747.743 269.098 747.225 269.098C746.702 269.098 746.231 269.014 745.811 268.846C745.395 268.673 745.041 268.428 744.747 268.111C744.453 267.794 744.226 267.411 744.068 266.963C743.914 266.515 743.837 266.011 743.837 265.451C743.837 264.896 743.914 264.394 744.068 263.946C744.226 263.493 744.453 263.108 744.747 262.791C745.041 262.474 745.395 262.229 745.811 262.056C746.231 261.883 746.702 261.797 747.225 261.797ZM747.225 268.125C747.925 268.125 748.447 267.892 748.793 267.425C749.138 266.954 749.311 266.298 749.311 265.458C749.311 264.613 749.138 263.955 748.793 263.484C748.447 263.013 747.925 262.777 747.225 262.777C746.87 262.777 746.56 262.838 746.294 262.959C746.032 263.08 745.813 263.255 745.636 263.484C745.463 263.713 745.332 263.995 745.244 264.331C745.16 264.662 745.118 265.038 745.118 265.458C745.118 266.298 745.29 266.954 745.636 267.425C745.986 267.892 746.515 268.125 747.225 268.125ZM752.791 269V262.973L752.007 262.882C751.909 262.859 751.827 262.824 751.762 262.777C751.701 262.726 751.671 262.653 751.671 262.56V262.049H752.791V261.363C752.791 260.957 752.847 260.598 752.959 260.285C753.075 259.968 753.239 259.702 753.449 259.487C753.663 259.268 753.92 259.102 754.219 258.99C754.517 258.878 754.853 258.822 755.227 258.822C755.544 258.822 755.836 258.869 756.102 258.962L756.074 259.585C756.064 259.697 756.001 259.758 755.885 259.767C755.773 259.776 755.621 259.781 755.43 259.781C755.215 259.781 755.019 259.809 754.842 259.865C754.669 259.921 754.52 260.012 754.394 260.138C754.268 260.264 754.17 260.43 754.1 260.635C754.034 260.84 754.002 261.095 754.002 261.398V262.049H756.046V262.952H754.044V269H752.791ZM766.983 269H765.786C765.684 269 765.602 268.974 765.541 268.923C765.485 268.867 765.439 268.806 765.401 268.741L763.616 265.962C763.598 266.027 763.577 266.093 763.553 266.158C763.535 266.219 763.507 266.275 763.469 266.326L761.817 268.741C761.771 268.806 761.719 268.867 761.663 268.923C761.612 268.974 761.54 269 761.446 269H760.333L762.818 265.36L760.431 261.909H761.628C761.731 261.909 761.806 261.925 761.852 261.958C761.899 261.991 761.941 262.037 761.978 262.098L763.721 264.758C763.759 264.623 763.817 264.492 763.896 264.366L765.422 262.126C765.464 262.061 765.509 262.009 765.555 261.972C765.607 261.93 765.667 261.909 765.737 261.909H766.885L764.498 265.297L766.983 269Z" fill="black"/>
</svg>
