<svg width="1204" height="678" viewBox="0 0 1204 678" fill="none" xmlns="http://www.w3.org/2000/svg">
<rect width="1204" height="677.25" fill="white"/>
<mask id="mask0" mask-type="alpha" maskUnits="userSpaceOnUse" x="610" y="298" width="100" height="100">
<path d="M610 337.022C610 323.219 610 316.318 612.729 311.065C615.028 306.638 618.638 303.028 623.065 300.729C628.318 298 635.219 298 649.022 298H670.978C684.781 298 691.682 298 696.935 300.729C701.362 303.028 704.972 306.638 707.271 311.065C710 316.318 710 323.219 710 337.022V358.978C710 372.781 710 379.682 707.271 384.935C704.972 389.362 701.362 392.972 696.935 395.271C691.682 398 684.781 398 670.978 398H649.022C635.219 398 628.318 398 623.065 395.271C618.638 392.972 615.028 389.362 612.729 384.935C610 379.682 610 372.781 610 358.978V337.022Z" fill="#C4C4C4"/>
</mask>
<g mask="url(#mask0)">
<rect width="100" height="100" transform="translate(610 298)" fill="#F18D8D"/>
<rect x="610" y="298" width="100" height="100" fill="#41A5DD"/>
<rect x="592.422" y="377.98" width="135.156" height="20" fill="#4A82AD"/>
<path d="M645.566 355.33C648.133 355.33 650.215 353.254 650.215 350.693C650.215 348.133 648.133 346.057 645.566 346.057C642.998 346.057 640.917 348.133 640.917 350.693C640.917 353.254 642.998 355.33 645.566 355.33Z" fill="white"/>
<path fill-rule="evenodd" clip-rule="evenodd" d="M682.015 321.234C681.054 318.514 679.288 318.02 677.273 318.02H675.165C674.979 318.02 674.793 318.02 674.608 318.05H631.463C628.736 318.05 626.504 320.276 626.504 322.996V353.074C626.504 355.794 628.736 358.02 631.463 358.02H662.644V357.989H662.737C664.844 357.989 666.053 357.278 666.673 355.577L668.998 349.148H683.193L685.456 355.577C686.107 357.278 687.501 357.989 689.423 357.989C691.686 357.989 693.545 356.288 693.545 354.125C693.545 353.166 693.018 351.621 692.677 350.755L682.015 321.234ZM645.566 356.381C642.435 356.381 639.863 353.846 639.863 350.693C639.863 347.571 642.404 345.006 645.566 345.006C648.696 345.006 651.269 347.54 651.269 350.693C651.238 353.846 648.696 356.381 645.566 356.381ZM657.622 351.126H652.384C652.384 350.013 651.919 343.831 645.411 343.831C638.902 343.831 638.623 351.188 638.623 351.188H637.228C637.228 351.188 633.168 349.55 632.331 349.117C631.494 348.653 631.401 346.366 631.401 346.366V344.356H632.114V342.316C632.455 337.989 643.086 334.094 643.086 334.094C643.086 334.094 652.012 325.315 653.407 324.078C656.414 321.451 668.595 322.038 668.595 322.038L657.622 351.126ZM670.888 343.058L676.095 327.571H676.188L681.178 343.058H670.888Z" fill="white"/>
<path fill-rule="evenodd" clip-rule="evenodd" d="M639.305 339.318C638.933 339.225 637.569 339.225 636.98 339.194C636.794 339.194 636.608 339.256 636.484 339.38C636.205 339.596 635.771 340.029 635.368 340.554C634.903 341.172 634.562 341.945 634.345 342.44C634.19 342.842 634.624 342.873 634.624 342.873L635.647 343.089C635.771 343.12 635.895 343.089 635.988 342.996L639.398 340.029C639.367 340.029 639.862 339.441 639.305 339.318Z" fill="white"/>
<path fill-rule="evenodd" clip-rule="evenodd" d="M662.334 324.635C661.869 324.635 657.56 325.098 656.724 325.253C655.887 325.408 654.647 326.366 654.647 326.366L649.347 332.208V335.33L660.567 333.166C660.567 333.166 662.024 332.888 662.241 331.034C662.458 329.179 662.923 325.222 662.923 325.222C662.923 325.222 662.799 324.635 662.334 324.635Z" fill="white"/>
<path d="M636.893 388.236C637.182 388.236 637.434 388.201 637.649 388.131C637.864 388.057 638.041 387.953 638.182 387.82C638.327 387.684 638.434 387.52 638.504 387.328C638.575 387.133 638.61 386.916 638.61 386.678C638.61 386.451 638.575 386.246 638.504 386.063C638.434 385.879 638.328 385.723 638.188 385.594C638.047 385.465 637.869 385.367 637.655 385.301C637.44 385.23 637.186 385.195 636.893 385.195H635.715V388.236H636.893ZM636.893 383.977C637.459 383.977 637.95 384.043 638.364 384.176C638.778 384.309 639.119 384.494 639.389 384.732C639.659 384.971 639.858 385.256 639.987 385.588C640.119 385.92 640.186 386.283 640.186 386.678C640.186 387.088 640.118 387.465 639.981 387.809C639.844 388.148 639.639 388.441 639.366 388.688C639.092 388.934 638.748 389.125 638.334 389.262C637.924 389.398 637.444 389.467 636.893 389.467H635.715V392.449H634.139V383.977H636.893ZM645.471 389.25L644.44 386.432C644.389 386.307 644.337 386.158 644.282 385.986C644.227 385.814 644.173 385.629 644.118 385.43C644.067 385.629 644.014 385.816 643.96 385.992C643.905 386.164 643.852 386.314 643.801 386.443L642.776 389.25H645.471ZM648.255 392.449H647.036C646.899 392.449 646.788 392.416 646.702 392.35C646.616 392.279 646.551 392.193 646.508 392.092L645.876 390.363H642.366L641.733 392.092C641.702 392.182 641.641 392.264 641.551 392.338C641.462 392.412 641.35 392.449 641.217 392.449H639.987L643.321 383.977H644.926L648.255 392.449ZM651.887 388.008C652.184 388.008 652.442 387.971 652.661 387.896C652.883 387.822 653.065 387.721 653.206 387.592C653.35 387.459 653.458 387.303 653.528 387.123C653.598 386.943 653.633 386.746 653.633 386.531C653.633 386.102 653.491 385.771 653.206 385.541C652.924 385.311 652.493 385.195 651.911 385.195H650.903V388.008H651.887ZM655.942 392.449H654.518C654.249 392.449 654.053 392.344 653.932 392.133L652.151 389.42C652.085 389.318 652.01 389.246 651.928 389.203C651.85 389.16 651.733 389.139 651.577 389.139H650.903V392.449H649.327V383.977H651.911C652.485 383.977 652.977 384.037 653.387 384.158C653.801 384.275 654.139 384.441 654.401 384.656C654.667 384.871 654.862 385.129 654.987 385.43C655.112 385.727 655.174 386.055 655.174 386.414C655.174 386.699 655.132 386.969 655.046 387.223C654.964 387.477 654.842 387.707 654.682 387.914C654.526 388.121 654.331 388.303 654.096 388.459C653.866 388.615 653.602 388.738 653.305 388.828C653.407 388.887 653.501 388.957 653.587 389.039C653.673 389.117 653.751 389.211 653.821 389.32L655.942 392.449ZM662.753 385.271H660.198V392.449H658.622V385.271H656.067V383.977H662.753V385.271ZM671.199 383.977V392.449H670.391C670.266 392.449 670.16 392.43 670.074 392.391C669.992 392.348 669.912 392.277 669.834 392.18L665.41 386.531C665.434 386.789 665.446 387.027 665.446 387.246V392.449H664.057V383.977H664.883C664.949 383.977 665.006 383.98 665.053 383.988C665.104 383.992 665.147 384.004 665.182 384.023C665.221 384.039 665.258 384.064 665.293 384.1C665.328 384.131 665.367 384.174 665.41 384.229L669.852 389.9C669.84 389.764 669.83 389.629 669.823 389.496C669.815 389.363 669.811 389.24 669.811 389.127V383.977H671.199ZM674.864 385.23V387.58H677.828V388.793H674.864V391.189H678.625V392.449H673.282V383.977H678.625V385.23H674.864ZM682.778 388.008C683.075 388.008 683.333 387.971 683.551 387.896C683.774 387.822 683.956 387.721 684.096 387.592C684.241 387.459 684.348 387.303 684.419 387.123C684.489 386.943 684.524 386.746 684.524 386.531C684.524 386.102 684.382 385.771 684.096 385.541C683.815 385.311 683.384 385.195 682.801 385.195H681.794V388.008H682.778ZM686.833 392.449H685.409C685.139 392.449 684.944 392.344 684.823 392.133L683.042 389.42C682.975 389.318 682.901 389.246 682.819 389.203C682.741 389.16 682.624 389.139 682.467 389.139H681.794V392.449H680.217V383.977H682.801C683.376 383.977 683.868 384.037 684.278 384.158C684.692 384.275 685.03 384.441 685.292 384.656C685.557 384.871 685.753 385.129 685.878 385.43C686.003 385.727 686.065 386.055 686.065 386.414C686.065 386.699 686.022 386.969 685.936 387.223C685.854 387.477 685.733 387.707 685.573 387.914C685.417 388.121 685.221 388.303 684.987 388.459C684.757 388.615 684.493 388.738 684.196 388.828C684.298 388.887 684.391 388.957 684.477 389.039C684.563 389.117 684.641 389.211 684.712 389.32L686.833 392.449Z" fill="white"/>
</g>
<mask id="mask1" mask-type="alpha" maskUnits="userSpaceOnUse" x="450" y="298" width="100" height="100">
<path d="M450 344.046C450 327.759 450 319.615 453.22 313.416C455.933 308.193 460.193 303.933 465.416 301.22C471.615 298 479.759 298 496.046 298H503.954C520.241 298 528.385 298 534.584 301.22C539.807 303.933 544.067 308.193 546.78 313.416C550 319.615 550 327.759 550 344.046V351.954C550 368.241 550 376.385 546.78 382.584C544.067 387.807 539.807 392.067 534.584 394.78C528.385 398 520.241 398 503.954 398H496.046C479.759 398 471.615 398 465.416 394.78C460.193 392.067 455.933 387.807 453.22 382.584C450 376.385 450 368.241 450 351.954V344.046Z" fill="#C4C4C4"/>
</mask>
<g mask="url(#mask1)">
<rect width="100" height="100" transform="translate(450 298)" fill="#F18D8D"/>
<rect x="450" y="298" width="100" height="100" fill="#41A5DD"/>
<path d="M485.565 365.291C488.133 365.291 490.215 363.215 490.215 360.654C490.215 358.094 488.133 356.018 485.565 356.018C482.998 356.018 480.916 358.094 480.916 360.654C480.916 363.215 482.998 365.291 485.565 365.291Z" fill="white"/>
<path fill-rule="evenodd" clip-rule="evenodd" d="M522.015 331.195C521.054 328.475 519.288 327.98 517.273 327.98H515.165C514.979 327.98 514.793 327.98 514.608 328.011H471.463C468.736 328.011 466.504 330.237 466.504 332.957V363.035C466.504 365.755 468.736 367.98 471.463 367.98H502.644V367.95H502.737C504.844 367.95 506.053 367.239 506.673 365.538L508.998 359.109H523.193L525.456 365.538C526.107 367.239 527.501 367.95 529.423 367.95C531.686 367.95 533.545 366.249 533.545 364.086C533.545 363.127 533.018 361.582 532.677 360.716L522.015 331.195ZM485.566 366.342C482.435 366.342 479.863 363.807 479.863 360.654C479.863 357.532 482.404 354.967 485.566 354.967C488.696 354.967 491.269 357.501 491.269 360.654C491.238 363.807 488.696 366.342 485.566 366.342ZM497.622 361.087H492.384C492.384 359.974 491.919 353.792 485.411 353.792C478.902 353.792 478.623 361.149 478.623 361.149H477.228C477.228 361.149 473.168 359.511 472.331 359.078C471.494 358.614 471.401 356.327 471.401 356.327V354.317H472.114V352.277C472.455 347.95 483.086 344.055 483.086 344.055C483.086 344.055 492.012 335.276 493.407 334.039C496.414 331.412 508.595 331.999 508.595 331.999L497.622 361.087ZM510.888 353.019L516.095 337.532H516.188L521.178 353.019H510.888Z" fill="white"/>
<path fill-rule="evenodd" clip-rule="evenodd" d="M479.305 349.279C478.933 349.186 477.569 349.186 476.98 349.155C476.794 349.155 476.608 349.217 476.484 349.341C476.205 349.557 475.771 349.99 475.368 350.515C474.903 351.133 474.562 351.906 474.345 352.401C474.19 352.803 474.624 352.834 474.624 352.834L475.647 353.05C475.771 353.081 475.895 353.05 475.988 352.957L479.398 349.99C479.367 349.99 479.862 349.402 479.305 349.279Z" fill="white"/>
<path fill-rule="evenodd" clip-rule="evenodd" d="M502.334 334.596C501.869 334.596 497.56 335.059 496.724 335.214C495.887 335.369 494.647 336.327 494.647 336.327L489.347 342.169V345.291L500.567 343.127C500.567 343.127 502.024 342.849 502.241 340.994C502.458 339.14 502.923 335.183 502.923 335.183C502.923 335.183 502.799 334.596 502.334 334.596Z" fill="white"/>
</g>
<path d="M744.909 308.817C745.044 308.817 745.152 308.857 745.231 308.936C745.31 309.015 745.35 309.118 745.35 309.244V310H738.658V309.573C738.658 309.484 738.677 309.393 738.714 309.3C738.751 309.207 738.81 309.12 738.889 309.041L742.102 305.814C742.368 305.543 742.611 305.284 742.83 305.037C743.049 304.785 743.236 304.533 743.39 304.281C743.544 304.029 743.663 303.775 743.747 303.518C743.831 303.257 743.873 302.979 743.873 302.685C743.873 302.391 743.826 302.134 743.733 301.915C743.64 301.691 743.511 301.507 743.348 301.362C743.189 301.217 743 301.11 742.781 301.04C742.562 300.965 742.326 300.928 742.074 300.928C741.817 300.928 741.582 300.965 741.367 301.04C741.152 301.115 740.961 301.22 740.793 301.355C740.63 301.486 740.492 301.642 740.38 301.824C740.268 302.006 740.189 302.207 740.142 302.426C740.086 302.589 740.009 302.699 739.911 302.755C739.818 302.806 739.685 302.82 739.512 302.797L738.861 302.685C738.926 302.228 739.052 301.824 739.239 301.474C739.43 301.119 739.668 300.823 739.953 300.585C740.242 300.347 740.571 300.167 740.94 300.046C741.309 299.92 741.708 299.857 742.137 299.857C742.562 299.857 742.958 299.92 743.327 300.046C743.696 300.172 744.015 300.356 744.286 300.599C744.557 300.837 744.769 301.129 744.923 301.474C745.077 301.819 745.154 302.211 745.154 302.65C745.154 303.023 745.098 303.371 744.986 303.693C744.874 304.01 744.722 304.314 744.531 304.603C744.34 304.892 744.118 305.175 743.866 305.45C743.619 305.725 743.355 306.003 743.075 306.283L740.429 308.985C740.616 308.934 740.805 308.894 740.996 308.866C741.187 308.833 741.372 308.817 741.549 308.817H744.909ZM750.481 309.118C750.808 309.118 751.099 309.074 751.356 308.985C751.617 308.892 751.837 308.763 752.014 308.6C752.196 308.432 752.334 308.234 752.427 308.005C752.525 307.772 752.574 307.515 752.574 307.235C752.574 306.89 752.516 306.596 752.399 306.353C752.287 306.106 752.133 305.905 751.937 305.751C751.746 305.597 751.524 305.485 751.272 305.415C751.02 305.34 750.756 305.303 750.481 305.303C750.206 305.303 749.942 305.34 749.69 305.415C749.438 305.485 749.214 305.597 749.018 305.751C748.827 305.905 748.673 306.106 748.556 306.353C748.444 306.596 748.388 306.89 748.388 307.235C748.388 307.515 748.435 307.772 748.528 308.005C748.626 308.234 748.764 308.432 748.941 308.6C749.123 308.763 749.342 308.892 749.599 308.985C749.86 309.074 750.154 309.118 750.481 309.118ZM750.481 300.823C750.182 300.823 749.919 300.867 749.69 300.956C749.466 301.045 749.277 301.166 749.123 301.32C748.974 301.474 748.859 301.654 748.78 301.859C748.705 302.064 748.668 302.284 748.668 302.517C748.668 302.746 748.701 302.967 748.766 303.182C748.831 303.397 748.936 303.588 749.081 303.756C749.226 303.919 749.412 304.052 749.641 304.155C749.874 304.253 750.154 304.302 750.481 304.302C750.808 304.302 751.085 304.253 751.314 304.155C751.547 304.052 751.736 303.919 751.881 303.756C752.026 303.588 752.131 303.397 752.196 303.182C752.261 302.967 752.294 302.746 752.294 302.517C752.294 302.284 752.254 302.064 752.175 301.859C752.1 301.654 751.986 301.474 751.832 301.32C751.683 301.166 751.494 301.045 751.265 300.956C751.041 300.867 750.78 300.823 750.481 300.823ZM751.916 304.771C752.541 304.948 753.022 305.245 753.358 305.66C753.694 306.075 753.862 306.607 753.862 307.256C753.862 307.695 753.778 308.091 753.61 308.446C753.447 308.796 753.216 309.095 752.917 309.342C752.623 309.589 752.268 309.781 751.853 309.916C751.438 310.047 750.98 310.112 750.481 310.112C749.982 310.112 749.524 310.047 749.109 309.916C748.694 309.781 748.337 309.589 748.038 309.342C747.739 309.095 747.508 308.796 747.345 308.446C747.182 308.091 747.1 307.695 747.1 307.256C747.1 306.607 747.268 306.075 747.604 305.66C747.94 305.245 748.421 304.948 749.046 304.771C748.519 304.575 748.12 304.283 747.849 303.896C747.583 303.504 747.45 303.037 747.45 302.496C747.45 302.127 747.522 301.782 747.667 301.46C747.812 301.138 748.017 300.858 748.283 300.62C748.549 300.382 748.866 300.195 749.235 300.06C749.608 299.925 750.024 299.857 750.481 299.857C750.934 299.857 751.347 299.925 751.72 300.06C752.093 300.195 752.413 300.382 752.679 300.62C752.945 300.858 753.15 301.138 753.295 301.46C753.44 301.782 753.512 302.127 753.512 302.496C753.512 303.037 753.377 303.504 753.106 303.896C752.84 304.283 752.443 304.575 751.916 304.771ZM759.896 302.391C759.896 302.783 759.836 303.135 759.714 303.448C759.593 303.756 759.43 304.017 759.224 304.232C759.024 304.442 758.788 304.603 758.517 304.715C758.251 304.827 757.969 304.883 757.67 304.883C757.358 304.883 757.066 304.827 756.795 304.715C756.525 304.603 756.289 304.442 756.088 304.232C755.892 304.017 755.738 303.756 755.626 303.448C755.514 303.135 755.458 302.783 755.458 302.391C755.458 301.99 755.514 301.633 755.626 301.32C755.738 301.007 755.892 300.744 756.088 300.529C756.289 300.314 756.525 300.151 756.795 300.039C757.066 299.927 757.358 299.871 757.67 299.871C757.988 299.871 758.282 299.927 758.552 300.039C758.823 300.151 759.059 300.314 759.259 300.529C759.46 300.744 759.616 301.007 759.728 301.32C759.84 301.633 759.896 301.99 759.896 302.391ZM758.93 302.391C758.93 302.083 758.898 301.822 758.832 301.607C758.767 301.392 758.676 301.217 758.559 301.082C758.447 300.942 758.314 300.842 758.16 300.781C758.006 300.72 757.843 300.69 757.67 300.69C757.498 300.69 757.337 300.72 757.187 300.781C757.038 300.842 756.907 300.942 756.795 301.082C756.683 301.217 756.595 301.392 756.529 301.607C756.464 301.822 756.431 302.083 756.431 302.391C756.431 302.694 756.464 302.953 756.529 303.168C756.595 303.378 756.683 303.551 756.795 303.686C756.907 303.817 757.038 303.912 757.187 303.973C757.337 304.029 757.498 304.057 757.67 304.057C757.843 304.057 758.006 304.029 758.16 303.973C758.314 303.912 758.447 303.817 758.559 303.686C758.676 303.551 758.767 303.378 758.832 303.168C758.898 302.953 758.93 302.694 758.93 302.391ZM763.445 300.179C763.492 300.123 763.546 300.074 763.606 300.032C763.672 299.99 763.758 299.969 763.865 299.969H764.768L757.432 309.797C757.39 309.858 757.337 309.907 757.271 309.944C757.206 309.981 757.127 310 757.033 310H756.116L763.445 300.179ZM765.447 307.634C765.447 308.026 765.387 308.376 765.265 308.684C765.144 308.992 764.981 309.253 764.775 309.468C764.575 309.678 764.339 309.839 764.068 309.951C763.802 310.063 763.52 310.119 763.221 310.119C762.904 310.119 762.61 310.063 762.339 309.951C762.073 309.839 761.84 309.678 761.639 309.468C761.443 309.253 761.289 308.992 761.177 308.684C761.065 308.376 761.009 308.026 761.009 307.634C761.009 307.233 761.065 306.876 761.177 306.563C761.289 306.246 761.443 305.98 761.639 305.765C761.84 305.55 762.073 305.387 762.339 305.275C762.61 305.163 762.904 305.107 763.221 305.107C763.534 305.107 763.826 305.163 764.096 305.275C764.372 305.387 764.607 305.55 764.803 305.765C765.004 305.98 765.16 306.246 765.272 306.563C765.389 306.876 765.447 307.233 765.447 307.634ZM764.481 307.634C764.481 307.326 764.449 307.065 764.383 306.85C764.318 306.631 764.227 306.453 764.11 306.318C763.998 306.183 763.865 306.085 763.711 306.024C763.557 305.963 763.394 305.933 763.221 305.933C763.049 305.933 762.885 305.963 762.731 306.024C762.582 306.085 762.451 306.183 762.339 306.318C762.227 306.453 762.139 306.631 762.073 306.85C762.013 307.065 761.982 307.326 761.982 307.634C761.982 307.937 762.013 308.194 762.073 308.404C762.139 308.614 762.227 308.787 762.339 308.922C762.451 309.053 762.582 309.148 762.731 309.209C762.885 309.265 763.049 309.293 763.221 309.293C763.394 309.293 763.557 309.265 763.711 309.209C763.865 309.148 763.998 309.053 764.11 308.922C764.227 308.787 764.318 308.614 764.383 308.404C764.449 308.194 764.481 307.937 764.481 307.634ZM774.225 302.797C774.743 302.797 775.209 302.883 775.625 303.056C776.04 303.229 776.395 303.474 776.689 303.791C776.983 304.108 777.207 304.493 777.361 304.946C777.519 305.394 777.599 305.896 777.599 306.451C777.599 307.011 777.519 307.515 777.361 307.963C777.207 308.411 776.983 308.794 776.689 309.111C776.395 309.428 776.04 309.673 775.625 309.846C775.209 310.014 774.743 310.098 774.225 310.098C773.702 310.098 773.231 310.014 772.811 309.846C772.395 309.673 772.041 309.428 771.747 309.111C771.453 308.794 771.226 308.411 771.068 307.963C770.914 307.515 770.837 307.011 770.837 306.451C770.837 305.896 770.914 305.394 771.068 304.946C771.226 304.493 771.453 304.108 771.747 303.791C772.041 303.474 772.395 303.229 772.811 303.056C773.231 302.883 773.702 302.797 774.225 302.797ZM774.225 309.125C774.925 309.125 775.447 308.892 775.793 308.425C776.138 307.954 776.311 307.298 776.311 306.458C776.311 305.613 776.138 304.955 775.793 304.484C775.447 304.013 774.925 303.777 774.225 303.777C773.87 303.777 773.56 303.838 773.294 303.959C773.032 304.08 772.813 304.255 772.636 304.484C772.463 304.713 772.332 304.995 772.244 305.331C772.16 305.662 772.118 306.038 772.118 306.458C772.118 307.298 772.29 307.954 772.636 308.425C772.986 308.892 773.515 309.125 774.225 309.125ZM779.791 310V303.973L779.007 303.882C778.909 303.859 778.827 303.824 778.762 303.777C778.701 303.726 778.671 303.653 778.671 303.56V303.049H779.791V302.363C779.791 301.957 779.847 301.598 779.959 301.285C780.075 300.968 780.239 300.702 780.449 300.487C780.663 300.268 780.92 300.102 781.219 299.99C781.517 299.878 781.853 299.822 782.227 299.822C782.544 299.822 782.836 299.869 783.102 299.962L783.074 300.585C783.064 300.697 783.001 300.758 782.885 300.767C782.773 300.776 782.621 300.781 782.43 300.781C782.215 300.781 782.019 300.809 781.842 300.865C781.669 300.921 781.52 301.012 781.394 301.138C781.268 301.264 781.17 301.43 781.1 301.635C781.034 301.84 781.002 302.095 781.002 302.398V303.049H783.046V303.952H781.044V310H779.791ZM793.983 310H792.786C792.684 310 792.602 309.974 792.541 309.923C792.485 309.867 792.439 309.806 792.401 309.741L790.616 306.962C790.598 307.027 790.577 307.093 790.553 307.158C790.535 307.219 790.507 307.275 790.469 307.326L788.817 309.741C788.771 309.806 788.719 309.867 788.663 309.923C788.612 309.974 788.54 310 788.446 310H787.333L789.818 306.36L787.431 302.909H788.628C788.731 302.909 788.806 302.925 788.852 302.958C788.899 302.991 788.941 303.037 788.978 303.098L790.721 305.758C790.759 305.623 790.817 305.492 790.896 305.366L792.422 303.126C792.464 303.061 792.509 303.009 792.555 302.972C792.607 302.93 792.667 302.909 792.737 302.909H793.885L791.498 306.297L793.983 310Z" fill="black"/>
<circle cx="703.5" cy="304.5" r="24" stroke="black"/>
<line x1="440" y1="398.5" x2="426" y2="398.5" stroke="black"/>
<line x1="440" y1="298.5" x2="426" y2="298.5" stroke="black"/>
<line x1="426.5" y1="298" x2="426.5" y2="398" stroke="black"/>
<path d="M415.811 354H414.614C414.511 354 414.43 353.974 414.369 353.923C414.313 353.867 414.266 353.806 414.229 353.741L412.444 350.962C412.425 351.027 412.404 351.093 412.381 351.158C412.362 351.219 412.334 351.275 412.297 351.326L410.645 353.741C410.598 353.806 410.547 353.867 410.491 353.923C410.44 353.974 410.367 354 410.274 354H409.161L411.646 350.36L409.259 346.909H410.456C410.559 346.909 410.633 346.925 410.68 346.958C410.727 346.991 410.769 347.037 410.806 347.098L412.549 349.758C412.586 349.623 412.645 349.492 412.724 349.366L414.25 347.126C414.292 347.061 414.336 347.009 414.383 346.972C414.434 346.93 414.495 346.909 414.565 346.909H415.713L413.326 350.297L415.811 354Z" fill="black"/>
</svg>
