<svg width="1204" height="678" viewBox="0 0 1204 678" fill="none" xmlns="http://www.w3.org/2000/svg">
<rect width="1204" height="677.25" fill="white"/>
<mask id="mask0" mask-type="alpha" maskUnits="userSpaceOnUse" x="670" y="309" width="60" height="60">
<path d="M670 332.413C670 324.131 670 319.991 671.637 316.839C673.017 314.183 675.183 312.017 677.839 310.637C680.991 309 685.131 309 693.413 309H706.587C714.869 309 719.009 309 722.161 310.637C724.817 312.017 726.983 314.183 728.363 316.839C730 319.991 730 324.131 730 332.413V345.587C730 353.869 730 358.009 728.363 361.161C726.983 363.817 724.817 365.983 722.161 367.363C719.009 369 714.869 369 706.587 369H693.413C685.131 369 680.991 369 677.839 367.363C675.183 365.983 673.017 363.817 671.637 361.161C670 358.009 670 353.869 670 345.587V332.413Z" fill="#C4C4C4"/>
</mask>
<g mask="url(#mask0)">
<rect width="60" height="60" transform="translate(670 309)" fill="#F18D8D"/>
<rect x="670" y="309" width="60" height="60" fill="#41A5DD"/>
<rect x="659.453" y="356.988" width="81.0938" height="12" fill="#4A82AD"/>
<path d="M691.339 343.398C692.88 343.398 694.129 342.153 694.129 340.616C694.129 339.08 692.88 337.834 691.339 337.834C689.799 337.834 688.55 339.08 688.55 340.616C688.55 342.153 689.799 343.398 691.339 343.398Z" fill="white"/>
<path fill-rule="evenodd" clip-rule="evenodd" d="M713.209 322.941C712.633 321.308 711.573 321.012 710.364 321.012H709.099C708.988 321.012 708.876 321.012 708.765 321.03H682.878C681.241 321.03 679.902 322.366 679.902 323.998V342.044C679.902 343.676 681.241 345.012 682.878 345.012H701.586V344.993H701.642C702.907 344.993 703.632 344.567 704.004 343.546L705.399 339.689H713.916L715.273 343.546C715.664 344.567 716.501 344.993 717.654 344.993C719.011 344.993 720.127 343.973 720.127 342.675C720.127 342.1 719.811 341.172 719.606 340.653L713.209 322.941ZM691.339 344.029C689.461 344.029 687.918 342.508 687.918 340.616C687.918 338.743 689.442 337.203 691.339 337.203C693.218 337.203 694.761 338.724 694.761 340.616C694.743 342.508 693.218 344.029 691.339 344.029ZM698.573 340.876H695.431C695.431 340.208 695.152 336.499 691.246 336.499C687.341 336.499 687.174 340.913 687.174 340.913H686.337C686.337 340.913 683.901 339.93 683.399 339.67C682.896 339.392 682.841 338.019 682.841 338.019V336.814H683.268V335.59C683.473 332.993 689.852 330.656 689.852 330.656C689.852 330.656 695.207 325.389 696.044 324.647C697.848 323.07 705.157 323.423 705.157 323.423L698.573 340.876ZM706.533 336.035L709.657 326.743H709.713L712.707 336.035H706.533Z" fill="white"/>
<path fill-rule="evenodd" clip-rule="evenodd" d="M687.583 333.791C687.36 333.735 686.541 333.735 686.188 333.717C686.076 333.717 685.965 333.754 685.89 333.828C685.723 333.958 685.463 334.217 685.221 334.533C684.942 334.904 684.737 335.367 684.607 335.664C684.514 335.905 684.775 335.924 684.775 335.924L685.388 336.053C685.463 336.072 685.537 336.053 685.593 335.998L687.638 334.217C687.62 334.217 687.917 333.865 687.583 333.791Z" fill="white"/>
<path fill-rule="evenodd" clip-rule="evenodd" d="M701.4 324.981C701.121 324.981 698.536 325.259 698.034 325.352C697.532 325.445 696.788 326.02 696.788 326.02L693.608 329.525V331.398L700.34 330.1C700.34 330.1 701.214 329.933 701.344 328.82C701.475 327.707 701.754 325.333 701.754 325.333C701.754 325.333 701.679 324.981 701.4 324.981Z" fill="white"/>
<path d="M686.136 362.742C686.309 362.742 686.46 362.721 686.589 362.679C686.718 362.634 686.825 362.572 686.909 362.492C686.996 362.41 687.06 362.312 687.103 362.197C687.145 362.08 687.166 361.95 687.166 361.807C687.166 361.671 687.145 361.548 687.103 361.438C687.06 361.327 686.997 361.234 686.913 361.156C686.828 361.079 686.722 361.02 686.593 360.98C686.464 360.938 686.312 360.917 686.136 360.917H685.429V362.742H686.136ZM686.136 360.186C686.476 360.186 686.77 360.226 687.018 360.305C687.267 360.385 687.472 360.496 687.633 360.639C687.795 360.782 687.915 360.954 687.992 361.153C688.072 361.352 688.112 361.57 688.112 361.807C688.112 362.053 688.071 362.279 687.988 362.485C687.906 362.689 687.783 362.865 687.619 363.013C687.455 363.16 687.249 363.275 687.001 363.357C686.755 363.439 686.466 363.48 686.136 363.48H685.429V365.27H684.483V360.186H686.136ZM691.283 363.35L690.664 361.659C690.634 361.584 690.602 361.495 690.569 361.392C690.536 361.289 690.504 361.177 690.471 361.058C690.44 361.177 690.409 361.29 690.376 361.395C690.343 361.498 690.311 361.589 690.281 361.666L689.666 363.35H691.283ZM692.953 365.27H692.221C692.139 365.27 692.073 365.25 692.021 365.21C691.97 365.168 691.931 365.116 691.905 365.055L691.525 364.018H689.42L689.04 365.055C689.021 365.109 688.985 365.158 688.931 365.203C688.877 365.247 688.81 365.27 688.73 365.27H687.992L689.993 360.186H690.956L692.953 365.27ZM695.132 362.605C695.311 362.605 695.465 362.582 695.596 362.538C695.73 362.493 695.839 362.432 695.923 362.355C696.01 362.275 696.075 362.182 696.117 362.074C696.159 361.966 696.18 361.848 696.18 361.719C696.18 361.461 696.095 361.263 695.923 361.125C695.755 360.986 695.496 360.917 695.146 360.917H694.542V362.605H695.132ZM697.565 365.27H696.711C696.549 365.27 696.432 365.206 696.359 365.08L695.291 363.452C695.251 363.391 695.206 363.348 695.157 363.322C695.11 363.296 695.04 363.283 694.946 363.283H694.542V365.27H693.596V360.186H695.146C695.491 360.186 695.786 360.222 696.032 360.295C696.281 360.365 696.484 360.465 696.641 360.594C696.8 360.723 696.917 360.877 696.992 361.058C697.067 361.236 697.105 361.433 697.105 361.648C697.105 361.82 697.079 361.981 697.027 362.134C696.978 362.286 696.905 362.424 696.809 362.548C696.716 362.673 696.598 362.782 696.458 362.875C696.32 362.969 696.161 363.043 695.983 363.097C696.044 363.132 696.1 363.174 696.152 363.223C696.204 363.27 696.25 363.327 696.293 363.392L697.565 365.27ZM701.652 360.963H700.119V365.27H699.173V360.963H697.64V360.186H701.652V360.963ZM706.72 360.186V365.27H706.235C706.16 365.27 706.096 365.258 706.045 365.234C705.995 365.209 705.947 365.166 705.901 365.108L703.246 361.719C703.26 361.873 703.267 362.016 703.267 362.148V365.27H702.434V360.186H702.93C702.97 360.186 703.004 360.188 703.032 360.193C703.062 360.195 703.088 360.202 703.109 360.214C703.133 360.223 703.155 360.239 703.176 360.26C703.197 360.279 703.22 360.304 703.246 360.337L705.911 363.74C705.904 363.658 705.898 363.577 705.894 363.498C705.889 363.418 705.886 363.344 705.886 363.276V360.186H706.72ZM708.918 360.938V362.348H710.697V363.076H708.918V364.514H711.175V365.27H707.969V360.186H711.175V360.938H708.918ZM713.667 362.605C713.845 362.605 714 362.582 714.131 362.538C714.264 362.493 714.373 362.432 714.458 362.355C714.545 362.275 714.609 362.182 714.651 362.074C714.693 361.966 714.714 361.848 714.714 361.719C714.714 361.461 714.629 361.263 714.458 361.125C714.289 360.986 714.03 360.917 713.681 360.917H713.076V362.605H713.667ZM716.1 365.27H715.245C715.084 365.27 714.966 365.206 714.894 365.08L713.825 363.452C713.785 363.391 713.741 363.348 713.691 363.322C713.645 363.296 713.574 363.283 713.48 363.283H713.076V365.27H712.13V360.186H713.681C714.025 360.186 714.321 360.222 714.567 360.295C714.815 360.365 715.018 360.465 715.175 360.594C715.334 360.723 715.452 360.877 715.527 361.058C715.602 361.236 715.639 361.433 715.639 361.648C715.639 361.82 715.613 361.981 715.562 362.134C715.513 362.286 715.44 362.424 715.344 362.548C715.25 362.673 715.133 362.782 714.992 362.875C714.854 362.969 714.696 363.043 714.518 363.097C714.579 363.132 714.635 363.174 714.686 363.223C714.738 363.27 714.785 363.327 714.827 363.392L716.1 365.27Z" fill="white"/>
</g>
<mask id="mask1" mask-type="alpha" maskUnits="userSpaceOnUse" x="550" y="309" width="60" height="60">
<rect x="550" y="309" width="60" height="60" rx="16.8" fill="#C4C4C4"/>
</mask>
<g mask="url(#mask1)">
<rect width="60" height="60" transform="translate(550 309)" fill="#F18D8D"/>
<rect x="550" y="309" width="60" height="60" fill="#41A5DD"/>
<path d="M571.339 349.375C572.88 349.375 574.129 348.129 574.129 346.593C574.129 345.056 572.88 343.811 571.339 343.811C569.799 343.811 568.55 345.056 568.55 346.593C568.55 348.129 569.799 349.375 571.339 349.375Z" fill="white"/>
<path fill-rule="evenodd" clip-rule="evenodd" d="M593.209 328.917C592.633 327.285 591.573 326.988 590.364 326.988H589.099C588.988 326.988 588.876 326.988 588.765 327.007H562.878C561.241 327.007 559.902 328.342 559.902 329.974V348.021C559.902 349.653 561.241 350.988 562.878 350.988H581.586V350.97H581.642C582.907 350.97 583.632 350.543 584.004 349.523L585.399 345.665H593.916L595.273 349.523C595.664 350.543 596.501 350.97 597.654 350.97C599.011 350.97 600.127 349.95 600.127 348.651C600.127 348.076 599.811 347.149 599.606 346.63L593.209 328.917ZM571.339 350.005C569.461 350.005 567.918 348.484 567.918 346.593C567.918 344.719 569.442 343.18 571.339 343.18C573.218 343.18 574.761 344.701 574.761 346.593C574.743 348.484 573.218 350.005 571.339 350.005ZM578.573 346.852H575.431C575.431 346.185 575.152 342.475 571.246 342.475C567.341 342.475 567.174 346.889 567.174 346.889H566.337C566.337 346.889 563.901 345.906 563.399 345.647C562.896 345.368 562.841 343.996 562.841 343.996V342.79H563.268V341.566C563.473 338.97 569.852 336.633 569.852 336.633C569.852 336.633 575.207 331.365 576.044 330.624C577.848 329.047 585.157 329.399 585.157 329.399L578.573 346.852ZM586.533 342.011L589.657 332.719H589.713L592.707 342.011H586.533Z" fill="white"/>
<path fill-rule="evenodd" clip-rule="evenodd" d="M567.583 339.767C567.36 339.712 566.542 339.712 566.188 339.693C566.077 339.693 565.965 339.73 565.891 339.804C565.723 339.934 565.463 340.194 565.221 340.509C564.942 340.88 564.738 341.344 564.607 341.641C564.514 341.882 564.775 341.9 564.775 341.9L565.389 342.03C565.463 342.049 565.537 342.03 565.593 341.974L567.639 340.194C567.62 340.194 567.918 339.841 567.583 339.767Z" fill="white"/>
<path fill-rule="evenodd" clip-rule="evenodd" d="M581.4 330.957C581.121 330.957 578.536 331.235 578.034 331.328C577.532 331.421 576.788 331.996 576.788 331.996L573.608 335.501V337.375L580.34 336.076C580.34 336.076 581.214 335.909 581.344 334.797C581.475 333.684 581.754 331.31 581.754 331.31C581.754 331.31 581.679 330.957 581.4 330.957Z" fill="white"/>
</g>
<line x1="540" y1="369.5" x2="526" y2="369.5" stroke="black"/>
<line x1="540" y1="309.5" x2="526" y2="309.5" stroke="black"/>
<line x1="526.5" y1="309" x2="526.5" y2="369" stroke="black"/>
<path d="M479.046 343.076C479.382 343.076 479.685 343.022 479.956 342.915C480.231 342.808 480.465 342.658 480.656 342.467C480.852 342.276 481.001 342.049 481.104 341.788C481.211 341.527 481.265 341.242 481.265 340.934C481.265 340.607 481.214 340.313 481.111 340.052C481.008 339.786 480.861 339.562 480.67 339.38C480.483 339.193 480.259 339.051 479.998 338.953C479.737 338.855 479.45 338.806 479.137 338.806C478.801 338.806 478.498 338.864 478.227 338.981C477.956 339.093 477.725 339.247 477.534 339.443C477.347 339.634 477.203 339.858 477.1 340.115C477.002 340.367 476.953 340.631 476.953 340.906C476.953 341.228 477 341.522 477.093 341.788C477.186 342.054 477.322 342.283 477.499 342.474C477.681 342.665 477.9 342.815 478.157 342.922C478.418 343.025 478.715 343.076 479.046 343.076ZM478.318 337.728C478.229 337.84 478.143 337.95 478.059 338.057C477.98 338.16 477.903 338.262 477.828 338.365C478.066 338.202 478.327 338.076 478.612 337.987C478.897 337.898 479.207 337.854 479.543 337.854C479.949 337.854 480.332 337.922 480.691 338.057C481.05 338.188 481.363 338.381 481.629 338.638C481.9 338.89 482.114 339.203 482.273 339.576C482.432 339.945 482.511 340.367 482.511 340.843C482.511 341.305 482.427 341.734 482.259 342.131C482.091 342.528 481.855 342.873 481.552 343.167C481.253 343.461 480.892 343.692 480.467 343.86C480.047 344.028 479.583 344.112 479.074 344.112C478.57 344.112 478.113 344.033 477.702 343.874C477.291 343.711 476.941 343.482 476.652 343.188C476.367 342.889 476.146 342.53 475.987 342.11C475.833 341.685 475.756 341.212 475.756 340.689C475.756 340.25 475.852 339.784 476.043 339.289C476.239 338.79 476.549 338.258 476.974 337.693L479.522 334.27C479.587 334.186 479.676 334.116 479.788 334.06C479.905 333.999 480.038 333.969 480.187 333.969H481.293L478.318 337.728ZM491.121 338.988C491.121 339.865 491.025 340.626 490.834 341.27C490.647 341.909 490.391 342.439 490.064 342.859C489.737 343.279 489.35 343.592 488.902 343.797C488.459 344.002 487.983 344.105 487.474 344.105C486.961 344.105 486.482 344.002 486.039 343.797C485.6 343.592 485.218 343.279 484.891 342.859C484.564 342.439 484.308 341.909 484.121 341.27C483.934 340.626 483.841 339.865 483.841 338.988C483.841 338.111 483.934 337.35 484.121 336.706C484.308 336.062 484.564 335.53 484.891 335.11C485.218 334.685 485.6 334.37 486.039 334.165C486.482 333.96 486.961 333.857 487.474 333.857C487.983 333.857 488.459 333.96 488.902 334.165C489.35 334.37 489.737 334.685 490.064 335.11C490.391 335.53 490.647 336.062 490.834 336.706C491.025 337.35 491.121 338.111 491.121 338.988ZM489.826 338.988C489.826 338.223 489.761 337.581 489.63 337.063C489.504 336.54 489.331 336.12 489.112 335.803C488.897 335.486 488.648 335.259 488.363 335.124C488.078 334.984 487.782 334.914 487.474 334.914C487.166 334.914 486.87 334.984 486.585 335.124C486.3 335.259 486.051 335.486 485.836 335.803C485.621 336.12 485.449 336.54 485.318 337.063C485.192 337.581 485.129 338.223 485.129 338.988C485.129 339.753 485.192 340.395 485.318 340.913C485.449 341.431 485.621 341.849 485.836 342.166C486.051 342.483 486.3 342.712 486.585 342.852C486.87 342.987 487.166 343.055 487.474 343.055C487.782 343.055 488.078 342.987 488.363 342.852C488.648 342.712 488.897 342.483 489.112 342.166C489.331 341.849 489.504 341.431 489.63 340.913C489.761 340.395 489.826 339.753 489.826 338.988ZM494.082 342.292C494.311 342.6 494.561 342.817 494.831 342.943C495.102 343.069 495.405 343.132 495.741 343.132C496.404 343.132 496.913 342.896 497.267 342.425C497.622 341.954 497.799 341.282 497.799 340.409C497.799 339.947 497.757 339.55 497.673 339.219C497.594 338.888 497.477 338.617 497.323 338.407C497.169 338.192 496.98 338.036 496.756 337.938C496.532 337.84 496.278 337.791 495.993 337.791C495.587 337.791 495.23 337.884 494.922 338.071C494.619 338.258 494.339 338.521 494.082 338.862V342.292ZM494.019 338.008C494.318 337.639 494.663 337.343 495.055 337.119C495.447 336.895 495.895 336.783 496.399 336.783C496.81 336.783 497.181 336.862 497.512 337.021C497.844 337.175 498.126 337.406 498.359 337.714C498.593 338.017 498.772 338.395 498.898 338.848C499.024 339.301 499.087 339.821 499.087 340.409C499.087 340.932 499.017 341.419 498.877 341.872C498.737 342.32 498.534 342.71 498.268 343.041C498.007 343.368 497.685 343.627 497.302 343.818C496.924 344.005 496.497 344.098 496.021 344.098C495.587 344.098 495.214 344.026 494.901 343.881C494.593 343.732 494.32 343.526 494.082 343.265V346.401H492.829V336.909H493.578C493.756 336.909 493.865 336.995 493.907 337.168L494.019 338.008ZM506.527 344H505.33C505.228 344 505.146 343.974 505.085 343.923C505.029 343.867 504.983 343.806 504.945 343.741L503.16 340.962C503.142 341.027 503.121 341.093 503.097 341.158C503.079 341.219 503.051 341.275 503.013 341.326L501.361 343.741C501.315 343.806 501.263 343.867 501.207 343.923C501.156 343.974 501.084 344 500.99 344H499.877L502.362 340.36L499.975 336.909H501.172C501.275 336.909 501.35 336.925 501.396 336.958C501.443 336.991 501.485 337.037 501.522 337.098L503.265 339.758C503.303 339.623 503.361 339.492 503.44 339.366L504.966 337.126C505.008 337.061 505.053 337.009 505.099 336.972C505.151 336.93 505.211 336.909 505.281 336.909H506.429L504.042 340.297L506.527 344Z" fill="black"/>
</svg>
