<svg width="1204" height="678" viewBox="0 0 1204 678" fill="none" xmlns="http://www.w3.org/2000/svg">
<rect width="1204" height="677.25" fill="white"/>
<line x1="992" y1="279.5" x2="1006" y2="279.5" stroke="black"/>
<line x1="992" y1="397.5" x2="1006" y2="397.5" stroke="black"/>
<line x1="1005.5" y1="398" x2="1005.5" y2="280" stroke="black"/>
<path d="M1023.11 337.909L1019.15 347.093C1019.11 347.186 1019.05 347.261 1018.99 347.317C1018.93 347.373 1018.83 347.401 1018.7 347.401H1017.78L1019.07 344.587L1016.15 337.909H1017.23C1017.33 337.909 1017.42 337.937 1017.48 337.993C1017.54 338.044 1017.59 338.103 1017.61 338.168L1019.51 342.634C1019.58 342.83 1019.64 343.035 1019.7 343.25C1019.76 343.031 1019.83 342.823 1019.91 342.627L1021.75 338.168C1021.78 338.093 1021.82 338.033 1021.89 337.986C1021.96 337.935 1022.03 337.909 1022.12 337.909H1023.11Z" fill="black"/>
<path d="M783.981 383.916C783.981 384.233 784.025 384.518 784.114 384.77C784.207 385.017 784.338 385.227 784.506 385.4C784.679 385.573 784.886 385.703 785.129 385.792C785.376 385.881 785.652 385.925 785.955 385.925C786.291 385.925 786.587 385.871 786.844 385.764C787.105 385.652 787.325 385.505 787.502 385.323C787.679 385.141 787.815 384.931 787.908 384.693C788.001 384.455 788.048 384.208 788.048 383.951C788.048 383.638 787.997 383.356 787.894 383.104C787.796 382.847 787.658 382.63 787.481 382.453C787.304 382.276 787.091 382.14 786.844 382.047C786.601 381.949 786.333 381.9 786.039 381.9C785.731 381.9 785.451 381.951 785.199 382.054C784.947 382.152 784.73 382.29 784.548 382.467C784.366 382.644 784.226 382.857 784.128 383.104C784.03 383.351 783.981 383.622 783.981 383.916ZM786.893 387.003C786.996 386.868 787.091 386.739 787.18 386.618C787.269 386.497 787.353 386.375 787.432 386.254C787.175 386.459 786.886 386.616 786.564 386.723C786.242 386.83 785.901 386.884 785.542 386.884C785.164 386.884 784.805 386.821 784.464 386.695C784.128 386.569 783.832 386.385 783.575 386.142C783.318 385.895 783.113 385.594 782.959 385.239C782.81 384.88 782.735 384.469 782.735 384.007C782.735 383.568 782.817 383.158 782.98 382.775C783.143 382.392 783.372 382.059 783.666 381.774C783.96 381.489 784.31 381.265 784.716 381.102C785.122 380.939 785.568 380.857 786.053 380.857C786.534 380.857 786.97 380.936 787.362 381.095C787.754 381.254 788.09 381.475 788.37 381.76C788.65 382.045 788.865 382.385 789.014 382.782C789.168 383.179 789.245 383.617 789.245 384.098C789.245 384.387 789.217 384.663 789.161 384.924C789.11 385.181 789.033 385.435 788.93 385.687C788.832 385.934 788.711 386.182 788.566 386.429C788.421 386.672 788.258 386.921 788.076 387.178L785.633 390.706C785.572 390.795 785.486 390.867 785.374 390.923C785.262 390.974 785.134 391 784.989 391H783.841L786.893 387.003ZM795.475 383.391C795.475 383.783 795.414 384.135 795.293 384.448C795.172 384.756 795.008 385.017 794.803 385.232C794.602 385.442 794.367 385.603 794.096 385.715C793.83 385.827 793.548 385.883 793.249 385.883C792.936 385.883 792.645 385.827 792.374 385.715C792.103 385.603 791.868 385.442 791.667 385.232C791.471 385.017 791.317 384.756 791.205 384.448C791.093 384.135 791.037 383.783 791.037 383.391C791.037 382.99 791.093 382.633 791.205 382.32C791.317 382.007 791.471 381.744 791.667 381.529C791.868 381.314 792.103 381.151 792.374 381.039C792.645 380.927 792.936 380.871 793.249 380.871C793.566 380.871 793.86 380.927 794.131 381.039C794.402 381.151 794.637 381.314 794.838 381.529C795.039 381.744 795.195 382.007 795.307 382.32C795.419 382.633 795.475 382.99 795.475 383.391ZM794.509 383.391C794.509 383.083 794.476 382.822 794.411 382.607C794.346 382.392 794.255 382.217 794.138 382.082C794.026 381.942 793.893 381.842 793.739 381.781C793.585 381.72 793.422 381.69 793.249 381.69C793.076 381.69 792.915 381.72 792.766 381.781C792.617 381.842 792.486 381.942 792.374 382.082C792.262 382.217 792.173 382.392 792.108 382.607C792.043 382.822 792.01 383.083 792.01 383.391C792.01 383.694 792.043 383.953 792.108 384.168C792.173 384.378 792.262 384.551 792.374 384.686C792.486 384.817 792.617 384.912 792.766 384.973C792.915 385.029 793.076 385.057 793.249 385.057C793.422 385.057 793.585 385.029 793.739 384.973C793.893 384.912 794.026 384.817 794.138 384.686C794.255 384.551 794.346 384.378 794.411 384.168C794.476 383.953 794.509 383.694 794.509 383.391ZM799.024 381.179C799.071 381.123 799.124 381.074 799.185 381.032C799.25 380.99 799.337 380.969 799.444 380.969H800.347L793.011 390.797C792.969 390.858 792.915 390.907 792.85 390.944C792.785 390.981 792.705 391 792.612 391H791.695L799.024 381.179ZM801.026 388.634C801.026 389.026 800.965 389.376 800.844 389.684C800.723 389.992 800.559 390.253 800.354 390.468C800.153 390.678 799.918 390.839 799.647 390.951C799.381 391.063 799.099 391.119 798.8 391.119C798.483 391.119 798.189 391.063 797.918 390.951C797.652 390.839 797.419 390.678 797.218 390.468C797.022 390.253 796.868 389.992 796.756 389.684C796.644 389.376 796.588 389.026 796.588 388.634C796.588 388.233 796.644 387.876 796.756 387.563C796.868 387.246 797.022 386.98 797.218 386.765C797.419 386.55 797.652 386.387 797.918 386.275C798.189 386.163 798.483 386.107 798.8 386.107C799.113 386.107 799.404 386.163 799.675 386.275C799.95 386.387 800.186 386.55 800.382 386.765C800.583 386.98 800.739 387.246 800.851 387.563C800.968 387.876 801.026 388.233 801.026 388.634ZM800.06 388.634C800.06 388.326 800.027 388.065 799.962 387.85C799.897 387.631 799.806 387.453 799.689 387.318C799.577 387.183 799.444 387.085 799.29 387.024C799.136 386.963 798.973 386.933 798.8 386.933C798.627 386.933 798.464 386.963 798.31 387.024C798.161 387.085 798.03 387.183 797.918 387.318C797.806 387.453 797.717 387.631 797.652 387.85C797.591 388.065 797.561 388.326 797.561 388.634C797.561 388.937 797.591 389.194 797.652 389.404C797.717 389.614 797.806 389.787 797.918 389.922C798.03 390.053 798.161 390.148 798.31 390.209C798.464 390.265 798.627 390.293 798.8 390.293C798.973 390.293 799.136 390.265 799.29 390.209C799.444 390.148 799.577 390.053 799.689 389.922C799.806 389.787 799.897 389.614 799.962 389.404C800.027 389.194 800.06 388.937 800.06 388.634ZM809.804 383.797C810.322 383.797 810.788 383.883 811.204 384.056C811.619 384.229 811.974 384.474 812.268 384.791C812.562 385.108 812.786 385.493 812.94 385.946C813.098 386.394 813.178 386.896 813.178 387.451C813.178 388.011 813.098 388.515 812.94 388.963C812.786 389.411 812.562 389.794 812.268 390.111C811.974 390.428 811.619 390.673 811.204 390.846C810.788 391.014 810.322 391.098 809.804 391.098C809.281 391.098 808.81 391.014 808.39 390.846C807.974 390.673 807.62 390.428 807.326 390.111C807.032 389.794 806.805 389.411 806.647 388.963C806.493 388.515 806.416 388.011 806.416 387.451C806.416 386.896 806.493 386.394 806.647 385.946C806.805 385.493 807.032 385.108 807.326 384.791C807.62 384.474 807.974 384.229 808.39 384.056C808.81 383.883 809.281 383.797 809.804 383.797ZM809.804 390.125C810.504 390.125 811.026 389.892 811.372 389.425C811.717 388.954 811.89 388.298 811.89 387.458C811.89 386.613 811.717 385.955 811.372 385.484C811.026 385.013 810.504 384.777 809.804 384.777C809.449 384.777 809.139 384.838 808.873 384.959C808.611 385.08 808.392 385.255 808.215 385.484C808.042 385.713 807.911 385.995 807.823 386.331C807.739 386.662 807.697 387.038 807.697 387.458C807.697 388.298 807.869 388.954 808.215 389.425C808.565 389.892 809.094 390.125 809.804 390.125ZM815.37 391V384.973L814.586 384.882C814.488 384.859 814.406 384.824 814.341 384.777C814.28 384.726 814.25 384.653 814.25 384.56V384.049H815.37V383.363C815.37 382.957 815.426 382.598 815.538 382.285C815.654 381.968 815.818 381.702 816.028 381.487C816.242 381.268 816.499 381.102 816.798 380.99C817.096 380.878 817.432 380.822 817.806 380.822C818.123 380.822 818.415 380.869 818.681 380.962L818.653 381.585C818.643 381.697 818.58 381.758 818.464 381.767C818.352 381.776 818.2 381.781 818.009 381.781C817.794 381.781 817.598 381.809 817.421 381.865C817.248 381.921 817.099 382.012 816.973 382.138C816.847 382.264 816.749 382.43 816.679 382.635C816.613 382.84 816.581 383.095 816.581 383.398V384.049H818.625V384.952H816.623V391H815.37ZM829.501 383.909L825.546 393.093C825.504 393.186 825.45 393.261 825.385 393.317C825.324 393.373 825.228 393.401 825.098 393.401H824.174L825.469 390.587L822.543 383.909H823.621C823.728 383.909 823.812 383.937 823.873 383.993C823.938 384.044 823.982 384.103 824.006 384.168L825.903 388.634C825.977 388.83 826.04 389.035 826.092 389.25C826.157 389.031 826.227 388.823 826.302 388.627L828.143 384.168C828.171 384.093 828.217 384.033 828.283 383.986C828.353 383.935 828.43 383.909 828.514 383.909H829.501Z" fill="black"/>
<mask id="mask0" mask-type="alpha" maskUnits="userSpaceOnUse" x="864" y="280" width="118" height="118">
<path d="M864 326.046C864 309.759 864 301.615 867.22 295.416C869.933 290.193 874.193 285.933 879.416 283.22C885.615 280 893.759 280 910.046 280H935.954C952.241 280 960.385 280 966.584 283.22C971.807 285.933 976.067 290.193 978.78 295.416C982 301.615 982 309.759 982 326.046V351.954C982 368.241 982 376.385 978.78 382.584C976.067 387.807 971.807 392.067 966.584 394.78C960.385 398 952.241 398 935.954 398H910.046C893.759 398 885.615 398 879.416 394.78C874.193 392.067 869.933 387.807 867.22 382.584C864 376.385 864 368.241 864 351.954V326.046Z" fill="#C4C4C4"/>
</mask>
<g mask="url(#mask0)">
<rect width="118" height="118" transform="translate(864 280)" fill="#F18D8D"/>
<rect x="864" y="280" width="118" height="118" fill="#41A5DD"/>
<rect x="843.258" y="374.377" width="159.484" height="23.6" fill="#4A82AD"/>
<path d="M905.967 347.65C908.997 347.65 911.453 345.2 911.453 342.178C911.453 339.156 908.997 336.707 905.967 336.707C902.938 336.707 900.481 339.156 900.481 342.178C900.481 345.2 902.938 347.65 905.967 347.65Z" fill="white"/>
<path fill-rule="evenodd" clip-rule="evenodd" d="M948.978 307.417C947.844 304.207 945.76 303.623 943.382 303.623H940.895C940.676 303.623 940.456 303.623 940.237 303.66H889.326C886.108 303.66 883.475 306.286 883.475 309.496V344.987C883.475 348.197 886.108 350.823 889.326 350.823H926.119V350.787H926.229C928.716 350.787 930.143 349.948 930.874 347.941L933.617 340.354H950.368L953.038 347.941C953.806 349.948 955.452 350.787 957.719 350.787C960.389 350.787 962.583 348.78 962.583 346.227C962.583 345.096 961.962 343.273 961.559 342.251L948.978 307.417ZM905.967 348.89C902.273 348.89 899.238 345.899 899.238 342.178C899.238 338.494 902.237 335.467 905.967 335.467C909.661 335.467 912.697 338.458 912.697 342.178C912.66 345.899 909.661 348.89 905.967 348.89ZM920.195 342.689H914.014C914.014 341.376 913.465 334.081 905.785 334.081C898.104 334.081 897.775 342.762 897.775 342.762H896.129C896.129 342.762 891.338 340.829 890.35 340.318C889.363 339.771 889.253 337.072 889.253 337.072V334.701H890.094V332.293C890.497 327.187 903.042 322.591 903.042 322.591C903.042 322.591 913.575 312.231 915.221 310.772C918.768 307.672 933.142 308.365 933.142 308.365L920.195 342.689ZM935.848 333.169L941.992 314.894H942.102L947.99 333.169H935.848Z" fill="white"/>
<path fill-rule="evenodd" clip-rule="evenodd" d="M898.579 328.755C898.141 328.646 896.531 328.646 895.836 328.609C895.617 328.609 895.398 328.682 895.251 328.828C894.922 329.083 894.41 329.594 893.935 330.214C893.386 330.944 892.984 331.855 892.728 332.439C892.545 332.913 893.057 332.95 893.057 332.95L894.264 333.205C894.41 333.242 894.556 333.205 894.666 333.096L898.689 329.594C898.653 329.594 899.238 328.901 898.579 328.755Z" fill="white"/>
<path fill-rule="evenodd" clip-rule="evenodd" d="M925.754 311.429C925.205 311.429 920.121 311.976 919.134 312.158C918.146 312.341 916.684 313.472 916.684 313.472L910.429 320.366V324.05L923.669 321.496C923.669 321.496 925.388 321.168 925.644 318.979C925.9 316.791 926.449 312.122 926.449 312.122C926.449 312.122 926.302 311.429 925.754 311.429Z" fill="white"/>
<path d="M895.734 386.859C896.075 386.859 896.372 386.817 896.626 386.734C896.879 386.647 897.089 386.525 897.255 386.368C897.425 386.207 897.552 386.013 897.635 385.787C897.718 385.557 897.759 385.301 897.759 385.02C897.759 384.752 897.718 384.51 897.635 384.294C897.552 384.077 897.428 383.893 897.262 383.741C897.096 383.589 896.886 383.473 896.632 383.395C896.379 383.312 896.079 383.27 895.734 383.27H894.344V386.859H895.734ZM895.734 381.832C896.402 381.832 896.98 381.911 897.469 382.067C897.958 382.224 898.361 382.443 898.679 382.724C898.997 383.005 899.232 383.342 899.384 383.734C899.541 384.126 899.619 384.554 899.619 385.02C899.619 385.504 899.539 385.949 899.377 386.354C899.216 386.755 898.974 387.101 898.651 387.391C898.329 387.682 897.923 387.907 897.434 388.069C896.951 388.23 896.384 388.311 895.734 388.311H894.344V391.83H892.484V381.832H895.734ZM905.856 388.055L904.639 384.729C904.579 384.582 904.517 384.407 904.453 384.204C904.388 384.001 904.324 383.782 904.259 383.547C904.199 383.782 904.137 384.003 904.072 384.211C904.008 384.414 903.946 384.591 903.886 384.743L902.676 388.055H905.856ZM909.14 391.83H907.702C907.541 391.83 907.41 391.791 907.308 391.713C907.207 391.63 907.131 391.528 907.08 391.408L906.333 389.369H902.192L901.445 391.408C901.408 391.514 901.337 391.611 901.231 391.699C901.125 391.786 900.993 391.83 900.837 391.83H899.385L903.319 381.832H905.213L909.14 391.83ZM913.427 386.589C913.777 386.589 914.082 386.545 914.34 386.458C914.603 386.37 914.817 386.25 914.983 386.098C915.153 385.942 915.28 385.757 915.363 385.545C915.446 385.333 915.488 385.1 915.488 384.847C915.488 384.34 915.319 383.95 914.983 383.678C914.651 383.406 914.142 383.27 913.455 383.27H912.266V386.589H913.427ZM918.212 391.83H916.532C916.213 391.83 915.983 391.706 915.84 391.457L913.738 388.256C913.66 388.136 913.572 388.05 913.476 388C913.383 387.949 913.245 387.924 913.061 387.924H912.266V391.83H910.406V381.832H913.455C914.132 381.832 914.713 381.904 915.197 382.047C915.686 382.185 916.084 382.381 916.393 382.634C916.707 382.888 916.937 383.192 917.085 383.547C917.232 383.897 917.306 384.285 917.306 384.709C917.306 385.045 917.255 385.363 917.154 385.663C917.057 385.962 916.914 386.234 916.725 386.479C916.541 386.723 916.31 386.937 916.034 387.122C915.762 387.306 915.451 387.451 915.1 387.557C915.22 387.626 915.331 387.709 915.432 387.806C915.534 387.898 915.626 388.009 915.709 388.138L918.212 391.83ZM926.248 383.36H923.234V391.83H921.374V383.36H918.359V381.832H926.248V383.36ZM936.215 381.832V391.83H935.261C935.114 391.83 934.989 391.807 934.888 391.761C934.791 391.71 934.697 391.627 934.604 391.512L929.384 384.847C929.412 385.151 929.426 385.432 929.426 385.69V391.83H927.787V381.832H928.762C928.84 381.832 928.907 381.837 928.963 381.846C929.022 381.851 929.073 381.865 929.115 381.888C929.161 381.906 929.205 381.936 929.246 381.978C929.288 382.014 929.334 382.065 929.384 382.13L934.625 388.822C934.611 388.661 934.6 388.502 934.591 388.345C934.581 388.189 934.577 388.043 934.577 387.91V381.832H936.215ZM940.539 383.312V386.084H944.038V387.516H940.539V390.344H944.978V391.83H938.672V381.832H944.978V383.312H940.539ZM949.878 386.589C950.228 386.589 950.533 386.545 950.791 386.458C951.053 386.37 951.268 386.25 951.434 386.098C951.604 385.942 951.731 385.757 951.814 385.545C951.897 385.333 951.938 385.1 951.938 384.847C951.938 384.34 951.77 383.95 951.434 383.678C951.102 383.406 950.593 383.27 949.906 383.27H948.717V386.589H949.878ZM954.663 391.83H952.983C952.664 391.83 952.434 391.706 952.291 391.457L950.189 388.256C950.111 388.136 950.023 388.05 949.926 388C949.834 387.949 949.696 387.924 949.512 387.924H948.717V391.83H946.857V381.832H949.906C950.583 381.832 951.164 381.904 951.648 382.047C952.137 382.185 952.535 382.381 952.844 382.634C953.158 382.888 953.388 383.192 953.536 383.547C953.683 383.897 953.757 384.285 953.757 384.709C953.757 385.045 953.706 385.363 953.605 385.663C953.508 385.962 953.365 386.234 953.176 386.479C952.992 386.723 952.761 386.937 952.485 387.122C952.213 387.306 951.902 387.451 951.551 387.557C951.671 387.626 951.782 387.709 951.883 387.806C951.985 387.898 952.077 388.009 952.16 388.138L954.663 391.83Z" fill="white"/>
</g>
<line x1="854" y1="391.5" x2="840" y2="391.5" stroke="black"/>
<line x1="854" y1="382.5" x2="840" y2="382.5" stroke="black"/>
<line x1="840.5" y1="382" x2="840.5" y2="391" stroke="black"/>
<line x1="260" y1="398" x2="246" y2="398" stroke="black"/>
<line x1="260" y1="374.5" x2="246" y2="374.5" stroke="black"/>
<line x1="246.5" y1="374" x2="246.5" y2="397.5" stroke="black"/>
<line x1="398" y1="279.5" x2="412" y2="279.5" stroke="black"/>
<line x1="398" y1="397.5" x2="412" y2="397.5" stroke="black"/>
<line x1="411.5" y1="398" x2="411.5" y2="280" stroke="black"/>
<path d="M428.811 345H427.614C427.511 345 427.43 344.974 427.369 344.923C427.313 344.867 427.266 344.806 427.229 344.741L425.444 341.962C425.425 342.027 425.404 342.093 425.381 342.158C425.362 342.219 425.334 342.275 425.297 342.326L423.645 344.741C423.598 344.806 423.547 344.867 423.491 344.923C423.44 344.974 423.367 345 423.274 345H422.161L424.646 341.36L422.259 337.909H423.456C423.559 337.909 423.633 337.925 423.68 337.958C423.727 337.991 423.769 338.037 423.806 338.098L425.549 340.758C425.586 340.623 425.645 340.492 425.724 340.366L427.25 338.126C427.292 338.061 427.336 338.009 427.383 337.972C427.434 337.93 427.495 337.909 427.565 337.909H428.713L426.326 341.297L428.811 345Z" fill="black"/>
<path d="M179.909 389.817C180.044 389.817 180.152 389.857 180.231 389.936C180.31 390.015 180.35 390.118 180.35 390.244V391H173.658V390.573C173.658 390.484 173.677 390.393 173.714 390.3C173.751 390.207 173.81 390.12 173.889 390.041L177.102 386.814C177.368 386.543 177.611 386.284 177.83 386.037C178.049 385.785 178.236 385.533 178.39 385.281C178.544 385.029 178.663 384.775 178.747 384.518C178.831 384.257 178.873 383.979 178.873 383.685C178.873 383.391 178.826 383.134 178.733 382.915C178.64 382.691 178.511 382.507 178.348 382.362C178.189 382.217 178 382.11 177.781 382.04C177.562 381.965 177.326 381.928 177.074 381.928C176.817 381.928 176.582 381.965 176.367 382.04C176.152 382.115 175.961 382.22 175.793 382.355C175.63 382.486 175.492 382.642 175.38 382.824C175.268 383.006 175.189 383.207 175.142 383.426C175.086 383.589 175.009 383.699 174.911 383.755C174.818 383.806 174.685 383.82 174.512 383.797L173.861 383.685C173.926 383.228 174.052 382.824 174.239 382.474C174.43 382.119 174.668 381.823 174.953 381.585C175.242 381.347 175.571 381.167 175.94 381.046C176.309 380.92 176.708 380.857 177.137 380.857C177.562 380.857 177.958 380.92 178.327 381.046C178.696 381.172 179.015 381.356 179.286 381.599C179.557 381.837 179.769 382.129 179.923 382.474C180.077 382.819 180.154 383.211 180.154 383.65C180.154 384.023 180.098 384.371 179.986 384.693C179.874 385.01 179.722 385.314 179.531 385.603C179.34 385.892 179.118 386.175 178.866 386.45C178.619 386.725 178.355 387.003 178.075 387.283L175.429 389.985C175.616 389.934 175.805 389.894 175.996 389.866C176.187 389.833 176.372 389.817 176.549 389.817H179.909ZM189.121 385.988C189.121 386.865 189.025 387.626 188.834 388.27C188.647 388.909 188.391 389.439 188.064 389.859C187.737 390.279 187.35 390.592 186.902 390.797C186.459 391.002 185.983 391.105 185.474 391.105C184.961 391.105 184.482 391.002 184.039 390.797C183.6 390.592 183.218 390.279 182.891 389.859C182.564 389.439 182.308 388.909 182.121 388.27C181.934 387.626 181.841 386.865 181.841 385.988C181.841 385.111 181.934 384.35 182.121 383.706C182.308 383.062 182.564 382.53 182.891 382.11C183.218 381.685 183.6 381.37 184.039 381.165C184.482 380.96 184.961 380.857 185.474 380.857C185.983 380.857 186.459 380.96 186.902 381.165C187.35 381.37 187.737 381.685 188.064 382.11C188.391 382.53 188.647 383.062 188.834 383.706C189.025 384.35 189.121 385.111 189.121 385.988ZM187.826 385.988C187.826 385.223 187.761 384.581 187.63 384.063C187.504 383.54 187.331 383.12 187.112 382.803C186.897 382.486 186.648 382.259 186.363 382.124C186.078 381.984 185.782 381.914 185.474 381.914C185.166 381.914 184.87 381.984 184.585 382.124C184.3 382.259 184.051 382.486 183.836 382.803C183.621 383.12 183.449 383.54 183.318 384.063C183.192 384.581 183.129 385.223 183.129 385.988C183.129 386.753 183.192 387.395 183.318 387.913C183.449 388.431 183.621 388.849 183.836 389.166C184.051 389.483 184.3 389.712 184.585 389.852C184.87 389.987 185.166 390.055 185.474 390.055C185.782 390.055 186.078 389.987 186.363 389.852C186.648 389.712 186.897 389.483 187.112 389.166C187.331 388.849 187.504 388.431 187.63 387.913C187.761 387.395 187.826 386.753 187.826 385.988ZM194.896 383.391C194.896 383.783 194.836 384.135 194.714 384.448C194.593 384.756 194.43 385.017 194.224 385.232C194.024 385.442 193.788 385.603 193.517 385.715C193.251 385.827 192.969 385.883 192.67 385.883C192.358 385.883 192.066 385.827 191.795 385.715C191.525 385.603 191.289 385.442 191.088 385.232C190.892 385.017 190.738 384.756 190.626 384.448C190.514 384.135 190.458 383.783 190.458 383.391C190.458 382.99 190.514 382.633 190.626 382.32C190.738 382.007 190.892 381.744 191.088 381.529C191.289 381.314 191.525 381.151 191.795 381.039C192.066 380.927 192.358 380.871 192.67 380.871C192.988 380.871 193.282 380.927 193.552 381.039C193.823 381.151 194.059 381.314 194.259 381.529C194.46 381.744 194.616 382.007 194.728 382.32C194.84 382.633 194.896 382.99 194.896 383.391ZM193.93 383.391C193.93 383.083 193.898 382.822 193.832 382.607C193.767 382.392 193.676 382.217 193.559 382.082C193.447 381.942 193.314 381.842 193.16 381.781C193.006 381.72 192.843 381.69 192.67 381.69C192.498 381.69 192.337 381.72 192.187 381.781C192.038 381.842 191.907 381.942 191.795 382.082C191.683 382.217 191.595 382.392 191.529 382.607C191.464 382.822 191.431 383.083 191.431 383.391C191.431 383.694 191.464 383.953 191.529 384.168C191.595 384.378 191.683 384.551 191.795 384.686C191.907 384.817 192.038 384.912 192.187 384.973C192.337 385.029 192.498 385.057 192.67 385.057C192.843 385.057 193.006 385.029 193.16 384.973C193.314 384.912 193.447 384.817 193.559 384.686C193.676 384.551 193.767 384.378 193.832 384.168C193.898 383.953 193.93 383.694 193.93 383.391ZM198.445 381.179C198.492 381.123 198.546 381.074 198.606 381.032C198.672 380.99 198.758 380.969 198.865 380.969H199.768L192.432 390.797C192.39 390.858 192.337 390.907 192.271 390.944C192.206 390.981 192.127 391 192.033 391H191.116L198.445 381.179ZM200.447 388.634C200.447 389.026 200.387 389.376 200.265 389.684C200.144 389.992 199.981 390.253 199.775 390.468C199.575 390.678 199.339 390.839 199.068 390.951C198.802 391.063 198.52 391.119 198.221 391.119C197.904 391.119 197.61 391.063 197.339 390.951C197.073 390.839 196.84 390.678 196.639 390.468C196.443 390.253 196.289 389.992 196.177 389.684C196.065 389.376 196.009 389.026 196.009 388.634C196.009 388.233 196.065 387.876 196.177 387.563C196.289 387.246 196.443 386.98 196.639 386.765C196.84 386.55 197.073 386.387 197.339 386.275C197.61 386.163 197.904 386.107 198.221 386.107C198.534 386.107 198.826 386.163 199.096 386.275C199.372 386.387 199.607 386.55 199.803 386.765C200.004 386.98 200.16 387.246 200.272 387.563C200.389 387.876 200.447 388.233 200.447 388.634ZM199.481 388.634C199.481 388.326 199.449 388.065 199.383 387.85C199.318 387.631 199.227 387.453 199.11 387.318C198.998 387.183 198.865 387.085 198.711 387.024C198.557 386.963 198.394 386.933 198.221 386.933C198.049 386.933 197.885 386.963 197.731 387.024C197.582 387.085 197.451 387.183 197.339 387.318C197.227 387.453 197.139 387.631 197.073 387.85C197.013 388.065 196.982 388.326 196.982 388.634C196.982 388.937 197.013 389.194 197.073 389.404C197.139 389.614 197.227 389.787 197.339 389.922C197.451 390.053 197.582 390.148 197.731 390.209C197.885 390.265 198.049 390.293 198.221 390.293C198.394 390.293 198.557 390.265 198.711 390.209C198.865 390.148 198.998 390.053 199.11 389.922C199.227 389.787 199.318 389.614 199.383 389.404C199.449 389.194 199.481 388.937 199.481 388.634ZM209.225 383.797C209.743 383.797 210.209 383.883 210.625 384.056C211.04 384.229 211.395 384.474 211.689 384.791C211.983 385.108 212.207 385.493 212.361 385.946C212.519 386.394 212.599 386.896 212.599 387.451C212.599 388.011 212.519 388.515 212.361 388.963C212.207 389.411 211.983 389.794 211.689 390.111C211.395 390.428 211.04 390.673 210.625 390.846C210.209 391.014 209.743 391.098 209.225 391.098C208.702 391.098 208.231 391.014 207.811 390.846C207.395 390.673 207.041 390.428 206.747 390.111C206.453 389.794 206.226 389.411 206.068 388.963C205.914 388.515 205.837 388.011 205.837 387.451C205.837 386.896 205.914 386.394 206.068 385.946C206.226 385.493 206.453 385.108 206.747 384.791C207.041 384.474 207.395 384.229 207.811 384.056C208.231 383.883 208.702 383.797 209.225 383.797ZM209.225 390.125C209.925 390.125 210.447 389.892 210.793 389.425C211.138 388.954 211.311 388.298 211.311 387.458C211.311 386.613 211.138 385.955 210.793 385.484C210.447 385.013 209.925 384.777 209.225 384.777C208.87 384.777 208.56 384.838 208.294 384.959C208.032 385.08 207.813 385.255 207.636 385.484C207.463 385.713 207.332 385.995 207.244 386.331C207.16 386.662 207.118 387.038 207.118 387.458C207.118 388.298 207.29 388.954 207.636 389.425C207.986 389.892 208.515 390.125 209.225 390.125ZM214.791 391V384.973L214.007 384.882C213.909 384.859 213.827 384.824 213.762 384.777C213.701 384.726 213.671 384.653 213.671 384.56V384.049H214.791V383.363C214.791 382.957 214.847 382.598 214.959 382.285C215.075 381.968 215.239 381.702 215.449 381.487C215.663 381.268 215.92 381.102 216.219 380.99C216.517 380.878 216.853 380.822 217.227 380.822C217.544 380.822 217.836 380.869 218.102 380.962L218.074 381.585C218.064 381.697 218.001 381.758 217.885 381.767C217.773 381.776 217.621 381.781 217.43 381.781C217.215 381.781 217.019 381.809 216.842 381.865C216.669 381.921 216.52 382.012 216.394 382.138C216.268 382.264 216.17 382.43 216.1 382.635C216.034 382.84 216.002 383.095 216.002 383.398V384.049H218.046V384.952H216.044V391H214.791ZM228.983 391H227.786C227.684 391 227.602 390.974 227.541 390.923C227.485 390.867 227.439 390.806 227.401 390.741L225.616 387.962C225.598 388.027 225.577 388.093 225.553 388.158C225.535 388.219 225.507 388.275 225.469 388.326L223.817 390.741C223.771 390.806 223.719 390.867 223.663 390.923C223.612 390.974 223.54 391 223.446 391H222.333L224.818 387.36L222.431 383.909H223.628C223.731 383.909 223.806 383.925 223.852 383.958C223.899 383.991 223.941 384.037 223.978 384.098L225.721 386.758C225.759 386.623 225.817 386.492 225.896 386.366L227.422 384.126C227.464 384.061 227.509 384.009 227.555 383.972C227.607 383.93 227.667 383.909 227.737 383.909H228.885L226.498 387.297L228.983 391Z" fill="black"/>
<mask id="mask1" mask-type="alpha" maskUnits="userSpaceOnUse" x="270" y="280" width="118" height="118">
<path d="M270 326.046C270 309.759 270 301.615 273.22 295.416C275.933 290.193 280.193 285.933 285.416 283.22C291.615 280 299.759 280 316.046 280H341.954C358.241 280 366.385 280 372.584 283.22C377.807 285.933 382.067 290.193 384.78 295.416C388 301.615 388 309.759 388 326.046V351.954C388 368.241 388 376.385 384.78 382.584C382.067 387.807 377.807 392.067 372.584 394.78C366.385 398 358.241 398 341.954 398H316.046C299.759 398 291.615 398 285.416 394.78C280.193 392.067 275.933 387.807 273.22 382.584C270 376.385 270 368.241 270 351.954V326.046Z" fill="#C4C4C4"/>
</mask>
<g mask="url(#mask1)">
<rect width="118" height="118" transform="translate(270 280)" fill="#F18D8D"/>
<rect x="270" y="280" width="118" height="118" fill="#41A5DD"/>
<rect x="249.258" y="374.377" width="159.484" height="23.6" fill="#4A82AD"/>
<path d="M311.967 347.65C314.997 347.65 317.453 345.2 317.453 342.178C317.453 339.156 314.997 336.707 311.967 336.707C308.938 336.707 306.481 339.156 306.481 342.178C306.481 345.2 308.938 347.65 311.967 347.65Z" fill="white"/>
<path fill-rule="evenodd" clip-rule="evenodd" d="M354.978 307.417C353.844 304.207 351.76 303.623 349.382 303.623H346.895C346.676 303.623 346.456 303.623 346.237 303.66H295.326C292.108 303.66 289.475 306.286 289.475 309.496V344.987C289.475 348.197 292.108 350.823 295.326 350.823H332.119V350.787H332.229C334.716 350.787 336.143 349.948 336.874 347.941L339.617 340.354H356.368L359.038 347.941C359.806 349.948 361.452 350.787 363.719 350.787C366.389 350.787 368.583 348.78 368.583 346.227C368.583 345.096 367.962 343.273 367.559 342.251L354.978 307.417ZM311.967 348.89C308.273 348.89 305.238 345.899 305.238 342.178C305.238 338.494 308.237 335.467 311.967 335.467C315.661 335.467 318.697 338.458 318.697 342.178C318.66 345.899 315.661 348.89 311.967 348.89ZM326.195 342.689H320.014C320.014 341.376 319.465 334.081 311.785 334.081C304.104 334.081 303.775 342.762 303.775 342.762H302.129C302.129 342.762 297.338 340.829 296.35 340.318C295.363 339.771 295.253 337.072 295.253 337.072V334.701H296.094V332.293C296.497 327.187 309.042 322.591 309.042 322.591C309.042 322.591 319.575 312.231 321.221 310.772C324.768 307.672 339.142 308.365 339.142 308.365L326.195 342.689ZM341.848 333.169L347.992 314.894H348.102L353.99 333.169H341.848Z" fill="white"/>
<path fill-rule="evenodd" clip-rule="evenodd" d="M304.579 328.755C304.141 328.646 302.531 328.646 301.836 328.609C301.617 328.609 301.398 328.682 301.251 328.828C300.922 329.083 300.41 329.594 299.935 330.214C299.386 330.944 298.984 331.855 298.728 332.439C298.545 332.913 299.057 332.95 299.057 332.95L300.264 333.205C300.41 333.242 300.556 333.205 300.666 333.096L304.689 329.594C304.653 329.594 305.238 328.901 304.579 328.755Z" fill="white"/>
<path fill-rule="evenodd" clip-rule="evenodd" d="M331.754 311.429C331.205 311.429 326.121 311.976 325.134 312.158C324.146 312.341 322.684 313.472 322.684 313.472L316.429 320.366V324.05L329.669 321.496C329.669 321.496 331.388 321.168 331.644 318.979C331.9 316.791 332.449 312.122 332.449 312.122C332.449 312.122 332.302 311.429 331.754 311.429Z" fill="white"/>
<path d="M301.734 386.859C302.075 386.859 302.372 386.817 302.626 386.734C302.879 386.647 303.089 386.525 303.255 386.368C303.425 386.207 303.552 386.013 303.635 385.787C303.718 385.557 303.759 385.301 303.759 385.02C303.759 384.752 303.718 384.51 303.635 384.294C303.552 384.077 303.428 383.893 303.262 383.741C303.096 383.589 302.886 383.473 302.632 383.395C302.379 383.312 302.079 383.27 301.734 383.27H300.344V386.859H301.734ZM301.734 381.832C302.402 381.832 302.98 381.911 303.469 382.067C303.958 382.224 304.361 382.443 304.679 382.724C304.997 383.005 305.232 383.342 305.384 383.734C305.541 384.126 305.619 384.554 305.619 385.02C305.619 385.504 305.539 385.949 305.377 386.354C305.216 386.755 304.974 387.101 304.651 387.391C304.329 387.682 303.923 387.907 303.434 388.069C302.951 388.23 302.384 388.311 301.734 388.311H300.344V391.83H298.484V381.832H301.734ZM311.856 388.055L310.639 384.729C310.579 384.582 310.517 384.407 310.453 384.204C310.388 384.001 310.324 383.782 310.259 383.547C310.199 383.782 310.137 384.003 310.072 384.211C310.008 384.414 309.946 384.591 309.886 384.743L308.676 388.055H311.856ZM315.14 391.83H313.702C313.541 391.83 313.41 391.791 313.308 391.713C313.207 391.63 313.131 391.528 313.08 391.408L312.333 389.369H308.192L307.445 391.408C307.408 391.514 307.337 391.611 307.231 391.699C307.125 391.786 306.993 391.83 306.837 391.83H305.385L309.319 381.832H311.213L315.14 391.83ZM319.427 386.589C319.777 386.589 320.082 386.545 320.34 386.458C320.603 386.37 320.817 386.25 320.983 386.098C321.153 385.942 321.28 385.757 321.363 385.545C321.446 385.333 321.488 385.1 321.488 384.847C321.488 384.34 321.319 383.95 320.983 383.678C320.651 383.406 320.142 383.27 319.455 383.27H318.266V386.589H319.427ZM324.212 391.83H322.532C322.213 391.83 321.983 391.706 321.84 391.457L319.738 388.256C319.66 388.136 319.572 388.05 319.476 388C319.383 387.949 319.245 387.924 319.061 387.924H318.266V391.83H316.406V381.832H319.455C320.132 381.832 320.713 381.904 321.197 382.047C321.686 382.185 322.084 382.381 322.393 382.634C322.707 382.888 322.937 383.192 323.085 383.547C323.232 383.897 323.306 384.285 323.306 384.709C323.306 385.045 323.255 385.363 323.154 385.663C323.057 385.962 322.914 386.234 322.725 386.479C322.541 386.723 322.31 386.937 322.034 387.122C321.762 387.306 321.451 387.451 321.1 387.557C321.22 387.626 321.331 387.709 321.432 387.806C321.534 387.898 321.626 388.009 321.709 388.138L324.212 391.83ZM332.248 383.36H329.234V391.83H327.374V383.36H324.359V381.832H332.248V383.36ZM342.215 381.832V391.83H341.261C341.114 391.83 340.989 391.807 340.888 391.761C340.791 391.71 340.697 391.627 340.604 391.512L335.384 384.847C335.412 385.151 335.426 385.432 335.426 385.69V391.83H333.787V381.832H334.762C334.84 381.832 334.907 381.837 334.963 381.846C335.022 381.851 335.073 381.865 335.115 381.888C335.161 381.906 335.205 381.936 335.246 381.978C335.288 382.014 335.334 382.065 335.384 382.13L340.625 388.822C340.611 388.661 340.6 388.502 340.591 388.345C340.581 388.189 340.577 388.043 340.577 387.91V381.832H342.215ZM346.539 383.312V386.084H350.038V387.516H346.539V390.344H350.978V391.83H344.672V381.832H350.978V383.312H346.539ZM355.878 386.589C356.228 386.589 356.533 386.545 356.791 386.458C357.053 386.37 357.268 386.25 357.434 386.098C357.604 385.942 357.731 385.757 357.814 385.545C357.897 385.333 357.938 385.1 357.938 384.847C357.938 384.34 357.77 383.95 357.434 383.678C357.102 383.406 356.593 383.27 355.906 383.27H354.717V386.589H355.878ZM360.663 391.83H358.983C358.664 391.83 358.434 391.706 358.291 391.457L356.189 388.256C356.111 388.136 356.023 388.05 355.926 388C355.834 387.949 355.696 387.924 355.512 387.924H354.717V391.83H352.857V381.832H355.906C356.583 381.832 357.164 381.904 357.648 382.047C358.137 382.185 358.535 382.381 358.844 382.634C359.158 382.888 359.388 383.192 359.536 383.547C359.683 383.897 359.757 384.285 359.757 384.709C359.757 385.045 359.706 385.363 359.605 385.663C359.508 385.962 359.365 386.234 359.176 386.479C358.992 386.723 358.761 386.937 358.485 387.122C358.213 387.306 357.902 387.451 357.551 387.557C357.671 387.626 357.782 387.709 357.883 387.806C357.985 387.898 358.077 388.009 358.16 388.138L360.663 391.83Z" fill="white"/>
</g>
</svg>
