<svg width="1204" height="678" viewBox="0 0 1204 678" fill="none" xmlns="http://www.w3.org/2000/svg">
<rect width="1204" height="677.25" fill="white"/>
<mask id="mask0" mask-type="alpha" maskUnits="userSpaceOnUse" x="872" y="280" width="118" height="118">
<path d="M872 326.046C872 309.759 872 301.615 875.22 295.416C877.933 290.193 882.193 285.933 887.416 283.22C893.615 280 901.759 280 918.046 280H943.954C960.241 280 968.385 280 974.584 283.22C979.807 285.933 984.067 290.193 986.78 295.416C990 301.615 990 309.759 990 326.046V351.954C990 368.241 990 376.385 986.78 382.584C984.067 387.807 979.807 392.067 974.584 394.78C968.385 398 960.241 398 943.954 398H918.046C901.759 398 893.615 398 887.416 394.78C882.193 392.067 877.933 387.807 875.22 382.584C872 376.385 872 368.241 872 351.954V326.046Z" fill="#C4C4C4"/>
</mask>
<g mask="url(#mask0)">
<rect width="118" height="118" transform="translate(872 280)" fill="#F18D8D"/>
<rect x="872" y="280" width="118" height="118" fill="#41A5DD"/>
<path d="M913.967 359.404C916.997 359.404 919.453 356.954 919.453 353.932C919.453 350.91 916.997 348.461 913.967 348.461C910.938 348.461 908.481 350.91 908.481 353.932C908.481 356.954 910.938 359.404 913.967 359.404Z" fill="white"/>
<path fill-rule="evenodd" clip-rule="evenodd" d="M956.978 319.17C955.844 315.961 953.76 315.377 951.382 315.377H948.895C948.676 315.377 948.456 315.377 948.237 315.413H897.326C894.108 315.413 891.475 318.04 891.475 321.25V356.741C891.475 359.951 894.108 362.577 897.326 362.577H934.119V362.54H934.229C936.716 362.54 938.143 361.702 938.874 359.695L941.617 352.108H958.368L961.038 359.695C961.806 361.702 963.452 362.54 965.719 362.54C968.389 362.54 970.583 360.534 970.583 357.981C970.583 356.85 969.962 355.026 969.559 354.005L956.978 319.17ZM913.967 360.644C910.273 360.644 907.238 357.653 907.238 353.932C907.238 350.248 910.237 347.221 913.967 347.221C917.661 347.221 920.697 350.212 920.697 353.932C920.66 357.653 917.661 360.644 913.967 360.644ZM928.195 354.443H922.014C922.014 353.13 921.465 345.834 913.785 345.834C906.104 345.834 905.775 354.516 905.775 354.516H904.129C904.129 354.516 899.338 352.583 898.35 352.072C897.363 351.525 897.253 348.825 897.253 348.825V346.455H898.094V344.047C898.497 338.94 911.042 334.344 911.042 334.344C911.042 334.344 921.575 323.985 923.221 322.526C926.768 319.426 941.142 320.119 941.142 320.119L928.195 354.443ZM943.848 344.923L949.992 326.648H950.102L955.99 344.923H943.848Z" fill="white"/>
<path fill-rule="evenodd" clip-rule="evenodd" d="M906.58 340.509C906.141 340.4 904.531 340.4 903.837 340.363C903.617 340.363 903.398 340.436 903.251 340.582C902.922 340.837 902.41 341.348 901.935 341.968C901.386 342.698 900.984 343.609 900.728 344.193C900.545 344.667 901.057 344.704 901.057 344.704L902.264 344.959C902.41 344.995 902.556 344.959 902.666 344.85L906.689 341.348C906.653 341.348 907.238 340.655 906.58 340.509Z" fill="white"/>
<path fill-rule="evenodd" clip-rule="evenodd" d="M933.754 323.183C933.205 323.183 928.121 323.73 927.134 323.912C926.146 324.095 924.683 325.225 924.683 325.225L918.429 332.119V335.804L931.669 333.25C931.669 333.25 933.388 332.922 933.644 330.733C933.9 328.545 934.449 323.876 934.449 323.876C934.449 323.876 934.302 323.183 933.754 323.183Z" fill="white"/>
</g>
<line x1="856" y1="362.5" x2="842" y2="362.5" stroke="black"/>
<line x1="856" y1="315.5" x2="842" y2="315.5" stroke="black"/>
<line x1="842.5" y1="315" x2="842.5" y2="362" stroke="black"/>
<line x1="1000" y1="279.5" x2="1014" y2="279.5" stroke="black"/>
<line x1="1000" y1="397.5" x2="1014" y2="397.5" stroke="black"/>
<line x1="1013.5" y1="398" x2="1013.5" y2="280" stroke="black"/>
<path d="M1030.81 345H1029.61C1029.51 345 1029.43 344.974 1029.37 344.923C1029.31 344.867 1029.27 344.806 1029.23 344.741L1027.44 341.962C1027.43 342.027 1027.4 342.093 1027.38 342.158C1027.36 342.219 1027.33 342.275 1027.3 342.326L1025.65 344.741C1025.6 344.806 1025.55 344.867 1025.49 344.923C1025.44 344.974 1025.37 345 1025.27 345H1024.16L1026.65 341.36L1024.26 337.909H1025.46C1025.56 337.909 1025.63 337.925 1025.68 337.958C1025.73 337.991 1025.77 338.037 1025.81 338.098L1027.55 340.758C1027.59 340.623 1027.64 340.492 1027.72 340.366L1029.25 338.126C1029.29 338.061 1029.34 338.009 1029.38 337.972C1029.43 337.93 1029.5 337.909 1029.57 337.909H1030.71L1028.33 341.297L1030.81 345Z" fill="black"/>
<path d="M780.11 341.381V337.244C780.11 337.123 780.115 336.99 780.124 336.845C780.133 336.7 780.147 336.553 780.166 336.404L776.512 341.381H780.11ZM782.721 341.381V342.095C782.721 342.17 782.698 342.233 782.651 342.284C782.609 342.335 782.541 342.361 782.448 342.361H781.202V345H780.11V342.361H775.658C775.565 342.361 775.483 342.335 775.413 342.284C775.348 342.228 775.306 342.16 775.287 342.081L775.161 341.444L780.04 334.969H781.202V341.381H782.721ZM791.121 339.988C791.121 340.865 791.025 341.626 790.834 342.27C790.647 342.909 790.391 343.439 790.064 343.859C789.737 344.279 789.35 344.592 788.902 344.797C788.459 345.002 787.983 345.105 787.474 345.105C786.961 345.105 786.482 345.002 786.039 344.797C785.6 344.592 785.218 344.279 784.891 343.859C784.564 343.439 784.308 342.909 784.121 342.27C783.934 341.626 783.841 340.865 783.841 339.988C783.841 339.111 783.934 338.35 784.121 337.706C784.308 337.062 784.564 336.53 784.891 336.11C785.218 335.685 785.6 335.37 786.039 335.165C786.482 334.96 786.961 334.857 787.474 334.857C787.983 334.857 788.459 334.96 788.902 335.165C789.35 335.37 789.737 335.685 790.064 336.11C790.391 336.53 790.647 337.062 790.834 337.706C791.025 338.35 791.121 339.111 791.121 339.988ZM789.826 339.988C789.826 339.223 789.761 338.581 789.63 338.063C789.504 337.54 789.331 337.12 789.112 336.803C788.897 336.486 788.648 336.259 788.363 336.124C788.078 335.984 787.782 335.914 787.474 335.914C787.166 335.914 786.87 335.984 786.585 336.124C786.3 336.259 786.051 336.486 785.836 336.803C785.621 337.12 785.449 337.54 785.318 338.063C785.192 338.581 785.129 339.223 785.129 339.988C785.129 340.753 785.192 341.395 785.318 341.913C785.449 342.431 785.621 342.849 785.836 343.166C786.051 343.483 786.3 343.712 786.585 343.852C786.87 343.987 787.166 344.055 787.474 344.055C787.782 344.055 788.078 343.987 788.363 343.852C788.648 343.712 788.897 343.483 789.112 343.166C789.331 342.849 789.504 342.431 789.63 341.913C789.761 341.395 789.826 340.753 789.826 339.988ZM796.896 337.391C796.896 337.783 796.836 338.135 796.714 338.448C796.593 338.756 796.43 339.017 796.224 339.232C796.024 339.442 795.788 339.603 795.517 339.715C795.251 339.827 794.969 339.883 794.67 339.883C794.358 339.883 794.066 339.827 793.795 339.715C793.525 339.603 793.289 339.442 793.088 339.232C792.892 339.017 792.738 338.756 792.626 338.448C792.514 338.135 792.458 337.783 792.458 337.391C792.458 336.99 792.514 336.633 792.626 336.32C792.738 336.007 792.892 335.744 793.088 335.529C793.289 335.314 793.525 335.151 793.795 335.039C794.066 334.927 794.358 334.871 794.67 334.871C794.988 334.871 795.282 334.927 795.552 335.039C795.823 335.151 796.059 335.314 796.259 335.529C796.46 335.744 796.616 336.007 796.728 336.32C796.84 336.633 796.896 336.99 796.896 337.391ZM795.93 337.391C795.93 337.083 795.898 336.822 795.832 336.607C795.767 336.392 795.676 336.217 795.559 336.082C795.447 335.942 795.314 335.842 795.16 335.781C795.006 335.72 794.843 335.69 794.67 335.69C794.498 335.69 794.337 335.72 794.187 335.781C794.038 335.842 793.907 335.942 793.795 336.082C793.683 336.217 793.595 336.392 793.529 336.607C793.464 336.822 793.431 337.083 793.431 337.391C793.431 337.694 793.464 337.953 793.529 338.168C793.595 338.378 793.683 338.551 793.795 338.686C793.907 338.817 794.038 338.912 794.187 338.973C794.337 339.029 794.498 339.057 794.67 339.057C794.843 339.057 795.006 339.029 795.16 338.973C795.314 338.912 795.447 338.817 795.559 338.686C795.676 338.551 795.767 338.378 795.832 338.168C795.898 337.953 795.93 337.694 795.93 337.391ZM800.445 335.179C800.492 335.123 800.546 335.074 800.606 335.032C800.672 334.99 800.758 334.969 800.865 334.969H801.768L794.432 344.797C794.39 344.858 794.337 344.907 794.271 344.944C794.206 344.981 794.127 345 794.033 345H793.116L800.445 335.179ZM802.447 342.634C802.447 343.026 802.387 343.376 802.265 343.684C802.144 343.992 801.981 344.253 801.775 344.468C801.575 344.678 801.339 344.839 801.068 344.951C800.802 345.063 800.52 345.119 800.221 345.119C799.904 345.119 799.61 345.063 799.339 344.951C799.073 344.839 798.84 344.678 798.639 344.468C798.443 344.253 798.289 343.992 798.177 343.684C798.065 343.376 798.009 343.026 798.009 342.634C798.009 342.233 798.065 341.876 798.177 341.563C798.289 341.246 798.443 340.98 798.639 340.765C798.84 340.55 799.073 340.387 799.339 340.275C799.61 340.163 799.904 340.107 800.221 340.107C800.534 340.107 800.826 340.163 801.096 340.275C801.372 340.387 801.607 340.55 801.803 340.765C802.004 340.98 802.16 341.246 802.272 341.563C802.389 341.876 802.447 342.233 802.447 342.634ZM801.481 342.634C801.481 342.326 801.449 342.065 801.383 341.85C801.318 341.631 801.227 341.453 801.11 341.318C800.998 341.183 800.865 341.085 800.711 341.024C800.557 340.963 800.394 340.933 800.221 340.933C800.049 340.933 799.885 340.963 799.731 341.024C799.582 341.085 799.451 341.183 799.339 341.318C799.227 341.453 799.139 341.631 799.073 341.85C799.013 342.065 798.982 342.326 798.982 342.634C798.982 342.937 799.013 343.194 799.073 343.404C799.139 343.614 799.227 343.787 799.339 343.922C799.451 344.053 799.582 344.148 799.731 344.209C799.885 344.265 800.049 344.293 800.221 344.293C800.394 344.293 800.557 344.265 800.711 344.209C800.865 344.148 800.998 344.053 801.11 343.922C801.227 343.787 801.318 343.614 801.383 343.404C801.449 343.194 801.481 342.937 801.481 342.634ZM811.225 337.797C811.743 337.797 812.209 337.883 812.625 338.056C813.04 338.229 813.395 338.474 813.689 338.791C813.983 339.108 814.207 339.493 814.361 339.946C814.519 340.394 814.599 340.896 814.599 341.451C814.599 342.011 814.519 342.515 814.361 342.963C814.207 343.411 813.983 343.794 813.689 344.111C813.395 344.428 813.04 344.673 812.625 344.846C812.209 345.014 811.743 345.098 811.225 345.098C810.702 345.098 810.231 345.014 809.811 344.846C809.395 344.673 809.041 344.428 808.747 344.111C808.453 343.794 808.226 343.411 808.068 342.963C807.914 342.515 807.837 342.011 807.837 341.451C807.837 340.896 807.914 340.394 808.068 339.946C808.226 339.493 808.453 339.108 808.747 338.791C809.041 338.474 809.395 338.229 809.811 338.056C810.231 337.883 810.702 337.797 811.225 337.797ZM811.225 344.125C811.925 344.125 812.447 343.892 812.793 343.425C813.138 342.954 813.311 342.298 813.311 341.458C813.311 340.613 813.138 339.955 812.793 339.484C812.447 339.013 811.925 338.777 811.225 338.777C810.87 338.777 810.56 338.838 810.294 338.959C810.032 339.08 809.813 339.255 809.636 339.484C809.463 339.713 809.332 339.995 809.244 340.331C809.16 340.662 809.118 341.038 809.118 341.458C809.118 342.298 809.29 342.954 809.636 343.425C809.986 343.892 810.515 344.125 811.225 344.125ZM816.791 345V338.973L816.007 338.882C815.909 338.859 815.827 338.824 815.762 338.777C815.701 338.726 815.671 338.653 815.671 338.56V338.049H816.791V337.363C816.791 336.957 816.847 336.598 816.959 336.285C817.075 335.968 817.239 335.702 817.449 335.487C817.663 335.268 817.92 335.102 818.219 334.99C818.517 334.878 818.853 334.822 819.227 334.822C819.544 334.822 819.836 334.869 820.102 334.962L820.074 335.585C820.064 335.697 820.001 335.758 819.885 335.767C819.773 335.776 819.621 335.781 819.43 335.781C819.215 335.781 819.019 335.809 818.842 335.865C818.669 335.921 818.52 336.012 818.394 336.138C818.268 336.264 818.17 336.43 818.1 336.635C818.034 336.84 818.002 337.095 818.002 337.398V338.049H820.046V338.952H818.044V345H816.791ZM830.983 345H829.786C829.684 345 829.602 344.974 829.541 344.923C829.485 344.867 829.439 344.806 829.401 344.741L827.616 341.962C827.598 342.027 827.577 342.093 827.553 342.158C827.535 342.219 827.507 342.275 827.469 342.326L825.817 344.741C825.771 344.806 825.719 344.867 825.663 344.923C825.612 344.974 825.54 345 825.446 345H824.333L826.818 341.36L824.431 337.909H825.628C825.731 337.909 825.806 337.925 825.852 337.958C825.899 337.991 825.941 338.037 825.978 338.098L827.721 340.758C827.759 340.623 827.817 340.492 827.896 340.366L829.422 338.126C829.464 338.061 829.509 338.009 829.555 337.972C829.607 337.93 829.667 337.909 829.737 337.909H830.885L828.498 341.297L830.983 345Z" fill="black"/>
<mask id="mask1" mask-type="alpha" maskUnits="userSpaceOnUse" x="242" y="280" width="118" height="118">
<path d="M242 326.046C242 309.759 242 301.615 245.22 295.416C247.933 290.193 252.193 285.933 257.416 283.22C263.615 280 271.759 280 288.046 280H313.954C330.241 280 338.385 280 344.584 283.22C349.807 285.933 354.067 290.193 356.78 295.416C360 301.615 360 309.759 360 326.046V351.954C360 368.241 360 376.385 356.78 382.584C354.067 387.807 349.807 392.067 344.584 394.78C338.385 398 330.241 398 313.954 398H288.046C271.759 398 263.615 398 257.416 394.78C252.193 392.067 247.933 387.807 245.22 382.584C242 376.385 242 368.241 242 351.954V326.046Z" fill="#C4C4C4"/>
</mask>
<g mask="url(#mask1)">
<rect width="118" height="118" transform="translate(242 280)" fill="#F18D8D"/>
<rect x="242" y="280" width="118" height="118" fill="#41A5DD"/>
<path d="M283.967 359.404C286.997 359.404 289.453 356.954 289.453 353.932C289.453 350.91 286.997 348.461 283.967 348.461C280.938 348.461 278.481 350.91 278.481 353.932C278.481 356.954 280.938 359.404 283.967 359.404Z" fill="white"/>
<path fill-rule="evenodd" clip-rule="evenodd" d="M326.978 319.17C325.844 315.961 323.76 315.377 321.382 315.377H318.895C318.676 315.377 318.456 315.377 318.237 315.413H267.326C264.108 315.413 261.475 318.04 261.475 321.25V356.741C261.475 359.951 264.108 362.577 267.326 362.577H304.119V362.54H304.229C306.716 362.54 308.143 361.702 308.874 359.695L311.617 352.108H328.368L331.038 359.695C331.806 361.702 333.452 362.54 335.719 362.54C338.389 362.54 340.583 360.534 340.583 357.981C340.583 356.85 339.962 355.026 339.559 354.005L326.978 319.17ZM283.967 360.644C280.273 360.644 277.238 357.653 277.238 353.932C277.238 350.248 280.237 347.221 283.967 347.221C287.661 347.221 290.697 350.212 290.697 353.932C290.66 357.653 287.661 360.644 283.967 360.644ZM298.195 354.443H292.014C292.014 353.13 291.465 345.834 283.785 345.834C276.104 345.834 275.775 354.516 275.775 354.516H274.129C274.129 354.516 269.338 352.583 268.35 352.072C267.363 351.525 267.253 348.825 267.253 348.825V346.455H268.094V344.047C268.497 338.94 281.042 334.344 281.042 334.344C281.042 334.344 291.575 323.985 293.221 322.526C296.768 319.426 311.142 320.119 311.142 320.119L298.195 354.443ZM313.848 344.923L319.992 326.648H320.102L325.99 344.923H313.848Z" fill="white"/>
<path fill-rule="evenodd" clip-rule="evenodd" d="M276.58 340.509C276.141 340.4 274.531 340.4 273.836 340.363C273.617 340.363 273.398 340.436 273.251 340.582C272.922 340.837 272.41 341.348 271.935 341.968C271.386 342.698 270.984 343.609 270.728 344.193C270.545 344.667 271.057 344.704 271.057 344.704L272.264 344.959C272.41 344.995 272.556 344.959 272.666 344.85L276.689 341.348C276.653 341.348 277.238 340.655 276.58 340.509Z" fill="white"/>
<path fill-rule="evenodd" clip-rule="evenodd" d="M303.754 323.183C303.205 323.183 298.121 323.73 297.134 323.912C296.146 324.095 294.683 325.225 294.683 325.225L288.429 332.119V335.804L301.669 333.25C301.669 333.25 303.388 332.922 303.644 330.733C303.9 328.545 304.449 323.876 304.449 323.876C304.449 323.876 304.302 323.183 303.754 323.183Z" fill="white"/>
</g>
</svg>
