<svg width="1204" height="678" viewBox="0 0 1204 678" fill="none" xmlns="http://www.w3.org/2000/svg">
<rect width="1204" height="677.25" fill="white"/>
<line x1="924" y1="289.5" x2="938" y2="289.5" stroke="black"/>
<line x1="924" y1="335.5" x2="938" y2="335.5" stroke="black"/>
<line x1="937.5" y1="336" x2="937.5" y2="290" stroke="black"/>
<path d="M953.11 314.381V310.244C953.11 310.123 953.115 309.99 953.124 309.845C953.133 309.7 953.147 309.553 953.166 309.404L949.512 314.381H953.11ZM955.721 314.381V315.095C955.721 315.17 955.698 315.233 955.651 315.284C955.609 315.335 955.541 315.361 955.448 315.361H954.202V318H953.11V315.361H948.658C948.565 315.361 948.483 315.335 948.413 315.284C948.348 315.228 948.306 315.16 948.287 315.081L948.161 314.444L953.04 307.969H954.202V314.381H955.721ZM958.955 311.756C959.478 311.644 959.958 311.588 960.397 311.588C960.92 311.588 961.382 311.665 961.783 311.819C962.184 311.973 962.518 312.185 962.784 312.456C963.055 312.727 963.258 313.046 963.393 313.415C963.533 313.784 963.603 314.185 963.603 314.619C963.603 315.151 963.51 315.632 963.323 316.061C963.141 316.49 962.887 316.859 962.56 317.167C962.238 317.47 961.858 317.704 961.419 317.867C960.98 318.03 960.507 318.112 959.998 318.112C959.704 318.112 959.422 318.082 959.151 318.021C958.88 317.965 958.626 317.888 958.388 317.79C958.155 317.692 957.938 317.58 957.737 317.454C957.536 317.328 957.359 317.195 957.205 317.055L957.59 316.523C957.674 316.402 957.784 316.341 957.919 316.341C958.012 316.341 958.117 316.378 958.234 316.453C958.351 316.523 958.493 316.602 958.661 316.691C958.829 316.78 959.025 316.861 959.249 316.936C959.478 317.006 959.748 317.041 960.061 317.041C960.411 317.041 960.726 316.985 961.006 316.873C961.286 316.761 961.526 316.602 961.727 316.397C961.928 316.187 962.082 315.937 962.189 315.648C962.296 315.359 962.35 315.034 962.35 314.675C962.35 314.362 962.303 314.08 962.21 313.828C962.121 313.576 961.984 313.361 961.797 313.184C961.615 313.007 961.386 312.869 961.111 312.771C960.836 312.673 960.514 312.624 960.145 312.624C959.893 312.624 959.629 312.645 959.354 312.687C959.083 312.729 958.806 312.797 958.521 312.89L957.737 312.659L958.542 307.969H963.295V308.515C963.295 308.692 963.239 308.839 963.127 308.956C963.02 309.068 962.833 309.124 962.567 309.124H959.417L958.955 311.756ZM969.896 310.391C969.896 310.783 969.836 311.135 969.714 311.448C969.593 311.756 969.43 312.017 969.224 312.232C969.024 312.442 968.788 312.603 968.517 312.715C968.251 312.827 967.969 312.883 967.67 312.883C967.358 312.883 967.066 312.827 966.795 312.715C966.525 312.603 966.289 312.442 966.088 312.232C965.892 312.017 965.738 311.756 965.626 311.448C965.514 311.135 965.458 310.783 965.458 310.391C965.458 309.99 965.514 309.633 965.626 309.32C965.738 309.007 965.892 308.744 966.088 308.529C966.289 308.314 966.525 308.151 966.795 308.039C967.066 307.927 967.358 307.871 967.67 307.871C967.988 307.871 968.282 307.927 968.552 308.039C968.823 308.151 969.059 308.314 969.259 308.529C969.46 308.744 969.616 309.007 969.728 309.32C969.84 309.633 969.896 309.99 969.896 310.391ZM968.93 310.391C968.93 310.083 968.898 309.822 968.832 309.607C968.767 309.392 968.676 309.217 968.559 309.082C968.447 308.942 968.314 308.842 968.16 308.781C968.006 308.72 967.843 308.69 967.67 308.69C967.498 308.69 967.337 308.72 967.187 308.781C967.038 308.842 966.907 308.942 966.795 309.082C966.683 309.217 966.595 309.392 966.529 309.607C966.464 309.822 966.431 310.083 966.431 310.391C966.431 310.694 966.464 310.953 966.529 311.168C966.595 311.378 966.683 311.551 966.795 311.686C966.907 311.817 967.038 311.912 967.187 311.973C967.337 312.029 967.498 312.057 967.67 312.057C967.843 312.057 968.006 312.029 968.16 311.973C968.314 311.912 968.447 311.817 968.559 311.686C968.676 311.551 968.767 311.378 968.832 311.168C968.898 310.953 968.93 310.694 968.93 310.391ZM973.445 308.179C973.492 308.123 973.546 308.074 973.606 308.032C973.672 307.99 973.758 307.969 973.865 307.969H974.768L967.432 317.797C967.39 317.858 967.337 317.907 967.271 317.944C967.206 317.981 967.127 318 967.033 318H966.116L973.445 308.179ZM975.447 315.634C975.447 316.026 975.387 316.376 975.265 316.684C975.144 316.992 974.981 317.253 974.775 317.468C974.575 317.678 974.339 317.839 974.068 317.951C973.802 318.063 973.52 318.119 973.221 318.119C972.904 318.119 972.61 318.063 972.339 317.951C972.073 317.839 971.84 317.678 971.639 317.468C971.443 317.253 971.289 316.992 971.177 316.684C971.065 316.376 971.009 316.026 971.009 315.634C971.009 315.233 971.065 314.876 971.177 314.563C971.289 314.246 971.443 313.98 971.639 313.765C971.84 313.55 972.073 313.387 972.339 313.275C972.61 313.163 972.904 313.107 973.221 313.107C973.534 313.107 973.826 313.163 974.096 313.275C974.372 313.387 974.607 313.55 974.803 313.765C975.004 313.98 975.16 314.246 975.272 314.563C975.389 314.876 975.447 315.233 975.447 315.634ZM974.481 315.634C974.481 315.326 974.449 315.065 974.383 314.85C974.318 314.631 974.227 314.453 974.11 314.318C973.998 314.183 973.865 314.085 973.711 314.024C973.557 313.963 973.394 313.933 973.221 313.933C973.049 313.933 972.885 313.963 972.731 314.024C972.582 314.085 972.451 314.183 972.339 314.318C972.227 314.453 972.139 314.631 972.073 314.85C972.013 315.065 971.982 315.326 971.982 315.634C971.982 315.937 972.013 316.194 972.073 316.404C972.139 316.614 972.227 316.787 972.339 316.922C972.451 317.053 972.582 317.148 972.731 317.209C972.885 317.265 973.049 317.293 973.221 317.293C973.394 317.293 973.557 317.265 973.711 317.209C973.865 317.148 973.998 317.053 974.11 316.922C974.227 316.787 974.318 316.614 974.383 316.404C974.449 316.194 974.481 315.937 974.481 315.634ZM984.225 310.797C984.743 310.797 985.209 310.883 985.625 311.056C986.04 311.229 986.395 311.474 986.689 311.791C986.983 312.108 987.207 312.493 987.361 312.946C987.519 313.394 987.599 313.896 987.599 314.451C987.599 315.011 987.519 315.515 987.361 315.963C987.207 316.411 986.983 316.794 986.689 317.111C986.395 317.428 986.04 317.673 985.625 317.846C985.209 318.014 984.743 318.098 984.225 318.098C983.702 318.098 983.231 318.014 982.811 317.846C982.395 317.673 982.041 317.428 981.747 317.111C981.453 316.794 981.226 316.411 981.068 315.963C980.914 315.515 980.837 315.011 980.837 314.451C980.837 313.896 980.914 313.394 981.068 312.946C981.226 312.493 981.453 312.108 981.747 311.791C982.041 311.474 982.395 311.229 982.811 311.056C983.231 310.883 983.702 310.797 984.225 310.797ZM984.225 317.125C984.925 317.125 985.447 316.892 985.793 316.425C986.138 315.954 986.311 315.298 986.311 314.458C986.311 313.613 986.138 312.955 985.793 312.484C985.447 312.013 984.925 311.777 984.225 311.777C983.87 311.777 983.56 311.838 983.294 311.959C983.032 312.08 982.813 312.255 982.636 312.484C982.463 312.713 982.332 312.995 982.244 313.331C982.16 313.662 982.118 314.038 982.118 314.458C982.118 315.298 982.29 315.954 982.636 316.425C982.986 316.892 983.515 317.125 984.225 317.125ZM989.791 318V311.973L989.007 311.882C988.909 311.859 988.827 311.824 988.762 311.777C988.701 311.726 988.671 311.653 988.671 311.56V311.049H989.791V310.363C989.791 309.957 989.847 309.598 989.959 309.285C990.075 308.968 990.239 308.702 990.449 308.487C990.663 308.268 990.92 308.102 991.219 307.99C991.517 307.878 991.853 307.822 992.227 307.822C992.544 307.822 992.836 307.869 993.102 307.962L993.074 308.585C993.064 308.697 993.001 308.758 992.885 308.767C992.773 308.776 992.621 308.781 992.43 308.781C992.215 308.781 992.019 308.809 991.842 308.865C991.669 308.921 991.52 309.012 991.394 309.138C991.268 309.264 991.17 309.43 991.1 309.635C991.034 309.84 991.002 310.095 991.002 310.398V311.049H993.046V311.952H991.044V318H989.791ZM1003.98 318H1002.79C1002.68 318 1002.6 317.974 1002.54 317.923C1002.49 317.867 1002.44 317.806 1002.4 317.741L1000.62 314.962C1000.6 315.027 1000.58 315.093 1000.55 315.158C1000.53 315.219 1000.51 315.275 1000.47 315.326L998.817 317.741C998.771 317.806 998.719 317.867 998.663 317.923C998.612 317.974 998.54 318 998.446 318H997.333L999.818 314.36L997.431 310.909H998.628C998.731 310.909 998.806 310.925 998.852 310.958C998.899 310.991 998.941 311.037 998.978 311.098L1000.72 313.758C1000.76 313.623 1000.82 313.492 1000.9 313.366L1002.42 311.126C1002.46 311.061 1002.51 311.009 1002.56 310.972C1002.61 310.93 1002.67 310.909 1002.74 310.909H1003.89L1001.5 314.297L1003.98 318Z" fill="black"/>
<mask id="mask0" mask-type="alpha" maskUnits="userSpaceOnUse" x="290" y="263" width="100" height="100">
<path d="M290 309.046C290 292.759 290 284.615 293.22 278.416C295.933 273.193 300.193 268.933 305.416 266.22C311.615 263 319.759 263 336.046 263H343.954C360.241 263 368.385 263 374.584 266.22C379.807 268.933 384.067 273.193 386.78 278.416C390 284.615 390 292.759 390 309.046V316.954C390 333.241 390 341.385 386.78 347.584C384.067 352.807 379.807 357.067 374.584 359.78C368.385 363 360.241 363 343.954 363H336.046C319.759 363 311.615 363 305.416 359.78C300.193 357.067 295.933 352.807 293.22 347.584C290 341.385 290 333.241 290 316.954V309.046Z" fill="#C4C4C4"/>
</mask>
<g mask="url(#mask0)">
<rect width="100" height="100" transform="translate(290 263)" fill="#F18D8D"/>
<rect x="290" y="263" width="100" height="100" fill="#41A5DD"/>
<path d="M325.566 330.291C328.133 330.291 330.215 328.215 330.215 325.654C330.215 323.094 328.133 321.018 325.566 321.018C322.998 321.018 320.917 323.094 320.917 325.654C320.917 328.215 322.998 330.291 325.566 330.291Z" fill="white"/>
<path fill-rule="evenodd" clip-rule="evenodd" d="M362.015 296.195C361.054 293.475 359.288 292.98 357.273 292.98H355.165C354.979 292.98 354.793 292.98 354.608 293.011H311.463C308.736 293.011 306.504 295.237 306.504 297.957V328.035C306.504 330.755 308.736 332.98 311.463 332.98H342.644V332.95H342.737C344.844 332.95 346.053 332.239 346.673 330.538L348.998 324.109H363.193L365.456 330.538C366.107 332.239 367.501 332.95 369.423 332.95C371.686 332.95 373.545 331.249 373.545 329.086C373.545 328.127 373.018 326.582 372.677 325.716L362.015 296.195ZM325.566 331.342C322.435 331.342 319.863 328.807 319.863 325.654C319.863 322.532 322.404 319.967 325.566 319.967C328.696 319.967 331.269 322.501 331.269 325.654C331.238 328.807 328.696 331.342 325.566 331.342ZM337.622 326.087H332.384C332.384 324.974 331.919 318.792 325.411 318.792C318.902 318.792 318.623 326.149 318.623 326.149H317.228C317.228 326.149 313.168 324.511 312.331 324.078C311.494 323.614 311.401 321.327 311.401 321.327V319.317H312.114V317.277C312.455 312.95 323.086 309.055 323.086 309.055C323.086 309.055 332.012 300.276 333.407 299.039C336.414 296.412 348.595 296.999 348.595 296.999L337.622 326.087ZM350.888 318.019L356.095 302.532H356.188L361.178 318.019H350.888Z" fill="white"/>
<path fill-rule="evenodd" clip-rule="evenodd" d="M319.305 314.279C318.933 314.186 317.569 314.186 316.98 314.155C316.794 314.155 316.608 314.217 316.484 314.341C316.205 314.557 315.771 314.99 315.368 315.515C314.903 316.133 314.562 316.906 314.345 317.401C314.19 317.803 314.624 317.834 314.624 317.834L315.647 318.05C315.771 318.081 315.895 318.05 315.988 317.957L319.398 314.99C319.367 314.99 319.862 314.402 319.305 314.279Z" fill="white"/>
<path fill-rule="evenodd" clip-rule="evenodd" d="M342.333 299.596C341.868 299.596 337.56 300.059 336.723 300.214C335.887 300.369 334.647 301.327 334.647 301.327L329.347 307.169V310.291L340.567 308.127C340.567 308.127 342.023 307.849 342.24 305.994C342.457 304.14 342.922 300.183 342.922 300.183C342.922 300.183 342.798 299.596 342.333 299.596Z" fill="white"/>
</g>
<rect x="240.5" y="412.5" width="199" height="49" transform="rotate(-90 240.5 412.5)" stroke="#D8D8D8"/>
<rect x="390.5" y="412.5" width="199" height="49" transform="rotate(-90 390.5 412.5)" stroke="#D8D8D8"/>
<rect x="864.5" y="412.5" width="199" height="49" transform="rotate(-90 864.5 412.5)" stroke="#D8D8D8"/>
<rect x="240.5" y="213.5" width="673" height="49" stroke="#D8D8D8"/>
<rect x="435.5" y="290.5" width="478" height="45" stroke="#D8D8D8"/>
<rect x="240.5" y="363.5" width="673" height="49" stroke="#D8D8D8"/>
<line x1="230" y1="363.5" x2="216" y2="363.5" stroke="black"/>
<line x1="230" y1="263.5" x2="216" y2="263.5" stroke="black"/>
<line x1="216.5" y1="263" x2="216.5" y2="363" stroke="black"/>
<path d="M205.811 319H204.614C204.511 319 204.43 318.974 204.369 318.923C204.313 318.867 204.266 318.806 204.229 318.741L202.444 315.962C202.425 316.027 202.404 316.093 202.381 316.158C202.362 316.219 202.334 316.275 202.297 316.326L200.645 318.741C200.598 318.806 200.547 318.867 200.491 318.923C200.44 318.974 200.367 319 200.274 319H199.161L201.646 315.36L199.259 311.909H200.456C200.559 311.909 200.633 311.925 200.68 311.958C200.727 311.991 200.769 312.037 200.806 312.098L202.549 314.758C202.586 314.623 202.645 314.492 202.724 314.366L204.25 312.126C204.292 312.061 204.336 312.009 204.383 311.972C204.434 311.93 204.495 311.909 204.565 311.909H205.713L203.326 315.297L205.811 319Z" fill="black"/>
<line x1="924" y1="213.5" x2="938" y2="213.5" stroke="black"/>
<line x1="924" y1="262.5" x2="938" y2="262.5" stroke="black"/>
<line x1="937.5" y1="263" x2="937.5" y2="214" stroke="black"/>
<path d="M950.534 237.756C951.057 237.644 951.537 237.588 951.976 237.588C952.499 237.588 952.961 237.665 953.362 237.819C953.763 237.973 954.097 238.185 954.363 238.456C954.634 238.727 954.837 239.046 954.972 239.415C955.112 239.784 955.182 240.185 955.182 240.619C955.182 241.151 955.089 241.632 954.902 242.061C954.72 242.49 954.466 242.859 954.139 243.167C953.817 243.47 953.437 243.704 952.998 243.867C952.559 244.03 952.086 244.112 951.577 244.112C951.283 244.112 951.001 244.082 950.73 244.021C950.459 243.965 950.205 243.888 949.967 243.79C949.734 243.692 949.517 243.58 949.316 243.454C949.115 243.328 948.938 243.195 948.784 243.055L949.169 242.523C949.253 242.402 949.363 242.341 949.498 242.341C949.591 242.341 949.696 242.378 949.813 242.453C949.93 242.523 950.072 242.602 950.24 242.691C950.408 242.78 950.604 242.861 950.828 242.936C951.057 243.006 951.327 243.041 951.64 243.041C951.99 243.041 952.305 242.985 952.585 242.873C952.865 242.761 953.105 242.602 953.306 242.397C953.507 242.187 953.661 241.937 953.768 241.648C953.875 241.359 953.929 241.034 953.929 240.675C953.929 240.362 953.882 240.08 953.789 239.828C953.7 239.576 953.563 239.361 953.376 239.184C953.194 239.007 952.965 238.869 952.69 238.771C952.415 238.673 952.093 238.624 951.724 238.624C951.472 238.624 951.208 238.645 950.933 238.687C950.662 238.729 950.385 238.797 950.1 238.89L949.316 238.659L950.121 233.969H954.874V234.515C954.874 234.692 954.818 234.839 954.706 234.956C954.599 235.068 954.412 235.124 954.146 235.124H950.996L950.534 237.756ZM964.121 238.988C964.121 239.865 964.025 240.626 963.834 241.27C963.647 241.909 963.391 242.439 963.064 242.859C962.737 243.279 962.35 243.592 961.902 243.797C961.459 244.002 960.983 244.105 960.474 244.105C959.961 244.105 959.482 244.002 959.039 243.797C958.6 243.592 958.218 243.279 957.891 242.859C957.564 242.439 957.308 241.909 957.121 241.27C956.934 240.626 956.841 239.865 956.841 238.988C956.841 238.111 956.934 237.35 957.121 236.706C957.308 236.062 957.564 235.53 957.891 235.11C958.218 234.685 958.6 234.37 959.039 234.165C959.482 233.96 959.961 233.857 960.474 233.857C960.983 233.857 961.459 233.96 961.902 234.165C962.35 234.37 962.737 234.685 963.064 235.11C963.391 235.53 963.647 236.062 963.834 236.706C964.025 237.35 964.121 238.111 964.121 238.988ZM962.826 238.988C962.826 238.223 962.761 237.581 962.63 237.063C962.504 236.54 962.331 236.12 962.112 235.803C961.897 235.486 961.648 235.259 961.363 235.124C961.078 234.984 960.782 234.914 960.474 234.914C960.166 234.914 959.87 234.984 959.585 235.124C959.3 235.259 959.051 235.486 958.836 235.803C958.621 236.12 958.449 236.54 958.318 237.063C958.192 237.581 958.129 238.223 958.129 238.988C958.129 239.753 958.192 240.395 958.318 240.913C958.449 241.431 958.621 241.849 958.836 242.166C959.051 242.483 959.3 242.712 959.585 242.852C959.87 242.987 960.166 243.055 960.474 243.055C960.782 243.055 961.078 242.987 961.363 242.852C961.648 242.712 961.897 242.483 962.112 242.166C962.331 241.849 962.504 241.431 962.63 240.913C962.761 240.395 962.826 239.753 962.826 238.988ZM969.896 236.391C969.896 236.783 969.836 237.135 969.714 237.448C969.593 237.756 969.43 238.017 969.224 238.232C969.024 238.442 968.788 238.603 968.517 238.715C968.251 238.827 967.969 238.883 967.67 238.883C967.358 238.883 967.066 238.827 966.795 238.715C966.525 238.603 966.289 238.442 966.088 238.232C965.892 238.017 965.738 237.756 965.626 237.448C965.514 237.135 965.458 236.783 965.458 236.391C965.458 235.99 965.514 235.633 965.626 235.32C965.738 235.007 965.892 234.744 966.088 234.529C966.289 234.314 966.525 234.151 966.795 234.039C967.066 233.927 967.358 233.871 967.67 233.871C967.988 233.871 968.282 233.927 968.552 234.039C968.823 234.151 969.059 234.314 969.259 234.529C969.46 234.744 969.616 235.007 969.728 235.32C969.84 235.633 969.896 235.99 969.896 236.391ZM968.93 236.391C968.93 236.083 968.898 235.822 968.832 235.607C968.767 235.392 968.676 235.217 968.559 235.082C968.447 234.942 968.314 234.842 968.16 234.781C968.006 234.72 967.843 234.69 967.67 234.69C967.498 234.69 967.337 234.72 967.187 234.781C967.038 234.842 966.907 234.942 966.795 235.082C966.683 235.217 966.595 235.392 966.529 235.607C966.464 235.822 966.431 236.083 966.431 236.391C966.431 236.694 966.464 236.953 966.529 237.168C966.595 237.378 966.683 237.551 966.795 237.686C966.907 237.817 967.038 237.912 967.187 237.973C967.337 238.029 967.498 238.057 967.67 238.057C967.843 238.057 968.006 238.029 968.16 237.973C968.314 237.912 968.447 237.817 968.559 237.686C968.676 237.551 968.767 237.378 968.832 237.168C968.898 236.953 968.93 236.694 968.93 236.391ZM973.445 234.179C973.492 234.123 973.546 234.074 973.606 234.032C973.672 233.99 973.758 233.969 973.865 233.969H974.768L967.432 243.797C967.39 243.858 967.337 243.907 967.271 243.944C967.206 243.981 967.127 244 967.033 244H966.116L973.445 234.179ZM975.447 241.634C975.447 242.026 975.387 242.376 975.265 242.684C975.144 242.992 974.981 243.253 974.775 243.468C974.575 243.678 974.339 243.839 974.068 243.951C973.802 244.063 973.52 244.119 973.221 244.119C972.904 244.119 972.61 244.063 972.339 243.951C972.073 243.839 971.84 243.678 971.639 243.468C971.443 243.253 971.289 242.992 971.177 242.684C971.065 242.376 971.009 242.026 971.009 241.634C971.009 241.233 971.065 240.876 971.177 240.563C971.289 240.246 971.443 239.98 971.639 239.765C971.84 239.55 972.073 239.387 972.339 239.275C972.61 239.163 972.904 239.107 973.221 239.107C973.534 239.107 973.826 239.163 974.096 239.275C974.372 239.387 974.607 239.55 974.803 239.765C975.004 239.98 975.16 240.246 975.272 240.563C975.389 240.876 975.447 241.233 975.447 241.634ZM974.481 241.634C974.481 241.326 974.449 241.065 974.383 240.85C974.318 240.631 974.227 240.453 974.11 240.318C973.998 240.183 973.865 240.085 973.711 240.024C973.557 239.963 973.394 239.933 973.221 239.933C973.049 239.933 972.885 239.963 972.731 240.024C972.582 240.085 972.451 240.183 972.339 240.318C972.227 240.453 972.139 240.631 972.073 240.85C972.013 241.065 971.982 241.326 971.982 241.634C971.982 241.937 972.013 242.194 972.073 242.404C972.139 242.614 972.227 242.787 972.339 242.922C972.451 243.053 972.582 243.148 972.731 243.209C972.885 243.265 973.049 243.293 973.221 243.293C973.394 243.293 973.557 243.265 973.711 243.209C973.865 243.148 973.998 243.053 974.11 242.922C974.227 242.787 974.318 242.614 974.383 242.404C974.449 242.194 974.481 241.937 974.481 241.634ZM984.225 236.797C984.743 236.797 985.209 236.883 985.625 237.056C986.04 237.229 986.395 237.474 986.689 237.791C986.983 238.108 987.207 238.493 987.361 238.946C987.519 239.394 987.599 239.896 987.599 240.451C987.599 241.011 987.519 241.515 987.361 241.963C987.207 242.411 986.983 242.794 986.689 243.111C986.395 243.428 986.04 243.673 985.625 243.846C985.209 244.014 984.743 244.098 984.225 244.098C983.702 244.098 983.231 244.014 982.811 243.846C982.395 243.673 982.041 243.428 981.747 243.111C981.453 242.794 981.226 242.411 981.068 241.963C980.914 241.515 980.837 241.011 980.837 240.451C980.837 239.896 980.914 239.394 981.068 238.946C981.226 238.493 981.453 238.108 981.747 237.791C982.041 237.474 982.395 237.229 982.811 237.056C983.231 236.883 983.702 236.797 984.225 236.797ZM984.225 243.125C984.925 243.125 985.447 242.892 985.793 242.425C986.138 241.954 986.311 241.298 986.311 240.458C986.311 239.613 986.138 238.955 985.793 238.484C985.447 238.013 984.925 237.777 984.225 237.777C983.87 237.777 983.56 237.838 983.294 237.959C983.032 238.08 982.813 238.255 982.636 238.484C982.463 238.713 982.332 238.995 982.244 239.331C982.16 239.662 982.118 240.038 982.118 240.458C982.118 241.298 982.29 241.954 982.636 242.425C982.986 242.892 983.515 243.125 984.225 243.125ZM989.791 244V237.973L989.007 237.882C988.909 237.859 988.827 237.824 988.762 237.777C988.701 237.726 988.671 237.653 988.671 237.56V237.049H989.791V236.363C989.791 235.957 989.847 235.598 989.959 235.285C990.075 234.968 990.239 234.702 990.449 234.487C990.663 234.268 990.92 234.102 991.219 233.99C991.517 233.878 991.853 233.822 992.227 233.822C992.544 233.822 992.836 233.869 993.102 233.962L993.074 234.585C993.064 234.697 993.001 234.758 992.885 234.767C992.773 234.776 992.621 234.781 992.43 234.781C992.215 234.781 992.019 234.809 991.842 234.865C991.669 234.921 991.52 235.012 991.394 235.138C991.268 235.264 991.17 235.43 991.1 235.635C991.034 235.84 991.002 236.095 991.002 236.398V237.049H993.046V237.952H991.044V244H989.791ZM1003.98 244H1002.79C1002.68 244 1002.6 243.974 1002.54 243.923C1002.49 243.867 1002.44 243.806 1002.4 243.741L1000.62 240.962C1000.6 241.027 1000.58 241.093 1000.55 241.158C1000.53 241.219 1000.51 241.275 1000.47 241.326L998.817 243.741C998.771 243.806 998.719 243.867 998.663 243.923C998.612 243.974 998.54 244 998.446 244H997.333L999.818 240.36L997.431 236.909H998.628C998.731 236.909 998.806 236.925 998.852 236.958C998.899 236.991 998.941 237.037 998.978 237.098L1000.72 239.758C1000.76 239.623 1000.82 239.492 1000.9 239.366L1002.42 237.126C1002.46 237.061 1002.51 237.009 1002.56 236.972C1002.61 236.93 1002.67 236.909 1002.74 236.909H1003.89L1001.5 240.297L1003.98 244Z" fill="black"/>
<line x1="439.5" y1="423" x2="439.5" y2="437" stroke="black"/>
<line x1="390.5" y1="423" x2="390.5" y2="437" stroke="black"/>
<line x1="390" y1="436.5" x2="439" y2="436.5" stroke="black"/>
<line x1="913.5" y1="423" x2="913.5" y2="437" stroke="black"/>
<line x1="864.5" y1="423" x2="864.5" y2="437" stroke="black"/>
<line x1="864" y1="436.5" x2="913" y2="436.5" stroke="black"/>
<path d="M388.534 454.756C389.057 454.644 389.537 454.588 389.976 454.588C390.499 454.588 390.961 454.665 391.362 454.819C391.763 454.973 392.097 455.185 392.363 455.456C392.634 455.727 392.837 456.046 392.972 456.415C393.112 456.784 393.182 457.185 393.182 457.619C393.182 458.151 393.089 458.632 392.902 459.061C392.72 459.49 392.466 459.859 392.139 460.167C391.817 460.47 391.437 460.704 390.998 460.867C390.559 461.03 390.086 461.112 389.577 461.112C389.283 461.112 389.001 461.082 388.73 461.021C388.459 460.965 388.205 460.888 387.967 460.79C387.734 460.692 387.517 460.58 387.316 460.454C387.115 460.328 386.938 460.195 386.784 460.055L387.169 459.523C387.253 459.402 387.363 459.341 387.498 459.341C387.591 459.341 387.696 459.378 387.813 459.453C387.93 459.523 388.072 459.602 388.24 459.691C388.408 459.78 388.604 459.861 388.828 459.936C389.057 460.006 389.327 460.041 389.64 460.041C389.99 460.041 390.305 459.985 390.585 459.873C390.865 459.761 391.105 459.602 391.306 459.397C391.507 459.187 391.661 458.937 391.768 458.648C391.875 458.359 391.929 458.034 391.929 457.675C391.929 457.362 391.882 457.08 391.789 456.828C391.7 456.576 391.563 456.361 391.376 456.184C391.194 456.007 390.965 455.869 390.69 455.771C390.415 455.673 390.093 455.624 389.724 455.624C389.472 455.624 389.208 455.645 388.933 455.687C388.662 455.729 388.385 455.797 388.1 455.89L387.316 455.659L388.121 450.969H392.874V451.515C392.874 451.692 392.818 451.839 392.706 451.956C392.599 452.068 392.412 452.124 392.146 452.124H388.996L388.534 454.756ZM402.121 455.988C402.121 456.865 402.025 457.626 401.834 458.27C401.647 458.909 401.391 459.439 401.064 459.859C400.737 460.279 400.35 460.592 399.902 460.797C399.459 461.002 398.983 461.105 398.474 461.105C397.961 461.105 397.482 461.002 397.039 460.797C396.6 460.592 396.218 460.279 395.891 459.859C395.564 459.439 395.308 458.909 395.121 458.27C394.934 457.626 394.841 456.865 394.841 455.988C394.841 455.111 394.934 454.35 395.121 453.706C395.308 453.062 395.564 452.53 395.891 452.11C396.218 451.685 396.6 451.37 397.039 451.165C397.482 450.96 397.961 450.857 398.474 450.857C398.983 450.857 399.459 450.96 399.902 451.165C400.35 451.37 400.737 451.685 401.064 452.11C401.391 452.53 401.647 453.062 401.834 453.706C402.025 454.35 402.121 455.111 402.121 455.988ZM400.826 455.988C400.826 455.223 400.761 454.581 400.63 454.063C400.504 453.54 400.331 453.12 400.112 452.803C399.897 452.486 399.648 452.259 399.363 452.124C399.078 451.984 398.782 451.914 398.474 451.914C398.166 451.914 397.87 451.984 397.585 452.124C397.3 452.259 397.051 452.486 396.836 452.803C396.621 453.12 396.449 453.54 396.318 454.063C396.192 454.581 396.129 455.223 396.129 455.988C396.129 456.753 396.192 457.395 396.318 457.913C396.449 458.431 396.621 458.849 396.836 459.166C397.051 459.483 397.3 459.712 397.585 459.852C397.87 459.987 398.166 460.055 398.474 460.055C398.782 460.055 399.078 459.987 399.363 459.852C399.648 459.712 399.897 459.483 400.112 459.166C400.331 458.849 400.504 458.431 400.63 457.913C400.761 457.395 400.826 456.753 400.826 455.988ZM407.896 453.391C407.896 453.783 407.836 454.135 407.714 454.448C407.593 454.756 407.43 455.017 407.224 455.232C407.024 455.442 406.788 455.603 406.517 455.715C406.251 455.827 405.969 455.883 405.67 455.883C405.358 455.883 405.066 455.827 404.795 455.715C404.525 455.603 404.289 455.442 404.088 455.232C403.892 455.017 403.738 454.756 403.626 454.448C403.514 454.135 403.458 453.783 403.458 453.391C403.458 452.99 403.514 452.633 403.626 452.32C403.738 452.007 403.892 451.744 404.088 451.529C404.289 451.314 404.525 451.151 404.795 451.039C405.066 450.927 405.358 450.871 405.67 450.871C405.988 450.871 406.282 450.927 406.552 451.039C406.823 451.151 407.059 451.314 407.259 451.529C407.46 451.744 407.616 452.007 407.728 452.32C407.84 452.633 407.896 452.99 407.896 453.391ZM406.93 453.391C406.93 453.083 406.898 452.822 406.832 452.607C406.767 452.392 406.676 452.217 406.559 452.082C406.447 451.942 406.314 451.842 406.16 451.781C406.006 451.72 405.843 451.69 405.67 451.69C405.498 451.69 405.337 451.72 405.187 451.781C405.038 451.842 404.907 451.942 404.795 452.082C404.683 452.217 404.595 452.392 404.529 452.607C404.464 452.822 404.431 453.083 404.431 453.391C404.431 453.694 404.464 453.953 404.529 454.168C404.595 454.378 404.683 454.551 404.795 454.686C404.907 454.817 405.038 454.912 405.187 454.973C405.337 455.029 405.498 455.057 405.67 455.057C405.843 455.057 406.006 455.029 406.16 454.973C406.314 454.912 406.447 454.817 406.559 454.686C406.676 454.551 406.767 454.378 406.832 454.168C406.898 453.953 406.93 453.694 406.93 453.391ZM411.445 451.179C411.492 451.123 411.546 451.074 411.606 451.032C411.672 450.99 411.758 450.969 411.865 450.969H412.768L405.432 460.797C405.39 460.858 405.337 460.907 405.271 460.944C405.206 460.981 405.127 461 405.033 461H404.116L411.445 451.179ZM413.447 458.634C413.447 459.026 413.387 459.376 413.265 459.684C413.144 459.992 412.981 460.253 412.775 460.468C412.575 460.678 412.339 460.839 412.068 460.951C411.802 461.063 411.52 461.119 411.221 461.119C410.904 461.119 410.61 461.063 410.339 460.951C410.073 460.839 409.84 460.678 409.639 460.468C409.443 460.253 409.289 459.992 409.177 459.684C409.065 459.376 409.009 459.026 409.009 458.634C409.009 458.233 409.065 457.876 409.177 457.563C409.289 457.246 409.443 456.98 409.639 456.765C409.84 456.55 410.073 456.387 410.339 456.275C410.61 456.163 410.904 456.107 411.221 456.107C411.534 456.107 411.826 456.163 412.096 456.275C412.372 456.387 412.607 456.55 412.803 456.765C413.004 456.98 413.16 457.246 413.272 457.563C413.389 457.876 413.447 458.233 413.447 458.634ZM412.481 458.634C412.481 458.326 412.449 458.065 412.383 457.85C412.318 457.631 412.227 457.453 412.11 457.318C411.998 457.183 411.865 457.085 411.711 457.024C411.557 456.963 411.394 456.933 411.221 456.933C411.049 456.933 410.885 456.963 410.731 457.024C410.582 457.085 410.451 457.183 410.339 457.318C410.227 457.453 410.139 457.631 410.073 457.85C410.013 458.065 409.982 458.326 409.982 458.634C409.982 458.937 410.013 459.194 410.073 459.404C410.139 459.614 410.227 459.787 410.339 459.922C410.451 460.053 410.582 460.148 410.731 460.209C410.885 460.265 411.049 460.293 411.221 460.293C411.394 460.293 411.557 460.265 411.711 460.209C411.865 460.148 411.998 460.053 412.11 459.922C412.227 459.787 412.318 459.614 412.383 459.404C412.449 459.194 412.481 458.937 412.481 458.634ZM422.225 453.797C422.743 453.797 423.209 453.883 423.625 454.056C424.04 454.229 424.395 454.474 424.689 454.791C424.983 455.108 425.207 455.493 425.361 455.946C425.519 456.394 425.599 456.896 425.599 457.451C425.599 458.011 425.519 458.515 425.361 458.963C425.207 459.411 424.983 459.794 424.689 460.111C424.395 460.428 424.04 460.673 423.625 460.846C423.209 461.014 422.743 461.098 422.225 461.098C421.702 461.098 421.231 461.014 420.811 460.846C420.395 460.673 420.041 460.428 419.747 460.111C419.453 459.794 419.226 459.411 419.068 458.963C418.914 458.515 418.837 458.011 418.837 457.451C418.837 456.896 418.914 456.394 419.068 455.946C419.226 455.493 419.453 455.108 419.747 454.791C420.041 454.474 420.395 454.229 420.811 454.056C421.231 453.883 421.702 453.797 422.225 453.797ZM422.225 460.125C422.925 460.125 423.447 459.892 423.793 459.425C424.138 458.954 424.311 458.298 424.311 457.458C424.311 456.613 424.138 455.955 423.793 455.484C423.447 455.013 422.925 454.777 422.225 454.777C421.87 454.777 421.56 454.838 421.294 454.959C421.032 455.08 420.813 455.255 420.636 455.484C420.463 455.713 420.332 455.995 420.244 456.331C420.16 456.662 420.118 457.038 420.118 457.458C420.118 458.298 420.29 458.954 420.636 459.425C420.986 459.892 421.515 460.125 422.225 460.125ZM427.791 461V454.973L427.007 454.882C426.909 454.859 426.827 454.824 426.762 454.777C426.701 454.726 426.671 454.653 426.671 454.56V454.049H427.791V453.363C427.791 452.957 427.847 452.598 427.959 452.285C428.075 451.968 428.239 451.702 428.449 451.487C428.663 451.268 428.92 451.102 429.219 450.99C429.517 450.878 429.853 450.822 430.227 450.822C430.544 450.822 430.836 450.869 431.102 450.962L431.074 451.585C431.064 451.697 431.001 451.758 430.885 451.767C430.773 451.776 430.621 451.781 430.43 451.781C430.215 451.781 430.019 451.809 429.842 451.865C429.669 451.921 429.52 452.012 429.394 452.138C429.268 452.264 429.17 452.43 429.1 452.635C429.034 452.84 429.002 453.095 429.002 453.398V454.049H431.046V454.952H429.044V461H427.791ZM441.983 461H440.786C440.684 461 440.602 460.974 440.541 460.923C440.485 460.867 440.439 460.806 440.401 460.741L438.616 457.962C438.598 458.027 438.577 458.093 438.553 458.158C438.535 458.219 438.507 458.275 438.469 458.326L436.817 460.741C436.771 460.806 436.719 460.867 436.663 460.923C436.612 460.974 436.54 461 436.446 461H435.333L437.818 457.36L435.431 453.909H436.628C436.731 453.909 436.806 453.925 436.852 453.958C436.899 453.991 436.941 454.037 436.978 454.098L438.721 456.758C438.759 456.623 438.817 456.492 438.896 456.366L440.422 454.126C440.464 454.061 440.509 454.009 440.555 453.972C440.607 453.93 440.667 453.909 440.737 453.909H441.885L439.498 457.297L441.983 461Z" fill="black"/>
<path d="M862.534 454.756C863.057 454.644 863.537 454.588 863.976 454.588C864.499 454.588 864.961 454.665 865.362 454.819C865.763 454.973 866.097 455.185 866.363 455.456C866.634 455.727 866.837 456.046 866.972 456.415C867.112 456.784 867.182 457.185 867.182 457.619C867.182 458.151 867.089 458.632 866.902 459.061C866.72 459.49 866.466 459.859 866.139 460.167C865.817 460.47 865.437 460.704 864.998 460.867C864.559 461.03 864.086 461.112 863.577 461.112C863.283 461.112 863.001 461.082 862.73 461.021C862.459 460.965 862.205 460.888 861.967 460.79C861.734 460.692 861.517 460.58 861.316 460.454C861.115 460.328 860.938 460.195 860.784 460.055L861.169 459.523C861.253 459.402 861.363 459.341 861.498 459.341C861.591 459.341 861.696 459.378 861.813 459.453C861.93 459.523 862.072 459.602 862.24 459.691C862.408 459.78 862.604 459.861 862.828 459.936C863.057 460.006 863.327 460.041 863.64 460.041C863.99 460.041 864.305 459.985 864.585 459.873C864.865 459.761 865.105 459.602 865.306 459.397C865.507 459.187 865.661 458.937 865.768 458.648C865.875 458.359 865.929 458.034 865.929 457.675C865.929 457.362 865.882 457.08 865.789 456.828C865.7 456.576 865.563 456.361 865.376 456.184C865.194 456.007 864.965 455.869 864.69 455.771C864.415 455.673 864.093 455.624 863.724 455.624C863.472 455.624 863.208 455.645 862.933 455.687C862.662 455.729 862.385 455.797 862.1 455.89L861.316 455.659L862.121 450.969H866.874V451.515C866.874 451.692 866.818 451.839 866.706 451.956C866.599 452.068 866.412 452.124 866.146 452.124H862.996L862.534 454.756ZM876.121 455.988C876.121 456.865 876.025 457.626 875.834 458.27C875.647 458.909 875.391 459.439 875.064 459.859C874.737 460.279 874.35 460.592 873.902 460.797C873.459 461.002 872.983 461.105 872.474 461.105C871.961 461.105 871.482 461.002 871.039 460.797C870.6 460.592 870.218 460.279 869.891 459.859C869.564 459.439 869.308 458.909 869.121 458.27C868.934 457.626 868.841 456.865 868.841 455.988C868.841 455.111 868.934 454.35 869.121 453.706C869.308 453.062 869.564 452.53 869.891 452.11C870.218 451.685 870.6 451.37 871.039 451.165C871.482 450.96 871.961 450.857 872.474 450.857C872.983 450.857 873.459 450.96 873.902 451.165C874.35 451.37 874.737 451.685 875.064 452.11C875.391 452.53 875.647 453.062 875.834 453.706C876.025 454.35 876.121 455.111 876.121 455.988ZM874.826 455.988C874.826 455.223 874.761 454.581 874.63 454.063C874.504 453.54 874.331 453.12 874.112 452.803C873.897 452.486 873.648 452.259 873.363 452.124C873.078 451.984 872.782 451.914 872.474 451.914C872.166 451.914 871.87 451.984 871.585 452.124C871.3 452.259 871.051 452.486 870.836 452.803C870.621 453.12 870.449 453.54 870.318 454.063C870.192 454.581 870.129 455.223 870.129 455.988C870.129 456.753 870.192 457.395 870.318 457.913C870.449 458.431 870.621 458.849 870.836 459.166C871.051 459.483 871.3 459.712 871.585 459.852C871.87 459.987 872.166 460.055 872.474 460.055C872.782 460.055 873.078 459.987 873.363 459.852C873.648 459.712 873.897 459.483 874.112 459.166C874.331 458.849 874.504 458.431 874.63 457.913C874.761 457.395 874.826 456.753 874.826 455.988ZM881.896 453.391C881.896 453.783 881.836 454.135 881.714 454.448C881.593 454.756 881.43 455.017 881.224 455.232C881.024 455.442 880.788 455.603 880.517 455.715C880.251 455.827 879.969 455.883 879.67 455.883C879.358 455.883 879.066 455.827 878.795 455.715C878.525 455.603 878.289 455.442 878.088 455.232C877.892 455.017 877.738 454.756 877.626 454.448C877.514 454.135 877.458 453.783 877.458 453.391C877.458 452.99 877.514 452.633 877.626 452.32C877.738 452.007 877.892 451.744 878.088 451.529C878.289 451.314 878.525 451.151 878.795 451.039C879.066 450.927 879.358 450.871 879.67 450.871C879.988 450.871 880.282 450.927 880.552 451.039C880.823 451.151 881.059 451.314 881.259 451.529C881.46 451.744 881.616 452.007 881.728 452.32C881.84 452.633 881.896 452.99 881.896 453.391ZM880.93 453.391C880.93 453.083 880.898 452.822 880.832 452.607C880.767 452.392 880.676 452.217 880.559 452.082C880.447 451.942 880.314 451.842 880.16 451.781C880.006 451.72 879.843 451.69 879.67 451.69C879.498 451.69 879.337 451.72 879.187 451.781C879.038 451.842 878.907 451.942 878.795 452.082C878.683 452.217 878.595 452.392 878.529 452.607C878.464 452.822 878.431 453.083 878.431 453.391C878.431 453.694 878.464 453.953 878.529 454.168C878.595 454.378 878.683 454.551 878.795 454.686C878.907 454.817 879.038 454.912 879.187 454.973C879.337 455.029 879.498 455.057 879.67 455.057C879.843 455.057 880.006 455.029 880.16 454.973C880.314 454.912 880.447 454.817 880.559 454.686C880.676 454.551 880.767 454.378 880.832 454.168C880.898 453.953 880.93 453.694 880.93 453.391ZM885.445 451.179C885.492 451.123 885.546 451.074 885.606 451.032C885.672 450.99 885.758 450.969 885.865 450.969H886.768L879.432 460.797C879.39 460.858 879.337 460.907 879.271 460.944C879.206 460.981 879.127 461 879.033 461H878.116L885.445 451.179ZM887.447 458.634C887.447 459.026 887.387 459.376 887.265 459.684C887.144 459.992 886.981 460.253 886.775 460.468C886.575 460.678 886.339 460.839 886.068 460.951C885.802 461.063 885.52 461.119 885.221 461.119C884.904 461.119 884.61 461.063 884.339 460.951C884.073 460.839 883.84 460.678 883.639 460.468C883.443 460.253 883.289 459.992 883.177 459.684C883.065 459.376 883.009 459.026 883.009 458.634C883.009 458.233 883.065 457.876 883.177 457.563C883.289 457.246 883.443 456.98 883.639 456.765C883.84 456.55 884.073 456.387 884.339 456.275C884.61 456.163 884.904 456.107 885.221 456.107C885.534 456.107 885.826 456.163 886.096 456.275C886.372 456.387 886.607 456.55 886.803 456.765C887.004 456.98 887.16 457.246 887.272 457.563C887.389 457.876 887.447 458.233 887.447 458.634ZM886.481 458.634C886.481 458.326 886.449 458.065 886.383 457.85C886.318 457.631 886.227 457.453 886.11 457.318C885.998 457.183 885.865 457.085 885.711 457.024C885.557 456.963 885.394 456.933 885.221 456.933C885.049 456.933 884.885 456.963 884.731 457.024C884.582 457.085 884.451 457.183 884.339 457.318C884.227 457.453 884.139 457.631 884.073 457.85C884.013 458.065 883.982 458.326 883.982 458.634C883.982 458.937 884.013 459.194 884.073 459.404C884.139 459.614 884.227 459.787 884.339 459.922C884.451 460.053 884.582 460.148 884.731 460.209C884.885 460.265 885.049 460.293 885.221 460.293C885.394 460.293 885.557 460.265 885.711 460.209C885.865 460.148 885.998 460.053 886.11 459.922C886.227 459.787 886.318 459.614 886.383 459.404C886.449 459.194 886.481 458.937 886.481 458.634ZM896.225 453.797C896.743 453.797 897.209 453.883 897.625 454.056C898.04 454.229 898.395 454.474 898.689 454.791C898.983 455.108 899.207 455.493 899.361 455.946C899.519 456.394 899.599 456.896 899.599 457.451C899.599 458.011 899.519 458.515 899.361 458.963C899.207 459.411 898.983 459.794 898.689 460.111C898.395 460.428 898.04 460.673 897.625 460.846C897.209 461.014 896.743 461.098 896.225 461.098C895.702 461.098 895.231 461.014 894.811 460.846C894.395 460.673 894.041 460.428 893.747 460.111C893.453 459.794 893.226 459.411 893.068 458.963C892.914 458.515 892.837 458.011 892.837 457.451C892.837 456.896 892.914 456.394 893.068 455.946C893.226 455.493 893.453 455.108 893.747 454.791C894.041 454.474 894.395 454.229 894.811 454.056C895.231 453.883 895.702 453.797 896.225 453.797ZM896.225 460.125C896.925 460.125 897.447 459.892 897.793 459.425C898.138 458.954 898.311 458.298 898.311 457.458C898.311 456.613 898.138 455.955 897.793 455.484C897.447 455.013 896.925 454.777 896.225 454.777C895.87 454.777 895.56 454.838 895.294 454.959C895.032 455.08 894.813 455.255 894.636 455.484C894.463 455.713 894.332 455.995 894.244 456.331C894.16 456.662 894.118 457.038 894.118 457.458C894.118 458.298 894.29 458.954 894.636 459.425C894.986 459.892 895.515 460.125 896.225 460.125ZM901.791 461V454.973L901.007 454.882C900.909 454.859 900.827 454.824 900.762 454.777C900.701 454.726 900.671 454.653 900.671 454.56V454.049H901.791V453.363C901.791 452.957 901.847 452.598 901.959 452.285C902.075 451.968 902.239 451.702 902.449 451.487C902.663 451.268 902.92 451.102 903.219 450.99C903.517 450.878 903.853 450.822 904.227 450.822C904.544 450.822 904.836 450.869 905.102 450.962L905.074 451.585C905.064 451.697 905.001 451.758 904.885 451.767C904.773 451.776 904.621 451.781 904.43 451.781C904.215 451.781 904.019 451.809 903.842 451.865C903.669 451.921 903.52 452.012 903.394 452.138C903.268 452.264 903.17 452.43 903.1 452.635C903.034 452.84 903.002 453.095 903.002 453.398V454.049H905.046V454.952H903.044V461H901.791ZM915.983 461H914.786C914.684 461 914.602 460.974 914.541 460.923C914.485 460.867 914.439 460.806 914.401 460.741L912.616 457.962C912.598 458.027 912.577 458.093 912.553 458.158C912.535 458.219 912.507 458.275 912.469 458.326L910.817 460.741C910.771 460.806 910.719 460.867 910.663 460.923C910.612 460.974 910.54 461 910.446 461H909.333L911.818 457.36L909.431 453.909H910.628C910.731 453.909 910.806 453.925 910.852 453.958C910.899 453.991 910.941 454.037 910.978 454.098L912.721 456.758C912.759 456.623 912.817 456.492 912.896 456.366L914.422 454.126C914.464 454.061 914.509 454.009 914.555 453.972C914.607 453.93 914.667 453.909 914.737 453.909H915.885L913.498 457.297L915.983 461Z" fill="black"/>
<path d="M471.325 308.95C471.325 311.633 470.892 314.075 470.025 316.275C469.175 318.475 467.967 320.367 466.4 321.95C464.833 323.517 462.958 324.733 460.775 325.6C458.592 326.467 456.167 326.9 453.5 326.9H440V291H453.5C456.167 291 458.592 291.433 460.775 292.3C462.958 293.167 464.833 294.392 466.4 295.975C467.967 297.542 469.175 299.433 470.025 301.65C470.892 303.85 471.325 306.283 471.325 308.95ZM465.875 308.95C465.875 306.817 465.583 304.908 465 303.225C464.417 301.525 463.583 300.092 462.5 298.925C461.433 297.742 460.133 296.842 458.6 296.225C457.083 295.608 455.383 295.3 453.5 295.3H445.35V322.6H453.5C455.383 322.6 457.083 322.292 458.6 321.675C460.133 321.058 461.433 320.167 462.5 319C463.583 317.817 464.417 316.383 465 314.7C465.583 313.017 465.875 311.1 465.875 308.95Z" fill="#4D4D4D"/>
<path d="M489.073 301.1C490.94 301.1 492.623 301.408 494.123 302.025C495.64 302.625 496.923 303.5 497.973 304.65C499.04 305.783 499.857 307.158 500.423 308.775C500.99 310.375 501.273 312.175 501.273 314.175C501.273 316.175 500.99 317.983 500.423 319.6C499.857 321.217 499.04 322.592 497.973 323.725C496.923 324.858 495.64 325.733 494.123 326.35C492.623 326.95 490.94 327.25 489.073 327.25C487.19 327.25 485.49 326.95 483.973 326.35C482.473 325.733 481.19 324.858 480.123 323.725C479.057 322.592 478.232 321.217 477.648 319.6C477.082 317.983 476.798 316.175 476.798 314.175C476.798 312.175 477.082 310.375 477.648 308.775C478.232 307.158 479.057 305.783 480.123 304.65C481.19 303.5 482.473 302.625 483.973 302.025C485.49 301.408 487.19 301.1 489.073 301.1ZM489.073 323.45C491.473 323.45 493.265 322.642 494.448 321.025C495.632 319.408 496.223 317.133 496.223 314.2C496.223 311.267 495.632 308.992 494.448 307.375C493.265 305.742 491.473 304.925 489.073 304.925C486.64 304.925 484.823 305.742 483.623 307.375C482.44 308.992 481.848 311.267 481.848 314.2C481.848 317.133 482.44 319.408 483.623 321.025C484.823 322.642 486.64 323.45 489.073 323.45Z" fill="#4D4D4D"/>
<path d="M543.202 301.5L535.027 326.9H531.127C530.661 326.9 530.344 326.592 530.177 325.975L524.827 309.425C524.694 309.008 524.577 308.6 524.477 308.2C524.377 307.783 524.286 307.367 524.202 306.95C524.052 307.817 523.844 308.658 523.577 309.475L518.152 325.975C517.986 326.592 517.627 326.9 517.077 326.9H513.377L505.177 301.5H509.027C509.411 301.5 509.727 301.592 509.977 301.775C510.244 301.958 510.419 302.192 510.502 302.475L515.077 318.075C515.227 318.708 515.361 319.325 515.477 319.925C515.594 320.525 515.702 321.125 515.802 321.725C515.952 321.125 516.111 320.525 516.277 319.925C516.461 319.325 516.644 318.708 516.827 318.075L521.902 302.375C521.986 302.092 522.144 301.867 522.377 301.7C522.611 301.517 522.894 301.425 523.227 301.425H525.352C525.719 301.425 526.019 301.517 526.252 301.7C526.502 301.867 526.669 302.092 526.752 302.375L531.702 318.075C531.886 318.708 532.061 319.333 532.227 319.95C532.394 320.55 532.544 321.158 532.677 321.775C532.777 321.175 532.894 320.575 533.027 319.975C533.161 319.358 533.311 318.725 533.477 318.075L538.127 302.475C538.211 302.192 538.377 301.958 538.627 301.775C538.894 301.592 539.194 301.5 539.527 301.5H543.202Z" fill="#4D4D4D"/>
<path d="M553.458 305.025C554.008 304.442 554.583 303.908 555.183 303.425C555.783 302.942 556.417 302.533 557.083 302.2C557.767 301.85 558.492 301.583 559.258 301.4C560.042 301.2 560.875 301.1 561.758 301.1C563.158 301.1 564.383 301.333 565.433 301.8C566.5 302.267 567.392 302.925 568.108 303.775C568.825 304.608 569.367 305.617 569.733 306.8C570.1 307.983 570.283 309.292 570.283 310.725V326.9H565.383V310.725C565.383 308.908 564.967 307.5 564.133 306.5C563.3 305.483 562.025 304.975 560.308 304.975C559.058 304.975 557.883 305.275 556.783 305.875C555.7 306.458 554.692 307.258 553.758 308.275V326.9H548.883V301.5H551.808C552.492 301.5 552.917 301.825 553.083 302.475L553.458 305.025Z" fill="#4D4D4D"/>
<path d="M583.415 290V326.9H578.515V290H583.415Z" fill="#4D4D4D"/>
<path d="M602.756 301.1C604.622 301.1 606.306 301.408 607.806 302.025C609.322 302.625 610.606 303.5 611.656 304.65C612.722 305.783 613.539 307.158 614.106 308.775C614.672 310.375 614.956 312.175 614.956 314.175C614.956 316.175 614.672 317.983 614.106 319.6C613.539 321.217 612.722 322.592 611.656 323.725C610.606 324.858 609.322 325.733 607.806 326.35C606.306 326.95 604.622 327.25 602.756 327.25C600.872 327.25 599.172 326.95 597.656 326.35C596.156 325.733 594.872 324.858 593.806 323.725C592.739 322.592 591.914 321.217 591.331 319.6C590.764 317.983 590.481 316.175 590.481 314.175C590.481 312.175 590.764 310.375 591.331 308.775C591.914 307.158 592.739 305.783 593.806 304.65C594.872 303.5 596.156 302.625 597.656 302.025C599.172 301.408 600.872 301.1 602.756 301.1ZM602.756 323.45C605.156 323.45 606.947 322.642 608.131 321.025C609.314 319.408 609.906 317.133 609.906 314.2C609.906 311.267 609.314 308.992 608.131 307.375C606.947 305.742 605.156 304.925 602.756 304.925C600.322 304.925 598.506 305.742 597.306 307.375C596.122 308.992 595.531 311.267 595.531 314.2C595.531 317.133 596.122 319.408 597.306 321.025C598.506 322.642 600.322 323.45 602.756 323.45Z" fill="#4D4D4D"/>
<path d="M635.6 315.625C633.617 315.692 631.934 315.85 630.55 316.1C629.167 316.333 628.042 316.65 627.175 317.05C626.309 317.45 625.684 317.925 625.3 318.475C624.917 319.008 624.725 319.608 624.725 320.275C624.725 320.908 624.825 321.458 625.025 321.925C625.242 322.375 625.525 322.75 625.875 323.05C626.242 323.333 626.667 323.542 627.15 323.675C627.634 323.808 628.159 323.875 628.725 323.875C629.475 323.875 630.159 323.8 630.775 323.65C631.409 323.5 632 323.292 632.55 323.025C633.1 322.742 633.625 322.4 634.125 322C634.625 321.6 635.117 321.142 635.6 320.625V315.625ZM621.3 305.05C622.717 303.7 624.25 302.692 625.9 302.025C627.567 301.358 629.392 301.025 631.375 301.025C632.825 301.025 634.109 301.267 635.225 301.75C636.342 302.217 637.284 302.875 638.05 303.725C638.817 304.575 639.392 305.592 639.775 306.775C640.175 307.958 640.375 309.267 640.375 310.7V326.9H638.2C637.717 326.9 637.35 326.825 637.1 326.675C636.85 326.508 636.65 326.208 636.5 325.775L635.975 323.55C635.325 324.15 634.684 324.683 634.05 325.15C633.417 325.6 632.75 325.992 632.05 326.325C631.367 326.642 630.634 326.883 629.85 327.05C629.067 327.217 628.2 327.3 627.25 327.3C626.25 327.3 625.309 327.167 624.425 326.9C623.559 326.617 622.8 326.192 622.15 325.625C621.5 325.058 620.984 324.35 620.6 323.5C620.234 322.65 620.05 321.658 620.05 320.525C620.05 319.525 620.317 318.567 620.85 317.65C621.4 316.717 622.284 315.883 623.5 315.15C624.734 314.417 626.334 313.817 628.3 313.35C630.284 312.883 632.717 312.617 635.6 312.55V310.7C635.6 308.783 635.192 307.35 634.375 306.4C633.559 305.45 632.359 304.975 630.775 304.975C629.709 304.975 628.809 305.108 628.075 305.375C627.359 305.642 626.734 305.942 626.2 306.275C625.684 306.592 625.225 306.883 624.825 307.15C624.442 307.417 624.042 307.55 623.625 307.55C623.292 307.55 623 307.458 622.75 307.275C622.517 307.092 622.325 306.875 622.175 306.625L621.3 305.05Z" fill="#4D4D4D"/>
<path d="M664.83 307.65C664.03 306.6 663.163 305.867 662.23 305.45C661.313 305.033 660.28 304.825 659.13 304.825C656.896 304.825 655.163 305.633 653.93 307.25C652.713 308.85 652.105 311.192 652.105 314.275C652.105 315.892 652.238 317.275 652.505 318.425C652.788 319.558 653.188 320.492 653.705 321.225C654.238 321.942 654.888 322.475 655.655 322.825C656.421 323.158 657.288 323.325 658.255 323.325C659.671 323.325 660.896 323.008 661.93 322.375C662.963 321.742 663.93 320.85 664.83 319.7V307.65ZM669.73 290V326.9H666.78C666.096 326.9 665.671 326.575 665.505 325.925L665.08 323C663.996 324.283 662.763 325.317 661.38 326.1C660.013 326.867 658.43 327.25 656.63 327.25C655.18 327.25 653.863 326.967 652.68 326.4C651.513 325.833 650.513 325.008 649.68 323.925C648.846 322.825 648.205 321.467 647.755 319.85C647.305 318.233 647.08 316.375 647.08 314.275C647.08 312.392 647.33 310.642 647.83 309.025C648.33 307.408 649.055 306.008 650.005 304.825C650.955 303.642 652.105 302.717 653.455 302.05C654.805 301.367 656.33 301.025 658.03 301.025C659.563 301.025 660.863 301.275 661.93 301.775C663.013 302.275 663.98 302.983 664.83 303.9V290H669.73Z" fill="#4D4D4D"/>
<path d="M703.108 301.1C704.975 301.1 706.658 301.408 708.158 302.025C709.675 302.625 710.958 303.5 712.008 304.65C713.075 305.783 713.891 307.158 714.458 308.775C715.025 310.375 715.308 312.175 715.308 314.175C715.308 316.175 715.025 317.983 714.458 319.6C713.891 321.217 713.075 322.592 712.008 323.725C710.958 324.858 709.675 325.733 708.158 326.35C706.658 326.95 704.975 327.25 703.108 327.25C701.225 327.25 699.525 326.95 698.008 326.35C696.508 325.733 695.225 324.858 694.158 323.725C693.091 322.592 692.266 321.217 691.683 319.6C691.116 317.983 690.833 316.175 690.833 314.175C690.833 312.175 691.116 310.375 691.683 308.775C692.266 307.158 693.091 305.783 694.158 304.65C695.225 303.5 696.508 302.625 698.008 302.025C699.525 301.408 701.225 301.1 703.108 301.1ZM703.108 323.45C705.508 323.45 707.3 322.642 708.483 321.025C709.666 319.408 710.258 317.133 710.258 314.2C710.258 311.267 709.666 308.992 708.483 307.375C707.3 305.742 705.508 304.925 703.108 304.925C700.675 304.925 698.858 305.742 697.658 307.375C696.475 308.992 695.883 311.267 695.883 314.2C695.883 317.133 696.475 319.408 697.658 321.025C698.858 322.642 700.675 323.45 703.108 323.45Z" fill="#4D4D4D"/>
<path d="M743.428 301.5V326.9H740.503C739.836 326.9 739.403 326.575 739.203 325.925L738.853 323.375C738.303 323.958 737.728 324.492 737.128 324.975C736.528 325.458 735.886 325.875 735.203 326.225C734.52 326.558 733.795 326.817 733.028 327C732.261 327.2 731.436 327.3 730.553 327.3C729.153 327.3 727.92 327.067 726.853 326.6C725.803 326.133 724.92 325.483 724.203 324.65C723.486 323.8 722.945 322.783 722.578 321.6C722.211 320.417 722.028 319.108 722.028 317.675V301.5H726.928V317.675C726.928 319.492 727.345 320.908 728.178 321.925C729.011 322.925 730.286 323.425 732.003 323.425C733.253 323.425 734.42 323.133 735.503 322.55C736.586 321.95 737.603 321.133 738.553 320.1V301.5H743.428Z" fill="#4D4D4D"/>
<path d="M756.385 306.375C757.202 304.708 758.185 303.4 759.335 302.45C760.485 301.5 761.869 301.025 763.486 301.025C764.036 301.025 764.552 301.092 765.035 301.225C765.535 301.342 765.969 301.525 766.335 301.775L766.01 305.45C765.894 305.9 765.619 306.125 765.185 306.125C764.952 306.125 764.602 306.083 764.135 306C763.669 305.9 763.169 305.85 762.635 305.85C761.852 305.85 761.16 305.967 760.56 306.2C759.96 306.417 759.419 306.75 758.935 307.2C758.469 307.633 758.052 308.175 757.685 308.825C757.319 309.458 756.977 310.183 756.66 311V326.9H751.785V301.5H754.585C755.119 301.5 755.477 301.6 755.66 301.8C755.86 301.983 756.002 302.317 756.085 302.8L756.385 306.375Z" fill="#4D4D4D"/>
<path d="M798.424 315.625C796.441 315.692 794.758 315.85 793.374 316.1C791.991 316.333 790.866 316.65 789.999 317.05C789.133 317.45 788.508 317.925 788.124 318.475C787.741 319.008 787.549 319.608 787.549 320.275C787.549 320.908 787.649 321.458 787.849 321.925C788.066 322.375 788.349 322.75 788.699 323.05C789.066 323.333 789.491 323.542 789.974 323.675C790.458 323.808 790.982 323.875 791.549 323.875C792.299 323.875 792.983 323.8 793.599 323.65C794.233 323.5 794.824 323.292 795.374 323.025C795.924 322.742 796.449 322.4 796.949 322C797.449 321.6 797.941 321.142 798.424 320.625V315.625ZM784.124 305.05C785.541 303.7 787.074 302.692 788.724 302.025C790.391 301.358 792.216 301.025 794.199 301.025C795.649 301.025 796.932 301.267 798.049 301.75C799.166 302.217 800.108 302.875 800.874 303.725C801.641 304.575 802.216 305.592 802.599 306.775C802.999 307.958 803.199 309.267 803.199 310.7V326.9H801.024C800.541 326.9 800.174 326.825 799.924 326.675C799.674 326.508 799.474 326.208 799.324 325.775L798.799 323.55C798.149 324.15 797.508 324.683 796.874 325.15C796.241 325.6 795.574 325.992 794.874 326.325C794.191 326.642 793.457 326.883 792.674 327.05C791.891 327.217 791.024 327.3 790.074 327.3C789.074 327.3 788.133 327.167 787.249 326.9C786.383 326.617 785.624 326.192 784.974 325.625C784.324 325.058 783.807 324.35 783.424 323.5C783.057 322.65 782.874 321.658 782.874 320.525C782.874 319.525 783.141 318.567 783.674 317.65C784.224 316.717 785.107 315.883 786.324 315.15C787.557 314.417 789.158 313.817 791.124 313.35C793.108 312.883 795.541 312.617 798.424 312.55V310.7C798.424 308.783 798.016 307.35 797.199 306.4C796.382 305.45 795.183 304.975 793.599 304.975C792.533 304.975 791.633 305.108 790.899 305.375C790.183 305.642 789.558 305.942 789.024 306.275C788.508 306.592 788.049 306.883 787.649 307.15C787.266 307.417 786.866 307.55 786.449 307.55C786.116 307.55 785.824 307.458 785.574 307.275C785.341 307.092 785.149 306.875 784.999 306.625L784.124 305.05Z" fill="#4D4D4D"/>
<path d="M816.153 320.65C816.953 321.7 817.812 322.433 818.728 322.85C819.662 323.267 820.703 323.475 821.853 323.475C824.087 323.475 825.812 322.675 827.028 321.075C828.262 319.458 828.878 317.108 828.878 314.025C828.878 312.408 828.737 311.033 828.453 309.9C828.187 308.75 827.787 307.817 827.253 307.1C826.737 306.367 826.095 305.833 825.328 305.5C824.562 305.15 823.695 304.975 822.728 304.975C821.312 304.975 820.078 305.292 819.028 305.925C817.995 306.558 817.037 307.458 816.153 308.625V320.65ZM815.903 305.3C816.437 304.667 817.003 304.092 817.603 303.575C818.22 303.042 818.878 302.592 819.578 302.225C820.278 301.842 821.02 301.55 821.803 301.35C822.603 301.133 823.453 301.025 824.353 301.025C825.803 301.025 827.112 301.308 828.278 301.875C829.462 302.442 830.47 303.275 831.303 304.375C832.137 305.475 832.778 306.833 833.228 308.45C833.695 310.067 833.928 311.925 833.928 314.025C833.928 315.908 833.67 317.658 833.153 319.275C832.653 320.875 831.928 322.267 830.978 323.45C830.045 324.633 828.895 325.567 827.528 326.25C826.178 326.917 824.653 327.25 822.953 327.25C821.437 327.25 820.137 327 819.053 326.5C817.97 326 817.003 325.3 816.153 324.4V335.425H811.278V301.5H814.203C814.887 301.5 815.312 301.825 815.478 302.475L815.903 305.3Z" fill="#4D4D4D"/>
<path d="M845.831 320.65C846.631 321.7 847.49 322.433 848.406 322.85C849.34 323.267 850.381 323.475 851.531 323.475C853.765 323.475 855.49 322.675 856.706 321.075C857.94 319.458 858.556 317.108 858.556 314.025C858.556 312.408 858.415 311.033 858.131 309.9C857.865 308.75 857.465 307.817 856.931 307.1C856.415 306.367 855.773 305.833 855.006 305.5C854.24 305.15 853.373 304.975 852.406 304.975C850.99 304.975 849.756 305.292 848.706 305.925C847.673 306.558 846.715 307.458 845.831 308.625V320.65ZM845.581 305.3C846.115 304.667 846.681 304.092 847.281 303.575C847.898 303.042 848.556 302.592 849.256 302.225C849.956 301.842 850.698 301.55 851.481 301.35C852.281 301.133 853.131 301.025 854.031 301.025C855.481 301.025 856.79 301.308 857.956 301.875C859.14 302.442 860.148 303.275 860.981 304.375C861.815 305.475 862.456 306.833 862.906 308.45C863.373 310.067 863.606 311.925 863.606 314.025C863.606 315.908 863.348 317.658 862.831 319.275C862.331 320.875 861.606 322.267 860.656 323.45C859.723 324.633 858.573 325.567 857.206 326.25C855.856 326.917 854.331 327.25 852.631 327.25C851.115 327.25 849.815 327 848.731 326.5C847.648 326 846.681 325.3 845.831 324.4V335.425H840.956V301.5H843.881C844.565 301.5 844.99 301.825 845.156 302.475L845.581 305.3Z" fill="#4D4D4D"/>
</svg>
