<svg width="1204" height="678" viewBox="0 0 1204 678" fill="none" xmlns="http://www.w3.org/2000/svg">
<rect width="1204" height="677.25" fill="white"/>
<line x1="324" y1="261.5" x2="310" y2="261.5" stroke="black"/>
<line x1="324" y1="216.5" x2="310" y2="216.5" stroke="black"/>
<line x1="310.5" y1="216" x2="310.5" y2="261" stroke="black"/>
<path d="M248.11 240.381V236.244C248.11 236.123 248.115 235.99 248.124 235.845C248.133 235.7 248.147 235.553 248.166 235.404L244.512 240.381H248.11ZM250.721 240.381V241.095C250.721 241.17 250.698 241.233 250.651 241.284C250.609 241.335 250.541 241.361 250.448 241.361H249.202V244H248.11V241.361H243.658C243.565 241.361 243.483 241.335 243.413 241.284C243.348 241.228 243.306 241.16 243.287 241.081L243.161 240.444L248.04 233.969H249.202V240.381H250.721ZM253.955 237.756C254.478 237.644 254.958 237.588 255.397 237.588C255.92 237.588 256.382 237.665 256.783 237.819C257.184 237.973 257.518 238.185 257.784 238.456C258.055 238.727 258.258 239.046 258.393 239.415C258.533 239.784 258.603 240.185 258.603 240.619C258.603 241.151 258.51 241.632 258.323 242.061C258.141 242.49 257.887 242.859 257.56 243.167C257.238 243.47 256.858 243.704 256.419 243.867C255.98 244.03 255.507 244.112 254.998 244.112C254.704 244.112 254.422 244.082 254.151 244.021C253.88 243.965 253.626 243.888 253.388 243.79C253.155 243.692 252.938 243.58 252.737 243.454C252.536 243.328 252.359 243.195 252.205 243.055L252.59 242.523C252.674 242.402 252.784 242.341 252.919 242.341C253.012 242.341 253.117 242.378 253.234 242.453C253.351 242.523 253.493 242.602 253.661 242.691C253.829 242.78 254.025 242.861 254.249 242.936C254.478 243.006 254.748 243.041 255.061 243.041C255.411 243.041 255.726 242.985 256.006 242.873C256.286 242.761 256.526 242.602 256.727 242.397C256.928 242.187 257.082 241.937 257.189 241.648C257.296 241.359 257.35 241.034 257.35 240.675C257.35 240.362 257.303 240.08 257.21 239.828C257.121 239.576 256.984 239.361 256.797 239.184C256.615 239.007 256.386 238.869 256.111 238.771C255.836 238.673 255.514 238.624 255.145 238.624C254.893 238.624 254.629 238.645 254.354 238.687C254.083 238.729 253.806 238.797 253.521 238.89L252.737 238.659L253.542 233.969H258.295V234.515C258.295 234.692 258.239 234.839 258.127 234.956C258.02 235.068 257.833 235.124 257.567 235.124H254.417L253.955 237.756ZM264.896 236.391C264.896 236.783 264.836 237.135 264.714 237.448C264.593 237.756 264.43 238.017 264.224 238.232C264.024 238.442 263.788 238.603 263.517 238.715C263.251 238.827 262.969 238.883 262.67 238.883C262.358 238.883 262.066 238.827 261.795 238.715C261.525 238.603 261.289 238.442 261.088 238.232C260.892 238.017 260.738 237.756 260.626 237.448C260.514 237.135 260.458 236.783 260.458 236.391C260.458 235.99 260.514 235.633 260.626 235.32C260.738 235.007 260.892 234.744 261.088 234.529C261.289 234.314 261.525 234.151 261.795 234.039C262.066 233.927 262.358 233.871 262.67 233.871C262.988 233.871 263.282 233.927 263.552 234.039C263.823 234.151 264.059 234.314 264.259 234.529C264.46 234.744 264.616 235.007 264.728 235.32C264.84 235.633 264.896 235.99 264.896 236.391ZM263.93 236.391C263.93 236.083 263.898 235.822 263.832 235.607C263.767 235.392 263.676 235.217 263.559 235.082C263.447 234.942 263.314 234.842 263.16 234.781C263.006 234.72 262.843 234.69 262.67 234.69C262.498 234.69 262.337 234.72 262.187 234.781C262.038 234.842 261.907 234.942 261.795 235.082C261.683 235.217 261.595 235.392 261.529 235.607C261.464 235.822 261.431 236.083 261.431 236.391C261.431 236.694 261.464 236.953 261.529 237.168C261.595 237.378 261.683 237.551 261.795 237.686C261.907 237.817 262.038 237.912 262.187 237.973C262.337 238.029 262.498 238.057 262.67 238.057C262.843 238.057 263.006 238.029 263.16 237.973C263.314 237.912 263.447 237.817 263.559 237.686C263.676 237.551 263.767 237.378 263.832 237.168C263.898 236.953 263.93 236.694 263.93 236.391ZM268.445 234.179C268.492 234.123 268.546 234.074 268.606 234.032C268.672 233.99 268.758 233.969 268.865 233.969H269.768L262.432 243.797C262.39 243.858 262.337 243.907 262.271 243.944C262.206 243.981 262.127 244 262.033 244H261.116L268.445 234.179ZM270.447 241.634C270.447 242.026 270.387 242.376 270.265 242.684C270.144 242.992 269.981 243.253 269.775 243.468C269.575 243.678 269.339 243.839 269.068 243.951C268.802 244.063 268.52 244.119 268.221 244.119C267.904 244.119 267.61 244.063 267.339 243.951C267.073 243.839 266.84 243.678 266.639 243.468C266.443 243.253 266.289 242.992 266.177 242.684C266.065 242.376 266.009 242.026 266.009 241.634C266.009 241.233 266.065 240.876 266.177 240.563C266.289 240.246 266.443 239.98 266.639 239.765C266.84 239.55 267.073 239.387 267.339 239.275C267.61 239.163 267.904 239.107 268.221 239.107C268.534 239.107 268.826 239.163 269.096 239.275C269.372 239.387 269.607 239.55 269.803 239.765C270.004 239.98 270.16 240.246 270.272 240.563C270.389 240.876 270.447 241.233 270.447 241.634ZM269.481 241.634C269.481 241.326 269.449 241.065 269.383 240.85C269.318 240.631 269.227 240.453 269.11 240.318C268.998 240.183 268.865 240.085 268.711 240.024C268.557 239.963 268.394 239.933 268.221 239.933C268.049 239.933 267.885 239.963 267.731 240.024C267.582 240.085 267.451 240.183 267.339 240.318C267.227 240.453 267.139 240.631 267.073 240.85C267.013 241.065 266.982 241.326 266.982 241.634C266.982 241.937 267.013 242.194 267.073 242.404C267.139 242.614 267.227 242.787 267.339 242.922C267.451 243.053 267.582 243.148 267.731 243.209C267.885 243.265 268.049 243.293 268.221 243.293C268.394 243.293 268.557 243.265 268.711 243.209C268.865 243.148 268.998 243.053 269.11 242.922C269.227 242.787 269.318 242.614 269.383 242.404C269.449 242.194 269.481 241.937 269.481 241.634ZM279.225 236.797C279.743 236.797 280.209 236.883 280.625 237.056C281.04 237.229 281.395 237.474 281.689 237.791C281.983 238.108 282.207 238.493 282.361 238.946C282.519 239.394 282.599 239.896 282.599 240.451C282.599 241.011 282.519 241.515 282.361 241.963C282.207 242.411 281.983 242.794 281.689 243.111C281.395 243.428 281.04 243.673 280.625 243.846C280.209 244.014 279.743 244.098 279.225 244.098C278.702 244.098 278.231 244.014 277.811 243.846C277.395 243.673 277.041 243.428 276.747 243.111C276.453 242.794 276.226 242.411 276.068 241.963C275.914 241.515 275.837 241.011 275.837 240.451C275.837 239.896 275.914 239.394 276.068 238.946C276.226 238.493 276.453 238.108 276.747 237.791C277.041 237.474 277.395 237.229 277.811 237.056C278.231 236.883 278.702 236.797 279.225 236.797ZM279.225 243.125C279.925 243.125 280.447 242.892 280.793 242.425C281.138 241.954 281.311 241.298 281.311 240.458C281.311 239.613 281.138 238.955 280.793 238.484C280.447 238.013 279.925 237.777 279.225 237.777C278.87 237.777 278.56 237.838 278.294 237.959C278.032 238.08 277.813 238.255 277.636 238.484C277.463 238.713 277.332 238.995 277.244 239.331C277.16 239.662 277.118 240.038 277.118 240.458C277.118 241.298 277.29 241.954 277.636 242.425C277.986 242.892 278.515 243.125 279.225 243.125ZM284.791 244V237.973L284.007 237.882C283.909 237.859 283.827 237.824 283.762 237.777C283.701 237.726 283.671 237.653 283.671 237.56V237.049H284.791V236.363C284.791 235.957 284.847 235.598 284.959 235.285C285.075 234.968 285.239 234.702 285.449 234.487C285.663 234.268 285.92 234.102 286.219 233.99C286.517 233.878 286.853 233.822 287.227 233.822C287.544 233.822 287.836 233.869 288.102 233.962L288.074 234.585C288.064 234.697 288.001 234.758 287.885 234.767C287.773 234.776 287.621 234.781 287.43 234.781C287.215 234.781 287.019 234.809 286.842 234.865C286.669 234.921 286.52 235.012 286.394 235.138C286.268 235.264 286.17 235.43 286.1 235.635C286.034 235.84 286.002 236.095 286.002 236.398V237.049H288.046V237.952H286.044V244H284.791ZM298.983 244H297.786C297.684 244 297.602 243.974 297.541 243.923C297.485 243.867 297.439 243.806 297.401 243.741L295.616 240.962C295.598 241.027 295.577 241.093 295.553 241.158C295.535 241.219 295.507 241.275 295.469 241.326L293.817 243.741C293.771 243.806 293.719 243.867 293.663 243.923C293.612 243.974 293.54 244 293.446 244H292.333L294.818 240.36L292.431 236.909H293.628C293.731 236.909 293.806 236.925 293.852 236.958C293.899 236.991 293.941 237.037 293.978 237.098L295.721 239.758C295.759 239.623 295.817 239.492 295.896 239.366L297.422 237.126C297.464 237.061 297.509 237.009 297.555 236.972C297.607 236.93 297.667 236.909 297.737 236.909H298.885L296.498 240.297L298.983 244Z" fill="black"/>
<mask id="mask0" mask-type="alpha" maskUnits="userSpaceOnUse" x="547" y="311" width="100" height="100">
<path d="M547 357.046C547 340.759 547 332.615 550.22 326.416C552.933 321.193 557.193 316.933 562.416 314.22C568.615 311 576.759 311 593.046 311H600.954C617.241 311 625.385 311 631.584 314.22C636.807 316.933 641.067 321.193 643.78 326.416C647 332.615 647 340.759 647 357.046V364.954C647 381.241 647 389.385 643.78 395.584C641.067 400.807 636.807 405.067 631.584 407.78C625.385 411 617.241 411 600.954 411H593.046C576.759 411 568.615 411 562.416 407.78C557.193 405.067 552.933 400.807 550.22 395.584C547 389.385 547 381.241 547 364.954V357.046Z" fill="#C4C4C4"/>
</mask>
<g mask="url(#mask0)">
<rect width="100" height="100" transform="translate(547 311)" fill="#F18D8D"/>
<rect x="547" y="311" width="100" height="100" fill="#41A5DD"/>
<path d="M582.566 378.291C585.133 378.291 587.215 376.215 587.215 373.654C587.215 371.094 585.133 369.018 582.566 369.018C579.998 369.018 577.917 371.094 577.917 373.654C577.917 376.215 579.998 378.291 582.566 378.291Z" fill="white"/>
<path fill-rule="evenodd" clip-rule="evenodd" d="M619.015 344.195C618.054 341.475 616.288 340.98 614.273 340.98H612.165C611.979 340.98 611.793 340.98 611.608 341.011H568.463C565.736 341.011 563.504 343.237 563.504 345.957V376.035C563.504 378.755 565.736 380.98 568.463 380.98H599.644V380.95H599.737C601.844 380.95 603.053 380.239 603.673 378.538L605.998 372.109H620.193L622.456 378.538C623.107 380.239 624.501 380.95 626.423 380.95C628.686 380.95 630.545 379.249 630.545 377.086C630.545 376.127 630.018 374.582 629.677 373.716L619.015 344.195ZM582.566 379.342C579.435 379.342 576.863 376.807 576.863 373.654C576.863 370.532 579.404 367.967 582.566 367.967C585.696 367.967 588.269 370.501 588.269 373.654C588.238 376.807 585.696 379.342 582.566 379.342ZM594.622 374.087H589.384C589.384 372.974 588.919 366.792 582.411 366.792C575.902 366.792 575.623 374.149 575.623 374.149H574.228C574.228 374.149 570.168 372.511 569.331 372.078C568.494 371.614 568.401 369.327 568.401 369.327V367.317H569.114V365.277C569.455 360.95 580.086 357.055 580.086 357.055C580.086 357.055 589.012 348.276 590.407 347.039C593.414 344.412 605.595 344.999 605.595 344.999L594.622 374.087ZM607.888 366.019L613.095 350.532H613.188L618.178 366.019H607.888Z" fill="white"/>
<path fill-rule="evenodd" clip-rule="evenodd" d="M576.305 362.279C575.933 362.186 574.569 362.186 573.98 362.155C573.794 362.155 573.608 362.217 573.484 362.341C573.205 362.557 572.771 362.99 572.368 363.515C571.903 364.133 571.562 364.906 571.345 365.401C571.19 365.803 571.624 365.834 571.624 365.834L572.647 366.05C572.771 366.081 572.895 366.05 572.988 365.957L576.398 362.99C576.367 362.99 576.862 362.402 576.305 362.279Z" fill="white"/>
<path fill-rule="evenodd" clip-rule="evenodd" d="M599.333 347.596C598.868 347.596 594.56 348.059 593.723 348.214C592.887 348.369 591.647 349.327 591.647 349.327L586.347 355.169V358.291L597.567 356.127C597.567 356.127 599.023 355.849 599.24 353.994C599.457 352.14 599.922 348.183 599.922 348.183C599.922 348.183 599.798 347.596 599.333 347.596Z" fill="white"/>
</g>
<rect x="497.5" y="460.5" width="199" height="49" transform="rotate(-90 497.5 460.5)" stroke="#D8D8D8"/>
<rect x="647.5" y="460.5" width="199" height="49" transform="rotate(-90 647.5 460.5)" stroke="#D8D8D8"/>
<rect x="808.5" y="310.5" width="144" height="49" transform="rotate(-90 808.5 310.5)" stroke="#D8D8D8"/>
<rect x="334.5" y="310.5" width="144" height="49" transform="rotate(-90 334.5 310.5)" stroke="#D8D8D8"/>
<rect x="334.5" y="261.5" width="523" height="49" stroke="#D8D8D8"/>
<rect x="334.5" y="166.5" width="523" height="49" stroke="#D8D8D8"/>
<rect x="497.5" y="411.5" width="199" height="49" stroke="#D8D8D8"/>
<line x1="487" y1="411.5" x2="473" y2="411.5" stroke="black"/>
<line x1="487" y1="311.5" x2="473" y2="311.5" stroke="black"/>
<line x1="473.5" y1="311" x2="473.5" y2="411" stroke="black"/>
<path d="M462.811 367H461.614C461.511 367 461.43 366.974 461.369 366.923C461.313 366.867 461.266 366.806 461.229 366.741L459.444 363.962C459.425 364.027 459.404 364.093 459.381 364.158C459.362 364.219 459.334 364.275 459.297 364.326L457.645 366.741C457.598 366.806 457.547 366.867 457.491 366.923C457.44 366.974 457.367 367 457.274 367H456.161L458.646 363.36L456.259 359.909H457.456C457.559 359.909 457.633 359.925 457.68 359.958C457.727 359.991 457.769 360.037 457.806 360.098L459.549 362.758C459.586 362.623 459.645 362.492 459.724 362.366L461.25 360.126C461.292 360.061 461.336 360.009 461.383 359.972C461.434 359.93 461.495 359.909 461.565 359.909H462.713L460.326 363.297L462.811 367Z" fill="black"/>
<line x1="880" y1="261.5" x2="894" y2="261.5" stroke="black"/>
<line x1="880" y1="310.5" x2="894" y2="310.5" stroke="black"/>
<line x1="893.5" y1="311" x2="893.5" y2="262" stroke="black"/>
<path d="M906.534 285.756C907.057 285.644 907.537 285.588 907.976 285.588C908.499 285.588 908.961 285.665 909.362 285.819C909.763 285.973 910.097 286.185 910.363 286.456C910.634 286.727 910.837 287.046 910.972 287.415C911.112 287.784 911.182 288.185 911.182 288.619C911.182 289.151 911.089 289.632 910.902 290.061C910.72 290.49 910.466 290.859 910.139 291.167C909.817 291.47 909.437 291.704 908.998 291.867C908.559 292.03 908.086 292.112 907.577 292.112C907.283 292.112 907.001 292.082 906.73 292.021C906.459 291.965 906.205 291.888 905.967 291.79C905.734 291.692 905.517 291.58 905.316 291.454C905.115 291.328 904.938 291.195 904.784 291.055L905.169 290.523C905.253 290.402 905.363 290.341 905.498 290.341C905.591 290.341 905.696 290.378 905.813 290.453C905.93 290.523 906.072 290.602 906.24 290.691C906.408 290.78 906.604 290.861 906.828 290.936C907.057 291.006 907.327 291.041 907.64 291.041C907.99 291.041 908.305 290.985 908.585 290.873C908.865 290.761 909.105 290.602 909.306 290.397C909.507 290.187 909.661 289.937 909.768 289.648C909.875 289.359 909.929 289.034 909.929 288.675C909.929 288.362 909.882 288.08 909.789 287.828C909.7 287.576 909.563 287.361 909.376 287.184C909.194 287.007 908.965 286.869 908.69 286.771C908.415 286.673 908.093 286.624 907.724 286.624C907.472 286.624 907.208 286.645 906.933 286.687C906.662 286.729 906.385 286.797 906.1 286.89L905.316 286.659L906.121 281.969H910.874V282.515C910.874 282.692 910.818 282.839 910.706 282.956C910.599 283.068 910.412 283.124 910.146 283.124H906.996L906.534 285.756ZM920.121 286.988C920.121 287.865 920.025 288.626 919.834 289.27C919.647 289.909 919.391 290.439 919.064 290.859C918.737 291.279 918.35 291.592 917.902 291.797C917.459 292.002 916.983 292.105 916.474 292.105C915.961 292.105 915.482 292.002 915.039 291.797C914.6 291.592 914.218 291.279 913.891 290.859C913.564 290.439 913.308 289.909 913.121 289.27C912.934 288.626 912.841 287.865 912.841 286.988C912.841 286.111 912.934 285.35 913.121 284.706C913.308 284.062 913.564 283.53 913.891 283.11C914.218 282.685 914.6 282.37 915.039 282.165C915.482 281.96 915.961 281.857 916.474 281.857C916.983 281.857 917.459 281.96 917.902 282.165C918.35 282.37 918.737 282.685 919.064 283.11C919.391 283.53 919.647 284.062 919.834 284.706C920.025 285.35 920.121 286.111 920.121 286.988ZM918.826 286.988C918.826 286.223 918.761 285.581 918.63 285.063C918.504 284.54 918.331 284.12 918.112 283.803C917.897 283.486 917.648 283.259 917.363 283.124C917.078 282.984 916.782 282.914 916.474 282.914C916.166 282.914 915.87 282.984 915.585 283.124C915.3 283.259 915.051 283.486 914.836 283.803C914.621 284.12 914.449 284.54 914.318 285.063C914.192 285.581 914.129 286.223 914.129 286.988C914.129 287.753 914.192 288.395 914.318 288.913C914.449 289.431 914.621 289.849 914.836 290.166C915.051 290.483 915.3 290.712 915.585 290.852C915.87 290.987 916.166 291.055 916.474 291.055C916.782 291.055 917.078 290.987 917.363 290.852C917.648 290.712 917.897 290.483 918.112 290.166C918.331 289.849 918.504 289.431 918.63 288.913C918.761 288.395 918.826 287.753 918.826 286.988ZM925.896 284.391C925.896 284.783 925.836 285.135 925.714 285.448C925.593 285.756 925.43 286.017 925.224 286.232C925.024 286.442 924.788 286.603 924.517 286.715C924.251 286.827 923.969 286.883 923.67 286.883C923.358 286.883 923.066 286.827 922.795 286.715C922.525 286.603 922.289 286.442 922.088 286.232C921.892 286.017 921.738 285.756 921.626 285.448C921.514 285.135 921.458 284.783 921.458 284.391C921.458 283.99 921.514 283.633 921.626 283.32C921.738 283.007 921.892 282.744 922.088 282.529C922.289 282.314 922.525 282.151 922.795 282.039C923.066 281.927 923.358 281.871 923.67 281.871C923.988 281.871 924.282 281.927 924.552 282.039C924.823 282.151 925.059 282.314 925.259 282.529C925.46 282.744 925.616 283.007 925.728 283.32C925.84 283.633 925.896 283.99 925.896 284.391ZM924.93 284.391C924.93 284.083 924.898 283.822 924.832 283.607C924.767 283.392 924.676 283.217 924.559 283.082C924.447 282.942 924.314 282.842 924.16 282.781C924.006 282.72 923.843 282.69 923.67 282.69C923.498 282.69 923.337 282.72 923.187 282.781C923.038 282.842 922.907 282.942 922.795 283.082C922.683 283.217 922.595 283.392 922.529 283.607C922.464 283.822 922.431 284.083 922.431 284.391C922.431 284.694 922.464 284.953 922.529 285.168C922.595 285.378 922.683 285.551 922.795 285.686C922.907 285.817 923.038 285.912 923.187 285.973C923.337 286.029 923.498 286.057 923.67 286.057C923.843 286.057 924.006 286.029 924.16 285.973C924.314 285.912 924.447 285.817 924.559 285.686C924.676 285.551 924.767 285.378 924.832 285.168C924.898 284.953 924.93 284.694 924.93 284.391ZM929.445 282.179C929.492 282.123 929.546 282.074 929.606 282.032C929.672 281.99 929.758 281.969 929.865 281.969H930.768L923.432 291.797C923.39 291.858 923.337 291.907 923.271 291.944C923.206 291.981 923.127 292 923.033 292H922.116L929.445 282.179ZM931.447 289.634C931.447 290.026 931.387 290.376 931.265 290.684C931.144 290.992 930.981 291.253 930.775 291.468C930.575 291.678 930.339 291.839 930.068 291.951C929.802 292.063 929.52 292.119 929.221 292.119C928.904 292.119 928.61 292.063 928.339 291.951C928.073 291.839 927.84 291.678 927.639 291.468C927.443 291.253 927.289 290.992 927.177 290.684C927.065 290.376 927.009 290.026 927.009 289.634C927.009 289.233 927.065 288.876 927.177 288.563C927.289 288.246 927.443 287.98 927.639 287.765C927.84 287.55 928.073 287.387 928.339 287.275C928.61 287.163 928.904 287.107 929.221 287.107C929.534 287.107 929.826 287.163 930.096 287.275C930.372 287.387 930.607 287.55 930.803 287.765C931.004 287.98 931.16 288.246 931.272 288.563C931.389 288.876 931.447 289.233 931.447 289.634ZM930.481 289.634C930.481 289.326 930.449 289.065 930.383 288.85C930.318 288.631 930.227 288.453 930.11 288.318C929.998 288.183 929.865 288.085 929.711 288.024C929.557 287.963 929.394 287.933 929.221 287.933C929.049 287.933 928.885 287.963 928.731 288.024C928.582 288.085 928.451 288.183 928.339 288.318C928.227 288.453 928.139 288.631 928.073 288.85C928.013 289.065 927.982 289.326 927.982 289.634C927.982 289.937 928.013 290.194 928.073 290.404C928.139 290.614 928.227 290.787 928.339 290.922C928.451 291.053 928.582 291.148 928.731 291.209C928.885 291.265 929.049 291.293 929.221 291.293C929.394 291.293 929.557 291.265 929.711 291.209C929.865 291.148 929.998 291.053 930.11 290.922C930.227 290.787 930.318 290.614 930.383 290.404C930.449 290.194 930.481 289.937 930.481 289.634ZM940.225 284.797C940.743 284.797 941.209 284.883 941.625 285.056C942.04 285.229 942.395 285.474 942.689 285.791C942.983 286.108 943.207 286.493 943.361 286.946C943.519 287.394 943.599 287.896 943.599 288.451C943.599 289.011 943.519 289.515 943.361 289.963C943.207 290.411 942.983 290.794 942.689 291.111C942.395 291.428 942.04 291.673 941.625 291.846C941.209 292.014 940.743 292.098 940.225 292.098C939.702 292.098 939.231 292.014 938.811 291.846C938.395 291.673 938.041 291.428 937.747 291.111C937.453 290.794 937.226 290.411 937.068 289.963C936.914 289.515 936.837 289.011 936.837 288.451C936.837 287.896 936.914 287.394 937.068 286.946C937.226 286.493 937.453 286.108 937.747 285.791C938.041 285.474 938.395 285.229 938.811 285.056C939.231 284.883 939.702 284.797 940.225 284.797ZM940.225 291.125C940.925 291.125 941.447 290.892 941.793 290.425C942.138 289.954 942.311 289.298 942.311 288.458C942.311 287.613 942.138 286.955 941.793 286.484C941.447 286.013 940.925 285.777 940.225 285.777C939.87 285.777 939.56 285.838 939.294 285.959C939.032 286.08 938.813 286.255 938.636 286.484C938.463 286.713 938.332 286.995 938.244 287.331C938.16 287.662 938.118 288.038 938.118 288.458C938.118 289.298 938.29 289.954 938.636 290.425C938.986 290.892 939.515 291.125 940.225 291.125ZM945.791 292V285.973L945.007 285.882C944.909 285.859 944.827 285.824 944.762 285.777C944.701 285.726 944.671 285.653 944.671 285.56V285.049H945.791V284.363C945.791 283.957 945.847 283.598 945.959 283.285C946.075 282.968 946.239 282.702 946.449 282.487C946.663 282.268 946.92 282.102 947.219 281.99C947.517 281.878 947.853 281.822 948.227 281.822C948.544 281.822 948.836 281.869 949.102 281.962L949.074 282.585C949.064 282.697 949.001 282.758 948.885 282.767C948.773 282.776 948.621 282.781 948.43 282.781C948.215 282.781 948.019 282.809 947.842 282.865C947.669 282.921 947.52 283.012 947.394 283.138C947.268 283.264 947.17 283.43 947.1 283.635C947.034 283.84 947.002 284.095 947.002 284.398V285.049H949.046V285.952H947.044V292H945.791ZM959.983 292H958.786C958.684 292 958.602 291.974 958.541 291.923C958.485 291.867 958.439 291.806 958.401 291.741L956.616 288.962C956.598 289.027 956.577 289.093 956.553 289.158C956.535 289.219 956.507 289.275 956.469 289.326L954.817 291.741C954.771 291.806 954.719 291.867 954.663 291.923C954.612 291.974 954.54 292 954.446 292H953.333L955.818 288.36L953.431 284.909H954.628C954.731 284.909 954.806 284.925 954.852 284.958C954.899 284.991 954.941 285.037 954.978 285.098L956.721 287.758C956.759 287.623 956.817 287.492 956.896 287.366L958.422 285.126C958.464 285.061 958.509 285.009 958.555 284.972C958.607 284.93 958.667 284.909 958.737 284.909H959.885L957.498 288.297L959.983 292Z" fill="black"/>
<line x1="696.5" y1="471" x2="696.5" y2="485" stroke="black"/>
<line x1="647.5" y1="471" x2="647.5" y2="485" stroke="black"/>
<line x1="647" y1="484.5" x2="696" y2="484.5" stroke="black"/>
<path d="M645.534 502.756C646.057 502.644 646.537 502.588 646.976 502.588C647.499 502.588 647.961 502.665 648.362 502.819C648.763 502.973 649.097 503.185 649.363 503.456C649.634 503.727 649.837 504.046 649.972 504.415C650.112 504.784 650.182 505.185 650.182 505.619C650.182 506.151 650.089 506.632 649.902 507.061C649.72 507.49 649.466 507.859 649.139 508.167C648.817 508.47 648.437 508.704 647.998 508.867C647.559 509.03 647.086 509.112 646.577 509.112C646.283 509.112 646.001 509.082 645.73 509.021C645.459 508.965 645.205 508.888 644.967 508.79C644.734 508.692 644.517 508.58 644.316 508.454C644.115 508.328 643.938 508.195 643.784 508.055L644.169 507.523C644.253 507.402 644.363 507.341 644.498 507.341C644.591 507.341 644.696 507.378 644.813 507.453C644.93 507.523 645.072 507.602 645.24 507.691C645.408 507.78 645.604 507.861 645.828 507.936C646.057 508.006 646.327 508.041 646.64 508.041C646.99 508.041 647.305 507.985 647.585 507.873C647.865 507.761 648.105 507.602 648.306 507.397C648.507 507.187 648.661 506.937 648.768 506.648C648.875 506.359 648.929 506.034 648.929 505.675C648.929 505.362 648.882 505.08 648.789 504.828C648.7 504.576 648.563 504.361 648.376 504.184C648.194 504.007 647.965 503.869 647.69 503.771C647.415 503.673 647.093 503.624 646.724 503.624C646.472 503.624 646.208 503.645 645.933 503.687C645.662 503.729 645.385 503.797 645.1 503.89L644.316 503.659L645.121 498.969H649.874V499.515C649.874 499.692 649.818 499.839 649.706 499.956C649.599 500.068 649.412 500.124 649.146 500.124H645.996L645.534 502.756ZM659.121 503.988C659.121 504.865 659.025 505.626 658.834 506.27C658.647 506.909 658.391 507.439 658.064 507.859C657.737 508.279 657.35 508.592 656.902 508.797C656.459 509.002 655.983 509.105 655.474 509.105C654.961 509.105 654.482 509.002 654.039 508.797C653.6 508.592 653.218 508.279 652.891 507.859C652.564 507.439 652.308 506.909 652.121 506.27C651.934 505.626 651.841 504.865 651.841 503.988C651.841 503.111 651.934 502.35 652.121 501.706C652.308 501.062 652.564 500.53 652.891 500.11C653.218 499.685 653.6 499.37 654.039 499.165C654.482 498.96 654.961 498.857 655.474 498.857C655.983 498.857 656.459 498.96 656.902 499.165C657.35 499.37 657.737 499.685 658.064 500.11C658.391 500.53 658.647 501.062 658.834 501.706C659.025 502.35 659.121 503.111 659.121 503.988ZM657.826 503.988C657.826 503.223 657.761 502.581 657.63 502.063C657.504 501.54 657.331 501.12 657.112 500.803C656.897 500.486 656.648 500.259 656.363 500.124C656.078 499.984 655.782 499.914 655.474 499.914C655.166 499.914 654.87 499.984 654.585 500.124C654.3 500.259 654.051 500.486 653.836 500.803C653.621 501.12 653.449 501.54 653.318 502.063C653.192 502.581 653.129 503.223 653.129 503.988C653.129 504.753 653.192 505.395 653.318 505.913C653.449 506.431 653.621 506.849 653.836 507.166C654.051 507.483 654.3 507.712 654.585 507.852C654.87 507.987 655.166 508.055 655.474 508.055C655.782 508.055 656.078 507.987 656.363 507.852C656.648 507.712 656.897 507.483 657.112 507.166C657.331 506.849 657.504 506.431 657.63 505.913C657.761 505.395 657.826 504.753 657.826 503.988ZM664.896 501.391C664.896 501.783 664.836 502.135 664.714 502.448C664.593 502.756 664.43 503.017 664.224 503.232C664.024 503.442 663.788 503.603 663.517 503.715C663.251 503.827 662.969 503.883 662.67 503.883C662.358 503.883 662.066 503.827 661.795 503.715C661.525 503.603 661.289 503.442 661.088 503.232C660.892 503.017 660.738 502.756 660.626 502.448C660.514 502.135 660.458 501.783 660.458 501.391C660.458 500.99 660.514 500.633 660.626 500.32C660.738 500.007 660.892 499.744 661.088 499.529C661.289 499.314 661.525 499.151 661.795 499.039C662.066 498.927 662.358 498.871 662.67 498.871C662.988 498.871 663.282 498.927 663.552 499.039C663.823 499.151 664.059 499.314 664.259 499.529C664.46 499.744 664.616 500.007 664.728 500.32C664.84 500.633 664.896 500.99 664.896 501.391ZM663.93 501.391C663.93 501.083 663.898 500.822 663.832 500.607C663.767 500.392 663.676 500.217 663.559 500.082C663.447 499.942 663.314 499.842 663.16 499.781C663.006 499.72 662.843 499.69 662.67 499.69C662.498 499.69 662.337 499.72 662.187 499.781C662.038 499.842 661.907 499.942 661.795 500.082C661.683 500.217 661.595 500.392 661.529 500.607C661.464 500.822 661.431 501.083 661.431 501.391C661.431 501.694 661.464 501.953 661.529 502.168C661.595 502.378 661.683 502.551 661.795 502.686C661.907 502.817 662.038 502.912 662.187 502.973C662.337 503.029 662.498 503.057 662.67 503.057C662.843 503.057 663.006 503.029 663.16 502.973C663.314 502.912 663.447 502.817 663.559 502.686C663.676 502.551 663.767 502.378 663.832 502.168C663.898 501.953 663.93 501.694 663.93 501.391ZM668.445 499.179C668.492 499.123 668.546 499.074 668.606 499.032C668.672 498.99 668.758 498.969 668.865 498.969H669.768L662.432 508.797C662.39 508.858 662.337 508.907 662.271 508.944C662.206 508.981 662.127 509 662.033 509H661.116L668.445 499.179ZM670.447 506.634C670.447 507.026 670.387 507.376 670.265 507.684C670.144 507.992 669.981 508.253 669.775 508.468C669.575 508.678 669.339 508.839 669.068 508.951C668.802 509.063 668.52 509.119 668.221 509.119C667.904 509.119 667.61 509.063 667.339 508.951C667.073 508.839 666.84 508.678 666.639 508.468C666.443 508.253 666.289 507.992 666.177 507.684C666.065 507.376 666.009 507.026 666.009 506.634C666.009 506.233 666.065 505.876 666.177 505.563C666.289 505.246 666.443 504.98 666.639 504.765C666.84 504.55 667.073 504.387 667.339 504.275C667.61 504.163 667.904 504.107 668.221 504.107C668.534 504.107 668.826 504.163 669.096 504.275C669.372 504.387 669.607 504.55 669.803 504.765C670.004 504.98 670.16 505.246 670.272 505.563C670.389 505.876 670.447 506.233 670.447 506.634ZM669.481 506.634C669.481 506.326 669.449 506.065 669.383 505.85C669.318 505.631 669.227 505.453 669.11 505.318C668.998 505.183 668.865 505.085 668.711 505.024C668.557 504.963 668.394 504.933 668.221 504.933C668.049 504.933 667.885 504.963 667.731 505.024C667.582 505.085 667.451 505.183 667.339 505.318C667.227 505.453 667.139 505.631 667.073 505.85C667.013 506.065 666.982 506.326 666.982 506.634C666.982 506.937 667.013 507.194 667.073 507.404C667.139 507.614 667.227 507.787 667.339 507.922C667.451 508.053 667.582 508.148 667.731 508.209C667.885 508.265 668.049 508.293 668.221 508.293C668.394 508.293 668.557 508.265 668.711 508.209C668.865 508.148 668.998 508.053 669.11 507.922C669.227 507.787 669.318 507.614 669.383 507.404C669.449 507.194 669.481 506.937 669.481 506.634ZM679.225 501.797C679.743 501.797 680.209 501.883 680.625 502.056C681.04 502.229 681.395 502.474 681.689 502.791C681.983 503.108 682.207 503.493 682.361 503.946C682.519 504.394 682.599 504.896 682.599 505.451C682.599 506.011 682.519 506.515 682.361 506.963C682.207 507.411 681.983 507.794 681.689 508.111C681.395 508.428 681.04 508.673 680.625 508.846C680.209 509.014 679.743 509.098 679.225 509.098C678.702 509.098 678.231 509.014 677.811 508.846C677.395 508.673 677.041 508.428 676.747 508.111C676.453 507.794 676.226 507.411 676.068 506.963C675.914 506.515 675.837 506.011 675.837 505.451C675.837 504.896 675.914 504.394 676.068 503.946C676.226 503.493 676.453 503.108 676.747 502.791C677.041 502.474 677.395 502.229 677.811 502.056C678.231 501.883 678.702 501.797 679.225 501.797ZM679.225 508.125C679.925 508.125 680.447 507.892 680.793 507.425C681.138 506.954 681.311 506.298 681.311 505.458C681.311 504.613 681.138 503.955 680.793 503.484C680.447 503.013 679.925 502.777 679.225 502.777C678.87 502.777 678.56 502.838 678.294 502.959C678.032 503.08 677.813 503.255 677.636 503.484C677.463 503.713 677.332 503.995 677.244 504.331C677.16 504.662 677.118 505.038 677.118 505.458C677.118 506.298 677.29 506.954 677.636 507.425C677.986 507.892 678.515 508.125 679.225 508.125ZM684.791 509V502.973L684.007 502.882C683.909 502.859 683.827 502.824 683.762 502.777C683.701 502.726 683.671 502.653 683.671 502.56V502.049H684.791V501.363C684.791 500.957 684.847 500.598 684.959 500.285C685.075 499.968 685.239 499.702 685.449 499.487C685.663 499.268 685.92 499.102 686.219 498.99C686.517 498.878 686.853 498.822 687.227 498.822C687.544 498.822 687.836 498.869 688.102 498.962L688.074 499.585C688.064 499.697 688.001 499.758 687.885 499.767C687.773 499.776 687.621 499.781 687.43 499.781C687.215 499.781 687.019 499.809 686.842 499.865C686.669 499.921 686.52 500.012 686.394 500.138C686.268 500.264 686.17 500.43 686.1 500.635C686.034 500.84 686.002 501.095 686.002 501.398V502.049H688.046V502.952H686.044V509H684.791ZM698.983 509H697.786C697.684 509 697.602 508.974 697.541 508.923C697.485 508.867 697.439 508.806 697.401 508.741L695.616 505.962C695.598 506.027 695.577 506.093 695.553 506.158C695.535 506.219 695.507 506.275 695.469 506.326L693.817 508.741C693.771 508.806 693.719 508.867 693.663 508.923C693.612 508.974 693.54 509 693.446 509H692.333L694.818 505.36L692.431 501.909H693.628C693.731 501.909 693.806 501.925 693.852 501.958C693.899 501.991 693.941 502.037 693.978 502.098L695.721 504.758C695.759 504.623 695.817 504.492 695.896 504.366L697.422 502.126C697.464 502.061 697.509 502.009 697.555 501.972C697.607 501.93 697.667 501.909 697.737 501.909H698.885L696.498 505.297L698.983 509Z" fill="black"/>
<path d="M415.325 234.95C415.325 237.633 414.892 240.075 414.025 242.275C413.175 244.475 411.967 246.367 410.4 247.95C408.833 249.517 406.958 250.733 404.775 251.6C402.592 252.467 400.167 252.9 397.5 252.9H384V217H397.5C400.167 217 402.592 217.433 404.775 218.3C406.958 219.167 408.833 220.392 410.4 221.975C411.967 223.542 413.175 225.433 414.025 227.65C414.892 229.85 415.325 232.283 415.325 234.95ZM409.875 234.95C409.875 232.817 409.583 230.908 409 229.225C408.417 227.525 407.583 226.092 406.5 224.925C405.433 223.742 404.133 222.842 402.6 222.225C401.083 221.608 399.383 221.3 397.5 221.3H389.35V248.6H397.5C399.383 248.6 401.083 248.292 402.6 247.675C404.133 247.058 405.433 246.167 406.5 245C407.583 243.817 408.417 242.383 409 240.7C409.583 239.017 409.875 237.1 409.875 234.95Z" fill="#4D4D4D"/>
<path d="M433.073 227.1C434.94 227.1 436.623 227.408 438.123 228.025C439.64 228.625 440.923 229.5 441.973 230.65C443.04 231.783 443.857 233.158 444.423 234.775C444.99 236.375 445.273 238.175 445.273 240.175C445.273 242.175 444.99 243.983 444.423 245.6C443.857 247.217 443.04 248.592 441.973 249.725C440.923 250.858 439.64 251.733 438.123 252.35C436.623 252.95 434.94 253.25 433.073 253.25C431.19 253.25 429.49 252.95 427.973 252.35C426.473 251.733 425.19 250.858 424.123 249.725C423.057 248.592 422.232 247.217 421.648 245.6C421.082 243.983 420.798 242.175 420.798 240.175C420.798 238.175 421.082 236.375 421.648 234.775C422.232 233.158 423.057 231.783 424.123 230.65C425.19 229.5 426.473 228.625 427.973 228.025C429.49 227.408 431.19 227.1 433.073 227.1ZM433.073 249.45C435.473 249.45 437.265 248.642 438.448 247.025C439.632 245.408 440.223 243.133 440.223 240.2C440.223 237.267 439.632 234.992 438.448 233.375C437.265 231.742 435.473 230.925 433.073 230.925C430.64 230.925 428.823 231.742 427.623 233.375C426.44 234.992 425.848 237.267 425.848 240.2C425.848 243.133 426.44 245.408 427.623 247.025C428.823 248.642 430.64 249.45 433.073 249.45Z" fill="#4D4D4D"/>
<path d="M487.202 227.5L479.027 252.9H475.127C474.661 252.9 474.344 252.592 474.177 251.975L468.827 235.425C468.694 235.008 468.577 234.6 468.477 234.2C468.377 233.783 468.286 233.367 468.202 232.95C468.052 233.817 467.844 234.658 467.577 235.475L462.152 251.975C461.986 252.592 461.627 252.9 461.077 252.9H457.377L449.177 227.5H453.027C453.411 227.5 453.727 227.592 453.977 227.775C454.244 227.958 454.419 228.192 454.502 228.475L459.077 244.075C459.227 244.708 459.361 245.325 459.477 245.925C459.594 246.525 459.702 247.125 459.802 247.725C459.952 247.125 460.111 246.525 460.277 245.925C460.461 245.325 460.644 244.708 460.827 244.075L465.902 228.375C465.986 228.092 466.144 227.867 466.377 227.7C466.611 227.517 466.894 227.425 467.227 227.425H469.352C469.719 227.425 470.019 227.517 470.252 227.7C470.502 227.867 470.669 228.092 470.752 228.375L475.702 244.075C475.886 244.708 476.061 245.333 476.227 245.95C476.394 246.55 476.544 247.158 476.677 247.775C476.777 247.175 476.894 246.575 477.027 245.975C477.161 245.358 477.311 244.725 477.477 244.075L482.127 228.475C482.211 228.192 482.377 227.958 482.627 227.775C482.894 227.592 483.194 227.5 483.527 227.5H487.202Z" fill="#4D4D4D"/>
<path d="M497.458 231.025C498.008 230.442 498.583 229.908 499.183 229.425C499.783 228.942 500.417 228.533 501.083 228.2C501.767 227.85 502.492 227.583 503.258 227.4C504.042 227.2 504.875 227.1 505.758 227.1C507.158 227.1 508.383 227.333 509.433 227.8C510.5 228.267 511.392 228.925 512.108 229.775C512.825 230.608 513.367 231.617 513.733 232.8C514.1 233.983 514.283 235.292 514.283 236.725V252.9H509.383V236.725C509.383 234.908 508.967 233.5 508.133 232.5C507.3 231.483 506.025 230.975 504.308 230.975C503.058 230.975 501.883 231.275 500.783 231.875C499.7 232.458 498.692 233.258 497.758 234.275V252.9H492.883V227.5H495.808C496.492 227.5 496.917 227.825 497.083 228.475L497.458 231.025Z" fill="#4D4D4D"/>
<path d="M527.415 216V252.9H522.515V216H527.415Z" fill="#4D4D4D"/>
<path d="M546.756 227.1C548.622 227.1 550.306 227.408 551.806 228.025C553.322 228.625 554.606 229.5 555.656 230.65C556.722 231.783 557.539 233.158 558.106 234.775C558.672 236.375 558.956 238.175 558.956 240.175C558.956 242.175 558.672 243.983 558.106 245.6C557.539 247.217 556.722 248.592 555.656 249.725C554.606 250.858 553.322 251.733 551.806 252.35C550.306 252.95 548.622 253.25 546.756 253.25C544.872 253.25 543.172 252.95 541.656 252.35C540.156 251.733 538.872 250.858 537.806 249.725C536.739 248.592 535.914 247.217 535.331 245.6C534.764 243.983 534.481 242.175 534.481 240.175C534.481 238.175 534.764 236.375 535.331 234.775C535.914 233.158 536.739 231.783 537.806 230.65C538.872 229.5 540.156 228.625 541.656 228.025C543.172 227.408 544.872 227.1 546.756 227.1ZM546.756 249.45C549.156 249.45 550.947 248.642 552.131 247.025C553.314 245.408 553.906 243.133 553.906 240.2C553.906 237.267 553.314 234.992 552.131 233.375C550.947 231.742 549.156 230.925 546.756 230.925C544.322 230.925 542.506 231.742 541.306 233.375C540.122 234.992 539.531 237.267 539.531 240.2C539.531 243.133 540.122 245.408 541.306 247.025C542.506 248.642 544.322 249.45 546.756 249.45Z" fill="#4D4D4D"/>
<path d="M579.6 241.625C577.617 241.692 575.934 241.85 574.55 242.1C573.167 242.333 572.042 242.65 571.175 243.05C570.309 243.45 569.684 243.925 569.3 244.475C568.917 245.008 568.725 245.608 568.725 246.275C568.725 246.908 568.825 247.458 569.025 247.925C569.242 248.375 569.525 248.75 569.875 249.05C570.242 249.333 570.667 249.542 571.15 249.675C571.634 249.808 572.159 249.875 572.725 249.875C573.475 249.875 574.159 249.8 574.775 249.65C575.409 249.5 576 249.292 576.55 249.025C577.1 248.742 577.625 248.4 578.125 248C578.625 247.6 579.117 247.142 579.6 246.625V241.625ZM565.3 231.05C566.717 229.7 568.25 228.692 569.9 228.025C571.567 227.358 573.392 227.025 575.375 227.025C576.825 227.025 578.109 227.267 579.225 227.75C580.342 228.217 581.284 228.875 582.05 229.725C582.817 230.575 583.392 231.592 583.775 232.775C584.175 233.958 584.375 235.267 584.375 236.7V252.9H582.2C581.717 252.9 581.35 252.825 581.1 252.675C580.85 252.508 580.65 252.208 580.5 251.775L579.975 249.55C579.325 250.15 578.684 250.683 578.05 251.15C577.417 251.6 576.75 251.992 576.05 252.325C575.367 252.642 574.634 252.883 573.85 253.05C573.067 253.217 572.2 253.3 571.25 253.3C570.25 253.3 569.309 253.167 568.425 252.9C567.559 252.617 566.8 252.192 566.15 251.625C565.5 251.058 564.984 250.35 564.6 249.5C564.234 248.65 564.05 247.658 564.05 246.525C564.05 245.525 564.317 244.567 564.85 243.65C565.4 242.717 566.284 241.883 567.5 241.15C568.734 240.417 570.334 239.817 572.3 239.35C574.284 238.883 576.717 238.617 579.6 238.55V236.7C579.6 234.783 579.192 233.35 578.375 232.4C577.559 231.45 576.359 230.975 574.775 230.975C573.709 230.975 572.809 231.108 572.075 231.375C571.359 231.642 570.734 231.942 570.2 232.275C569.684 232.592 569.225 232.883 568.825 233.15C568.442 233.417 568.042 233.55 567.625 233.55C567.292 233.55 567 233.458 566.75 233.275C566.517 233.092 566.325 232.875 566.175 232.625L565.3 231.05Z" fill="#4D4D4D"/>
<path d="M608.83 233.65C608.03 232.6 607.163 231.867 606.23 231.45C605.313 231.033 604.28 230.825 603.13 230.825C600.896 230.825 599.163 231.633 597.93 233.25C596.713 234.85 596.105 237.192 596.105 240.275C596.105 241.892 596.238 243.275 596.505 244.425C596.788 245.558 597.188 246.492 597.705 247.225C598.238 247.942 598.888 248.475 599.655 248.825C600.421 249.158 601.288 249.325 602.255 249.325C603.671 249.325 604.896 249.008 605.93 248.375C606.963 247.742 607.93 246.85 608.83 245.7V233.65ZM613.73 216V252.9H610.78C610.096 252.9 609.671 252.575 609.505 251.925L609.08 249C607.996 250.283 606.763 251.317 605.38 252.1C604.013 252.867 602.43 253.25 600.63 253.25C599.18 253.25 597.863 252.967 596.68 252.4C595.513 251.833 594.513 251.008 593.68 249.925C592.846 248.825 592.205 247.467 591.755 245.85C591.305 244.233 591.08 242.375 591.08 240.275C591.08 238.392 591.33 236.642 591.83 235.025C592.33 233.408 593.055 232.008 594.005 230.825C594.955 229.642 596.105 228.717 597.455 228.05C598.805 227.367 600.33 227.025 602.03 227.025C603.563 227.025 604.863 227.275 605.93 227.775C607.013 228.275 607.98 228.983 608.83 229.9V216H613.73Z" fill="#4D4D4D"/>
<path d="M647.108 227.1C648.975 227.1 650.658 227.408 652.158 228.025C653.675 228.625 654.958 229.5 656.008 230.65C657.075 231.783 657.891 233.158 658.458 234.775C659.025 236.375 659.308 238.175 659.308 240.175C659.308 242.175 659.025 243.983 658.458 245.6C657.891 247.217 657.075 248.592 656.008 249.725C654.958 250.858 653.675 251.733 652.158 252.35C650.658 252.95 648.975 253.25 647.108 253.25C645.225 253.25 643.525 252.95 642.008 252.35C640.508 251.733 639.225 250.858 638.158 249.725C637.091 248.592 636.266 247.217 635.683 245.6C635.116 243.983 634.833 242.175 634.833 240.175C634.833 238.175 635.116 236.375 635.683 234.775C636.266 233.158 637.091 231.783 638.158 230.65C639.225 229.5 640.508 228.625 642.008 228.025C643.525 227.408 645.225 227.1 647.108 227.1ZM647.108 249.45C649.508 249.45 651.3 248.642 652.483 247.025C653.666 245.408 654.258 243.133 654.258 240.2C654.258 237.267 653.666 234.992 652.483 233.375C651.3 231.742 649.508 230.925 647.108 230.925C644.675 230.925 642.858 231.742 641.658 233.375C640.475 234.992 639.883 237.267 639.883 240.2C639.883 243.133 640.475 245.408 641.658 247.025C642.858 248.642 644.675 249.45 647.108 249.45Z" fill="#4D4D4D"/>
<path d="M687.428 227.5V252.9H684.503C683.836 252.9 683.403 252.575 683.203 251.925L682.853 249.375C682.303 249.958 681.728 250.492 681.128 250.975C680.528 251.458 679.886 251.875 679.203 252.225C678.52 252.558 677.795 252.817 677.028 253C676.261 253.2 675.436 253.3 674.553 253.3C673.153 253.3 671.92 253.067 670.853 252.6C669.803 252.133 668.92 251.483 668.203 250.65C667.486 249.8 666.945 248.783 666.578 247.6C666.211 246.417 666.028 245.108 666.028 243.675V227.5H670.928V243.675C670.928 245.492 671.345 246.908 672.178 247.925C673.011 248.925 674.286 249.425 676.003 249.425C677.253 249.425 678.42 249.133 679.503 248.55C680.586 247.95 681.603 247.133 682.553 246.1V227.5H687.428Z" fill="#4D4D4D"/>
<path d="M700.385 232.375C701.202 230.708 702.185 229.4 703.335 228.45C704.485 227.5 705.869 227.025 707.486 227.025C708.036 227.025 708.552 227.092 709.035 227.225C709.535 227.342 709.969 227.525 710.335 227.775L710.01 231.45C709.894 231.9 709.619 232.125 709.185 232.125C708.952 232.125 708.602 232.083 708.135 232C707.669 231.9 707.169 231.85 706.635 231.85C705.852 231.85 705.16 231.967 704.56 232.2C703.96 232.417 703.419 232.75 702.935 233.2C702.469 233.633 702.052 234.175 701.685 234.825C701.319 235.458 700.977 236.183 700.66 237V252.9H695.785V227.5H698.585C699.119 227.5 699.477 227.6 699.66 227.8C699.86 227.983 700.002 228.317 700.085 228.8L700.385 232.375Z" fill="#4D4D4D"/>
<path d="M742.424 241.625C740.441 241.692 738.758 241.85 737.374 242.1C735.991 242.333 734.866 242.65 733.999 243.05C733.133 243.45 732.508 243.925 732.124 244.475C731.741 245.008 731.549 245.608 731.549 246.275C731.549 246.908 731.649 247.458 731.849 247.925C732.066 248.375 732.349 248.75 732.699 249.05C733.066 249.333 733.491 249.542 733.974 249.675C734.458 249.808 734.982 249.875 735.549 249.875C736.299 249.875 736.983 249.8 737.599 249.65C738.233 249.5 738.824 249.292 739.374 249.025C739.924 248.742 740.449 248.4 740.949 248C741.449 247.6 741.941 247.142 742.424 246.625V241.625ZM728.124 231.05C729.541 229.7 731.074 228.692 732.724 228.025C734.391 227.358 736.216 227.025 738.199 227.025C739.649 227.025 740.932 227.267 742.049 227.75C743.166 228.217 744.108 228.875 744.874 229.725C745.641 230.575 746.216 231.592 746.599 232.775C746.999 233.958 747.199 235.267 747.199 236.7V252.9H745.024C744.541 252.9 744.174 252.825 743.924 252.675C743.674 252.508 743.474 252.208 743.324 251.775L742.799 249.55C742.149 250.15 741.508 250.683 740.874 251.15C740.241 251.6 739.574 251.992 738.874 252.325C738.191 252.642 737.457 252.883 736.674 253.05C735.891 253.217 735.024 253.3 734.074 253.3C733.074 253.3 732.133 253.167 731.249 252.9C730.383 252.617 729.624 252.192 728.974 251.625C728.324 251.058 727.807 250.35 727.424 249.5C727.057 248.65 726.874 247.658 726.874 246.525C726.874 245.525 727.141 244.567 727.674 243.65C728.224 242.717 729.107 241.883 730.324 241.15C731.557 240.417 733.158 239.817 735.124 239.35C737.108 238.883 739.541 238.617 742.424 238.55V236.7C742.424 234.783 742.016 233.35 741.199 232.4C740.382 231.45 739.183 230.975 737.599 230.975C736.533 230.975 735.633 231.108 734.899 231.375C734.183 231.642 733.558 231.942 733.024 232.275C732.508 232.592 732.049 232.883 731.649 233.15C731.266 233.417 730.866 233.55 730.449 233.55C730.116 233.55 729.824 233.458 729.574 233.275C729.341 233.092 729.149 232.875 728.999 232.625L728.124 231.05Z" fill="#4D4D4D"/>
<path d="M760.153 246.65C760.953 247.7 761.812 248.433 762.728 248.85C763.662 249.267 764.703 249.475 765.853 249.475C768.087 249.475 769.812 248.675 771.028 247.075C772.262 245.458 772.878 243.108 772.878 240.025C772.878 238.408 772.737 237.033 772.453 235.9C772.187 234.75 771.787 233.817 771.253 233.1C770.737 232.367 770.095 231.833 769.328 231.5C768.562 231.15 767.695 230.975 766.728 230.975C765.312 230.975 764.078 231.292 763.028 231.925C761.995 232.558 761.037 233.458 760.153 234.625V246.65ZM759.903 231.3C760.437 230.667 761.003 230.092 761.603 229.575C762.22 229.042 762.878 228.592 763.578 228.225C764.278 227.842 765.02 227.55 765.803 227.35C766.603 227.133 767.453 227.025 768.353 227.025C769.803 227.025 771.112 227.308 772.278 227.875C773.462 228.442 774.47 229.275 775.303 230.375C776.137 231.475 776.778 232.833 777.228 234.45C777.695 236.067 777.928 237.925 777.928 240.025C777.928 241.908 777.67 243.658 777.153 245.275C776.653 246.875 775.928 248.267 774.978 249.45C774.045 250.633 772.895 251.567 771.528 252.25C770.178 252.917 768.653 253.25 766.953 253.25C765.437 253.25 764.137 253 763.053 252.5C761.97 252 761.003 251.3 760.153 250.4V261.425H755.278V227.5H758.203C758.887 227.5 759.312 227.825 759.478 228.475L759.903 231.3Z" fill="#4D4D4D"/>
<path d="M789.831 246.65C790.631 247.7 791.49 248.433 792.406 248.85C793.34 249.267 794.381 249.475 795.531 249.475C797.765 249.475 799.49 248.675 800.706 247.075C801.94 245.458 802.556 243.108 802.556 240.025C802.556 238.408 802.415 237.033 802.131 235.9C801.865 234.75 801.465 233.817 800.931 233.1C800.415 232.367 799.773 231.833 799.006 231.5C798.24 231.15 797.373 230.975 796.406 230.975C794.99 230.975 793.756 231.292 792.706 231.925C791.673 232.558 790.715 233.458 789.831 234.625V246.65ZM789.581 231.3C790.115 230.667 790.681 230.092 791.281 229.575C791.898 229.042 792.556 228.592 793.256 228.225C793.956 227.842 794.698 227.55 795.481 227.35C796.281 227.133 797.131 227.025 798.031 227.025C799.481 227.025 800.79 227.308 801.956 227.875C803.14 228.442 804.148 229.275 804.981 230.375C805.815 231.475 806.456 232.833 806.906 234.45C807.373 236.067 807.606 237.925 807.606 240.025C807.606 241.908 807.348 243.658 806.831 245.275C806.331 246.875 805.606 248.267 804.656 249.45C803.723 250.633 802.573 251.567 801.206 252.25C799.856 252.917 798.331 253.25 796.631 253.25C795.115 253.25 793.815 253 792.731 252.5C791.648 252 790.681 251.3 789.831 250.4V261.425H784.956V227.5H787.881C788.565 227.5 788.99 227.825 789.156 228.475L789.581 231.3Z" fill="#4D4D4D"/>
</svg>
